G04 Layer: BottomLayer*
G04 EasyEDA Pro v3.2.135, 2026-06-15 15:01:53*
G04 Gerber Generator version 0.3*
G04 Scale: 100 percent, Rotated: No, Reflected: No*
G04 Dimensions in millimeters*
G04 Leading zeros omitted, absolute positions, 4 integers and 5 decimals*
G04 Generated by one-click*
G04 Object Configs: Pad,Via,Track,Text,Image,Dimension,BoardOutline,BoardCutout,CopperFilled,SolidRegion,FPCStiffener,Line,PlaneZone,ComponentProperty,ComponentSilkscreen,TearDrop*
G04 Layer Configs: 1,2,3,4,5,6,7,8,9,10,11,13,14,56*
G04 Copper Areas: 34*
%FSLAX45Y45*%
%MOMM*%
%ADD10C,0.2032*%
%ADD11C,0.254*%
%ADD12C,7.1*%
%ADD13C,1.3*%
%ADD14R,0.8X1.6*%
%ADD15R,0.75999X1.6*%
%ADD16R,0.7X1.6*%
%ADD17O,1.0065X1.7*%
%ADD18O,1.0X1.7*%
%ADD19C,0.61*%
G75*


G04 Copper Start*
G36*
G01X-2750395Y4294456D02*
G01X-504115Y4294456D01*
G01X-511627Y4279928D01*
G01X-516246Y4264239D01*
G01X-517804Y4247958D01*
G01X-517804Y4177958D01*
G01X-515929Y4160117D01*
G01X-510385Y4143055D01*
G01X-501415Y4127518D01*
G01X-489411Y4114186D01*
G01X-474897Y4103641D01*
G01X-458508Y4096345D01*
G01X-440960Y4092615D01*
G01X-423021Y4092615D01*
G01X-405473Y4096345D01*
G01X-389084Y4103641D01*
G01X-374570Y4114186D01*
G01X-362566Y4127518D01*
G01X-353596Y4143055D01*
G01X-348052Y4160117D01*
G01X-346177Y4177958D01*
G01X-346177Y4247958D01*
G01X-347735Y4264239D01*
G01X-352354Y4279928D01*
G01X-359866Y4294456D01*
G01X359866Y4294456D01*
G01X352354Y4279928D01*
G01X347735Y4264239D01*
G01X346177Y4247958D01*
G01X346177Y4177958D01*
G01X348052Y4160117D01*
G01X353596Y4143055D01*
G01X362566Y4127518D01*
G01X374570Y4114186D01*
G01X389084Y4103641D01*
G01X405473Y4096345D01*
G01X423021Y4092615D01*
G01X440960Y4092615D01*
G01X458508Y4096345D01*
G01X474897Y4103641D01*
G01X489411Y4114186D01*
G01X501415Y4127518D01*
G01X510385Y4143055D01*
G01X515929Y4160117D01*
G01X517804Y4177958D01*
G01X517804Y4247958D01*
G01X516246Y4264239D01*
G01X511627Y4279928D01*
G01X504115Y4294456D01*
G01X2750631Y4294456D01*
G01X2752844Y4294421D01*
G01X2754752Y4294330D01*
G01X2756704Y4294175D01*
G01X2758636Y4293961D01*
G01X2760573Y4293686D01*
G01X2762507Y4293351D01*
G01X2764437Y4292955D01*
G01X2766359Y4292500D01*
G01X2768272Y4291986D01*
G01X2770171Y4291414D01*
G01X2772056Y4290784D01*
G01X2773921Y4290097D01*
G01X2775765Y4289356D01*
G01X2777586Y4288559D01*
G01X2779380Y4287710D01*
G01X2781147Y4286807D01*
G01X2782881Y4285854D01*
G01X2784578Y4284854D01*
G01X2786129Y4283875D01*
G01X2788666Y4282135D01*
G01X2790992Y4280375D01*
G01X2792034Y4279508D01*
G01X2794437Y4276969D01*
G01X2829854Y4243044D01*
G01X2864839Y4207970D01*
G01X2899357Y4171728D01*
G01X2933065Y4134593D01*
G01X2965642Y4096820D01*
G01X2996600Y4059027D01*
G01X3025970Y4021428D01*
G01X3053949Y3983874D01*
G01X3080678Y3946282D01*
G01X3105929Y3909087D01*
G01X3129822Y3872192D01*
G01X3152467Y3835572D01*
G01X3173848Y3799385D01*
G01X3194049Y3763620D01*
G01X3213306Y3727990D01*
G01X3231653Y3692572D01*
G01X3249079Y3657517D01*
G01X3265597Y3622935D01*
G01X3281187Y3589011D01*
G01X3295797Y3556072D01*
G01X3309517Y3524017D01*
G01X3322498Y3492578D01*
G01X3334945Y3461343D01*
G01X3346847Y3430439D01*
G01X3358429Y3399412D01*
G01X3369888Y3367741D01*
G01X3381198Y3335447D01*
G01X3392351Y3302551D01*
G01X3403319Y3269138D01*
G01X3414090Y3235234D01*
G01X3424690Y3200746D01*
G01X3435105Y3165747D01*
G01X3445319Y3130310D01*
G01X3455314Y3094516D01*
G01X3465073Y3058447D01*
G01X3474584Y3022169D01*
G01X3483825Y2985776D01*
G01X3492831Y2949141D01*
G01X3501808Y2911505D01*
G01X3510650Y2873340D01*
G01X3519296Y2834903D01*
G01X3527700Y2796394D01*
G01X3535893Y2757696D01*
G01X3543878Y2718814D01*
G01X3551654Y2679756D01*
G01X3559225Y2640525D01*
G01X3566589Y2601134D01*
G01X3573745Y2561600D01*
G01X3580695Y2521933D01*
G01X3587439Y2482133D01*
G01X3593967Y2442285D01*
G01X3600277Y2402399D01*
G01X3606379Y2362448D01*
G01X3612278Y2322437D01*
G01X3617977Y2282389D01*
G01X3623477Y2242319D01*
G01X3628783Y2202234D01*
G01X3633898Y2162156D01*
G01X3638824Y2122098D01*
G01X3643566Y2082076D01*
G01X3648125Y2042103D01*
G01X3652507Y2002186D01*
G01X3656711Y1962355D01*
G01X3660749Y1922579D01*
G01X3664625Y1882861D01*
G01X3668344Y1843226D01*
G01X3671911Y1803695D01*
G01X3675330Y1764270D01*
G01X3678605Y1724980D01*
G01X3681740Y1685836D01*
G01X3684741Y1646853D01*
G01X3687610Y1608052D01*
G01X3690355Y1569435D01*
G01X3692977Y1531034D01*
G01X3695482Y1492850D01*
G01X3697875Y1454908D01*
G01X3700159Y1417221D01*
G01X3702339Y1379807D01*
G01X3704420Y1342673D01*
G01X3706406Y1305843D01*
G01X3708301Y1269332D01*
G01X3710111Y1233151D01*
G01X3711834Y1197420D01*
G01X3713452Y1162755D01*
G01X3715003Y1128272D01*
G01X3716542Y1092739D01*
G01X3718124Y1054922D01*
G01X3719825Y1012706D01*
G01X3721665Y965111D01*
G01X3723617Y912357D01*
G01X3725656Y854662D01*
G01X3727744Y792364D01*
G01X3729856Y725836D01*
G01X3731989Y655415D01*
G01X3734138Y581624D01*
G01X3736297Y504991D01*
G01X3738460Y426051D01*
G01X3740623Y345299D01*
G01X3742779Y263291D01*
G01X3744993Y179121D01*
G01X3747266Y94264D01*
G01X3749578Y9254D01*
G01X3751912Y-75500D01*
G01X3754251Y-159563D01*
G01X3756578Y-242528D01*
G01X3758875Y-323954D01*
G01X3761112Y-403338D01*
G01X3763260Y-480240D01*
G01X3765308Y-554260D01*
G01X3767249Y-625004D01*
G01X3769074Y-692066D01*
G01X3770772Y-755060D01*
G01X3772336Y-813573D01*
G01X3773757Y-867212D01*
G01X3775025Y-915574D01*
G01X3776132Y-958262D01*
G01X3777070Y-994874D01*
G01X3777827Y-1025008D01*
G01X3778397Y-1048263D01*
G01X3778770Y-1063886D01*
G01X3778982Y-1072808D01*
G01X3779097Y-1077699D01*
G01X3779179Y-1081213D01*
G01X3779277Y-1085388D01*
G01X3779376Y-1089650D01*
G01X3779476Y-1093905D01*
G01X3779575Y-1098147D01*
G01X3779673Y-1102387D01*
G01X3779771Y-1106614D01*
G01X3779869Y-1110840D01*
G01X3779966Y-1115057D01*
G01X3780063Y-1119268D01*
G01X3780159Y-1123467D01*
G01X3780255Y-1127661D01*
G01X3780350Y-1131850D01*
G01X3780445Y-1136027D01*
G01X3780540Y-1140205D01*
G01X3780634Y-1144370D01*
G01X3780728Y-1148531D01*
G01X3780822Y-1152680D01*
G01X3780915Y-1156827D01*
G01X3781007Y-1160967D01*
G01X3781099Y-1165095D01*
G01X3781191Y-1169220D01*
G01X3781282Y-1173335D01*
G01X3781373Y-1177447D01*
G01X3781463Y-1181552D01*
G01X3781554Y-1185650D01*
G01X3781643Y-1189738D01*
G01X3781733Y-1193824D01*
G01X3781822Y-1197898D01*
G01X3781910Y-1201970D01*
G01X3781998Y-1206031D01*
G01X3782085Y-1210090D01*
G01X3782172Y-1214139D01*
G01X3782259Y-1218181D01*
G01X3782346Y-1222220D01*
G01X3782431Y-1226250D01*
G01X3782517Y-1230276D01*
G01X3782602Y-1234291D01*
G01X3782687Y-1238304D01*
G01X3782771Y-1242304D01*
G01X3782855Y-1246303D01*
G01X3782939Y-1250293D01*
G01X3783022Y-1254274D01*
G01X3783105Y-1258256D01*
G01X3783187Y-1262224D01*
G01X3783269Y-1266191D01*
G01X3783350Y-1270152D01*
G01X3783432Y-1274107D01*
G01X3783512Y-1278051D01*
G01X3783592Y-1281993D01*
G01X3783672Y-1285925D01*
G01X3783752Y-1289848D01*
G01X3783831Y-1293770D01*
G01X3783909Y-1297683D01*
G01X3783987Y-1301595D01*
G01X3784065Y-1305491D01*
G01X3784143Y-1309390D01*
G01X3784220Y-1313281D01*
G01X3784297Y-1317162D01*
G01X3784373Y-1321042D01*
G01X3784449Y-1324910D01*
G01X3784524Y-1328777D01*
G01X3784599Y-1332632D01*
G01X3784674Y-1336486D01*
G01X3784748Y-1340335D01*
G01X3784822Y-1344173D01*
G01X3784896Y-1348013D01*
G01X3784969Y-1351833D01*
G01X3785041Y-1355662D01*
G01X3785114Y-1359474D01*
G01X3785185Y-1363290D01*
G01X3785257Y-1367098D01*
G01X3785328Y-1370896D01*
G01X3785399Y-1374692D01*
G01X3785469Y-1378478D01*
G01X3785539Y-1382265D01*
G01X3785609Y-1386045D01*
G01X3785678Y-1389813D01*
G01X3785747Y-1393582D01*
G01X3785815Y-1397339D01*
G01X3785883Y-1401099D01*
G01X3785951Y-1404849D01*
G01X3786018Y-1408598D01*
G01X3786086Y-1412341D01*
G01X3786152Y-1416071D01*
G01X3786218Y-1419802D01*
G01X3786284Y-1423523D01*
G01X3786349Y-1427246D01*
G01X3786415Y-1430962D01*
G01X3786479Y-1434666D01*
G01X3786543Y-1438376D01*
G01X3786607Y-1442069D01*
G01X3786671Y-1445765D01*
G01X3786734Y-1449456D01*
G01X3786796Y-1453140D01*
G01X3786859Y-1456822D01*
G01X3786921Y-1460492D01*
G01X3786983Y-1464165D01*
G01X3787044Y-1467832D01*
G01X3787105Y-1471487D01*
G01X3787166Y-1475144D01*
G01X3787226Y-1478791D01*
G01X3787286Y-1482438D01*
G01X3787345Y-1486081D01*
G01X3787404Y-1489721D01*
G01X3787464Y-1493356D01*
G01X3787522Y-1496979D01*
G01X3787580Y-1500605D01*
G01X3787638Y-1504220D01*
G01X3787695Y-1507825D01*
G01X3787752Y-1511431D01*
G01X3787808Y-1515028D01*
G01X3787864Y-1518624D01*
G01X3787920Y-1522219D01*
G01X3787976Y-1525802D01*
G01X3788031Y-1529387D01*
G01X3788085Y-1532967D01*
G01X3788140Y-1536546D01*
G01X3788194Y-1540115D01*
G01X3788248Y-1543682D01*
G01X3788302Y-1547251D01*
G01X3788354Y-1550805D01*
G01X3788407Y-1554367D01*
G01X3788460Y-1557917D01*
G01X3788512Y-1561462D01*
G01X3788563Y-1565008D01*
G01X3788615Y-1568550D01*
G01X3788666Y-1572088D01*
G01X3788717Y-1575624D01*
G01X3788768Y-1579150D01*
G01X3788818Y-1582679D01*
G01X3788867Y-1586198D01*
G01X3788917Y-1589722D01*
G01X3788966Y-1593234D01*
G01X3789015Y-1596744D01*
G01X3789064Y-1600253D01*
G01X3789112Y-1603758D01*
G01X3789160Y-1607260D01*
G01X3789208Y-1610761D01*
G01X3789256Y-1614251D01*
G01X3789302Y-1617745D01*
G01X3789349Y-1621235D01*
G01X3789396Y-1624715D01*
G01X3789442Y-1628202D01*
G01X3789488Y-1631675D01*
G01X3789533Y-1635150D01*
G01X3789579Y-1638623D01*
G01X3789624Y-1642084D01*
G01X3789668Y-1645554D01*
G01X3789713Y-1649017D01*
G01X3789757Y-1652471D01*
G01X3789801Y-1655931D01*
G01X3789844Y-1659379D01*
G01X3789888Y-1662827D01*
G01X3789931Y-1666275D01*
G01X3789974Y-1669710D01*
G01X3790016Y-1673155D01*
G01X3790058Y-1676586D01*
G01X3790100Y-1680025D01*
G01X3790142Y-1683457D01*
G01X3790183Y-1686880D01*
G01X3790224Y-1690307D01*
G01X3790265Y-1693731D01*
G01X3790305Y-1697142D01*
G01X3790346Y-1700565D01*
G01X3790386Y-1703968D01*
G01X3790425Y-1707386D01*
G01X3790465Y-1710795D01*
G01X3790504Y-1714192D01*
G01X3790543Y-1717598D01*
G01X3790582Y-1720997D01*
G01X3790620Y-1724385D01*
G01X3790658Y-1727784D01*
G01X3790696Y-1731172D01*
G01X3790734Y-1734562D01*
G01X3790771Y-1737947D01*
G01X3790809Y-1741327D01*
G01X3790845Y-1744707D01*
G01X3790882Y-1748090D01*
G01X3790919Y-1751462D01*
G01X3790955Y-1754837D01*
G01X3790991Y-1758201D01*
G01X3791026Y-1761571D01*
G01X3791062Y-1764936D01*
G01X3791097Y-1768301D01*
G01X3791133Y-1771663D01*
G01X3791167Y-1775021D01*
G01X3791202Y-1778371D01*
G01X3791236Y-1781726D01*
G01X3791270Y-1785077D01*
G01X3791304Y-1788427D01*
G01X3791338Y-1791775D01*
G01X3791371Y-1795111D01*
G01X3791404Y-1798458D01*
G01X3791438Y-1801799D01*
G01X3791470Y-1805131D01*
G01X3791503Y-1808465D01*
G01X3791535Y-1811803D01*
G01X3791568Y-1815131D01*
G01X3791600Y-1818461D01*
G01X3791631Y-1821785D01*
G01X3791663Y-1825114D01*
G01X3791694Y-1828434D01*
G01X3791725Y-1831754D01*
G01X3791756Y-1835074D01*
G01X3791786Y-1838390D01*
G01X3791817Y-1841704D01*
G01X3791848Y-1845019D01*
G01X3791878Y-1848326D01*
G01X3791908Y-1851635D01*
G01X3791937Y-1854944D01*
G01X3791967Y-1858245D01*
G01X3791996Y-1861548D01*
G01X3792025Y-1864852D01*
G01X3792054Y-1868154D01*
G01X3792083Y-1871453D01*
G01X3792111Y-1874750D01*
G01X3792140Y-1878038D01*
G01X3792168Y-1881333D01*
G01X3792196Y-1884629D01*
G01X3792224Y-1887912D01*
G01X3792251Y-1891202D01*
G01X3792279Y-1894491D01*
G01X3792306Y-1897778D01*
G01X3792334Y-1901062D01*
G01X3792360Y-1904338D01*
G01X3792388Y-1907626D01*
G01X3792414Y-1910899D01*
G01X3792440Y-1914178D01*
G01X3792467Y-1917458D01*
G01X3792493Y-1920729D01*
G01X3792519Y-1924002D01*
G01X3792545Y-1927275D01*
G01X3792570Y-1930542D01*
G01X3792596Y-1933816D01*
G01X3792622Y-1937085D01*
G01X3792647Y-1940348D01*
G01X3792672Y-1943615D01*
G01X3792697Y-1946879D01*
G01X3792721Y-1950140D01*
G01X3792746Y-1953404D01*
G01X3792770Y-1956663D01*
G01X3792795Y-1959922D01*
G01X3792819Y-1963187D01*
G01X3792843Y-1966435D01*
G01X3792867Y-1969696D01*
G01X3792891Y-1972953D01*
G01X3792914Y-1976200D01*
G01X3792937Y-1979461D01*
G01X3792961Y-1982714D01*
G01X3792984Y-1985961D01*
G01X3793007Y-1989213D01*
G01X3793030Y-1992461D01*
G01X3793053Y-1995711D01*
G01X3793076Y-1998961D01*
G01X3793099Y-2002208D01*
G01X3793121Y-2005448D01*
G01X3793143Y-2008694D01*
G01X3793165Y-2011940D01*
G01X3793188Y-2015190D01*
G01X3793209Y-2018427D01*
G01X3793231Y-2021670D01*
G01X3793253Y-2024913D01*
G01X3793275Y-2028155D01*
G01X3793296Y-2031391D01*
G01X3793318Y-2034632D01*
G01X3793339Y-2037875D01*
G01X3793360Y-2041107D01*
G01X3793381Y-2044351D01*
G01X3793403Y-2047590D01*
G01X3793423Y-2050820D01*
G01X3793444Y-2054060D01*
G01X3793465Y-2057294D01*
G01X3793485Y-2060531D01*
G01X3793506Y-2063767D01*
G01X3793526Y-2067000D01*
G01X3793547Y-2070238D01*
G01X3793567Y-2073470D01*
G01X3793587Y-2076700D01*
G01X3793607Y-2079939D01*
G01X3793627Y-2083174D01*
G01X3793647Y-2086400D01*
G01X3793667Y-2089635D01*
G01X3793687Y-2092874D01*
G01X3793706Y-2096104D01*
G01X3793726Y-2099345D01*
G01X3793745Y-2102573D01*
G01X3793783Y-2109048D01*
G01X3793803Y-2112279D01*
G01X3793822Y-2115519D01*
G01X3793841Y-2118757D01*
G01X3793860Y-2121989D01*
G01X3793878Y-2125230D01*
G01X3793897Y-2128468D01*
G01X3793916Y-2131704D01*
G01X3793934Y-2134943D01*
G01X3793953Y-2138180D01*
G01X3793971Y-2141420D01*
G01X3793989Y-2144661D01*
G01X3794007Y-2147896D01*
G01X3794025Y-2151140D01*
G01X3794043Y-2154382D01*
G01X3794061Y-2157625D01*
G01X3794079Y-2160868D01*
G01X3794097Y-2164112D01*
G01X3794115Y-2167350D01*
G01X3794132Y-2170598D01*
G01X3794150Y-2173844D01*
G01X3794168Y-2177082D01*
G01X3794185Y-2180334D01*
G01X3794202Y-2183579D01*
G01X3794220Y-2186830D01*
G01X3794237Y-2190079D01*
G01X3794254Y-2193321D01*
G01X3794271Y-2196580D01*
G01X3794288Y-2199823D01*
G01X3794305Y-2203075D01*
G01X3794322Y-2206334D01*
G01X3794339Y-2209585D01*
G01X3794356Y-2212834D01*
G01X3794372Y-2216093D01*
G01X3794389Y-2219349D01*
G01X3794406Y-2222604D01*
G01X3794422Y-2225866D01*
G01X3794439Y-2229120D01*
G01X3794455Y-2232383D01*
G01X3794472Y-2235644D01*
G01X3794488Y-2238904D01*
G01X3794504Y-2242170D01*
G01X3794521Y-2245433D01*
G01X3794537Y-2248695D01*
G01X3794553Y-2251962D01*
G01X3794569Y-2255230D01*
G01X3794585Y-2258500D01*
G01X3794601Y-2261773D01*
G01X3794617Y-2265038D01*
G01X3794633Y-2268314D01*
G01X3794649Y-2271588D01*
G01X3794665Y-2274863D01*
G01X3794681Y-2278140D01*
G01X3794697Y-2281418D01*
G01X3794713Y-2284688D01*
G01X3794728Y-2287977D01*
G01X3794744Y-2291259D01*
G01X3794760Y-2294536D01*
G01X3794775Y-2297824D01*
G01X3794791Y-2301110D01*
G01X3794807Y-2304391D01*
G01X3794822Y-2307685D01*
G01X3794838Y-2310970D01*
G01X3794853Y-2314267D01*
G01X3794869Y-2317561D01*
G01X3794884Y-2320853D01*
G01X3794900Y-2324149D01*
G01X3794915Y-2327447D01*
G01X3794930Y-2330746D01*
G01X3794946Y-2334047D01*
G01X3794961Y-2337350D01*
G01X3794976Y-2340649D01*
G01X3794992Y-2343962D01*
G01X3795007Y-2347262D01*
G01X3795023Y-2350579D01*
G01X3795038Y-2353885D01*
G01X3795053Y-2357198D01*
G01X3795069Y-2360518D01*
G01X3795084Y-2363831D01*
G01X3795099Y-2367147D01*
G01X3795114Y-2370467D01*
G01X3795129Y-2373786D01*
G01X3795145Y-2377115D01*
G01X3795160Y-2380437D01*
G01X3795175Y-2383767D01*
G01X3795191Y-2387097D01*
G01X3795206Y-2390425D01*
G01X3795221Y-2393761D01*
G01X3795237Y-2397096D01*
G01X3795252Y-2400433D01*
G01X3795267Y-2403772D01*
G01X3795283Y-2407113D01*
G01X3795298Y-2410451D01*
G01X3795313Y-2413802D01*
G01X3795328Y-2417149D01*
G01X3795344Y-2420496D01*
G01X3795359Y-2423848D01*
G01X3795374Y-2427207D01*
G01X3795390Y-2430554D01*
G01X3795405Y-2433921D01*
G01X3795421Y-2437275D01*
G01X3795436Y-2440641D01*
G01X3795452Y-2444005D01*
G01X3795467Y-2447370D01*
G01X3795483Y-2450744D01*
G01X3795498Y-2454119D01*
G01X3795514Y-2457487D01*
G01X3795529Y-2460863D01*
G01X3795544Y-2464240D01*
G01X3795560Y-2467628D01*
G01X3795576Y-2471009D01*
G01X3795591Y-2474398D01*
G01X3795607Y-2477786D01*
G01X3795623Y-2481174D01*
G01X3795639Y-2484564D01*
G01X3795654Y-2487965D01*
G01X3795670Y-2491361D01*
G01X3795686Y-2494764D01*
G01X3795702Y-2498168D01*
G01X3795718Y-2501573D01*
G01X3795734Y-2504982D01*
G01X3795750Y-2508393D01*
G01X3795766Y-2511807D01*
G01X3795782Y-2515226D01*
G01X3795798Y-2518642D01*
G01X3795815Y-2522066D01*
G01X3795831Y-2525494D01*
G01X3795847Y-2528918D01*
G01X3795864Y-2532348D01*
G01X3795880Y-2535781D01*
G01X3795896Y-2539217D01*
G01X3795913Y-2542660D01*
G01X3795929Y-2546096D01*
G01X3795946Y-2549547D01*
G01X3795962Y-2552992D01*
G01X3795979Y-2556444D01*
G01X3795996Y-2559897D01*
G01X3796013Y-2563352D01*
G01X3796030Y-2566811D01*
G01X3796047Y-2570272D01*
G01X3796064Y-2573737D01*
G01X3796081Y-2577207D01*
G01X3796098Y-2580677D01*
G01X3796115Y-2584151D01*
G01X3796132Y-2587628D01*
G01X3796150Y-2591107D01*
G01X3796167Y-2594592D01*
G01X3796184Y-2598081D01*
G01X3796202Y-2601570D01*
G01X3796219Y-2605060D01*
G01X3796237Y-2608558D01*
G01X3796255Y-2612059D01*
G01X3796273Y-2615561D01*
G01X3796291Y-2619066D01*
G01X3796309Y-2622576D01*
G01X3796327Y-2626088D01*
G01X3796345Y-2629603D01*
G01X3796363Y-2633121D01*
G01X3796381Y-2636640D01*
G01X3796400Y-2640173D01*
G01X3796418Y-2643701D01*
G01X3796437Y-2647230D01*
G01X3796455Y-2650770D01*
G01X3796474Y-2654309D01*
G01X3796493Y-2657848D01*
G01X3796512Y-2661396D01*
G01X3796531Y-2664948D01*
G01X3796550Y-2668500D01*
G01X3796569Y-2672056D01*
G01X3796588Y-2675621D01*
G01X3796608Y-2679183D01*
G01X3796627Y-2682742D01*
G01X3796647Y-2686302D01*
G01X3796667Y-2689849D01*
G01X3796686Y-2693385D01*
G01X3796706Y-2696924D01*
G01X3796726Y-2700451D01*
G01X3796746Y-2703979D01*
G01X3796766Y-2707495D01*
G01X3796786Y-2711001D01*
G01X3796806Y-2714511D01*
G01X3796826Y-2718007D01*
G01X3796846Y-2721505D01*
G01X3796867Y-2724992D01*
G01X3796888Y-2728472D01*
G01X3796908Y-2731947D01*
G01X3796929Y-2735415D01*
G01X3796949Y-2738878D01*
G01X3796970Y-2742339D01*
G01X3796991Y-2745787D01*
G01X3797012Y-2749231D01*
G01X3797033Y-2752669D01*
G01X3797054Y-2756101D01*
G01X3797075Y-2759533D01*
G01X3797096Y-2762950D01*
G01X3797118Y-2766363D01*
G01X3797139Y-2769774D01*
G01X3797160Y-2773173D01*
G01X3797182Y-2776574D01*
G01X3797203Y-2779967D01*
G01X3797225Y-2783349D01*
G01X3797247Y-2786727D01*
G01X3797268Y-2790104D01*
G01X3797290Y-2793471D01*
G01X3797312Y-2796834D01*
G01X3797334Y-2800192D01*
G01X3797356Y-2803550D01*
G01X3797378Y-2806897D01*
G01X3797400Y-2810234D01*
G01X3797422Y-2813577D01*
G01X3797444Y-2816907D01*
G01X3797466Y-2820235D01*
G01X3797489Y-2823561D01*
G01X3797511Y-2826880D01*
G01X3797534Y-2830198D01*
G01X3797557Y-2833508D01*
G01X3797579Y-2836814D01*
G01X3797602Y-2840118D01*
G01X3797624Y-2843416D01*
G01X3797647Y-2846710D01*
G01X3797671Y-2850005D01*
G01X3797694Y-2853288D01*
G01X3797717Y-2856571D01*
G01X3797740Y-2859847D01*
G01X3797763Y-2863122D01*
G01X3797786Y-2866402D01*
G01X3797810Y-2869670D01*
G01X3797833Y-2872930D01*
G01X3797857Y-2876199D01*
G01X3797880Y-2879456D01*
G01X3797903Y-2882712D01*
G01X3797928Y-2885970D01*
G01X3797951Y-2889217D01*
G01X3797975Y-2892462D01*
G01X3797999Y-2895715D01*
G01X3798023Y-2898956D01*
G01X3798047Y-2902188D01*
G01X3798071Y-2905435D01*
G01X3798096Y-2908665D01*
G01X3798120Y-2911897D01*
G01X3798144Y-2915136D01*
G01X3798169Y-2918356D01*
G01X3798193Y-2921591D01*
G01X3798218Y-2924815D01*
G01X3798242Y-2928033D01*
G01X3798267Y-2931259D01*
G01X3798292Y-2934479D01*
G01X3798317Y-2937697D01*
G01X3798342Y-2940916D01*
G01X3798367Y-2944131D01*
G01X3798392Y-2947345D01*
G01X3798417Y-2950558D01*
G01X3798442Y-2953769D01*
G01X3798467Y-2956983D01*
G01X3798493Y-2960198D01*
G01X3798519Y-2963401D01*
G01X3798544Y-2966609D01*
G01X3798570Y-2969823D01*
G01X3798596Y-2973026D01*
G01X3798621Y-2976144D01*
G01X3798645Y-2979240D01*
G01X3798669Y-2982333D01*
G01X3798694Y-2985418D01*
G01X3798717Y-2988476D01*
G01X3798740Y-2991535D01*
G01X3798763Y-2994586D01*
G01X3798786Y-2997617D01*
G01X3798808Y-3000633D01*
G01X3798830Y-3003655D01*
G01X3798852Y-3006663D01*
G01X3798873Y-3009654D01*
G01X3798894Y-3012644D01*
G01X3798914Y-3015621D01*
G01X3798934Y-3018590D01*
G01X3798954Y-3021556D01*
G01X3798974Y-3024506D01*
G01X3798993Y-3027449D01*
G01X3799012Y-3030391D01*
G01X3799030Y-3033328D01*
G01X3799048Y-3036250D01*
G01X3799066Y-3039170D01*
G01X3799083Y-3042074D01*
G01X3799100Y-3044972D01*
G01X3799117Y-3047868D01*
G01X3799133Y-3050747D01*
G01X3799148Y-3053618D01*
G01X3799163Y-3056490D01*
G01X3799178Y-3059351D01*
G01X3799193Y-3062206D01*
G01X3799207Y-3065043D01*
G01X3799220Y-3067882D01*
G01X3799234Y-3070709D01*
G01X3799246Y-3073521D01*
G01X3799259Y-3076338D01*
G01X3799271Y-3079144D01*
G01X3799282Y-3081930D01*
G01X3799293Y-3084728D01*
G01X3799304Y-3087513D01*
G01X3799313Y-3090277D01*
G01X3799323Y-3093051D01*
G01X3799332Y-3095805D01*
G01X3799341Y-3098549D01*
G01X3799349Y-3101298D01*
G01X3799356Y-3104027D01*
G01X3799363Y-3106761D01*
G01X3799370Y-3109482D01*
G01X3799377Y-3112201D01*
G01X3799382Y-3114898D01*
G01X3799387Y-3117593D01*
G01X3799392Y-3120290D01*
G01X3799396Y-3122972D01*
G01X3799399Y-3125646D01*
G01X3799402Y-3128322D01*
G01X3799405Y-3130979D01*
G01X3799407Y-3133642D01*
G01X3799408Y-3136277D01*
G01X3799409Y-3138930D01*
G01X3799410Y-3141555D01*
G01X3799409Y-3144190D01*
G01X3799409Y-3146818D01*
G01X3799407Y-3149426D01*
G01X3799405Y-3152041D01*
G01X3799403Y-3154636D01*
G01X3799400Y-3157227D01*
G01X3799396Y-3159822D01*
G01X3799392Y-3162393D01*
G01X3799387Y-3164975D01*
G01X3799381Y-3167537D01*
G01X3799376Y-3170105D01*
G01X3799369Y-3172650D01*
G01X3799362Y-3175202D01*
G01X3799354Y-3177741D01*
G01X3799345Y-3180271D01*
G01X3799336Y-3182804D01*
G01X3799327Y-3185331D01*
G01X3799316Y-3187842D01*
G01X3799305Y-3190349D01*
G01X3799294Y-3192857D01*
G01X3799281Y-3195346D01*
G01X3799268Y-3197846D01*
G01X3799255Y-3200325D01*
G01X3799240Y-3202802D01*
G01X3799225Y-3205277D01*
G01X3799210Y-3207749D01*
G01X3799194Y-3210198D01*
G01X3799177Y-3212658D01*
G01X3799159Y-3215109D01*
G01X3799141Y-3217551D01*
G01X3799122Y-3219983D01*
G01X3799102Y-3222420D01*
G01X3799082Y-3224841D01*
G01X3799061Y-3227260D01*
G01X3799039Y-3229676D01*
G01X3799017Y-3232087D01*
G01X3798993Y-3234482D01*
G01X3798969Y-3236882D01*
G01X3798945Y-3239277D01*
G01X3798919Y-3241658D01*
G01X3798893Y-3244042D01*
G01X3798866Y-3246416D01*
G01X3798838Y-3248776D01*
G01X3798810Y-3251137D01*
G01X3798781Y-3253492D01*
G01X3798751Y-3255834D01*
G01X3798721Y-3258173D01*
G01X3798690Y-3260508D01*
G01X3798657Y-3262836D01*
G01X3798625Y-3265159D01*
G01X3798591Y-3267480D01*
G01X3798557Y-3269791D01*
G01X3798522Y-3272093D01*
G01X3798487Y-3274401D01*
G01X3798450Y-3276692D01*
G01X3798413Y-3278972D01*
G01X3798375Y-3281268D01*
G01X3798336Y-3283543D01*
G01X3798297Y-3285811D01*
G01X3798257Y-3288090D01*
G01X3798216Y-3290341D01*
G01X3798174Y-3292601D01*
G01X3798132Y-3294852D01*
G01X3798089Y-3297102D01*
G01X3798045Y-3299342D01*
G01X3798001Y-3301573D01*
G01X3797955Y-3303807D01*
G01X3797909Y-3306027D01*
G01X3797862Y-3308251D01*
G01X3797815Y-3310465D01*
G01X3797767Y-3312674D01*
G01X3797718Y-3314878D01*
G01X3797668Y-3317077D01*
G01X3797618Y-3319275D01*
G01X3797567Y-3321459D01*
G01X3797515Y-3323642D01*
G01X3797462Y-3325817D01*
G01X3797408Y-3327995D01*
G01X3797354Y-3330172D01*
G01X3797299Y-3332327D01*
G01X3797244Y-3334486D01*
G01X3797187Y-3336644D01*
G01X3797130Y-3338793D01*
G01X3797072Y-3340937D01*
G01X3797014Y-3343066D01*
G01X3796954Y-3345215D01*
G01X3796894Y-3347340D01*
G01X3796834Y-3349464D01*
G01X3796772Y-3351579D01*
G01X3796709Y-3353698D01*
G01X3796647Y-3355812D01*
G01X3796583Y-3357916D01*
G01X3796518Y-3360008D01*
G01X3796453Y-3362115D01*
G01X3796387Y-3364197D01*
G01X3796321Y-3366286D01*
G01X3796253Y-3368359D01*
G01X3796185Y-3370443D01*
G01X3796116Y-3372518D01*
G01X3796047Y-3374576D01*
G01X3795976Y-3376646D01*
G01X3795905Y-3378698D01*
G01X3795834Y-3380750D01*
G01X3795761Y-3382798D01*
G01X3795687Y-3384836D01*
G01X3795613Y-3386882D01*
G01X3795539Y-3388911D01*
G01X3795463Y-3390940D01*
G01X3795387Y-3392968D01*
G01X3795310Y-3394987D01*
G01X3795232Y-3396998D01*
G01X3795154Y-3399017D01*
G01X3795075Y-3401009D01*
G01X3794995Y-3403023D01*
G01X3794914Y-3405011D01*
G01X3794833Y-3407011D01*
G01X3794751Y-3408990D01*
G01X3794668Y-3410978D01*
G01X3794584Y-3412964D01*
G01X3794500Y-3414929D01*
G01X3794415Y-3416895D01*
G01X3794329Y-3418872D01*
G01X3794243Y-3420820D01*
G01X3794155Y-3422785D01*
G01X3794067Y-3424736D01*
G01X3793979Y-3426684D01*
G01X3793889Y-3428622D01*
G01X3793799Y-3430560D01*
G01X3793708Y-3432499D01*
G01X3793616Y-3434429D01*
G01X3793524Y-3436358D01*
G01X3793431Y-3438270D01*
G01X3793337Y-3440196D01*
G01X3793242Y-3442100D01*
G01X3793147Y-3444017D01*
G01X3793051Y-3445916D01*
G01X3792954Y-3447820D01*
G01X3792857Y-3449711D01*
G01X3792758Y-3451602D01*
G01X3792659Y-3453494D01*
G01X3792560Y-3455377D01*
G01X3792459Y-3457251D01*
G01X3792358Y-3459130D01*
G01X3792256Y-3461001D01*
G01X3792153Y-3462866D01*
G01X3792050Y-3464728D01*
G01X3791946Y-3466586D01*
G01X3791841Y-3468436D01*
G01X3791735Y-3470294D01*
G01X3791629Y-3472135D01*
G01X3791522Y-3473972D01*
G01X3791414Y-3475819D01*
G01X3791306Y-3477648D01*
G01X3791196Y-3479482D01*
G01X3791086Y-3481308D01*
G01X3790976Y-3483124D01*
G01X3790864Y-3484942D01*
G01X3790752Y-3486756D01*
G01X3790639Y-3488575D01*
G01X3790526Y-3490357D01*
G01X3790411Y-3492177D01*
G01X3790296Y-3493970D01*
G01X3790180Y-3495774D01*
G01X3790063Y-3497560D01*
G01X3789946Y-3499345D01*
G01X3789828Y-3501123D01*
G01X3789709Y-3502911D01*
G01X3789590Y-3504681D01*
G01X3789469Y-3506457D01*
G01X3789349Y-3508215D01*
G01X3789226Y-3509988D01*
G01X3789104Y-3511747D01*
G01X3788981Y-3513498D01*
G01X3788857Y-3515250D01*
G01X3788732Y-3517003D01*
G01X3788607Y-3518743D01*
G01X3788481Y-3520484D01*
G01X3788354Y-3522226D01*
G01X3788226Y-3523960D01*
G01X3788098Y-3525690D01*
G01X3787969Y-3527412D01*
G01X3787839Y-3529144D01*
G01X3787709Y-3530853D01*
G01X3787577Y-3532573D01*
G01X3787445Y-3534286D01*
G01X3787312Y-3535999D01*
G01X3787179Y-3537699D01*
G01X3787045Y-3539400D01*
G01X3786910Y-3541102D01*
G01X3786775Y-3542787D01*
G01X3786638Y-3544482D01*
G01X3786501Y-3546175D01*
G01X3786363Y-3547853D01*
G01X3786224Y-3549538D01*
G01X3786085Y-3551211D01*
G01X3785945Y-3552888D01*
G01X3785804Y-3554554D01*
G01X3785662Y-3556226D01*
G01X3785520Y-3557889D01*
G01X3785377Y-3559554D01*
G01X3785234Y-3561194D01*
G01X3785089Y-3562859D01*
G01X3784944Y-3564513D01*
G01X3784883Y-3565316D01*
G01X3784800Y-3566138D01*
G01X3784651Y-3567803D01*
G01X3784505Y-3569437D01*
G01X3784356Y-3571074D01*
G01X3784208Y-3572707D01*
G01X3784058Y-3574337D01*
G01X3783908Y-3575964D01*
G01X3783757Y-3577589D01*
G01X3783605Y-3579214D01*
G01X3783452Y-3580826D01*
G01X3783299Y-3582445D01*
G01X3783146Y-3584045D01*
G01X3782990Y-3585664D01*
G01X3782835Y-3587263D01*
G01X3782678Y-3588876D01*
G01X3782522Y-3590469D01*
G01X3782365Y-3592059D01*
G01X3782206Y-3593656D01*
G01X3782047Y-3595240D01*
G01X3781887Y-3596827D01*
G01X3781727Y-3598414D01*
G01X3781565Y-3599995D01*
G01X3781403Y-3601577D01*
G01X3781241Y-3603141D01*
G01X3781077Y-3604717D01*
G01X3780913Y-3606286D01*
G01X3780748Y-3607850D01*
G01X3780583Y-3609413D01*
G01X3780416Y-3610978D01*
G01X3780250Y-3612524D01*
G01X3780081Y-3614083D01*
G01X3779912Y-3615644D01*
G01X3779744Y-3617176D01*
G01X3779573Y-3618726D01*
G01X3779405Y-3620251D01*
G01X3779231Y-3621813D01*
G01X3779059Y-3623339D01*
G01X3778885Y-3624889D01*
G01X3778713Y-3626408D01*
G01X3778538Y-3627942D01*
G01X3778363Y-3629457D01*
G01X3778186Y-3630991D01*
G01X3778010Y-3632505D01*
G01X3777832Y-3634034D01*
G01X3777655Y-3635542D01*
G01X3777477Y-3637044D01*
G01X3777295Y-3638570D01*
G01X3777116Y-3640070D01*
G01X3776935Y-3641569D01*
G01X3776753Y-3643081D01*
G01X3776572Y-3644564D01*
G01X3776387Y-3646077D01*
G01X3776204Y-3647559D01*
G01X3776018Y-3649061D01*
G01X3775834Y-3650539D01*
G01X3775647Y-3652036D01*
G01X3775460Y-3653514D01*
G01X3775273Y-3654994D01*
G01X3775084Y-3656479D01*
G01X3774896Y-3657950D01*
G01X3774706Y-3659422D01*
G01X3774516Y-3660889D01*
G01X3774324Y-3662363D01*
G01X3774131Y-3663834D01*
G01X3773939Y-3665292D01*
G01X3773746Y-3666754D01*
G01X3773551Y-3668219D01*
G01X3773357Y-3669669D01*
G01X3773160Y-3671130D01*
G01X3772965Y-3672576D01*
G01X3772767Y-3674031D01*
G01X3772570Y-3675473D01*
G01X3772370Y-3676925D01*
G01X3772172Y-3678361D01*
G01X3771971Y-3679808D01*
G01X3771771Y-3681240D01*
G01X3771569Y-3682682D01*
G01X3771367Y-3684116D01*
G01X3771164Y-3685542D01*
G01X3770960Y-3686978D01*
G01X3770755Y-3688405D01*
G01X3770551Y-3689824D01*
G01X3770345Y-3691244D01*
G01X3770138Y-3692673D01*
G01X3769933Y-3694077D01*
G01X3769725Y-3695494D01*
G01X3769517Y-3696899D01*
G01X3769306Y-3698319D01*
G01X3769097Y-3699724D01*
G01X3768888Y-3701121D01*
G01X3768676Y-3702523D01*
G01X3768465Y-3703920D01*
G01X3768251Y-3705323D01*
G01X3768039Y-3706711D01*
G01X3767825Y-3708104D01*
G01X3767609Y-3709499D01*
G01X3767394Y-3710887D01*
G01X3767177Y-3712278D01*
G01X3766963Y-3713643D01*
G01X3766744Y-3715035D01*
G01X3766525Y-3716420D01*
G01X3766309Y-3717771D01*
G01X3766086Y-3719170D01*
G01X3765867Y-3720531D01*
G01X3765644Y-3721913D01*
G01X3765424Y-3723268D01*
G01X3765201Y-3724634D01*
G01X3764977Y-3726004D01*
G01X3764753Y-3727365D01*
G01X3764527Y-3728732D01*
G01X3764303Y-3730082D01*
G01X3764077Y-3731432D01*
G01X3763849Y-3732790D01*
G01X3763622Y-3734136D01*
G01X3763392Y-3735490D01*
G01X3763164Y-3736831D01*
G01X3762933Y-3738183D01*
G01X3762703Y-3739520D01*
G01X3762471Y-3740860D01*
G01X3762240Y-3742193D01*
G01X3762005Y-3743537D01*
G01X3761771Y-3744871D01*
G01X3761537Y-3746204D01*
G01X3761301Y-3747534D01*
G01X3761066Y-3748858D01*
G01X3760830Y-3750180D01*
G01X3760590Y-3751517D01*
G01X3760353Y-3752833D01*
G01X3760114Y-3754149D01*
G01X3759873Y-3755475D01*
G01X3759632Y-3756791D01*
G01X3759392Y-3758101D01*
G01X3759150Y-3759409D01*
G01X3758906Y-3760728D01*
G01X3758663Y-3762031D01*
G01X3758416Y-3763351D01*
G01X3758173Y-3764639D01*
G01X3757926Y-3765950D01*
G01X3757679Y-3767247D01*
G01X3757430Y-3768560D01*
G01X3757184Y-3769841D01*
G01X3756933Y-3771144D01*
G01X3756684Y-3772434D01*
G01X3756432Y-3773734D01*
G01X3756181Y-3775019D01*
G01X3755928Y-3776311D01*
G01X3755676Y-3777591D01*
G01X3755421Y-3778881D01*
G01X3755165Y-3780170D01*
G01X3754911Y-3781442D01*
G01X3754654Y-3782723D01*
G01X3754396Y-3784003D01*
G01X3754139Y-3785278D01*
G01X3753878Y-3786564D01*
G01X3753621Y-3787821D01*
G01X3753359Y-3789102D01*
G01X3753098Y-3790367D01*
G01X3752835Y-3791637D01*
G01X3752574Y-3792894D01*
G01X3752308Y-3794172D01*
G01X3752044Y-3795433D01*
G01X3751780Y-3796684D01*
G01X3751511Y-3797957D01*
G01X3751247Y-3799201D01*
G01X3750976Y-3800472D01*
G01X3750709Y-3801716D01*
G01X3750438Y-3802980D01*
G01X3750169Y-3804220D01*
G01X3749897Y-3805475D01*
G01X3749625Y-3806726D01*
G01X3749351Y-3807976D01*
G01X3749079Y-3809212D01*
G01X3748803Y-3810465D01*
G01X3748528Y-3811705D01*
G01X3748252Y-3812943D01*
G01X3747973Y-3814192D01*
G01X3747698Y-3815419D01*
G01X3747419Y-3816655D01*
G01X3747136Y-3817906D01*
G01X3746859Y-3819124D01*
G01X3746577Y-3820359D01*
G01X3746293Y-3821594D01*
G01X3746011Y-3822821D01*
G01X3745726Y-3824052D01*
G01X3745441Y-3825282D01*
G01X3745158Y-3826492D01*
G01X3744867Y-3827739D01*
G01X3744582Y-3828948D01*
G01X3744294Y-3830170D01*
G01X3744006Y-3831383D01*
G01X3743712Y-3832618D01*
G01X3743423Y-3833825D01*
G01X3743130Y-3835047D01*
G01X3742840Y-3836251D01*
G01X3742544Y-3837476D01*
G01X3742253Y-3838672D01*
G01X3741953Y-3839901D01*
G01X3741659Y-3841101D01*
G01X3741362Y-3842307D01*
G01X3741062Y-3843525D01*
G01X3740765Y-3844723D01*
G01X3740464Y-3845932D01*
G01X3740164Y-3847133D01*
G01X3739862Y-3848334D01*
G01X3739560Y-3849533D01*
G01X3739255Y-3850742D01*
G01X3738954Y-3851927D01*
G01X3738654Y-3853102D01*
G01X3738340Y-3854330D01*
G01X3738033Y-3855525D01*
G01X3737725Y-3856717D01*
G01X3737413Y-3857925D01*
G01X3737103Y-3859121D01*
G01X3736786Y-3860339D01*
G01X3736470Y-3861550D01*
G01X3736146Y-3862787D01*
G01X3735823Y-3864015D01*
G01X3735493Y-3865267D01*
G01X3735168Y-3866496D01*
G01X3734832Y-3867760D01*
G01X3734497Y-3869015D01*
G01X3734158Y-3870285D01*
G01X3733817Y-3871553D01*
G01X3733474Y-3872826D01*
G01X3733123Y-3874124D01*
G01X3732775Y-3875401D01*
G01X3732419Y-3876703D01*
G01X3732059Y-3878020D01*
G01X3731701Y-3879319D01*
G01X3731336Y-3880637D01*
G01X3730969Y-3881959D01*
G01X3730598Y-3883285D01*
G01X3730222Y-3884627D01*
G01X3729843Y-3885970D01*
G01X3729460Y-3887326D01*
G01X3729077Y-3888673D01*
G01X3728685Y-3890044D01*
G01X3728294Y-3891406D01*
G01X3727898Y-3892776D01*
G01X3727496Y-3894164D01*
G01X3727090Y-3895558D01*
G01X3726682Y-3896950D01*
G01X3726271Y-3898344D01*
G01X3725853Y-3899756D01*
G01X3725431Y-3901175D01*
G01X3725007Y-3902592D01*
G01X3724579Y-3904015D01*
G01X3724146Y-3905451D01*
G01X3723708Y-3906890D01*
G01X3723265Y-3908341D01*
G01X3722820Y-3909790D01*
G01X3722369Y-3911250D01*
G01X3721914Y-3912718D01*
G01X3721455Y-3914187D01*
G01X3720992Y-3915660D01*
G01X3720521Y-3917155D01*
G01X3720049Y-3918643D01*
G01X3719572Y-3920135D01*
G01X3719086Y-3921651D01*
G01X3718600Y-3923153D01*
G01X3718106Y-3924671D01*
G01X3717602Y-3926212D01*
G01X3717094Y-3927756D01*
G01X3716579Y-3929313D01*
G01X3716060Y-3930871D01*
G01X3715534Y-3932442D01*
G01X3715003Y-3934019D01*
G01X3714466Y-3935603D01*
G01X3713922Y-3937203D01*
G01X3713373Y-3938806D01*
G01X3712818Y-3940417D01*
G01X3712262Y-3942023D01*
G01X3711694Y-3943657D01*
G01X3711126Y-3945281D01*
G01X3710863Y-3946065D01*
G01X3710570Y-3946861D01*
G01X3709972Y-3948553D01*
G01X3709389Y-3950195D01*
G01X3708801Y-3951841D01*
G01X3708205Y-3953500D01*
G01X3707609Y-3955153D01*
G01X3707007Y-3956811D01*
G01X3706400Y-3958476D01*
G01X3705791Y-3960139D01*
G01X3705174Y-3961813D01*
G01X3704556Y-3963482D01*
G01X3703935Y-3965151D01*
G01X3703307Y-3966828D01*
G01X3702676Y-3968509D01*
G01X3702045Y-3970176D01*
G01X3701405Y-3971861D01*
G01X3700766Y-3973535D01*
G01X3700120Y-3975220D01*
G01X3699476Y-3976890D01*
G01X3698825Y-3978567D01*
G01X3698172Y-3980243D01*
G01X3697868Y-3981051D01*
G01X3697537Y-3981863D01*
G01X3696856Y-3983593D01*
G01X3696196Y-3985258D01*
G01X3695533Y-3986924D01*
G01X3694867Y-3988588D01*
G01X3694198Y-3990251D01*
G01X3693524Y-3991916D01*
G01X3692835Y-3993610D01*
G01X3692105Y-3995394D01*
G01X3691357Y-3997212D01*
G01X3690598Y-3999048D01*
G01X3689821Y-4000916D01*
G01X3689026Y-4002818D01*
G01X3688223Y-4004728D01*
G01X3687403Y-4006669D01*
G01X3687016Y-4007623D01*
G01X3686598Y-4008563D01*
G01X3685728Y-4010599D01*
G01X3684874Y-4012587D01*
G01X3684010Y-4014587D01*
G01X3683137Y-4016600D01*
G01X3682256Y-4018616D01*
G01X3681369Y-4020635D01*
G01X3680472Y-4022667D01*
G01X3679570Y-4024695D01*
G01X3678655Y-4026742D01*
G01X3677729Y-4028803D01*
G01X3676793Y-4030875D01*
G01X3675847Y-4032956D01*
G01X3674888Y-4035053D01*
G01X3673917Y-4037167D01*
G01X3672939Y-4039281D01*
G01X3671946Y-4041417D01*
G01X3670975Y-4043496D01*
G01X3669929Y-4045722D01*
G01X3668906Y-4047883D01*
G01X3667869Y-4050066D01*
G01X3666822Y-4052256D01*
G01X3665761Y-4054464D01*
G01X3664693Y-4056673D01*
G01X3663612Y-4058897D01*
G01X3662516Y-4061138D01*
G01X3661411Y-4063389D01*
G01X3660295Y-4065646D01*
G01X3659166Y-4067918D01*
G01X3658029Y-4070192D01*
G01X3656873Y-4072494D01*
G01X3655715Y-4074785D01*
G01X3654535Y-4077108D01*
G01X3653350Y-4079429D01*
G01X3652152Y-4081761D01*
G01X3650942Y-4084104D01*
G01X3649718Y-4086462D01*
G01X3648484Y-4088824D01*
G01X3647236Y-4091200D01*
G01X3645979Y-4093582D01*
G01X3644708Y-4095976D01*
G01X3643423Y-4098383D01*
G01X3642131Y-4100789D01*
G01X3640820Y-4103219D01*
G01X3639501Y-4105651D01*
G01X3638169Y-4108092D01*
G01X3636826Y-4110539D01*
G01X3635467Y-4113003D01*
G01X3634097Y-4115472D01*
G01X3632715Y-4117950D01*
G01X3631321Y-4120437D01*
G01X3629911Y-4122937D01*
G01X3628495Y-4125435D01*
G01X3627059Y-4127955D01*
G01X3625607Y-4130487D01*
G01X3624148Y-4133020D01*
G01X3622672Y-4135567D01*
G01X3621187Y-4138117D01*
G01X3619687Y-4140679D01*
G01X3618177Y-4143242D01*
G01X3616652Y-4145817D01*
G01X3615113Y-4148402D01*
G01X3613564Y-4150991D01*
G01X3611999Y-4153590D01*
G01X3610426Y-4156189D01*
G01X3608834Y-4158806D01*
G01X3607233Y-4161424D01*
G01X3605619Y-4164048D01*
G01X3603988Y-4166685D01*
G01X3602347Y-4169324D01*
G01X3600693Y-4171970D01*
G01X3599026Y-4174622D01*
G01X3597342Y-4177287D01*
G01X3595648Y-4179953D01*
G01X3593940Y-4182626D01*
G01X3592216Y-4185310D01*
G01X3590485Y-4187990D01*
G01X3588736Y-4190684D01*
G01X3586971Y-4193387D01*
G01X3585198Y-4196087D01*
G01X3583408Y-4198798D01*
G01X3581601Y-4201523D01*
G01X3579788Y-4204238D01*
G01X3577954Y-4206972D01*
G01X3576113Y-4209700D01*
G01X3574251Y-4212446D01*
G01X3572380Y-4215189D01*
G01X3570492Y-4217942D01*
G01X3568593Y-4220696D01*
G01X3566676Y-4223461D01*
G01X3564750Y-4226224D01*
G01X3562805Y-4228999D01*
G01X3560846Y-4231778D01*
G01X3558878Y-4234555D01*
G01X3556890Y-4237346D01*
G01X3554890Y-4240138D01*
G01X3552877Y-4242932D01*
G01X3550845Y-4245737D01*
G01X3548803Y-4248540D01*
G01X3546745Y-4251351D01*
G01X3544670Y-4254168D01*
G01X3542585Y-4256985D01*
G01X3540485Y-4259806D01*
G01X3538371Y-4262628D01*
G01X3536254Y-4265440D01*
G01X3534119Y-4268259D01*
G01X3531977Y-4271071D01*
G01X3529818Y-4273889D01*
G01X3527652Y-4276701D01*
G01X3525476Y-4279511D01*
G01X3523285Y-4282325D01*
G01X3521090Y-4285127D01*
G01X3518878Y-4287936D01*
G01X3516657Y-4290741D01*
G01X3514430Y-4293538D01*
G01X3512191Y-4296336D01*
G01X3509939Y-4299133D01*
G01X3507683Y-4301920D01*
G01X3505415Y-4304707D01*
G01X3503134Y-4307495D01*
G01X3500850Y-4310272D01*
G01X3498557Y-4313045D01*
G01X3496252Y-4315816D01*
G01X3493938Y-4318582D01*
G01X3491619Y-4321340D01*
G01X3489287Y-4324099D01*
G01X3486950Y-4326849D01*
G01X3484609Y-4329588D01*
G01X3482255Y-4332327D01*
G01X3479891Y-4335064D01*
G01X3477529Y-4337782D01*
G01X3475152Y-4340503D01*
G01X3472767Y-4343219D01*
G01X3470381Y-4345921D01*
G01X3467985Y-4348619D01*
G01X3465582Y-4351309D01*
G01X3463175Y-4353990D01*
G01X3460760Y-4356665D01*
G01X3458337Y-4359334D01*
G01X3455910Y-4361991D01*
G01X3453480Y-4364638D01*
G01X3451039Y-4367281D01*
G01X3448594Y-4369915D01*
G01X3446149Y-4372532D01*
G01X3443695Y-4375145D01*
G01X3441234Y-4377750D01*
G01X3438775Y-4380339D01*
G01X3436304Y-4382925D01*
G01X3433833Y-4385497D01*
G01X3431363Y-4388054D01*
G01X3428880Y-4390609D01*
G01X3426399Y-4393148D01*
G01X3423913Y-4395678D01*
G01X3421425Y-4398197D01*
G01X3418933Y-4400704D01*
G01X3416432Y-4403208D01*
G01X3413934Y-4405694D01*
G01X3411433Y-4408169D01*
G01X3408925Y-4410636D01*
G01X3406412Y-4413096D01*
G01X3403902Y-4415538D01*
G01X3401384Y-4417975D01*
G01X3398864Y-4420399D01*
G01X3396337Y-4422816D01*
G01X3393811Y-4425219D01*
G01X3391279Y-4427614D01*
G01X3388746Y-4429997D01*
G01X3386212Y-4432367D01*
G01X3383676Y-4434726D01*
G01X3381135Y-4437075D01*
G01X3378588Y-4439417D01*
G01X3376044Y-4441742D01*
G01X3373494Y-4444060D01*
G01X3370942Y-4446367D01*
G01X3368384Y-4448664D01*
G01X3365826Y-4450948D01*
G01X3363263Y-4453224D01*
G01X3360694Y-4455492D01*
G01X3358127Y-4457745D01*
G01X3355550Y-4459994D01*
G01X3352978Y-4462224D01*
G01X3350397Y-4464449D01*
G01X3347811Y-4466665D01*
G01X3345224Y-4468869D01*
G01X3342635Y-4471062D01*
G01X3340035Y-4473250D01*
G01X3337440Y-4475421D01*
G01X3334831Y-4477591D01*
G01X3332229Y-4479742D01*
G01X3329612Y-4481893D01*
G01X3327014Y-4484015D01*
G01X3324428Y-4486114D01*
G01X3321859Y-4488186D01*
G01X3319293Y-4490244D01*
G01X3316744Y-4492275D01*
G01X3314206Y-4494286D01*
G01X3311671Y-4496281D01*
G01X3309149Y-4498255D01*
G01X3306627Y-4500216D01*
G01X3304118Y-4502155D01*
G01X3301606Y-4504083D01*
G01X3299101Y-4505996D01*
G01X3296594Y-4507899D01*
G01X3294090Y-4509787D01*
G01X3291588Y-4511665D01*
G01X3289093Y-4513525D01*
G01X3286599Y-4515373D01*
G01X3284102Y-4517214D01*
G01X3281619Y-4519032D01*
G01X3279130Y-4520843D01*
G01X3276637Y-4522646D01*
G01X3274153Y-4524431D01*
G01X3271663Y-4526209D01*
G01X3269175Y-4527974D01*
G01X3266685Y-4529728D01*
G01X3264196Y-4531471D01*
G01X3261697Y-4533208D01*
G01X3259196Y-4534935D01*
G01X3256693Y-4536652D01*
G01X3254185Y-4538360D01*
G01X3251672Y-4540060D01*
G01X3249154Y-4541751D01*
G01X3246623Y-4543439D01*
G01X3244091Y-4545116D01*
G01X3241550Y-4546787D01*
G01X3238996Y-4548455D01*
G01X3236439Y-4550113D01*
G01X3233865Y-4551769D01*
G01X3231291Y-4553415D01*
G01X3228697Y-4555061D01*
G01X3226092Y-4556702D01*
G01X3223481Y-4558334D01*
G01X3220851Y-4559968D01*
G01X3218206Y-4561598D01*
G01X3215553Y-4563222D01*
G01X3213100Y-4564712D01*
G01X3210653Y-4566186D01*
G01X3208204Y-4567649D01*
G01X3205733Y-4569113D01*
G01X3203254Y-4570570D01*
G01X3200772Y-4572016D01*
G01X3198267Y-4573464D01*
G01X3195750Y-4574907D01*
G01X3193225Y-4576343D01*
G01X3190688Y-4577773D01*
G01X3188139Y-4579199D01*
G01X3185576Y-4580621D01*
G01X3183001Y-4582037D01*
G01X3180421Y-4583445D01*
G01X3177824Y-4584850D01*
G01X3175209Y-4586254D01*
G01X3172596Y-4587645D01*
G01X3169965Y-4589034D01*
G01X3167316Y-4590421D01*
G01X3164667Y-4591796D01*
G01X3161996Y-4593172D01*
G01X3159325Y-4594536D01*
G01X3156635Y-4595899D01*
G01X3153933Y-4597256D01*
G01X3151226Y-4598605D01*
G01X3148505Y-4599950D01*
G01X3145768Y-4601291D01*
G01X3143029Y-4602622D01*
G01X3140270Y-4603952D01*
G01X3137509Y-4605271D01*
G01X3134731Y-4606588D01*
G01X3131942Y-4607899D01*
G01X3129145Y-4609202D01*
G01X3126337Y-4610501D01*
G01X3123518Y-4611793D01*
G01X3120685Y-4613080D01*
G01X3117844Y-4614360D01*
G01X3114998Y-4615632D01*
G01X3112133Y-4616902D01*
G01X3109257Y-4618165D01*
G01X3106381Y-4619418D01*
G01X3103485Y-4620668D01*
G01X3100579Y-4621913D01*
G01X3097641Y-4623160D01*
G01X3094625Y-4624430D01*
G01X3091586Y-4625698D01*
G01X3088517Y-4626968D01*
G01X3085437Y-4628231D01*
G01X3082332Y-4629494D01*
G01X3079198Y-4630757D01*
G01X3076051Y-4632015D01*
G01X3072871Y-4633275D01*
G01X3069677Y-4634529D01*
G01X3066452Y-4635784D01*
G01X3063211Y-4637035D01*
G01X3059938Y-4638287D01*
G01X3056651Y-4639533D01*
G01X3053330Y-4640781D01*
G01X3049997Y-4642022D01*
G01X3046632Y-4643264D01*
G01X3043241Y-4644504D01*
G01X3039835Y-4645739D01*
G01X3036396Y-4646975D01*
G01X3032935Y-4648208D01*
G01X3029454Y-4649436D01*
G01X3025944Y-4650664D01*
G01X3022410Y-4651888D01*
G01X3018855Y-4653109D01*
G01X3015270Y-4654329D01*
G01X3011665Y-4655545D01*
G01X3008029Y-4656760D01*
G01X3004375Y-4657970D01*
G01X3000688Y-4659179D01*
G01X2996984Y-4660383D01*
G01X2993245Y-4661587D01*
G01X2989490Y-4662785D01*
G01X2985704Y-4663982D01*
G01X2981891Y-4665176D01*
G01X2978056Y-4666365D01*
G01X2974199Y-4667550D01*
G01X2970306Y-4668735D01*
G01X2966391Y-4669916D01*
G01X2962454Y-4671092D01*
G01X2958484Y-4672266D01*
G01X2954491Y-4673436D01*
G01X2950470Y-4674603D01*
G01X2946430Y-4675764D01*
G01X2942352Y-4676925D01*
G01X2938255Y-4678080D01*
G01X2934124Y-4679233D01*
G01X2929973Y-4680381D01*
G01X2925790Y-4681526D01*
G01X2921582Y-4682667D01*
G01X2917349Y-4683803D01*
G01X2913082Y-4684937D01*
G01X2908795Y-4686066D01*
G01X2904473Y-4687192D01*
G01X2900132Y-4688311D01*
G01X2895757Y-4689428D01*
G01X2891354Y-4690542D01*
G01X2886923Y-4691650D01*
G01X2882467Y-4692754D01*
G01X2877979Y-4693854D01*
G01X2873465Y-4694950D01*
G01X2868922Y-4696041D01*
G01X2864352Y-4697127D01*
G01X2859759Y-4698208D01*
G01X2855173Y-4699281D01*
G01X2850602Y-4700340D01*
G01X2846029Y-4701391D01*
G01X2841441Y-4702434D01*
G01X2836824Y-4703473D01*
G01X2832157Y-4704512D01*
G01X2827436Y-4705549D01*
G01X2822628Y-4706594D01*
G01X2817736Y-4707642D01*
G01X2812733Y-4708701D01*
G01X2807605Y-4709773D01*
G01X2802343Y-4710858D01*
G01X2796922Y-4711962D01*
G01X2791336Y-4713085D01*
G01X2785566Y-4714230D01*
G01X2779591Y-4715402D01*
G01X2773410Y-4716600D01*
G01X2766994Y-4717830D01*
G01X2760313Y-4719095D01*
G01X2753353Y-4720396D01*
G01X2746121Y-4721729D01*
G01X2738586Y-4723095D01*
G01X2730739Y-4724495D01*
G01X2722552Y-4725929D01*
G01X2714021Y-4727398D01*
G01X2705114Y-4728904D01*
G01X2695817Y-4730446D01*
G01X2686122Y-4732023D01*
G01X2676000Y-4733640D01*
G01X2665445Y-4735294D01*
G01X2654454Y-4736981D01*
G01X2642994Y-4738701D01*
G01X2631040Y-4740453D01*
G01X2618583Y-4742233D01*
G01X2605583Y-4744042D01*
G01X2592036Y-4745876D01*
G01X2577899Y-4747737D01*
G01X2563170Y-4749619D01*
G01X2547785Y-4751525D01*
G01X2531740Y-4753450D01*
G01X2515002Y-4755397D01*
G01X2497580Y-4757358D01*
G01X2479448Y-4759335D01*
G01X2460597Y-4761323D01*
G01X2441026Y-4763320D01*
G01X2420713Y-4765324D01*
G01X2399648Y-4767332D01*
G01X2377829Y-4769342D01*
G01X2355231Y-4771352D01*
G01X2331857Y-4773358D01*
G01X2307683Y-4775359D01*
G01X2282424Y-4777375D01*
G01X2256170Y-4779403D01*
G01X2229053Y-4781432D01*
G01X2201006Y-4783465D01*
G01X2171946Y-4785509D01*
G01X2141801Y-4787569D01*
G01X2110496Y-4789648D01*
G01X2077956Y-4791753D01*
G01X2044107Y-4793887D01*
G01X2009271Y-4796030D01*
G01X1973965Y-4798137D01*
G01X1937842Y-4800221D01*
G01X1900853Y-4802282D01*
G01X1862957Y-4804320D01*
G01X1824106Y-4806333D01*
G01X1784258Y-4808320D01*
G01X1743373Y-4810280D01*
G01X1701612Y-4812195D01*
G01X1659002Y-4814059D01*
G01X1615616Y-4815869D01*
G01X1571516Y-4817623D01*
G01X1526775Y-4819317D01*
G01X1481461Y-4820950D01*
G01X1435646Y-4822518D01*
G01X1389397Y-4824018D01*
G01X1342786Y-4825449D01*
G01X1295882Y-4826807D01*
G01X1248754Y-4828090D01*
G01X1201472Y-4829296D01*
G01X1154054Y-4830423D01*
G01X1106452Y-4831482D01*
G01X1058717Y-4832474D01*
G01X1010885Y-4833403D01*
G01X962995Y-4834272D01*
G01X915084Y-4835083D01*
G01X867190Y-4835839D01*
G01X819349Y-4836543D01*
G01X771599Y-4837197D01*
G01X723978Y-4837806D01*
G01X676523Y-4838370D01*
G01X629271Y-4838894D01*
G01X582356Y-4839378D01*
G01X535920Y-4839817D01*
G01X489924Y-4840214D01*
G01X444409Y-4840568D01*
G01X399414Y-4840883D01*
G01X354979Y-4841158D01*
G01X311144Y-4841396D01*
G01X267950Y-4841598D01*
G01X225435Y-4841766D01*
G01X183641Y-4841900D01*
G01X142607Y-4842002D01*
G01X102374Y-4842074D01*
G01X62981Y-4842118D01*
G01X24475Y-4842133D01*
G01X-24482Y-4842133D01*
G01X-67689Y-4842114D01*
G01X-112030Y-4842059D01*
G01X-157444Y-4841967D01*
G01X-203859Y-4841836D01*
G01X-251203Y-4841665D01*
G01X-299403Y-4841451D01*
G01X-348388Y-4841193D01*
G01X-398085Y-4840889D01*
G01X-448423Y-4840537D01*
G01X-499329Y-4840135D01*
G01X-550730Y-4839681D01*
G01X-602556Y-4839174D01*
G01X-654967Y-4838614D01*
G01X-707770Y-4838003D01*
G01X-760889Y-4837337D01*
G01X-814259Y-4836614D01*
G01X-867815Y-4835828D01*
G01X-921492Y-4834976D01*
G01X-975225Y-4834054D01*
G01X-1028949Y-4833059D01*
G01X-1082598Y-4831985D01*
G01X-1136109Y-4830831D01*
G01X-1189408Y-4829590D01*
G01X-1242491Y-4828255D01*
G01X-1295376Y-4826821D01*
G01X-1347965Y-4825293D01*
G01X-1400155Y-4823675D01*
G01X-1451843Y-4821971D01*
G01X-1502929Y-4820185D01*
G01X-1553314Y-4818321D01*
G01X-1602886Y-4816383D01*
G01X-1651553Y-4814376D01*
G01X-1699212Y-4812303D01*
G01X-1745753Y-4810168D01*
G01X-1791408Y-4807969D01*
G01X-1836067Y-4805719D01*
G01X-1879677Y-4803425D01*
G01X-1922032Y-4801105D01*
G01X-1962913Y-4798778D01*
G01X-2002117Y-4796462D01*
G01X-2039865Y-4794151D01*
G01X-2077258Y-4791796D01*
G01X-2113486Y-4789449D01*
G01X-2148248Y-4787129D01*
G01X-2181764Y-4784822D01*
G01X-2214100Y-4782521D01*
G01X-2245298Y-4780223D01*
G01X-2275425Y-4777922D01*
G01X-2304463Y-4775620D01*
G01X-2332033Y-4773346D01*
G01X-2358338Y-4771087D01*
G01X-2383552Y-4768837D01*
G01X-2407733Y-4766598D01*
G01X-2430919Y-4764372D01*
G01X-2453138Y-4762160D01*
G01X-2474410Y-4759966D01*
G01X-2494764Y-4757789D01*
G01X-2514244Y-4755631D01*
G01X-2532858Y-4753494D01*
G01X-2550653Y-4751380D01*
G01X-2567657Y-4749288D01*
G01X-2583881Y-4747223D01*
G01X-2599372Y-4745184D01*
G01X-2614140Y-4743174D01*
G01X-2628232Y-4741193D01*
G01X-2641656Y-4739245D01*
G01X-2654458Y-4737329D01*
G01X-2666665Y-4735445D01*
G01X-2678295Y-4733599D01*
G01X-2689393Y-4731786D01*
G01X-2699971Y-4730013D01*
G01X-2710076Y-4728278D01*
G01X-2719732Y-4726580D01*
G01X-2728961Y-4724925D01*
G01X-2737810Y-4723309D01*
G01X-2746293Y-4721737D01*
G01X-2754454Y-4720206D01*
G01X-2762318Y-4718718D01*
G01X-2769849Y-4717285D01*
G01X-2776967Y-4715912D01*
G01X-2783756Y-4714585D01*
G01X-2790240Y-4713300D01*
G01X-2796461Y-4712049D01*
G01X-2802439Y-4710829D01*
G01X-2808219Y-4709632D01*
G01X-2813824Y-4708453D01*
G01X-2819295Y-4707287D01*
G01X-2824661Y-4706127D01*
G01X-2829955Y-4704968D01*
G01X-2835207Y-4703805D01*
G01X-2840456Y-4702631D01*
G01X-2845729Y-4701440D01*
G01X-2850988Y-4700240D01*
G01X-2856195Y-4699039D01*
G01X-2861370Y-4697830D01*
G01X-2866503Y-4696617D01*
G01X-2871608Y-4695397D01*
G01X-2876671Y-4694173D01*
G01X-2881707Y-4692941D01*
G01X-2886699Y-4691706D01*
G01X-2891659Y-4690465D01*
G01X-2896590Y-4689218D01*
G01X-2901478Y-4687967D01*
G01X-2906333Y-4686710D01*
G01X-2911160Y-4685446D01*
G01X-2915944Y-4684180D01*
G01X-2920701Y-4682907D01*
G01X-2925417Y-4681631D01*
G01X-2930106Y-4680348D01*
G01X-2934757Y-4679061D01*
G01X-2939372Y-4677770D01*
G01X-2943960Y-4676473D01*
G01X-2948507Y-4675173D01*
G01X-2953025Y-4673868D01*
G01X-2957513Y-4672557D01*
G01X-2961959Y-4671244D01*
G01X-2966375Y-4669927D01*
G01X-2970756Y-4668605D01*
G01X-2975100Y-4667282D01*
G01X-2979408Y-4665956D01*
G01X-2983682Y-4664626D01*
G01X-2987926Y-4663292D01*
G01X-2992134Y-4661955D01*
G01X-2996304Y-4660617D01*
G01X-3000446Y-4659273D01*
G01X-3004550Y-4657928D01*
G01X-3008630Y-4656577D01*
G01X-3012668Y-4655226D01*
G01X-3016687Y-4653868D01*
G01X-3020663Y-4652509D01*
G01X-3024610Y-4651147D01*
G01X-3028538Y-4649778D01*
G01X-3032424Y-4648409D01*
G01X-3036287Y-4647034D01*
G01X-3040116Y-4645657D01*
G01X-3043921Y-4644275D01*
G01X-3047695Y-4642890D01*
G01X-3051444Y-4641501D01*
G01X-3055161Y-4640110D01*
G01X-3058858Y-4638712D01*
G01X-3062518Y-4637314D01*
G01X-3066163Y-4635908D01*
G01X-3069774Y-4634501D01*
G01X-3073365Y-4633088D01*
G01X-3076926Y-4631673D01*
G01X-3080468Y-4630252D01*
G01X-3083980Y-4628829D01*
G01X-3087476Y-4627399D01*
G01X-3090940Y-4625968D01*
G01X-3094388Y-4624530D01*
G01X-3097806Y-4623091D01*
G01X-3101184Y-4621655D01*
G01X-3104527Y-4620221D01*
G01X-3107851Y-4618779D01*
G01X-3111170Y-4617326D01*
G01X-3114476Y-4615865D01*
G01X-3117770Y-4614395D01*
G01X-3121047Y-4612917D01*
G01X-3124317Y-4611429D01*
G01X-3127563Y-4609938D01*
G01X-3130804Y-4608435D01*
G01X-3134017Y-4606929D01*
G01X-3137221Y-4605414D01*
G01X-3140407Y-4603893D01*
G01X-3143566Y-4602370D01*
G01X-3146714Y-4600838D01*
G01X-3149833Y-4599305D01*
G01X-3152941Y-4597762D01*
G01X-3156014Y-4596221D01*
G01X-3159092Y-4594661D01*
G01X-3162155Y-4593092D01*
G01X-3165207Y-4591512D01*
G01X-3168257Y-4589919D01*
G01X-3171281Y-4588325D01*
G01X-3174290Y-4586723D01*
G01X-3177276Y-4585120D01*
G01X-3180237Y-4583515D01*
G01X-3183174Y-4581910D01*
G01X-3186071Y-4580313D01*
G01X-3188940Y-4578719D01*
G01X-3191760Y-4577138D01*
G01X-3194548Y-4575562D01*
G01X-3197290Y-4573999D01*
G01X-3199976Y-4572455D01*
G01X-3202615Y-4570925D01*
G01X-3205201Y-4569414D01*
G01X-3207724Y-4567926D01*
G01X-3210188Y-4566461D01*
G01X-3212580Y-4565025D01*
G01X-3214909Y-4563615D01*
G01X-3217367Y-4562113D01*
G01X-3219949Y-4560522D01*
G01X-3222585Y-4558885D01*
G01X-3225279Y-4557198D01*
G01X-3228010Y-4555476D01*
G01X-3230789Y-4553710D01*
G01X-3233602Y-4551910D01*
G01X-3236429Y-4550087D01*
G01X-3239285Y-4548232D01*
G01X-3242149Y-4546359D01*
G01X-3245023Y-4544465D01*
G01X-3247898Y-4542555D01*
G01X-3250757Y-4540642D01*
G01X-3253616Y-4538713D01*
G01X-3256444Y-4536790D01*
G01X-3259274Y-4534849D01*
G01X-3262112Y-4532888D01*
G01X-3264954Y-4530910D01*
G01X-3267808Y-4528908D01*
G01X-3270667Y-4526888D01*
G01X-3273526Y-4524854D01*
G01X-3276398Y-4522794D01*
G01X-3279267Y-4520722D01*
G01X-3282144Y-4518630D01*
G01X-3285022Y-4516521D01*
G01X-3287903Y-4514396D01*
G01X-3290789Y-4512251D01*
G01X-3293670Y-4510095D01*
G01X-3296562Y-4507916D01*
G01X-3299444Y-4505728D01*
G01X-3302331Y-4503522D01*
G01X-3305223Y-4501296D01*
G01X-3308105Y-4499063D01*
G01X-3310993Y-4496809D01*
G01X-3313873Y-4494545D01*
G01X-3316756Y-4492263D01*
G01X-3319634Y-4489970D01*
G01X-3322506Y-4487665D01*
G01X-3325376Y-4485346D01*
G01X-3328248Y-4483010D01*
G01X-3331120Y-4480656D01*
G01X-3334006Y-4478275D01*
G01X-3336885Y-4475884D01*
G01X-3339767Y-4473473D01*
G01X-3342652Y-4471045D01*
G01X-3345529Y-4468606D01*
G01X-3348411Y-4466146D01*
G01X-3351289Y-4463675D01*
G01X-3354167Y-4461187D01*
G01X-3357042Y-4458684D01*
G01X-3359919Y-4456164D01*
G01X-3362794Y-4453628D01*
G01X-3365664Y-4451081D01*
G01X-3368533Y-4448518D01*
G01X-3371403Y-4445937D01*
G01X-3374267Y-4443346D01*
G01X-3377125Y-4440742D01*
G01X-3379991Y-4438115D01*
G01X-3382844Y-4435483D01*
G01X-3385697Y-4432835D01*
G01X-3388548Y-4430171D01*
G01X-3391397Y-4427492D01*
G01X-3394236Y-4424805D01*
G01X-3397078Y-4422098D01*
G01X-3399914Y-4419381D01*
G01X-3402740Y-4416654D01*
G01X-3405569Y-4413909D01*
G01X-3408390Y-4411154D01*
G01X-3411204Y-4408388D01*
G01X-3414018Y-4405604D01*
G01X-3416824Y-4402811D01*
G01X-3419626Y-4400005D01*
G01X-3422423Y-4397186D01*
G01X-3425209Y-4394359D01*
G01X-3427998Y-4391513D01*
G01X-3430773Y-4388662D01*
G01X-3433547Y-4385794D01*
G01X-3436311Y-4382918D01*
G01X-3439068Y-4380032D01*
G01X-3441823Y-4377129D01*
G01X-3444571Y-4374215D01*
G01X-3447309Y-4371294D01*
G01X-3450045Y-4368355D01*
G01X-3452773Y-4365406D01*
G01X-3455492Y-4362449D01*
G01X-3458210Y-4359473D01*
G01X-3460918Y-4356491D01*
G01X-3463616Y-4353500D01*
G01X-3466314Y-4350491D01*
G01X-3468995Y-4347482D01*
G01X-3471675Y-4344457D01*
G01X-3474344Y-4341424D01*
G01X-3477003Y-4338385D01*
G01X-3479659Y-4335330D01*
G01X-3482295Y-4332279D01*
G01X-3484929Y-4329212D01*
G01X-3487559Y-4326132D01*
G01X-3490167Y-4323058D01*
G01X-3492774Y-4319968D01*
G01X-3495369Y-4316871D01*
G01X-3497948Y-4313776D01*
G01X-3500522Y-4310667D01*
G01X-3503085Y-4307554D01*
G01X-3505632Y-4304441D01*
G01X-3508174Y-4301314D01*
G01X-3510699Y-4298189D01*
G01X-3513211Y-4295063D01*
G01X-3515716Y-4291925D01*
G01X-3518206Y-4288787D01*
G01X-3520679Y-4285651D01*
G01X-3523144Y-4282505D01*
G01X-3525595Y-4279359D01*
G01X-3528029Y-4276214D01*
G01X-3530456Y-4273059D01*
G01X-3532862Y-4269911D01*
G01X-3535258Y-4266758D01*
G01X-3537639Y-4263603D01*
G01X-3540001Y-4260454D01*
G01X-3542354Y-4257298D01*
G01X-3544690Y-4254143D01*
G01X-3547005Y-4250998D01*
G01X-3549309Y-4247850D01*
G01X-3551586Y-4244718D01*
G01X-3553851Y-4241585D01*
G01X-3556097Y-4238458D01*
G01X-3558322Y-4235341D01*
G01X-3560528Y-4232233D01*
G01X-3562721Y-4229123D01*
G01X-3564892Y-4226027D01*
G01X-3567047Y-4222933D01*
G01X-3569183Y-4219850D01*
G01X-3571301Y-4216771D01*
G01X-3573404Y-4213699D01*
G01X-3575487Y-4210634D01*
G01X-3577550Y-4207580D01*
G01X-3579601Y-4204527D01*
G01X-3581635Y-4201480D01*
G01X-3583647Y-4198448D01*
G01X-3585647Y-4195415D01*
G01X-3587624Y-4192399D01*
G01X-3589587Y-4189385D01*
G01X-3591537Y-4186374D01*
G01X-3593466Y-4183377D01*
G01X-3595379Y-4180386D01*
G01X-3597277Y-4177400D01*
G01X-3599155Y-4174427D01*
G01X-3601020Y-4171458D01*
G01X-3602869Y-4168496D01*
G01X-3604701Y-4165544D01*
G01X-3606514Y-4162603D01*
G01X-3608316Y-4159662D01*
G01X-3610099Y-4156736D01*
G01X-3611867Y-4153817D01*
G01X-3613620Y-4150903D01*
G01X-3615355Y-4148002D01*
G01X-3617075Y-4145109D01*
G01X-3618784Y-4142216D01*
G01X-3620471Y-4139345D01*
G01X-3622147Y-4136473D01*
G01X-3623807Y-4133613D01*
G01X-3625452Y-4130760D01*
G01X-3627080Y-4127920D01*
G01X-3628697Y-4125082D01*
G01X-3630289Y-4122271D01*
G01X-3631869Y-4119467D01*
G01X-3633430Y-4116680D01*
G01X-3634969Y-4113914D01*
G01X-3636492Y-4111164D01*
G01X-3637996Y-4108431D01*
G01X-3639485Y-4105709D01*
G01X-3640953Y-4103010D01*
G01X-3642406Y-4100323D01*
G01X-3643845Y-4097645D01*
G01X-3645259Y-4094998D01*
G01X-3646663Y-4092355D01*
G01X-3648049Y-4089729D01*
G01X-3649417Y-4087120D01*
G01X-3650769Y-4084526D01*
G01X-3652108Y-4081942D01*
G01X-3653428Y-4079380D01*
G01X-3654737Y-4076822D01*
G01X-3656025Y-4074289D01*
G01X-3657303Y-4071759D01*
G01X-3658562Y-4069253D01*
G01X-3659811Y-4066749D01*
G01X-3661040Y-4064271D01*
G01X-3662260Y-4061794D01*
G01X-3663466Y-4059332D01*
G01X-3664654Y-4056890D01*
G01X-3665829Y-4054457D01*
G01X-3666995Y-4052030D01*
G01X-3668146Y-4049619D01*
G01X-3669281Y-4047223D01*
G01X-3670406Y-4044836D01*
G01X-3671519Y-4042458D01*
G01X-3672619Y-4040092D01*
G01X-3673708Y-4037736D01*
G01X-3674783Y-4035394D01*
G01X-3675847Y-4033061D01*
G01X-3676900Y-4030738D01*
G01X-3677942Y-4028422D01*
G01X-3678972Y-4026120D01*
G01X-3679993Y-4023824D01*
G01X-3681001Y-4021542D01*
G01X-3682002Y-4019263D01*
G01X-3682989Y-4016999D01*
G01X-3683968Y-4014741D01*
G01X-3684938Y-4012488D01*
G01X-3685895Y-4010252D01*
G01X-3686846Y-4008015D01*
G01X-3687786Y-4005791D01*
G01X-3688720Y-4003571D01*
G01X-3689642Y-4001362D01*
G01X-3690555Y-3999163D01*
G01X-3691464Y-3996961D01*
G01X-3692359Y-3994777D01*
G01X-3693252Y-3992589D01*
G01X-3694083Y-3990539D01*
G01X-3694910Y-3988487D01*
G01X-3695725Y-3986454D01*
G01X-3696529Y-3984434D01*
G01X-3697330Y-3982411D01*
G01X-3698117Y-3980413D01*
G01X-3698894Y-3978425D01*
G01X-3699667Y-3976438D01*
G01X-3700427Y-3974471D01*
G01X-3701181Y-3972508D01*
G01X-3701926Y-3970557D01*
G01X-3702660Y-3968624D01*
G01X-3703387Y-3966695D01*
G01X-3704107Y-3964776D01*
G01X-3704816Y-3962873D01*
G01X-3705519Y-3960973D01*
G01X-3706216Y-3959081D01*
G01X-3706900Y-3957209D01*
G01X-3707579Y-3955342D01*
G01X-3708250Y-3953485D01*
G01X-3708911Y-3951644D01*
G01X-3709565Y-3949811D01*
G01X-3710214Y-3947979D01*
G01X-3710851Y-3946172D01*
G01X-3711486Y-3944358D01*
G01X-3712111Y-3942563D01*
G01X-3712725Y-3940787D01*
G01X-3713341Y-3938996D01*
G01X-3713941Y-3937239D01*
G01X-3714536Y-3935485D01*
G01X-3715126Y-3933735D01*
G01X-3715711Y-3931992D01*
G01X-3716284Y-3930272D01*
G01X-3716850Y-3928561D01*
G01X-3717417Y-3926840D01*
G01X-3717971Y-3925145D01*
G01X-3718517Y-3923463D01*
G01X-3719062Y-3921777D01*
G01X-3719598Y-3920105D01*
G01X-3720131Y-3918436D01*
G01X-3720652Y-3916794D01*
G01X-3721169Y-3915150D01*
G01X-3721682Y-3913513D01*
G01X-3722185Y-3911896D01*
G01X-3722687Y-3910274D01*
G01X-3723182Y-3908665D01*
G01X-3723672Y-3907064D01*
G01X-3724154Y-3905478D01*
G01X-3724632Y-3903894D01*
G01X-3725103Y-3902326D01*
G01X-3725569Y-3900766D01*
G01X-3726032Y-3899207D01*
G01X-3726489Y-3897658D01*
G01X-3726939Y-3896124D01*
G01X-3727383Y-3894601D01*
G01X-3727829Y-3893067D01*
G01X-3728262Y-3891563D01*
G01X-3728696Y-3890054D01*
G01X-3729120Y-3888565D01*
G01X-3729545Y-3887071D01*
G01X-3729960Y-3885600D01*
G01X-3730376Y-3884120D01*
G01X-3730785Y-3882655D01*
G01X-3731189Y-3881203D01*
G01X-3731590Y-3879752D01*
G01X-3731988Y-3878310D01*
G01X-3732379Y-3876881D01*
G01X-3732765Y-3875463D01*
G01X-3733150Y-3874044D01*
G01X-3733535Y-3872622D01*
G01X-3733911Y-3871226D01*
G01X-3734283Y-3869835D01*
G01X-3734652Y-3868451D01*
G01X-3735012Y-3867096D01*
G01X-3735384Y-3865691D01*
G01X-3735744Y-3864328D01*
G01X-3736100Y-3862971D01*
G01X-3736453Y-3861622D01*
G01X-3736803Y-3860281D01*
G01X-3737153Y-3858933D01*
G01X-3737496Y-3857609D01*
G01X-3737835Y-3856295D01*
G01X-3738180Y-3854959D01*
G01X-3738517Y-3853642D01*
G01X-3738854Y-3852322D01*
G01X-3739190Y-3850999D01*
G01X-3739522Y-3849685D01*
G01X-3739861Y-3848340D01*
G01X-3740191Y-3847022D01*
G01X-3740526Y-3845679D01*
G01X-3740858Y-3844344D01*
G01X-3741187Y-3843014D01*
G01X-3741516Y-3841676D01*
G01X-3741843Y-3840340D01*
G01X-3742176Y-3838980D01*
G01X-3742500Y-3837645D01*
G01X-3742826Y-3836294D01*
G01X-3743148Y-3834954D01*
G01X-3743475Y-3833589D01*
G01X-3743798Y-3832235D01*
G01X-3744118Y-3830884D01*
G01X-3744442Y-3829514D01*
G01X-3744761Y-3828158D01*
G01X-3745079Y-3826799D01*
G01X-3745400Y-3825422D01*
G01X-3745716Y-3824058D01*
G01X-3746032Y-3822688D01*
G01X-3746346Y-3821321D01*
G01X-3746664Y-3819929D01*
G01X-3746975Y-3818563D01*
G01X-3747288Y-3817182D01*
G01X-3747601Y-3815795D01*
G01X-3747910Y-3814416D01*
G01X-3748220Y-3813029D01*
G01X-3748530Y-3811633D01*
G01X-3748838Y-3810242D01*
G01X-3749143Y-3808854D01*
G01X-3749450Y-3807453D01*
G01X-3749754Y-3806060D01*
G01X-3750059Y-3804653D01*
G01X-3750361Y-3803256D01*
G01X-3750665Y-3801839D01*
G01X-3750965Y-3800438D01*
G01X-3751265Y-3799028D01*
G01X-3751562Y-3797627D01*
G01X-3751864Y-3796194D01*
G01X-3752160Y-3794783D01*
G01X-3752458Y-3793359D01*
G01X-3752752Y-3791942D01*
G01X-3753046Y-3790519D01*
G01X-3753339Y-3789097D01*
G01X-3753632Y-3787664D01*
G01X-3753925Y-3786228D01*
G01X-3754213Y-3784804D01*
G01X-3754506Y-3783353D01*
G01X-3754793Y-3781926D01*
G01X-3755079Y-3780490D01*
G01X-3755370Y-3779031D01*
G01X-3755653Y-3777598D01*
G01X-3755937Y-3776156D01*
G01X-3756224Y-3774690D01*
G01X-3756503Y-3773254D01*
G01X-3756789Y-3771783D01*
G01X-3757068Y-3770338D01*
G01X-3757348Y-3768878D01*
G01X-3757628Y-3767412D01*
G01X-3757903Y-3765958D01*
G01X-3758184Y-3764475D01*
G01X-3758458Y-3763018D01*
G01X-3758734Y-3761542D01*
G01X-3759009Y-3760068D01*
G01X-3759281Y-3758598D01*
G01X-3759554Y-3757115D01*
G01X-3759825Y-3755639D01*
G01X-3760096Y-3754151D01*
G01X-3760365Y-3752666D01*
G01X-3760633Y-3751184D01*
G01X-3760901Y-3749689D01*
G01X-3761165Y-3748207D01*
G01X-3761434Y-3746697D01*
G01X-3761698Y-3745205D01*
G01X-3761959Y-3743716D01*
G01X-3762224Y-3742199D01*
G01X-3762484Y-3740705D01*
G01X-3762746Y-3739193D01*
G01X-3763005Y-3737684D01*
G01X-3763262Y-3736184D01*
G01X-3763521Y-3734659D01*
G01X-3763778Y-3733143D01*
G01X-3764034Y-3731625D01*
G01X-3764284Y-3730133D01*
G01X-3764543Y-3728580D01*
G01X-3764795Y-3727055D01*
G01X-3765046Y-3725531D01*
G01X-3765298Y-3723997D01*
G01X-3765546Y-3722474D01*
G01X-3765797Y-3720928D01*
G01X-3766041Y-3719414D01*
G01X-3766293Y-3717845D01*
G01X-3766537Y-3716314D01*
G01X-3766782Y-3714768D01*
G01X-3767027Y-3713215D01*
G01X-3767270Y-3711666D01*
G01X-3767511Y-3710119D01*
G01X-3767752Y-3708565D01*
G01X-3767993Y-3707002D01*
G01X-3768231Y-3705449D01*
G01X-3768469Y-3703886D01*
G01X-3768706Y-3702322D01*
G01X-3768943Y-3700750D01*
G01X-3769174Y-3699210D01*
G01X-3769412Y-3697610D01*
G01X-3769643Y-3696046D01*
G01X-3769877Y-3694459D01*
G01X-3770108Y-3692886D01*
G01X-3770338Y-3691305D01*
G01X-3770564Y-3689744D01*
G01X-3770796Y-3688130D01*
G01X-3771022Y-3686547D01*
G01X-3771251Y-3684944D01*
G01X-3771475Y-3683353D01*
G01X-3771701Y-3681748D01*
G01X-3771925Y-3680147D01*
G01X-3772149Y-3678536D01*
G01X-3772371Y-3676928D01*
G01X-3772591Y-3675322D01*
G01X-3772812Y-3673702D01*
G01X-3773033Y-3672074D01*
G01X-3773251Y-3670454D01*
G01X-3773467Y-3668840D01*
G01X-3773686Y-3667199D01*
G01X-3773901Y-3665573D01*
G01X-3774117Y-3663935D01*
G01X-3774331Y-3662298D01*
G01X-3774544Y-3660659D01*
G01X-3774757Y-3659011D01*
G01X-3774967Y-3657369D01*
G01X-3775179Y-3655710D01*
G01X-3775389Y-3654057D01*
G01X-3775597Y-3652401D01*
G01X-3775804Y-3650747D01*
G01X-3776012Y-3649073D01*
G01X-3776219Y-3647402D01*
G01X-3776421Y-3645761D01*
G01X-3776628Y-3644060D01*
G01X-3776831Y-3642388D01*
G01X-3777035Y-3640693D01*
G01X-3777236Y-3639015D01*
G01X-3777437Y-3637328D01*
G01X-3777636Y-3635638D01*
G01X-3777835Y-3633944D01*
G01X-3778033Y-3632241D01*
G01X-3778230Y-3630540D01*
G01X-3778427Y-3628826D01*
G01X-3778619Y-3627146D01*
G01X-3778817Y-3625406D01*
G01X-3779010Y-3623691D01*
G01X-3779202Y-3621971D01*
G01X-3779394Y-3620249D01*
G01X-3779584Y-3618523D01*
G01X-3779775Y-3616783D01*
G01X-3779964Y-3615049D01*
G01X-3780152Y-3613312D01*
G01X-3780339Y-3611571D01*
G01X-3780523Y-3609848D01*
G01X-3780711Y-3608072D01*
G01X-3780894Y-3606324D01*
G01X-3781079Y-3604558D01*
G01X-3781261Y-3602798D01*
G01X-3781444Y-3601029D01*
G01X-3781624Y-3599266D01*
G01X-3781804Y-3597489D01*
G01X-3781984Y-3595709D01*
G01X-3782161Y-3593934D01*
G01X-3782339Y-3592146D01*
G01X-3782515Y-3590358D01*
G01X-3782691Y-3588562D01*
G01X-3782865Y-3586767D01*
G01X-3783038Y-3584972D01*
G01X-3783211Y-3583159D01*
G01X-3783383Y-3581352D01*
G01X-3783553Y-3579544D01*
G01X-3783725Y-3577715D01*
G01X-3783893Y-3575900D01*
G01X-3784061Y-3574076D01*
G01X-3784227Y-3572252D01*
G01X-3784395Y-3570407D01*
G01X-3784559Y-3568579D01*
G01X-3784725Y-3566725D01*
G01X-3784888Y-3564885D01*
G01X-3785050Y-3563040D01*
G01X-3785213Y-3561178D01*
G01X-3785374Y-3559321D01*
G01X-3785534Y-3557459D01*
G01X-3785693Y-3555589D01*
G01X-3785851Y-3553719D01*
G01X-3786008Y-3551844D01*
G01X-3786164Y-3549970D01*
G01X-3786318Y-3548097D01*
G01X-3786475Y-3546185D01*
G01X-3786629Y-3544293D01*
G01X-3786779Y-3542412D01*
G01X-3786934Y-3540487D01*
G01X-3787082Y-3538606D01*
G01X-3787234Y-3536672D01*
G01X-3787383Y-3534762D01*
G01X-3787531Y-3532843D01*
G01X-3787678Y-3530920D01*
G01X-3787825Y-3528984D01*
G01X-3787969Y-3527060D01*
G01X-3788114Y-3525115D01*
G01X-3788258Y-3523173D01*
G01X-3788401Y-3521218D01*
G01X-3788542Y-3519277D01*
G01X-3788683Y-3517317D01*
G01X-3788824Y-3515353D01*
G01X-3788961Y-3513397D01*
G01X-3789100Y-3511419D01*
G01X-3789238Y-3509436D01*
G01X-3789373Y-3507470D01*
G01X-3789510Y-3505474D01*
G01X-3789642Y-3503508D01*
G01X-3789777Y-3501493D01*
G01X-3789909Y-3499500D01*
G01X-3790040Y-3497511D01*
G01X-3790172Y-3495481D01*
G01X-3790303Y-3493465D01*
G01X-3790431Y-3491452D01*
G01X-3790559Y-3489431D01*
G01X-3790686Y-3487404D01*
G01X-3790811Y-3485385D01*
G01X-3790938Y-3483327D01*
G01X-3791062Y-3481286D01*
G01X-3791186Y-3479239D01*
G01X-3791308Y-3477188D01*
G01X-3791320Y-3476983D01*
G01X-3013663Y-3476983D01*
G01X-3011657Y-3516521D01*
G01X-3005663Y-3555653D01*
G01X-2995739Y-3593978D01*
G01X-2981990Y-3631102D01*
G01X-2964555Y-3666645D01*
G01X-2943614Y-3700242D01*
G01X-2919382Y-3731548D01*
G01X-2892106Y-3760242D01*
G01X-2862068Y-3786029D01*
G01X-2829575Y-3808645D01*
G01X-2794961Y-3827857D01*
G01X-2758580Y-3843469D01*
G01X-2720807Y-3855321D01*
G01X-2682029Y-3863290D01*
G01X-2642643Y-3867295D01*
G01X-2603054Y-3867295D01*
G01X-2563668Y-3863290D01*
G01X-2524890Y-3855321D01*
G01X-2487117Y-3843469D01*
G01X-2450736Y-3827857D01*
G01X-2416122Y-3808645D01*
G01X-2383629Y-3786029D01*
G01X-2353590Y-3760242D01*
G01X-2326315Y-3731548D01*
G01X-2302083Y-3700242D01*
G01X-2281142Y-3666645D01*
G01X-2263707Y-3631102D01*
G01X-2249957Y-3593978D01*
G01X-2240034Y-3555653D01*
G01X-2234040Y-3516521D01*
G01X-2232034Y-3476983D01*
G01X2186338Y-3476983D01*
G01X2188343Y-3516521D01*
G01X2194338Y-3555653D01*
G01X2204261Y-3593978D01*
G01X2218010Y-3631102D01*
G01X2235445Y-3666645D01*
G01X2256386Y-3700242D01*
G01X2280618Y-3731548D01*
G01X2307894Y-3760242D01*
G01X2337932Y-3786029D01*
G01X2370425Y-3808645D01*
G01X2405040Y-3827857D01*
G01X2441420Y-3843469D01*
G01X2479193Y-3855321D01*
G01X2517972Y-3863290D01*
G01X2557357Y-3867295D01*
G01X2596946Y-3867295D01*
G01X2636332Y-3863290D01*
G01X2675110Y-3855321D01*
G01X2712884Y-3843469D01*
G01X2749264Y-3827857D01*
G01X2783878Y-3808645D01*
G01X2816371Y-3786029D01*
G01X2846410Y-3760242D01*
G01X2873685Y-3731548D01*
G01X2897918Y-3700242D01*
G01X2918859Y-3666645D01*
G01X2936293Y-3631102D01*
G01X2950043Y-3593978D01*
G01X2959966Y-3555653D01*
G01X2965961Y-3516521D01*
G01X2967966Y-3476983D01*
G01X2965961Y-3437445D01*
G01X2959966Y-3398312D01*
G01X2950043Y-3359987D01*
G01X2936293Y-3322863D01*
G01X2918859Y-3287320D01*
G01X2897918Y-3253723D01*
G01X2873685Y-3222417D01*
G01X2846410Y-3193723D01*
G01X2816371Y-3167936D01*
G01X2783878Y-3145321D01*
G01X2749264Y-3126108D01*
G01X2712884Y-3110496D01*
G01X2675110Y-3098644D01*
G01X2636332Y-3090675D01*
G01X2596946Y-3086670D01*
G01X2557357Y-3086670D01*
G01X2517972Y-3090675D01*
G01X2479193Y-3098644D01*
G01X2441420Y-3110496D01*
G01X2405040Y-3126108D01*
G01X2370425Y-3145321D01*
G01X2337932Y-3167936D01*
G01X2307894Y-3193723D01*
G01X2280618Y-3222417D01*
G01X2256386Y-3253723D01*
G01X2235445Y-3287320D01*
G01X2218010Y-3322863D01*
G01X2204261Y-3359987D01*
G01X2194338Y-3398312D01*
G01X2188343Y-3437445D01*
G01X2186338Y-3476983D01*
G01X2186338Y-3476983D01*
G01X-2232034Y-3476983D01*
G01X-2232034Y-3476983D01*
G01X-2234040Y-3437445D01*
G01X-2240034Y-3398312D01*
G01X-2249957Y-3359987D01*
G01X-2263707Y-3322863D01*
G01X-2281142Y-3287320D01*
G01X-2302083Y-3253723D01*
G01X-2326315Y-3222417D01*
G01X-2353590Y-3193723D01*
G01X-2383629Y-3167936D01*
G01X-2416122Y-3145321D01*
G01X-2450736Y-3126108D01*
G01X-2487117Y-3110496D01*
G01X-2524890Y-3098644D01*
G01X-2563668Y-3090675D01*
G01X-2603054Y-3086670D01*
G01X-2642643Y-3086670D01*
G01X-2682029Y-3090675D01*
G01X-2720807Y-3098644D01*
G01X-2758580Y-3110496D01*
G01X-2794961Y-3126108D01*
G01X-2829575Y-3145321D01*
G01X-2862068Y-3167936D01*
G01X-2892106Y-3193723D01*
G01X-2919382Y-3222417D01*
G01X-2943614Y-3253723D01*
G01X-2964555Y-3287320D01*
G01X-2981990Y-3322863D01*
G01X-2995739Y-3359987D01*
G01X-3005663Y-3398312D01*
G01X-3011657Y-3437445D01*
G01X-3013663Y-3476983D01*
G01X-3013663Y-3476983D01*
G01X-3791320Y-3476983D01*
G01X-3791430Y-3475131D01*
G01X-3791551Y-3473062D01*
G01X-3791670Y-3470999D01*
G01X-3791789Y-3468924D01*
G01X-3791907Y-3466847D01*
G01X-3792024Y-3464766D01*
G01X-3792140Y-3462675D01*
G01X-3792255Y-3460587D01*
G01X-3792370Y-3458478D01*
G01X-3792483Y-3456384D01*
G01X-3792596Y-3454273D01*
G01X-3792707Y-3452160D01*
G01X-3792818Y-3450039D01*
G01X-3792926Y-3447937D01*
G01X-3793036Y-3445788D01*
G01X-3793143Y-3443671D01*
G01X-3793251Y-3441512D01*
G01X-3793356Y-3439372D01*
G01X-3793462Y-3437215D01*
G01X-3793566Y-3435061D01*
G01X-3793669Y-3432901D01*
G01X-3793771Y-3430736D01*
G01X-3793873Y-3428558D01*
G01X-3793973Y-3426390D01*
G01X-3794073Y-3424205D01*
G01X-3794172Y-3422014D01*
G01X-3794270Y-3419818D01*
G01X-3794366Y-3417624D01*
G01X-3794462Y-3415417D01*
G01X-3794557Y-3413209D01*
G01X-3794651Y-3410995D01*
G01X-3794744Y-3408776D01*
G01X-3794836Y-3406551D01*
G01X-3794927Y-3404313D01*
G01X-3795017Y-3402080D01*
G01X-3795107Y-3399831D01*
G01X-3795196Y-3397587D01*
G01X-3795283Y-3395334D01*
G01X-3795370Y-3393072D01*
G01X-3795455Y-3390808D01*
G01X-3795540Y-3388538D01*
G01X-3795624Y-3386259D01*
G01X-3795707Y-3383978D01*
G01X-3795789Y-3381691D01*
G01X-3795870Y-3379398D01*
G01X-3795950Y-3377096D01*
G01X-3796029Y-3374795D01*
G01X-3796108Y-3372474D01*
G01X-3796185Y-3370162D01*
G01X-3796261Y-3367840D01*
G01X-3796337Y-3365513D01*
G01X-3796411Y-3363179D01*
G01X-3796485Y-3360833D01*
G01X-3796557Y-3358492D01*
G01X-3796629Y-3356140D01*
G01X-3796700Y-3353776D01*
G01X-3796770Y-3351421D01*
G01X-3796839Y-3349044D01*
G01X-3796907Y-3346670D01*
G01X-3796974Y-3344289D01*
G01X-3797040Y-3341902D01*
G01X-3797105Y-3339510D01*
G01X-3797170Y-3337107D01*
G01X-3797234Y-3334695D01*
G01X-3797296Y-3332291D01*
G01X-3797357Y-3329874D01*
G01X-3797418Y-3327440D01*
G01X-3797478Y-3325018D01*
G01X-3797536Y-3322579D01*
G01X-3797594Y-3320138D01*
G01X-3797651Y-3317687D01*
G01X-3797707Y-3315236D01*
G01X-3797762Y-3312769D01*
G01X-3797816Y-3310306D01*
G01X-3797870Y-3307830D01*
G01X-3797922Y-3305351D01*
G01X-3797973Y-3302866D01*
G01X-3798023Y-3300378D01*
G01X-3798073Y-3297870D01*
G01X-3798121Y-3295372D01*
G01X-3798169Y-3292855D01*
G01X-3798216Y-3290335D01*
G01X-3798261Y-3287816D01*
G01X-3798306Y-3285286D01*
G01X-3798350Y-3282746D01*
G01X-3798393Y-3280204D01*
G01X-3798435Y-3277659D01*
G01X-3798476Y-3275100D01*
G01X-3798516Y-3272531D01*
G01X-3798555Y-3269966D01*
G01X-3798594Y-3267388D01*
G01X-3798631Y-3264807D01*
G01X-3798667Y-3262223D01*
G01X-3798703Y-3259621D01*
G01X-3798737Y-3257020D01*
G01X-3798771Y-3254413D01*
G01X-3798803Y-3251802D01*
G01X-3798835Y-3249174D01*
G01X-3798866Y-3246547D01*
G01X-3798895Y-3243909D01*
G01X-3798925Y-3241249D01*
G01X-3798953Y-3238588D01*
G01X-3798980Y-3235922D01*
G01X-3799006Y-3233239D01*
G01X-3799032Y-3230548D01*
G01X-3799056Y-3227850D01*
G01X-3799080Y-3225140D01*
G01X-3799103Y-3222424D01*
G01X-3799125Y-3219695D01*
G01X-3799146Y-3216964D01*
G01X-3799166Y-3214211D01*
G01X-3799186Y-3211459D01*
G01X-3799204Y-3208697D01*
G01X-3799222Y-3205923D01*
G01X-3799239Y-3203141D01*
G01X-3799255Y-3200349D01*
G01X-3799270Y-3197555D01*
G01X-3799284Y-3194740D01*
G01X-3799298Y-3191928D01*
G01X-3799311Y-3189098D01*
G01X-3799322Y-3186268D01*
G01X-3799334Y-3183421D01*
G01X-3799344Y-3180567D01*
G01X-3799354Y-3177703D01*
G01X-3799363Y-3174835D01*
G01X-3799371Y-3171957D01*
G01X-3799378Y-3169069D01*
G01X-3799384Y-3166176D01*
G01X-3799390Y-3163269D01*
G01X-3799395Y-3160356D01*
G01X-3799400Y-3157435D01*
G01X-3799403Y-3154508D01*
G01X-3799406Y-3151564D01*
G01X-3799408Y-3148624D01*
G01X-3799409Y-3145666D01*
G01X-3799410Y-3142706D01*
G01X-3799409Y-3139732D01*
G01X-3799409Y-3136755D01*
G01X-3799407Y-3133753D01*
G01X-3799405Y-3130748D01*
G01X-3799402Y-3127740D01*
G01X-3799398Y-3124705D01*
G01X-3799394Y-3121665D01*
G01X-3799388Y-3118625D01*
G01X-3799383Y-3115558D01*
G01X-3799377Y-3112485D01*
G01X-3799369Y-3109415D01*
G01X-3799362Y-3106319D01*
G01X-3799353Y-3103222D01*
G01X-3799345Y-3100125D01*
G01X-3799335Y-3097004D01*
G01X-3799325Y-3093875D01*
G01X-3799314Y-3090746D01*
G01X-3799303Y-3087597D01*
G01X-3799291Y-3084446D01*
G01X-3799278Y-3081298D01*
G01X-3799265Y-3078125D01*
G01X-3799252Y-3074946D01*
G01X-3799238Y-3071772D01*
G01X-3799223Y-3068579D01*
G01X-3799208Y-3065384D01*
G01X-3799192Y-3062187D01*
G01X-3799176Y-3058974D01*
G01X-3799159Y-3055761D01*
G01X-3799142Y-3052536D01*
G01X-3799124Y-3049312D01*
G01X-3799106Y-3046089D01*
G01X-3799087Y-3042843D01*
G01X-3799068Y-3039596D01*
G01X-3799049Y-3036357D01*
G01X-3799029Y-3033100D01*
G01X-3799008Y-3029843D01*
G01X-3798988Y-3026588D01*
G01X-3798966Y-3023321D01*
G01X-3798944Y-3020047D01*
G01X-3798922Y-3016770D01*
G01X-3798900Y-3013500D01*
G01X-3798877Y-3010218D01*
G01X-3798854Y-3006933D01*
G01X-3798830Y-3003644D01*
G01X-3798807Y-3000359D01*
G01X-3798783Y-2997064D01*
G01X-3798758Y-2993772D01*
G01X-3798733Y-2990478D01*
G01X-3798708Y-2987178D01*
G01X-3798683Y-2983883D01*
G01X-3798657Y-2980579D01*
G01X-3798631Y-2977275D01*
G01X-3798604Y-2973977D01*
G01X-3798577Y-2970605D01*
G01X-3798550Y-2967186D01*
G01X-3798522Y-2963749D01*
G01X-3798495Y-2960294D01*
G01X-3798467Y-2956821D01*
G01X-3798440Y-2953333D01*
G01X-3798413Y-2949829D01*
G01X-3798385Y-2946314D01*
G01X-3798357Y-2942780D01*
G01X-3798330Y-2939236D01*
G01X-3798303Y-2935681D01*
G01X-3798275Y-2932118D01*
G01X-3798247Y-2928542D01*
G01X-3798220Y-2924952D01*
G01X-3798193Y-2921363D01*
G01X-3798165Y-2917764D01*
G01X-3798138Y-2914156D01*
G01X-3798111Y-2910546D01*
G01X-3798084Y-2906929D01*
G01X-3798057Y-2903312D01*
G01X-3798030Y-2899692D01*
G01X-3798003Y-2896068D01*
G01X-3797976Y-2892446D01*
G01X-3797950Y-2888820D01*
G01X-3797923Y-2885185D01*
G01X-3797897Y-2881545D01*
G01X-3797870Y-2877899D01*
G01X-3797844Y-2874247D01*
G01X-3797818Y-2870588D01*
G01X-3797791Y-2866922D01*
G01X-3797765Y-2863250D01*
G01X-3797739Y-2859565D01*
G01X-3797713Y-2855882D01*
G01X-3797687Y-2852185D01*
G01X-3797662Y-2848488D01*
G01X-3797636Y-2844782D01*
G01X-3797610Y-2841065D01*
G01X-3797584Y-2837345D01*
G01X-3797559Y-2833622D01*
G01X-3797533Y-2829889D01*
G01X-3797508Y-2826145D01*
G01X-3797482Y-2822398D01*
G01X-3797457Y-2818645D01*
G01X-3797432Y-2814885D01*
G01X-3797407Y-2811118D01*
G01X-3797382Y-2807340D01*
G01X-3797357Y-2803562D01*
G01X-3797332Y-2799774D01*
G01X-3797307Y-2795975D01*
G01X-3797283Y-2792176D01*
G01X-3797258Y-2788366D01*
G01X-3797234Y-2784553D01*
G01X-3797209Y-2780729D01*
G01X-3797185Y-2776898D01*
G01X-3797161Y-2773062D01*
G01X-3797137Y-2769217D01*
G01X-3797113Y-2765369D01*
G01X-3797089Y-2761510D01*
G01X-3797065Y-2757646D01*
G01X-3797041Y-2753776D01*
G01X-3797017Y-2749893D01*
G01X-3796994Y-2746010D01*
G01X-3796970Y-2742114D01*
G01X-3796947Y-2738220D01*
G01X-3796923Y-2734309D01*
G01X-3796900Y-2730395D01*
G01X-3796877Y-2726473D01*
G01X-3796854Y-2722548D01*
G01X-3796831Y-2718614D01*
G01X-3796808Y-2714667D01*
G01X-3796785Y-2710718D01*
G01X-3796763Y-2706764D01*
G01X-3796740Y-2702801D01*
G01X-3796718Y-2698824D01*
G01X-3796695Y-2694846D01*
G01X-3796673Y-2690863D01*
G01X-3796651Y-2686866D01*
G01X-3796629Y-2682867D01*
G01X-3796607Y-2678860D01*
G01X-3796585Y-2674845D01*
G01X-3796564Y-2670837D01*
G01X-3796542Y-2666836D01*
G01X-3796520Y-2662836D01*
G01X-3796499Y-2658848D01*
G01X-3796478Y-2654861D01*
G01X-3796457Y-2650876D01*
G01X-3796436Y-2646905D01*
G01X-3796415Y-2642927D01*
G01X-3796394Y-2638960D01*
G01X-3796374Y-2634999D01*
G01X-3796353Y-2631042D01*
G01X-3796333Y-2627088D01*
G01X-3796312Y-2623136D01*
G01X-3796293Y-2619200D01*
G01X-3796272Y-2615252D01*
G01X-3796252Y-2611326D01*
G01X-3796232Y-2607390D01*
G01X-3796213Y-2603465D01*
G01X-3796193Y-2599548D01*
G01X-3796173Y-2595630D01*
G01X-3796154Y-2591716D01*
G01X-3796134Y-2587812D01*
G01X-3796115Y-2583909D01*
G01X-3796096Y-2580009D01*
G01X-3796076Y-2576115D01*
G01X-3796057Y-2572221D01*
G01X-3796038Y-2568338D01*
G01X-3796019Y-2564454D01*
G01X-3796000Y-2560579D01*
G01X-3795981Y-2556706D01*
G01X-3795963Y-2552833D01*
G01X-3795944Y-2548973D01*
G01X-3795926Y-2545107D01*
G01X-3795907Y-2541251D01*
G01X-3795888Y-2537395D01*
G01X-3795870Y-2533546D01*
G01X-3795852Y-2529701D01*
G01X-3795834Y-2525860D01*
G01X-3795815Y-2522020D01*
G01X-3795797Y-2518189D01*
G01X-3795779Y-2514357D01*
G01X-3795761Y-2510528D01*
G01X-3795743Y-2506708D01*
G01X-3795725Y-2502889D01*
G01X-3795707Y-2499069D01*
G01X-3795690Y-2495257D01*
G01X-3795671Y-2491454D01*
G01X-3795654Y-2487647D01*
G01X-3795636Y-2483843D01*
G01X-3795619Y-2480048D01*
G01X-3795601Y-2476251D01*
G01X-3795583Y-2472458D01*
G01X-3795566Y-2468670D01*
G01X-3795548Y-2464889D01*
G01X-3795531Y-2461103D01*
G01X-3795514Y-2457330D01*
G01X-3795496Y-2453553D01*
G01X-3795479Y-2449781D01*
G01X-3795462Y-2446013D01*
G01X-3795444Y-2442250D01*
G01X-3795427Y-2438486D01*
G01X-3795410Y-2434727D01*
G01X-3795392Y-2430968D01*
G01X-3795375Y-2427218D01*
G01X-3795358Y-2423465D01*
G01X-3795341Y-2419720D01*
G01X-3795324Y-2415974D01*
G01X-3795307Y-2412235D01*
G01X-3795289Y-2408493D01*
G01X-3795272Y-2404760D01*
G01X-3795255Y-2401026D01*
G01X-3795238Y-2397291D01*
G01X-3795221Y-2393568D01*
G01X-3795204Y-2389838D01*
G01X-3795187Y-2386123D01*
G01X-3795170Y-2382398D01*
G01X-3795153Y-2378681D01*
G01X-3795136Y-2374966D01*
G01X-3795119Y-2371253D01*
G01X-3795102Y-2367546D01*
G01X-3795085Y-2363835D01*
G01X-3795068Y-2360133D01*
G01X-3795050Y-2356427D01*
G01X-3795033Y-2352729D01*
G01X-3795016Y-2349028D01*
G01X-3794999Y-2345334D01*
G01X-3794982Y-2341638D01*
G01X-3794965Y-2337949D01*
G01X-3794948Y-2334259D01*
G01X-3794930Y-2330569D01*
G01X-3794913Y-2326886D01*
G01X-3794896Y-2323200D01*
G01X-3794879Y-2319523D01*
G01X-3794861Y-2315841D01*
G01X-3794844Y-2312164D01*
G01X-3794827Y-2308488D01*
G01X-3794809Y-2304814D01*
G01X-3794792Y-2301142D01*
G01X-3794775Y-2297472D01*
G01X-3794757Y-2293806D01*
G01X-3794739Y-2290137D01*
G01X-3794722Y-2286477D01*
G01X-3794704Y-2282811D01*
G01X-3794687Y-2279149D01*
G01X-3794669Y-2275492D01*
G01X-3794651Y-2271833D01*
G01X-3794634Y-2268176D01*
G01X-3794616Y-2264521D01*
G01X-3794598Y-2260864D01*
G01X-3794580Y-2257216D01*
G01X-3794562Y-2253567D01*
G01X-3794544Y-2249915D01*
G01X-3794526Y-2246269D01*
G01X-3794507Y-2242617D01*
G01X-3794490Y-2238976D01*
G01X-3794471Y-2235331D01*
G01X-3794453Y-2231692D01*
G01X-3794434Y-2228047D01*
G01X-3794416Y-2224404D01*
G01X-3794397Y-2220766D01*
G01X-3794379Y-2217129D01*
G01X-3794360Y-2213491D01*
G01X-3794341Y-2209856D01*
G01X-3794322Y-2206215D01*
G01X-3794304Y-2202585D01*
G01X-3794285Y-2198950D01*
G01X-3794266Y-2195317D01*
G01X-3794247Y-2191684D01*
G01X-3794227Y-2188055D01*
G01X-3794208Y-2184421D01*
G01X-3794189Y-2180791D01*
G01X-3794169Y-2177166D01*
G01X-3794149Y-2173537D01*
G01X-3794130Y-2169908D01*
G01X-3794110Y-2166283D01*
G01X-3794090Y-2162658D01*
G01X-3794070Y-2159034D01*
G01X-3794050Y-2155402D01*
G01X-3794030Y-2151777D01*
G01X-3794010Y-2148159D01*
G01X-3793990Y-2144531D01*
G01X-3793969Y-2140909D01*
G01X-3793949Y-2137285D01*
G01X-3793928Y-2133663D01*
G01X-3793907Y-2130042D01*
G01X-3793886Y-2126415D01*
G01X-3793866Y-2122797D01*
G01X-3793844Y-2119169D01*
G01X-3793823Y-2115553D01*
G01X-3793780Y-2108302D01*
G01X-3793759Y-2104686D01*
G01X-3793715Y-2097443D01*
G01X-3793693Y-2093817D01*
G01X-3793672Y-2090196D01*
G01X-3793649Y-2086578D01*
G01X-3793627Y-2082949D01*
G01X-3793605Y-2079327D01*
G01X-3793582Y-2075711D01*
G01X-3793559Y-2072082D01*
G01X-3793537Y-2068463D01*
G01X-3793514Y-2064838D01*
G01X-3793491Y-2061212D01*
G01X-3793468Y-2057588D01*
G01X-3793445Y-2053962D01*
G01X-3793421Y-2050339D01*
G01X-3793398Y-2046706D01*
G01X-3793374Y-2043084D01*
G01X-3793350Y-2039451D01*
G01X-3793327Y-2035823D01*
G01X-3793303Y-2032194D01*
G01X-3793279Y-2028562D01*
G01X-3793254Y-2024928D01*
G01X-3793230Y-2021299D01*
G01X-3793205Y-2017664D01*
G01X-3793181Y-2014030D01*
G01X-3793156Y-2010395D01*
G01X-3793131Y-2006757D01*
G01X-3793106Y-2003117D01*
G01X-3793080Y-1999477D01*
G01X-3793055Y-1995838D01*
G01X-3793029Y-1992195D01*
G01X-3793003Y-1988558D01*
G01X-3792977Y-1984913D01*
G01X-3792951Y-1981269D01*
G01X-3792925Y-1977619D01*
G01X-3792899Y-1973970D01*
G01X-3792872Y-1970327D01*
G01X-3792845Y-1966673D01*
G01X-3792818Y-1963020D01*
G01X-3792791Y-1959373D01*
G01X-3792764Y-1955717D01*
G01X-3792736Y-1952059D01*
G01X-3792709Y-1948405D01*
G01X-3792681Y-1944748D01*
G01X-3792653Y-1941088D01*
G01X-3792624Y-1937424D01*
G01X-3792596Y-1933762D01*
G01X-3792567Y-1930095D01*
G01X-3792538Y-1926429D01*
G01X-3792509Y-1922761D01*
G01X-3792480Y-1919092D01*
G01X-3792451Y-1915420D01*
G01X-3792421Y-1911750D01*
G01X-3792391Y-1908068D01*
G01X-3792361Y-1904396D01*
G01X-3792331Y-1900715D01*
G01X-3792300Y-1897035D01*
G01X-3792270Y-1893350D01*
G01X-3792239Y-1889664D01*
G01X-3792208Y-1885982D01*
G01X-3792176Y-1882291D01*
G01X-3792145Y-1878603D01*
G01X-3792113Y-1874909D01*
G01X-3792081Y-1871214D01*
G01X-3792048Y-1867518D01*
G01X-3792016Y-1863817D01*
G01X-3791983Y-1860118D01*
G01X-3791950Y-1856411D01*
G01X-3791917Y-1852707D01*
G01X-3791883Y-1849002D01*
G01X-3791850Y-1845292D01*
G01X-3791816Y-1841578D01*
G01X-3791782Y-1837861D01*
G01X-3791747Y-1834147D01*
G01X-3791712Y-1830429D01*
G01X-3791677Y-1826703D01*
G01X-3791642Y-1822981D01*
G01X-3791607Y-1819252D01*
G01X-3791571Y-1815527D01*
G01X-3791535Y-1811794D01*
G01X-3791498Y-1808061D01*
G01X-3791462Y-1804325D01*
G01X-3791425Y-1800583D01*
G01X-3791388Y-1796843D01*
G01X-3791351Y-1793096D01*
G01X-3791313Y-1789350D01*
G01X-3791275Y-1785600D01*
G01X-3791237Y-1781845D01*
G01X-3791199Y-1778094D01*
G01X-3791160Y-1774332D01*
G01X-3791121Y-1770569D01*
G01X-3791082Y-1766809D01*
G01X-3791042Y-1763040D01*
G01X-3791002Y-1759271D01*
G01X-3790962Y-1755496D01*
G01X-3790921Y-1751724D01*
G01X-3790880Y-1747945D01*
G01X-3790839Y-1744161D01*
G01X-3790797Y-1740378D01*
G01X-3790756Y-1736585D01*
G01X-3790714Y-1732797D01*
G01X-3790672Y-1729001D01*
G01X-3790629Y-1725207D01*
G01X-3790586Y-1721404D01*
G01X-3790543Y-1717601D01*
G01X-3790499Y-1713796D01*
G01X-3790455Y-1709985D01*
G01X-3790411Y-1706173D01*
G01X-3790366Y-1702355D01*
G01X-3790322Y-1698534D01*
G01X-3790276Y-1694712D01*
G01X-3790231Y-1690881D01*
G01X-3790185Y-1687052D01*
G01X-3790139Y-1683216D01*
G01X-3790092Y-1679381D01*
G01X-3790045Y-1675539D01*
G01X-3789998Y-1671694D01*
G01X-3789950Y-1667847D01*
G01X-3789903Y-1663994D01*
G01X-3789854Y-1660140D01*
G01X-3789806Y-1656278D01*
G01X-3789756Y-1652416D01*
G01X-3789707Y-1648544D01*
G01X-3789658Y-1644677D01*
G01X-3789607Y-1640803D01*
G01X-3789557Y-1636923D01*
G01X-3789506Y-1633046D01*
G01X-3789455Y-1629159D01*
G01X-3789403Y-1625266D01*
G01X-3789352Y-1621369D01*
G01X-3789299Y-1617477D01*
G01X-3789247Y-1613574D01*
G01X-3789194Y-1609666D01*
G01X-3789140Y-1605759D01*
G01X-3789087Y-1601842D01*
G01X-3789032Y-1597927D01*
G01X-3788978Y-1594002D01*
G01X-3788923Y-1590079D01*
G01X-3788867Y-1586150D01*
G01X-3788812Y-1582210D01*
G01X-3788756Y-1578280D01*
G01X-3788699Y-1574331D01*
G01X-3788643Y-1570389D01*
G01X-3788585Y-1566432D01*
G01X-3788528Y-1562473D01*
G01X-3788470Y-1558517D01*
G01X-3788411Y-1554549D01*
G01X-3788352Y-1550584D01*
G01X-3788293Y-1546608D01*
G01X-3788233Y-1542629D01*
G01X-3788173Y-1538644D01*
G01X-3788112Y-1534663D01*
G01X-3788051Y-1530669D01*
G01X-3787990Y-1526670D01*
G01X-3787928Y-1522669D01*
G01X-3787866Y-1518660D01*
G01X-3787803Y-1514656D01*
G01X-3787740Y-1510637D01*
G01X-3787676Y-1506620D01*
G01X-3787612Y-1502592D01*
G01X-3787548Y-1498556D01*
G01X-3787483Y-1494508D01*
G01X-3787418Y-1490457D01*
G01X-3787352Y-1486403D01*
G01X-3787285Y-1482337D01*
G01X-3787219Y-1478271D01*
G01X-3787151Y-1474188D01*
G01X-3787083Y-1470109D01*
G01X-3787015Y-1466014D01*
G01X-3786946Y-1461922D01*
G01X-3786877Y-1457812D01*
G01X-3786807Y-1453706D01*
G01X-3786737Y-1449586D01*
G01X-3786666Y-1445463D01*
G01X-3786595Y-1441333D01*
G01X-3786524Y-1437192D01*
G01X-3786451Y-1433049D01*
G01X-3786379Y-1428895D01*
G01X-3786306Y-1424740D01*
G01X-3786232Y-1420572D01*
G01X-3786158Y-1416404D01*
G01X-3786084Y-1412222D01*
G01X-3786009Y-1408039D01*
G01X-3785933Y-1403843D01*
G01X-3785858Y-1399646D01*
G01X-3785781Y-1395436D01*
G01X-3785704Y-1391223D01*
G01X-3785627Y-1387004D01*
G01X-3785549Y-1382772D01*
G01X-3785471Y-1378538D01*
G01X-3785392Y-1374292D01*
G01X-3785312Y-1370044D01*
G01X-3785233Y-1365784D01*
G01X-3785152Y-1361522D01*
G01X-3785071Y-1357247D01*
G01X-3784990Y-1352972D01*
G01X-3784908Y-1348683D01*
G01X-3784826Y-1344388D01*
G01X-3784743Y-1340083D01*
G01X-3784660Y-1335777D01*
G01X-3784576Y-1331457D01*
G01X-3784492Y-1327133D01*
G01X-3784407Y-1322798D01*
G01X-3784322Y-1318463D01*
G01X-3784236Y-1314114D01*
G01X-3784150Y-1309756D01*
G01X-3784064Y-1305398D01*
G01X-3783976Y-1301025D01*
G01X-3783888Y-1296647D01*
G01X-3783800Y-1292258D01*
G01X-3783711Y-1287867D01*
G01X-3783622Y-1283463D01*
G01X-3783532Y-1279057D01*
G01X-3783442Y-1274633D01*
G01X-3783352Y-1270214D01*
G01X-3783260Y-1265779D01*
G01X-3783169Y-1261339D01*
G01X-3783076Y-1256888D01*
G01X-3782984Y-1252432D01*
G01X-3782890Y-1247964D01*
G01X-3782796Y-1243489D01*
G01X-3782702Y-1239005D01*
G01X-3782608Y-1234521D01*
G01X-3782512Y-1230021D01*
G01X-3782416Y-1225516D01*
G01X-3782320Y-1221000D01*
G01X-3782223Y-1216479D01*
G01X-3782126Y-1211946D01*
G01X-3782028Y-1207408D01*
G01X-3781929Y-1202858D01*
G01X-3781830Y-1198302D01*
G01X-3781731Y-1193737D01*
G01X-3781631Y-1189166D01*
G01X-3781531Y-1184582D01*
G01X-3781430Y-1179994D01*
G01X-3781328Y-1175395D01*
G01X-3781226Y-1170788D01*
G01X-3781124Y-1166172D01*
G01X-3781021Y-1161545D01*
G01X-3780917Y-1156914D01*
G01X-3780813Y-1152270D01*
G01X-3780708Y-1147617D01*
G01X-3780603Y-1142962D01*
G01X-3780498Y-1138294D01*
G01X-3780392Y-1133619D01*
G01X-3780285Y-1128931D01*
G01X-3780178Y-1124239D01*
G01X-3780070Y-1119535D01*
G01X-3779961Y-1114821D01*
G01X-3779853Y-1110100D01*
G01X-3779743Y-1105368D01*
G01X-3779634Y-1100632D01*
G01X-3779523Y-1095884D01*
G01X-3779412Y-1091129D01*
G01X-3779300Y-1086360D01*
G01X-3779193Y-1081776D01*
G01X-3779109Y-1078158D01*
G01X-3778975Y-1072496D01*
G01X-3778701Y-1060947D01*
G01X-3778212Y-1040489D01*
G01X-3777500Y-1011094D01*
G01X-3776570Y-973341D01*
G01X-3775426Y-927786D01*
G01X-3774073Y-874990D01*
G01X-3772512Y-815506D01*
G01X-3770751Y-749878D01*
G01X-3769389Y-700000D01*
G01X-2535814Y-700000D01*
G01X-2535814Y-2300000D01*
G01X-2533797Y-2330780D01*
G01X-2527779Y-2361033D01*
G01X-2517864Y-2390242D01*
G01X-2504221Y-2417907D01*
G01X-2487084Y-2443555D01*
G01X-2466746Y-2466746D01*
G01X-2443555Y-2487084D01*
G01X-2417907Y-2504221D01*
G01X-2390242Y-2517864D01*
G01X-2361033Y-2527779D01*
G01X-2330780Y-2533797D01*
G01X-2300000Y-2535814D01*
G01X2300000Y-2535814D01*
G01X2330780Y-2533797D01*
G01X2361033Y-2527779D01*
G01X2390242Y-2517864D01*
G01X2417907Y-2504221D01*
G01X2443554Y-2487084D01*
G01X2466745Y-2466746D01*
G01X2487084Y-2443555D01*
G01X2504221Y-2417907D01*
G01X2517864Y-2390242D01*
G01X2527779Y-2361033D01*
G01X2533796Y-2330780D01*
G01X2535814Y-2300000D01*
G01X2535814Y-700000D01*
G01X2535814Y-700000D01*
G01X2533796Y-669220D01*
G01X2527779Y-638967D01*
G01X2517864Y-609758D01*
G01X2504221Y-582093D01*
G01X2487084Y-556446D01*
G01X2466745Y-533254D01*
G01X2443554Y-512916D01*
G01X2417907Y-495779D01*
G01X2390242Y-482136D01*
G01X2361033Y-472221D01*
G01X2330780Y-466203D01*
G01X2300000Y-464186D01*
G01X-2300000Y-464186D01*
G01X-2330780Y-466203D01*
G01X-2361033Y-472221D01*
G01X-2390242Y-482136D01*
G01X-2417907Y-495779D01*
G01X-2443555Y-512916D01*
G01X-2466746Y-533254D01*
G01X-2487084Y-556446D01*
G01X-2504221Y-582093D01*
G01X-2517864Y-609758D01*
G01X-2527779Y-638967D01*
G01X-2533797Y-669220D01*
G01X-2535814Y-700000D01*
G01X-3769389Y-700000D01*
G01X-3768807Y-678671D01*
G01X-3766700Y-602464D01*
G01X-3764451Y-521816D01*
G01X-3762077Y-437318D01*
G01X-3759600Y-349525D01*
G01X-3757045Y-259075D01*
G01X-3754451Y-166680D01*
G01X-3751840Y-72860D01*
G01X-3749233Y21899D01*
G01X-3746651Y117105D01*
G01X-3746050Y139700D01*
G01X-354814Y139700D01*
G01X-352877Y120032D01*
G01X-347140Y101120D01*
G01X-337824Y83691D01*
G01X-325286Y68414D01*
G01X-310009Y55876D01*
G01X-292580Y46560D01*
G01X-273668Y40823D01*
G01X-254000Y38886D01*
G01X-234332Y40823D01*
G01X-215420Y46560D01*
G01X-197991Y55876D01*
G01X-182714Y68414D01*
G01X-170176Y83691D01*
G01X-160860Y101120D01*
G01X-155123Y120032D01*
G01X-153186Y139700D01*
G01X-153186Y139700D01*
G01X-100814Y139700D01*
G01X-98877Y120032D01*
G01X-93140Y101120D01*
G01X-83824Y83691D01*
G01X-71286Y68414D01*
G01X-56009Y55876D01*
G01X-38580Y46560D01*
G01X-19668Y40823D01*
G01X0Y38886D01*
G01X19668Y40823D01*
G01X38580Y46560D01*
G01X56009Y55876D01*
G01X71286Y68414D01*
G01X83824Y83691D01*
G01X93140Y101120D01*
G01X98877Y120032D01*
G01X100814Y139700D01*
G01X100814Y139700D01*
G01X153186Y139700D01*
G01X155123Y120032D01*
G01X160860Y101120D01*
G01X170176Y83691D01*
G01X182714Y68414D01*
G01X197991Y55876D01*
G01X215420Y46560D01*
G01X234332Y40823D01*
G01X254000Y38886D01*
G01X273668Y40823D01*
G01X292580Y46560D01*
G01X310009Y55876D01*
G01X325286Y68414D01*
G01X337824Y83691D01*
G01X347140Y101120D01*
G01X352877Y120032D01*
G01X354814Y139700D01*
G01X354814Y139700D01*
G01X352877Y159368D01*
G01X347140Y178280D01*
G01X337824Y195709D01*
G01X325286Y210986D01*
G01X310009Y223524D01*
G01X292580Y232840D01*
G01X273668Y238577D01*
G01X254000Y240514D01*
G01X234332Y238577D01*
G01X215420Y232840D01*
G01X197991Y223524D01*
G01X182714Y210986D01*
G01X170176Y195709D01*
G01X160860Y178280D01*
G01X155123Y159368D01*
G01X153186Y139700D01*
G01X100814Y139700D01*
G01X98877Y159368D01*
G01X93140Y178280D01*
G01X83824Y195709D01*
G01X71286Y210986D01*
G01X56009Y223524D01*
G01X38580Y232840D01*
G01X19668Y238577D01*
G01X0Y240514D01*
G01X-19668Y238577D01*
G01X-38580Y232840D01*
G01X-56009Y223524D01*
G01X-71286Y210986D01*
G01X-83824Y195709D01*
G01X-93140Y178280D01*
G01X-98877Y159368D01*
G01X-100814Y139700D01*
G01X-153186Y139700D01*
G01X-155123Y159368D01*
G01X-160860Y178280D01*
G01X-170176Y195709D01*
G01X-182714Y210986D01*
G01X-197991Y223524D01*
G01X-215420Y232840D01*
G01X-234332Y238577D01*
G01X-254000Y240514D01*
G01X-273668Y238577D01*
G01X-292580Y232840D01*
G01X-310009Y223524D01*
G01X-325286Y210986D01*
G01X-337824Y195709D01*
G01X-347140Y178280D01*
G01X-352877Y159368D01*
G01X-354814Y139700D01*
G01X-3746050Y139700D01*
G01X-3744117Y212261D01*
G01X-3741652Y306366D01*
G01X-3739215Y398134D01*
G01X-3736790Y487277D01*
G01X-3734378Y573298D01*
G01X-3731984Y655679D01*
G01X-3729608Y733849D01*
G01X-3727256Y807301D01*
G01X-3724932Y875524D01*
G01X-3722680Y938063D01*
G01X-3720548Y994352D01*
G01X-3718607Y1043389D01*
G01X-3716826Y1086478D01*
G01X-3715112Y1126037D01*
G01X-3713371Y1164498D01*
G01X-3711521Y1204018D01*
G01X-3709565Y1244230D01*
G01X-3707504Y1284870D01*
G01X-3705333Y1325914D01*
G01X-3703045Y1367344D01*
G01X-3700636Y1409133D01*
G01X-3698098Y1451265D01*
G01X-3695426Y1493706D01*
G01X-3692614Y1536437D01*
G01X-3689654Y1579446D01*
G01X-3686541Y1622716D01*
G01X-3683268Y1666216D01*
G01X-3679827Y1709939D01*
G01X-3676213Y1753864D01*
G01X-3672418Y1797977D01*
G01X-3668437Y1842247D01*
G01X-3664262Y1886667D01*
G01X-3659887Y1931212D01*
G01X-3655307Y1975840D01*
G01X-3650510Y2020560D01*
G01X-3645490Y2065376D01*
G01X-3640244Y2110243D01*
G01X-3634768Y2155148D01*
G01X-3629059Y2200063D01*
G01X-3623116Y2244951D01*
G01X-3618587Y2277800D01*
G01X-2535814Y2277800D01*
G01X-2535814Y877800D01*
G01X-2533797Y847020D01*
G01X-2527779Y816767D01*
G01X-2517864Y787558D01*
G01X-2504221Y759893D01*
G01X-2487084Y734246D01*
G01X-2466746Y711054D01*
G01X-2443555Y690716D01*
G01X-2417907Y673579D01*
G01X-2390242Y659936D01*
G01X-2361033Y650021D01*
G01X-2330780Y644003D01*
G01X-2300000Y641986D01*
G01X2300000Y641986D01*
G01X2330780Y644003D01*
G01X2361033Y650021D01*
G01X2390242Y659936D01*
G01X2417907Y673579D01*
G01X2443554Y690716D01*
G01X2466745Y711054D01*
G01X2487084Y734246D01*
G01X2504221Y759893D01*
G01X2517864Y787558D01*
G01X2527779Y816767D01*
G01X2533796Y847020D01*
G01X2535814Y877800D01*
G01X2535814Y2277800D01*
G01X2535814Y2277800D01*
G01X2533796Y2308580D01*
G01X2527779Y2338833D01*
G01X2517864Y2368042D01*
G01X2504221Y2395707D01*
G01X2487084Y2421354D01*
G01X2466745Y2444546D01*
G01X2443554Y2464884D01*
G01X2417907Y2482021D01*
G01X2390242Y2495664D01*
G01X2361033Y2505579D01*
G01X2330780Y2511597D01*
G01X2300000Y2513614D01*
G01X-2300000Y2513614D01*
G01X-2330780Y2511597D01*
G01X-2361033Y2505579D01*
G01X-2390242Y2495664D01*
G01X-2417907Y2482021D01*
G01X-2443555Y2464884D01*
G01X-2466746Y2444546D01*
G01X-2487084Y2421354D01*
G01X-2504221Y2395707D01*
G01X-2517864Y2368042D01*
G01X-2527779Y2338833D01*
G01X-2533797Y2308580D01*
G01X-2535814Y2277800D01*
G01X-3618587Y2277800D01*
G01X-3616933Y2289800D01*
G01X-3610508Y2334572D01*
G01X-3603839Y2379240D01*
G01X-3596921Y2423788D01*
G01X-3589751Y2468185D01*
G01X-3582316Y2512514D01*
G01X-3574635Y2556662D01*
G01X-3566700Y2600644D01*
G01X-3558504Y2644460D01*
G01X-3550041Y2688124D01*
G01X-3541303Y2731645D01*
G01X-3532284Y2775033D01*
G01X-3522975Y2818294D01*
G01X-3513369Y2861451D01*
G01X-3503460Y2904500D01*
G01X-3493240Y2947457D01*
G01X-3482852Y2989690D01*
G01X-3472291Y3031111D01*
G01X-3461509Y3071905D01*
G01X-3450502Y3112081D01*
G01X-3439259Y3151658D01*
G01X-3427783Y3190627D01*
G01X-3416069Y3228993D01*
G01X-3404106Y3266779D01*
G01X-3391897Y3303973D01*
G01X-3379435Y3340586D01*
G01X-3366719Y3376618D01*
G01X-3353762Y3412025D01*
G01X-3340772Y3446272D01*
G01X-3340018Y3448189D01*
G01X-2675807Y3448189D01*
G01X-2673802Y3408651D01*
G01X-2667807Y3369519D01*
G01X-2657884Y3331194D01*
G01X-2644135Y3294070D01*
G01X-2626700Y3258527D01*
G01X-2605759Y3224930D01*
G01X-2581526Y3193624D01*
G01X-2554251Y3164930D01*
G01X-2524213Y3139143D01*
G01X-2491719Y3116527D01*
G01X-2457105Y3097315D01*
G01X-2420725Y3081703D01*
G01X-2382951Y3069851D01*
G01X-2344173Y3061882D01*
G01X-2304787Y3057877D01*
G01X-2265198Y3057877D01*
G01X-2225813Y3061882D01*
G01X-2187034Y3069851D01*
G01X-2149261Y3081703D01*
G01X-2112881Y3097315D01*
G01X-2078266Y3116527D01*
G01X-2045773Y3139143D01*
G01X-2015735Y3164930D01*
G01X-1988460Y3193624D01*
G01X-1964227Y3224930D01*
G01X-1943286Y3258527D01*
G01X-1925851Y3294070D01*
G01X-1912102Y3331194D01*
G01X-1902179Y3369519D01*
G01X-1896184Y3408651D01*
G01X-1894179Y3448189D01*
G01X1848482Y3448189D01*
G01X1850487Y3408651D01*
G01X1856482Y3369519D01*
G01X1866405Y3331194D01*
G01X1880154Y3294070D01*
G01X1897589Y3258527D01*
G01X1918530Y3224930D01*
G01X1942763Y3193624D01*
G01X1970038Y3164930D01*
G01X2000076Y3139143D01*
G01X2032569Y3116527D01*
G01X2067184Y3097315D01*
G01X2103564Y3081703D01*
G01X2141337Y3069851D01*
G01X2180116Y3061882D01*
G01X2219502Y3057877D01*
G01X2259090Y3057877D01*
G01X2298476Y3061882D01*
G01X2337255Y3069851D01*
G01X2375028Y3081703D01*
G01X2411408Y3097315D01*
G01X2446023Y3116527D01*
G01X2478516Y3139143D01*
G01X2508554Y3164930D01*
G01X2535829Y3193624D01*
G01X2560062Y3224930D01*
G01X2581003Y3258527D01*
G01X2598438Y3294070D01*
G01X2612187Y3331194D01*
G01X2622110Y3369519D01*
G01X2628105Y3408651D01*
G01X2630110Y3448189D01*
G01X2628105Y3487727D01*
G01X2622110Y3526860D01*
G01X2612187Y3565185D01*
G01X2598438Y3602309D01*
G01X2581003Y3637852D01*
G01X2560062Y3671449D01*
G01X2535829Y3702755D01*
G01X2508554Y3731449D01*
G01X2478516Y3757236D01*
G01X2446023Y3779852D01*
G01X2411408Y3799064D01*
G01X2375028Y3814676D01*
G01X2337255Y3826528D01*
G01X2298476Y3834497D01*
G01X2259090Y3838502D01*
G01X2219502Y3838502D01*
G01X2180116Y3834497D01*
G01X2141337Y3826528D01*
G01X2103564Y3814676D01*
G01X2067184Y3799064D01*
G01X2032569Y3779852D01*
G01X2000076Y3757236D01*
G01X1970038Y3731449D01*
G01X1942763Y3702755D01*
G01X1918530Y3671449D01*
G01X1897589Y3637852D01*
G01X1880154Y3602309D01*
G01X1866405Y3565185D01*
G01X1856482Y3526860D01*
G01X1850487Y3487727D01*
G01X1848482Y3448189D01*
G01X1848482Y3448189D01*
G01X-1894179Y3448189D01*
G01X-1894179Y3448189D01*
G01X-1896184Y3487727D01*
G01X-1902179Y3526860D01*
G01X-1912102Y3565185D01*
G01X-1925851Y3602309D01*
G01X-1943286Y3637852D01*
G01X-1963511Y3670300D01*
G01X-637814Y3670300D01*
G01X-636036Y3655047D01*
G01X-630797Y3640611D01*
G01X-622378Y3627768D01*
G01X-611231Y3617206D01*
G01X-597953Y3609490D01*
G01X-583256Y3605036D01*
G01X-567929Y3604082D01*
G01X-552794Y3606679D01*
G01X-538661Y3612688D01*
G01X-526290Y3621786D01*
G01X-88900Y3621786D01*
G01X-76344Y3623439D01*
G01X-64643Y3628286D01*
G01X-54595Y3635995D01*
G01X-18363Y3672228D01*
G01X-15000Y3672228D01*
G01X-7321Y3673061D01*
G01X0Y3675520D01*
G01X7321Y3673061D01*
G01X15000Y3672228D01*
G01X18363Y3672228D01*
G01X67295Y3623295D01*
G01X77343Y3615586D01*
G01X89044Y3610739D01*
G01X101600Y3609086D01*
G01X526290Y3609086D01*
G01X538661Y3599988D01*
G01X552794Y3593979D01*
G01X567929Y3591382D01*
G01X583256Y3592336D01*
G01X597953Y3596790D01*
G01X611231Y3604506D01*
G01X622378Y3615068D01*
G01X630797Y3627911D01*
G01X636036Y3642347D01*
G01X637814Y3657600D01*
G01X636036Y3672853D01*
G01X630797Y3687289D01*
G01X622378Y3700132D01*
G01X611231Y3710694D01*
G01X597953Y3718410D01*
G01X583256Y3722864D01*
G01X567929Y3723818D01*
G01X552794Y3721221D01*
G01X538661Y3715212D01*
G01X526290Y3706114D01*
G01X350755Y3706114D01*
G01X350807Y3708042D01*
G01X350807Y3770141D01*
G01X358666Y3753368D01*
G01X369941Y3738671D01*
G01X384107Y3726737D01*
G01X400504Y3718120D01*
G01X418369Y3713223D01*
G01X436868Y3712274D01*
G01X455139Y3715316D01*
G01X472333Y3722209D01*
G01X487646Y3732631D01*
G01X500366Y3746096D01*
G01X509901Y3761977D01*
G01X515805Y3779534D01*
G01X517804Y3797949D01*
G01X517804Y3867949D01*
G01X515887Y3885986D01*
G01X510222Y3903218D01*
G01X501061Y3918873D01*
G01X488814Y3932254D01*
G01X474028Y3942761D01*
G01X457364Y3949926D01*
G01X439567Y3953428D01*
G01X421430Y3953110D01*
G01X403766Y3948988D01*
G01X387363Y3941245D01*
G01X372953Y3930228D01*
G01X361182Y3916427D01*
G01X352574Y3900461D01*
G01X347514Y3883042D01*
G01X341993Y3891571D01*
G01X334299Y3898207D01*
G01X325051Y3902414D01*
G01X314993Y3903856D01*
G01X234993Y3903856D01*
G01X226956Y3902942D01*
G01X219328Y3900248D01*
G01X212500Y3895911D01*
G01X205490Y3900335D01*
G01X197651Y3903030D01*
G01X192967Y3912590D01*
G01X186311Y3920898D01*
G01X135905Y3971305D01*
G01X125857Y3979014D01*
G01X114156Y3983861D01*
G01X101600Y3985514D01*
G01X-114300Y3985514D01*
G01X-126026Y3984076D01*
G01X-137056Y3979846D01*
G01X-139885Y3994818D01*
G01X-146057Y4008749D01*
G01X-155246Y4020903D01*
G01X-166966Y4030640D01*
G01X-180599Y4037444D01*
G01X-195425Y4040957D01*
G01X-210662Y4040993D01*
G01X-225505Y4037550D01*
G01X-239170Y4030811D01*
G01X-250937Y4021130D01*
G01X-250937Y4021130D01*
G01X-260183Y4009019D01*
G01X-266421Y3995118D01*
G01X-269321Y3980160D01*
G01X-268730Y3964934D01*
G01X-264680Y3950246D01*
G01X-257384Y3936869D01*
G01X-247228Y3925511D01*
G01X-234747Y3916771D01*
G01X-220601Y3911110D01*
G01X-205536Y3908827D01*
G01X-200520Y3903811D01*
G01X-200520Y3902277D01*
G01X-206814Y3899666D01*
G01X-212500Y3895911D01*
G01X-219328Y3900248D01*
G01X-226956Y3902942D01*
G01X-234993Y3903856D01*
G01X-314993Y3903856D01*
G01X-325051Y3902414D01*
G01X-334299Y3898207D01*
G01X-341993Y3891571D01*
G01X-347514Y3883042D01*
G01X-352574Y3900461D01*
G01X-361182Y3916427D01*
G01X-372953Y3930228D01*
G01X-387363Y3941245D01*
G01X-403766Y3948988D01*
G01X-421430Y3953110D01*
G01X-439567Y3953428D01*
G01X-457364Y3949926D01*
G01X-474028Y3942761D01*
G01X-488814Y3932254D01*
G01X-501061Y3918873D01*
G01X-510222Y3903218D01*
G01X-515887Y3885986D01*
G01X-517804Y3867949D01*
G01X-517804Y3797949D01*
G01X-516168Y3781270D01*
G01X-511321Y3765227D01*
G01X-503448Y3750432D01*
G01X-492850Y3737449D01*
G01X-479930Y3726774D01*
G01X-465182Y3718814D01*
G01X-526290Y3718814D01*
G01X-538661Y3727912D01*
G01X-552794Y3733921D01*
G01X-567929Y3736518D01*
G01X-583256Y3735564D01*
G01X-597953Y3731110D01*
G01X-611231Y3723394D01*
G01X-622378Y3712832D01*
G01X-630797Y3699989D01*
G01X-636036Y3685553D01*
G01X-637814Y3670300D01*
G01X-1963511Y3670300D01*
G01X-1964227Y3671449D01*
G01X-1988460Y3702755D01*
G01X-2015735Y3731449D01*
G01X-2045773Y3757236D01*
G01X-2078266Y3779852D01*
G01X-2112881Y3799064D01*
G01X-2149261Y3814676D01*
G01X-2187034Y3826528D01*
G01X-2225813Y3834497D01*
G01X-2265198Y3838502D01*
G01X-2304787Y3838502D01*
G01X-2344173Y3834497D01*
G01X-2382951Y3826528D01*
G01X-2420725Y3814676D01*
G01X-2457105Y3799064D01*
G01X-2491719Y3779852D01*
G01X-2524213Y3757236D01*
G01X-2554251Y3731449D01*
G01X-2581526Y3702755D01*
G01X-2605759Y3671449D01*
G01X-2626700Y3637852D01*
G01X-2644135Y3602309D01*
G01X-2657884Y3565185D01*
G01X-2667807Y3526860D01*
G01X-2673802Y3487727D01*
G01X-2675807Y3448189D01*
G01X-2675807Y3448189D01*
G01X-3340018Y3448189D01*
G01X-3327312Y3480478D01*
G01X-3313073Y3515359D01*
G01X-3297801Y3551376D01*
G01X-3281441Y3588445D01*
G01X-3263963Y3626426D01*
G01X-3245352Y3665148D01*
G01X-3225564Y3704505D01*
G01X-3204586Y3744322D01*
G01X-3182391Y3784454D01*
G01X-3158709Y3825141D01*
G01X-3133487Y3866330D01*
G01X-3106962Y3907507D01*
G01X-3079208Y3948394D01*
G01X-3049178Y3990371D01*
G01X-3017309Y4032662D01*
G01X-2983766Y4074908D01*
G01X-2948462Y4116983D01*
G01X-2911325Y4158726D01*
G01X-2872837Y4199695D01*
G01X-2833616Y4239336D01*
G01X-2794377Y4277016D01*
G01X-2792017Y4279125D01*
G01X-2789729Y4280985D01*
G01X-2787354Y4282740D01*
G01X-2784793Y4284457D01*
G01X-2783239Y4285415D01*
G01X-2781530Y4286397D01*
G01X-2779809Y4287318D01*
G01X-2778027Y4288202D01*
G01X-2776236Y4289022D01*
G01X-2774433Y4289783D01*
G01X-2772573Y4290501D01*
G01X-2770713Y4291153D01*
G01X-2768834Y4291748D01*
G01X-2766940Y4292284D01*
G01X-2765030Y4292763D01*
G01X-2763107Y4293182D01*
G01X-2761175Y4293541D01*
G01X-2759230Y4293842D01*
G01X-2757276Y4294083D01*
G01X-2755316Y4294264D01*
G01X-2753348Y4294385D01*
G01X-2751242Y4294449D01*
G01X-2750395Y4294456D01*
G37*
G54D10*
G01X-2750395Y4294456D02*
G01X-504115Y4294456D01*
G03X-517804Y4247958I72125J-46498D01*
G01X-517804Y4177958D01*
G03X-346177Y4177958I85814J0D01*
G01X-346177Y4247958D01*
G03X-359866Y4294456I-85814J0D01*
G01X359866Y4294456D01*
G03X346177Y4247958I72125J-46498D01*
G01X346177Y4177958D01*
G03X517804Y4177958I85814J0D01*
G01X517804Y4247958D01*
G03X504115Y4294456I-85814J0D01*
G01X2750631Y4294456D01*
G01X2752844Y4294421D01*
G01X2754752Y4294330D01*
G01X2756704Y4294175D01*
G01X2758636Y4293961D01*
G01X2760573Y4293686D01*
G01X2762507Y4293351D01*
G01X2764437Y4292955D01*
G01X2766359Y4292500D01*
G01X2768272Y4291986D01*
G01X2770171Y4291414D01*
G01X2772056Y4290784D01*
G01X2773921Y4290097D01*
G01X2775765Y4289356D01*
G01X2777586Y4288559D01*
G01X2779380Y4287710D01*
G01X2781147Y4286807D01*
G01X2782881Y4285854D01*
G01X2784578Y4284854D01*
G01X2786129Y4283875D01*
G01X2788666Y4282135D01*
G01X2790992Y4280375D01*
G01X2792034Y4279508D01*
G03X2794437Y4276969I27177J23325D01*
G01X2829854Y4243044D01*
G01X2864839Y4207970D01*
G01X2899357Y4171728D01*
G01X2933065Y4134593D01*
G01X2965642Y4096820D01*
G01X2996600Y4059027D01*
G01X3025970Y4021428D01*
G01X3053949Y3983874D01*
G01X3080678Y3946282D01*
G01X3105929Y3909087D01*
G01X3129822Y3872192D01*
G01X3152467Y3835572D01*
G01X3173848Y3799385D01*
G01X3194049Y3763620D01*
G01X3213306Y3727990D01*
G01X3231653Y3692572D01*
G01X3249079Y3657517D01*
G01X3265597Y3622935D01*
G01X3281187Y3589011D01*
G01X3295797Y3556072D01*
G01X3309517Y3524017D01*
G01X3322498Y3492578D01*
G01X3334945Y3461343D01*
G01X3346847Y3430439D01*
G01X3358429Y3399412D01*
G01X3369888Y3367741D01*
G01X3381198Y3335447D01*
G01X3392351Y3302551D01*
G01X3403319Y3269138D01*
G01X3414090Y3235234D01*
G01X3424690Y3200746D01*
G01X3435105Y3165747D01*
G01X3445319Y3130310D01*
G01X3455314Y3094516D01*
G01X3465073Y3058447D01*
G01X3474584Y3022169D01*
G01X3483825Y2985776D01*
G01X3492831Y2949141D01*
G01X3501808Y2911505D01*
G01X3510650Y2873340D01*
G01X3519296Y2834903D01*
G01X3527700Y2796394D01*
G01X3535893Y2757696D01*
G01X3543878Y2718814D01*
G01X3551654Y2679756D01*
G01X3559225Y2640525D01*
G01X3566589Y2601134D01*
G01X3573745Y2561600D01*
G01X3580695Y2521933D01*
G01X3587439Y2482133D01*
G01X3593967Y2442285D01*
G01X3600277Y2402399D01*
G01X3606379Y2362448D01*
G01X3612278Y2322437D01*
G01X3617977Y2282389D01*
G01X3623477Y2242319D01*
G01X3628783Y2202234D01*
G01X3633898Y2162156D01*
G01X3638824Y2122098D01*
G01X3643566Y2082076D01*
G01X3648125Y2042103D01*
G01X3652507Y2002186D01*
G01X3656711Y1962355D01*
G01X3660749Y1922579D01*
G01X3664625Y1882861D01*
G01X3668344Y1843226D01*
G01X3671911Y1803695D01*
G01X3675330Y1764270D01*
G01X3678605Y1724980D01*
G01X3681740Y1685836D01*
G01X3684741Y1646853D01*
G01X3687610Y1608052D01*
G01X3690355Y1569435D01*
G01X3692977Y1531034D01*
G01X3695482Y1492850D01*
G01X3697875Y1454908D01*
G01X3700159Y1417221D01*
G01X3702339Y1379807D01*
G01X3704420Y1342673D01*
G01X3706406Y1305843D01*
G01X3708301Y1269332D01*
G01X3710111Y1233151D01*
G01X3711834Y1197420D01*
G01X3713452Y1162755D01*
G01X3715003Y1128272D01*
G01X3716542Y1092739D01*
G01X3718124Y1054922D01*
G01X3719825Y1012706D01*
G01X3721665Y965111D01*
G01X3723617Y912357D01*
G01X3725656Y854662D01*
G01X3727744Y792364D01*
G01X3729856Y725836D01*
G01X3731989Y655415D01*
G01X3734138Y581624D01*
G01X3736297Y504991D01*
G01X3738460Y426051D01*
G01X3740623Y345299D01*
G01X3742779Y263291D01*
G01X3744993Y179121D01*
G01X3747266Y94264D01*
G01X3749578Y9254D01*
G01X3751912Y-75500D01*
G01X3754251Y-159563D01*
G01X3756578Y-242528D01*
G01X3758875Y-323954D01*
G01X3761112Y-403338D01*
G01X3763260Y-480240D01*
G01X3765308Y-554260D01*
G01X3767249Y-625004D01*
G01X3769074Y-692066D01*
G01X3770772Y-755060D01*
G01X3772336Y-813573D01*
G01X3773757Y-867212D01*
G01X3775025Y-915574D01*
G01X3776132Y-958262D01*
G01X3777070Y-994874D01*
G01X3777827Y-1025008D01*
G01X3778397Y-1048263D01*
G01X3778770Y-1063886D01*
G01X3778982Y-1072808D01*
G01X3779097Y-1077699D01*
G01X3779179Y-1081213D01*
G01X3779277Y-1085388D01*
G01X3779376Y-1089650D01*
G01X3779476Y-1093905D01*
G01X3779575Y-1098147D01*
G01X3779673Y-1102387D01*
G01X3779771Y-1106614D01*
G01X3779869Y-1110840D01*
G01X3779966Y-1115057D01*
G01X3780063Y-1119268D01*
G01X3780159Y-1123467D01*
G01X3780255Y-1127661D01*
G01X3780350Y-1131850D01*
G01X3780445Y-1136027D01*
G01X3780540Y-1140205D01*
G01X3780634Y-1144370D01*
G01X3780728Y-1148531D01*
G01X3780822Y-1152680D01*
G01X3780915Y-1156827D01*
G01X3781007Y-1160967D01*
G01X3781099Y-1165095D01*
G01X3781191Y-1169220D01*
G01X3781282Y-1173335D01*
G01X3781373Y-1177447D01*
G01X3781463Y-1181552D01*
G01X3781554Y-1185650D01*
G01X3781643Y-1189738D01*
G01X3781733Y-1193824D01*
G01X3781822Y-1197898D01*
G01X3781910Y-1201970D01*
G01X3781998Y-1206031D01*
G01X3782085Y-1210090D01*
G01X3782172Y-1214139D01*
G01X3782259Y-1218181D01*
G01X3782346Y-1222220D01*
G01X3782431Y-1226250D01*
G01X3782517Y-1230276D01*
G01X3782602Y-1234291D01*
G01X3782687Y-1238304D01*
G01X3782771Y-1242304D01*
G01X3782855Y-1246303D01*
G01X3782939Y-1250293D01*
G01X3783022Y-1254274D01*
G01X3783105Y-1258256D01*
G01X3783187Y-1262224D01*
G01X3783269Y-1266191D01*
G01X3783350Y-1270152D01*
G01X3783432Y-1274107D01*
G01X3783512Y-1278051D01*
G01X3783592Y-1281993D01*
G01X3783672Y-1285925D01*
G01X3783752Y-1289848D01*
G01X3783831Y-1293770D01*
G01X3783909Y-1297683D01*
G01X3783987Y-1301595D01*
G01X3784065Y-1305491D01*
G01X3784143Y-1309390D01*
G01X3784220Y-1313281D01*
G01X3784297Y-1317162D01*
G01X3784373Y-1321042D01*
G01X3784449Y-1324910D01*
G01X3784524Y-1328777D01*
G01X3784599Y-1332632D01*
G01X3784674Y-1336486D01*
G01X3784748Y-1340335D01*
G01X3784822Y-1344173D01*
G01X3784896Y-1348013D01*
G01X3784969Y-1351833D01*
G01X3785041Y-1355662D01*
G01X3785114Y-1359474D01*
G01X3785185Y-1363290D01*
G01X3785257Y-1367098D01*
G01X3785328Y-1370896D01*
G01X3785399Y-1374692D01*
G01X3785469Y-1378478D01*
G01X3785539Y-1382265D01*
G01X3785609Y-1386045D01*
G01X3785678Y-1389813D01*
G01X3785747Y-1393582D01*
G01X3785815Y-1397339D01*
G01X3785883Y-1401099D01*
G01X3785951Y-1404849D01*
G01X3786018Y-1408598D01*
G01X3786086Y-1412341D01*
G01X3786152Y-1416071D01*
G01X3786218Y-1419802D01*
G01X3786284Y-1423523D01*
G01X3786349Y-1427246D01*
G01X3786415Y-1430962D01*
G01X3786479Y-1434666D01*
G01X3786543Y-1438376D01*
G01X3786607Y-1442069D01*
G01X3786671Y-1445765D01*
G01X3786734Y-1449456D01*
G01X3786796Y-1453140D01*
G01X3786859Y-1456822D01*
G01X3786921Y-1460492D01*
G01X3786983Y-1464165D01*
G01X3787044Y-1467832D01*
G01X3787105Y-1471487D01*
G01X3787166Y-1475144D01*
G01X3787226Y-1478791D01*
G01X3787286Y-1482438D01*
G01X3787345Y-1486081D01*
G01X3787404Y-1489721D01*
G01X3787464Y-1493356D01*
G01X3787522Y-1496979D01*
G01X3787580Y-1500605D01*
G01X3787638Y-1504220D01*
G01X3787695Y-1507825D01*
G01X3787752Y-1511431D01*
G01X3787808Y-1515028D01*
G01X3787864Y-1518624D01*
G01X3787920Y-1522219D01*
G01X3787976Y-1525802D01*
G01X3788031Y-1529387D01*
G01X3788085Y-1532967D01*
G01X3788140Y-1536546D01*
G01X3788194Y-1540115D01*
G01X3788248Y-1543682D01*
G01X3788302Y-1547251D01*
G01X3788354Y-1550805D01*
G01X3788407Y-1554367D01*
G01X3788460Y-1557917D01*
G01X3788512Y-1561462D01*
G01X3788563Y-1565008D01*
G01X3788615Y-1568550D01*
G01X3788666Y-1572088D01*
G01X3788717Y-1575624D01*
G01X3788768Y-1579150D01*
G01X3788818Y-1582679D01*
G01X3788867Y-1586198D01*
G01X3788917Y-1589722D01*
G01X3788966Y-1593234D01*
G01X3789015Y-1596744D01*
G01X3789064Y-1600253D01*
G01X3789112Y-1603758D01*
G01X3789160Y-1607260D01*
G01X3789208Y-1610761D01*
G01X3789256Y-1614251D01*
G01X3789302Y-1617745D01*
G01X3789349Y-1621235D01*
G01X3789396Y-1624715D01*
G01X3789442Y-1628202D01*
G01X3789488Y-1631675D01*
G01X3789533Y-1635150D01*
G01X3789579Y-1638623D01*
G01X3789624Y-1642084D01*
G01X3789668Y-1645554D01*
G01X3789713Y-1649017D01*
G01X3789757Y-1652471D01*
G01X3789801Y-1655931D01*
G01X3789844Y-1659379D01*
G01X3789888Y-1662827D01*
G01X3789931Y-1666275D01*
G01X3789974Y-1669710D01*
G01X3790016Y-1673155D01*
G01X3790058Y-1676586D01*
G01X3790100Y-1680025D01*
G01X3790142Y-1683457D01*
G01X3790183Y-1686880D01*
G01X3790224Y-1690307D01*
G01X3790265Y-1693731D01*
G01X3790305Y-1697142D01*
G01X3790346Y-1700565D01*
G01X3790386Y-1703968D01*
G01X3790425Y-1707386D01*
G01X3790465Y-1710795D01*
G01X3790504Y-1714192D01*
G01X3790543Y-1717598D01*
G01X3790582Y-1720997D01*
G01X3790620Y-1724385D01*
G01X3790658Y-1727784D01*
G01X3790696Y-1731172D01*
G01X3790734Y-1734562D01*
G01X3790771Y-1737947D01*
G01X3790809Y-1741327D01*
G01X3790845Y-1744707D01*
G01X3790882Y-1748090D01*
G01X3790919Y-1751462D01*
G01X3790955Y-1754837D01*
G01X3790991Y-1758201D01*
G01X3791026Y-1761571D01*
G01X3791062Y-1764936D01*
G01X3791097Y-1768301D01*
G01X3791133Y-1771663D01*
G01X3791167Y-1775021D01*
G01X3791202Y-1778371D01*
G01X3791236Y-1781726D01*
G01X3791270Y-1785077D01*
G01X3791304Y-1788427D01*
G01X3791338Y-1791775D01*
G01X3791371Y-1795111D01*
G01X3791404Y-1798458D01*
G01X3791438Y-1801799D01*
G01X3791470Y-1805131D01*
G01X3791503Y-1808465D01*
G01X3791535Y-1811803D01*
G01X3791568Y-1815131D01*
G01X3791600Y-1818461D01*
G01X3791631Y-1821785D01*
G01X3791663Y-1825114D01*
G01X3791694Y-1828434D01*
G01X3791725Y-1831754D01*
G01X3791756Y-1835074D01*
G01X3791786Y-1838390D01*
G01X3791817Y-1841704D01*
G01X3791848Y-1845019D01*
G01X3791878Y-1848326D01*
G01X3791908Y-1851635D01*
G01X3791937Y-1854944D01*
G01X3791967Y-1858245D01*
G01X3791996Y-1861548D01*
G01X3792025Y-1864852D01*
G01X3792054Y-1868154D01*
G01X3792083Y-1871453D01*
G01X3792111Y-1874750D01*
G01X3792140Y-1878038D01*
G01X3792168Y-1881333D01*
G01X3792196Y-1884629D01*
G01X3792224Y-1887912D01*
G01X3792251Y-1891202D01*
G01X3792279Y-1894491D01*
G01X3792306Y-1897778D01*
G01X3792334Y-1901062D01*
G01X3792360Y-1904338D01*
G01X3792388Y-1907626D01*
G01X3792414Y-1910899D01*
G01X3792440Y-1914178D01*
G01X3792467Y-1917458D01*
G01X3792493Y-1920729D01*
G01X3792519Y-1924002D01*
G01X3792545Y-1927275D01*
G01X3792570Y-1930542D01*
G01X3792596Y-1933816D01*
G01X3792622Y-1937085D01*
G01X3792647Y-1940348D01*
G01X3792672Y-1943615D01*
G01X3792697Y-1946879D01*
G01X3792721Y-1950140D01*
G01X3792746Y-1953404D01*
G01X3792770Y-1956663D01*
G01X3792795Y-1959922D01*
G01X3792819Y-1963187D01*
G01X3792843Y-1966435D01*
G01X3792867Y-1969696D01*
G01X3792891Y-1972953D01*
G01X3792914Y-1976200D01*
G01X3792937Y-1979461D01*
G01X3792961Y-1982714D01*
G01X3792984Y-1985961D01*
G01X3793007Y-1989213D01*
G01X3793030Y-1992461D01*
G01X3793053Y-1995711D01*
G01X3793076Y-1998961D01*
G01X3793099Y-2002208D01*
G01X3793121Y-2005448D01*
G01X3793143Y-2008694D01*
G01X3793165Y-2011940D01*
G01X3793188Y-2015190D01*
G01X3793209Y-2018427D01*
G01X3793231Y-2021670D01*
G01X3793253Y-2024913D01*
G01X3793275Y-2028155D01*
G01X3793296Y-2031391D01*
G01X3793318Y-2034632D01*
G01X3793339Y-2037875D01*
G01X3793360Y-2041107D01*
G01X3793381Y-2044351D01*
G01X3793403Y-2047590D01*
G01X3793423Y-2050820D01*
G01X3793444Y-2054060D01*
G01X3793465Y-2057294D01*
G01X3793485Y-2060531D01*
G01X3793506Y-2063767D01*
G01X3793526Y-2067000D01*
G01X3793547Y-2070238D01*
G01X3793567Y-2073470D01*
G01X3793587Y-2076700D01*
G01X3793607Y-2079939D01*
G01X3793627Y-2083174D01*
G01X3793647Y-2086400D01*
G01X3793667Y-2089635D01*
G01X3793687Y-2092874D01*
G01X3793706Y-2096104D01*
G01X3793726Y-2099345D01*
G01X3793745Y-2102573D01*
G01X3793783Y-2109048D01*
G01X3793803Y-2112279D01*
G01X3793822Y-2115519D01*
G01X3793841Y-2118757D01*
G01X3793860Y-2121989D01*
G01X3793878Y-2125230D01*
G01X3793897Y-2128468D01*
G01X3793916Y-2131704D01*
G01X3793934Y-2134943D01*
G01X3793953Y-2138180D01*
G01X3793971Y-2141420D01*
G01X3793989Y-2144661D01*
G01X3794007Y-2147896D01*
G01X3794025Y-2151140D01*
G01X3794043Y-2154382D01*
G01X3794061Y-2157625D01*
G01X3794079Y-2160868D01*
G01X3794097Y-2164112D01*
G01X3794115Y-2167350D01*
G01X3794132Y-2170598D01*
G01X3794150Y-2173844D01*
G01X3794168Y-2177082D01*
G01X3794185Y-2180334D01*
G01X3794202Y-2183579D01*
G01X3794220Y-2186830D01*
G01X3794237Y-2190079D01*
G01X3794254Y-2193321D01*
G01X3794271Y-2196580D01*
G01X3794288Y-2199823D01*
G01X3794305Y-2203075D01*
G01X3794322Y-2206334D01*
G01X3794339Y-2209585D01*
G01X3794356Y-2212834D01*
G01X3794372Y-2216093D01*
G01X3794389Y-2219349D01*
G01X3794406Y-2222604D01*
G01X3794422Y-2225866D01*
G01X3794439Y-2229120D01*
G01X3794455Y-2232383D01*
G01X3794472Y-2235644D01*
G01X3794488Y-2238904D01*
G01X3794504Y-2242170D01*
G01X3794521Y-2245433D01*
G01X3794537Y-2248695D01*
G01X3794553Y-2251962D01*
G01X3794569Y-2255230D01*
G01X3794585Y-2258500D01*
G01X3794601Y-2261773D01*
G01X3794617Y-2265038D01*
G01X3794633Y-2268314D01*
G01X3794649Y-2271588D01*
G01X3794665Y-2274863D01*
G01X3794681Y-2278140D01*
G01X3794697Y-2281418D01*
G01X3794713Y-2284688D01*
G01X3794728Y-2287977D01*
G01X3794744Y-2291259D01*
G01X3794760Y-2294536D01*
G01X3794775Y-2297824D01*
G01X3794791Y-2301110D01*
G01X3794807Y-2304391D01*
G01X3794822Y-2307685D01*
G01X3794838Y-2310970D01*
G01X3794853Y-2314267D01*
G01X3794869Y-2317561D01*
G01X3794884Y-2320853D01*
G01X3794900Y-2324149D01*
G01X3794915Y-2327447D01*
G01X3794930Y-2330746D01*
G01X3794946Y-2334047D01*
G01X3794961Y-2337350D01*
G01X3794976Y-2340649D01*
G01X3794992Y-2343962D01*
G01X3795007Y-2347262D01*
G01X3795023Y-2350579D01*
G01X3795038Y-2353885D01*
G01X3795053Y-2357198D01*
G01X3795069Y-2360518D01*
G01X3795084Y-2363831D01*
G01X3795099Y-2367147D01*
G01X3795114Y-2370467D01*
G01X3795129Y-2373786D01*
G01X3795145Y-2377115D01*
G01X3795160Y-2380437D01*
G01X3795175Y-2383767D01*
G01X3795191Y-2387097D01*
G01X3795206Y-2390425D01*
G01X3795221Y-2393761D01*
G01X3795237Y-2397096D01*
G01X3795252Y-2400433D01*
G01X3795267Y-2403772D01*
G01X3795283Y-2407113D01*
G01X3795298Y-2410451D01*
G01X3795313Y-2413802D01*
G01X3795328Y-2417149D01*
G01X3795344Y-2420496D01*
G01X3795359Y-2423848D01*
G01X3795374Y-2427207D01*
G01X3795390Y-2430554D01*
G01X3795405Y-2433921D01*
G01X3795421Y-2437275D01*
G01X3795436Y-2440641D01*
G01X3795452Y-2444005D01*
G01X3795467Y-2447370D01*
G01X3795483Y-2450744D01*
G01X3795498Y-2454119D01*
G01X3795514Y-2457487D01*
G01X3795529Y-2460863D01*
G01X3795544Y-2464240D01*
G01X3795560Y-2467628D01*
G01X3795576Y-2471009D01*
G01X3795591Y-2474398D01*
G01X3795607Y-2477786D01*
G01X3795623Y-2481174D01*
G01X3795639Y-2484564D01*
G01X3795654Y-2487965D01*
G01X3795670Y-2491361D01*
G01X3795686Y-2494764D01*
G01X3795702Y-2498168D01*
G01X3795718Y-2501573D01*
G01X3795734Y-2504982D01*
G01X3795750Y-2508393D01*
G01X3795766Y-2511807D01*
G01X3795782Y-2515226D01*
G01X3795798Y-2518642D01*
G01X3795815Y-2522066D01*
G01X3795831Y-2525494D01*
G01X3795847Y-2528918D01*
G01X3795864Y-2532348D01*
G01X3795880Y-2535781D01*
G01X3795896Y-2539217D01*
G01X3795913Y-2542660D01*
G01X3795929Y-2546096D01*
G01X3795946Y-2549547D01*
G01X3795962Y-2552992D01*
G01X3795979Y-2556444D01*
G01X3795996Y-2559897D01*
G01X3796013Y-2563352D01*
G01X3796030Y-2566811D01*
G01X3796047Y-2570272D01*
G01X3796064Y-2573737D01*
G01X3796081Y-2577207D01*
G01X3796098Y-2580677D01*
G01X3796115Y-2584151D01*
G01X3796132Y-2587628D01*
G01X3796150Y-2591107D01*
G01X3796167Y-2594592D01*
G01X3796184Y-2598081D01*
G01X3796202Y-2601570D01*
G01X3796219Y-2605060D01*
G01X3796237Y-2608558D01*
G01X3796255Y-2612059D01*
G01X3796273Y-2615561D01*
G01X3796291Y-2619066D01*
G01X3796309Y-2622576D01*
G01X3796327Y-2626088D01*
G01X3796345Y-2629603D01*
G01X3796363Y-2633121D01*
G01X3796381Y-2636640D01*
G01X3796400Y-2640173D01*
G01X3796418Y-2643701D01*
G01X3796437Y-2647230D01*
G01X3796455Y-2650770D01*
G01X3796474Y-2654309D01*
G01X3796493Y-2657848D01*
G01X3796512Y-2661396D01*
G01X3796531Y-2664948D01*
G01X3796550Y-2668500D01*
G01X3796569Y-2672056D01*
G01X3796588Y-2675621D01*
G01X3796608Y-2679183D01*
G01X3796627Y-2682742D01*
G01X3796647Y-2686302D01*
G01X3796667Y-2689849D01*
G01X3796686Y-2693385D01*
G01X3796706Y-2696924D01*
G01X3796726Y-2700451D01*
G01X3796746Y-2703979D01*
G01X3796766Y-2707495D01*
G01X3796786Y-2711001D01*
G01X3796806Y-2714511D01*
G01X3796826Y-2718007D01*
G01X3796846Y-2721505D01*
G01X3796867Y-2724992D01*
G01X3796888Y-2728472D01*
G01X3796908Y-2731947D01*
G01X3796929Y-2735415D01*
G01X3796949Y-2738878D01*
G01X3796970Y-2742339D01*
G01X3796991Y-2745787D01*
G01X3797012Y-2749231D01*
G01X3797033Y-2752669D01*
G01X3797054Y-2756101D01*
G01X3797075Y-2759533D01*
G01X3797096Y-2762950D01*
G01X3797118Y-2766363D01*
G01X3797139Y-2769774D01*
G01X3797160Y-2773173D01*
G01X3797182Y-2776574D01*
G01X3797203Y-2779967D01*
G01X3797225Y-2783349D01*
G01X3797247Y-2786727D01*
G01X3797268Y-2790104D01*
G01X3797290Y-2793471D01*
G01X3797312Y-2796834D01*
G01X3797334Y-2800192D01*
G01X3797356Y-2803550D01*
G01X3797378Y-2806897D01*
G01X3797400Y-2810234D01*
G01X3797422Y-2813577D01*
G01X3797444Y-2816907D01*
G01X3797466Y-2820235D01*
G01X3797489Y-2823561D01*
G01X3797511Y-2826880D01*
G01X3797534Y-2830198D01*
G01X3797557Y-2833508D01*
G01X3797579Y-2836814D01*
G01X3797602Y-2840118D01*
G01X3797624Y-2843416D01*
G01X3797647Y-2846710D01*
G01X3797671Y-2850005D01*
G01X3797694Y-2853288D01*
G01X3797717Y-2856571D01*
G01X3797740Y-2859847D01*
G01X3797763Y-2863122D01*
G01X3797786Y-2866402D01*
G01X3797810Y-2869670D01*
G01X3797833Y-2872930D01*
G01X3797857Y-2876199D01*
G01X3797880Y-2879456D01*
G01X3797903Y-2882712D01*
G01X3797928Y-2885970D01*
G01X3797951Y-2889217D01*
G01X3797975Y-2892462D01*
G01X3797999Y-2895715D01*
G01X3798023Y-2898956D01*
G01X3798047Y-2902188D01*
G01X3798071Y-2905435D01*
G01X3798096Y-2908665D01*
G01X3798120Y-2911897D01*
G01X3798144Y-2915136D01*
G01X3798169Y-2918356D01*
G01X3798193Y-2921591D01*
G01X3798218Y-2924815D01*
G01X3798242Y-2928033D01*
G01X3798267Y-2931259D01*
G01X3798292Y-2934479D01*
G01X3798317Y-2937697D01*
G01X3798342Y-2940916D01*
G01X3798367Y-2944131D01*
G01X3798392Y-2947345D01*
G01X3798417Y-2950558D01*
G01X3798442Y-2953769D01*
G01X3798467Y-2956983D01*
G01X3798493Y-2960198D01*
G01X3798519Y-2963401D01*
G01X3798544Y-2966609D01*
G01X3798570Y-2969823D01*
G01X3798596Y-2973026D01*
G01X3798621Y-2976144D01*
G01X3798645Y-2979240D01*
G01X3798669Y-2982333D01*
G01X3798694Y-2985418D01*
G01X3798717Y-2988476D01*
G01X3798740Y-2991535D01*
G01X3798763Y-2994586D01*
G01X3798786Y-2997617D01*
G01X3798808Y-3000633D01*
G01X3798830Y-3003655D01*
G01X3798852Y-3006663D01*
G01X3798873Y-3009654D01*
G01X3798894Y-3012644D01*
G01X3798914Y-3015621D01*
G01X3798934Y-3018590D01*
G01X3798954Y-3021556D01*
G01X3798974Y-3024506D01*
G01X3798993Y-3027449D01*
G01X3799012Y-3030391D01*
G01X3799030Y-3033328D01*
G01X3799048Y-3036250D01*
G01X3799066Y-3039170D01*
G01X3799083Y-3042074D01*
G01X3799100Y-3044972D01*
G01X3799117Y-3047868D01*
G01X3799133Y-3050747D01*
G01X3799148Y-3053618D01*
G01X3799163Y-3056490D01*
G01X3799178Y-3059351D01*
G01X3799193Y-3062206D01*
G01X3799207Y-3065043D01*
G01X3799220Y-3067882D01*
G01X3799234Y-3070709D01*
G01X3799246Y-3073521D01*
G01X3799259Y-3076338D01*
G01X3799271Y-3079144D01*
G01X3799282Y-3081930D01*
G01X3799293Y-3084728D01*
G01X3799304Y-3087513D01*
G01X3799313Y-3090277D01*
G01X3799323Y-3093051D01*
G01X3799332Y-3095805D01*
G01X3799341Y-3098549D01*
G01X3799349Y-3101298D01*
G01X3799356Y-3104027D01*
G01X3799363Y-3106761D01*
G01X3799370Y-3109482D01*
G01X3799377Y-3112201D01*
G01X3799382Y-3114898D01*
G01X3799387Y-3117593D01*
G01X3799392Y-3120290D01*
G01X3799396Y-3122972D01*
G01X3799399Y-3125646D01*
G01X3799402Y-3128322D01*
G01X3799405Y-3130979D01*
G01X3799407Y-3133642D01*
G01X3799408Y-3136277D01*
G01X3799409Y-3138930D01*
G01X3799410Y-3141555D01*
G01X3799409Y-3144190D01*
G01X3799409Y-3146818D01*
G01X3799407Y-3149426D01*
G01X3799405Y-3152041D01*
G01X3799403Y-3154636D01*
G01X3799400Y-3157227D01*
G01X3799396Y-3159822D01*
G01X3799392Y-3162393D01*
G01X3799387Y-3164975D01*
G01X3799381Y-3167537D01*
G01X3799376Y-3170105D01*
G01X3799369Y-3172650D01*
G01X3799362Y-3175202D01*
G01X3799354Y-3177741D01*
G01X3799345Y-3180271D01*
G01X3799336Y-3182804D01*
G01X3799327Y-3185331D01*
G01X3799316Y-3187842D01*
G01X3799305Y-3190349D01*
G01X3799294Y-3192857D01*
G01X3799281Y-3195346D01*
G01X3799268Y-3197846D01*
G01X3799255Y-3200325D01*
G01X3799240Y-3202802D01*
G01X3799225Y-3205277D01*
G01X3799210Y-3207749D01*
G01X3799194Y-3210198D01*
G01X3799177Y-3212658D01*
G01X3799159Y-3215109D01*
G01X3799141Y-3217551D01*
G01X3799122Y-3219983D01*
G01X3799102Y-3222420D01*
G01X3799082Y-3224841D01*
G01X3799061Y-3227260D01*
G01X3799039Y-3229676D01*
G01X3799017Y-3232087D01*
G01X3798993Y-3234482D01*
G01X3798969Y-3236882D01*
G01X3798945Y-3239277D01*
G01X3798919Y-3241658D01*
G01X3798893Y-3244042D01*
G01X3798866Y-3246416D01*
G01X3798838Y-3248776D01*
G01X3798810Y-3251137D01*
G01X3798781Y-3253492D01*
G01X3798751Y-3255834D01*
G01X3798721Y-3258173D01*
G01X3798690Y-3260508D01*
G01X3798657Y-3262836D01*
G01X3798625Y-3265159D01*
G01X3798591Y-3267480D01*
G01X3798557Y-3269791D01*
G01X3798522Y-3272093D01*
G01X3798487Y-3274401D01*
G01X3798450Y-3276692D01*
G01X3798413Y-3278972D01*
G01X3798375Y-3281268D01*
G01X3798336Y-3283543D01*
G01X3798297Y-3285811D01*
G01X3798257Y-3288090D01*
G01X3798216Y-3290341D01*
G01X3798174Y-3292601D01*
G01X3798132Y-3294852D01*
G01X3798089Y-3297102D01*
G01X3798045Y-3299342D01*
G01X3798001Y-3301573D01*
G01X3797955Y-3303807D01*
G01X3797909Y-3306027D01*
G01X3797862Y-3308251D01*
G01X3797815Y-3310465D01*
G01X3797767Y-3312674D01*
G01X3797718Y-3314878D01*
G01X3797668Y-3317077D01*
G01X3797618Y-3319275D01*
G01X3797567Y-3321459D01*
G01X3797515Y-3323642D01*
G01X3797462Y-3325817D01*
G01X3797408Y-3327995D01*
G01X3797354Y-3330172D01*
G01X3797299Y-3332327D01*
G01X3797244Y-3334486D01*
G01X3797187Y-3336644D01*
G01X3797130Y-3338793D01*
G01X3797072Y-3340937D01*
G01X3797014Y-3343066D01*
G01X3796954Y-3345215D01*
G01X3796894Y-3347340D01*
G01X3796834Y-3349464D01*
G01X3796772Y-3351579D01*
G01X3796709Y-3353698D01*
G01X3796647Y-3355812D01*
G01X3796583Y-3357916D01*
G01X3796518Y-3360008D01*
G01X3796453Y-3362115D01*
G01X3796387Y-3364197D01*
G01X3796321Y-3366286D01*
G01X3796253Y-3368359D01*
G01X3796185Y-3370443D01*
G01X3796116Y-3372518D01*
G01X3796047Y-3374576D01*
G01X3795976Y-3376646D01*
G01X3795905Y-3378698D01*
G01X3795834Y-3380750D01*
G01X3795761Y-3382798D01*
G01X3795687Y-3384836D01*
G01X3795613Y-3386882D01*
G01X3795539Y-3388911D01*
G01X3795463Y-3390940D01*
G01X3795387Y-3392968D01*
G01X3795310Y-3394987D01*
G01X3795232Y-3396998D01*
G01X3795154Y-3399017D01*
G01X3795075Y-3401009D01*
G01X3794995Y-3403023D01*
G01X3794914Y-3405011D01*
G01X3794833Y-3407011D01*
G01X3794751Y-3408990D01*
G01X3794668Y-3410978D01*
G01X3794584Y-3412964D01*
G01X3794500Y-3414929D01*
G01X3794415Y-3416895D01*
G01X3794329Y-3418872D01*
G01X3794243Y-3420820D01*
G01X3794155Y-3422785D01*
G01X3794067Y-3424736D01*
G01X3793979Y-3426684D01*
G01X3793889Y-3428622D01*
G01X3793799Y-3430560D01*
G01X3793708Y-3432499D01*
G01X3793616Y-3434429D01*
G01X3793524Y-3436358D01*
G01X3793431Y-3438270D01*
G01X3793337Y-3440196D01*
G01X3793242Y-3442100D01*
G01X3793147Y-3444017D01*
G01X3793051Y-3445916D01*
G01X3792954Y-3447820D01*
G01X3792857Y-3449711D01*
G01X3792758Y-3451602D01*
G01X3792659Y-3453494D01*
G01X3792560Y-3455377D01*
G01X3792459Y-3457251D01*
G01X3792358Y-3459130D01*
G01X3792256Y-3461001D01*
G01X3792153Y-3462866D01*
G01X3792050Y-3464728D01*
G01X3791946Y-3466586D01*
G01X3791841Y-3468436D01*
G01X3791735Y-3470294D01*
G01X3791629Y-3472135D01*
G01X3791522Y-3473972D01*
G01X3791414Y-3475819D01*
G01X3791306Y-3477648D01*
G01X3791196Y-3479482D01*
G01X3791086Y-3481308D01*
G01X3790976Y-3483124D01*
G01X3790864Y-3484942D01*
G01X3790752Y-3486756D01*
G01X3790639Y-3488575D01*
G01X3790526Y-3490357D01*
G01X3790411Y-3492177D01*
G01X3790296Y-3493970D01*
G01X3790180Y-3495774D01*
G01X3790063Y-3497560D01*
G01X3789946Y-3499345D01*
G01X3789828Y-3501123D01*
G01X3789709Y-3502911D01*
G01X3789590Y-3504681D01*
G01X3789469Y-3506457D01*
G01X3789349Y-3508215D01*
G01X3789226Y-3509988D01*
G01X3789104Y-3511747D01*
G01X3788981Y-3513498D01*
G01X3788857Y-3515250D01*
G01X3788732Y-3517003D01*
G01X3788607Y-3518743D01*
G01X3788481Y-3520484D01*
G01X3788354Y-3522226D01*
G01X3788226Y-3523960D01*
G01X3788098Y-3525690D01*
G01X3787969Y-3527412D01*
G01X3787839Y-3529144D01*
G01X3787709Y-3530853D01*
G01X3787577Y-3532573D01*
G01X3787445Y-3534286D01*
G01X3787312Y-3535999D01*
G01X3787179Y-3537699D01*
G01X3787045Y-3539400D01*
G01X3786910Y-3541102D01*
G01X3786775Y-3542787D01*
G01X3786638Y-3544482D01*
G01X3786501Y-3546175D01*
G01X3786363Y-3547853D01*
G01X3786224Y-3549538D01*
G01X3786085Y-3551211D01*
G01X3785945Y-3552888D01*
G01X3785804Y-3554554D01*
G01X3785662Y-3556226D01*
G01X3785520Y-3557889D01*
G01X3785377Y-3559554D01*
G01X3785234Y-3561194D01*
G01X3785089Y-3562859D01*
G01X3784944Y-3564513D01*
G01X3784883Y-3565316D01*
G01X3784800Y-3566138D01*
G01X3784651Y-3567803D01*
G01X3784505Y-3569437D01*
G01X3784356Y-3571074D01*
G01X3784208Y-3572707D01*
G01X3784058Y-3574337D01*
G01X3783908Y-3575964D01*
G01X3783757Y-3577589D01*
G01X3783605Y-3579214D01*
G01X3783452Y-3580826D01*
G01X3783299Y-3582445D01*
G01X3783146Y-3584045D01*
G01X3782990Y-3585664D01*
G01X3782835Y-3587263D01*
G01X3782678Y-3588876D01*
G01X3782522Y-3590469D01*
G01X3782365Y-3592059D01*
G01X3782206Y-3593656D01*
G01X3782047Y-3595240D01*
G01X3781887Y-3596827D01*
G01X3781727Y-3598414D01*
G01X3781565Y-3599995D01*
G01X3781403Y-3601577D01*
G01X3781241Y-3603141D01*
G01X3781077Y-3604717D01*
G01X3780913Y-3606286D01*
G01X3780748Y-3607850D01*
G01X3780583Y-3609413D01*
G01X3780416Y-3610978D01*
G01X3780250Y-3612524D01*
G01X3780081Y-3614083D01*
G01X3779912Y-3615644D01*
G01X3779744Y-3617176D01*
G01X3779573Y-3618726D01*
G01X3779405Y-3620251D01*
G01X3779231Y-3621813D01*
G01X3779059Y-3623339D01*
G01X3778885Y-3624889D01*
G01X3778713Y-3626408D01*
G01X3778538Y-3627942D01*
G01X3778363Y-3629457D01*
G01X3778186Y-3630991D01*
G01X3778010Y-3632505D01*
G01X3777832Y-3634034D01*
G01X3777655Y-3635542D01*
G01X3777477Y-3637044D01*
G01X3777295Y-3638570D01*
G01X3777116Y-3640070D01*
G01X3776935Y-3641569D01*
G01X3776753Y-3643081D01*
G01X3776572Y-3644564D01*
G01X3776387Y-3646077D01*
G01X3776204Y-3647559D01*
G01X3776018Y-3649061D01*
G01X3775834Y-3650539D01*
G01X3775647Y-3652036D01*
G01X3775460Y-3653514D01*
G01X3775273Y-3654994D01*
G01X3775084Y-3656479D01*
G01X3774896Y-3657950D01*
G01X3774706Y-3659422D01*
G01X3774516Y-3660889D01*
G01X3774324Y-3662363D01*
G01X3774131Y-3663834D01*
G01X3773939Y-3665292D01*
G01X3773746Y-3666754D01*
G01X3773551Y-3668219D01*
G01X3773357Y-3669669D01*
G01X3773160Y-3671130D01*
G01X3772965Y-3672576D01*
G01X3772767Y-3674031D01*
G01X3772570Y-3675473D01*
G01X3772370Y-3676925D01*
G01X3772172Y-3678361D01*
G01X3771971Y-3679808D01*
G01X3771771Y-3681240D01*
G01X3771569Y-3682682D01*
G01X3771367Y-3684116D01*
G01X3771164Y-3685542D01*
G01X3770960Y-3686978D01*
G01X3770755Y-3688405D01*
G01X3770551Y-3689824D01*
G01X3770345Y-3691244D01*
G01X3770138Y-3692673D01*
G01X3769933Y-3694077D01*
G01X3769725Y-3695494D01*
G01X3769517Y-3696899D01*
G01X3769306Y-3698319D01*
G01X3769097Y-3699724D01*
G01X3768888Y-3701121D01*
G01X3768676Y-3702523D01*
G01X3768465Y-3703920D01*
G01X3768251Y-3705323D01*
G01X3768039Y-3706711D01*
G01X3767825Y-3708104D01*
G01X3767609Y-3709499D01*
G01X3767394Y-3710887D01*
G01X3767177Y-3712278D01*
G01X3766963Y-3713643D01*
G01X3766744Y-3715035D01*
G01X3766525Y-3716420D01*
G01X3766309Y-3717771D01*
G01X3766086Y-3719170D01*
G01X3765867Y-3720531D01*
G01X3765644Y-3721913D01*
G01X3765424Y-3723268D01*
G01X3765201Y-3724634D01*
G01X3764977Y-3726004D01*
G01X3764753Y-3727365D01*
G01X3764527Y-3728732D01*
G01X3764303Y-3730082D01*
G01X3764077Y-3731432D01*
G01X3763849Y-3732790D01*
G01X3763622Y-3734136D01*
G01X3763392Y-3735490D01*
G01X3763164Y-3736831D01*
G01X3762933Y-3738183D01*
G01X3762703Y-3739520D01*
G01X3762471Y-3740860D01*
G01X3762240Y-3742193D01*
G01X3762005Y-3743537D01*
G01X3761771Y-3744871D01*
G01X3761537Y-3746204D01*
G01X3761301Y-3747534D01*
G01X3761066Y-3748858D01*
G01X3760830Y-3750180D01*
G01X3760590Y-3751517D01*
G01X3760353Y-3752833D01*
G01X3760114Y-3754149D01*
G01X3759873Y-3755475D01*
G01X3759632Y-3756791D01*
G01X3759392Y-3758101D01*
G01X3759150Y-3759409D01*
G01X3758906Y-3760728D01*
G01X3758663Y-3762031D01*
G01X3758416Y-3763351D01*
G01X3758173Y-3764639D01*
G01X3757926Y-3765950D01*
G01X3757679Y-3767247D01*
G01X3757430Y-3768560D01*
G01X3757184Y-3769841D01*
G01X3756933Y-3771144D01*
G01X3756684Y-3772434D01*
G01X3756432Y-3773734D01*
G01X3756181Y-3775019D01*
G01X3755928Y-3776311D01*
G01X3755676Y-3777591D01*
G01X3755421Y-3778881D01*
G01X3755165Y-3780170D01*
G01X3754911Y-3781442D01*
G01X3754654Y-3782723D01*
G01X3754396Y-3784003D01*
G01X3754139Y-3785278D01*
G01X3753878Y-3786564D01*
G01X3753621Y-3787821D01*
G01X3753359Y-3789102D01*
G01X3753098Y-3790367D01*
G01X3752835Y-3791637D01*
G01X3752574Y-3792894D01*
G01X3752308Y-3794172D01*
G01X3752044Y-3795433D01*
G01X3751780Y-3796684D01*
G01X3751511Y-3797957D01*
G01X3751247Y-3799201D01*
G01X3750976Y-3800472D01*
G01X3750709Y-3801716D01*
G01X3750438Y-3802980D01*
G01X3750169Y-3804220D01*
G01X3749897Y-3805475D01*
G01X3749625Y-3806726D01*
G01X3749351Y-3807976D01*
G01X3749079Y-3809212D01*
G01X3748803Y-3810465D01*
G01X3748528Y-3811705D01*
G01X3748252Y-3812943D01*
G01X3747973Y-3814192D01*
G01X3747698Y-3815419D01*
G01X3747419Y-3816655D01*
G01X3747136Y-3817906D01*
G01X3746859Y-3819124D01*
G01X3746577Y-3820359D01*
G01X3746293Y-3821594D01*
G01X3746011Y-3822821D01*
G01X3745726Y-3824052D01*
G01X3745441Y-3825282D01*
G01X3745158Y-3826492D01*
G01X3744867Y-3827739D01*
G01X3744582Y-3828948D01*
G01X3744294Y-3830170D01*
G01X3744006Y-3831383D01*
G01X3743712Y-3832618D01*
G01X3743423Y-3833825D01*
G01X3743130Y-3835047D01*
G01X3742840Y-3836251D01*
G01X3742544Y-3837476D01*
G01X3742253Y-3838672D01*
G01X3741953Y-3839901D01*
G01X3741659Y-3841101D01*
G01X3741362Y-3842307D01*
G01X3741062Y-3843525D01*
G01X3740765Y-3844723D01*
G01X3740464Y-3845932D01*
G01X3740164Y-3847133D01*
G01X3739862Y-3848334D01*
G01X3739560Y-3849533D01*
G01X3739255Y-3850742D01*
G01X3738954Y-3851927D01*
G01X3738654Y-3853102D01*
G01X3738340Y-3854330D01*
G01X3738033Y-3855525D01*
G01X3737725Y-3856717D01*
G01X3737413Y-3857925D01*
G01X3737103Y-3859121D01*
G01X3736786Y-3860339D01*
G01X3736470Y-3861550D01*
G01X3736146Y-3862787D01*
G01X3735823Y-3864015D01*
G01X3735493Y-3865267D01*
G01X3735168Y-3866496D01*
G01X3734832Y-3867760D01*
G01X3734497Y-3869015D01*
G01X3734158Y-3870285D01*
G01X3733817Y-3871553D01*
G01X3733474Y-3872826D01*
G01X3733123Y-3874124D01*
G01X3732775Y-3875401D01*
G01X3732419Y-3876703D01*
G01X3732059Y-3878020D01*
G01X3731701Y-3879319D01*
G01X3731336Y-3880637D01*
G01X3730969Y-3881959D01*
G01X3730598Y-3883285D01*
G01X3730222Y-3884627D01*
G01X3729843Y-3885970D01*
G01X3729460Y-3887326D01*
G01X3729077Y-3888673D01*
G01X3728685Y-3890044D01*
G01X3728294Y-3891406D01*
G01X3727898Y-3892776D01*
G01X3727496Y-3894164D01*
G01X3727090Y-3895558D01*
G01X3726682Y-3896950D01*
G01X3726271Y-3898344D01*
G01X3725853Y-3899756D01*
G01X3725431Y-3901175D01*
G01X3725007Y-3902592D01*
G01X3724579Y-3904015D01*
G01X3724146Y-3905451D01*
G01X3723708Y-3906890D01*
G01X3723265Y-3908341D01*
G01X3722820Y-3909790D01*
G01X3722369Y-3911250D01*
G01X3721914Y-3912718D01*
G01X3721455Y-3914187D01*
G01X3720992Y-3915660D01*
G01X3720521Y-3917155D01*
G01X3720049Y-3918643D01*
G01X3719572Y-3920135D01*
G01X3719086Y-3921651D01*
G01X3718600Y-3923153D01*
G01X3718106Y-3924671D01*
G01X3717602Y-3926212D01*
G01X3717094Y-3927756D01*
G01X3716579Y-3929313D01*
G01X3716060Y-3930871D01*
G01X3715534Y-3932442D01*
G01X3715003Y-3934019D01*
G01X3714466Y-3935603D01*
G01X3713922Y-3937203D01*
G01X3713373Y-3938806D01*
G01X3712818Y-3940417D01*
G01X3712262Y-3942023D01*
G01X3711694Y-3943657D01*
G01X3711126Y-3945281D01*
G01X3710863Y-3946065D01*
G01X3710570Y-3946861D01*
G01X3709972Y-3948553D01*
G01X3709389Y-3950195D01*
G01X3708801Y-3951841D01*
G01X3708205Y-3953500D01*
G01X3707609Y-3955153D01*
G01X3707007Y-3956811D01*
G01X3706400Y-3958476D01*
G01X3705791Y-3960139D01*
G01X3705174Y-3961813D01*
G01X3704556Y-3963482D01*
G01X3703935Y-3965151D01*
G01X3703307Y-3966828D01*
G01X3702676Y-3968509D01*
G01X3702045Y-3970176D01*
G01X3701405Y-3971861D01*
G01X3700766Y-3973535D01*
G01X3700120Y-3975220D01*
G01X3699476Y-3976890D01*
G01X3698825Y-3978567D01*
G01X3698172Y-3980243D01*
G01X3697868Y-3981051D01*
G01X3697537Y-3981863D01*
G01X3696856Y-3983593D01*
G01X3696196Y-3985258D01*
G01X3695533Y-3986924D01*
G01X3694867Y-3988588D01*
G01X3694198Y-3990251D01*
G01X3693524Y-3991916D01*
G01X3692835Y-3993610D01*
G01X3692105Y-3995394D01*
G01X3691357Y-3997212D01*
G01X3690598Y-3999048D01*
G01X3689821Y-4000916D01*
G01X3689026Y-4002818D01*
G01X3688223Y-4004728D01*
G01X3687403Y-4006669D01*
G01X3687016Y-4007623D01*
G01X3686598Y-4008563D01*
G01X3685728Y-4010599D01*
G01X3684874Y-4012587D01*
G01X3684010Y-4014587D01*
G01X3683137Y-4016600D01*
G01X3682256Y-4018616D01*
G01X3681369Y-4020635D01*
G01X3680472Y-4022667D01*
G01X3679570Y-4024695D01*
G01X3678655Y-4026742D01*
G01X3677729Y-4028803D01*
G01X3676793Y-4030875D01*
G01X3675847Y-4032956D01*
G01X3674888Y-4035053D01*
G01X3673917Y-4037167D01*
G01X3672939Y-4039281D01*
G01X3671946Y-4041417D01*
G01X3670975Y-4043496D01*
G01X3669929Y-4045722D01*
G01X3668906Y-4047883D01*
G01X3667869Y-4050066D01*
G01X3666822Y-4052256D01*
G01X3665761Y-4054464D01*
G01X3664693Y-4056673D01*
G01X3663612Y-4058897D01*
G01X3662516Y-4061138D01*
G01X3661411Y-4063389D01*
G01X3660295Y-4065646D01*
G01X3659166Y-4067918D01*
G01X3658029Y-4070192D01*
G01X3656873Y-4072494D01*
G01X3655715Y-4074785D01*
G01X3654535Y-4077108D01*
G01X3653350Y-4079429D01*
G01X3652152Y-4081761D01*
G01X3650942Y-4084104D01*
G01X3649718Y-4086462D01*
G01X3648484Y-4088824D01*
G01X3647236Y-4091200D01*
G01X3645979Y-4093582D01*
G01X3644708Y-4095976D01*
G01X3643423Y-4098383D01*
G01X3642131Y-4100789D01*
G01X3640820Y-4103219D01*
G01X3639501Y-4105651D01*
G01X3638169Y-4108092D01*
G01X3636826Y-4110539D01*
G01X3635467Y-4113003D01*
G01X3634097Y-4115472D01*
G01X3632715Y-4117950D01*
G01X3631321Y-4120437D01*
G01X3629911Y-4122937D01*
G01X3628495Y-4125435D01*
G01X3627059Y-4127955D01*
G01X3625607Y-4130487D01*
G01X3624148Y-4133020D01*
G01X3622672Y-4135567D01*
G01X3621187Y-4138117D01*
G01X3619687Y-4140679D01*
G01X3618177Y-4143242D01*
G01X3616652Y-4145817D01*
G01X3615113Y-4148402D01*
G01X3613564Y-4150991D01*
G01X3611999Y-4153590D01*
G01X3610426Y-4156189D01*
G01X3608834Y-4158806D01*
G01X3607233Y-4161424D01*
G01X3605619Y-4164048D01*
G01X3603988Y-4166685D01*
G01X3602347Y-4169324D01*
G01X3600693Y-4171970D01*
G01X3599026Y-4174622D01*
G01X3597342Y-4177287D01*
G01X3595648Y-4179953D01*
G01X3593940Y-4182626D01*
G01X3592216Y-4185310D01*
G01X3590485Y-4187990D01*
G01X3588736Y-4190684D01*
G01X3586971Y-4193387D01*
G01X3585198Y-4196087D01*
G01X3583408Y-4198798D01*
G01X3581601Y-4201523D01*
G01X3579788Y-4204238D01*
G01X3577954Y-4206972D01*
G01X3576113Y-4209700D01*
G01X3574251Y-4212446D01*
G01X3572380Y-4215189D01*
G01X3570492Y-4217942D01*
G01X3568593Y-4220696D01*
G01X3566676Y-4223461D01*
G01X3564750Y-4226224D01*
G01X3562805Y-4228999D01*
G01X3560846Y-4231778D01*
G01X3558878Y-4234555D01*
G01X3556890Y-4237346D01*
G01X3554890Y-4240138D01*
G01X3552877Y-4242932D01*
G01X3550845Y-4245737D01*
G01X3548803Y-4248540D01*
G01X3546745Y-4251351D01*
G01X3544670Y-4254168D01*
G01X3542585Y-4256985D01*
G01X3540485Y-4259806D01*
G01X3538371Y-4262628D01*
G01X3536254Y-4265440D01*
G01X3534119Y-4268259D01*
G01X3531977Y-4271071D01*
G01X3529818Y-4273889D01*
G01X3527652Y-4276701D01*
G01X3525476Y-4279511D01*
G01X3523285Y-4282325D01*
G01X3521090Y-4285127D01*
G01X3518878Y-4287936D01*
G01X3516657Y-4290741D01*
G01X3514430Y-4293538D01*
G01X3512191Y-4296336D01*
G01X3509939Y-4299133D01*
G01X3507683Y-4301920D01*
G01X3505415Y-4304707D01*
G01X3503134Y-4307495D01*
G01X3500850Y-4310272D01*
G01X3498557Y-4313045D01*
G01X3496252Y-4315816D01*
G01X3493938Y-4318582D01*
G01X3491619Y-4321340D01*
G01X3489287Y-4324099D01*
G01X3486950Y-4326849D01*
G01X3484609Y-4329588D01*
G01X3482255Y-4332327D01*
G01X3479891Y-4335064D01*
G01X3477529Y-4337782D01*
G01X3475152Y-4340503D01*
G01X3472767Y-4343219D01*
G01X3470381Y-4345921D01*
G01X3467985Y-4348619D01*
G01X3465582Y-4351309D01*
G01X3463175Y-4353990D01*
G01X3460760Y-4356665D01*
G01X3458337Y-4359334D01*
G01X3455910Y-4361991D01*
G01X3453480Y-4364638D01*
G01X3451039Y-4367281D01*
G01X3448594Y-4369915D01*
G01X3446149Y-4372532D01*
G01X3443695Y-4375145D01*
G01X3441234Y-4377750D01*
G01X3438775Y-4380339D01*
G01X3436304Y-4382925D01*
G01X3433833Y-4385497D01*
G01X3431363Y-4388054D01*
G01X3428880Y-4390609D01*
G01X3426399Y-4393148D01*
G01X3423913Y-4395678D01*
G01X3421425Y-4398197D01*
G01X3418933Y-4400704D01*
G01X3416432Y-4403208D01*
G01X3413934Y-4405694D01*
G01X3411433Y-4408169D01*
G01X3408925Y-4410636D01*
G01X3406412Y-4413096D01*
G01X3403902Y-4415538D01*
G01X3401384Y-4417975D01*
G01X3398864Y-4420399D01*
G01X3396337Y-4422816D01*
G01X3393811Y-4425219D01*
G01X3391279Y-4427614D01*
G01X3388746Y-4429997D01*
G01X3386212Y-4432367D01*
G01X3383676Y-4434726D01*
G01X3381135Y-4437075D01*
G01X3378588Y-4439417D01*
G01X3376044Y-4441742D01*
G01X3373494Y-4444060D01*
G01X3370942Y-4446367D01*
G01X3368384Y-4448664D01*
G01X3365826Y-4450948D01*
G01X3363263Y-4453224D01*
G01X3360694Y-4455492D01*
G01X3358127Y-4457745D01*
G01X3355550Y-4459994D01*
G01X3352978Y-4462224D01*
G01X3350397Y-4464449D01*
G01X3347811Y-4466665D01*
G01X3345224Y-4468869D01*
G01X3342635Y-4471062D01*
G01X3340035Y-4473250D01*
G01X3337440Y-4475421D01*
G01X3334831Y-4477591D01*
G01X3332229Y-4479742D01*
G01X3329612Y-4481893D01*
G01X3327014Y-4484015D01*
G01X3324428Y-4486114D01*
G01X3321859Y-4488186D01*
G01X3319293Y-4490244D01*
G01X3316744Y-4492275D01*
G01X3314206Y-4494286D01*
G01X3311671Y-4496281D01*
G01X3309149Y-4498255D01*
G01X3306627Y-4500216D01*
G01X3304118Y-4502155D01*
G01X3301606Y-4504083D01*
G01X3299101Y-4505996D01*
G01X3296594Y-4507899D01*
G01X3294090Y-4509787D01*
G01X3291588Y-4511665D01*
G01X3289093Y-4513525D01*
G01X3286599Y-4515373D01*
G01X3284102Y-4517214D01*
G01X3281619Y-4519032D01*
G01X3279130Y-4520843D01*
G01X3276637Y-4522646D01*
G01X3274153Y-4524431D01*
G01X3271663Y-4526209D01*
G01X3269175Y-4527974D01*
G01X3266685Y-4529728D01*
G01X3264196Y-4531471D01*
G01X3261697Y-4533208D01*
G01X3259196Y-4534935D01*
G01X3256693Y-4536652D01*
G01X3254185Y-4538360D01*
G01X3251672Y-4540060D01*
G01X3249154Y-4541751D01*
G01X3246623Y-4543439D01*
G01X3244091Y-4545116D01*
G01X3241550Y-4546787D01*
G01X3238996Y-4548455D01*
G01X3236439Y-4550113D01*
G01X3233865Y-4551769D01*
G01X3231291Y-4553415D01*
G01X3228697Y-4555061D01*
G01X3226092Y-4556702D01*
G01X3223481Y-4558334D01*
G01X3220851Y-4559968D01*
G01X3218206Y-4561598D01*
G01X3215553Y-4563222D01*
G01X3213100Y-4564712D01*
G01X3210653Y-4566186D01*
G01X3208204Y-4567649D01*
G01X3205733Y-4569113D01*
G01X3203254Y-4570570D01*
G01X3200772Y-4572016D01*
G01X3198267Y-4573464D01*
G01X3195750Y-4574907D01*
G01X3193225Y-4576343D01*
G01X3190688Y-4577773D01*
G01X3188139Y-4579199D01*
G01X3185576Y-4580621D01*
G01X3183001Y-4582037D01*
G01X3180421Y-4583445D01*
G01X3177824Y-4584850D01*
G01X3175209Y-4586254D01*
G01X3172596Y-4587645D01*
G01X3169965Y-4589034D01*
G01X3167316Y-4590421D01*
G01X3164667Y-4591796D01*
G01X3161996Y-4593172D01*
G01X3159325Y-4594536D01*
G01X3156635Y-4595899D01*
G01X3153933Y-4597256D01*
G01X3151226Y-4598605D01*
G01X3148505Y-4599950D01*
G01X3145768Y-4601291D01*
G01X3143029Y-4602622D01*
G01X3140270Y-4603952D01*
G01X3137509Y-4605271D01*
G01X3134731Y-4606588D01*
G01X3131942Y-4607899D01*
G01X3129145Y-4609202D01*
G01X3126337Y-4610501D01*
G01X3123518Y-4611793D01*
G01X3120685Y-4613080D01*
G01X3117844Y-4614360D01*
G01X3114998Y-4615632D01*
G01X3112133Y-4616902D01*
G01X3109257Y-4618165D01*
G01X3106381Y-4619418D01*
G01X3103485Y-4620668D01*
G01X3100579Y-4621913D01*
G01X3097641Y-4623160D01*
G01X3094625Y-4624430D01*
G01X3091586Y-4625698D01*
G01X3088517Y-4626968D01*
G01X3085437Y-4628231D01*
G01X3082332Y-4629494D01*
G01X3079198Y-4630757D01*
G01X3076051Y-4632015D01*
G01X3072871Y-4633275D01*
G01X3069677Y-4634529D01*
G01X3066452Y-4635784D01*
G01X3063211Y-4637035D01*
G01X3059938Y-4638287D01*
G01X3056651Y-4639533D01*
G01X3053330Y-4640781D01*
G01X3049997Y-4642022D01*
G01X3046632Y-4643264D01*
G01X3043241Y-4644504D01*
G01X3039835Y-4645739D01*
G01X3036396Y-4646975D01*
G01X3032935Y-4648208D01*
G01X3029454Y-4649436D01*
G01X3025944Y-4650664D01*
G01X3022410Y-4651888D01*
G01X3018855Y-4653109D01*
G01X3015270Y-4654329D01*
G01X3011665Y-4655545D01*
G01X3008029Y-4656760D01*
G01X3004375Y-4657970D01*
G01X3000688Y-4659179D01*
G01X2996984Y-4660383D01*
G01X2993245Y-4661587D01*
G01X2989490Y-4662785D01*
G01X2985704Y-4663982D01*
G01X2981891Y-4665176D01*
G01X2978056Y-4666365D01*
G01X2974199Y-4667550D01*
G01X2970306Y-4668735D01*
G01X2966391Y-4669916D01*
G01X2962454Y-4671092D01*
G01X2958484Y-4672266D01*
G01X2954491Y-4673436D01*
G01X2950470Y-4674603D01*
G01X2946430Y-4675764D01*
G01X2942352Y-4676925D01*
G01X2938255Y-4678080D01*
G01X2934124Y-4679233D01*
G01X2929973Y-4680381D01*
G01X2925790Y-4681526D01*
G01X2921582Y-4682667D01*
G01X2917349Y-4683803D01*
G01X2913082Y-4684937D01*
G01X2908795Y-4686066D01*
G01X2904473Y-4687192D01*
G01X2900132Y-4688311D01*
G01X2895757Y-4689428D01*
G01X2891354Y-4690542D01*
G01X2886923Y-4691650D01*
G01X2882467Y-4692754D01*
G01X2877979Y-4693854D01*
G01X2873465Y-4694950D01*
G01X2868922Y-4696041D01*
G01X2864352Y-4697127D01*
G01X2859759Y-4698208D01*
G01X2855173Y-4699281D01*
G01X2850602Y-4700340D01*
G01X2846029Y-4701391D01*
G01X2841441Y-4702434D01*
G01X2836824Y-4703473D01*
G01X2832157Y-4704512D01*
G01X2827436Y-4705549D01*
G01X2822628Y-4706594D01*
G01X2817736Y-4707642D01*
G01X2812733Y-4708701D01*
G01X2807605Y-4709773D01*
G01X2802343Y-4710858D01*
G01X2796922Y-4711962D01*
G01X2791336Y-4713085D01*
G01X2785566Y-4714230D01*
G01X2779591Y-4715402D01*
G01X2773410Y-4716600D01*
G01X2766994Y-4717830D01*
G01X2760313Y-4719095D01*
G01X2753353Y-4720396D01*
G01X2746121Y-4721729D01*
G01X2738586Y-4723095D01*
G01X2730739Y-4724495D01*
G01X2722552Y-4725929D01*
G01X2714021Y-4727398D01*
G01X2705114Y-4728904D01*
G01X2695817Y-4730446D01*
G01X2686122Y-4732023D01*
G01X2676000Y-4733640D01*
G01X2665445Y-4735294D01*
G01X2654454Y-4736981D01*
G01X2642994Y-4738701D01*
G01X2631040Y-4740453D01*
G01X2618583Y-4742233D01*
G01X2605583Y-4744042D01*
G01X2592036Y-4745876D01*
G01X2577899Y-4747737D01*
G01X2563170Y-4749619D01*
G01X2547785Y-4751525D01*
G01X2531740Y-4753450D01*
G01X2515002Y-4755397D01*
G01X2497580Y-4757358D01*
G01X2479448Y-4759335D01*
G01X2460597Y-4761323D01*
G01X2441026Y-4763320D01*
G01X2420713Y-4765324D01*
G01X2399648Y-4767332D01*
G01X2377829Y-4769342D01*
G01X2355231Y-4771352D01*
G01X2331857Y-4773358D01*
G01X2307683Y-4775359D01*
G01X2282424Y-4777375D01*
G01X2256170Y-4779403D01*
G01X2229053Y-4781432D01*
G01X2201006Y-4783465D01*
G01X2171946Y-4785509D01*
G01X2141801Y-4787569D01*
G01X2110496Y-4789648D01*
G01X2077956Y-4791753D01*
G01X2044107Y-4793887D01*
G01X2009271Y-4796030D01*
G01X1973965Y-4798137D01*
G01X1937842Y-4800221D01*
G01X1900853Y-4802282D01*
G01X1862957Y-4804320D01*
G01X1824106Y-4806333D01*
G01X1784258Y-4808320D01*
G01X1743373Y-4810280D01*
G01X1701612Y-4812195D01*
G01X1659002Y-4814059D01*
G01X1615616Y-4815869D01*
G01X1571516Y-4817623D01*
G01X1526775Y-4819317D01*
G01X1481461Y-4820950D01*
G01X1435646Y-4822518D01*
G01X1389397Y-4824018D01*
G01X1342786Y-4825449D01*
G01X1295882Y-4826807D01*
G01X1248754Y-4828090D01*
G01X1201472Y-4829296D01*
G01X1154054Y-4830423D01*
G01X1106452Y-4831482D01*
G01X1058717Y-4832474D01*
G01X1010885Y-4833403D01*
G01X962995Y-4834272D01*
G01X915084Y-4835083D01*
G01X867190Y-4835839D01*
G01X819349Y-4836543D01*
G01X771599Y-4837197D01*
G01X723978Y-4837806D01*
G01X676523Y-4838370D01*
G01X629271Y-4838894D01*
G01X582356Y-4839378D01*
G01X535920Y-4839817D01*
G01X489924Y-4840214D01*
G01X444409Y-4840568D01*
G01X399414Y-4840883D01*
G01X354979Y-4841158D01*
G01X311144Y-4841396D01*
G01X267950Y-4841598D01*
G01X225435Y-4841766D01*
G01X183641Y-4841900D01*
G01X142607Y-4842002D01*
G01X102374Y-4842074D01*
G01X62981Y-4842118D01*
G01X24475Y-4842133D01*
G01X-24482Y-4842133D01*
G01X-67689Y-4842114D01*
G01X-112030Y-4842059D01*
G01X-157444Y-4841967D01*
G01X-203859Y-4841836D01*
G01X-251203Y-4841665D01*
G01X-299403Y-4841451D01*
G01X-348388Y-4841193D01*
G01X-398085Y-4840889D01*
G01X-448423Y-4840537D01*
G01X-499329Y-4840135D01*
G01X-550730Y-4839681D01*
G01X-602556Y-4839174D01*
G01X-654967Y-4838614D01*
G01X-707770Y-4838003D01*
G01X-760889Y-4837337D01*
G01X-814259Y-4836614D01*
G01X-867815Y-4835828D01*
G01X-921492Y-4834976D01*
G01X-975225Y-4834054D01*
G01X-1028949Y-4833059D01*
G01X-1082598Y-4831985D01*
G01X-1136109Y-4830831D01*
G01X-1189408Y-4829590D01*
G01X-1242491Y-4828255D01*
G01X-1295376Y-4826821D01*
G01X-1347965Y-4825293D01*
G01X-1400155Y-4823675D01*
G01X-1451843Y-4821971D01*
G01X-1502929Y-4820185D01*
G01X-1553314Y-4818321D01*
G01X-1602886Y-4816383D01*
G01X-1651553Y-4814376D01*
G01X-1699212Y-4812303D01*
G01X-1745753Y-4810168D01*
G01X-1791408Y-4807969D01*
G01X-1836067Y-4805719D01*
G01X-1879677Y-4803425D01*
G01X-1922032Y-4801105D01*
G01X-1962913Y-4798778D01*
G01X-2002117Y-4796462D01*
G01X-2039865Y-4794151D01*
G01X-2077258Y-4791796D01*
G01X-2113486Y-4789449D01*
G01X-2148248Y-4787129D01*
G01X-2181764Y-4784822D01*
G01X-2214100Y-4782521D01*
G01X-2245298Y-4780223D01*
G01X-2275425Y-4777922D01*
G01X-2304463Y-4775620D01*
G01X-2332033Y-4773346D01*
G01X-2358338Y-4771087D01*
G01X-2383552Y-4768837D01*
G01X-2407733Y-4766598D01*
G01X-2430919Y-4764372D01*
G01X-2453138Y-4762160D01*
G01X-2474410Y-4759966D01*
G01X-2494764Y-4757789D01*
G01X-2514244Y-4755631D01*
G01X-2532858Y-4753494D01*
G01X-2550653Y-4751380D01*
G01X-2567657Y-4749288D01*
G01X-2583881Y-4747223D01*
G01X-2599372Y-4745184D01*
G01X-2614140Y-4743174D01*
G01X-2628232Y-4741193D01*
G01X-2641656Y-4739245D01*
G01X-2654458Y-4737329D01*
G01X-2666665Y-4735445D01*
G01X-2678295Y-4733599D01*
G01X-2689393Y-4731786D01*
G01X-2699971Y-4730013D01*
G01X-2710076Y-4728278D01*
G01X-2719732Y-4726580D01*
G01X-2728961Y-4724925D01*
G01X-2737810Y-4723309D01*
G01X-2746293Y-4721737D01*
G01X-2754454Y-4720206D01*
G01X-2762318Y-4718718D01*
G01X-2769849Y-4717285D01*
G01X-2776967Y-4715912D01*
G01X-2783756Y-4714585D01*
G01X-2790240Y-4713300D01*
G01X-2796461Y-4712049D01*
G01X-2802439Y-4710829D01*
G01X-2808219Y-4709632D01*
G01X-2813824Y-4708453D01*
G01X-2819295Y-4707287D01*
G01X-2824661Y-4706127D01*
G01X-2829955Y-4704968D01*
G01X-2835207Y-4703805D01*
G01X-2840456Y-4702631D01*
G01X-2845729Y-4701440D01*
G01X-2850988Y-4700240D01*
G01X-2856195Y-4699039D01*
G01X-2861370Y-4697830D01*
G01X-2866503Y-4696617D01*
G01X-2871608Y-4695397D01*
G01X-2876671Y-4694173D01*
G01X-2881707Y-4692941D01*
G01X-2886699Y-4691706D01*
G01X-2891659Y-4690465D01*
G01X-2896590Y-4689218D01*
G01X-2901478Y-4687967D01*
G01X-2906333Y-4686710D01*
G01X-2911160Y-4685446D01*
G01X-2915944Y-4684180D01*
G01X-2920701Y-4682907D01*
G01X-2925417Y-4681631D01*
G01X-2930106Y-4680348D01*
G01X-2934757Y-4679061D01*
G01X-2939372Y-4677770D01*
G01X-2943960Y-4676473D01*
G01X-2948507Y-4675173D01*
G01X-2953025Y-4673868D01*
G01X-2957513Y-4672557D01*
G01X-2961959Y-4671244D01*
G01X-2966375Y-4669927D01*
G01X-2970756Y-4668605D01*
G01X-2975100Y-4667282D01*
G01X-2979408Y-4665956D01*
G01X-2983682Y-4664626D01*
G01X-2987926Y-4663292D01*
G01X-2992134Y-4661955D01*
G01X-2996304Y-4660617D01*
G01X-3000446Y-4659273D01*
G01X-3004550Y-4657928D01*
G01X-3008630Y-4656577D01*
G01X-3012668Y-4655226D01*
G01X-3016687Y-4653868D01*
G01X-3020663Y-4652509D01*
G01X-3024610Y-4651147D01*
G01X-3028538Y-4649778D01*
G01X-3032424Y-4648409D01*
G01X-3036287Y-4647034D01*
G01X-3040116Y-4645657D01*
G01X-3043921Y-4644275D01*
G01X-3047695Y-4642890D01*
G01X-3051444Y-4641501D01*
G01X-3055161Y-4640110D01*
G01X-3058858Y-4638712D01*
G01X-3062518Y-4637314D01*
G01X-3066163Y-4635908D01*
G01X-3069774Y-4634501D01*
G01X-3073365Y-4633088D01*
G01X-3076926Y-4631673D01*
G01X-3080468Y-4630252D01*
G01X-3083980Y-4628829D01*
G01X-3087476Y-4627399D01*
G01X-3090940Y-4625968D01*
G01X-3094388Y-4624530D01*
G01X-3097806Y-4623091D01*
G01X-3101184Y-4621655D01*
G01X-3104527Y-4620221D01*
G01X-3107851Y-4618779D01*
G01X-3111170Y-4617326D01*
G01X-3114476Y-4615865D01*
G01X-3117770Y-4614395D01*
G01X-3121047Y-4612917D01*
G01X-3124317Y-4611429D01*
G01X-3127563Y-4609938D01*
G01X-3130804Y-4608435D01*
G01X-3134017Y-4606929D01*
G01X-3137221Y-4605414D01*
G01X-3140407Y-4603893D01*
G01X-3143566Y-4602370D01*
G01X-3146714Y-4600838D01*
G01X-3149833Y-4599305D01*
G01X-3152941Y-4597762D01*
G01X-3156014Y-4596221D01*
G01X-3159092Y-4594661D01*
G01X-3162155Y-4593092D01*
G01X-3165207Y-4591512D01*
G01X-3168257Y-4589919D01*
G01X-3171281Y-4588325D01*
G01X-3174290Y-4586723D01*
G01X-3177276Y-4585120D01*
G01X-3180237Y-4583515D01*
G01X-3183174Y-4581910D01*
G01X-3186071Y-4580313D01*
G01X-3188940Y-4578719D01*
G01X-3191760Y-4577138D01*
G01X-3194548Y-4575562D01*
G01X-3197290Y-4573999D01*
G01X-3199976Y-4572455D01*
G01X-3202615Y-4570925D01*
G01X-3205201Y-4569414D01*
G01X-3207724Y-4567926D01*
G01X-3210188Y-4566461D01*
G01X-3212580Y-4565025D01*
G01X-3214909Y-4563615D01*
G01X-3217367Y-4562113D01*
G01X-3219949Y-4560522D01*
G01X-3222585Y-4558885D01*
G01X-3225279Y-4557198D01*
G01X-3228010Y-4555476D01*
G01X-3230789Y-4553710D01*
G01X-3233602Y-4551910D01*
G01X-3236429Y-4550087D01*
G01X-3239285Y-4548232D01*
G01X-3242149Y-4546359D01*
G01X-3245023Y-4544465D01*
G01X-3247898Y-4542555D01*
G01X-3250757Y-4540642D01*
G01X-3253616Y-4538713D01*
G01X-3256444Y-4536790D01*
G01X-3259274Y-4534849D01*
G01X-3262112Y-4532888D01*
G01X-3264954Y-4530910D01*
G01X-3267808Y-4528908D01*
G01X-3270667Y-4526888D01*
G01X-3273526Y-4524854D01*
G01X-3276398Y-4522794D01*
G01X-3279267Y-4520722D01*
G01X-3282144Y-4518630D01*
G01X-3285022Y-4516521D01*
G01X-3287903Y-4514396D01*
G01X-3290789Y-4512251D01*
G01X-3293670Y-4510095D01*
G01X-3296562Y-4507916D01*
G01X-3299444Y-4505728D01*
G01X-3302331Y-4503522D01*
G01X-3305223Y-4501296D01*
G01X-3308105Y-4499063D01*
G01X-3310993Y-4496809D01*
G01X-3313873Y-4494545D01*
G01X-3316756Y-4492263D01*
G01X-3319634Y-4489970D01*
G01X-3322506Y-4487665D01*
G01X-3325376Y-4485346D01*
G01X-3328248Y-4483010D01*
G01X-3331120Y-4480656D01*
G01X-3334006Y-4478275D01*
G01X-3336885Y-4475884D01*
G01X-3339767Y-4473473D01*
G01X-3342652Y-4471045D01*
G01X-3345529Y-4468606D01*
G01X-3348411Y-4466146D01*
G01X-3351289Y-4463675D01*
G01X-3354167Y-4461187D01*
G01X-3357042Y-4458684D01*
G01X-3359919Y-4456164D01*
G01X-3362794Y-4453628D01*
G01X-3365664Y-4451081D01*
G01X-3368533Y-4448518D01*
G01X-3371403Y-4445937D01*
G01X-3374267Y-4443346D01*
G01X-3377125Y-4440742D01*
G01X-3379991Y-4438115D01*
G01X-3382844Y-4435483D01*
G01X-3385697Y-4432835D01*
G01X-3388548Y-4430171D01*
G01X-3391397Y-4427492D01*
G01X-3394236Y-4424805D01*
G01X-3397078Y-4422098D01*
G01X-3399914Y-4419381D01*
G01X-3402740Y-4416654D01*
G01X-3405569Y-4413909D01*
G01X-3408390Y-4411154D01*
G01X-3411204Y-4408388D01*
G01X-3414018Y-4405604D01*
G01X-3416824Y-4402811D01*
G01X-3419626Y-4400005D01*
G01X-3422423Y-4397186D01*
G01X-3425209Y-4394359D01*
G01X-3427998Y-4391513D01*
G01X-3430773Y-4388662D01*
G01X-3433547Y-4385794D01*
G01X-3436311Y-4382918D01*
G01X-3439068Y-4380032D01*
G01X-3441823Y-4377129D01*
G01X-3444571Y-4374215D01*
G01X-3447309Y-4371294D01*
G01X-3450045Y-4368355D01*
G01X-3452773Y-4365406D01*
G01X-3455492Y-4362449D01*
G01X-3458210Y-4359473D01*
G01X-3460918Y-4356491D01*
G01X-3463616Y-4353500D01*
G01X-3466314Y-4350491D01*
G01X-3468995Y-4347482D01*
G01X-3471675Y-4344457D01*
G01X-3474344Y-4341424D01*
G01X-3477003Y-4338385D01*
G01X-3479659Y-4335330D01*
G01X-3482295Y-4332279D01*
G01X-3484929Y-4329212D01*
G01X-3487559Y-4326132D01*
G01X-3490167Y-4323058D01*
G01X-3492774Y-4319968D01*
G01X-3495369Y-4316871D01*
G01X-3497948Y-4313776D01*
G01X-3500522Y-4310667D01*
G01X-3503085Y-4307554D01*
G01X-3505632Y-4304441D01*
G01X-3508174Y-4301314D01*
G01X-3510699Y-4298189D01*
G01X-3513211Y-4295063D01*
G01X-3515716Y-4291925D01*
G01X-3518206Y-4288787D01*
G01X-3520679Y-4285651D01*
G01X-3523144Y-4282505D01*
G01X-3525595Y-4279359D01*
G01X-3528029Y-4276214D01*
G01X-3530456Y-4273059D01*
G01X-3532862Y-4269911D01*
G01X-3535258Y-4266758D01*
G01X-3537639Y-4263603D01*
G01X-3540001Y-4260454D01*
G01X-3542354Y-4257298D01*
G01X-3544690Y-4254143D01*
G01X-3547005Y-4250998D01*
G01X-3549309Y-4247850D01*
G01X-3551586Y-4244718D01*
G01X-3553851Y-4241585D01*
G01X-3556097Y-4238458D01*
G01X-3558322Y-4235341D01*
G01X-3560528Y-4232233D01*
G01X-3562721Y-4229123D01*
G01X-3564892Y-4226027D01*
G01X-3567047Y-4222933D01*
G01X-3569183Y-4219850D01*
G01X-3571301Y-4216771D01*
G01X-3573404Y-4213699D01*
G01X-3575487Y-4210634D01*
G01X-3577550Y-4207580D01*
G01X-3579601Y-4204527D01*
G01X-3581635Y-4201480D01*
G01X-3583647Y-4198448D01*
G01X-3585647Y-4195415D01*
G01X-3587624Y-4192399D01*
G01X-3589587Y-4189385D01*
G01X-3591537Y-4186374D01*
G01X-3593466Y-4183377D01*
G01X-3595379Y-4180386D01*
G01X-3597277Y-4177400D01*
G01X-3599155Y-4174427D01*
G01X-3601020Y-4171458D01*
G01X-3602869Y-4168496D01*
G01X-3604701Y-4165544D01*
G01X-3606514Y-4162603D01*
G01X-3608316Y-4159662D01*
G01X-3610099Y-4156736D01*
G01X-3611867Y-4153817D01*
G01X-3613620Y-4150903D01*
G01X-3615355Y-4148002D01*
G01X-3617075Y-4145109D01*
G01X-3618784Y-4142216D01*
G01X-3620471Y-4139345D01*
G01X-3622147Y-4136473D01*
G01X-3623807Y-4133613D01*
G01X-3625452Y-4130760D01*
G01X-3627080Y-4127920D01*
G01X-3628697Y-4125082D01*
G01X-3630289Y-4122271D01*
G01X-3631869Y-4119467D01*
G01X-3633430Y-4116680D01*
G01X-3634969Y-4113914D01*
G01X-3636492Y-4111164D01*
G01X-3637996Y-4108431D01*
G01X-3639485Y-4105709D01*
G01X-3640953Y-4103010D01*
G01X-3642406Y-4100323D01*
G01X-3643845Y-4097645D01*
G01X-3645259Y-4094998D01*
G01X-3646663Y-4092355D01*
G01X-3648049Y-4089729D01*
G01X-3649417Y-4087120D01*
G01X-3650769Y-4084526D01*
G01X-3652108Y-4081942D01*
G01X-3653428Y-4079380D01*
G01X-3654737Y-4076822D01*
G01X-3656025Y-4074289D01*
G01X-3657303Y-4071759D01*
G01X-3658562Y-4069253D01*
G01X-3659811Y-4066749D01*
G01X-3661040Y-4064271D01*
G01X-3662260Y-4061794D01*
G01X-3663466Y-4059332D01*
G01X-3664654Y-4056890D01*
G01X-3665829Y-4054457D01*
G01X-3666995Y-4052030D01*
G01X-3668146Y-4049619D01*
G01X-3669281Y-4047223D01*
G01X-3670406Y-4044836D01*
G01X-3671519Y-4042458D01*
G01X-3672619Y-4040092D01*
G01X-3673708Y-4037736D01*
G01X-3674783Y-4035394D01*
G01X-3675847Y-4033061D01*
G01X-3676900Y-4030738D01*
G01X-3677942Y-4028422D01*
G01X-3678972Y-4026120D01*
G01X-3679993Y-4023824D01*
G01X-3681001Y-4021542D01*
G01X-3682002Y-4019263D01*
G01X-3682989Y-4016999D01*
G01X-3683968Y-4014741D01*
G01X-3684938Y-4012488D01*
G01X-3685895Y-4010252D01*
G01X-3686846Y-4008015D01*
G01X-3687786Y-4005791D01*
G01X-3688720Y-4003571D01*
G01X-3689642Y-4001362D01*
G01X-3690555Y-3999163D01*
G01X-3691464Y-3996961D01*
G01X-3692359Y-3994777D01*
G01X-3693252Y-3992589D01*
G01X-3694083Y-3990539D01*
G01X-3694910Y-3988487D01*
G01X-3695725Y-3986454D01*
G01X-3696529Y-3984434D01*
G01X-3697330Y-3982411D01*
G01X-3698117Y-3980413D01*
G01X-3698894Y-3978425D01*
G01X-3699667Y-3976438D01*
G01X-3700427Y-3974471D01*
G01X-3701181Y-3972508D01*
G01X-3701926Y-3970557D01*
G01X-3702660Y-3968624D01*
G01X-3703387Y-3966695D01*
G01X-3704107Y-3964776D01*
G01X-3704816Y-3962873D01*
G01X-3705519Y-3960973D01*
G01X-3706216Y-3959081D01*
G01X-3706900Y-3957209D01*
G01X-3707579Y-3955342D01*
G01X-3708250Y-3953485D01*
G01X-3708911Y-3951644D01*
G01X-3709565Y-3949811D01*
G01X-3710214Y-3947979D01*
G01X-3710851Y-3946172D01*
G01X-3711486Y-3944358D01*
G01X-3712111Y-3942563D01*
G01X-3712725Y-3940787D01*
G01X-3713341Y-3938996D01*
G01X-3713941Y-3937239D01*
G01X-3714536Y-3935485D01*
G01X-3715126Y-3933735D01*
G01X-3715711Y-3931992D01*
G01X-3716284Y-3930272D01*
G01X-3716850Y-3928561D01*
G01X-3717417Y-3926840D01*
G01X-3717971Y-3925145D01*
G01X-3718517Y-3923463D01*
G01X-3719062Y-3921777D01*
G01X-3719598Y-3920105D01*
G01X-3720131Y-3918436D01*
G01X-3720652Y-3916794D01*
G01X-3721169Y-3915150D01*
G01X-3721682Y-3913513D01*
G01X-3722185Y-3911896D01*
G01X-3722687Y-3910274D01*
G01X-3723182Y-3908665D01*
G01X-3723672Y-3907064D01*
G01X-3724154Y-3905478D01*
G01X-3724632Y-3903894D01*
G01X-3725103Y-3902326D01*
G01X-3725569Y-3900766D01*
G01X-3726032Y-3899207D01*
G01X-3726489Y-3897658D01*
G01X-3726939Y-3896124D01*
G01X-3727383Y-3894601D01*
G01X-3727829Y-3893067D01*
G01X-3728262Y-3891563D01*
G01X-3728696Y-3890054D01*
G01X-3729120Y-3888565D01*
G01X-3729545Y-3887071D01*
G01X-3729960Y-3885600D01*
G01X-3730376Y-3884120D01*
G01X-3730785Y-3882655D01*
G01X-3731189Y-3881203D01*
G01X-3731590Y-3879752D01*
G01X-3731988Y-3878310D01*
G01X-3732379Y-3876881D01*
G01X-3732765Y-3875463D01*
G01X-3733150Y-3874044D01*
G01X-3733535Y-3872622D01*
G01X-3733911Y-3871226D01*
G01X-3734283Y-3869835D01*
G01X-3734652Y-3868451D01*
G01X-3735012Y-3867096D01*
G01X-3735384Y-3865691D01*
G01X-3735744Y-3864328D01*
G01X-3736100Y-3862971D01*
G01X-3736453Y-3861622D01*
G01X-3736803Y-3860281D01*
G01X-3737153Y-3858933D01*
G01X-3737496Y-3857609D01*
G01X-3737835Y-3856295D01*
G01X-3738180Y-3854959D01*
G01X-3738517Y-3853642D01*
G01X-3738854Y-3852322D01*
G01X-3739190Y-3850999D01*
G01X-3739522Y-3849685D01*
G01X-3739861Y-3848340D01*
G01X-3740191Y-3847022D01*
G01X-3740526Y-3845679D01*
G01X-3740858Y-3844344D01*
G01X-3741187Y-3843014D01*
G01X-3741516Y-3841676D01*
G01X-3741843Y-3840340D01*
G01X-3742176Y-3838980D01*
G01X-3742500Y-3837645D01*
G01X-3742826Y-3836294D01*
G01X-3743148Y-3834954D01*
G01X-3743475Y-3833589D01*
G01X-3743798Y-3832235D01*
G01X-3744118Y-3830884D01*
G01X-3744442Y-3829514D01*
G01X-3744761Y-3828158D01*
G01X-3745079Y-3826799D01*
G01X-3745400Y-3825422D01*
G01X-3745716Y-3824058D01*
G01X-3746032Y-3822688D01*
G01X-3746346Y-3821321D01*
G01X-3746664Y-3819929D01*
G01X-3746975Y-3818563D01*
G01X-3747288Y-3817182D01*
G01X-3747601Y-3815795D01*
G01X-3747910Y-3814416D01*
G01X-3748220Y-3813029D01*
G01X-3748530Y-3811633D01*
G01X-3748838Y-3810242D01*
G01X-3749143Y-3808854D01*
G01X-3749450Y-3807453D01*
G01X-3749754Y-3806060D01*
G01X-3750059Y-3804653D01*
G01X-3750361Y-3803256D01*
G01X-3750665Y-3801839D01*
G01X-3750965Y-3800438D01*
G01X-3751265Y-3799028D01*
G01X-3751562Y-3797627D01*
G01X-3751864Y-3796194D01*
G01X-3752160Y-3794783D01*
G01X-3752458Y-3793359D01*
G01X-3752752Y-3791942D01*
G01X-3753046Y-3790519D01*
G01X-3753339Y-3789097D01*
G01X-3753632Y-3787664D01*
G01X-3753925Y-3786228D01*
G01X-3754213Y-3784804D01*
G01X-3754506Y-3783353D01*
G01X-3754793Y-3781926D01*
G01X-3755079Y-3780490D01*
G01X-3755370Y-3779031D01*
G01X-3755653Y-3777598D01*
G01X-3755937Y-3776156D01*
G01X-3756224Y-3774690D01*
G01X-3756503Y-3773254D01*
G01X-3756789Y-3771783D01*
G01X-3757068Y-3770338D01*
G01X-3757348Y-3768878D01*
G01X-3757628Y-3767412D01*
G01X-3757903Y-3765958D01*
G01X-3758184Y-3764475D01*
G01X-3758458Y-3763018D01*
G01X-3758734Y-3761542D01*
G01X-3759009Y-3760068D01*
G01X-3759281Y-3758598D01*
G01X-3759554Y-3757115D01*
G01X-3759825Y-3755639D01*
G01X-3760096Y-3754151D01*
G01X-3760365Y-3752666D01*
G01X-3760633Y-3751184D01*
G01X-3760901Y-3749689D01*
G01X-3761165Y-3748207D01*
G01X-3761434Y-3746697D01*
G01X-3761698Y-3745205D01*
G01X-3761959Y-3743716D01*
G01X-3762224Y-3742199D01*
G01X-3762484Y-3740705D01*
G01X-3762746Y-3739193D01*
G01X-3763005Y-3737684D01*
G01X-3763262Y-3736184D01*
G01X-3763521Y-3734659D01*
G01X-3763778Y-3733143D01*
G01X-3764034Y-3731625D01*
G01X-3764284Y-3730133D01*
G01X-3764543Y-3728580D01*
G01X-3764795Y-3727055D01*
G01X-3765046Y-3725531D01*
G01X-3765298Y-3723997D01*
G01X-3765546Y-3722474D01*
G01X-3765797Y-3720928D01*
G01X-3766041Y-3719414D01*
G01X-3766293Y-3717845D01*
G01X-3766537Y-3716314D01*
G01X-3766782Y-3714768D01*
G01X-3767027Y-3713215D01*
G01X-3767270Y-3711666D01*
G01X-3767511Y-3710119D01*
G01X-3767752Y-3708565D01*
G01X-3767993Y-3707002D01*
G01X-3768231Y-3705449D01*
G01X-3768469Y-3703886D01*
G01X-3768706Y-3702322D01*
G01X-3768943Y-3700750D01*
G01X-3769174Y-3699210D01*
G01X-3769412Y-3697610D01*
G01X-3769643Y-3696046D01*
G01X-3769877Y-3694459D01*
G01X-3770108Y-3692886D01*
G01X-3770338Y-3691305D01*
G01X-3770564Y-3689744D01*
G01X-3770796Y-3688130D01*
G01X-3771022Y-3686547D01*
G01X-3771251Y-3684944D01*
G01X-3771475Y-3683353D01*
G01X-3771701Y-3681748D01*
G01X-3771925Y-3680147D01*
G01X-3772149Y-3678536D01*
G01X-3772371Y-3676928D01*
G01X-3772591Y-3675322D01*
G01X-3772812Y-3673702D01*
G01X-3773033Y-3672074D01*
G01X-3773251Y-3670454D01*
G01X-3773467Y-3668840D01*
G01X-3773686Y-3667199D01*
G01X-3773901Y-3665573D01*
G01X-3774117Y-3663935D01*
G01X-3774331Y-3662298D01*
G01X-3774544Y-3660659D01*
G01X-3774757Y-3659011D01*
G01X-3774967Y-3657369D01*
G01X-3775179Y-3655710D01*
G01X-3775389Y-3654057D01*
G01X-3775597Y-3652401D01*
G01X-3775804Y-3650747D01*
G01X-3776012Y-3649073D01*
G01X-3776219Y-3647402D01*
G01X-3776421Y-3645761D01*
G01X-3776628Y-3644060D01*
G01X-3776831Y-3642388D01*
G01X-3777035Y-3640693D01*
G01X-3777236Y-3639015D01*
G01X-3777437Y-3637328D01*
G01X-3777636Y-3635638D01*
G01X-3777835Y-3633944D01*
G01X-3778033Y-3632241D01*
G01X-3778230Y-3630540D01*
G01X-3778427Y-3628826D01*
G01X-3778619Y-3627146D01*
G01X-3778817Y-3625406D01*
G01X-3779010Y-3623691D01*
G01X-3779202Y-3621971D01*
G01X-3779394Y-3620249D01*
G01X-3779584Y-3618523D01*
G01X-3779775Y-3616783D01*
G01X-3779964Y-3615049D01*
G01X-3780152Y-3613312D01*
G01X-3780339Y-3611571D01*
G01X-3780523Y-3609848D01*
G01X-3780711Y-3608072D01*
G01X-3780894Y-3606324D01*
G01X-3781079Y-3604558D01*
G01X-3781261Y-3602798D01*
G01X-3781444Y-3601029D01*
G01X-3781624Y-3599266D01*
G01X-3781804Y-3597489D01*
G01X-3781984Y-3595709D01*
G01X-3782161Y-3593934D01*
G01X-3782339Y-3592146D01*
G01X-3782515Y-3590358D01*
G01X-3782691Y-3588562D01*
G01X-3782865Y-3586767D01*
G01X-3783038Y-3584972D01*
G01X-3783211Y-3583159D01*
G01X-3783383Y-3581352D01*
G01X-3783553Y-3579544D01*
G01X-3783725Y-3577715D01*
G01X-3783893Y-3575900D01*
G01X-3784061Y-3574076D01*
G01X-3784227Y-3572252D01*
G01X-3784395Y-3570407D01*
G01X-3784559Y-3568579D01*
G01X-3784725Y-3566725D01*
G01X-3784888Y-3564885D01*
G01X-3785050Y-3563040D01*
G01X-3785213Y-3561178D01*
G01X-3785374Y-3559321D01*
G01X-3785534Y-3557459D01*
G01X-3785693Y-3555589D01*
G01X-3785851Y-3553719D01*
G01X-3786008Y-3551844D01*
G01X-3786164Y-3549970D01*
G01X-3786318Y-3548097D01*
G01X-3786475Y-3546185D01*
G01X-3786629Y-3544293D01*
G01X-3786779Y-3542412D01*
G01X-3786934Y-3540487D01*
G01X-3787082Y-3538606D01*
G01X-3787234Y-3536672D01*
G01X-3787383Y-3534762D01*
G01X-3787531Y-3532843D01*
G01X-3787678Y-3530920D01*
G01X-3787825Y-3528984D01*
G01X-3787969Y-3527060D01*
G01X-3788114Y-3525115D01*
G01X-3788258Y-3523173D01*
G01X-3788401Y-3521218D01*
G01X-3788542Y-3519277D01*
G01X-3788683Y-3517317D01*
G01X-3788824Y-3515353D01*
G01X-3788961Y-3513397D01*
G01X-3789100Y-3511419D01*
G01X-3789238Y-3509436D01*
G01X-3789373Y-3507470D01*
G01X-3789510Y-3505474D01*
G01X-3789642Y-3503508D01*
G01X-3789777Y-3501493D01*
G01X-3789909Y-3499500D01*
G01X-3790040Y-3497511D01*
G01X-3790172Y-3495481D01*
G01X-3790303Y-3493465D01*
G01X-3790431Y-3491452D01*
G01X-3790559Y-3489431D01*
G01X-3790686Y-3487404D01*
G01X-3790811Y-3485385D01*
G01X-3790938Y-3483327D01*
G01X-3791062Y-3481286D01*
G01X-3791186Y-3479239D01*
G01X-3791308Y-3477188D01*
G01X-3791430Y-3475131D01*
G01X-3791551Y-3473062D01*
G01X-3791670Y-3470999D01*
G01X-3791789Y-3468924D01*
G01X-3791907Y-3466847D01*
G01X-3792024Y-3464766D01*
G01X-3792140Y-3462675D01*
G01X-3792255Y-3460587D01*
G01X-3792370Y-3458478D01*
G01X-3792483Y-3456384D01*
G01X-3792596Y-3454273D01*
G01X-3792707Y-3452160D01*
G01X-3792818Y-3450039D01*
G01X-3792926Y-3447937D01*
G01X-3793036Y-3445788D01*
G01X-3793143Y-3443671D01*
G01X-3793251Y-3441512D01*
G01X-3793356Y-3439372D01*
G01X-3793462Y-3437215D01*
G01X-3793566Y-3435061D01*
G01X-3793669Y-3432901D01*
G01X-3793771Y-3430736D01*
G01X-3793873Y-3428558D01*
G01X-3793973Y-3426390D01*
G01X-3794073Y-3424205D01*
G01X-3794172Y-3422014D01*
G01X-3794270Y-3419818D01*
G01X-3794366Y-3417624D01*
G01X-3794462Y-3415417D01*
G01X-3794557Y-3413209D01*
G01X-3794651Y-3410995D01*
G01X-3794744Y-3408776D01*
G01X-3794836Y-3406551D01*
G01X-3794927Y-3404313D01*
G01X-3795017Y-3402080D01*
G01X-3795107Y-3399831D01*
G01X-3795196Y-3397587D01*
G01X-3795283Y-3395334D01*
G01X-3795370Y-3393072D01*
G01X-3795455Y-3390808D01*
G01X-3795540Y-3388538D01*
G01X-3795624Y-3386259D01*
G01X-3795707Y-3383978D01*
G01X-3795789Y-3381691D01*
G01X-3795870Y-3379398D01*
G01X-3795950Y-3377096D01*
G01X-3796029Y-3374795D01*
G01X-3796108Y-3372474D01*
G01X-3796185Y-3370162D01*
G01X-3796261Y-3367840D01*
G01X-3796337Y-3365513D01*
G01X-3796411Y-3363179D01*
G01X-3796485Y-3360833D01*
G01X-3796557Y-3358492D01*
G01X-3796629Y-3356140D01*
G01X-3796700Y-3353776D01*
G01X-3796770Y-3351421D01*
G01X-3796839Y-3349044D01*
G01X-3796907Y-3346670D01*
G01X-3796974Y-3344289D01*
G01X-3797040Y-3341902D01*
G01X-3797105Y-3339510D01*
G01X-3797170Y-3337107D01*
G01X-3797234Y-3334695D01*
G01X-3797296Y-3332291D01*
G01X-3797357Y-3329874D01*
G01X-3797418Y-3327440D01*
G01X-3797478Y-3325018D01*
G01X-3797536Y-3322579D01*
G01X-3797594Y-3320138D01*
G01X-3797651Y-3317687D01*
G01X-3797707Y-3315236D01*
G01X-3797762Y-3312769D01*
G01X-3797816Y-3310306D01*
G01X-3797870Y-3307830D01*
G01X-3797922Y-3305351D01*
G01X-3797973Y-3302866D01*
G01X-3798023Y-3300378D01*
G01X-3798073Y-3297870D01*
G01X-3798121Y-3295372D01*
G01X-3798169Y-3292855D01*
G01X-3798216Y-3290335D01*
G01X-3798261Y-3287816D01*
G01X-3798306Y-3285286D01*
G01X-3798350Y-3282746D01*
G01X-3798393Y-3280204D01*
G01X-3798435Y-3277659D01*
G01X-3798476Y-3275100D01*
G01X-3798516Y-3272531D01*
G01X-3798555Y-3269966D01*
G01X-3798594Y-3267388D01*
G01X-3798631Y-3264807D01*
G01X-3798667Y-3262223D01*
G01X-3798703Y-3259621D01*
G01X-3798737Y-3257020D01*
G01X-3798771Y-3254413D01*
G01X-3798803Y-3251802D01*
G01X-3798835Y-3249174D01*
G01X-3798866Y-3246547D01*
G01X-3798895Y-3243909D01*
G01X-3798925Y-3241249D01*
G01X-3798953Y-3238588D01*
G01X-3798980Y-3235922D01*
G01X-3799006Y-3233239D01*
G01X-3799032Y-3230548D01*
G01X-3799056Y-3227850D01*
G01X-3799080Y-3225140D01*
G01X-3799103Y-3222424D01*
G01X-3799125Y-3219695D01*
G01X-3799146Y-3216964D01*
G01X-3799166Y-3214211D01*
G01X-3799186Y-3211459D01*
G01X-3799204Y-3208697D01*
G01X-3799222Y-3205923D01*
G01X-3799239Y-3203141D01*
G01X-3799255Y-3200349D01*
G01X-3799270Y-3197555D01*
G01X-3799284Y-3194740D01*
G01X-3799298Y-3191928D01*
G01X-3799311Y-3189098D01*
G01X-3799322Y-3186268D01*
G01X-3799334Y-3183421D01*
G01X-3799344Y-3180567D01*
G01X-3799354Y-3177703D01*
G01X-3799363Y-3174835D01*
G01X-3799371Y-3171957D01*
G01X-3799378Y-3169069D01*
G01X-3799384Y-3166176D01*
G01X-3799390Y-3163269D01*
G01X-3799395Y-3160356D01*
G01X-3799400Y-3157435D01*
G01X-3799403Y-3154508D01*
G01X-3799406Y-3151564D01*
G01X-3799408Y-3148624D01*
G01X-3799409Y-3145666D01*
G01X-3799410Y-3142706D01*
G01X-3799409Y-3139732D01*
G01X-3799409Y-3136755D01*
G01X-3799407Y-3133753D01*
G01X-3799405Y-3130748D01*
G01X-3799402Y-3127740D01*
G01X-3799398Y-3124705D01*
G01X-3799394Y-3121665D01*
G01X-3799388Y-3118625D01*
G01X-3799383Y-3115558D01*
G01X-3799377Y-3112485D01*
G01X-3799369Y-3109415D01*
G01X-3799362Y-3106319D01*
G01X-3799353Y-3103222D01*
G01X-3799345Y-3100125D01*
G01X-3799335Y-3097004D01*
G01X-3799325Y-3093875D01*
G01X-3799314Y-3090746D01*
G01X-3799303Y-3087597D01*
G01X-3799291Y-3084446D01*
G01X-3799278Y-3081298D01*
G01X-3799265Y-3078125D01*
G01X-3799252Y-3074946D01*
G01X-3799238Y-3071772D01*
G01X-3799223Y-3068579D01*
G01X-3799208Y-3065384D01*
G01X-3799192Y-3062187D01*
G01X-3799176Y-3058974D01*
G01X-3799159Y-3055761D01*
G01X-3799142Y-3052536D01*
G01X-3799124Y-3049312D01*
G01X-3799106Y-3046089D01*
G01X-3799087Y-3042843D01*
G01X-3799068Y-3039596D01*
G01X-3799049Y-3036357D01*
G01X-3799029Y-3033100D01*
G01X-3799008Y-3029843D01*
G01X-3798988Y-3026588D01*
G01X-3798966Y-3023321D01*
G01X-3798944Y-3020047D01*
G01X-3798922Y-3016770D01*
G01X-3798900Y-3013500D01*
G01X-3798877Y-3010218D01*
G01X-3798854Y-3006933D01*
G01X-3798830Y-3003644D01*
G01X-3798807Y-3000359D01*
G01X-3798783Y-2997064D01*
G01X-3798758Y-2993772D01*
G01X-3798733Y-2990478D01*
G01X-3798708Y-2987178D01*
G01X-3798683Y-2983883D01*
G01X-3798657Y-2980579D01*
G01X-3798631Y-2977275D01*
G01X-3798604Y-2973977D01*
G01X-3798577Y-2970605D01*
G01X-3798550Y-2967186D01*
G01X-3798522Y-2963749D01*
G01X-3798495Y-2960294D01*
G01X-3798467Y-2956821D01*
G01X-3798440Y-2953333D01*
G01X-3798413Y-2949829D01*
G01X-3798385Y-2946314D01*
G01X-3798357Y-2942780D01*
G01X-3798330Y-2939236D01*
G01X-3798303Y-2935681D01*
G01X-3798275Y-2932118D01*
G01X-3798247Y-2928542D01*
G01X-3798220Y-2924952D01*
G01X-3798193Y-2921363D01*
G01X-3798165Y-2917764D01*
G01X-3798138Y-2914156D01*
G01X-3798111Y-2910546D01*
G01X-3798084Y-2906929D01*
G01X-3798057Y-2903312D01*
G01X-3798030Y-2899692D01*
G01X-3798003Y-2896068D01*
G01X-3797976Y-2892446D01*
G01X-3797950Y-2888820D01*
G01X-3797923Y-2885185D01*
G01X-3797897Y-2881545D01*
G01X-3797870Y-2877899D01*
G01X-3797844Y-2874247D01*
G01X-3797818Y-2870588D01*
G01X-3797791Y-2866922D01*
G01X-3797765Y-2863250D01*
G01X-3797739Y-2859565D01*
G01X-3797713Y-2855882D01*
G01X-3797687Y-2852185D01*
G01X-3797662Y-2848488D01*
G01X-3797636Y-2844782D01*
G01X-3797610Y-2841065D01*
G01X-3797584Y-2837345D01*
G01X-3797559Y-2833622D01*
G01X-3797533Y-2829889D01*
G01X-3797508Y-2826145D01*
G01X-3797482Y-2822398D01*
G01X-3797457Y-2818645D01*
G01X-3797432Y-2814885D01*
G01X-3797407Y-2811118D01*
G01X-3797382Y-2807340D01*
G01X-3797357Y-2803562D01*
G01X-3797332Y-2799774D01*
G01X-3797307Y-2795975D01*
G01X-3797283Y-2792176D01*
G01X-3797258Y-2788366D01*
G01X-3797234Y-2784553D01*
G01X-3797209Y-2780729D01*
G01X-3797185Y-2776898D01*
G01X-3797161Y-2773062D01*
G01X-3797137Y-2769217D01*
G01X-3797113Y-2765369D01*
G01X-3797089Y-2761510D01*
G01X-3797065Y-2757646D01*
G01X-3797041Y-2753776D01*
G01X-3797017Y-2749893D01*
G01X-3796994Y-2746010D01*
G01X-3796970Y-2742114D01*
G01X-3796947Y-2738220D01*
G01X-3796923Y-2734309D01*
G01X-3796900Y-2730395D01*
G01X-3796877Y-2726473D01*
G01X-3796854Y-2722548D01*
G01X-3796831Y-2718614D01*
G01X-3796808Y-2714667D01*
G01X-3796785Y-2710718D01*
G01X-3796763Y-2706764D01*
G01X-3796740Y-2702801D01*
G01X-3796718Y-2698824D01*
G01X-3796695Y-2694846D01*
G01X-3796673Y-2690863D01*
G01X-3796651Y-2686866D01*
G01X-3796629Y-2682867D01*
G01X-3796607Y-2678860D01*
G01X-3796585Y-2674845D01*
G01X-3796564Y-2670837D01*
G01X-3796542Y-2666836D01*
G01X-3796520Y-2662836D01*
G01X-3796499Y-2658848D01*
G01X-3796478Y-2654861D01*
G01X-3796457Y-2650876D01*
G01X-3796436Y-2646905D01*
G01X-3796415Y-2642927D01*
G01X-3796394Y-2638960D01*
G01X-3796374Y-2634999D01*
G01X-3796353Y-2631042D01*
G01X-3796333Y-2627088D01*
G01X-3796312Y-2623136D01*
G01X-3796293Y-2619200D01*
G01X-3796272Y-2615252D01*
G01X-3796252Y-2611326D01*
G01X-3796232Y-2607390D01*
G01X-3796213Y-2603465D01*
G01X-3796193Y-2599548D01*
G01X-3796173Y-2595630D01*
G01X-3796154Y-2591716D01*
G01X-3796134Y-2587812D01*
G01X-3796115Y-2583909D01*
G01X-3796096Y-2580009D01*
G01X-3796076Y-2576115D01*
G01X-3796057Y-2572221D01*
G01X-3796038Y-2568338D01*
G01X-3796019Y-2564454D01*
G01X-3796000Y-2560579D01*
G01X-3795981Y-2556706D01*
G01X-3795963Y-2552833D01*
G01X-3795944Y-2548973D01*
G01X-3795926Y-2545107D01*
G01X-3795907Y-2541251D01*
G01X-3795888Y-2537395D01*
G01X-3795870Y-2533546D01*
G01X-3795852Y-2529701D01*
G01X-3795834Y-2525860D01*
G01X-3795815Y-2522020D01*
G01X-3795797Y-2518189D01*
G01X-3795779Y-2514357D01*
G01X-3795761Y-2510528D01*
G01X-3795743Y-2506708D01*
G01X-3795725Y-2502889D01*
G01X-3795707Y-2499069D01*
G01X-3795690Y-2495257D01*
G01X-3795671Y-2491454D01*
G01X-3795654Y-2487647D01*
G01X-3795636Y-2483843D01*
G01X-3795619Y-2480048D01*
G01X-3795601Y-2476251D01*
G01X-3795583Y-2472458D01*
G01X-3795566Y-2468670D01*
G01X-3795548Y-2464889D01*
G01X-3795531Y-2461103D01*
G01X-3795514Y-2457330D01*
G01X-3795496Y-2453553D01*
G01X-3795479Y-2449781D01*
G01X-3795462Y-2446013D01*
G01X-3795444Y-2442250D01*
G01X-3795427Y-2438486D01*
G01X-3795410Y-2434727D01*
G01X-3795392Y-2430968D01*
G01X-3795375Y-2427218D01*
G01X-3795358Y-2423465D01*
G01X-3795341Y-2419720D01*
G01X-3795324Y-2415974D01*
G01X-3795307Y-2412235D01*
G01X-3795289Y-2408493D01*
G01X-3795272Y-2404760D01*
G01X-3795255Y-2401026D01*
G01X-3795238Y-2397291D01*
G01X-3795221Y-2393568D01*
G01X-3795204Y-2389838D01*
G01X-3795187Y-2386123D01*
G01X-3795170Y-2382398D01*
G01X-3795153Y-2378681D01*
G01X-3795136Y-2374966D01*
G01X-3795119Y-2371253D01*
G01X-3795102Y-2367546D01*
G01X-3795085Y-2363835D01*
G01X-3795068Y-2360133D01*
G01X-3795050Y-2356427D01*
G01X-3795033Y-2352729D01*
G01X-3795016Y-2349028D01*
G01X-3794999Y-2345334D01*
G01X-3794982Y-2341638D01*
G01X-3794965Y-2337949D01*
G01X-3794948Y-2334259D01*
G01X-3794930Y-2330569D01*
G01X-3794913Y-2326886D01*
G01X-3794896Y-2323200D01*
G01X-3794879Y-2319523D01*
G01X-3794861Y-2315841D01*
G01X-3794844Y-2312164D01*
G01X-3794827Y-2308488D01*
G01X-3794809Y-2304814D01*
G01X-3794792Y-2301142D01*
G01X-3794775Y-2297472D01*
G01X-3794757Y-2293806D01*
G01X-3794739Y-2290137D01*
G01X-3794722Y-2286477D01*
G01X-3794704Y-2282811D01*
G01X-3794687Y-2279149D01*
G01X-3794669Y-2275492D01*
G01X-3794651Y-2271833D01*
G01X-3794634Y-2268176D01*
G01X-3794616Y-2264521D01*
G01X-3794598Y-2260864D01*
G01X-3794580Y-2257216D01*
G01X-3794562Y-2253567D01*
G01X-3794544Y-2249915D01*
G01X-3794526Y-2246269D01*
G01X-3794507Y-2242617D01*
G01X-3794490Y-2238976D01*
G01X-3794471Y-2235331D01*
G01X-3794453Y-2231692D01*
G01X-3794434Y-2228047D01*
G01X-3794416Y-2224404D01*
G01X-3794397Y-2220766D01*
G01X-3794379Y-2217129D01*
G01X-3794360Y-2213491D01*
G01X-3794341Y-2209856D01*
G01X-3794322Y-2206215D01*
G01X-3794304Y-2202585D01*
G01X-3794285Y-2198950D01*
G01X-3794266Y-2195317D01*
G01X-3794247Y-2191684D01*
G01X-3794227Y-2188055D01*
G01X-3794208Y-2184421D01*
G01X-3794189Y-2180791D01*
G01X-3794169Y-2177166D01*
G01X-3794149Y-2173537D01*
G01X-3794130Y-2169908D01*
G01X-3794110Y-2166283D01*
G01X-3794090Y-2162658D01*
G01X-3794070Y-2159034D01*
G01X-3794050Y-2155402D01*
G01X-3794030Y-2151777D01*
G01X-3794010Y-2148159D01*
G01X-3793990Y-2144531D01*
G01X-3793969Y-2140909D01*
G01X-3793949Y-2137285D01*
G01X-3793928Y-2133663D01*
G01X-3793907Y-2130042D01*
G01X-3793886Y-2126415D01*
G01X-3793866Y-2122797D01*
G01X-3793844Y-2119169D01*
G01X-3793823Y-2115553D01*
G01X-3793780Y-2108302D01*
G01X-3793759Y-2104686D01*
G01X-3793715Y-2097443D01*
G01X-3793693Y-2093817D01*
G01X-3793672Y-2090196D01*
G01X-3793649Y-2086578D01*
G01X-3793627Y-2082949D01*
G01X-3793605Y-2079327D01*
G01X-3793582Y-2075711D01*
G01X-3793559Y-2072082D01*
G01X-3793537Y-2068463D01*
G01X-3793514Y-2064838D01*
G01X-3793491Y-2061212D01*
G01X-3793468Y-2057588D01*
G01X-3793445Y-2053962D01*
G01X-3793421Y-2050339D01*
G01X-3793398Y-2046706D01*
G01X-3793374Y-2043084D01*
G01X-3793350Y-2039451D01*
G01X-3793327Y-2035823D01*
G01X-3793303Y-2032194D01*
G01X-3793279Y-2028562D01*
G01X-3793254Y-2024928D01*
G01X-3793230Y-2021299D01*
G01X-3793205Y-2017664D01*
G01X-3793181Y-2014030D01*
G01X-3793156Y-2010395D01*
G01X-3793131Y-2006757D01*
G01X-3793106Y-2003117D01*
G01X-3793080Y-1999477D01*
G01X-3793055Y-1995838D01*
G01X-3793029Y-1992195D01*
G01X-3793003Y-1988558D01*
G01X-3792977Y-1984913D01*
G01X-3792951Y-1981269D01*
G01X-3792925Y-1977619D01*
G01X-3792899Y-1973970D01*
G01X-3792872Y-1970327D01*
G01X-3792845Y-1966673D01*
G01X-3792818Y-1963020D01*
G01X-3792791Y-1959373D01*
G01X-3792764Y-1955717D01*
G01X-3792736Y-1952059D01*
G01X-3792709Y-1948405D01*
G01X-3792681Y-1944748D01*
G01X-3792653Y-1941088D01*
G01X-3792624Y-1937424D01*
G01X-3792596Y-1933762D01*
G01X-3792567Y-1930095D01*
G01X-3792538Y-1926429D01*
G01X-3792509Y-1922761D01*
G01X-3792480Y-1919092D01*
G01X-3792451Y-1915420D01*
G01X-3792421Y-1911750D01*
G01X-3792391Y-1908068D01*
G01X-3792361Y-1904396D01*
G01X-3792331Y-1900715D01*
G01X-3792300Y-1897035D01*
G01X-3792270Y-1893350D01*
G01X-3792239Y-1889664D01*
G01X-3792208Y-1885982D01*
G01X-3792176Y-1882291D01*
G01X-3792145Y-1878603D01*
G01X-3792113Y-1874909D01*
G01X-3792081Y-1871214D01*
G01X-3792048Y-1867518D01*
G01X-3792016Y-1863817D01*
G01X-3791983Y-1860118D01*
G01X-3791950Y-1856411D01*
G01X-3791917Y-1852707D01*
G01X-3791883Y-1849002D01*
G01X-3791850Y-1845292D01*
G01X-3791816Y-1841578D01*
G01X-3791782Y-1837861D01*
G01X-3791747Y-1834147D01*
G01X-3791712Y-1830429D01*
G01X-3791677Y-1826703D01*
G01X-3791642Y-1822981D01*
G01X-3791607Y-1819252D01*
G01X-3791571Y-1815527D01*
G01X-3791535Y-1811794D01*
G01X-3791498Y-1808061D01*
G01X-3791462Y-1804325D01*
G01X-3791425Y-1800583D01*
G01X-3791388Y-1796843D01*
G01X-3791351Y-1793096D01*
G01X-3791313Y-1789350D01*
G01X-3791275Y-1785600D01*
G01X-3791237Y-1781845D01*
G01X-3791199Y-1778094D01*
G01X-3791160Y-1774332D01*
G01X-3791121Y-1770569D01*
G01X-3791082Y-1766809D01*
G01X-3791042Y-1763040D01*
G01X-3791002Y-1759271D01*
G01X-3790962Y-1755496D01*
G01X-3790921Y-1751724D01*
G01X-3790880Y-1747945D01*
G01X-3790839Y-1744161D01*
G01X-3790797Y-1740378D01*
G01X-3790756Y-1736585D01*
G01X-3790714Y-1732797D01*
G01X-3790672Y-1729001D01*
G01X-3790629Y-1725207D01*
G01X-3790586Y-1721404D01*
G01X-3790543Y-1717601D01*
G01X-3790499Y-1713796D01*
G01X-3790455Y-1709985D01*
G01X-3790411Y-1706173D01*
G01X-3790366Y-1702355D01*
G01X-3790322Y-1698534D01*
G01X-3790276Y-1694712D01*
G01X-3790231Y-1690881D01*
G01X-3790185Y-1687052D01*
G01X-3790139Y-1683216D01*
G01X-3790092Y-1679381D01*
G01X-3790045Y-1675539D01*
G01X-3789998Y-1671694D01*
G01X-3789950Y-1667847D01*
G01X-3789903Y-1663994D01*
G01X-3789854Y-1660140D01*
G01X-3789806Y-1656278D01*
G01X-3789756Y-1652416D01*
G01X-3789707Y-1648544D01*
G01X-3789658Y-1644677D01*
G01X-3789607Y-1640803D01*
G01X-3789557Y-1636923D01*
G01X-3789506Y-1633046D01*
G01X-3789455Y-1629159D01*
G01X-3789403Y-1625266D01*
G01X-3789352Y-1621369D01*
G01X-3789299Y-1617477D01*
G01X-3789247Y-1613574D01*
G01X-3789194Y-1609666D01*
G01X-3789140Y-1605759D01*
G01X-3789087Y-1601842D01*
G01X-3789032Y-1597927D01*
G01X-3788978Y-1594002D01*
G01X-3788923Y-1590079D01*
G01X-3788867Y-1586150D01*
G01X-3788812Y-1582210D01*
G01X-3788756Y-1578280D01*
G01X-3788699Y-1574331D01*
G01X-3788643Y-1570389D01*
G01X-3788585Y-1566432D01*
G01X-3788528Y-1562473D01*
G01X-3788470Y-1558517D01*
G01X-3788411Y-1554549D01*
G01X-3788352Y-1550584D01*
G01X-3788293Y-1546608D01*
G01X-3788233Y-1542629D01*
G01X-3788173Y-1538644D01*
G01X-3788112Y-1534663D01*
G01X-3788051Y-1530669D01*
G01X-3787990Y-1526670D01*
G01X-3787928Y-1522669D01*
G01X-3787866Y-1518660D01*
G01X-3787803Y-1514656D01*
G01X-3787740Y-1510637D01*
G01X-3787676Y-1506620D01*
G01X-3787612Y-1502592D01*
G01X-3787548Y-1498556D01*
G01X-3787483Y-1494508D01*
G01X-3787418Y-1490457D01*
G01X-3787352Y-1486403D01*
G01X-3787285Y-1482337D01*
G01X-3787219Y-1478271D01*
G01X-3787151Y-1474188D01*
G01X-3787083Y-1470109D01*
G01X-3787015Y-1466014D01*
G01X-3786946Y-1461922D01*
G01X-3786877Y-1457812D01*
G01X-3786807Y-1453706D01*
G01X-3786737Y-1449586D01*
G01X-3786666Y-1445463D01*
G01X-3786595Y-1441333D01*
G01X-3786524Y-1437192D01*
G01X-3786451Y-1433049D01*
G01X-3786379Y-1428895D01*
G01X-3786306Y-1424740D01*
G01X-3786232Y-1420572D01*
G01X-3786158Y-1416404D01*
G01X-3786084Y-1412222D01*
G01X-3786009Y-1408039D01*
G01X-3785933Y-1403843D01*
G01X-3785858Y-1399646D01*
G01X-3785781Y-1395436D01*
G01X-3785704Y-1391223D01*
G01X-3785627Y-1387004D01*
G01X-3785549Y-1382772D01*
G01X-3785471Y-1378538D01*
G01X-3785392Y-1374292D01*
G01X-3785312Y-1370044D01*
G01X-3785233Y-1365784D01*
G01X-3785152Y-1361522D01*
G01X-3785071Y-1357247D01*
G01X-3784990Y-1352972D01*
G01X-3784908Y-1348683D01*
G01X-3784826Y-1344388D01*
G01X-3784743Y-1340083D01*
G01X-3784660Y-1335777D01*
G01X-3784576Y-1331457D01*
G01X-3784492Y-1327133D01*
G01X-3784407Y-1322798D01*
G01X-3784322Y-1318463D01*
G01X-3784236Y-1314114D01*
G01X-3784150Y-1309756D01*
G01X-3784064Y-1305398D01*
G01X-3783976Y-1301025D01*
G01X-3783888Y-1296647D01*
G01X-3783800Y-1292258D01*
G01X-3783711Y-1287867D01*
G01X-3783622Y-1283463D01*
G01X-3783532Y-1279057D01*
G01X-3783442Y-1274633D01*
G01X-3783352Y-1270214D01*
G01X-3783260Y-1265779D01*
G01X-3783169Y-1261339D01*
G01X-3783076Y-1256888D01*
G01X-3782984Y-1252432D01*
G01X-3782890Y-1247964D01*
G01X-3782796Y-1243489D01*
G01X-3782702Y-1239005D01*
G01X-3782608Y-1234521D01*
G01X-3782512Y-1230021D01*
G01X-3782416Y-1225516D01*
G01X-3782320Y-1221000D01*
G01X-3782223Y-1216479D01*
G01X-3782126Y-1211946D01*
G01X-3782028Y-1207408D01*
G01X-3781929Y-1202858D01*
G01X-3781830Y-1198302D01*
G01X-3781731Y-1193737D01*
G01X-3781631Y-1189166D01*
G01X-3781531Y-1184582D01*
G01X-3781430Y-1179994D01*
G01X-3781328Y-1175395D01*
G01X-3781226Y-1170788D01*
G01X-3781124Y-1166172D01*
G01X-3781021Y-1161545D01*
G01X-3780917Y-1156914D01*
G01X-3780813Y-1152270D01*
G01X-3780708Y-1147617D01*
G01X-3780603Y-1142962D01*
G01X-3780498Y-1138294D01*
G01X-3780392Y-1133619D01*
G01X-3780285Y-1128931D01*
G01X-3780178Y-1124239D01*
G01X-3780070Y-1119535D01*
G01X-3779961Y-1114821D01*
G01X-3779853Y-1110100D01*
G01X-3779743Y-1105368D01*
G01X-3779634Y-1100632D01*
G01X-3779523Y-1095884D01*
G01X-3779412Y-1091129D01*
G01X-3779300Y-1086360D01*
G01X-3779193Y-1081776D01*
G01X-3779109Y-1078158D01*
G01X-3778975Y-1072496D01*
G01X-3778701Y-1060947D01*
G01X-3778212Y-1040489D01*
G01X-3777500Y-1011094D01*
G01X-3776570Y-973341D01*
G01X-3775426Y-927786D01*
G01X-3774073Y-874990D01*
G01X-3772512Y-815506D01*
G01X-3770751Y-749878D01*
G01X-3768807Y-678671D01*
G01X-3766700Y-602464D01*
G01X-3764451Y-521816D01*
G01X-3762077Y-437318D01*
G01X-3759600Y-349525D01*
G01X-3757045Y-259075D01*
G01X-3754451Y-166680D01*
G01X-3751840Y-72860D01*
G01X-3749233Y21899D01*
G01X-3746651Y117105D01*
G01X-3744117Y212261D01*
G01X-3741652Y306366D01*
G01X-3739215Y398134D01*
G01X-3736790Y487277D01*
G01X-3734378Y573298D01*
G01X-3731984Y655679D01*
G01X-3729608Y733849D01*
G01X-3727256Y807301D01*
G01X-3724932Y875524D01*
G01X-3722680Y938063D01*
G01X-3720548Y994352D01*
G01X-3718607Y1043389D01*
G01X-3716826Y1086478D01*
G01X-3715112Y1126037D01*
G01X-3713371Y1164498D01*
G01X-3711521Y1204018D01*
G01X-3709565Y1244230D01*
G01X-3707504Y1284870D01*
G01X-3705333Y1325914D01*
G01X-3703045Y1367344D01*
G01X-3700636Y1409133D01*
G01X-3698098Y1451265D01*
G01X-3695426Y1493706D01*
G01X-3692614Y1536437D01*
G01X-3689654Y1579446D01*
G01X-3686541Y1622716D01*
G01X-3683268Y1666216D01*
G01X-3679827Y1709939D01*
G01X-3676213Y1753864D01*
G01X-3672418Y1797977D01*
G01X-3668437Y1842247D01*
G01X-3664262Y1886667D01*
G01X-3659887Y1931212D01*
G01X-3655307Y1975840D01*
G01X-3650510Y2020560D01*
G01X-3645490Y2065376D01*
G01X-3640244Y2110243D01*
G01X-3634768Y2155148D01*
G01X-3629059Y2200063D01*
G01X-3623116Y2244951D01*
G01X-3616933Y2289800D01*
G01X-3610508Y2334572D01*
G01X-3603839Y2379240D01*
G01X-3596921Y2423788D01*
G01X-3589751Y2468185D01*
G01X-3582316Y2512514D01*
G01X-3574635Y2556662D01*
G01X-3566700Y2600644D01*
G01X-3558504Y2644460D01*
G01X-3550041Y2688124D01*
G01X-3541303Y2731645D01*
G01X-3532284Y2775033D01*
G01X-3522975Y2818294D01*
G01X-3513369Y2861451D01*
G01X-3503460Y2904500D01*
G01X-3493240Y2947457D01*
G01X-3482852Y2989690D01*
G01X-3472291Y3031111D01*
G01X-3461509Y3071905D01*
G01X-3450502Y3112081D01*
G01X-3439259Y3151658D01*
G01X-3427783Y3190627D01*
G01X-3416069Y3228993D01*
G01X-3404106Y3266779D01*
G01X-3391897Y3303973D01*
G01X-3379435Y3340586D01*
G01X-3366719Y3376618D01*
G01X-3353762Y3412025D01*
G01X-3340772Y3446272D01*
G01X-3327312Y3480478D01*
G01X-3313073Y3515359D01*
G01X-3297801Y3551376D01*
G01X-3281441Y3588445D01*
G01X-3263963Y3626426D01*
G01X-3245352Y3665148D01*
G01X-3225564Y3704505D01*
G01X-3204586Y3744322D01*
G01X-3182391Y3784454D01*
G01X-3158709Y3825141D01*
G01X-3133487Y3866330D01*
G01X-3106962Y3907507D01*
G01X-3079208Y3948394D01*
G01X-3049178Y3990371D01*
G01X-3017309Y4032662D01*
G01X-2983766Y4074908D01*
G01X-2948462Y4116983D01*
G01X-2911325Y4158726D01*
G01X-2872837Y4199695D01*
G01X-2833616Y4239336D01*
G01X-2794377Y4277016D01*
G01X-2792017Y4279125D01*
G01X-2789729Y4280985D01*
G01X-2787354Y4282740D01*
G01X-2784793Y4284457D01*
G01X-2783239Y4285415D01*
G01X-2781530Y4286397D01*
G01X-2779809Y4287318D01*
G01X-2778027Y4288202D01*
G01X-2776236Y4289022D01*
G01X-2774433Y4289783D01*
G01X-2772573Y4290501D01*
G01X-2770713Y4291153D01*
G01X-2768834Y4291748D01*
G01X-2766940Y4292284D01*
G01X-2765030Y4292763D01*
G01X-2763107Y4293182D01*
G01X-2761175Y4293541D01*
G01X-2759230Y4293842D01*
G01X-2757276Y4294083D01*
G01X-2755316Y4294264D01*
G01X-2753348Y4294385D01*
G01X-2751242Y4294449D01*
G01X-2750395Y4294456D01*
G01X-3013663Y-3476983D02*
G03X-2232034Y-3476983I390814J0D01*
G03X-3013663Y-3476983I-390814J0D01*
G01X-2675807Y3448189D02*
G03X-1894179Y3448189I390814J0D01*
G03X-2675807Y3448189I-390814J0D01*
G01X2535814Y2277800D02*
G03X2300000Y2513614I-235814J0D01*
G01X-2300000Y2513614D01*
G03X-2535814Y2277800I0J-235814D01*
G01X-2535814Y877800D01*
G03X-2300000Y641986I235814J0D01*
G01X2300000Y641986D01*
G03X2535814Y877800I0J235814D01*
G01X2535814Y2277800D01*
G01X2535814Y-700000D02*
G03X2300000Y-464186I-235814J0D01*
G01X-2300000Y-464186D01*
G03X-2535814Y-700000I0J-235814D01*
G01X-2535814Y-2300000D01*
G03X-2300000Y-2535814I235814J0D01*
G01X2300000Y-2535814D01*
G03X2535814Y-2300000I0J235814D01*
G01X2535814Y-700000D01*
G01X-250937Y4021130D02*
G03X-205536Y3908827I47737J-46030D01*
G01X-200520Y3903811D01*
G01X-200520Y3902277D01*
G03X-212500Y3895911I10514J-34236D01*
G03X-234993Y3903856I-22494J-27869D01*
G01X-314993Y3903856D01*
G03X-347514Y3883042I0J-35814D01*
G03X-517804Y3867949I-84476J-15093D01*
G01X-517804Y3797949D01*
G03X-465182Y3718814I85814J0D01*
G01X-526290Y3718814D01*
G03X-637814Y3670300I-45210J-48514D01*
G03X-526290Y3621786I66314J0D01*
G01X-88900Y3621786D01*
G03X-54595Y3635995I0J48514D01*
G01X-18363Y3672228D01*
G01X-15000Y3672228D01*
G03X0Y3675520I0J35814D01*
G03X15000Y3672228I15000J32521D01*
G01X18363Y3672228D01*
G01X67295Y3623295D01*
G03X101600Y3609086I34305J34305D01*
G01X526290Y3609086D01*
G03X637814Y3657600I45210J48514D01*
G03X526290Y3706114I-66314J0D01*
G01X350755Y3706114D01*
G01X350807Y3708042D01*
G01X350807Y3770141D01*
G03X517804Y3797949I81183J27808D01*
G01X517804Y3867949D01*
G03X347514Y3883042I-85814J0D01*
G03X314993Y3903856I-32521J-15000D01*
G01X234993Y3903856D01*
G03X212500Y3895911I0J-35814D01*
G03X197651Y3903030I-22494J-27869D01*
G03X186311Y3920898I-45645J-16436D01*
G01X135905Y3971305D01*
G03X101600Y3985514I-34305J-34305D01*
G01X-114300Y3985514D01*
G03X-137056Y3979846I0J-48514D01*
G03X-250937Y4021130I-66144J-4746D01*
G01X-153186Y139700D02*
G03X-354814Y139700I-100814J0D01*
G03X-153186Y139700I100814J0D01*
G01X100814Y139700D02*
G03X-100814Y139700I-100814J0D01*
G03X100814Y139700I100814J0D01*
G01X354814Y139700D02*
G03X153186Y139700I-100814J0D01*
G03X354814Y139700I100814J0D01*
G01X1848482Y3448189D02*
G03X2630110Y3448189I390814J0D01*
G03X1848482Y3448189I-390814J0D01*
G01X2186338Y-3476983D02*
G03X2967966Y-3476983I390814J0D01*
G03X2186338Y-3476983I-390814J0D01*
G54D11*
G01X-2622848Y-3476983D02*
G01X-3003503Y-3476983D01*
G01X-2622848Y-3476983D02*
G01X-2242194Y-3476983D01*
G01X-2622848Y-3476983D02*
G01X-2622848Y-3096329D01*
G01X-2622848Y-3476983D02*
G01X-2622848Y-3857637D01*
G01X-2284993Y3448189D02*
G01X-2665647Y3448189D01*
G01X-2284993Y3448189D02*
G01X-1904339Y3448189D01*
G01X-2284993Y3448189D02*
G01X-2284993Y3828843D01*
G01X-2284993Y3448189D02*
G01X-2284993Y3067535D01*
G01X-431990Y3832949D02*
G01X-507644Y3832949D01*
G01X-431990Y3832949D02*
G01X-431990Y3943603D01*
G01X-431990Y4212958D02*
G01X-507644Y4212958D01*
G01X-431990Y4212958D02*
G01X-356337Y4212958D01*
G01X-431990Y4212958D02*
G01X-431990Y4102304D01*
G01X-254000Y139700D02*
G01X-163346Y139700D01*
G01X-254000Y139700D02*
G01X-344654Y139700D01*
G01X-254000Y139700D02*
G01X-254000Y49046D01*
G01X-254000Y139700D02*
G01X-254000Y230354D01*
G01X431991Y4212958D02*
G01X356337Y4212958D01*
G01X431991Y4212958D02*
G01X507644Y4212958D01*
G01X431991Y4212958D02*
G01X431991Y4102304D01*
G01X431991Y3832949D02*
G01X507644Y3832949D01*
G01X431991Y3832949D02*
G01X431991Y3943603D01*
G01X431991Y3832949D02*
G01X431991Y3722295D01*
G01X2239296Y3448189D02*
G01X1858642Y3448189D01*
G01X2239296Y3448189D02*
G01X2619950Y3448189D01*
G01X2239296Y3448189D02*
G01X2239296Y3828843D01*
G01X2239296Y3448189D02*
G01X2239296Y3067535D01*
G01X2577152Y-3476983D02*
G01X2196498Y-3476983D01*
G01X2577152Y-3476983D02*
G01X2957806Y-3476983D01*
G01X2577152Y-3476983D02*
G01X2577152Y-3096329D01*
G01X2577152Y-3476983D02*
G01X2577152Y-3857637D01*
G01X-274993Y3788042D02*
G01X-274993Y3893696D01*
G01X274993Y3788042D02*
G01X274993Y3893696D01*
G04 Copper End*

G04 Pad Start*
G54D12*
G01X2239296Y3448189D03*
G01X-2284993Y3448189D03*
G01X2577152Y-3476983D03*
G01X-2622848Y-3476983D03*
G54D13*
G01X254000Y139700D03*
G01X0Y139700D03*
G01X-254000Y139700D03*
G54D14*
G01X274993Y3788042D03*
G54D15*
G01X152006Y3788042D03*
G54D16*
G01X50000Y3788042D03*
G01X-50000Y3788042D03*
G54D15*
G01X-152006Y3788042D03*
G54D14*
G01X-274993Y3788042D03*
G54D18*
G01X431991Y4212958D03*
G01X-431990Y4212958D03*
G01X431991Y3832949D03*
G01X-431990Y3832949D03*
G04 Pad End*

G04 Via Start*
G54D19*
G01X-203200Y3975100D03*
G01X-2852400Y4097000D03*
G01X-1836400Y4097000D03*
G01X2735600Y4097000D03*
G01X-1836400Y3589000D03*
G01X-1328400Y3589000D03*
G01X-820400Y3589000D03*
G01X1211600Y3589000D03*
G01X1719600Y3589000D03*
G01X2735600Y3589000D03*
G01X3243600Y3589000D03*
G01X-2852400Y3081000D03*
G01X-1836400Y3081000D03*
G01X-1328400Y3081000D03*
G01X-820400Y3081000D03*
G01X-312400Y3081000D03*
G01X195600Y3081000D03*
G01X703600Y3081000D03*
G01X1211600Y3081000D03*
G01X1719600Y3081000D03*
G01X2735600Y3081000D03*
G01X-2852400Y2573000D03*
G01X-2344400Y2573000D03*
G01X-1836400Y2573000D03*
G01X-1328400Y2573000D03*
G01X-820400Y2573000D03*
G01X-312400Y2573000D03*
G01X195600Y2573000D03*
G01X703600Y2573000D03*
G01X1211600Y2573000D03*
G01X1719600Y2573000D03*
G01X2227600Y2573000D03*
G01X2735600Y2573000D03*
G01X-2852400Y2065000D03*
G01X2735600Y2065000D03*
G01X-2852400Y1557000D03*
G01X2735600Y1557000D03*
G01X-3360400Y1049000D03*
G01X-2852400Y1049000D03*
G01X2735600Y1049000D03*
G01X3243600Y1049000D03*
G01X-2852400Y541000D03*
G01X-2344400Y541000D03*
G01X-1836400Y541000D03*
G01X-1328400Y541000D03*
G01X-820400Y541000D03*
G01X-312400Y541000D03*
G01X195600Y541000D03*
G01X703600Y541000D03*
G01X1211600Y541000D03*
G01X1719600Y541000D03*
G01X2227600Y541000D03*
G01X2735600Y541000D03*
G01X3243600Y541000D03*
G01X-2852400Y33000D03*
G01X-2344400Y33000D03*
G01X-1836400Y33000D03*
G01X-1328400Y33000D03*
G01X-820400Y33000D03*
G01X195600Y33000D03*
G01X703600Y33000D03*
G01X1211600Y33000D03*
G01X1719600Y33000D03*
G01X2227600Y33000D03*
G01X2735600Y33000D03*
G01X3243600Y33000D03*
G01X-2852400Y-475000D03*
G01X2735600Y-475000D03*
G01X3243600Y-475000D03*
G01X-2852400Y-983000D03*
G01X2735600Y-983000D03*
G01X3243600Y-983000D03*
G01X-2852400Y-1491000D03*
G01X2735600Y-1491000D03*
G01X3243600Y-1491000D03*
G01X3751600Y-1491000D03*
G01X-2852400Y-1999000D03*
G01X2735600Y-1999000D03*
G01X3243600Y-1999000D03*
G01X3751600Y-1999000D03*
G01X-2852400Y-2507000D03*
G01X2735600Y-2507000D03*
G01X3243600Y-2507000D03*
G01X-2852400Y-3015000D03*
G01X-2344400Y-3015000D03*
G01X-1836400Y-3015000D03*
G01X-1328400Y-3015000D03*
G01X-820400Y-3015000D03*
G01X-312400Y-3015000D03*
G01X195600Y-3015000D03*
G01X703600Y-3015000D03*
G01X1211600Y-3015000D03*
G01X1719600Y-3015000D03*
G01X2227600Y-3015000D03*
G01X2735600Y-3015000D03*
G01X3243600Y-3015000D03*
G01X3751600Y-3015000D03*
G01X-1836400Y-3523000D03*
G01X-1328400Y-3523000D03*
G01X-820400Y-3523000D03*
G01X-312400Y-3523000D03*
G01X195600Y-3523000D03*
G01X703600Y-3523000D03*
G01X1211600Y-3523000D03*
G01X1719600Y-3523000D03*
G01X3243600Y-3523000D03*
G01X3751600Y-3523000D03*
G01X-3360400Y-4031000D03*
G01X-2852400Y-4031000D03*
G01X-2344400Y-4031000D03*
G01X-1836400Y-4031000D03*
G01X-1328400Y-4031000D03*
G01X-820400Y-4031000D03*
G01X-312400Y-4031000D03*
G01X195600Y-4031000D03*
G01X703600Y-4031000D03*
G01X1211600Y-4031000D03*
G01X1719600Y-4031000D03*
G01X2227600Y-4031000D03*
G01X2735600Y-4031000D03*
G01X3243600Y-4031000D03*
G01X-2852400Y-4539000D03*
G01X-820400Y-4539000D03*
G01X571500Y3657600D03*
G01X-571500Y3670300D03*
G04 Via End*

G04 Track Start*
G54D11*
G01X-152006Y3788042D02*
G01X-152006Y3899294D01*
G01X-114300Y3937000D01*
G01X101600Y3937000D01*
G01X152006Y3886594D02*
G01X152006Y3788042D01*
G01X101600Y3937000D02*
G01X152006Y3886594D01*
G01X-152006Y3923906D02*
G01X-203200Y3975100D01*
G01X-152006Y3899294D02*
G01X-152006Y3923906D01*
G01X50000Y3788042D02*
G01X50000Y3709200D01*
G01X101600Y3657600D01*
G01X571500Y3657600D01*
G01X-50000Y3788042D02*
G01X-50000Y3709200D01*
G01X-88900Y3670300D01*
G01X-571500Y3670300D01*
G04 Track End*

M02*

