;TYPE=PLATED
;Layer: PTH_Through_Via
;EasyEDA Pro v3.2.135, 2026-06-11 10:07:05
;Gerber Generator version 0.3
M48
METRIC,LZ,0000.00000
;Hole size 1 = 0.30500 METRIC
T01C0.30500
%
G05
G90
T01
X-10.21347Y-5.40753
X-10.414Y-8.23493
X-16.3195Y-4.3815
X-1.905Y-9.398
X-11.557Y-3.429
X-13.75994Y-4.445
X-14.859Y-4.572
X-19.304Y-7.493
X-22.987Y-10.287
X-20.574Y-1.651
X-17.526Y-9.398
X-17.907Y10.922
X-16.002Y-9.398
X-15.367Y10.922
X-15.748Y-8.255
X-14.986Y-9.525
X-14.097Y-7.62
X-13.97Y-5.588
X-14.732Y-12.624
X-11.43Y-10.414
X-19.304Y-6.35
X18.161Y-1.651
X18.796Y-1.016
X-5.969Y-9.982
X-4.191Y-10.668
X-16.002Y5.08
X-9.23949Y2.88949
X-6.858Y11.811
X6.477Y-3.683
X8.05361Y-1.651
X7.366Y-2.286
X10.414Y-1.524
X-2.54Y-1.27
X-1.905Y7.747
X13.081Y3.81
X-20.65Y11.252
X-10.49Y11.252
X4.75Y-9.068
X-19.177Y-5.08
X2.286Y-5.08
X-2.032Y-7.239
X-19.431Y-13.208
X-17.907Y-12.573
X-8.255Y-10.16
X-14.478Y3.429
X-10.16Y-10.033
X14.732Y8.636
X12.7Y-0.635
X3.87872Y5.10306
X5.83202Y7.188
X12.446Y9.525
X16.256Y9.144
X15.748Y7.366
X7.366Y7.366
X-1.905Y3.937
X-0.635Y3.81
X-1.016Y-2.921
X-1.016Y-1.27
X1.524Y11.303
X-8.382Y7.747
X-1.86245Y2.15301
X1.27Y-1.143
X-5.588Y-0.381
X-10.795Y-3.683
X-10.795Y-0.889
X-6.858Y2.921
X-3.77157Y-4.318
X-5.715Y0.889
X-8.509Y-6.934
X-3.81Y1.397
M30