G04 Layer: TopSolderMaskLayer*
G04 EasyEDA Pro v3.2.135, 2026-06-11 10:07:05*
G04 Gerber Generator version 0.3*
G04 Scale: 100 percent, Rotated: No, Reflected: No*
G04 Dimensions in millimeters*
G04 Leading zeros omitted, absolute positions, 4 integers and 5 decimals*
G04 Generated by one-click*
G04 Object Configs: Pad,Via,Track,Text,Image,Dimension,BoardOutline,BoardCutout,CopperFilled,SolidRegion,FPCStiffener,Line,PlaneZone,ComponentProperty,ComponentSilkscreen,TearDrop*
G04 Layer Configs: 1,2,3,4,5,6,7,8,9,10,11,13,14,56*
G04 Copper Areas: 0*
%FSLAX45Y45*%
%MOMM*%
%AMRoundRect*1,1,$1,$2,$3*1,1,$1,$4,$5*1,1,$1,0-$2,0-$3*1,1,$1,0-$4,0-$5*20,1,$1,$2,$3,$4,$5,0*20,1,$1,$4,$5,0-$2,0-$3,0*20,1,$1,0-$2,0-$3,0-$4,0-$5,0*20,1,$1,0-$4,0-$5,$2,$3,0*4,1,4,$2,$3,$4,$5,0-$2,0-$3,0-$4,0-$5,$2,$3,0*%
%ADD10C,0.7112*%
%ADD11RoundRect,0.1X-0.8X-0.4X-0.8X0.4*%
%ADD12RoundRect,0.1X-0.8X-0.38X-0.8X0.38*%
%ADD13RoundRect,0.1X-0.8X-0.35X-0.8X0.35*%
%ADD14O,1.8X1.1*%
%ADD15RoundRect,0.1016X-0.85X0.85X0.85X0.85*%
%ADD16C,1.8016*%
%ADD17RoundRect,0.10003X-0.25X0.6X0.25X0.6*%
%ADD18RoundRect,0.10003X-0.5X0.9X0.5X0.9*%
%ADD19RoundRect,0.1050X-0.85X-0.85X-0.85X0.85*%
%ADD20RoundRect,0.1016X-0.85X-0.85X-0.85X0.85*%
%ADD21RoundRect,0.10003X-1.25X-1.4X-1.25X1.4*%
%ADD22RoundRect,0.10003X-0.75X-0.3X-0.75X0.3*%
%ADD23C,0.6016*%
%ADD24RoundRect,0.10003X-1.0X1.5X1.0X1.5*%
%ADD25RoundRect,0.10003X-0.3X0.75X0.3X0.75*%
%ADD26RoundRect,0.10003X-0.4X0.75X0.4X0.75*%
G75*


G04 Pad Start*
G54D10*
G01X-698500Y889000D03*
G01X1143000Y711200D03*
G01X660545Y76200D03*
G01X1676400Y1066800D03*
G54D11*
G01X54242Y-614007D03*
G54D12*
G01X54242Y-736994D03*
G54D13*
G01X54242Y-839000D03*
G01X54242Y-939000D03*
G54D12*
G01X54242Y-1041006D03*
G54D11*
G01X54242Y-1163993D03*
G54D14*
G01X479158Y-457009D03*
G01X479158Y-1320990D03*
G01X99149Y-457009D03*
G01X99149Y-1320990D03*
G54D15*
G01X-1143000Y952500D03*
G54D16*
G01X-1143000Y698500D03*
G01X-1397000Y952500D03*
G01X-1397000Y698500D03*
G01X-1651000Y952500D03*
G01X-1651000Y698500D03*
G01X-1905000Y952500D03*
G01X-1905000Y698500D03*
G54D17*
G01X-686613Y1041095D03*
G01X-786613Y1041095D03*
G54D18*
G01X-575589Y1321105D03*
G01X-897611Y1321105D03*
G54D20*
G01X-2235944Y212662D03*
G54D16*
G01X-2235944Y466662D03*
G01X-2235944Y720662D03*
G01X-2235944Y974662D03*
G54D15*
G01X-2235200Y1270000D03*
G54D16*
G01X-1981200Y1270000D03*
G01X-1727200Y1270000D03*
G01X-1473200Y1270000D03*
G54D17*
G01X989787Y761695D03*
G01X889787Y761695D03*
G54D18*
G01X1100811Y1041705D03*
G01X778789Y1041705D03*
G54D21*
G01X2007299Y1146988D03*
G01X2007299Y377012D03*
G54D22*
G01X1777302Y912012D03*
G01X1777302Y812013D03*
G01X1777302Y712013D03*
G01X1777302Y612013D03*
G54D23*
G01X-167456Y-1185327D03*
G54D24*
G01X-437502Y330299D03*
G01X437502Y330299D03*
G54D25*
G01X-187515Y25303D03*
G01X-62497Y25303D03*
G01X62497Y25303D03*
G01X187490Y25303D03*
G54D24*
G01X-437502Y863699D03*
G01X437502Y863699D03*
G54D25*
G01X-187515Y558703D03*
G01X-62497Y558703D03*
G01X62497Y558703D03*
G01X187490Y558703D03*
G54D17*
G01X1052500Y281805D03*
G01X952500Y281805D03*
G01X852500Y281805D03*
G54D26*
G01X732511Y581795D03*
G01X1172489Y581795D03*
G04 Pad End*

M02*

