G04 Layer: BottomSolderMaskLayer*
G04 EasyEDA Pro v3.2.135, 2026-06-11 10:07:05*
G04 Gerber Generator version 0.3*
G04 Scale: 100 percent, Rotated: No, Reflected: No*
G04 Dimensions in millimeters*
G04 Leading zeros omitted, absolute positions, 4 integers and 5 decimals*
G04 Generated by one-click*
G04 Object Configs: Pad,Via,Track,Text,Image,Dimension,BoardOutline,BoardCutout,CopperFilled,SolidRegion,FPCStiffener,Line,PlaneZone,ComponentProperty,ComponentSilkscreen,TearDrop*
G04 Layer Configs: 1,2,3,4,5,6,7,8,9,10,11,13,14,56*
G04 Copper Areas: 0*
%FSLAX45Y45*%
%MOMM*%
%AMRoundRect*1,1,$1,$2,$3*1,1,$1,$4,$5*1,1,$1,0-$2,0-$3*1,1,$1,0-$4,0-$5*20,1,$1,$2,$3,$4,$5,0*20,1,$1,$4,$5,0-$2,0-$3,0*20,1,$1,0-$2,0-$3,0-$4,0-$5,0*20,1,$1,0-$4,0-$5,$2,$3,0*4,1,4,$2,$3,$4,$5,0-$2,0-$3,0-$4,0-$5,$2,$3,0*%
%ADD10RoundRect,0.1016X-0.45X-0.4X-0.45X0.4*%
%ADD11RoundRect,0.1016X-0.4X0.45X0.4X0.45*%
%ADD12RoundRect,0.1016X-0.95X0.85X0.95X0.85*%
%ADD13RoundRect,0.1016X-0.40324X0.432X0.40324X0.432*%
%ADD14O,0.37003X1.60002*%
%ADD15O,1.60002X0.37003*%
%ADD16RoundRect,0.1016X-0.7X0.6X0.7X0.6*%
%ADD17RoundRect,0.1016X-0.28283X0.27X0.28283X0.27*%
%ADD18RoundRect,0.1069X-0.55X0.3X0.55X0.3*%
%ADD19RoundRect,0.10201X-0.55X0.3X0.55X0.3*%
%ADD20RoundRect,0.1016X-0.4X-0.4X-0.4X0.4*%
%ADD21O,1.8X1.1*%
%ADD22RoundRect,0.1016X-0.432X-0.40324X-0.432X0.40324*%
%ADD23RoundRect,0.1016X-0.85X0.85X0.85X0.85*%
%ADD24C,1.8016*%
%ADD25RoundRect,0.1016X-0.85X-0.85X-0.85X0.85*%
%ADD26RoundRect,0.1016X-0.7X1.06001X0.7X1.06001*%
%ADD27RoundRect,0.1016X-0.4X0.4X0.4X0.4*%
%ADD28RoundRect,0.1016X-0.62501X0.35X0.62501X0.35*%
%ADD29RoundRect,0.1016X-0.27X-0.28283X-0.27X0.28283*%
%ADD30RoundRect,0.1016X-0.6X-0.3X-0.6X0.3*%
%ADD31RoundRect,0.1016X-1.2X-1.65X-1.2X1.65*%
G75*


G04 Pad Start*
G54D10*
G01X447059Y1073003D03*
G01X447059Y1213007D03*
G01X664473Y1073003D03*
G01X664473Y1213007D03*
G01X881887Y1073003D03*
G01X881887Y1213007D03*
G01X1099301Y1073003D03*
G01X1099301Y1213007D03*
G01X1316714Y1073003D03*
G01X1316714Y1213007D03*
G01X1534128Y1073003D03*
G01X1534128Y1213007D03*
G54D11*
G01X-705002Y-1168400D03*
G01X-564998Y-1168400D03*
G54D10*
G01X-1930400Y272898D03*
G01X-1930400Y412902D03*
G01X-1244600Y82398D03*
G01X-1244600Y222402D03*
G54D12*
G01X-9364Y-826698D03*
G01X-829378Y-826698D03*
G54D13*
G01X-229464Y-1168400D03*
G01X-380136Y-1168400D03*
G54D14*
G01X-1926006Y-273507D03*
G01X-1875993Y-273507D03*
G01X-1826006Y-273507D03*
G01X-1775993Y-273507D03*
G01X-1726006Y-273507D03*
G01X-1675994Y-273507D03*
G01X-1626006Y-273507D03*
G01X-1575994Y-273507D03*
G01X-1526007Y-273507D03*
G01X-1475994Y-273507D03*
G01X-1426007Y-273507D03*
G01X-1375994Y-273507D03*
G54D15*
G01X-1226007Y-423494D03*
G01X-1226007Y-473507D03*
G01X-1226007Y-523494D03*
G01X-1226007Y-573507D03*
G01X-1226007Y-623494D03*
G01X-1226007Y-673506D03*
G01X-1226007Y-723494D03*
G01X-1226007Y-773506D03*
G01X-1226007Y-823493D03*
G01X-1226007Y-873506D03*
G01X-1226007Y-923493D03*
G01X-1226007Y-973506D03*
G54D14*
G01X-1375994Y-1123493D03*
G01X-1426007Y-1123493D03*
G01X-1475994Y-1123493D03*
G01X-1526007Y-1123493D03*
G01X-1575994Y-1123493D03*
G01X-1626006Y-1123493D03*
G01X-1675994Y-1123493D03*
G01X-1726006Y-1123493D03*
G01X-1775993Y-1123493D03*
G01X-1826006Y-1123493D03*
G01X-1875993Y-1123493D03*
G01X-1926006Y-1123493D03*
G54D15*
G01X-2075993Y-973506D03*
G01X-2075993Y-923493D03*
G01X-2075993Y-873506D03*
G01X-2075993Y-823493D03*
G01X-2075993Y-773506D03*
G01X-2075993Y-723494D03*
G01X-2075993Y-673506D03*
G01X-2075993Y-623494D03*
G01X-2075993Y-573507D03*
G01X-2075993Y-523494D03*
G01X-2075993Y-473507D03*
G01X-2075993Y-423494D03*
G54D16*
G01X-1697507Y135801D03*
G01X-1477493Y135801D03*
G01X-1477493Y-34201D03*
G01X-1697507Y-34201D03*
G54D10*
G01X76200Y997102D03*
G01X76200Y857098D03*
G54D11*
G01X-336702Y1282700D03*
G01X-196698Y1282700D03*
G54D17*
G01X1722018Y1181100D03*
G01X1808582Y1181100D03*
G54D19*
G01X-350901Y1110996D03*
G01X-350901Y1016000D03*
G01X-350901Y921004D03*
G01X-80899Y921004D03*
G01X-80899Y1016000D03*
G01X-80899Y1110996D03*
G54D10*
G01X-1930400Y-57302D03*
G01X-1930400Y82702D03*
G54D11*
G01X-2152498Y-63500D03*
G01X-2292502Y-63500D03*
G54D20*
G01X1883347Y1015662D03*
G01X1723454Y1016348D03*
G54D21*
G01X479158Y-457009D03*
G01X479158Y-1320990D03*
G01X99149Y-457009D03*
G01X99149Y-1320990D03*
G54D22*
G01X-2286000Y-405536D03*
G01X-2286000Y-254864D03*
G54D13*
G01X-1027836Y-1168400D03*
G01X-877164Y-1168400D03*
G54D23*
G01X-1143000Y952500D03*
G54D24*
G01X-1143000Y698500D03*
G01X-1397000Y952500D03*
G01X-1397000Y698500D03*
G01X-1651000Y952500D03*
G01X-1651000Y698500D03*
G01X-1905000Y952500D03*
G01X-1905000Y698500D03*
G54D25*
G01X-2235944Y212662D03*
G54D24*
G01X-2235944Y466662D03*
G01X-2235944Y720662D03*
G01X-2235944Y974662D03*
G54D23*
G01X-2235200Y1270000D03*
G54D24*
G01X-1981200Y1270000D03*
G01X-1727200Y1270000D03*
G01X-1473200Y1270000D03*
G54D10*
G01X838200Y501498D03*
G01X838200Y641502D03*
G01X1016000Y501498D03*
G01X1016000Y641502D03*
G01X304800Y6502D03*
G01X304800Y-133502D03*
G01X647700Y6502D03*
G01X647700Y-133502D03*
G01X1968500Y247498D03*
G01X1968500Y387502D03*
G54D11*
G01X1568298Y584200D03*
G01X1708302Y584200D03*
G54D26*
G01X659994Y330200D03*
G01X254406Y330200D03*
G54D27*
G01X1358562Y504254D03*
G01X1359248Y664147D03*
G54D28*
G01X468300Y-603504D03*
G01X468300Y-793496D03*
G01X268300Y-698500D03*
G54D22*
G01X482600Y11836D03*
G01X482600Y-138836D03*
G54D13*
G01X1562964Y406400D03*
G01X1713636Y406400D03*
G54D22*
G01X635000Y-623164D03*
G01X635000Y-773836D03*
G54D13*
G01X1713636Y241300D03*
G01X1562964Y241300D03*
G01X1713636Y88900D03*
G01X1562964Y88900D03*
G01X1713636Y-63500D03*
G01X1562964Y-63500D03*
G54D29*
G01X1193800Y502818D03*
G01X1193800Y589382D03*
G54D30*
G01X1408430Y330200D03*
G01X1408430Y203200D03*
G01X1408430Y76200D03*
G01X1408430Y-50800D03*
G01X826770Y-50800D03*
G01X826770Y76200D03*
G01X826770Y203200D03*
G01X826770Y330200D03*
G54D31*
G01X1117600Y139700D03*
G54D22*
G01X-2286000Y-585064D03*
G01X-2286000Y-735736D03*
G01X-2286000Y-1281836D03*
G01X-2286000Y-1131164D03*
G54D10*
G01X-889000Y-514502D03*
G01X-889000Y-374498D03*
G01X-1244600Y-235102D03*
G01X-1244600Y-95098D03*
G54D13*
G01X-926236Y-215900D03*
G01X-775564Y-215900D03*
G01X-926236Y-63500D03*
G01X-775564Y-63500D03*
G01X-710336Y-368300D03*
G01X-559664Y-368300D03*
G01X-559664Y-520700D03*
G01X-710336Y-520700D03*
G54D11*
G01X857098Y825500D03*
G01X997102Y825500D03*
G01X1174598Y825500D03*
G01X1314602Y825500D03*
G04 Pad End*

M02*

