G04 Layer: DrillDrawingLayer*
G04 EasyEDA Pro v3.2.135, 2026-06-11 10:07:05*
G04 Gerber Generator version 0.3*
G04 Scale: 100 percent, Rotated: No, Reflected: No*
G04 Dimensions in millimeters*
G04 Leading zeros omitted, absolute positions, 4 integers and 5 decimals*
G04 Generated by one-click*
G04 Object Configs: Pad,Via,Track,Text,Image,Dimension,BoardOutline,BoardCutout,CopperFilled,SolidRegion,FPCStiffener,Line,PlaneZone,ComponentProperty,ComponentSilkscreen,TearDrop*
G04 Layer Configs: 1,2,3,4,5,6,7,8,9,10,11,13,14,56*
G04 Copper Areas: 0*
%FSLAX45Y45*%
%MOMM*%
%AMIconRect*4,1,4,0.28,-0.28,-0.28,-0.28,-0.28,0.28,0.28,0.28,0.28,-0.28,0*4,0,4,0.233333,-0.233333,0.233333,0.233333,-0.233333,0.233333,-0.233333,-0.233333,0.233333,-0.233333,0*%
%AMIconTriangle*4,1,3,-0.339593,0.240473,0.339593,0.240473,0,-0.37884,-0.339593,0.240473,0*4,0,3,-0.265673,0.19404,0,-0.27342,0.266233,0.19404,-0.265673,0.19404,0*%
%AMIconStar6*4,1,12,0.12068,0.20888,0.298527,0.172713,0.241313,0,0.298527,-0.17206,0.12068,-0.208227,0,-0.344073,-0.120073,-0.208227,-0.298573,-0.17206,-0.240707,0,-0.298573,0.17206,-0.120073,0.20888,0,0.344073,0.12068,0.20888,0*4,0,12,-0.000467,0.273467,-0.090067,0.171733,-0.237533,0.136733,-0.193667,-0.007467,-0.237533,-0.1372,-0.090067,-0.171733,-0.000467,-0.273933,0.090067,-0.171733,0.237533,-0.1372,0.194133,0.007,0.237533,0.1372,0.090067,0.171267,-0.000467,0.273467,0*%
%ADD10IconRect*%
%ADD11C,0.616X0.522667*%
%ADD12IconTriangle*%
%ADD13IconStar6*%
%ADD14C,0.2032*%
%ADD15C,0.254*%
G75*


G04 Drill Drawing Start*
G54D10*
G01X-634382Y-826698D03*
G01X-204360Y-826698D03*
G54D11*
G01X99149Y-1320990D03*
G01X99149Y-457009D03*
G01X479158Y-1320990D03*
G01X479158Y-457009D03*
G54D12*
G01X-2235944Y212662D03*
G01X-2235944Y466662D03*
G01X-2235944Y720662D03*
G01X-2235944Y974662D03*
G01X-2235200Y1270000D03*
G01X-1981200Y1270000D03*
G01X-1905000Y698500D03*
G01X-1905000Y952500D03*
G01X-1727200Y1270000D03*
G01X-1651000Y698500D03*
G01X-1651000Y952500D03*
G01X-1473200Y1270000D03*
G01X-1397000Y698500D03*
G01X-1397000Y952500D03*
G01X-1143000Y698500D03*
G01X-1143000Y952500D03*
G54D13*
G01X-2298700Y-1028700D03*
G01X-2065000Y1125200D03*
G01X-2057400Y-165100D03*
G01X-1943100Y-1320800D03*
G01X-1930400Y-749300D03*
G01X-1930400Y-635000D03*
G01X-1917700Y-508000D03*
G01X-1790700Y-1257300D03*
G01X-1790700Y1092200D03*
G01X-1752600Y-939800D03*
G01X-1631950Y-438150D03*
G01X-1600200Y-939800D03*
G01X-1600200Y508000D03*
G01X-1574800Y-825500D03*
G01X-1536700Y1092200D03*
G01X-1498600Y-952500D03*
G01X-1485900Y-457200D03*
G01X-1473200Y-1262400D03*
G01X-1447800Y342900D03*
G01X-1409700Y-762000D03*
G01X-1397000Y-558800D03*
G01X-1375994Y-444500D03*
G01X-1155700Y-342900D03*
G01X-1143000Y-1041400D03*
G01X-1079500Y-368300D03*
G01X-1079500Y-88900D03*
G01X-1049000Y1125200D03*
G01X-1041400Y-823493D03*
G01X-1021347Y-540753D03*
G01X-1016000Y-1003300D03*
G01X-923949Y288949D03*
G01X-850900Y-693400D03*
G01X-838200Y774700D03*
G01X-825500Y-1016000D03*
G01X-685800Y292100D03*
G01X-685800Y1181100D03*
G01X-596900Y-998200D03*
G01X-571500Y88900D03*
G01X-558800Y-38100D03*
G01X-419100Y-1066800D03*
G01X-381000Y139700D03*
G01X-377157Y-431800D03*
G01X-254000Y-127000D03*
G01X-203200Y-723900D03*
G01X-190500Y-939800D03*
G01X-190500Y393700D03*
G01X-190500Y774700D03*
G01X-186245Y215301D03*
G01X-101600Y-292100D03*
G01X-101600Y-127000D03*
G01X-63500Y381000D03*
G01X127000Y-114300D03*
G01X152400Y1130300D03*
G01X228600Y-508000D03*
G01X387872Y510306D03*
G01X475000Y-906800D03*
G01X583202Y718800D03*
G01X647700Y-368300D03*
G01X736600Y-228600D03*
G01X736600Y736600D03*
G01X805361Y-165100D03*
G01X1041400Y-152400D03*
G01X1244600Y952500D03*
G01X1270000Y-63500D03*
G01X1308100Y381000D03*
G01X1473200Y863600D03*
G01X1574800Y736600D03*
G01X1625600Y914400D03*
G01X1816100Y-165100D03*
G01X1879600Y-101600D03*
G04 Drill Drawing End*

G04 Text Start*
G54D14*
G01X4734590Y1219633D02*
G01X4734590Y1099491D01*
G01X4734590Y1219633D02*
G01X4780310Y1099491D01*
G01X4826030Y1219633D02*
G01X4780310Y1099491D01*
G01X4826030Y1219633D02*
G01X4826030Y1099491D01*
G01X4942362Y1179501D02*
G01X4942362Y1099491D01*
G01X4942362Y1162483D02*
G01X4930932Y1173913D01*
G01X4919502Y1179501D01*
G01X4902484Y1179501D01*
G01X4891054Y1173913D01*
G01X4879624Y1162483D01*
G01X4873782Y1145211D01*
G01X4873782Y1133781D01*
G01X4879624Y1116763D01*
G01X4891054Y1105333D01*
G01X4902484Y1099491D01*
G01X4919502Y1099491D01*
G01X4930932Y1105333D01*
G01X4942362Y1116763D01*
G01X4990114Y1179501D02*
G01X4990114Y1099491D01*
G01X4990114Y1145211D02*
G01X4995956Y1162483D01*
G01X5007386Y1173913D01*
G01X5018816Y1179501D01*
G01X5035834Y1179501D01*
G01X5083586Y1219633D02*
G01X5083586Y1099491D01*
G01X5140736Y1179501D02*
G01X5083586Y1122351D01*
G01X5106446Y1145211D02*
G01X5146578Y1099491D01*
G01X6271870Y1190931D02*
G01X6266028Y1202361D01*
G01X6254598Y1213791D01*
G01X6243168Y1219633D01*
G01X6220308Y1219633D01*
G01X6208878Y1213791D01*
G01X6197448Y1202361D01*
G01X6191860Y1190931D01*
G01X6186018Y1173913D01*
G01X6186018Y1145211D01*
G01X6191860Y1128193D01*
G01X6197448Y1116763D01*
G01X6208878Y1105333D01*
G01X6220308Y1099491D01*
G01X6243168Y1099491D01*
G01X6254598Y1105333D01*
G01X6266028Y1116763D01*
G01X6271870Y1128193D01*
G01X6348324Y1179501D02*
G01X6336894Y1173913D01*
G01X6325464Y1162483D01*
G01X6319622Y1145211D01*
G01X6319622Y1133781D01*
G01X6325464Y1116763D01*
G01X6336894Y1105333D01*
G01X6348324Y1099491D01*
G01X6365342Y1099491D01*
G01X6376772Y1105333D01*
G01X6388202Y1116763D01*
G01X6394044Y1133781D01*
G01X6394044Y1145211D01*
G01X6388202Y1162483D01*
G01X6376772Y1173913D01*
G01X6365342Y1179501D01*
G01X6348324Y1179501D01*
G01X6441796Y1179501D02*
G01X6441796Y1122351D01*
G01X6447638Y1105333D01*
G01X6459068Y1099491D01*
G01X6476086Y1099491D01*
G01X6487516Y1105333D01*
G01X6504788Y1122351D01*
G01X6504788Y1179501D02*
G01X6504788Y1099491D01*
G01X6552540Y1179501D02*
G01X6552540Y1099491D01*
G01X6552540Y1156641D02*
G01X6569812Y1173913D01*
G01X6581242Y1179501D01*
G01X6598260Y1179501D01*
G01X6609690Y1173913D01*
G01X6615532Y1156641D01*
G01X6615532Y1099491D01*
G01X6680556Y1219633D02*
G01X6680556Y1122351D01*
G01X6686144Y1105333D01*
G01X6697574Y1099491D01*
G01X6709004Y1099491D01*
G01X6663284Y1179501D02*
G01X6703416Y1179501D01*
G01X7680191Y1202361D02*
G01X7668761Y1213791D01*
G01X7651743Y1219633D01*
G01X7628883Y1219633D01*
G01X7611611Y1213791D01*
G01X7600181Y1202361D01*
G01X7600181Y1190931D01*
G01X7606023Y1179501D01*
G01X7611611Y1173913D01*
G01X7623041Y1168071D01*
G01X7657331Y1156641D01*
G01X7668761Y1151053D01*
G01X7674603Y1145211D01*
G01X7680191Y1133781D01*
G01X7680191Y1116763D01*
G01X7668761Y1105333D01*
G01X7651743Y1099491D01*
G01X7628883Y1099491D01*
G01X7611611Y1105333D01*
G01X7600181Y1116763D01*
G01X7727943Y1219633D02*
G01X7733785Y1213791D01*
G01X7739373Y1219633D01*
G01X7733785Y1225221D01*
G01X7727943Y1219633D01*
G01X7733785Y1179501D02*
G01X7733785Y1099491D01*
G01X7850117Y1179501D02*
G01X7787125Y1099491D01*
G01X7787125Y1179501D02*
G01X7850117Y1179501D01*
G01X7787125Y1099491D02*
G01X7850117Y1099491D01*
G01X7897869Y1145211D02*
G01X7966449Y1145211D01*
G01X7966449Y1156641D01*
G01X7960861Y1168071D01*
G01X7955019Y1173913D01*
G01X7943589Y1179501D01*
G01X7926571Y1179501D01*
G01X7915141Y1173913D01*
G01X7903711Y1162483D01*
G01X7897869Y1145211D01*
G01X7897869Y1133781D01*
G01X7903711Y1116763D01*
G01X7915141Y1105333D01*
G01X7926571Y1099491D01*
G01X7943589Y1099491D01*
G01X7955019Y1105333D01*
G01X7966449Y1116763D01*
G01X11379847Y1219633D02*
G01X11379847Y1099491D01*
G01X11379847Y1219633D02*
G01X11431409Y1219633D01*
G01X11448427Y1213791D01*
G01X11454269Y1208203D01*
G01X11459857Y1196773D01*
G01X11459857Y1179501D01*
G01X11454269Y1168071D01*
G01X11448427Y1162483D01*
G01X11431409Y1156641D01*
G01X11379847Y1156641D01*
G01X11507609Y1219633D02*
G01X11507609Y1099491D01*
G01X11623941Y1179501D02*
G01X11623941Y1099491D01*
G01X11623941Y1162483D02*
G01X11612511Y1173913D01*
G01X11601081Y1179501D01*
G01X11584063Y1179501D01*
G01X11572633Y1173913D01*
G01X11561203Y1162483D01*
G01X11555361Y1145211D01*
G01X11555361Y1133781D01*
G01X11561203Y1116763D01*
G01X11572633Y1105333D01*
G01X11584063Y1099491D01*
G01X11601081Y1099491D01*
G01X11612511Y1105333D01*
G01X11623941Y1116763D01*
G01X11688965Y1219633D02*
G01X11688965Y1122351D01*
G01X11694553Y1105333D01*
G01X11705983Y1099491D01*
G01X11717413Y1099491D01*
G01X11671693Y1179501D02*
G01X11711825Y1179501D01*
G01X11765165Y1145211D02*
G01X11833745Y1145211D01*
G01X11833745Y1156641D01*
G01X11828157Y1168071D01*
G01X11822315Y1173913D01*
G01X11810885Y1179501D01*
G01X11793867Y1179501D01*
G01X11782437Y1173913D01*
G01X11771007Y1162483D01*
G01X11765165Y1145211D01*
G01X11765165Y1133781D01*
G01X11771007Y1116763D01*
G01X11782437Y1105333D01*
G01X11793867Y1099491D01*
G01X11810885Y1099491D01*
G01X11822315Y1105333D01*
G01X11833745Y1116763D01*
G01X11950077Y1219633D02*
G01X11950077Y1099491D01*
G01X11950077Y1162483D02*
G01X11938647Y1173913D01*
G01X11927217Y1179501D01*
G01X11910199Y1179501D01*
G01X11898769Y1173913D01*
G01X11887339Y1162483D01*
G01X11881497Y1145211D01*
G01X11881497Y1133781D01*
G01X11887339Y1116763D01*
G01X11898769Y1105333D01*
G01X11910199Y1099491D01*
G01X11927217Y1099491D01*
G01X11938647Y1105333D01*
G01X11950077Y1116763D01*
G01X12921264Y1202361D02*
G01X12909834Y1213791D01*
G01X12892816Y1219633D01*
G01X12869956Y1219633D01*
G01X12852684Y1213791D01*
G01X12841254Y1202361D01*
G01X12841254Y1190931D01*
G01X12847096Y1179501D01*
G01X12852684Y1173913D01*
G01X12864114Y1168071D01*
G01X12898404Y1156641D01*
G01X12909834Y1151053D01*
G01X12915676Y1145211D01*
G01X12921264Y1133781D01*
G01X12921264Y1116763D01*
G01X12909834Y1105333D01*
G01X12892816Y1099491D01*
G01X12869956Y1099491D01*
G01X12852684Y1105333D01*
G01X12841254Y1116763D01*
G01X12969016Y1219633D02*
G01X12969016Y1099491D01*
G01X12969016Y1156641D02*
G01X12986288Y1173913D01*
G01X12997718Y1179501D01*
G01X13014736Y1179501D01*
G01X13026166Y1173913D01*
G01X13032008Y1156641D01*
G01X13032008Y1099491D01*
G01X13148340Y1179501D02*
G01X13148340Y1099491D01*
G01X13148340Y1162483D02*
G01X13136910Y1173913D01*
G01X13125480Y1179501D01*
G01X13108462Y1179501D01*
G01X13097032Y1173913D01*
G01X13085602Y1162483D01*
G01X13079760Y1145211D01*
G01X13079760Y1133781D01*
G01X13085602Y1116763D01*
G01X13097032Y1105333D01*
G01X13108462Y1099491D01*
G01X13125480Y1099491D01*
G01X13136910Y1105333D01*
G01X13148340Y1116763D01*
G01X13196092Y1179501D02*
G01X13196092Y1059613D01*
G01X13196092Y1162483D02*
G01X13207522Y1173913D01*
G01X13218952Y1179501D01*
G01X13236224Y1179501D01*
G01X13247654Y1173913D01*
G01X13259084Y1162483D01*
G01X13264672Y1145211D01*
G01X13264672Y1133781D01*
G01X13259084Y1116763D01*
G01X13247654Y1105333D01*
G01X13236224Y1099491D01*
G01X13218952Y1099491D01*
G01X13207522Y1105333D01*
G01X13196092Y1116763D01*
G01X13312424Y1145211D02*
G01X13381004Y1145211D01*
G01X13381004Y1156641D01*
G01X13375416Y1168071D01*
G01X13369574Y1173913D01*
G01X13358144Y1179501D01*
G01X13341126Y1179501D01*
G01X13329696Y1173913D01*
G01X13318266Y1162483D01*
G01X13312424Y1145211D01*
G01X13312424Y1133781D01*
G01X13318266Y1116763D01*
G01X13329696Y1105333D01*
G01X13341126Y1099491D01*
G01X13358144Y1099491D01*
G01X13369574Y1105333D01*
G01X13381004Y1116763D01*
G01X14272435Y1219633D02*
G01X14318155Y1099491D01*
G01X14363875Y1219633D02*
G01X14318155Y1099491D01*
G01X14411627Y1219633D02*
G01X14417469Y1213791D01*
G01X14423057Y1219633D01*
G01X14417469Y1225221D01*
G01X14411627Y1219633D01*
G01X14417469Y1179501D02*
G01X14417469Y1099491D01*
G01X14539389Y1179501D02*
G01X14539389Y1099491D01*
G01X14539389Y1162483D02*
G01X14527959Y1173913D01*
G01X14516529Y1179501D01*
G01X14499511Y1179501D01*
G01X14488081Y1173913D01*
G01X14476651Y1162483D01*
G01X14470809Y1145211D01*
G01X14470809Y1133781D01*
G01X14476651Y1116763D01*
G01X14488081Y1105333D01*
G01X14499511Y1099491D01*
G01X14516529Y1099491D01*
G01X14527959Y1105333D01*
G01X14539389Y1116763D01*
G01X14690011Y1242493D02*
G01X14587141Y1059613D01*
G01X14737763Y1219633D02*
G01X14737763Y1099491D01*
G01X14737763Y1219633D02*
G01X14789325Y1219633D01*
G01X14806343Y1213791D01*
G01X14812185Y1208203D01*
G01X14817773Y1196773D01*
G01X14817773Y1179501D01*
G01X14812185Y1168071D01*
G01X14806343Y1162483D01*
G01X14789325Y1156641D01*
G01X14737763Y1156641D01*
G01X14934105Y1179501D02*
G01X14934105Y1099491D01*
G01X14934105Y1162483D02*
G01X14922675Y1173913D01*
G01X14911245Y1179501D01*
G01X14894227Y1179501D01*
G01X14882797Y1173913D01*
G01X14871367Y1162483D01*
G01X14865525Y1145211D01*
G01X14865525Y1133781D01*
G01X14871367Y1116763D01*
G01X14882797Y1105333D01*
G01X14894227Y1099491D01*
G01X14911245Y1099491D01*
G01X14922675Y1105333D01*
G01X14934105Y1116763D01*
G01X15050437Y1219633D02*
G01X15050437Y1099491D01*
G01X15050437Y1162483D02*
G01X15039007Y1173913D01*
G01X15027577Y1179501D01*
G01X15010559Y1179501D01*
G01X14999129Y1173913D01*
G01X14987699Y1162483D01*
G01X14981857Y1145211D01*
G01X14981857Y1133781D01*
G01X14987699Y1116763D01*
G01X14999129Y1105333D01*
G01X15010559Y1099491D01*
G01X15027577Y1099491D01*
G01X15039007Y1105333D01*
G01X15050437Y1116763D01*
G01X15941614Y1219633D02*
G01X15941614Y1099491D01*
G01X15941614Y1219633D02*
G01X15993176Y1219633D01*
G01X16010194Y1213791D01*
G01X16016036Y1208203D01*
G01X16021624Y1196773D01*
G01X16021624Y1179501D01*
G01X16016036Y1168071D01*
G01X16010194Y1162483D01*
G01X15993176Y1156641D01*
G01X15941614Y1156641D01*
G01X16137956Y1179501D02*
G01X16137956Y1099491D01*
G01X16137956Y1162483D02*
G01X16126526Y1173913D01*
G01X16115096Y1179501D01*
G01X16098078Y1179501D01*
G01X16086648Y1173913D01*
G01X16075218Y1162483D01*
G01X16069376Y1145211D01*
G01X16069376Y1133781D01*
G01X16075218Y1116763D01*
G01X16086648Y1105333D01*
G01X16098078Y1099491D01*
G01X16115096Y1099491D01*
G01X16126526Y1105333D01*
G01X16137956Y1116763D01*
G01X16254288Y1219633D02*
G01X16254288Y1099491D01*
G01X16254288Y1162483D02*
G01X16242858Y1173913D01*
G01X16231428Y1179501D01*
G01X16214410Y1179501D01*
G01X16202980Y1173913D01*
G01X16191550Y1162483D01*
G01X16185708Y1145211D01*
G01X16185708Y1133781D01*
G01X16191550Y1116763D01*
G01X16202980Y1105333D01*
G01X16214410Y1099491D01*
G01X16231428Y1099491D01*
G01X16242858Y1105333D01*
G01X16254288Y1116763D01*
G01X16510066Y1202361D02*
G01X16498636Y1213791D01*
G01X16481618Y1219633D01*
G01X16458758Y1219633D01*
G01X16441486Y1213791D01*
G01X16430056Y1202361D01*
G01X16430056Y1190931D01*
G01X16435898Y1179501D01*
G01X16441486Y1173913D01*
G01X16452916Y1168071D01*
G01X16487206Y1156641D01*
G01X16498636Y1151053D01*
G01X16504478Y1145211D01*
G01X16510066Y1133781D01*
G01X16510066Y1116763D01*
G01X16498636Y1105333D01*
G01X16481618Y1099491D01*
G01X16458758Y1099491D01*
G01X16441486Y1105333D01*
G01X16430056Y1116763D01*
G01X16557818Y1219633D02*
G01X16557818Y1099491D01*
G01X16557818Y1156641D02*
G01X16575090Y1173913D01*
G01X16586520Y1179501D01*
G01X16603538Y1179501D01*
G01X16614968Y1173913D01*
G01X16620810Y1156641D01*
G01X16620810Y1099491D01*
G01X16737142Y1179501D02*
G01X16737142Y1099491D01*
G01X16737142Y1162483D02*
G01X16725712Y1173913D01*
G01X16714282Y1179501D01*
G01X16697264Y1179501D01*
G01X16685834Y1173913D01*
G01X16674404Y1162483D01*
G01X16668562Y1145211D01*
G01X16668562Y1133781D01*
G01X16674404Y1116763D01*
G01X16685834Y1105333D01*
G01X16697264Y1099491D01*
G01X16714282Y1099491D01*
G01X16725712Y1105333D01*
G01X16737142Y1116763D01*
G01X16784894Y1179501D02*
G01X16784894Y1059613D01*
G01X16784894Y1162483D02*
G01X16796324Y1173913D01*
G01X16807754Y1179501D01*
G01X16825026Y1179501D01*
G01X16836456Y1173913D01*
G01X16847886Y1162483D01*
G01X16853474Y1145211D01*
G01X16853474Y1133781D01*
G01X16847886Y1116763D01*
G01X16836456Y1105333D01*
G01X16825026Y1099491D01*
G01X16807754Y1099491D01*
G01X16796324Y1105333D01*
G01X16784894Y1116763D01*
G01X16901226Y1145211D02*
G01X16969806Y1145211D01*
G01X16969806Y1156641D01*
G01X16964218Y1168071D01*
G01X16958376Y1173913D01*
G01X16946946Y1179501D01*
G01X16929928Y1179501D01*
G01X16918498Y1173913D01*
G01X16907068Y1162483D01*
G01X16901226Y1145211D01*
G01X16901226Y1133781D01*
G01X16907068Y1116763D01*
G01X16918498Y1105333D01*
G01X16929928Y1099491D01*
G01X16946946Y1099491D01*
G01X16958376Y1105333D01*
G01X16969806Y1116763D01*
G01X17860983Y1219633D02*
G01X17860983Y1099491D01*
G01X17860983Y1099491D02*
G01X17929563Y1099491D01*
G01X18045895Y1179501D02*
G01X18045895Y1099491D01*
G01X18045895Y1162483D02*
G01X18034465Y1173913D01*
G01X18023035Y1179501D01*
G01X18006017Y1179501D01*
G01X17994587Y1173913D01*
G01X17983157Y1162483D01*
G01X17977315Y1145211D01*
G01X17977315Y1133781D01*
G01X17983157Y1116763D01*
G01X17994587Y1105333D01*
G01X18006017Y1099491D01*
G01X18023035Y1099491D01*
G01X18034465Y1105333D01*
G01X18045895Y1116763D01*
G01X18099489Y1179501D02*
G01X18133779Y1099491D01*
G01X18168069Y1179501D02*
G01X18133779Y1099491D01*
G01X18122349Y1076631D01*
G01X18110919Y1065201D01*
G01X18099489Y1059613D01*
G01X18093647Y1059613D01*
G01X18215821Y1145211D02*
G01X18284401Y1145211D01*
G01X18284401Y1156641D01*
G01X18278813Y1168071D01*
G01X18272971Y1173913D01*
G01X18261541Y1179501D01*
G01X18244523Y1179501D01*
G01X18233093Y1173913D01*
G01X18221663Y1162483D01*
G01X18215821Y1145211D01*
G01X18215821Y1133781D01*
G01X18221663Y1116763D01*
G01X18233093Y1105333D01*
G01X18244523Y1099491D01*
G01X18261541Y1099491D01*
G01X18272971Y1105333D01*
G01X18284401Y1116763D01*
G01X18332153Y1179501D02*
G01X18332153Y1099491D01*
G01X18332153Y1145211D02*
G01X18337995Y1162483D01*
G01X18349425Y1173913D01*
G01X18360855Y1179501D01*
G01X18377873Y1179501D01*
G01X18553641Y1219633D02*
G01X18553641Y1099491D01*
G01X18553641Y1219633D02*
G01X18605203Y1219633D01*
G01X18622221Y1213791D01*
G01X18628063Y1208203D01*
G01X18633651Y1196773D01*
G01X18633651Y1179501D01*
G01X18628063Y1168071D01*
G01X18622221Y1162483D01*
G01X18605203Y1156641D01*
G01X18553641Y1156641D01*
G01X18749983Y1179501D02*
G01X18749983Y1099491D01*
G01X18749983Y1162483D02*
G01X18738553Y1173913D01*
G01X18727123Y1179501D01*
G01X18710105Y1179501D01*
G01X18698675Y1173913D01*
G01X18687245Y1162483D01*
G01X18681403Y1145211D01*
G01X18681403Y1133781D01*
G01X18687245Y1116763D01*
G01X18698675Y1105333D01*
G01X18710105Y1099491D01*
G01X18727123Y1099491D01*
G01X18738553Y1105333D01*
G01X18749983Y1116763D01*
G01X18797735Y1219633D02*
G01X18803577Y1213791D01*
G01X18809165Y1219633D01*
G01X18803577Y1225221D01*
G01X18797735Y1219633D01*
G01X18803577Y1179501D02*
G01X18803577Y1099491D01*
G01X18856917Y1179501D02*
G01X18856917Y1099491D01*
G01X18856917Y1145211D02*
G01X18862759Y1162483D01*
G01X18874189Y1173913D01*
G01X18885619Y1179501D01*
G01X18902637Y1179501D01*
G01X6191860Y610359D02*
G01X6191860Y616201D01*
G01X6197448Y627631D01*
G01X6203290Y633219D01*
G01X6214720Y639061D01*
G01X6237580Y639061D01*
G01X6249010Y633219D01*
G01X6254598Y627631D01*
G01X6260440Y616201D01*
G01X6260440Y604771D01*
G01X6254598Y593341D01*
G01X6243168Y576069D01*
G01X6186018Y518919D01*
G01X6266028Y518919D01*
G01X7611611Y639061D02*
G01X7674603Y639061D01*
G01X7640313Y593341D01*
G01X7657331Y593341D01*
G01X7668761Y587499D01*
G01X7674603Y581911D01*
G01X7680191Y564639D01*
G01X7680191Y553209D01*
G01X7674603Y536191D01*
G01X7663173Y524761D01*
G01X7645901Y518919D01*
G01X7628883Y518919D01*
G01X7611611Y524761D01*
G01X7606023Y530349D01*
G01X7600181Y541779D01*
G01X7802365Y598929D02*
G01X7796523Y581911D01*
G01X7785093Y570481D01*
G01X7768075Y564639D01*
G01X7762233Y564639D01*
G01X7745215Y570481D01*
G01X7733785Y581911D01*
G01X7727943Y598929D01*
G01X7727943Y604771D01*
G01X7733785Y621789D01*
G01X7745215Y633219D01*
G01X7762233Y639061D01*
G01X7768075Y639061D01*
G01X7785093Y633219D01*
G01X7796523Y621789D01*
G01X7802365Y598929D01*
G01X7802365Y570481D01*
G01X7796523Y541779D01*
G01X7785093Y524761D01*
G01X7768075Y518919D01*
G01X7756645Y518919D01*
G01X7739373Y524761D01*
G01X7733785Y536191D01*
G01X7855959Y547621D02*
G01X7850117Y541779D01*
G01X7855959Y536191D01*
G01X7861547Y541779D01*
G01X7855959Y547621D01*
G01X7966449Y639061D02*
G01X7909299Y559051D01*
G01X7995151Y559051D01*
G01X7966449Y639061D02*
G01X7966449Y518919D01*
G01X8042903Y598929D02*
G01X8042903Y518919D01*
G01X8042903Y576069D02*
G01X8060175Y593341D01*
G01X8071605Y598929D01*
G01X8088623Y598929D01*
G01X8100053Y593341D01*
G01X8105895Y576069D01*
G01X8105895Y518919D01*
G01X8105895Y576069D02*
G01X8122913Y593341D01*
G01X8134343Y598929D01*
G01X8151615Y598929D01*
G01X8163045Y593341D01*
G01X8168633Y576069D01*
G01X8168633Y518919D01*
G01X8216385Y639061D02*
G01X8222227Y633219D01*
G01X8227815Y639061D01*
G01X8222227Y644649D01*
G01X8216385Y639061D01*
G01X8222227Y598929D02*
G01X8222227Y518919D01*
G01X8275567Y639061D02*
G01X8275567Y518919D01*
G01X8363451Y661921D02*
G01X8352021Y650491D01*
G01X8340591Y633219D01*
G01X8329161Y610359D01*
G01X8323319Y581911D01*
G01X8323319Y559051D01*
G01X8329161Y530349D01*
G01X8340591Y507489D01*
G01X8352021Y490471D01*
G01X8363451Y479041D01*
G01X8411203Y616201D02*
G01X8422633Y621789D01*
G01X8439905Y639061D01*
G01X8439905Y518919D01*
G01X8493499Y547621D02*
G01X8487657Y541779D01*
G01X8493499Y536191D01*
G01X8499087Y541779D01*
G01X8493499Y547621D01*
G01X8581129Y639061D02*
G01X8564111Y633219D01*
G01X8552681Y616201D01*
G01X8546839Y587499D01*
G01X8546839Y570481D01*
G01X8552681Y541779D01*
G01X8564111Y524761D01*
G01X8581129Y518919D01*
G01X8592559Y518919D01*
G01X8609831Y524761D01*
G01X8621261Y541779D01*
G01X8626849Y570481D01*
G01X8626849Y587499D01*
G01X8621261Y616201D01*
G01X8609831Y633219D01*
G01X8592559Y639061D01*
G01X8581129Y639061D01*
G01X8708891Y639061D02*
G01X8691873Y633219D01*
G01X8680443Y616201D01*
G01X8674601Y587499D01*
G01X8674601Y570481D01*
G01X8680443Y541779D01*
G01X8691873Y524761D01*
G01X8708891Y518919D01*
G01X8720321Y518919D01*
G01X8737593Y524761D01*
G01X8749023Y541779D01*
G01X8754611Y570481D01*
G01X8754611Y587499D01*
G01X8749023Y616201D01*
G01X8737593Y633219D01*
G01X8720321Y639061D01*
G01X8708891Y639061D01*
G01X8836653Y639061D02*
G01X8819635Y633219D01*
G01X8808205Y616201D01*
G01X8802363Y587499D01*
G01X8802363Y570481D01*
G01X8808205Y541779D01*
G01X8819635Y524761D01*
G01X8836653Y518919D01*
G01X8848083Y518919D01*
G01X8865355Y524761D01*
G01X8876785Y541779D01*
G01X8882373Y570481D01*
G01X8882373Y587499D01*
G01X8876785Y616201D01*
G01X8865355Y633219D01*
G01X8848083Y639061D01*
G01X8836653Y639061D01*
G01X8930125Y598929D02*
G01X8930125Y518919D01*
G01X8930125Y576069D02*
G01X8947397Y593341D01*
G01X8958827Y598929D01*
G01X8975845Y598929D01*
G01X8987275Y593341D01*
G01X8993117Y576069D01*
G01X8993117Y518919D01*
G01X8993117Y576069D02*
G01X9010135Y593341D01*
G01X9021565Y598929D01*
G01X9038837Y598929D01*
G01X9050267Y593341D01*
G01X9055855Y576069D01*
G01X9055855Y518919D01*
G01X9103607Y598929D02*
G01X9103607Y518919D01*
G01X9103607Y576069D02*
G01X9120879Y593341D01*
G01X9132309Y598929D01*
G01X9149327Y598929D01*
G01X9160757Y593341D01*
G01X9166599Y576069D01*
G01X9166599Y518919D01*
G01X9166599Y576069D02*
G01X9183617Y593341D01*
G01X9195047Y598929D01*
G01X9212319Y598929D01*
G01X9223749Y593341D01*
G01X9229337Y576069D01*
G01X9229337Y518919D01*
G01X9277089Y661921D02*
G01X9288519Y650491D01*
G01X9299949Y633219D01*
G01X9311379Y610359D01*
G01X9317221Y581911D01*
G01X9317221Y559051D01*
G01X9311379Y530349D01*
G01X9299949Y507489D01*
G01X9288519Y490471D01*
G01X9277089Y479041D01*
G01X11379847Y639061D02*
G01X11379847Y518919D01*
G01X11379847Y639061D02*
G01X11459857Y518919D01*
G01X11459857Y639061D02*
G01X11459857Y518919D01*
G01X11507609Y639061D02*
G01X11507609Y518919D01*
G01X11507609Y639061D02*
G01X11559171Y639061D01*
G01X11576189Y633219D01*
G01X11582031Y627631D01*
G01X11587619Y616201D01*
G01X11587619Y598929D01*
G01X11582031Y587499D01*
G01X11576189Y581911D01*
G01X11559171Y576069D01*
G01X11507609Y576069D01*
G01X11675503Y639061D02*
G01X11675503Y518919D01*
G01X11635371Y639061D02*
G01X11715381Y639061D01*
G01X11763133Y639061D02*
G01X11763133Y518919D01*
G01X11843143Y639061D02*
G01X11843143Y518919D01*
G01X11763133Y581911D02*
G01X11843143Y581911D01*
G01X12841254Y639061D02*
G01X12841254Y518919D01*
G01X12841254Y639061D02*
G01X12892816Y639061D01*
G01X12909834Y633219D01*
G01X12915676Y627631D01*
G01X12921264Y616201D01*
G01X12921264Y604771D01*
G01X12915676Y593341D01*
G01X12909834Y587499D01*
G01X12892816Y581911D01*
G01X12841254Y581911D01*
G01X12881386Y581911D02*
G01X12921264Y518919D01*
G01X12997718Y598929D02*
G01X12986288Y593341D01*
G01X12974858Y581911D01*
G01X12969016Y564639D01*
G01X12969016Y553209D01*
G01X12974858Y536191D01*
G01X12986288Y524761D01*
G01X12997718Y518919D01*
G01X13014736Y518919D01*
G01X13026166Y524761D01*
G01X13037596Y536191D01*
G01X13043438Y553209D01*
G01X13043438Y564639D01*
G01X13037596Y581911D01*
G01X13026166Y593341D01*
G01X13014736Y598929D01*
G01X12997718Y598929D01*
G01X13091190Y598929D02*
G01X13091190Y541779D01*
G01X13097032Y524761D01*
G01X13108462Y518919D01*
G01X13125480Y518919D01*
G01X13136910Y524761D01*
G01X13154182Y541779D01*
G01X13154182Y598929D02*
G01X13154182Y518919D01*
G01X13201934Y598929D02*
G01X13201934Y518919D01*
G01X13201934Y576069D02*
G01X13219206Y593341D01*
G01X13230636Y598929D01*
G01X13247654Y598929D01*
G01X13259084Y593341D01*
G01X13264926Y576069D01*
G01X13264926Y518919D01*
G01X13381258Y639061D02*
G01X13381258Y518919D01*
G01X13381258Y581911D02*
G01X13369828Y593341D01*
G01X13358398Y598929D01*
G01X13341380Y598929D01*
G01X13329950Y593341D01*
G01X13318520Y581911D01*
G01X13312678Y564639D01*
G01X13312678Y553209D01*
G01X13318520Y536191D01*
G01X13329950Y524761D01*
G01X13341380Y518919D01*
G01X13358398Y518919D01*
G01X13369828Y524761D01*
G01X13381258Y536191D01*
G01X14272435Y639061D02*
G01X14318155Y518919D01*
G01X14363875Y639061D02*
G01X14318155Y518919D01*
G01X14411627Y639061D02*
G01X14417469Y633219D01*
G01X14423057Y639061D01*
G01X14417469Y644649D01*
G01X14411627Y639061D01*
G01X14417469Y598929D02*
G01X14417469Y518919D01*
G01X14539389Y598929D02*
G01X14539389Y518919D01*
G01X14539389Y581911D02*
G01X14527959Y593341D01*
G01X14516529Y598929D01*
G01X14499511Y598929D01*
G01X14488081Y593341D01*
G01X14476651Y581911D01*
G01X14470809Y564639D01*
G01X14470809Y553209D01*
G01X14476651Y536191D01*
G01X14488081Y524761D01*
G01X14499511Y518919D01*
G01X14516529Y518919D01*
G01X14527959Y524761D01*
G01X14539389Y536191D01*
G01X17901115Y639061D02*
G01X17901115Y518919D01*
G01X17860983Y639061D02*
G01X17940993Y639061D01*
G01X18017447Y598929D02*
G01X18006017Y593341D01*
G01X17994587Y581911D01*
G01X17988745Y564639D01*
G01X17988745Y553209D01*
G01X17994587Y536191D01*
G01X18006017Y524761D01*
G01X18017447Y518919D01*
G01X18034465Y518919D01*
G01X18045895Y524761D01*
G01X18057325Y536191D01*
G01X18063167Y553209D01*
G01X18063167Y564639D01*
G01X18057325Y581911D01*
G01X18045895Y593341D01*
G01X18034465Y598929D01*
G01X18017447Y598929D01*
G01X18110919Y598929D02*
G01X18110919Y479041D01*
G01X18110919Y581911D02*
G01X18122349Y593341D01*
G01X18133779Y598929D01*
G01X18151051Y598929D01*
G01X18162481Y593341D01*
G01X18173911Y581911D01*
G01X18179499Y564639D01*
G01X18179499Y553209D01*
G01X18173911Y536191D01*
G01X18162481Y524761D01*
G01X18151051Y518919D01*
G01X18133779Y518919D01*
G01X18122349Y524761D01*
G01X18110919Y536191D01*
G01X18355267Y639061D02*
G01X18355267Y518919D01*
G01X18355267Y518919D02*
G01X18423847Y518919D01*
G01X18540179Y598929D02*
G01X18540179Y518919D01*
G01X18540179Y581911D02*
G01X18528749Y593341D01*
G01X18517319Y598929D01*
G01X18500301Y598929D01*
G01X18488871Y593341D01*
G01X18477441Y581911D01*
G01X18471599Y564639D01*
G01X18471599Y553209D01*
G01X18477441Y536191D01*
G01X18488871Y524761D01*
G01X18500301Y518919D01*
G01X18517319Y518919D01*
G01X18528749Y524761D01*
G01X18540179Y536191D01*
G01X18593773Y598929D02*
G01X18628063Y518919D01*
G01X18662353Y598929D02*
G01X18628063Y518919D01*
G01X18616633Y496059D01*
G01X18605203Y484629D01*
G01X18593773Y479041D01*
G01X18587931Y479041D01*
G01X18710105Y564639D02*
G01X18778685Y564639D01*
G01X18778685Y576069D01*
G01X18773097Y587499D01*
G01X18767255Y593341D01*
G01X18755825Y598929D01*
G01X18738807Y598929D01*
G01X18727377Y593341D01*
G01X18715947Y581911D01*
G01X18710105Y564639D01*
G01X18710105Y553209D01*
G01X18715947Y536191D01*
G01X18727377Y524761D01*
G01X18738807Y518919D01*
G01X18755825Y518919D01*
G01X18767255Y524761D01*
G01X18778685Y536191D01*
G01X18826437Y598929D02*
G01X18826437Y518919D01*
G01X18826437Y564639D02*
G01X18832279Y581911D01*
G01X18843709Y593341D01*
G01X18855139Y598929D01*
G01X18872157Y598929D01*
G01X18919909Y570481D02*
G01X19022779Y570481D01*
G01X19070531Y639061D02*
G01X19070531Y518919D01*
G01X19070531Y639061D02*
G01X19122093Y639061D01*
G01X19139111Y633219D01*
G01X19144953Y627631D01*
G01X19150541Y616201D01*
G01X19150541Y604771D01*
G01X19144953Y593341D01*
G01X19139111Y587499D01*
G01X19122093Y581911D01*
G01X19070531Y581911D02*
G01X19122093Y581911D01*
G01X19139111Y576069D01*
G01X19144953Y570481D01*
G01X19150541Y559051D01*
G01X19150541Y541779D01*
G01X19144953Y530349D01*
G01X19139111Y524761D01*
G01X19122093Y518919D01*
G01X19070531Y518919D01*
G01X19226995Y598929D02*
G01X19215565Y593341D01*
G01X19204135Y581911D01*
G01X19198293Y564639D01*
G01X19198293Y553209D01*
G01X19204135Y536191D01*
G01X19215565Y524761D01*
G01X19226995Y518919D01*
G01X19244013Y518919D01*
G01X19255443Y524761D01*
G01X19266873Y536191D01*
G01X19272715Y553209D01*
G01X19272715Y564639D01*
G01X19266873Y581911D01*
G01X19255443Y593341D01*
G01X19244013Y598929D01*
G01X19226995Y598929D01*
G01X19337739Y639061D02*
G01X19337739Y541779D01*
G01X19343327Y524761D01*
G01X19354757Y518919D01*
G01X19366187Y518919D01*
G01X19320467Y598929D02*
G01X19360599Y598929D01*
G01X19431211Y639061D02*
G01X19431211Y541779D01*
G01X19436799Y524761D01*
G01X19448229Y518919D01*
G01X19459659Y518919D01*
G01X19413939Y598929D02*
G01X19454071Y598929D01*
G01X19536113Y598929D02*
G01X19524683Y593341D01*
G01X19513253Y581911D01*
G01X19507411Y564639D01*
G01X19507411Y553209D01*
G01X19513253Y536191D01*
G01X19524683Y524761D01*
G01X19536113Y518919D01*
G01X19553131Y518919D01*
G01X19564561Y524761D01*
G01X19575991Y536191D01*
G01X19581833Y553209D01*
G01X19581833Y564639D01*
G01X19575991Y581911D01*
G01X19564561Y593341D01*
G01X19553131Y598929D01*
G01X19536113Y598929D01*
G01X19629585Y598929D02*
G01X19629585Y518919D01*
G01X19629585Y576069D02*
G01X19646857Y593341D01*
G01X19658287Y598929D01*
G01X19675305Y598929D01*
G01X19686735Y593341D01*
G01X19692577Y576069D01*
G01X19692577Y518919D01*
G01X19692577Y576069D02*
G01X19709595Y593341D01*
G01X19721025Y598929D01*
G01X19738297Y598929D01*
G01X19749727Y593341D01*
G01X19755315Y576069D01*
G01X19755315Y518919D01*
G01X19931083Y639061D02*
G01X19931083Y518919D01*
G01X19931083Y518919D02*
G01X19999663Y518919D01*
G01X20115995Y598929D02*
G01X20115995Y518919D01*
G01X20115995Y581911D02*
G01X20104565Y593341D01*
G01X20093135Y598929D01*
G01X20076117Y598929D01*
G01X20064687Y593341D01*
G01X20053257Y581911D01*
G01X20047415Y564639D01*
G01X20047415Y553209D01*
G01X20053257Y536191D01*
G01X20064687Y524761D01*
G01X20076117Y518919D01*
G01X20093135Y518919D01*
G01X20104565Y524761D01*
G01X20115995Y536191D01*
G01X20169589Y598929D02*
G01X20203879Y518919D01*
G01X20238169Y598929D02*
G01X20203879Y518919D01*
G01X20192449Y496059D01*
G01X20181019Y484629D01*
G01X20169589Y479041D01*
G01X20163747Y479041D01*
G01X20285921Y564639D02*
G01X20354501Y564639D01*
G01X20354501Y576069D01*
G01X20348913Y587499D01*
G01X20343071Y593341D01*
G01X20331641Y598929D01*
G01X20314623Y598929D01*
G01X20303193Y593341D01*
G01X20291763Y581911D01*
G01X20285921Y564639D01*
G01X20285921Y553209D01*
G01X20291763Y536191D01*
G01X20303193Y524761D01*
G01X20314623Y518919D01*
G01X20331641Y518919D01*
G01X20343071Y524761D01*
G01X20354501Y536191D01*
G01X20402253Y598929D02*
G01X20402253Y518919D01*
G01X20402253Y564639D02*
G01X20408095Y581911D01*
G01X20419525Y593341D01*
G01X20430955Y598929D01*
G01X20447973Y598929D01*
G01X6243168Y58490D02*
G01X6186018Y-21520D01*
G01X6271870Y-21520D01*
G01X6243168Y58490D02*
G01X6243168Y-61652D01*
G01X7606023Y29788D02*
G01X7606023Y35630D01*
G01X7611611Y47060D01*
G01X7617453Y52648D01*
G01X7628883Y58490D01*
G01X7651743Y58490D01*
G01X7663173Y52648D01*
G01X7668761Y47060D01*
G01X7674603Y35630D01*
G01X7674603Y24200D01*
G01X7668761Y12770D01*
G01X7657331Y-4502D01*
G01X7600181Y-61652D01*
G01X7680191Y-61652D01*
G01X7739373Y58490D02*
G01X7802365Y58490D01*
G01X7768075Y12770D01*
G01X7785093Y12770D01*
G01X7796523Y6928D01*
G01X7802365Y1340D01*
G01X7807953Y-15932D01*
G01X7807953Y-27362D01*
G01X7802365Y-44380D01*
G01X7790935Y-55810D01*
G01X7773663Y-61652D01*
G01X7756645Y-61652D01*
G01X7739373Y-55810D01*
G01X7733785Y-50222D01*
G01X7727943Y-38792D01*
G01X7861547Y-32950D02*
G01X7855705Y-38792D01*
G01X7861547Y-44380D01*
G01X7867135Y-38792D01*
G01X7861547Y-32950D01*
G01X7983467Y41218D02*
G01X7977879Y52648D01*
G01X7960607Y58490D01*
G01X7949177Y58490D01*
G01X7932159Y52648D01*
G01X7920729Y35630D01*
G01X7914887Y6928D01*
G01X7914887Y-21520D01*
G01X7920729Y-44380D01*
G01X7932159Y-55810D01*
G01X7949177Y-61652D01*
G01X7955019Y-61652D01*
G01X7972037Y-55810D01*
G01X7983467Y-44380D01*
G01X7989309Y-27362D01*
G01X7989309Y-21520D01*
G01X7983467Y-4502D01*
G01X7972037Y6928D01*
G01X7955019Y12770D01*
G01X7949177Y12770D01*
G01X7932159Y6928D01*
G01X7920729Y-4502D01*
G01X7914887Y-21520D01*
G01X8037061Y18358D02*
G01X8100053Y-61652D01*
G01X8100053Y18358D02*
G01X8037061Y-61652D01*
G01X8216385Y58490D02*
G01X8159235Y58490D01*
G01X8153647Y6928D01*
G01X8159235Y12770D01*
G01X8176507Y18358D01*
G01X8193525Y18358D01*
G01X8210797Y12770D01*
G01X8222227Y1340D01*
G01X8227815Y-15932D01*
G01X8227815Y-27362D01*
G01X8222227Y-44380D01*
G01X8210797Y-55810D01*
G01X8193525Y-61652D01*
G01X8176507Y-61652D01*
G01X8159235Y-55810D01*
G01X8153647Y-50222D01*
G01X8147805Y-38792D01*
G01X8275567Y35630D02*
G01X8286997Y41218D01*
G01X8304269Y58490D01*
G01X8304269Y-61652D01*
G01X8357863Y-32950D02*
G01X8352021Y-38792D01*
G01X8357863Y-44380D01*
G01X8363451Y-38792D01*
G01X8357863Y-32950D01*
G01X8417045Y29788D02*
G01X8417045Y35630D01*
G01X8422633Y47060D01*
G01X8428475Y52648D01*
G01X8439905Y58490D01*
G01X8462765Y58490D01*
G01X8474195Y52648D01*
G01X8479783Y47060D01*
G01X8485625Y35630D01*
G01X8485625Y24200D01*
G01X8479783Y12770D01*
G01X8468353Y-4502D01*
G01X8411203Y-61652D01*
G01X8491213Y-61652D01*
G01X8538965Y18358D02*
G01X8538965Y-61652D01*
G01X8538965Y-4502D02*
G01X8556237Y12770D01*
G01X8567667Y18358D01*
G01X8584685Y18358D01*
G01X8596115Y12770D01*
G01X8601957Y-4502D01*
G01X8601957Y-61652D01*
G01X8601957Y-4502D02*
G01X8618975Y12770D01*
G01X8630405Y18358D01*
G01X8647677Y18358D01*
G01X8659107Y12770D01*
G01X8664695Y-4502D01*
G01X8664695Y-61652D01*
G01X8712447Y58490D02*
G01X8718289Y52648D01*
G01X8723877Y58490D01*
G01X8718289Y64078D01*
G01X8712447Y58490D01*
G01X8718289Y18358D02*
G01X8718289Y-61652D01*
G01X8771629Y58490D02*
G01X8771629Y-61652D01*
G01X8859513Y81350D02*
G01X8848083Y69920D01*
G01X8836653Y52648D01*
G01X8825223Y29788D01*
G01X8819381Y1340D01*
G01X8819381Y-21520D01*
G01X8825223Y-50222D01*
G01X8836653Y-73082D01*
G01X8848083Y-90100D01*
G01X8859513Y-101530D01*
G01X8941555Y58490D02*
G01X8924537Y52648D01*
G01X8913107Y35630D01*
G01X8907265Y6928D01*
G01X8907265Y-10090D01*
G01X8913107Y-38792D01*
G01X8924537Y-55810D01*
G01X8941555Y-61652D01*
G01X8952985Y-61652D01*
G01X8970257Y-55810D01*
G01X8981687Y-38792D01*
G01X8987275Y-10090D01*
G01X8987275Y6928D01*
G01X8981687Y35630D01*
G01X8970257Y52648D01*
G01X8952985Y58490D01*
G01X8941555Y58490D01*
G01X9040869Y-32950D02*
G01X9035027Y-38792D01*
G01X9040869Y-44380D01*
G01X9046457Y-38792D01*
G01X9040869Y-32950D01*
G01X9162789Y41218D02*
G01X9157201Y52648D01*
G01X9139929Y58490D01*
G01X9128499Y58490D01*
G01X9111481Y52648D01*
G01X9100051Y35630D01*
G01X9094209Y6928D01*
G01X9094209Y-21520D01*
G01X9100051Y-44380D01*
G01X9111481Y-55810D01*
G01X9128499Y-61652D01*
G01X9134341Y-61652D01*
G01X9151359Y-55810D01*
G01X9162789Y-44380D01*
G01X9168631Y-27362D01*
G01X9168631Y-21520D01*
G01X9162789Y-4502D01*
G01X9151359Y6928D01*
G01X9134341Y12770D01*
G01X9128499Y12770D01*
G01X9111481Y6928D01*
G01X9100051Y-4502D01*
G01X9094209Y-21520D01*
G01X9250673Y58490D02*
G01X9233655Y52648D01*
G01X9222225Y35630D01*
G01X9216383Y6928D01*
G01X9216383Y-10090D01*
G01X9222225Y-38792D01*
G01X9233655Y-55810D01*
G01X9250673Y-61652D01*
G01X9262103Y-61652D01*
G01X9279375Y-55810D01*
G01X9290805Y-38792D01*
G01X9296393Y-10090D01*
G01X9296393Y6928D01*
G01X9290805Y35630D01*
G01X9279375Y52648D01*
G01X9262103Y58490D01*
G01X9250673Y58490D01*
G01X9378435Y58490D02*
G01X9361417Y52648D01*
G01X9349987Y35630D01*
G01X9344145Y6928D01*
G01X9344145Y-10090D01*
G01X9349987Y-38792D01*
G01X9361417Y-55810D01*
G01X9378435Y-61652D01*
G01X9389865Y-61652D01*
G01X9407137Y-55810D01*
G01X9418567Y-38792D01*
G01X9424155Y-10090D01*
G01X9424155Y6928D01*
G01X9418567Y35630D01*
G01X9407137Y52648D01*
G01X9389865Y58490D01*
G01X9378435Y58490D01*
G01X9471907Y18358D02*
G01X9534899Y-61652D01*
G01X9534899Y18358D02*
G01X9471907Y-61652D01*
G01X9582651Y35630D02*
G01X9594081Y41218D01*
G01X9611353Y58490D01*
G01X9611353Y-61652D01*
G01X9664947Y-32950D02*
G01X9659105Y-38792D01*
G01X9664947Y-44380D01*
G01X9670535Y-38792D01*
G01X9664947Y-32950D01*
G01X9729717Y58490D02*
G01X9792709Y58490D01*
G01X9758419Y12770D01*
G01X9775437Y12770D01*
G01X9786867Y6928D01*
G01X9792709Y1340D01*
G01X9798297Y-15932D01*
G01X9798297Y-27362D01*
G01X9792709Y-44380D01*
G01X9781279Y-55810D01*
G01X9764007Y-61652D01*
G01X9746989Y-61652D01*
G01X9729717Y-55810D01*
G01X9724129Y-50222D01*
G01X9718287Y-38792D01*
G01X9880339Y58490D02*
G01X9863321Y52648D01*
G01X9851891Y35630D01*
G01X9846049Y6928D01*
G01X9846049Y-10090D01*
G01X9851891Y-38792D01*
G01X9863321Y-55810D01*
G01X9880339Y-61652D01*
G01X9891769Y-61652D01*
G01X9909041Y-55810D01*
G01X9920471Y-38792D01*
G01X9926059Y-10090D01*
G01X9926059Y6928D01*
G01X9920471Y35630D01*
G01X9909041Y52648D01*
G01X9891769Y58490D01*
G01X9880339Y58490D01*
G01X10008101Y58490D02*
G01X9991083Y52648D01*
G01X9979653Y35630D01*
G01X9973811Y6928D01*
G01X9973811Y-10090D01*
G01X9979653Y-38792D01*
G01X9991083Y-55810D01*
G01X10008101Y-61652D01*
G01X10019531Y-61652D01*
G01X10036803Y-55810D01*
G01X10048233Y-38792D01*
G01X10053821Y-10090D01*
G01X10053821Y6928D01*
G01X10048233Y35630D01*
G01X10036803Y52648D01*
G01X10019531Y58490D01*
G01X10008101Y58490D01*
G01X10101573Y18358D02*
G01X10101573Y-61652D01*
G01X10101573Y-4502D02*
G01X10118845Y12770D01*
G01X10130275Y18358D01*
G01X10147293Y18358D01*
G01X10158723Y12770D01*
G01X10164565Y-4502D01*
G01X10164565Y-61652D01*
G01X10164565Y-4502D02*
G01X10181583Y12770D01*
G01X10193013Y18358D01*
G01X10210285Y18358D01*
G01X10221715Y12770D01*
G01X10227303Y-4502D01*
G01X10227303Y-61652D01*
G01X10275055Y18358D02*
G01X10275055Y-61652D01*
G01X10275055Y-4502D02*
G01X10292327Y12770D01*
G01X10303757Y18358D01*
G01X10320775Y18358D01*
G01X10332205Y12770D01*
G01X10338047Y-4502D01*
G01X10338047Y-61652D01*
G01X10338047Y-4502D02*
G01X10355065Y12770D01*
G01X10366495Y18358D01*
G01X10383767Y18358D01*
G01X10395197Y12770D01*
G01X10400785Y-4502D01*
G01X10400785Y-61652D01*
G01X10448537Y81350D02*
G01X10459967Y69920D01*
G01X10471397Y52648D01*
G01X10482827Y29788D01*
G01X10488669Y1340D01*
G01X10488669Y-21520D01*
G01X10482827Y-50222D01*
G01X10471397Y-73082D01*
G01X10459967Y-90100D01*
G01X10448537Y-101530D01*
G01X11379847Y58490D02*
G01X11379847Y-61652D01*
G01X11379847Y58490D02*
G01X11431409Y58490D01*
G01X11448427Y52648D01*
G01X11454269Y47060D01*
G01X11459857Y35630D01*
G01X11459857Y18358D01*
G01X11454269Y6928D01*
G01X11448427Y1340D01*
G01X11431409Y-4502D01*
G01X11379847Y-4502D01*
G01X11547741Y58490D02*
G01X11547741Y-61652D01*
G01X11507609Y58490D02*
G01X11587619Y58490D01*
G01X11635371Y58490D02*
G01X11635371Y-61652D01*
G01X11715381Y58490D02*
G01X11715381Y-61652D01*
G01X11635371Y1340D02*
G01X11715381Y1340D01*
G01X12921264Y41218D02*
G01X12909834Y52648D01*
G01X12892816Y58490D01*
G01X12869956Y58490D01*
G01X12852684Y52648D01*
G01X12841254Y41218D01*
G01X12841254Y29788D01*
G01X12847096Y18358D01*
G01X12852684Y12770D01*
G01X12864114Y6928D01*
G01X12898404Y-4502D01*
G01X12909834Y-10090D01*
G01X12915676Y-15932D01*
G01X12921264Y-27362D01*
G01X12921264Y-44380D01*
G01X12909834Y-55810D01*
G01X12892816Y-61652D01*
G01X12869956Y-61652D01*
G01X12852684Y-55810D01*
G01X12841254Y-44380D01*
G01X12969016Y58490D02*
G01X12969016Y-61652D01*
G01X13045470Y18358D02*
G01X13034040Y12770D01*
G01X13022610Y1340D01*
G01X13016768Y-15932D01*
G01X13016768Y-27362D01*
G01X13022610Y-44380D01*
G01X13034040Y-55810D01*
G01X13045470Y-61652D01*
G01X13062488Y-61652D01*
G01X13073918Y-55810D01*
G01X13085348Y-44380D01*
G01X13091190Y-27362D01*
G01X13091190Y-15932D01*
G01X13085348Y1340D01*
G01X13073918Y12770D01*
G01X13062488Y18358D01*
G01X13045470Y18358D01*
G01X13156214Y58490D02*
G01X13156214Y-38792D01*
G01X13161802Y-55810D01*
G01X13173232Y-61652D01*
G01X13184662Y-61652D01*
G01X13138942Y18358D02*
G01X13179074Y18358D01*
G01X14272435Y58490D02*
G01X14272435Y-61652D01*
G01X14272435Y58490D02*
G01X14323997Y58490D01*
G01X14341015Y52648D01*
G01X14346857Y47060D01*
G01X14352445Y35630D01*
G01X14352445Y18358D01*
G01X14346857Y6928D01*
G01X14341015Y1340D01*
G01X14323997Y-4502D01*
G01X14272435Y-4502D01*
G01X14468777Y18358D02*
G01X14468777Y-61652D01*
G01X14468777Y1340D02*
G01X14457347Y12770D01*
G01X14445917Y18358D01*
G01X14428899Y18358D01*
G01X14417469Y12770D01*
G01X14406039Y1340D01*
G01X14400197Y-15932D01*
G01X14400197Y-27362D01*
G01X14406039Y-44380D01*
G01X14417469Y-55810D01*
G01X14428899Y-61652D01*
G01X14445917Y-61652D01*
G01X14457347Y-55810D01*
G01X14468777Y-44380D01*
G01X14585109Y58490D02*
G01X14585109Y-61652D01*
G01X14585109Y1340D02*
G01X14573679Y12770D01*
G01X14562249Y18358D01*
G01X14545231Y18358D01*
G01X14533801Y12770D01*
G01X14522371Y1340D01*
G01X14516529Y-15932D01*
G01X14516529Y-27362D01*
G01X14522371Y-44380D01*
G01X14533801Y-55810D01*
G01X14545231Y-61652D01*
G01X14562249Y-61652D01*
G01X14573679Y-55810D01*
G01X14585109Y-44380D01*
G01X15975904Y58490D02*
G01X15964474Y52648D01*
G01X15953044Y41218D01*
G01X15947456Y29788D01*
G01X15941614Y12770D01*
G01X15941614Y-15932D01*
G01X15947456Y-32950D01*
G01X15953044Y-44380D01*
G01X15964474Y-55810D01*
G01X15975904Y-61652D01*
G01X15998764Y-61652D01*
G01X16010194Y-55810D01*
G01X16021624Y-44380D01*
G01X16027466Y-32950D01*
G01X16033054Y-15932D01*
G01X16033054Y12770D01*
G01X16027466Y29788D01*
G01X16021624Y41218D01*
G01X16010194Y52648D01*
G01X15998764Y58490D01*
G01X15975904Y58490D01*
G01X16080806Y18358D02*
G01X16115096Y-61652D01*
G01X16149386Y18358D02*
G01X16115096Y-61652D01*
G01X16265718Y18358D02*
G01X16265718Y-61652D01*
G01X16265718Y1340D02*
G01X16254288Y12770D01*
G01X16242858Y18358D01*
G01X16225840Y18358D01*
G01X16214410Y12770D01*
G01X16202980Y1340D01*
G01X16197138Y-15932D01*
G01X16197138Y-27362D01*
G01X16202980Y-44380D01*
G01X16214410Y-55810D01*
G01X16225840Y-61652D01*
G01X16242858Y-61652D01*
G01X16254288Y-55810D01*
G01X16265718Y-44380D01*
G01X16313470Y58490D02*
G01X16313470Y-61652D01*
G01X17901115Y58490D02*
G01X17901115Y-61652D01*
G01X17860983Y58490D02*
G01X17940993Y58490D01*
G01X18017447Y18358D02*
G01X18006017Y12770D01*
G01X17994587Y1340D01*
G01X17988745Y-15932D01*
G01X17988745Y-27362D01*
G01X17994587Y-44380D01*
G01X18006017Y-55810D01*
G01X18017447Y-61652D01*
G01X18034465Y-61652D01*
G01X18045895Y-55810D01*
G01X18057325Y-44380D01*
G01X18063167Y-27362D01*
G01X18063167Y-15932D01*
G01X18057325Y1340D01*
G01X18045895Y12770D01*
G01X18034465Y18358D01*
G01X18017447Y18358D01*
G01X18110919Y18358D02*
G01X18110919Y-101530D01*
G01X18110919Y1340D02*
G01X18122349Y12770D01*
G01X18133779Y18358D01*
G01X18151051Y18358D01*
G01X18162481Y12770D01*
G01X18173911Y1340D01*
G01X18179499Y-15932D01*
G01X18179499Y-27362D01*
G01X18173911Y-44380D01*
G01X18162481Y-55810D01*
G01X18151051Y-61652D01*
G01X18133779Y-61652D01*
G01X18122349Y-55810D01*
G01X18110919Y-44380D01*
G01X18355267Y58490D02*
G01X18355267Y-61652D01*
G01X18355267Y-61652D02*
G01X18423847Y-61652D01*
G01X18540179Y18358D02*
G01X18540179Y-61652D01*
G01X18540179Y1340D02*
G01X18528749Y12770D01*
G01X18517319Y18358D01*
G01X18500301Y18358D01*
G01X18488871Y12770D01*
G01X18477441Y1340D01*
G01X18471599Y-15932D01*
G01X18471599Y-27362D01*
G01X18477441Y-44380D01*
G01X18488871Y-55810D01*
G01X18500301Y-61652D01*
G01X18517319Y-61652D01*
G01X18528749Y-55810D01*
G01X18540179Y-44380D01*
G01X18593773Y18358D02*
G01X18628063Y-61652D01*
G01X18662353Y18358D02*
G01X18628063Y-61652D01*
G01X18616633Y-84512D01*
G01X18605203Y-95942D01*
G01X18593773Y-101530D01*
G01X18587931Y-101530D01*
G01X18710105Y-15932D02*
G01X18778685Y-15932D01*
G01X18778685Y-4502D01*
G01X18773097Y6928D01*
G01X18767255Y12770D01*
G01X18755825Y18358D01*
G01X18738807Y18358D01*
G01X18727377Y12770D01*
G01X18715947Y1340D01*
G01X18710105Y-15932D01*
G01X18710105Y-27362D01*
G01X18715947Y-44380D01*
G01X18727377Y-55810D01*
G01X18738807Y-61652D01*
G01X18755825Y-61652D01*
G01X18767255Y-55810D01*
G01X18778685Y-44380D01*
G01X18826437Y18358D02*
G01X18826437Y-61652D01*
G01X18826437Y-15932D02*
G01X18832279Y1340D01*
G01X18843709Y12770D01*
G01X18855139Y18358D01*
G01X18872157Y18358D01*
G01X18919909Y-10090D02*
G01X19022779Y-10090D01*
G01X19070531Y58490D02*
G01X19070531Y-61652D01*
G01X19070531Y58490D02*
G01X19122093Y58490D01*
G01X19139111Y52648D01*
G01X19144953Y47060D01*
G01X19150541Y35630D01*
G01X19150541Y24200D01*
G01X19144953Y12770D01*
G01X19139111Y6928D01*
G01X19122093Y1340D01*
G01X19070531Y1340D02*
G01X19122093Y1340D01*
G01X19139111Y-4502D01*
G01X19144953Y-10090D01*
G01X19150541Y-21520D01*
G01X19150541Y-38792D01*
G01X19144953Y-50222D01*
G01X19139111Y-55810D01*
G01X19122093Y-61652D01*
G01X19070531Y-61652D01*
G01X19226995Y18358D02*
G01X19215565Y12770D01*
G01X19204135Y1340D01*
G01X19198293Y-15932D01*
G01X19198293Y-27362D01*
G01X19204135Y-44380D01*
G01X19215565Y-55810D01*
G01X19226995Y-61652D01*
G01X19244013Y-61652D01*
G01X19255443Y-55810D01*
G01X19266873Y-44380D01*
G01X19272715Y-27362D01*
G01X19272715Y-15932D01*
G01X19266873Y1340D01*
G01X19255443Y12770D01*
G01X19244013Y18358D01*
G01X19226995Y18358D01*
G01X19337739Y58490D02*
G01X19337739Y-38792D01*
G01X19343327Y-55810D01*
G01X19354757Y-61652D01*
G01X19366187Y-61652D01*
G01X19320467Y18358D02*
G01X19360599Y18358D01*
G01X19431211Y58490D02*
G01X19431211Y-38792D01*
G01X19436799Y-55810D01*
G01X19448229Y-61652D01*
G01X19459659Y-61652D01*
G01X19413939Y18358D02*
G01X19454071Y18358D01*
G01X19536113Y18358D02*
G01X19524683Y12770D01*
G01X19513253Y1340D01*
G01X19507411Y-15932D01*
G01X19507411Y-27362D01*
G01X19513253Y-44380D01*
G01X19524683Y-55810D01*
G01X19536113Y-61652D01*
G01X19553131Y-61652D01*
G01X19564561Y-55810D01*
G01X19575991Y-44380D01*
G01X19581833Y-27362D01*
G01X19581833Y-15932D01*
G01X19575991Y1340D01*
G01X19564561Y12770D01*
G01X19553131Y18358D01*
G01X19536113Y18358D01*
G01X19629585Y18358D02*
G01X19629585Y-61652D01*
G01X19629585Y-4502D02*
G01X19646857Y12770D01*
G01X19658287Y18358D01*
G01X19675305Y18358D01*
G01X19686735Y12770D01*
G01X19692577Y-4502D01*
G01X19692577Y-61652D01*
G01X19692577Y-4502D02*
G01X19709595Y12770D01*
G01X19721025Y18358D01*
G01X19738297Y18358D01*
G01X19749727Y12770D01*
G01X19755315Y-4502D01*
G01X19755315Y-61652D01*
G01X19931083Y58490D02*
G01X19931083Y-61652D01*
G01X19931083Y-61652D02*
G01X19999663Y-61652D01*
G01X20115995Y18358D02*
G01X20115995Y-61652D01*
G01X20115995Y1340D02*
G01X20104565Y12770D01*
G01X20093135Y18358D01*
G01X20076117Y18358D01*
G01X20064687Y12770D01*
G01X20053257Y1340D01*
G01X20047415Y-15932D01*
G01X20047415Y-27362D01*
G01X20053257Y-44380D01*
G01X20064687Y-55810D01*
G01X20076117Y-61652D01*
G01X20093135Y-61652D01*
G01X20104565Y-55810D01*
G01X20115995Y-44380D01*
G01X20169589Y18358D02*
G01X20203879Y-61652D01*
G01X20238169Y18358D02*
G01X20203879Y-61652D01*
G01X20192449Y-84512D01*
G01X20181019Y-95942D01*
G01X20169589Y-101530D01*
G01X20163747Y-101530D01*
G01X20285921Y-15932D02*
G01X20354501Y-15932D01*
G01X20354501Y-4502D01*
G01X20348913Y6928D01*
G01X20343071Y12770D01*
G01X20331641Y18358D01*
G01X20314623Y18358D01*
G01X20303193Y12770D01*
G01X20291763Y1340D01*
G01X20285921Y-15932D01*
G01X20285921Y-27362D01*
G01X20291763Y-44380D01*
G01X20303193Y-55810D01*
G01X20314623Y-61652D01*
G01X20331641Y-61652D01*
G01X20343071Y-55810D01*
G01X20354501Y-44380D01*
G01X20402253Y18358D02*
G01X20402253Y-61652D01*
G01X20402253Y-15932D02*
G01X20408095Y1340D01*
G01X20419525Y12770D01*
G01X20430955Y18358D01*
G01X20447973Y18358D01*
G01X6186018Y-544942D02*
G01X6197448Y-539354D01*
G01X6214720Y-522082D01*
G01X6214720Y-642224D01*
G01X6331052Y-539354D02*
G01X6325464Y-527924D01*
G01X6308192Y-522082D01*
G01X6296762Y-522082D01*
G01X6279744Y-527924D01*
G01X6268314Y-544942D01*
G01X6262472Y-573644D01*
G01X6262472Y-602092D01*
G01X6268314Y-624952D01*
G01X6279744Y-636382D01*
G01X6296762Y-642224D01*
G01X6302604Y-642224D01*
G01X6319622Y-636382D01*
G01X6331052Y-624952D01*
G01X6336894Y-607934D01*
G01X6336894Y-602092D01*
G01X6331052Y-585074D01*
G01X6319622Y-573644D01*
G01X6302604Y-567802D01*
G01X6296762Y-567802D01*
G01X6279744Y-573644D01*
G01X6268314Y-585074D01*
G01X6262472Y-602092D01*
G01X7657331Y-522082D02*
G01X7600181Y-602092D01*
G01X7686033Y-602092D01*
G01X7657331Y-522082D02*
G01X7657331Y-642224D01*
G01X7745215Y-522082D02*
G01X7808207Y-522082D01*
G01X7773917Y-567802D01*
G01X7790935Y-567802D01*
G01X7802365Y-573644D01*
G01X7808207Y-579232D01*
G01X7813795Y-596504D01*
G01X7813795Y-607934D01*
G01X7808207Y-624952D01*
G01X7796777Y-636382D01*
G01X7779505Y-642224D01*
G01X7762487Y-642224D01*
G01X7745215Y-636382D01*
G01X7739627Y-630794D01*
G01X7733785Y-619364D01*
G01X7867389Y-613522D02*
G01X7861547Y-619364D01*
G01X7867389Y-624952D01*
G01X7872977Y-619364D01*
G01X7867389Y-613522D01*
G01X7932159Y-522082D02*
G01X7995151Y-522082D01*
G01X7960861Y-567802D01*
G01X7977879Y-567802D01*
G01X7989309Y-573644D01*
G01X7995151Y-579232D01*
G01X8000739Y-596504D01*
G01X8000739Y-607934D01*
G01X7995151Y-624952D01*
G01X7983721Y-636382D01*
G01X7966449Y-642224D01*
G01X7949431Y-642224D01*
G01X7932159Y-636382D01*
G01X7926571Y-630794D01*
G01X7920729Y-619364D01*
G01X8048491Y-562214D02*
G01X8111483Y-642224D01*
G01X8111483Y-562214D02*
G01X8048491Y-642224D01*
G01X8216385Y-522082D02*
G01X8159235Y-602092D01*
G01X8245087Y-602092D01*
G01X8216385Y-522082D02*
G01X8216385Y-642224D01*
G01X8304269Y-522082D02*
G01X8367261Y-522082D01*
G01X8332971Y-567802D01*
G01X8349989Y-567802D01*
G01X8361419Y-573644D01*
G01X8367261Y-579232D01*
G01X8372849Y-596504D01*
G01X8372849Y-607934D01*
G01X8367261Y-624952D01*
G01X8355831Y-636382D01*
G01X8338559Y-642224D01*
G01X8321541Y-642224D01*
G01X8304269Y-636382D01*
G01X8298681Y-630794D01*
G01X8292839Y-619364D01*
G01X8426443Y-613522D02*
G01X8420601Y-619364D01*
G01X8426443Y-624952D01*
G01X8432031Y-619364D01*
G01X8426443Y-613522D01*
G01X8491213Y-522082D02*
G01X8554205Y-522082D01*
G01X8519915Y-567802D01*
G01X8536933Y-567802D01*
G01X8548363Y-573644D01*
G01X8554205Y-579232D01*
G01X8559793Y-596504D01*
G01X8559793Y-607934D01*
G01X8554205Y-624952D01*
G01X8542775Y-636382D01*
G01X8525503Y-642224D01*
G01X8508485Y-642224D01*
G01X8491213Y-636382D01*
G01X8485625Y-630794D01*
G01X8479783Y-619364D01*
G01X8607545Y-562214D02*
G01X8607545Y-642224D01*
G01X8607545Y-585074D02*
G01X8624817Y-567802D01*
G01X8636247Y-562214D01*
G01X8653265Y-562214D01*
G01X8664695Y-567802D01*
G01X8670537Y-585074D01*
G01X8670537Y-642224D01*
G01X8670537Y-585074D02*
G01X8687555Y-567802D01*
G01X8698985Y-562214D01*
G01X8716257Y-562214D01*
G01X8727687Y-567802D01*
G01X8733275Y-585074D01*
G01X8733275Y-642224D01*
G01X8781027Y-522082D02*
G01X8786869Y-527924D01*
G01X8792457Y-522082D01*
G01X8786869Y-516494D01*
G01X8781027Y-522082D01*
G01X8786869Y-562214D02*
G01X8786869Y-642224D01*
G01X8840209Y-522082D02*
G01X8840209Y-642224D01*
G01X8928093Y-499222D02*
G01X8916663Y-510652D01*
G01X8905233Y-527924D01*
G01X8893803Y-550784D01*
G01X8887961Y-579232D01*
G01X8887961Y-602092D01*
G01X8893803Y-630794D01*
G01X8905233Y-653654D01*
G01X8916663Y-670672D01*
G01X8928093Y-682102D01*
G01X8975845Y-544942D02*
G01X8987275Y-539354D01*
G01X9004547Y-522082D01*
G01X9004547Y-642224D01*
G01X9058141Y-613522D02*
G01X9052299Y-619364D01*
G01X9058141Y-624952D01*
G01X9063729Y-619364D01*
G01X9058141Y-613522D01*
G01X9111481Y-544942D02*
G01X9122911Y-539354D01*
G01X9140183Y-522082D01*
G01X9140183Y-642224D01*
G01X9222225Y-522082D02*
G01X9205207Y-527924D01*
G01X9193777Y-544942D01*
G01X9187935Y-573644D01*
G01X9187935Y-590662D01*
G01X9193777Y-619364D01*
G01X9205207Y-636382D01*
G01X9222225Y-642224D01*
G01X9233655Y-642224D01*
G01X9250927Y-636382D01*
G01X9262357Y-619364D01*
G01X9267945Y-590662D01*
G01X9267945Y-573644D01*
G01X9262357Y-544942D01*
G01X9250927Y-527924D01*
G01X9233655Y-522082D01*
G01X9222225Y-522082D01*
G01X9349987Y-522082D02*
G01X9332969Y-527924D01*
G01X9321539Y-544942D01*
G01X9315697Y-573644D01*
G01X9315697Y-590662D01*
G01X9321539Y-619364D01*
G01X9332969Y-636382D01*
G01X9349987Y-642224D01*
G01X9361417Y-642224D01*
G01X9378689Y-636382D01*
G01X9390119Y-619364D01*
G01X9395707Y-590662D01*
G01X9395707Y-573644D01*
G01X9390119Y-544942D01*
G01X9378689Y-527924D01*
G01X9361417Y-522082D01*
G01X9349987Y-522082D01*
G01X9443459Y-562214D02*
G01X9506451Y-642224D01*
G01X9506451Y-562214D02*
G01X9443459Y-642224D01*
G01X9554203Y-544942D02*
G01X9565633Y-539354D01*
G01X9582905Y-522082D01*
G01X9582905Y-642224D01*
G01X9636499Y-613522D02*
G01X9630657Y-619364D01*
G01X9636499Y-624952D01*
G01X9642087Y-619364D01*
G01X9636499Y-613522D01*
G01X9689839Y-544942D02*
G01X9701269Y-539354D01*
G01X9718541Y-522082D01*
G01X9718541Y-642224D01*
G01X9800583Y-522082D02*
G01X9783565Y-527924D01*
G01X9772135Y-544942D01*
G01X9766293Y-573644D01*
G01X9766293Y-590662D01*
G01X9772135Y-619364D01*
G01X9783565Y-636382D01*
G01X9800583Y-642224D01*
G01X9812013Y-642224D01*
G01X9829285Y-636382D01*
G01X9840715Y-619364D01*
G01X9846303Y-590662D01*
G01X9846303Y-573644D01*
G01X9840715Y-544942D01*
G01X9829285Y-527924D01*
G01X9812013Y-522082D01*
G01X9800583Y-522082D01*
G01X9928345Y-522082D02*
G01X9911327Y-527924D01*
G01X9899897Y-544942D01*
G01X9894055Y-573644D01*
G01X9894055Y-590662D01*
G01X9899897Y-619364D01*
G01X9911327Y-636382D01*
G01X9928345Y-642224D01*
G01X9939775Y-642224D01*
G01X9957047Y-636382D01*
G01X9968477Y-619364D01*
G01X9974065Y-590662D01*
G01X9974065Y-573644D01*
G01X9968477Y-544942D01*
G01X9957047Y-527924D01*
G01X9939775Y-522082D01*
G01X9928345Y-522082D01*
G01X10021817Y-562214D02*
G01X10021817Y-642224D01*
G01X10021817Y-585074D02*
G01X10039089Y-567802D01*
G01X10050519Y-562214D01*
G01X10067537Y-562214D01*
G01X10078967Y-567802D01*
G01X10084809Y-585074D01*
G01X10084809Y-642224D01*
G01X10084809Y-585074D02*
G01X10101827Y-567802D01*
G01X10113257Y-562214D01*
G01X10130529Y-562214D01*
G01X10141959Y-567802D01*
G01X10147547Y-585074D01*
G01X10147547Y-642224D01*
G01X10195299Y-562214D02*
G01X10195299Y-642224D01*
G01X10195299Y-585074D02*
G01X10212571Y-567802D01*
G01X10224001Y-562214D01*
G01X10241019Y-562214D01*
G01X10252449Y-567802D01*
G01X10258291Y-585074D01*
G01X10258291Y-642224D01*
G01X10258291Y-585074D02*
G01X10275309Y-567802D01*
G01X10286739Y-562214D01*
G01X10304011Y-562214D01*
G01X10315441Y-567802D01*
G01X10321029Y-585074D01*
G01X10321029Y-642224D01*
G01X10368781Y-499222D02*
G01X10380211Y-510652D01*
G01X10391641Y-527924D01*
G01X10403071Y-550784D01*
G01X10408913Y-579232D01*
G01X10408913Y-602092D01*
G01X10403071Y-630794D01*
G01X10391641Y-653654D01*
G01X10380211Y-670672D01*
G01X10368781Y-682102D01*
G01X11379847Y-522082D02*
G01X11379847Y-642224D01*
G01X11379847Y-522082D02*
G01X11431409Y-522082D01*
G01X11448427Y-527924D01*
G01X11454269Y-533512D01*
G01X11459857Y-544942D01*
G01X11459857Y-562214D01*
G01X11454269Y-573644D01*
G01X11448427Y-579232D01*
G01X11431409Y-585074D01*
G01X11379847Y-585074D01*
G01X11547741Y-522082D02*
G01X11547741Y-642224D01*
G01X11507609Y-522082D02*
G01X11587619Y-522082D01*
G01X11635371Y-522082D02*
G01X11635371Y-642224D01*
G01X11715381Y-522082D02*
G01X11715381Y-642224D01*
G01X11635371Y-579232D02*
G01X11715381Y-579232D01*
G01X12841254Y-522082D02*
G01X12841254Y-642224D01*
G01X12841254Y-522082D02*
G01X12892816Y-522082D01*
G01X12909834Y-527924D01*
G01X12915676Y-533512D01*
G01X12921264Y-544942D01*
G01X12921264Y-556372D01*
G01X12915676Y-567802D01*
G01X12909834Y-573644D01*
G01X12892816Y-579232D01*
G01X12841254Y-579232D01*
G01X12881386Y-579232D02*
G01X12921264Y-642224D01*
G01X12997718Y-562214D02*
G01X12986288Y-567802D01*
G01X12974858Y-579232D01*
G01X12969016Y-596504D01*
G01X12969016Y-607934D01*
G01X12974858Y-624952D01*
G01X12986288Y-636382D01*
G01X12997718Y-642224D01*
G01X13014736Y-642224D01*
G01X13026166Y-636382D01*
G01X13037596Y-624952D01*
G01X13043438Y-607934D01*
G01X13043438Y-596504D01*
G01X13037596Y-579232D01*
G01X13026166Y-567802D01*
G01X13014736Y-562214D01*
G01X12997718Y-562214D01*
G01X13091190Y-562214D02*
G01X13091190Y-619364D01*
G01X13097032Y-636382D01*
G01X13108462Y-642224D01*
G01X13125480Y-642224D01*
G01X13136910Y-636382D01*
G01X13154182Y-619364D01*
G01X13154182Y-562214D02*
G01X13154182Y-642224D01*
G01X13201934Y-562214D02*
G01X13201934Y-642224D01*
G01X13201934Y-585074D02*
G01X13219206Y-567802D01*
G01X13230636Y-562214D01*
G01X13247654Y-562214D01*
G01X13259084Y-567802D01*
G01X13264926Y-585074D01*
G01X13264926Y-642224D01*
G01X13381258Y-522082D02*
G01X13381258Y-642224D01*
G01X13381258Y-579232D02*
G01X13369828Y-567802D01*
G01X13358398Y-562214D01*
G01X13341380Y-562214D01*
G01X13329950Y-567802D01*
G01X13318520Y-579232D01*
G01X13312678Y-596504D01*
G01X13312678Y-607934D01*
G01X13318520Y-624952D01*
G01X13329950Y-636382D01*
G01X13341380Y-642224D01*
G01X13358398Y-642224D01*
G01X13369828Y-636382D01*
G01X13381258Y-624952D01*
G01X14272435Y-522082D02*
G01X14272435Y-642224D01*
G01X14272435Y-522082D02*
G01X14323997Y-522082D01*
G01X14341015Y-527924D01*
G01X14346857Y-533512D01*
G01X14352445Y-544942D01*
G01X14352445Y-562214D01*
G01X14346857Y-573644D01*
G01X14341015Y-579232D01*
G01X14323997Y-585074D01*
G01X14272435Y-585074D01*
G01X14468777Y-562214D02*
G01X14468777Y-642224D01*
G01X14468777Y-579232D02*
G01X14457347Y-567802D01*
G01X14445917Y-562214D01*
G01X14428899Y-562214D01*
G01X14417469Y-567802D01*
G01X14406039Y-579232D01*
G01X14400197Y-596504D01*
G01X14400197Y-607934D01*
G01X14406039Y-624952D01*
G01X14417469Y-636382D01*
G01X14428899Y-642224D01*
G01X14445917Y-642224D01*
G01X14457347Y-636382D01*
G01X14468777Y-624952D01*
G01X14585109Y-522082D02*
G01X14585109Y-642224D01*
G01X14585109Y-579232D02*
G01X14573679Y-567802D01*
G01X14562249Y-562214D01*
G01X14545231Y-562214D01*
G01X14533801Y-567802D01*
G01X14522371Y-579232D01*
G01X14516529Y-596504D01*
G01X14516529Y-607934D01*
G01X14522371Y-624952D01*
G01X14533801Y-636382D01*
G01X14545231Y-642224D01*
G01X14562249Y-642224D01*
G01X14573679Y-636382D01*
G01X14585109Y-624952D01*
G01X15981746Y-499222D02*
G01X15970316Y-510652D01*
G01X15958886Y-527924D01*
G01X15947456Y-550784D01*
G01X15941614Y-579232D01*
G01X15941614Y-602092D01*
G01X15947456Y-630794D01*
G01X15958886Y-653654D01*
G01X15970316Y-670672D01*
G01X15981746Y-682102D01*
G01X16029498Y-522082D02*
G01X16029498Y-642224D01*
G01X16029498Y-522082D02*
G01X16075218Y-642224D01*
G01X16120938Y-522082D02*
G01X16075218Y-642224D01*
G01X16120938Y-522082D02*
G01X16120938Y-642224D01*
G01X16168690Y-522082D02*
G01X16174532Y-527924D01*
G01X16180120Y-522082D01*
G01X16174532Y-516494D01*
G01X16168690Y-522082D01*
G01X16174532Y-562214D02*
G01X16174532Y-642224D01*
G01X16227872Y-562214D02*
G01X16290864Y-642224D01*
G01X16290864Y-562214D02*
G01X16227872Y-642224D01*
G01X16338616Y-596504D02*
G01X16407196Y-596504D01*
G01X16407196Y-585074D01*
G01X16401608Y-573644D01*
G01X16395766Y-567802D01*
G01X16384336Y-562214D01*
G01X16367318Y-562214D01*
G01X16355888Y-567802D01*
G01X16344458Y-579232D01*
G01X16338616Y-596504D01*
G01X16338616Y-607934D01*
G01X16344458Y-624952D01*
G01X16355888Y-636382D01*
G01X16367318Y-642224D01*
G01X16384336Y-642224D01*
G01X16395766Y-636382D01*
G01X16407196Y-624952D01*
G01X16523528Y-522082D02*
G01X16523528Y-642224D01*
G01X16523528Y-579232D02*
G01X16512098Y-567802D01*
G01X16500668Y-562214D01*
G01X16483650Y-562214D01*
G01X16472220Y-567802D01*
G01X16460790Y-579232D01*
G01X16454948Y-596504D01*
G01X16454948Y-607934D01*
G01X16460790Y-624952D01*
G01X16472220Y-636382D01*
G01X16483650Y-642224D01*
G01X16500668Y-642224D01*
G01X16512098Y-636382D01*
G01X16523528Y-624952D01*
G01X16571280Y-499222D02*
G01X16582710Y-510652D01*
G01X16594140Y-527924D01*
G01X16605570Y-550784D01*
G01X16611412Y-579232D01*
G01X16611412Y-602092D01*
G01X16605570Y-630794D01*
G01X16594140Y-653654D01*
G01X16582710Y-670672D01*
G01X16571280Y-682102D01*
G01X17901115Y-522082D02*
G01X17901115Y-642224D01*
G01X17860983Y-522082D02*
G01X17940993Y-522082D01*
G01X18017447Y-562214D02*
G01X18006017Y-567802D01*
G01X17994587Y-579232D01*
G01X17988745Y-596504D01*
G01X17988745Y-607934D01*
G01X17994587Y-624952D01*
G01X18006017Y-636382D01*
G01X18017447Y-642224D01*
G01X18034465Y-642224D01*
G01X18045895Y-636382D01*
G01X18057325Y-624952D01*
G01X18063167Y-607934D01*
G01X18063167Y-596504D01*
G01X18057325Y-579232D01*
G01X18045895Y-567802D01*
G01X18034465Y-562214D01*
G01X18017447Y-562214D01*
G01X18110919Y-562214D02*
G01X18110919Y-682102D01*
G01X18110919Y-579232D02*
G01X18122349Y-567802D01*
G01X18133779Y-562214D01*
G01X18151051Y-562214D01*
G01X18162481Y-567802D01*
G01X18173911Y-579232D01*
G01X18179499Y-596504D01*
G01X18179499Y-607934D01*
G01X18173911Y-624952D01*
G01X18162481Y-636382D01*
G01X18151051Y-642224D01*
G01X18133779Y-642224D01*
G01X18122349Y-636382D01*
G01X18110919Y-624952D01*
G01X18355267Y-522082D02*
G01X18355267Y-642224D01*
G01X18355267Y-642224D02*
G01X18423847Y-642224D01*
G01X18540179Y-562214D02*
G01X18540179Y-642224D01*
G01X18540179Y-579232D02*
G01X18528749Y-567802D01*
G01X18517319Y-562214D01*
G01X18500301Y-562214D01*
G01X18488871Y-567802D01*
G01X18477441Y-579232D01*
G01X18471599Y-596504D01*
G01X18471599Y-607934D01*
G01X18477441Y-624952D01*
G01X18488871Y-636382D01*
G01X18500301Y-642224D01*
G01X18517319Y-642224D01*
G01X18528749Y-636382D01*
G01X18540179Y-624952D01*
G01X18593773Y-562214D02*
G01X18628063Y-642224D01*
G01X18662353Y-562214D02*
G01X18628063Y-642224D01*
G01X18616633Y-665084D01*
G01X18605203Y-676514D01*
G01X18593773Y-682102D01*
G01X18587931Y-682102D01*
G01X18710105Y-596504D02*
G01X18778685Y-596504D01*
G01X18778685Y-585074D01*
G01X18773097Y-573644D01*
G01X18767255Y-567802D01*
G01X18755825Y-562214D01*
G01X18738807Y-562214D01*
G01X18727377Y-567802D01*
G01X18715947Y-579232D01*
G01X18710105Y-596504D01*
G01X18710105Y-607934D01*
G01X18715947Y-624952D01*
G01X18727377Y-636382D01*
G01X18738807Y-642224D01*
G01X18755825Y-642224D01*
G01X18767255Y-636382D01*
G01X18778685Y-624952D01*
G01X18826437Y-562214D02*
G01X18826437Y-642224D01*
G01X18826437Y-596504D02*
G01X18832279Y-579232D01*
G01X18843709Y-567802D01*
G01X18855139Y-562214D01*
G01X18872157Y-562214D01*
G01X18919909Y-590662D02*
G01X19022779Y-590662D01*
G01X19070531Y-522082D02*
G01X19070531Y-642224D01*
G01X19070531Y-522082D02*
G01X19122093Y-522082D01*
G01X19139111Y-527924D01*
G01X19144953Y-533512D01*
G01X19150541Y-544942D01*
G01X19150541Y-556372D01*
G01X19144953Y-567802D01*
G01X19139111Y-573644D01*
G01X19122093Y-579232D01*
G01X19070531Y-579232D02*
G01X19122093Y-579232D01*
G01X19139111Y-585074D01*
G01X19144953Y-590662D01*
G01X19150541Y-602092D01*
G01X19150541Y-619364D01*
G01X19144953Y-630794D01*
G01X19139111Y-636382D01*
G01X19122093Y-642224D01*
G01X19070531Y-642224D01*
G01X19226995Y-562214D02*
G01X19215565Y-567802D01*
G01X19204135Y-579232D01*
G01X19198293Y-596504D01*
G01X19198293Y-607934D01*
G01X19204135Y-624952D01*
G01X19215565Y-636382D01*
G01X19226995Y-642224D01*
G01X19244013Y-642224D01*
G01X19255443Y-636382D01*
G01X19266873Y-624952D01*
G01X19272715Y-607934D01*
G01X19272715Y-596504D01*
G01X19266873Y-579232D01*
G01X19255443Y-567802D01*
G01X19244013Y-562214D01*
G01X19226995Y-562214D01*
G01X19337739Y-522082D02*
G01X19337739Y-619364D01*
G01X19343327Y-636382D01*
G01X19354757Y-642224D01*
G01X19366187Y-642224D01*
G01X19320467Y-562214D02*
G01X19360599Y-562214D01*
G01X19431211Y-522082D02*
G01X19431211Y-619364D01*
G01X19436799Y-636382D01*
G01X19448229Y-642224D01*
G01X19459659Y-642224D01*
G01X19413939Y-562214D02*
G01X19454071Y-562214D01*
G01X19536113Y-562214D02*
G01X19524683Y-567802D01*
G01X19513253Y-579232D01*
G01X19507411Y-596504D01*
G01X19507411Y-607934D01*
G01X19513253Y-624952D01*
G01X19524683Y-636382D01*
G01X19536113Y-642224D01*
G01X19553131Y-642224D01*
G01X19564561Y-636382D01*
G01X19575991Y-624952D01*
G01X19581833Y-607934D01*
G01X19581833Y-596504D01*
G01X19575991Y-579232D01*
G01X19564561Y-567802D01*
G01X19553131Y-562214D01*
G01X19536113Y-562214D01*
G01X19629585Y-562214D02*
G01X19629585Y-642224D01*
G01X19629585Y-585074D02*
G01X19646857Y-567802D01*
G01X19658287Y-562214D01*
G01X19675305Y-562214D01*
G01X19686735Y-567802D01*
G01X19692577Y-585074D01*
G01X19692577Y-642224D01*
G01X19692577Y-585074D02*
G01X19709595Y-567802D01*
G01X19721025Y-562214D01*
G01X19738297Y-562214D01*
G01X19749727Y-567802D01*
G01X19755315Y-585074D01*
G01X19755315Y-642224D01*
G01X19931083Y-522082D02*
G01X19931083Y-642224D01*
G01X19931083Y-642224D02*
G01X19999663Y-642224D01*
G01X20115995Y-562214D02*
G01X20115995Y-642224D01*
G01X20115995Y-579232D02*
G01X20104565Y-567802D01*
G01X20093135Y-562214D01*
G01X20076117Y-562214D01*
G01X20064687Y-567802D01*
G01X20053257Y-579232D01*
G01X20047415Y-596504D01*
G01X20047415Y-607934D01*
G01X20053257Y-624952D01*
G01X20064687Y-636382D01*
G01X20076117Y-642224D01*
G01X20093135Y-642224D01*
G01X20104565Y-636382D01*
G01X20115995Y-624952D01*
G01X20169589Y-562214D02*
G01X20203879Y-642224D01*
G01X20238169Y-562214D02*
G01X20203879Y-642224D01*
G01X20192449Y-665084D01*
G01X20181019Y-676514D01*
G01X20169589Y-682102D01*
G01X20163747Y-682102D01*
G01X20285921Y-596504D02*
G01X20354501Y-596504D01*
G01X20354501Y-585074D01*
G01X20348913Y-573644D01*
G01X20343071Y-567802D01*
G01X20331641Y-562214D01*
G01X20314623Y-562214D01*
G01X20303193Y-567802D01*
G01X20291763Y-579232D01*
G01X20285921Y-596504D01*
G01X20285921Y-607934D01*
G01X20291763Y-624952D01*
G01X20303193Y-636382D01*
G01X20314623Y-642224D01*
G01X20331641Y-642224D01*
G01X20343071Y-636382D01*
G01X20354501Y-624952D01*
G01X20402253Y-562214D02*
G01X20402253Y-642224D01*
G01X20402253Y-596504D02*
G01X20408095Y-579232D01*
G01X20419525Y-567802D01*
G01X20430955Y-562214D01*
G01X20447973Y-562214D01*
G01X6266028Y-1102653D02*
G01X6208878Y-1222795D01*
G01X6186018Y-1102653D02*
G01X6266028Y-1102653D01*
G01X6348070Y-1102653D02*
G01X6331052Y-1108495D01*
G01X6319622Y-1125513D01*
G01X6313780Y-1154215D01*
G01X6313780Y-1171233D01*
G01X6319622Y-1199935D01*
G01X6331052Y-1216953D01*
G01X6348070Y-1222795D01*
G01X6359500Y-1222795D01*
G01X6376772Y-1216953D01*
G01X6388202Y-1199935D01*
G01X6393790Y-1171233D01*
G01X6393790Y-1154215D01*
G01X6388202Y-1125513D01*
G01X6376772Y-1108495D01*
G01X6359500Y-1102653D01*
G01X6348070Y-1102653D01*
G01X7600181Y-1125513D02*
G01X7611611Y-1119925D01*
G01X7628883Y-1102653D01*
G01X7628883Y-1222795D01*
G01X7682477Y-1131355D02*
G01X7682477Y-1125513D01*
G01X7688065Y-1114083D01*
G01X7693907Y-1108495D01*
G01X7705337Y-1102653D01*
G01X7728197Y-1102653D01*
G01X7739627Y-1108495D01*
G01X7745215Y-1114083D01*
G01X7751057Y-1125513D01*
G01X7751057Y-1136943D01*
G01X7745215Y-1148373D01*
G01X7733785Y-1165645D01*
G01X7676635Y-1222795D01*
G01X7756645Y-1222795D01*
G01X7810239Y-1194093D02*
G01X7804397Y-1199935D01*
G01X7810239Y-1205523D01*
G01X7815827Y-1199935D01*
G01X7810239Y-1194093D01*
G01X7897869Y-1102653D02*
G01X7880851Y-1108495D01*
G01X7869421Y-1125513D01*
G01X7863579Y-1154215D01*
G01X7863579Y-1171233D01*
G01X7869421Y-1199935D01*
G01X7880851Y-1216953D01*
G01X7897869Y-1222795D01*
G01X7909299Y-1222795D01*
G01X7926571Y-1216953D01*
G01X7938001Y-1199935D01*
G01X7943589Y-1171233D01*
G01X7943589Y-1154215D01*
G01X7938001Y-1125513D01*
G01X7926571Y-1108495D01*
G01X7909299Y-1102653D01*
G01X7897869Y-1102653D01*
G01X7991341Y-1142785D02*
G01X7991341Y-1222795D01*
G01X7991341Y-1165645D02*
G01X8008613Y-1148373D01*
G01X8020043Y-1142785D01*
G01X8037061Y-1142785D01*
G01X8048491Y-1148373D01*
G01X8054333Y-1165645D01*
G01X8054333Y-1222795D01*
G01X8054333Y-1165645D02*
G01X8071351Y-1148373D01*
G01X8082781Y-1142785D01*
G01X8100053Y-1142785D01*
G01X8111483Y-1148373D01*
G01X8117071Y-1165645D01*
G01X8117071Y-1222795D01*
G01X8164823Y-1102653D02*
G01X8170665Y-1108495D01*
G01X8176253Y-1102653D01*
G01X8170665Y-1097065D01*
G01X8164823Y-1102653D01*
G01X8170665Y-1142785D02*
G01X8170665Y-1222795D01*
G01X8224005Y-1102653D02*
G01X8224005Y-1222795D01*
G01X8311889Y-1079793D02*
G01X8300459Y-1091223D01*
G01X8289029Y-1108495D01*
G01X8277599Y-1131355D01*
G01X8271757Y-1159803D01*
G01X8271757Y-1182663D01*
G01X8277599Y-1211365D01*
G01X8289029Y-1234225D01*
G01X8300459Y-1251243D01*
G01X8311889Y-1262673D01*
G01X8393931Y-1102653D02*
G01X8376913Y-1108495D01*
G01X8365483Y-1125513D01*
G01X8359641Y-1154215D01*
G01X8359641Y-1171233D01*
G01X8365483Y-1199935D01*
G01X8376913Y-1216953D01*
G01X8393931Y-1222795D01*
G01X8405361Y-1222795D01*
G01X8422633Y-1216953D01*
G01X8434063Y-1199935D01*
G01X8439651Y-1171233D01*
G01X8439651Y-1154215D01*
G01X8434063Y-1125513D01*
G01X8422633Y-1108495D01*
G01X8405361Y-1102653D01*
G01X8393931Y-1102653D01*
G01X8493245Y-1194093D02*
G01X8487403Y-1199935D01*
G01X8493245Y-1205523D01*
G01X8498833Y-1199935D01*
G01X8493245Y-1194093D01*
G01X8558015Y-1102653D02*
G01X8621007Y-1102653D01*
G01X8586717Y-1148373D01*
G01X8603735Y-1148373D01*
G01X8615165Y-1154215D01*
G01X8621007Y-1159803D01*
G01X8626595Y-1177075D01*
G01X8626595Y-1188505D01*
G01X8621007Y-1205523D01*
G01X8609577Y-1216953D01*
G01X8592305Y-1222795D01*
G01X8575287Y-1222795D01*
G01X8558015Y-1216953D01*
G01X8552427Y-1211365D01*
G01X8546585Y-1199935D01*
G01X8708637Y-1102653D02*
G01X8691619Y-1108495D01*
G01X8680189Y-1125513D01*
G01X8674347Y-1154215D01*
G01X8674347Y-1171233D01*
G01X8680189Y-1199935D01*
G01X8691619Y-1216953D01*
G01X8708637Y-1222795D01*
G01X8720067Y-1222795D01*
G01X8737339Y-1216953D01*
G01X8748769Y-1199935D01*
G01X8754357Y-1171233D01*
G01X8754357Y-1154215D01*
G01X8748769Y-1125513D01*
G01X8737339Y-1108495D01*
G01X8720067Y-1102653D01*
G01X8708637Y-1102653D01*
G01X8870689Y-1102653D02*
G01X8813539Y-1102653D01*
G01X8807951Y-1154215D01*
G01X8813539Y-1148373D01*
G01X8830811Y-1142785D01*
G01X8847829Y-1142785D01*
G01X8865101Y-1148373D01*
G01X8876531Y-1159803D01*
G01X8882119Y-1177075D01*
G01X8882119Y-1188505D01*
G01X8876531Y-1205523D01*
G01X8865101Y-1216953D01*
G01X8847829Y-1222795D01*
G01X8830811Y-1222795D01*
G01X8813539Y-1216953D01*
G01X8807951Y-1211365D01*
G01X8802109Y-1199935D01*
G01X8929871Y-1142785D02*
G01X8929871Y-1222795D01*
G01X8929871Y-1165645D02*
G01X8947143Y-1148373D01*
G01X8958573Y-1142785D01*
G01X8975591Y-1142785D01*
G01X8987021Y-1148373D01*
G01X8992863Y-1165645D01*
G01X8992863Y-1222795D01*
G01X8992863Y-1165645D02*
G01X9009881Y-1148373D01*
G01X9021311Y-1142785D01*
G01X9038583Y-1142785D01*
G01X9050013Y-1148373D01*
G01X9055601Y-1165645D01*
G01X9055601Y-1222795D01*
G01X9103353Y-1142785D02*
G01X9103353Y-1222795D01*
G01X9103353Y-1165645D02*
G01X9120625Y-1148373D01*
G01X9132055Y-1142785D01*
G01X9149073Y-1142785D01*
G01X9160503Y-1148373D01*
G01X9166345Y-1165645D01*
G01X9166345Y-1222795D01*
G01X9166345Y-1165645D02*
G01X9183363Y-1148373D01*
G01X9194793Y-1142785D01*
G01X9212065Y-1142785D01*
G01X9223495Y-1148373D01*
G01X9229083Y-1165645D01*
G01X9229083Y-1222795D01*
G01X9276835Y-1079793D02*
G01X9288265Y-1091223D01*
G01X9299695Y-1108495D01*
G01X9311125Y-1131355D01*
G01X9316967Y-1159803D01*
G01X9316967Y-1182663D01*
G01X9311125Y-1211365D01*
G01X9299695Y-1234225D01*
G01X9288265Y-1251243D01*
G01X9276835Y-1262673D01*
G01X11379847Y-1102653D02*
G01X11379847Y-1222795D01*
G01X11379847Y-1102653D02*
G01X11431409Y-1102653D01*
G01X11448427Y-1108495D01*
G01X11454269Y-1114083D01*
G01X11459857Y-1125513D01*
G01X11459857Y-1142785D01*
G01X11454269Y-1154215D01*
G01X11448427Y-1159803D01*
G01X11431409Y-1165645D01*
G01X11379847Y-1165645D01*
G01X11547741Y-1102653D02*
G01X11547741Y-1222795D01*
G01X11507609Y-1102653D02*
G01X11587619Y-1102653D01*
G01X11635371Y-1102653D02*
G01X11635371Y-1222795D01*
G01X11715381Y-1102653D02*
G01X11715381Y-1222795D01*
G01X11635371Y-1159803D02*
G01X11715381Y-1159803D01*
G01X12841254Y-1102653D02*
G01X12841254Y-1222795D01*
G01X12841254Y-1102653D02*
G01X12892816Y-1102653D01*
G01X12909834Y-1108495D01*
G01X12915676Y-1114083D01*
G01X12921264Y-1125513D01*
G01X12921264Y-1136943D01*
G01X12915676Y-1148373D01*
G01X12909834Y-1154215D01*
G01X12892816Y-1159803D01*
G01X12841254Y-1159803D01*
G01X12881386Y-1159803D02*
G01X12921264Y-1222795D01*
G01X12997718Y-1142785D02*
G01X12986288Y-1148373D01*
G01X12974858Y-1159803D01*
G01X12969016Y-1177075D01*
G01X12969016Y-1188505D01*
G01X12974858Y-1205523D01*
G01X12986288Y-1216953D01*
G01X12997718Y-1222795D01*
G01X13014736Y-1222795D01*
G01X13026166Y-1216953D01*
G01X13037596Y-1205523D01*
G01X13043438Y-1188505D01*
G01X13043438Y-1177075D01*
G01X13037596Y-1159803D01*
G01X13026166Y-1148373D01*
G01X13014736Y-1142785D01*
G01X12997718Y-1142785D01*
G01X13091190Y-1142785D02*
G01X13091190Y-1199935D01*
G01X13097032Y-1216953D01*
G01X13108462Y-1222795D01*
G01X13125480Y-1222795D01*
G01X13136910Y-1216953D01*
G01X13154182Y-1199935D01*
G01X13154182Y-1142785D02*
G01X13154182Y-1222795D01*
G01X13201934Y-1142785D02*
G01X13201934Y-1222795D01*
G01X13201934Y-1165645D02*
G01X13219206Y-1148373D01*
G01X13230636Y-1142785D01*
G01X13247654Y-1142785D01*
G01X13259084Y-1148373D01*
G01X13264926Y-1165645D01*
G01X13264926Y-1222795D01*
G01X13381258Y-1102653D02*
G01X13381258Y-1222795D01*
G01X13381258Y-1159803D02*
G01X13369828Y-1148373D01*
G01X13358398Y-1142785D01*
G01X13341380Y-1142785D01*
G01X13329950Y-1148373D01*
G01X13318520Y-1159803D01*
G01X13312678Y-1177075D01*
G01X13312678Y-1188505D01*
G01X13318520Y-1205523D01*
G01X13329950Y-1216953D01*
G01X13341380Y-1222795D01*
G01X13358398Y-1222795D01*
G01X13369828Y-1216953D01*
G01X13381258Y-1205523D01*
G01X14272435Y-1102653D02*
G01X14318155Y-1222795D01*
G01X14363875Y-1102653D02*
G01X14318155Y-1222795D01*
G01X14411627Y-1102653D02*
G01X14417469Y-1108495D01*
G01X14423057Y-1102653D01*
G01X14417469Y-1097065D01*
G01X14411627Y-1102653D01*
G01X14417469Y-1142785D02*
G01X14417469Y-1222795D01*
G01X14539389Y-1142785D02*
G01X14539389Y-1222795D01*
G01X14539389Y-1159803D02*
G01X14527959Y-1148373D01*
G01X14516529Y-1142785D01*
G01X14499511Y-1142785D01*
G01X14488081Y-1148373D01*
G01X14476651Y-1159803D01*
G01X14470809Y-1177075D01*
G01X14470809Y-1188505D01*
G01X14476651Y-1205523D01*
G01X14488081Y-1216953D01*
G01X14499511Y-1222795D01*
G01X14516529Y-1222795D01*
G01X14527959Y-1216953D01*
G01X14539389Y-1205523D01*
G01X17901115Y-1102653D02*
G01X17901115Y-1222795D01*
G01X17860983Y-1102653D02*
G01X17940993Y-1102653D01*
G01X18017447Y-1142785D02*
G01X18006017Y-1148373D01*
G01X17994587Y-1159803D01*
G01X17988745Y-1177075D01*
G01X17988745Y-1188505D01*
G01X17994587Y-1205523D01*
G01X18006017Y-1216953D01*
G01X18017447Y-1222795D01*
G01X18034465Y-1222795D01*
G01X18045895Y-1216953D01*
G01X18057325Y-1205523D01*
G01X18063167Y-1188505D01*
G01X18063167Y-1177075D01*
G01X18057325Y-1159803D01*
G01X18045895Y-1148373D01*
G01X18034465Y-1142785D01*
G01X18017447Y-1142785D01*
G01X18110919Y-1142785D02*
G01X18110919Y-1262673D01*
G01X18110919Y-1159803D02*
G01X18122349Y-1148373D01*
G01X18133779Y-1142785D01*
G01X18151051Y-1142785D01*
G01X18162481Y-1148373D01*
G01X18173911Y-1159803D01*
G01X18179499Y-1177075D01*
G01X18179499Y-1188505D01*
G01X18173911Y-1205523D01*
G01X18162481Y-1216953D01*
G01X18151051Y-1222795D01*
G01X18133779Y-1222795D01*
G01X18122349Y-1216953D01*
G01X18110919Y-1205523D01*
G01X18355267Y-1102653D02*
G01X18355267Y-1222795D01*
G01X18355267Y-1222795D02*
G01X18423847Y-1222795D01*
G01X18540179Y-1142785D02*
G01X18540179Y-1222795D01*
G01X18540179Y-1159803D02*
G01X18528749Y-1148373D01*
G01X18517319Y-1142785D01*
G01X18500301Y-1142785D01*
G01X18488871Y-1148373D01*
G01X18477441Y-1159803D01*
G01X18471599Y-1177075D01*
G01X18471599Y-1188505D01*
G01X18477441Y-1205523D01*
G01X18488871Y-1216953D01*
G01X18500301Y-1222795D01*
G01X18517319Y-1222795D01*
G01X18528749Y-1216953D01*
G01X18540179Y-1205523D01*
G01X18593773Y-1142785D02*
G01X18628063Y-1222795D01*
G01X18662353Y-1142785D02*
G01X18628063Y-1222795D01*
G01X18616633Y-1245655D01*
G01X18605203Y-1257085D01*
G01X18593773Y-1262673D01*
G01X18587931Y-1262673D01*
G01X18710105Y-1177075D02*
G01X18778685Y-1177075D01*
G01X18778685Y-1165645D01*
G01X18773097Y-1154215D01*
G01X18767255Y-1148373D01*
G01X18755825Y-1142785D01*
G01X18738807Y-1142785D01*
G01X18727377Y-1148373D01*
G01X18715947Y-1159803D01*
G01X18710105Y-1177075D01*
G01X18710105Y-1188505D01*
G01X18715947Y-1205523D01*
G01X18727377Y-1216953D01*
G01X18738807Y-1222795D01*
G01X18755825Y-1222795D01*
G01X18767255Y-1216953D01*
G01X18778685Y-1205523D01*
G01X18826437Y-1142785D02*
G01X18826437Y-1222795D01*
G01X18826437Y-1177075D02*
G01X18832279Y-1159803D01*
G01X18843709Y-1148373D01*
G01X18855139Y-1142785D01*
G01X18872157Y-1142785D01*
G01X18919909Y-1171233D02*
G01X19022779Y-1171233D01*
G01X19070531Y-1102653D02*
G01X19070531Y-1222795D01*
G01X19070531Y-1102653D02*
G01X19122093Y-1102653D01*
G01X19139111Y-1108495D01*
G01X19144953Y-1114083D01*
G01X19150541Y-1125513D01*
G01X19150541Y-1136943D01*
G01X19144953Y-1148373D01*
G01X19139111Y-1154215D01*
G01X19122093Y-1159803D01*
G01X19070531Y-1159803D02*
G01X19122093Y-1159803D01*
G01X19139111Y-1165645D01*
G01X19144953Y-1171233D01*
G01X19150541Y-1182663D01*
G01X19150541Y-1199935D01*
G01X19144953Y-1211365D01*
G01X19139111Y-1216953D01*
G01X19122093Y-1222795D01*
G01X19070531Y-1222795D01*
G01X19226995Y-1142785D02*
G01X19215565Y-1148373D01*
G01X19204135Y-1159803D01*
G01X19198293Y-1177075D01*
G01X19198293Y-1188505D01*
G01X19204135Y-1205523D01*
G01X19215565Y-1216953D01*
G01X19226995Y-1222795D01*
G01X19244013Y-1222795D01*
G01X19255443Y-1216953D01*
G01X19266873Y-1205523D01*
G01X19272715Y-1188505D01*
G01X19272715Y-1177075D01*
G01X19266873Y-1159803D01*
G01X19255443Y-1148373D01*
G01X19244013Y-1142785D01*
G01X19226995Y-1142785D01*
G01X19337739Y-1102653D02*
G01X19337739Y-1199935D01*
G01X19343327Y-1216953D01*
G01X19354757Y-1222795D01*
G01X19366187Y-1222795D01*
G01X19320467Y-1142785D02*
G01X19360599Y-1142785D01*
G01X19431211Y-1102653D02*
G01X19431211Y-1199935D01*
G01X19436799Y-1216953D01*
G01X19448229Y-1222795D01*
G01X19459659Y-1222795D01*
G01X19413939Y-1142785D02*
G01X19454071Y-1142785D01*
G01X19536113Y-1142785D02*
G01X19524683Y-1148373D01*
G01X19513253Y-1159803D01*
G01X19507411Y-1177075D01*
G01X19507411Y-1188505D01*
G01X19513253Y-1205523D01*
G01X19524683Y-1216953D01*
G01X19536113Y-1222795D01*
G01X19553131Y-1222795D01*
G01X19564561Y-1216953D01*
G01X19575991Y-1205523D01*
G01X19581833Y-1188505D01*
G01X19581833Y-1177075D01*
G01X19575991Y-1159803D01*
G01X19564561Y-1148373D01*
G01X19553131Y-1142785D01*
G01X19536113Y-1142785D01*
G01X19629585Y-1142785D02*
G01X19629585Y-1222795D01*
G01X19629585Y-1165645D02*
G01X19646857Y-1148373D01*
G01X19658287Y-1142785D01*
G01X19675305Y-1142785D01*
G01X19686735Y-1148373D01*
G01X19692577Y-1165645D01*
G01X19692577Y-1222795D01*
G01X19692577Y-1165645D02*
G01X19709595Y-1148373D01*
G01X19721025Y-1142785D01*
G01X19738297Y-1142785D01*
G01X19749727Y-1148373D01*
G01X19755315Y-1165645D01*
G01X19755315Y-1222795D01*
G01X19931083Y-1102653D02*
G01X19931083Y-1222795D01*
G01X19931083Y-1222795D02*
G01X19999663Y-1222795D01*
G01X20115995Y-1142785D02*
G01X20115995Y-1222795D01*
G01X20115995Y-1159803D02*
G01X20104565Y-1148373D01*
G01X20093135Y-1142785D01*
G01X20076117Y-1142785D01*
G01X20064687Y-1148373D01*
G01X20053257Y-1159803D01*
G01X20047415Y-1177075D01*
G01X20047415Y-1188505D01*
G01X20053257Y-1205523D01*
G01X20064687Y-1216953D01*
G01X20076117Y-1222795D01*
G01X20093135Y-1222795D01*
G01X20104565Y-1216953D01*
G01X20115995Y-1205523D01*
G01X20169589Y-1142785D02*
G01X20203879Y-1222795D01*
G01X20238169Y-1142785D02*
G01X20203879Y-1222795D01*
G01X20192449Y-1245655D01*
G01X20181019Y-1257085D01*
G01X20169589Y-1262673D01*
G01X20163747Y-1262673D01*
G01X20285921Y-1177075D02*
G01X20354501Y-1177075D01*
G01X20354501Y-1165645D01*
G01X20348913Y-1154215D01*
G01X20343071Y-1148373D01*
G01X20331641Y-1142785D01*
G01X20314623Y-1142785D01*
G01X20303193Y-1148373D01*
G01X20291763Y-1159803D01*
G01X20285921Y-1177075D01*
G01X20285921Y-1188505D01*
G01X20291763Y-1205523D01*
G01X20303193Y-1216953D01*
G01X20314623Y-1222795D01*
G01X20331641Y-1222795D01*
G01X20343071Y-1216953D01*
G01X20354501Y-1205523D01*
G01X20402253Y-1142785D02*
G01X20402253Y-1222795D01*
G01X20402253Y-1177075D02*
G01X20408095Y-1159803D01*
G01X20419525Y-1148373D01*
G01X20430955Y-1142785D01*
G01X20447973Y-1142785D01*

G04 Image Start*
G36*
G01X5021406Y-1283265D02*
G01X4915793Y-1271785D01*
G01X4872918Y-1368990D01*
G01X4830043Y-1271785D01*
G01X4724430Y-1283265D01*
G01X4787193Y-1197540D01*
G01X4747471Y-1143286D01*
G01X4778963Y-1143286D01*
G01X4818664Y-1197540D01*
G01X4778963Y-1251795D01*
G01X4845791Y-1244530D01*
G01X4845791Y-1244530D01*
G01X4872918Y-1306024D01*
G01X4900045Y-1244530D01*
G01X4966873Y-1251795D01*
G01X4927172Y-1197540D01*
G01X4966847Y-1143311D01*
G01X4900020Y-1150576D01*
G01X4872918Y-1089057D01*
G01X4845791Y-1150550D01*
G01X4778963Y-1143286D01*
G01X4747471Y-1143286D01*
G01X4724430Y-1111815D01*
G01X4830068Y-1123296D01*
G01X4872918Y-1026090D01*
G01X4915793Y-1123296D01*
G01X5021406Y-1111815D01*
G01X4958643Y-1197540D01*
G01X5021406Y-1283265D01*
G37*
G36*
G01X4892413Y-168961D02*
G01X4884673Y-169549D01*
G01X4876830Y-169747D01*
G01X4868987Y-169549D01*
G01X4861246Y-168961D01*
G01X4853619Y-167992D01*
G01X4846114Y-166652D01*
G01X4831508Y-162897D01*
G01X4817506Y-157772D01*
G01X4804184Y-151355D01*
G01X4791618Y-143722D01*
G01X4779886Y-134949D01*
G01X4769064Y-125113D01*
G01X4759228Y-114291D01*
G01X4750455Y-102559D01*
G01X4742822Y-89994D01*
G01X4736405Y-76672D01*
G01X4731281Y-62669D01*
G01X4727526Y-48064D01*
G01X4726185Y-40558D01*
G01X4725216Y-32931D01*
G01X4724628Y-25191D01*
G01X4724430Y-17347D01*
G01X4749830Y-17347D01*
G01X4750487Y-30314D01*
G01X4752414Y-42910D01*
G01X4755549Y-55072D01*
G01X4759826Y-66734D01*
G01X4765181Y-77833D01*
G01X4771549Y-88305D01*
G01X4778867Y-98085D01*
G01X4787069Y-107108D01*
G01X4796093Y-115311D01*
G01X4805872Y-122628D01*
G01X4816344Y-128997D01*
G01X4827443Y-134351D01*
G01X4839105Y-138628D01*
G01X4851267Y-141763D01*
G01X4851267Y-141763D01*
G01X4863863Y-143691D01*
G01X4876830Y-144347D01*
G01X4889796Y-143691D01*
G01X4902392Y-141763D01*
G01X4914554Y-138628D01*
G01X4926216Y-134351D01*
G01X4937316Y-128997D01*
G01X4947787Y-122628D01*
G01X4957567Y-115311D01*
G01X4966590Y-107108D01*
G01X4974793Y-98085D01*
G01X4982110Y-88305D01*
G01X4988479Y-77833D01*
G01X4993834Y-66734D01*
G01X4998110Y-55072D01*
G01X5001245Y-42910D01*
G01X5003173Y-30314D01*
G01X5003830Y-17347D01*
G01X5003173Y-4381D01*
G01X5001245Y8215D01*
G01X4998110Y20377D01*
G01X4993834Y32039D01*
G01X4988479Y43138D01*
G01X4982110Y53610D01*
G01X4974793Y63390D01*
G01X4966590Y72413D01*
G01X4957567Y80616D01*
G01X4947787Y87933D01*
G01X4937316Y94302D01*
G01X4926216Y99656D01*
G01X4914554Y103933D01*
G01X4902392Y107068D01*
G01X4889796Y108996D01*
G01X4876830Y109653D01*
G01X4863863Y108996D01*
G01X4851267Y107068D01*
G01X4839105Y103933D01*
G01X4827443Y99656D01*
G01X4816344Y94302D01*
G01X4805872Y87933D01*
G01X4796093Y80616D01*
G01X4787069Y72413D01*
G01X4778867Y63390D01*
G01X4771549Y53610D01*
G01X4765181Y43138D01*
G01X4759826Y32039D01*
G01X4755549Y20377D01*
G01X4752414Y8215D01*
G01X4750487Y-4381D01*
G01X4749830Y-17347D01*
G01X4724430Y-17347D01*
G01X4724628Y-9504D01*
G01X4725216Y-1764D01*
G01X4726185Y5863D01*
G01X4727526Y13369D01*
G01X4731281Y27974D01*
G01X4736405Y41977D01*
G01X4742822Y55299D01*
G01X4750455Y67864D01*
G01X4759228Y79596D01*
G01X4769064Y90418D01*
G01X4779886Y100254D01*
G01X4791618Y109027D01*
G01X4804184Y116660D01*
G01X4817506Y123077D01*
G01X4831508Y128202D01*
G01X4846114Y131957D01*
G01X4853619Y133297D01*
G01X4861246Y134266D01*
G01X4868987Y134854D01*
G01X4876830Y135053D01*
G01X4884673Y134854D01*
G01X4892413Y134266D01*
G01X4900040Y133297D01*
G01X4907546Y131957D01*
G01X4922152Y128202D01*
G01X4936154Y123077D01*
G01X4949476Y116660D01*
G01X4962041Y109027D01*
G01X4973773Y100254D01*
G01X4984596Y90418D01*
G01X4994431Y79596D01*
G01X5003204Y67864D01*
G01X5010837Y55299D01*
G01X5017254Y41977D01*
G01X5022379Y27974D01*
G01X5026134Y13369D01*
G01X5027474Y5863D01*
G01X5028443Y-1764D01*
G01X5029031Y-9504D01*
G01X5029230Y-17347D01*
G01X5029031Y-25191D01*
G01X5028443Y-32931D01*
G01X5027474Y-40558D01*
G01X5026134Y-48064D01*
G01X5022379Y-62669D01*
G01X5017254Y-76672D01*
G01X5010837Y-89994D01*
G01X5003204Y-102559D01*
G01X4994431Y-114291D01*
G01X4984596Y-125113D01*
G01X4973773Y-134949D01*
G01X4962041Y-143722D01*
G01X4949476Y-151355D01*
G01X4936154Y-157772D01*
G01X4922152Y-162897D01*
G01X4907546Y-166652D01*
G01X4900040Y-167992D01*
G01X4892413Y-168961D01*
G37*
G36*
G01X4724430Y-445519D02*
G01X5029230Y-445519D01*
G01X4876830Y-709476D01*
G01X4739095Y-470919D01*
G01X4768422Y-470919D01*
G01X4876830Y-658676D01*
G01X4985237Y-470919D01*
G01X4985237Y-470919D01*
G01X4768422Y-470919D01*
G01X4739095Y-470919D01*
G01X4724430Y-445519D01*
G37*
G36*
G01X4724430Y715624D02*
G01X5003830Y715624D01*
G01X5003830Y436224D01*
G01X4724430Y436224D01*
G01X4724430Y690224D01*
G01X4749830Y690224D01*
G01X4749830Y461624D01*
G01X4978430Y461624D01*
G01X4978430Y690224D01*
G01X4978430Y690224D01*
G01X4749830Y690224D01*
G01X4724430Y690224D01*
G01X4724430Y715624D01*
G37*

G04 PolygonModel Start*
G54D15*
G01X4434144Y-1461519D02*
G01X21038705Y-1461519D01*
G01X4434144Y-880947D02*
G01X21038705Y-880947D01*
G01X4434144Y-300376D02*
G01X21038705Y-300376D01*
G01X4434144Y280195D02*
G01X21038705Y280195D01*
G01X4434144Y860767D02*
G01X21038705Y860767D01*
G01X4434144Y1441338D02*
G01X21038705Y1441338D01*
G01X4434144Y1441338D02*
G01X4434144Y-1436119D01*
G01X5885573Y1441338D02*
G01X5885573Y-1436119D01*
G01X7299736Y1441338D02*
G01X7299736Y-1436119D01*
G01X11079401Y1441338D02*
G01X11079401Y-1436119D01*
G01X12540808Y1441338D02*
G01X12540808Y-1436119D01*
G01X13971989Y1441338D02*
G01X13971989Y-1436119D01*
G01X15641168Y1441338D02*
G01X15641168Y-1436119D01*
G01X17560537Y1441338D02*
G01X17560537Y-1436119D01*
G01X21038705Y1441338D02*
G01X21038705Y-1436119D01*

M02*

