G04 Layer: TopPasteMaskLayer*
G04 EasyEDA Pro v3.2.135, 2026-06-11 10:07:05*
G04 Gerber Generator version 0.3*
G04 Scale: 100 percent, Rotated: No, Reflected: No*
G04 Dimensions in millimeters*
G04 Leading zeros omitted, absolute positions, 4 integers and 5 decimals*
G04 Generated by one-click*
G04 Object Configs: Pad,Via,Track,Text,Image,Dimension,BoardOutline,BoardCutout,CopperFilled,SolidRegion,FPCStiffener,Line,PlaneZone,ComponentProperty,ComponentSilkscreen,TearDrop*
G04 Layer Configs: 1,2,3,4,5,6,7,8,9,10,11,13,14,56*
G04 Copper Areas: 0*
%FSLAX45Y45*%
%MOMM*%
%ADD10R,0.5X1.2*%
%ADD11R,1.0X1.8*%
%ADD12R,2.49999X2.79999*%
%ADD13R,1.5X0.6*%
%ADD14R,2.0X2.99999*%
%ADD15R,0.6X1.5*%
%ADD16R,0.8063X1.5*%
%ADD17R,0.8X1.5*%
G75*


G04 PolygonModel Start*
G36*
G01X-25771Y-654007D02*
G01X-25771Y-574007D01*
G01X134229Y-574007D01*
G01X134229Y-654007D01*
G01X-25771Y-654007D01*
G37*
G36*
G01X134231Y-803999D02*
G01X134231Y-873999D01*
G01X-25768Y-873999D01*
G01X-25768Y-803999D01*
G01X134231Y-803999D01*
G37*
G36*
G01X-25768Y-774992D02*
G01X-25768Y-698993D01*
G01X134231Y-698993D01*
G01X134231Y-774992D01*
G01X-25768Y-774992D01*
G37*
G36*
G01X-25768Y-973999D02*
G01X-25768Y-903999D01*
G01X134231Y-903999D01*
G01X134231Y-973999D01*
G01X-25768Y-973999D01*
G37*
G36*
G01X134231Y-1123993D02*
G01X134231Y-1203993D01*
G01X-25768Y-1203993D01*
G01X-25768Y-1123993D01*
G01X134231Y-1123993D01*
G37*
G36*
G01X134231Y-1003005D02*
G01X134231Y-1079005D01*
G01X-25768Y-1079005D01*
G01X-25768Y-1003005D01*
G01X134231Y-1003005D01*
G37*
G36*
G01X14166Y-1322238D02*
G01X14166Y-1319743D01*
G01X14290Y-1317254D01*
G01X14539Y-1314773D01*
G01X14910Y-1312309D01*
G01X15405Y-1309865D01*
G01X16020Y-1307450D01*
G01X16754Y-1305067D01*
G01X17607Y-1302723D01*
G01X18575Y-1300427D01*
G01X19657Y-1298179D01*
G01X20848Y-1295989D01*
G01X22149Y-1293863D01*
G01X23553Y-1291803D01*
G01X25060Y-1289817D01*
G01X26662Y-1287907D01*
G01X28357Y-1286078D01*
G01X30142Y-1284338D01*
G01X32012Y-1282687D01*
G01X33960Y-1281133D01*
G01X35984Y-1279677D01*
G01X38080Y-1278326D01*
G01X40239Y-1277079D01*
G01X42456Y-1275941D01*
G01X44729Y-1274917D01*
G01X47048Y-1274006D01*
G01X49413Y-1273213D01*
G01X51813Y-1272537D01*
G01X54242Y-1271981D01*
G01X56698Y-1271549D01*
G01X59172Y-1271240D01*
G01X61659Y-1271052D01*
G01X64150Y-1270991D01*
G01X134150Y-1270991D01*
G01X136642Y-1271052D01*
G01X139129Y-1271240D01*
G01X141602Y-1271549D01*
G01X144059Y-1271981D01*
G01X146487Y-1272537D01*
G01X148887Y-1273213D01*
G01X151252Y-1274006D01*
G01X153571Y-1274917D01*
G01X155844Y-1275941D01*
G01X158062Y-1277079D01*
G01X160221Y-1278326D01*
G01X162316Y-1279677D01*
G01X164341Y-1281133D01*
G01X166289Y-1282687D01*
G01X168158Y-1284338D01*
G01X169944Y-1286078D01*
G01X171638Y-1287907D01*
G01X173241Y-1289817D01*
G01X174747Y-1291803D01*
G01X176152Y-1293863D01*
G01X177452Y-1295989D01*
G01X178643Y-1298179D01*
G01X179725Y-1300427D01*
G01X180693Y-1302723D01*
G01X181547Y-1305067D01*
G01X182281Y-1307450D01*
G01X182895Y-1309865D01*
G01X183391Y-1312309D01*
G01X183761Y-1314773D01*
G01X184010Y-1317254D01*
G01X184135Y-1319743D01*
G01X184135Y-1322238D01*
G01X184010Y-1324727D01*
G01X183761Y-1327208D01*
G01X183391Y-1329672D01*
G01X182895Y-1332116D01*
G01X182281Y-1334531D01*
G01X181547Y-1336914D01*
G01X180693Y-1339258D01*
G01X179725Y-1341554D01*
G01X178643Y-1343802D01*
G01X177452Y-1345989D01*
G01X176152Y-1348118D01*
G01X174747Y-1350178D01*
G01X173241Y-1352164D01*
G01X171638Y-1354074D01*
G01X169944Y-1355903D01*
G01X168158Y-1357643D01*
G01X166289Y-1359294D01*
G01X164341Y-1360848D01*
G01X162316Y-1362304D01*
G01X160221Y-1363655D01*
G01X158062Y-1364902D01*
G01X155844Y-1366040D01*
G01X153571Y-1367064D01*
G01X151252Y-1367975D01*
G01X148887Y-1368768D01*
G01X146487Y-1369444D01*
G01X144059Y-1370000D01*
G01X141602Y-1370432D01*
G01X139129Y-1370741D01*
G01X136642Y-1370929D01*
G01X134150Y-1370990D01*
G01X64150Y-1370990D01*
G01X61659Y-1370929D01*
G01X59172Y-1370741D01*
G01X56698Y-1370432D01*
G01X54242Y-1370000D01*
G01X51813Y-1369444D01*
G01X49413Y-1368768D01*
G01X47048Y-1367975D01*
G01X44729Y-1367064D01*
G01X42456Y-1366040D01*
G01X40239Y-1364902D01*
G01X38080Y-1363655D01*
G01X35984Y-1362304D01*
G01X33960Y-1360848D01*
G01X32012Y-1359294D01*
G01X30142Y-1357643D01*
G01X28357Y-1355903D01*
G01X26662Y-1354074D01*
G01X25060Y-1352164D01*
G01X23553Y-1350178D01*
G01X22149Y-1348118D01*
G01X20848Y-1345989D01*
G01X19657Y-1343802D01*
G01X18575Y-1341554D01*
G01X17607Y-1339258D01*
G01X16754Y-1336914D01*
G01X16020Y-1334531D01*
G01X15405Y-1332116D01*
G01X14910Y-1329672D01*
G01X14539Y-1327208D01*
G01X14290Y-1324727D01*
G01X14166Y-1322238D01*
G37*
G36*
G01X14166Y-458257D02*
G01X14166Y-455762D01*
G01X14290Y-453273D01*
G01X14539Y-450792D01*
G01X14910Y-448328D01*
G01X15405Y-445884D01*
G01X16020Y-443469D01*
G01X16754Y-441086D01*
G01X17607Y-438742D01*
G01X18575Y-436446D01*
G01X19657Y-434198D01*
G01X20848Y-432008D01*
G01X22149Y-429882D01*
G01X23553Y-427822D01*
G01X25060Y-425836D01*
G01X26662Y-423926D01*
G01X28357Y-422097D01*
G01X30142Y-420357D01*
G01X32012Y-418706D01*
G01X33960Y-417152D01*
G01X35984Y-415696D01*
G01X38080Y-414345D01*
G01X40239Y-413098D01*
G01X42456Y-411960D01*
G01X44729Y-410936D01*
G01X47048Y-410025D01*
G01X49413Y-409232D01*
G01X51813Y-408556D01*
G01X54242Y-408000D01*
G01X56698Y-407568D01*
G01X59172Y-407259D01*
G01X61659Y-407071D01*
G01X64150Y-407010D01*
G01X134150Y-407010D01*
G01X136642Y-407071D01*
G01X139129Y-407259D01*
G01X141602Y-407568D01*
G01X144059Y-408000D01*
G01X146487Y-408556D01*
G01X148887Y-409232D01*
G01X151252Y-410025D01*
G01X153571Y-410936D01*
G01X155844Y-411960D01*
G01X158062Y-413098D01*
G01X160221Y-414345D01*
G01X162316Y-415696D01*
G01X164341Y-417152D01*
G01X166289Y-418706D01*
G01X168158Y-420357D01*
G01X169944Y-422097D01*
G01X171638Y-423926D01*
G01X173241Y-425836D01*
G01X174747Y-427822D01*
G01X176152Y-429882D01*
G01X177452Y-432008D01*
G01X178643Y-434198D01*
G01X179725Y-436446D01*
G01X180693Y-438742D01*
G01X181547Y-441086D01*
G01X182281Y-443469D01*
G01X182895Y-445884D01*
G01X183391Y-448328D01*
G01X183761Y-450792D01*
G01X184010Y-453273D01*
G01X184135Y-455762D01*
G01X184135Y-458257D01*
G01X184010Y-460746D01*
G01X183761Y-463227D01*
G01X183391Y-465691D01*
G01X182895Y-468135D01*
G01X182281Y-470550D01*
G01X181547Y-472933D01*
G01X180693Y-475277D01*
G01X179725Y-477573D01*
G01X178643Y-479821D01*
G01X177452Y-482008D01*
G01X176152Y-484137D01*
G01X174747Y-486197D01*
G01X173241Y-488183D01*
G01X171638Y-490093D01*
G01X169944Y-491922D01*
G01X168158Y-493662D01*
G01X166289Y-495313D01*
G01X164341Y-496867D01*
G01X162316Y-498323D01*
G01X160221Y-499674D01*
G01X158062Y-500921D01*
G01X155844Y-502059D01*
G01X153571Y-503083D01*
G01X151252Y-503994D01*
G01X148887Y-504787D01*
G01X146487Y-505463D01*
G01X144059Y-506019D01*
G01X141602Y-506451D01*
G01X139129Y-506760D01*
G01X136642Y-506948D01*
G01X134150Y-507009D01*
G01X64150Y-507009D01*
G01X61659Y-506948D01*
G01X59172Y-506760D01*
G01X56698Y-506451D01*
G01X54242Y-506019D01*
G01X51813Y-505463D01*
G01X49413Y-504787D01*
G01X47048Y-503994D01*
G01X44729Y-503083D01*
G01X42456Y-502059D01*
G01X40239Y-500921D01*
G01X38080Y-499674D01*
G01X35984Y-498323D01*
G01X33960Y-496867D01*
G01X32012Y-495313D01*
G01X30142Y-493662D01*
G01X28357Y-491922D01*
G01X26662Y-490093D01*
G01X25060Y-488183D01*
G01X23553Y-486197D01*
G01X22149Y-484137D01*
G01X20848Y-482008D01*
G01X19657Y-479821D01*
G01X18575Y-477573D01*
G01X17607Y-475277D01*
G01X16754Y-472933D01*
G01X16020Y-470550D01*
G01X15405Y-468135D01*
G01X14910Y-465691D01*
G01X14539Y-463227D01*
G01X14290Y-460746D01*
G01X14166Y-458257D01*
G37*
G36*
G01X394175Y-1322238D02*
G01X394175Y-1319743D01*
G01X394299Y-1317254D01*
G01X394548Y-1314773D01*
G01X394919Y-1312309D01*
G01X395415Y-1309865D01*
G01X396029Y-1307450D01*
G01X396763Y-1305067D01*
G01X397617Y-1302723D01*
G01X398584Y-1300427D01*
G01X399666Y-1298179D01*
G01X400858Y-1295989D01*
G01X402158Y-1293863D01*
G01X403563Y-1291803D01*
G01X405069Y-1289817D01*
G01X406672Y-1287907D01*
G01X408366Y-1286078D01*
G01X410152Y-1284338D01*
G01X412021Y-1282687D01*
G01X413969Y-1281133D01*
G01X415994Y-1279677D01*
G01X418089Y-1278326D01*
G01X420248Y-1277079D01*
G01X422466Y-1275941D01*
G01X424739Y-1274917D01*
G01X427058Y-1274006D01*
G01X429423Y-1273213D01*
G01X431823Y-1272537D01*
G01X434251Y-1271981D01*
G01X436707Y-1271549D01*
G01X439181Y-1271240D01*
G01X441668Y-1271052D01*
G01X444160Y-1270991D01*
G01X514160Y-1270991D01*
G01X516651Y-1271052D01*
G01X519138Y-1271240D01*
G01X521612Y-1271549D01*
G01X524068Y-1271981D01*
G01X526496Y-1272537D01*
G01X528897Y-1273213D01*
G01X531261Y-1274006D01*
G01X533580Y-1274917D01*
G01X535854Y-1275941D01*
G01X538071Y-1277079D01*
G01X540230Y-1278326D01*
G01X542326Y-1279677D01*
G01X544350Y-1281133D01*
G01X546298Y-1282687D01*
G01X548168Y-1284338D01*
G01X549953Y-1286078D01*
G01X551647Y-1287907D01*
G01X553250Y-1289817D01*
G01X554756Y-1291803D01*
G01X556161Y-1293863D01*
G01X557461Y-1295989D01*
G01X558653Y-1298179D01*
G01X559735Y-1300427D01*
G01X560702Y-1302723D01*
G01X561556Y-1305067D01*
G01X562290Y-1307450D01*
G01X562905Y-1309865D01*
G01X563400Y-1312309D01*
G01X563771Y-1314773D01*
G01X564020Y-1317254D01*
G01X564144Y-1319743D01*
G01X564144Y-1322238D01*
G01X564020Y-1324727D01*
G01X563771Y-1327208D01*
G01X563400Y-1329672D01*
G01X562905Y-1332116D01*
G01X562290Y-1334531D01*
G01X561556Y-1336914D01*
G01X560702Y-1339258D01*
G01X559735Y-1341554D01*
G01X558653Y-1343802D01*
G01X557461Y-1345989D01*
G01X556161Y-1348118D01*
G01X554756Y-1350178D01*
G01X553250Y-1352164D01*
G01X551647Y-1354074D01*
G01X549953Y-1355903D01*
G01X548168Y-1357643D01*
G01X546298Y-1359294D01*
G01X544350Y-1360848D01*
G01X542326Y-1362304D01*
G01X540230Y-1363655D01*
G01X538071Y-1364902D01*
G01X535854Y-1366040D01*
G01X533580Y-1367064D01*
G01X531261Y-1367975D01*
G01X528897Y-1368768D01*
G01X526496Y-1369444D01*
G01X524068Y-1370000D01*
G01X521612Y-1370432D01*
G01X519138Y-1370741D01*
G01X516651Y-1370929D01*
G01X514160Y-1370990D01*
G01X444160Y-1370990D01*
G01X441668Y-1370929D01*
G01X439181Y-1370741D01*
G01X436707Y-1370432D01*
G01X434251Y-1370000D01*
G01X431823Y-1369444D01*
G01X429423Y-1368768D01*
G01X427058Y-1367975D01*
G01X424739Y-1367064D01*
G01X422466Y-1366040D01*
G01X420248Y-1364902D01*
G01X418089Y-1363655D01*
G01X415994Y-1362304D01*
G01X413969Y-1360848D01*
G01X412021Y-1359294D01*
G01X410152Y-1357643D01*
G01X408366Y-1355903D01*
G01X406672Y-1354074D01*
G01X405069Y-1352164D01*
G01X403563Y-1350178D01*
G01X402158Y-1348118D01*
G01X400858Y-1345989D01*
G01X399666Y-1343802D01*
G01X398584Y-1341554D01*
G01X397617Y-1339258D01*
G01X396763Y-1336914D01*
G01X396029Y-1334531D01*
G01X395415Y-1332116D01*
G01X394919Y-1329672D01*
G01X394548Y-1327208D01*
G01X394299Y-1324727D01*
G01X394175Y-1322238D01*
G37*
G36*
G01X394299Y-453273D02*
G01X394548Y-450792D01*
G01X394919Y-448328D01*
G01X395415Y-445884D01*
G01X396029Y-443469D01*
G01X396763Y-441086D01*
G01X397617Y-438742D01*
G01X398584Y-436446D01*
G01X399666Y-434198D01*
G01X400858Y-432008D01*
G01X402158Y-429882D01*
G01X403563Y-427822D01*
G01X405069Y-425836D01*
G01X406672Y-423926D01*
G01X408366Y-422097D01*
G01X410152Y-420357D01*
G01X412021Y-418706D01*
G01X413969Y-417152D01*
G01X415994Y-415696D01*
G01X418089Y-414345D01*
G01X420248Y-413098D01*
G01X422466Y-411960D01*
G01X424739Y-410936D01*
G01X427058Y-410025D01*
G01X429423Y-409232D01*
G01X431823Y-408556D01*
G01X434251Y-408000D01*
G01X436707Y-407568D01*
G01X439181Y-407259D01*
G01X441668Y-407071D01*
G01X444160Y-407010D01*
G01X514160Y-407010D01*
G01X516651Y-407071D01*
G01X519138Y-407259D01*
G01X521612Y-407568D01*
G01X524068Y-408000D01*
G01X526496Y-408556D01*
G01X528897Y-409232D01*
G01X531261Y-410025D01*
G01X533580Y-410936D01*
G01X535854Y-411960D01*
G01X538071Y-413098D01*
G01X540230Y-414345D01*
G01X542326Y-415696D01*
G01X544350Y-417152D01*
G01X546298Y-418706D01*
G01X548168Y-420357D01*
G01X549953Y-422097D01*
G01X551647Y-423926D01*
G01X553250Y-425836D01*
G01X554756Y-427822D01*
G01X556161Y-429882D01*
G01X557461Y-432008D01*
G01X558653Y-434198D01*
G01X559735Y-436446D01*
G01X560702Y-438742D01*
G01X561556Y-441086D01*
G01X562290Y-443469D01*
G01X562905Y-445884D01*
G01X563400Y-448328D01*
G01X563771Y-450792D01*
G01X564020Y-453273D01*
G01X564144Y-455762D01*
G01X564144Y-458257D01*
G01X564020Y-460746D01*
G01X563771Y-463227D01*
G01X563400Y-465691D01*
G01X562905Y-468135D01*
G01X562290Y-470550D01*
G01X561556Y-472933D01*
G01X560702Y-475277D01*
G01X559735Y-477573D01*
G01X558653Y-479821D01*
G01X557461Y-482008D01*
G01X556161Y-484137D01*
G01X554756Y-486197D01*
G01X553250Y-488183D01*
G01X551647Y-490093D01*
G01X549953Y-491922D01*
G01X548168Y-493662D01*
G01X546298Y-495313D01*
G01X544350Y-496867D01*
G01X542326Y-498323D01*
G01X540230Y-499674D01*
G01X538071Y-500921D01*
G01X535854Y-502059D01*
G01X533580Y-503083D01*
G01X531261Y-503994D01*
G01X528897Y-504787D01*
G01X526496Y-505463D01*
G01X524068Y-506019D01*
G01X521612Y-506451D01*
G01X519138Y-506760D01*
G01X516651Y-506948D01*
G01X514160Y-507009D01*
G01X444160Y-507009D01*
G01X441668Y-506948D01*
G01X439181Y-506760D01*
G01X436707Y-506451D01*
G01X434251Y-506019D01*
G01X431823Y-505463D01*
G01X429423Y-504787D01*
G01X427058Y-503994D01*
G01X424739Y-503083D01*
G01X422466Y-502059D01*
G01X420248Y-500921D01*
G01X418089Y-499674D01*
G01X415994Y-498323D01*
G01X413969Y-496867D01*
G01X412021Y-495313D01*
G01X410152Y-493662D01*
G01X408366Y-491922D01*
G01X406672Y-490093D01*
G01X405069Y-488183D01*
G01X403563Y-486197D01*
G01X402158Y-484137D01*
G01X400858Y-482008D01*
G01X399666Y-479821D01*
G01X398584Y-477573D01*
G01X397617Y-475277D01*
G01X396763Y-472933D01*
G01X396029Y-470550D01*
G01X395415Y-468135D01*
G01X394919Y-465691D01*
G01X394548Y-463227D01*
G01X394299Y-460746D01*
G01X394175Y-458257D01*
G01X394175Y-455762D01*
G01X394299Y-453273D01*
G37*

G04 Pad Start*
G54D10*
G01X-686613Y1041095D03*
G01X-786613Y1041095D03*
G54D11*
G01X-575589Y1321105D03*
G01X-897611Y1321105D03*
G54D10*
G01X989787Y761695D03*
G01X889787Y761695D03*
G54D11*
G01X1100811Y1041705D03*
G01X778789Y1041705D03*
G54D12*
G01X2007299Y1146988D03*
G01X2007299Y377012D03*
G54D13*
G01X1777302Y912012D03*
G01X1777302Y812013D03*
G01X1777302Y712013D03*
G01X1777302Y612013D03*
G54D14*
G01X-437502Y330299D03*
G01X437502Y330299D03*
G54D15*
G01X-187515Y25303D03*
G01X-62497Y25303D03*
G01X62497Y25303D03*
G01X187490Y25303D03*
G54D14*
G01X-437502Y863699D03*
G01X437502Y863699D03*
G54D15*
G01X-187515Y558703D03*
G01X-62497Y558703D03*
G01X62497Y558703D03*
G01X187490Y558703D03*
G54D10*
G01X1052500Y281805D03*
G01X952500Y281805D03*
G01X852500Y281805D03*
G54D17*
G01X732511Y581795D03*
G01X1172489Y581795D03*
G04 Pad End*

M02*

