G04 Layer: BoardOutlineLayer*
G04 EasyEDA Pro v3.2.135, 2026-06-11 10:07:05*
G04 Gerber Generator version 0.3*
G04 Scale: 100 percent, Rotated: No, Reflected: No*
G04 Dimensions in millimeters*
G04 Leading zeros omitted, absolute positions, 4 integers and 5 decimals*
G04 Generated by one-click*
G04 Object Configs: Pad,Via,Track,Text,Image,Dimension,BoardOutline,BoardCutout,CopperFilled,SolidRegion,FPCStiffener,Line,PlaneZone,ComponentProperty,ComponentSilkscreen,TearDrop*
G04 Layer Configs: 1,2,3,4,5,6,7,8,9,10,11,13,14,56*
G04 Copper Areas: 0*
%FSLAX45Y45*%
%MOMM*%
%ADD10C,0.1*%
%ADD11C,0.0017*%
G75*


G04 PolygonModel Start*
G54D10*
G01X2434144Y1341338D02*
G01X2433717Y1350565D01*
G01X2432441Y1359713D01*
G01X2430326Y1368704D01*
G01X2427391Y1377462D01*
G01X2423660Y1385912D01*
G01X2419166Y1393981D01*
G01X2413946Y1401602D01*
G01X2408045Y1408708D01*
G01X2401513Y1415239D01*
G01X2394407Y1421140D01*
G01X2386787Y1426360D01*
G01X2378718Y1430854D01*
G01X2370268Y1434585D01*
G01X2361510Y1437521D01*
G01X2352519Y1439635D01*
G01X2343371Y1440912D01*
G01X2334144Y1441338D01*
G01X2334144Y1441338D02*
G01X-2334144Y1441338D01*
G01X-2334144Y1441338D02*
G03X-2434144Y1341338I0J-100000D01*
G01X-2434144Y1341338D02*
G01X-2434144Y-1341338D01*
G01X-2434144Y-1341338D02*
G03X-2334144Y-1441338I100000J0D01*
G01X-2334144Y-1441338D02*
G01X684144Y-1441338D01*
G01X684144Y-1441338D02*
G03X784144Y-1341338I0J100000D01*
G01X784144Y-1341338D02*
G01X784144Y-452363D01*
G01X884144Y-352363D02*
G01X874917Y-352789D01*
G01X865769Y-354066D01*
G01X856778Y-356180D01*
G01X848020Y-359116D01*
G01X839570Y-362847D01*
G01X831501Y-367341D01*
G01X823880Y-372561D01*
G01X816774Y-378462D01*
G01X810243Y-384993D01*
G01X804342Y-392100D01*
G01X799122Y-399720D01*
G01X794628Y-407789D01*
G01X790897Y-416239D01*
G01X787961Y-424997D01*
G01X785847Y-433988D01*
G01X784570Y-443136D01*
G01X784144Y-452363D01*
G01X884144Y-352363D02*
G01X2334144Y-352363D01*
G01X2334144Y-352363D02*
G01X2343371Y-351936D01*
G01X2352519Y-350660D01*
G01X2361510Y-348545D01*
G01X2370268Y-345610D01*
G01X2378718Y-341879D01*
G01X2386787Y-337385D01*
G01X2394407Y-332165D01*
G01X2401513Y-326264D01*
G01X2408045Y-319732D01*
G01X2413946Y-312626D01*
G01X2419166Y-305006D01*
G01X2423660Y-296937D01*
G01X2427391Y-288487D01*
G01X2430326Y-279729D01*
G01X2432441Y-270738D01*
G01X2433717Y-261590D01*
G01X2434144Y-252363D01*
G01X2434144Y-252363D02*
G01X2434144Y1341338D01*

M02*

