G04 Layer: DrillDrawingLayer*
G04 EasyEDA Pro v3.2.135, 2026-06-11 10:07:19*
G04 Gerber Generator version 0.3*
G04 Scale: 100 percent, Rotated: No, Reflected: No*
G04 Dimensions in millimeters*
G04 Leading zeros omitted, absolute positions, 4 integers and 5 decimals*
G04 Generated by one-click*
G04 Object Configs: Pad,Via,Track,Text,Image,Dimension,BoardOutline,BoardCutout,CopperFilled,SolidRegion,FPCStiffener,Line,PlaneZone,ComponentProperty,ComponentSilkscreen,TearDrop*
G04 Layer Configs: 1,2,3,4,5,6,7,8,9,10,11,13,14,56*
G04 Copper Areas: 0*
%FSLAX45Y45*%
%MOMM*%
%AMIconRect*4,1,4,0.28,-0.28,-0.28,-0.28,-0.28,0.28,0.28,0.28,0.28,-0.28,0*4,0,4,0.233333,-0.233333,0.233333,0.233333,-0.233333,0.233333,-0.233333,-0.233333,0.233333,-0.233333,0*%
%AMIconTriangle*4,1,3,-0.339593,0.240473,0.339593,0.240473,0,-0.37884,-0.339593,0.240473,0*4,0,3,-0.265673,0.19404,0,-0.27342,0.266233,0.19404,-0.265673,0.19404,0*%
%AMIconStar6*4,1,12,0.12068,0.20888,0.298527,0.172713,0.241313,0,0.298527,-0.17206,0.12068,-0.208227,0,-0.344073,-0.120073,-0.208227,-0.298573,-0.17206,-0.240707,0,-0.298573,0.17206,-0.120073,0.20888,0,0.344073,0.12068,0.20888,0*4,0,12,-0.000467,0.273467,-0.090067,0.171733,-0.237533,0.136733,-0.193667,-0.007467,-0.237533,-0.1372,-0.090067,-0.171733,-0.000467,-0.273933,0.090067,-0.171733,0.237533,-0.1372,0.194133,0.007,0.237533,0.1372,0.090067,0.171267,-0.000467,0.273467,0*%
%ADD10IconRect*%
%ADD11C,0.616X0.522667*%
%ADD12IconTriangle*%
%ADD13IconStar6*%
%ADD14C,0.2032*%
%ADD15C,0.254*%
G75*


G04 Drill Drawing Start*
G54D10*
G01X-990602Y-215901D03*
G01X990602Y-215901D03*
G54D11*
G01X-249999Y787400D03*
G01X13Y787400D03*
G01X250012Y787400D03*
G54D12*
G01X-432058Y-675048D03*
G01X-432058Y-295039D03*
G01X431923Y-675048D03*
G01X431923Y-295039D03*
G54D13*
G01X-896600Y655300D03*
G01X119400Y147300D03*
G01X119400Y655300D03*
G01X627400Y655300D03*
G01X631805Y149205D03*
G01X1135400Y147300D03*
G01X1135400Y655300D03*
G04 Drill Drawing End*

G04 Text Start*
G54D14*
G01X3564381Y815295D02*
G01X3564381Y695153D01*
G01X3564381Y815295D02*
G01X3610101Y695153D01*
G01X3655821Y815295D02*
G01X3610101Y695153D01*
G01X3655821Y815295D02*
G01X3655821Y695153D01*
G01X3772153Y775163D02*
G01X3772153Y695153D01*
G01X3772153Y758145D02*
G01X3760723Y769575D01*
G01X3749293Y775163D01*
G01X3732275Y775163D01*
G01X3720845Y769575D01*
G01X3709415Y758145D01*
G01X3703573Y740873D01*
G01X3703573Y729443D01*
G01X3709415Y712425D01*
G01X3720845Y700995D01*
G01X3732275Y695153D01*
G01X3749293Y695153D01*
G01X3760723Y700995D01*
G01X3772153Y712425D01*
G01X3819905Y775163D02*
G01X3819905Y695153D01*
G01X3819905Y740873D02*
G01X3825747Y758145D01*
G01X3837177Y769575D01*
G01X3848607Y775163D01*
G01X3865625Y775163D01*
G01X3913377Y815295D02*
G01X3913377Y695153D01*
G01X3970527Y775163D02*
G01X3913377Y718013D01*
G01X3936237Y740873D02*
G01X3976369Y695153D01*
G01X5101662Y786593D02*
G01X5095820Y798023D01*
G01X5084390Y809453D01*
G01X5072960Y815295D01*
G01X5050100Y815295D01*
G01X5038670Y809453D01*
G01X5027240Y798023D01*
G01X5021652Y786593D01*
G01X5015810Y769575D01*
G01X5015810Y740873D01*
G01X5021652Y723855D01*
G01X5027240Y712425D01*
G01X5038670Y700995D01*
G01X5050100Y695153D01*
G01X5072960Y695153D01*
G01X5084390Y700995D01*
G01X5095820Y712425D01*
G01X5101662Y723855D01*
G01X5178116Y775163D02*
G01X5166686Y769575D01*
G01X5155256Y758145D01*
G01X5149414Y740873D01*
G01X5149414Y729443D01*
G01X5155256Y712425D01*
G01X5166686Y700995D01*
G01X5178116Y695153D01*
G01X5195134Y695153D01*
G01X5206564Y700995D01*
G01X5217994Y712425D01*
G01X5223836Y729443D01*
G01X5223836Y740873D01*
G01X5217994Y758145D01*
G01X5206564Y769575D01*
G01X5195134Y775163D01*
G01X5178116Y775163D01*
G01X5271588Y775163D02*
G01X5271588Y718013D01*
G01X5277430Y700995D01*
G01X5288860Y695153D01*
G01X5305878Y695153D01*
G01X5317308Y700995D01*
G01X5334580Y718013D01*
G01X5334580Y775163D02*
G01X5334580Y695153D01*
G01X5382332Y775163D02*
G01X5382332Y695153D01*
G01X5382332Y752303D02*
G01X5399604Y769575D01*
G01X5411034Y775163D01*
G01X5428052Y775163D01*
G01X5439482Y769575D01*
G01X5445324Y752303D01*
G01X5445324Y695153D01*
G01X5510348Y815295D02*
G01X5510348Y718013D01*
G01X5515936Y700995D01*
G01X5527366Y695153D01*
G01X5538796Y695153D01*
G01X5493076Y775163D02*
G01X5533208Y775163D01*
G01X6509983Y798023D02*
G01X6498553Y809453D01*
G01X6481535Y815295D01*
G01X6458675Y815295D01*
G01X6441403Y809453D01*
G01X6429973Y798023D01*
G01X6429973Y786593D01*
G01X6435815Y775163D01*
G01X6441403Y769575D01*
G01X6452833Y763733D01*
G01X6487123Y752303D01*
G01X6498553Y746715D01*
G01X6504395Y740873D01*
G01X6509983Y729443D01*
G01X6509983Y712425D01*
G01X6498553Y700995D01*
G01X6481535Y695153D01*
G01X6458675Y695153D01*
G01X6441403Y700995D01*
G01X6429973Y712425D01*
G01X6557735Y815295D02*
G01X6563577Y809453D01*
G01X6569165Y815295D01*
G01X6563577Y820883D01*
G01X6557735Y815295D01*
G01X6563577Y775163D02*
G01X6563577Y695153D01*
G01X6679909Y775163D02*
G01X6616917Y695153D01*
G01X6616917Y775163D02*
G01X6679909Y775163D01*
G01X6616917Y695153D02*
G01X6679909Y695153D01*
G01X6727661Y740873D02*
G01X6796241Y740873D01*
G01X6796241Y752303D01*
G01X6790653Y763733D01*
G01X6784811Y769575D01*
G01X6773381Y775163D01*
G01X6756363Y775163D01*
G01X6744933Y769575D01*
G01X6733503Y758145D01*
G01X6727661Y740873D01*
G01X6727661Y729443D01*
G01X6733503Y712425D01*
G01X6744933Y700995D01*
G01X6756363Y695153D01*
G01X6773381Y695153D01*
G01X6784811Y700995D01*
G01X6796241Y712425D01*
G01X10323430Y815295D02*
G01X10323430Y695153D01*
G01X10323430Y815295D02*
G01X10374992Y815295D01*
G01X10392010Y809453D01*
G01X10397852Y803865D01*
G01X10403440Y792435D01*
G01X10403440Y775163D01*
G01X10397852Y763733D01*
G01X10392010Y758145D01*
G01X10374992Y752303D01*
G01X10323430Y752303D01*
G01X10451192Y815295D02*
G01X10451192Y695153D01*
G01X10567524Y775163D02*
G01X10567524Y695153D01*
G01X10567524Y758145D02*
G01X10556094Y769575D01*
G01X10544664Y775163D01*
G01X10527646Y775163D01*
G01X10516216Y769575D01*
G01X10504786Y758145D01*
G01X10498944Y740873D01*
G01X10498944Y729443D01*
G01X10504786Y712425D01*
G01X10516216Y700995D01*
G01X10527646Y695153D01*
G01X10544664Y695153D01*
G01X10556094Y700995D01*
G01X10567524Y712425D01*
G01X10632548Y815295D02*
G01X10632548Y718013D01*
G01X10638136Y700995D01*
G01X10649566Y695153D01*
G01X10660996Y695153D01*
G01X10615276Y775163D02*
G01X10655408Y775163D01*
G01X10708748Y740873D02*
G01X10777328Y740873D01*
G01X10777328Y752303D01*
G01X10771740Y763733D01*
G01X10765898Y769575D01*
G01X10754468Y775163D01*
G01X10737450Y775163D01*
G01X10726020Y769575D01*
G01X10714590Y758145D01*
G01X10708748Y740873D01*
G01X10708748Y729443D01*
G01X10714590Y712425D01*
G01X10726020Y700995D01*
G01X10737450Y695153D01*
G01X10754468Y695153D01*
G01X10765898Y700995D01*
G01X10777328Y712425D01*
G01X10893660Y815295D02*
G01X10893660Y695153D01*
G01X10893660Y758145D02*
G01X10882230Y769575D01*
G01X10870800Y775163D01*
G01X10853782Y775163D01*
G01X10842352Y769575D01*
G01X10830922Y758145D01*
G01X10825080Y740873D01*
G01X10825080Y729443D01*
G01X10830922Y712425D01*
G01X10842352Y700995D01*
G01X10853782Y695153D01*
G01X10870800Y695153D01*
G01X10882230Y700995D01*
G01X10893660Y712425D01*
G01X11864847Y798023D02*
G01X11853417Y809453D01*
G01X11836399Y815295D01*
G01X11813539Y815295D01*
G01X11796267Y809453D01*
G01X11784837Y798023D01*
G01X11784837Y786593D01*
G01X11790679Y775163D01*
G01X11796267Y769575D01*
G01X11807697Y763733D01*
G01X11841987Y752303D01*
G01X11853417Y746715D01*
G01X11859259Y740873D01*
G01X11864847Y729443D01*
G01X11864847Y712425D01*
G01X11853417Y700995D01*
G01X11836399Y695153D01*
G01X11813539Y695153D01*
G01X11796267Y700995D01*
G01X11784837Y712425D01*
G01X11912599Y815295D02*
G01X11912599Y695153D01*
G01X11912599Y752303D02*
G01X11929871Y769575D01*
G01X11941301Y775163D01*
G01X11958319Y775163D01*
G01X11969749Y769575D01*
G01X11975591Y752303D01*
G01X11975591Y695153D01*
G01X12091923Y775163D02*
G01X12091923Y695153D01*
G01X12091923Y758145D02*
G01X12080493Y769575D01*
G01X12069063Y775163D01*
G01X12052045Y775163D01*
G01X12040615Y769575D01*
G01X12029185Y758145D01*
G01X12023343Y740873D01*
G01X12023343Y729443D01*
G01X12029185Y712425D01*
G01X12040615Y700995D01*
G01X12052045Y695153D01*
G01X12069063Y695153D01*
G01X12080493Y700995D01*
G01X12091923Y712425D01*
G01X12139675Y775163D02*
G01X12139675Y655275D01*
G01X12139675Y758145D02*
G01X12151105Y769575D01*
G01X12162535Y775163D01*
G01X12179807Y775163D01*
G01X12191237Y769575D01*
G01X12202667Y758145D01*
G01X12208255Y740873D01*
G01X12208255Y729443D01*
G01X12202667Y712425D01*
G01X12191237Y700995D01*
G01X12179807Y695153D01*
G01X12162535Y695153D01*
G01X12151105Y700995D01*
G01X12139675Y712425D01*
G01X12256007Y740873D02*
G01X12324587Y740873D01*
G01X12324587Y752303D01*
G01X12318999Y763733D01*
G01X12313157Y769575D01*
G01X12301727Y775163D01*
G01X12284709Y775163D01*
G01X12273279Y769575D01*
G01X12261849Y758145D01*
G01X12256007Y740873D01*
G01X12256007Y729443D01*
G01X12261849Y712425D01*
G01X12273279Y700995D01*
G01X12284709Y695153D01*
G01X12301727Y695153D01*
G01X12313157Y700995D01*
G01X12324587Y712425D01*
G01X13216018Y815295D02*
G01X13261738Y695153D01*
G01X13307458Y815295D02*
G01X13261738Y695153D01*
G01X13355210Y815295D02*
G01X13361052Y809453D01*
G01X13366640Y815295D01*
G01X13361052Y820883D01*
G01X13355210Y815295D01*
G01X13361052Y775163D02*
G01X13361052Y695153D01*
G01X13482972Y775163D02*
G01X13482972Y695153D01*
G01X13482972Y758145D02*
G01X13471542Y769575D01*
G01X13460112Y775163D01*
G01X13443094Y775163D01*
G01X13431664Y769575D01*
G01X13420234Y758145D01*
G01X13414392Y740873D01*
G01X13414392Y729443D01*
G01X13420234Y712425D01*
G01X13431664Y700995D01*
G01X13443094Y695153D01*
G01X13460112Y695153D01*
G01X13471542Y700995D01*
G01X13482972Y712425D01*
G01X13633594Y838155D02*
G01X13530724Y655275D01*
G01X13681346Y815295D02*
G01X13681346Y695153D01*
G01X13681346Y815295D02*
G01X13732908Y815295D01*
G01X13749926Y809453D01*
G01X13755768Y803865D01*
G01X13761356Y792435D01*
G01X13761356Y775163D01*
G01X13755768Y763733D01*
G01X13749926Y758145D01*
G01X13732908Y752303D01*
G01X13681346Y752303D01*
G01X13877688Y775163D02*
G01X13877688Y695153D01*
G01X13877688Y758145D02*
G01X13866258Y769575D01*
G01X13854828Y775163D01*
G01X13837810Y775163D01*
G01X13826380Y769575D01*
G01X13814950Y758145D01*
G01X13809108Y740873D01*
G01X13809108Y729443D01*
G01X13814950Y712425D01*
G01X13826380Y700995D01*
G01X13837810Y695153D01*
G01X13854828Y695153D01*
G01X13866258Y700995D01*
G01X13877688Y712425D01*
G01X13994020Y815295D02*
G01X13994020Y695153D01*
G01X13994020Y758145D02*
G01X13982590Y769575D01*
G01X13971160Y775163D01*
G01X13954142Y775163D01*
G01X13942712Y769575D01*
G01X13931282Y758145D01*
G01X13925440Y740873D01*
G01X13925440Y729443D01*
G01X13931282Y712425D01*
G01X13942712Y700995D01*
G01X13954142Y695153D01*
G01X13971160Y695153D01*
G01X13982590Y700995D01*
G01X13994020Y712425D01*
G01X14885197Y815295D02*
G01X14885197Y695153D01*
G01X14885197Y815295D02*
G01X14936759Y815295D01*
G01X14953777Y809453D01*
G01X14959619Y803865D01*
G01X14965207Y792435D01*
G01X14965207Y775163D01*
G01X14959619Y763733D01*
G01X14953777Y758145D01*
G01X14936759Y752303D01*
G01X14885197Y752303D01*
G01X15081539Y775163D02*
G01X15081539Y695153D01*
G01X15081539Y758145D02*
G01X15070109Y769575D01*
G01X15058679Y775163D01*
G01X15041661Y775163D01*
G01X15030231Y769575D01*
G01X15018801Y758145D01*
G01X15012959Y740873D01*
G01X15012959Y729443D01*
G01X15018801Y712425D01*
G01X15030231Y700995D01*
G01X15041661Y695153D01*
G01X15058679Y695153D01*
G01X15070109Y700995D01*
G01X15081539Y712425D01*
G01X15197871Y815295D02*
G01X15197871Y695153D01*
G01X15197871Y758145D02*
G01X15186441Y769575D01*
G01X15175011Y775163D01*
G01X15157993Y775163D01*
G01X15146563Y769575D01*
G01X15135133Y758145D01*
G01X15129291Y740873D01*
G01X15129291Y729443D01*
G01X15135133Y712425D01*
G01X15146563Y700995D01*
G01X15157993Y695153D01*
G01X15175011Y695153D01*
G01X15186441Y700995D01*
G01X15197871Y712425D01*
G01X15453649Y798023D02*
G01X15442219Y809453D01*
G01X15425201Y815295D01*
G01X15402341Y815295D01*
G01X15385069Y809453D01*
G01X15373639Y798023D01*
G01X15373639Y786593D01*
G01X15379481Y775163D01*
G01X15385069Y769575D01*
G01X15396499Y763733D01*
G01X15430789Y752303D01*
G01X15442219Y746715D01*
G01X15448061Y740873D01*
G01X15453649Y729443D01*
G01X15453649Y712425D01*
G01X15442219Y700995D01*
G01X15425201Y695153D01*
G01X15402341Y695153D01*
G01X15385069Y700995D01*
G01X15373639Y712425D01*
G01X15501401Y815295D02*
G01X15501401Y695153D01*
G01X15501401Y752303D02*
G01X15518673Y769575D01*
G01X15530103Y775163D01*
G01X15547121Y775163D01*
G01X15558551Y769575D01*
G01X15564393Y752303D01*
G01X15564393Y695153D01*
G01X15680725Y775163D02*
G01X15680725Y695153D01*
G01X15680725Y758145D02*
G01X15669295Y769575D01*
G01X15657865Y775163D01*
G01X15640847Y775163D01*
G01X15629417Y769575D01*
G01X15617987Y758145D01*
G01X15612145Y740873D01*
G01X15612145Y729443D01*
G01X15617987Y712425D01*
G01X15629417Y700995D01*
G01X15640847Y695153D01*
G01X15657865Y695153D01*
G01X15669295Y700995D01*
G01X15680725Y712425D01*
G01X15728477Y775163D02*
G01X15728477Y655275D01*
G01X15728477Y758145D02*
G01X15739907Y769575D01*
G01X15751337Y775163D01*
G01X15768609Y775163D01*
G01X15780039Y769575D01*
G01X15791469Y758145D01*
G01X15797057Y740873D01*
G01X15797057Y729443D01*
G01X15791469Y712425D01*
G01X15780039Y700995D01*
G01X15768609Y695153D01*
G01X15751337Y695153D01*
G01X15739907Y700995D01*
G01X15728477Y712425D01*
G01X15844809Y740873D02*
G01X15913389Y740873D01*
G01X15913389Y752303D01*
G01X15907801Y763733D01*
G01X15901959Y769575D01*
G01X15890529Y775163D01*
G01X15873511Y775163D01*
G01X15862081Y769575D01*
G01X15850651Y758145D01*
G01X15844809Y740873D01*
G01X15844809Y729443D01*
G01X15850651Y712425D01*
G01X15862081Y700995D01*
G01X15873511Y695153D01*
G01X15890529Y695153D01*
G01X15901959Y700995D01*
G01X15913389Y712425D01*
G01X16804566Y815295D02*
G01X16804566Y695153D01*
G01X16804566Y695153D02*
G01X16873146Y695153D01*
G01X16989478Y775163D02*
G01X16989478Y695153D01*
G01X16989478Y758145D02*
G01X16978048Y769575D01*
G01X16966618Y775163D01*
G01X16949600Y775163D01*
G01X16938170Y769575D01*
G01X16926740Y758145D01*
G01X16920898Y740873D01*
G01X16920898Y729443D01*
G01X16926740Y712425D01*
G01X16938170Y700995D01*
G01X16949600Y695153D01*
G01X16966618Y695153D01*
G01X16978048Y700995D01*
G01X16989478Y712425D01*
G01X17043072Y775163D02*
G01X17077362Y695153D01*
G01X17111652Y775163D02*
G01X17077362Y695153D01*
G01X17065932Y672293D01*
G01X17054502Y660863D01*
G01X17043072Y655275D01*
G01X17037230Y655275D01*
G01X17159404Y740873D02*
G01X17227984Y740873D01*
G01X17227984Y752303D01*
G01X17222396Y763733D01*
G01X17216554Y769575D01*
G01X17205124Y775163D01*
G01X17188106Y775163D01*
G01X17176676Y769575D01*
G01X17165246Y758145D01*
G01X17159404Y740873D01*
G01X17159404Y729443D01*
G01X17165246Y712425D01*
G01X17176676Y700995D01*
G01X17188106Y695153D01*
G01X17205124Y695153D01*
G01X17216554Y700995D01*
G01X17227984Y712425D01*
G01X17275736Y775163D02*
G01X17275736Y695153D01*
G01X17275736Y740873D02*
G01X17281578Y758145D01*
G01X17293008Y769575D01*
G01X17304438Y775163D01*
G01X17321456Y775163D01*
G01X17497224Y815295D02*
G01X17497224Y695153D01*
G01X17497224Y815295D02*
G01X17548786Y815295D01*
G01X17565804Y809453D01*
G01X17571646Y803865D01*
G01X17577234Y792435D01*
G01X17577234Y775163D01*
G01X17571646Y763733D01*
G01X17565804Y758145D01*
G01X17548786Y752303D01*
G01X17497224Y752303D01*
G01X17693566Y775163D02*
G01X17693566Y695153D01*
G01X17693566Y758145D02*
G01X17682136Y769575D01*
G01X17670706Y775163D01*
G01X17653688Y775163D01*
G01X17642258Y769575D01*
G01X17630828Y758145D01*
G01X17624986Y740873D01*
G01X17624986Y729443D01*
G01X17630828Y712425D01*
G01X17642258Y700995D01*
G01X17653688Y695153D01*
G01X17670706Y695153D01*
G01X17682136Y700995D01*
G01X17693566Y712425D01*
G01X17741318Y815295D02*
G01X17747160Y809453D01*
G01X17752748Y815295D01*
G01X17747160Y820883D01*
G01X17741318Y815295D01*
G01X17747160Y775163D02*
G01X17747160Y695153D01*
G01X17800500Y775163D02*
G01X17800500Y695153D01*
G01X17800500Y740873D02*
G01X17806342Y758145D01*
G01X17817772Y769575D01*
G01X17829202Y775163D01*
G01X17846220Y775163D01*
G01X5021652Y206022D02*
G01X5021652Y211864D01*
G01X5027240Y223294D01*
G01X5033082Y228882D01*
G01X5044512Y234724D01*
G01X5067372Y234724D01*
G01X5078802Y228882D01*
G01X5084390Y223294D01*
G01X5090232Y211864D01*
G01X5090232Y200434D01*
G01X5084390Y189004D01*
G01X5072960Y171732D01*
G01X5015810Y114582D01*
G01X5095820Y114582D01*
G01X6429973Y211864D02*
G01X6441403Y217452D01*
G01X6458675Y234724D01*
G01X6458675Y114582D01*
G01X6506427Y211864D02*
G01X6517857Y217452D01*
G01X6535129Y234724D01*
G01X6535129Y114582D01*
G01X6611583Y234724D02*
G01X6594311Y228882D01*
G01X6588723Y217452D01*
G01X6588723Y206022D01*
G01X6594311Y194592D01*
G01X6605741Y189004D01*
G01X6628601Y183162D01*
G01X6645873Y177574D01*
G01X6657303Y166144D01*
G01X6662891Y154714D01*
G01X6662891Y137442D01*
G01X6657303Y126012D01*
G01X6651461Y120424D01*
G01X6634443Y114582D01*
G01X6611583Y114582D01*
G01X6594311Y120424D01*
G01X6588723Y126012D01*
G01X6582881Y137442D01*
G01X6582881Y154714D01*
G01X6588723Y166144D01*
G01X6600153Y177574D01*
G01X6617171Y183162D01*
G01X6640031Y189004D01*
G01X6651461Y194592D01*
G01X6657303Y206022D01*
G01X6657303Y217452D01*
G01X6651461Y228882D01*
G01X6634443Y234724D01*
G01X6611583Y234724D01*
G01X6716485Y143284D02*
G01X6710643Y137442D01*
G01X6716485Y131854D01*
G01X6722073Y137442D01*
G01X6716485Y143284D01*
G01X6769825Y211864D02*
G01X6781255Y217452D01*
G01X6798527Y234724D01*
G01X6798527Y114582D01*
G01X6846279Y194592D02*
G01X6909271Y114582D01*
G01X6909271Y194592D02*
G01X6846279Y114582D01*
G01X6957023Y211864D02*
G01X6968453Y217452D01*
G01X6985725Y234724D01*
G01X6985725Y114582D01*
G01X7033477Y211864D02*
G01X7044907Y217452D01*
G01X7062179Y234724D01*
G01X7062179Y114582D01*
G01X7138633Y234724D02*
G01X7121361Y228882D01*
G01X7115773Y217452D01*
G01X7115773Y206022D01*
G01X7121361Y194592D01*
G01X7132791Y189004D01*
G01X7155651Y183162D01*
G01X7172923Y177574D01*
G01X7184353Y166144D01*
G01X7189941Y154714D01*
G01X7189941Y137442D01*
G01X7184353Y126012D01*
G01X7178511Y120424D01*
G01X7161493Y114582D01*
G01X7138633Y114582D01*
G01X7121361Y120424D01*
G01X7115773Y126012D01*
G01X7109931Y137442D01*
G01X7109931Y154714D01*
G01X7115773Y166144D01*
G01X7127203Y177574D01*
G01X7144221Y183162D01*
G01X7167081Y189004D01*
G01X7178511Y194592D01*
G01X7184353Y206022D01*
G01X7184353Y217452D01*
G01X7178511Y228882D01*
G01X7161493Y234724D01*
G01X7138633Y234724D01*
G01X7243535Y143284D02*
G01X7237693Y137442D01*
G01X7243535Y131854D01*
G01X7249123Y137442D01*
G01X7243535Y143284D01*
G01X7296875Y211864D02*
G01X7308305Y217452D01*
G01X7325577Y234724D01*
G01X7325577Y114582D01*
G01X7373329Y194592D02*
G01X7373329Y114582D01*
G01X7373329Y171732D02*
G01X7390601Y189004D01*
G01X7402031Y194592D01*
G01X7419049Y194592D01*
G01X7430479Y189004D01*
G01X7436321Y171732D01*
G01X7436321Y114582D01*
G01X7436321Y171732D02*
G01X7453339Y189004D01*
G01X7464769Y194592D01*
G01X7482041Y194592D01*
G01X7493471Y189004D01*
G01X7499059Y171732D01*
G01X7499059Y114582D01*
G01X7546811Y234724D02*
G01X7552653Y228882D01*
G01X7558241Y234724D01*
G01X7552653Y240312D01*
G01X7546811Y234724D01*
G01X7552653Y194592D02*
G01X7552653Y114582D01*
G01X7605993Y234724D02*
G01X7605993Y114582D01*
G01X7693877Y257584D02*
G01X7682447Y246154D01*
G01X7671017Y228882D01*
G01X7659587Y206022D01*
G01X7653745Y177574D01*
G01X7653745Y154714D01*
G01X7659587Y126012D01*
G01X7671017Y103152D01*
G01X7682447Y86134D01*
G01X7693877Y74704D01*
G01X7753059Y234724D02*
G01X7816051Y234724D01*
G01X7781761Y189004D01*
G01X7798779Y189004D01*
G01X7810209Y183162D01*
G01X7816051Y177574D01*
G01X7821639Y160302D01*
G01X7821639Y148872D01*
G01X7816051Y131854D01*
G01X7804621Y120424D01*
G01X7787349Y114582D01*
G01X7770331Y114582D01*
G01X7753059Y120424D01*
G01X7747471Y126012D01*
G01X7741629Y137442D01*
G01X7875233Y143284D02*
G01X7869391Y137442D01*
G01X7875233Y131854D01*
G01X7880821Y137442D01*
G01X7875233Y143284D01*
G01X7962863Y234724D02*
G01X7945845Y228882D01*
G01X7934415Y211864D01*
G01X7928573Y183162D01*
G01X7928573Y166144D01*
G01X7934415Y137442D01*
G01X7945845Y120424D01*
G01X7962863Y114582D01*
G01X7974293Y114582D01*
G01X7991565Y120424D01*
G01X8002995Y137442D01*
G01X8008583Y166144D01*
G01X8008583Y183162D01*
G01X8002995Y211864D01*
G01X7991565Y228882D01*
G01X7974293Y234724D01*
G01X7962863Y234724D01*
G01X8090625Y234724D02*
G01X8073607Y228882D01*
G01X8062177Y211864D01*
G01X8056335Y183162D01*
G01X8056335Y166144D01*
G01X8062177Y137442D01*
G01X8073607Y120424D01*
G01X8090625Y114582D01*
G01X8102055Y114582D01*
G01X8119327Y120424D01*
G01X8130757Y137442D01*
G01X8136345Y166144D01*
G01X8136345Y183162D01*
G01X8130757Y211864D01*
G01X8119327Y228882D01*
G01X8102055Y234724D01*
G01X8090625Y234724D01*
G01X8218387Y234724D02*
G01X8201369Y228882D01*
G01X8189939Y211864D01*
G01X8184097Y183162D01*
G01X8184097Y166144D01*
G01X8189939Y137442D01*
G01X8201369Y120424D01*
G01X8218387Y114582D01*
G01X8229817Y114582D01*
G01X8247089Y120424D01*
G01X8258519Y137442D01*
G01X8264107Y166144D01*
G01X8264107Y183162D01*
G01X8258519Y211864D01*
G01X8247089Y228882D01*
G01X8229817Y234724D01*
G01X8218387Y234724D01*
G01X8311859Y194592D02*
G01X8374851Y114582D01*
G01X8374851Y194592D02*
G01X8311859Y114582D01*
G01X8434033Y234724D02*
G01X8497025Y234724D01*
G01X8462735Y189004D01*
G01X8479753Y189004D01*
G01X8491183Y183162D01*
G01X8497025Y177574D01*
G01X8502613Y160302D01*
G01X8502613Y148872D01*
G01X8497025Y131854D01*
G01X8485595Y120424D01*
G01X8468323Y114582D01*
G01X8451305Y114582D01*
G01X8434033Y120424D01*
G01X8428445Y126012D01*
G01X8422603Y137442D01*
G01X8556207Y143284D02*
G01X8550365Y137442D01*
G01X8556207Y131854D01*
G01X8561795Y137442D01*
G01X8556207Y143284D01*
G01X8643837Y234724D02*
G01X8626819Y228882D01*
G01X8615389Y211864D01*
G01X8609547Y183162D01*
G01X8609547Y166144D01*
G01X8615389Y137442D01*
G01X8626819Y120424D01*
G01X8643837Y114582D01*
G01X8655267Y114582D01*
G01X8672539Y120424D01*
G01X8683969Y137442D01*
G01X8689557Y166144D01*
G01X8689557Y183162D01*
G01X8683969Y211864D01*
G01X8672539Y228882D01*
G01X8655267Y234724D01*
G01X8643837Y234724D01*
G01X8771599Y234724D02*
G01X8754581Y228882D01*
G01X8743151Y211864D01*
G01X8737309Y183162D01*
G01X8737309Y166144D01*
G01X8743151Y137442D01*
G01X8754581Y120424D01*
G01X8771599Y114582D01*
G01X8783029Y114582D01*
G01X8800301Y120424D01*
G01X8811731Y137442D01*
G01X8817319Y166144D01*
G01X8817319Y183162D01*
G01X8811731Y211864D01*
G01X8800301Y228882D01*
G01X8783029Y234724D01*
G01X8771599Y234724D01*
G01X8899361Y234724D02*
G01X8882343Y228882D01*
G01X8870913Y211864D01*
G01X8865071Y183162D01*
G01X8865071Y166144D01*
G01X8870913Y137442D01*
G01X8882343Y120424D01*
G01X8899361Y114582D01*
G01X8910791Y114582D01*
G01X8928063Y120424D01*
G01X8939493Y137442D01*
G01X8945081Y166144D01*
G01X8945081Y183162D01*
G01X8939493Y211864D01*
G01X8928063Y228882D01*
G01X8910791Y234724D01*
G01X8899361Y234724D01*
G01X8992833Y194592D02*
G01X8992833Y114582D01*
G01X8992833Y171732D02*
G01X9010105Y189004D01*
G01X9021535Y194592D01*
G01X9038553Y194592D01*
G01X9049983Y189004D01*
G01X9055825Y171732D01*
G01X9055825Y114582D01*
G01X9055825Y171732D02*
G01X9072843Y189004D01*
G01X9084273Y194592D01*
G01X9101545Y194592D01*
G01X9112975Y189004D01*
G01X9118563Y171732D01*
G01X9118563Y114582D01*
G01X9166315Y194592D02*
G01X9166315Y114582D01*
G01X9166315Y171732D02*
G01X9183587Y189004D01*
G01X9195017Y194592D01*
G01X9212035Y194592D01*
G01X9223465Y189004D01*
G01X9229307Y171732D01*
G01X9229307Y114582D01*
G01X9229307Y171732D02*
G01X9246325Y189004D01*
G01X9257755Y194592D01*
G01X9275027Y194592D01*
G01X9286457Y189004D01*
G01X9292045Y171732D01*
G01X9292045Y114582D01*
G01X9339797Y257584D02*
G01X9351227Y246154D01*
G01X9362657Y228882D01*
G01X9374087Y206022D01*
G01X9379929Y177574D01*
G01X9379929Y154714D01*
G01X9374087Y126012D01*
G01X9362657Y103152D01*
G01X9351227Y86134D01*
G01X9339797Y74704D01*
G01X10323430Y234724D02*
G01X10323430Y114582D01*
G01X10323430Y234724D02*
G01X10374992Y234724D01*
G01X10392010Y228882D01*
G01X10397852Y223294D01*
G01X10403440Y211864D01*
G01X10403440Y194592D01*
G01X10397852Y183162D01*
G01X10392010Y177574D01*
G01X10374992Y171732D01*
G01X10323430Y171732D01*
G01X10491324Y234724D02*
G01X10491324Y114582D01*
G01X10451192Y234724D02*
G01X10531202Y234724D01*
G01X10578954Y234724D02*
G01X10578954Y114582D01*
G01X10658964Y234724D02*
G01X10658964Y114582D01*
G01X10578954Y177574D02*
G01X10658964Y177574D01*
G01X11784837Y234724D02*
G01X11784837Y114582D01*
G01X11784837Y234724D02*
G01X11836399Y234724D01*
G01X11853417Y228882D01*
G01X11859259Y223294D01*
G01X11864847Y211864D01*
G01X11864847Y200434D01*
G01X11859259Y189004D01*
G01X11853417Y183162D01*
G01X11836399Y177574D01*
G01X11784837Y177574D01*
G01X11824969Y177574D02*
G01X11864847Y114582D01*
G01X11941301Y194592D02*
G01X11929871Y189004D01*
G01X11918441Y177574D01*
G01X11912599Y160302D01*
G01X11912599Y148872D01*
G01X11918441Y131854D01*
G01X11929871Y120424D01*
G01X11941301Y114582D01*
G01X11958319Y114582D01*
G01X11969749Y120424D01*
G01X11981179Y131854D01*
G01X11987021Y148872D01*
G01X11987021Y160302D01*
G01X11981179Y177574D01*
G01X11969749Y189004D01*
G01X11958319Y194592D01*
G01X11941301Y194592D01*
G01X12034773Y194592D02*
G01X12034773Y137442D01*
G01X12040615Y120424D01*
G01X12052045Y114582D01*
G01X12069063Y114582D01*
G01X12080493Y120424D01*
G01X12097765Y137442D01*
G01X12097765Y194592D02*
G01X12097765Y114582D01*
G01X12145517Y194592D02*
G01X12145517Y114582D01*
G01X12145517Y171732D02*
G01X12162789Y189004D01*
G01X12174219Y194592D01*
G01X12191237Y194592D01*
G01X12202667Y189004D01*
G01X12208509Y171732D01*
G01X12208509Y114582D01*
G01X12324841Y234724D02*
G01X12324841Y114582D01*
G01X12324841Y177574D02*
G01X12313411Y189004D01*
G01X12301981Y194592D01*
G01X12284963Y194592D01*
G01X12273533Y189004D01*
G01X12262103Y177574D01*
G01X12256261Y160302D01*
G01X12256261Y148872D01*
G01X12262103Y131854D01*
G01X12273533Y120424D01*
G01X12284963Y114582D01*
G01X12301981Y114582D01*
G01X12313411Y120424D01*
G01X12324841Y131854D01*
G01X13216018Y234724D02*
G01X13216018Y114582D01*
G01X13216018Y234724D02*
G01X13267580Y234724D01*
G01X13284598Y228882D01*
G01X13290440Y223294D01*
G01X13296028Y211864D01*
G01X13296028Y194592D01*
G01X13290440Y183162D01*
G01X13284598Y177574D01*
G01X13267580Y171732D01*
G01X13216018Y171732D01*
G01X13412360Y194592D02*
G01X13412360Y114582D01*
G01X13412360Y177574D02*
G01X13400930Y189004D01*
G01X13389500Y194592D01*
G01X13372482Y194592D01*
G01X13361052Y189004D01*
G01X13349622Y177574D01*
G01X13343780Y160302D01*
G01X13343780Y148872D01*
G01X13349622Y131854D01*
G01X13361052Y120424D01*
G01X13372482Y114582D01*
G01X13389500Y114582D01*
G01X13400930Y120424D01*
G01X13412360Y131854D01*
G01X13528692Y234724D02*
G01X13528692Y114582D01*
G01X13528692Y177574D02*
G01X13517262Y189004D01*
G01X13505832Y194592D01*
G01X13488814Y194592D01*
G01X13477384Y189004D01*
G01X13465954Y177574D01*
G01X13460112Y160302D01*
G01X13460112Y148872D01*
G01X13465954Y131854D01*
G01X13477384Y120424D01*
G01X13488814Y114582D01*
G01X13505832Y114582D01*
G01X13517262Y120424D01*
G01X13528692Y131854D01*
G01X14885197Y234724D02*
G01X14885197Y114582D01*
G01X14885197Y234724D02*
G01X14936759Y234724D01*
G01X14953777Y228882D01*
G01X14959619Y223294D01*
G01X14965207Y211864D01*
G01X14965207Y200434D01*
G01X14959619Y189004D01*
G01X14953777Y183162D01*
G01X14936759Y177574D01*
G01X14885197Y177574D01*
G01X14925329Y177574D02*
G01X14965207Y114582D01*
G01X15041661Y194592D02*
G01X15030231Y189004D01*
G01X15018801Y177574D01*
G01X15012959Y160302D01*
G01X15012959Y148872D01*
G01X15018801Y131854D01*
G01X15030231Y120424D01*
G01X15041661Y114582D01*
G01X15058679Y114582D01*
G01X15070109Y120424D01*
G01X15081539Y131854D01*
G01X15087381Y148872D01*
G01X15087381Y160302D01*
G01X15081539Y177574D01*
G01X15070109Y189004D01*
G01X15058679Y194592D01*
G01X15041661Y194592D01*
G01X15135133Y194592D02*
G01X15135133Y137442D01*
G01X15140975Y120424D01*
G01X15152405Y114582D01*
G01X15169423Y114582D01*
G01X15180853Y120424D01*
G01X15198125Y137442D01*
G01X15198125Y194592D02*
G01X15198125Y114582D01*
G01X15245877Y194592D02*
G01X15245877Y114582D01*
G01X15245877Y171732D02*
G01X15263149Y189004D01*
G01X15274579Y194592D01*
G01X15291597Y194592D01*
G01X15303027Y189004D01*
G01X15308869Y171732D01*
G01X15308869Y114582D01*
G01X15425201Y234724D02*
G01X15425201Y114582D01*
G01X15425201Y177574D02*
G01X15413771Y189004D01*
G01X15402341Y194592D01*
G01X15385323Y194592D01*
G01X15373893Y189004D01*
G01X15362463Y177574D01*
G01X15356621Y160302D01*
G01X15356621Y148872D01*
G01X15362463Y131854D01*
G01X15373893Y120424D01*
G01X15385323Y114582D01*
G01X15402341Y114582D01*
G01X15413771Y120424D01*
G01X15425201Y131854D01*
G01X16844698Y234724D02*
G01X16844698Y114582D01*
G01X16804566Y234724D02*
G01X16884576Y234724D01*
G01X16961030Y194592D02*
G01X16949600Y189004D01*
G01X16938170Y177574D01*
G01X16932328Y160302D01*
G01X16932328Y148872D01*
G01X16938170Y131854D01*
G01X16949600Y120424D01*
G01X16961030Y114582D01*
G01X16978048Y114582D01*
G01X16989478Y120424D01*
G01X17000908Y131854D01*
G01X17006750Y148872D01*
G01X17006750Y160302D01*
G01X17000908Y177574D01*
G01X16989478Y189004D01*
G01X16978048Y194592D01*
G01X16961030Y194592D01*
G01X17054502Y194592D02*
G01X17054502Y74704D01*
G01X17054502Y177574D02*
G01X17065932Y189004D01*
G01X17077362Y194592D01*
G01X17094634Y194592D01*
G01X17106064Y189004D01*
G01X17117494Y177574D01*
G01X17123082Y160302D01*
G01X17123082Y148872D01*
G01X17117494Y131854D01*
G01X17106064Y120424D01*
G01X17094634Y114582D01*
G01X17077362Y114582D01*
G01X17065932Y120424D01*
G01X17054502Y131854D01*
G01X17298850Y234724D02*
G01X17298850Y114582D01*
G01X17298850Y114582D02*
G01X17367430Y114582D01*
G01X17483762Y194592D02*
G01X17483762Y114582D01*
G01X17483762Y177574D02*
G01X17472332Y189004D01*
G01X17460902Y194592D01*
G01X17443884Y194592D01*
G01X17432454Y189004D01*
G01X17421024Y177574D01*
G01X17415182Y160302D01*
G01X17415182Y148872D01*
G01X17421024Y131854D01*
G01X17432454Y120424D01*
G01X17443884Y114582D01*
G01X17460902Y114582D01*
G01X17472332Y120424D01*
G01X17483762Y131854D01*
G01X17537356Y194592D02*
G01X17571646Y114582D01*
G01X17605936Y194592D02*
G01X17571646Y114582D01*
G01X17560216Y91722D01*
G01X17548786Y80292D01*
G01X17537356Y74704D01*
G01X17531514Y74704D01*
G01X17653688Y160302D02*
G01X17722268Y160302D01*
G01X17722268Y171732D01*
G01X17716680Y183162D01*
G01X17710838Y189004D01*
G01X17699408Y194592D01*
G01X17682390Y194592D01*
G01X17670960Y189004D01*
G01X17659530Y177574D01*
G01X17653688Y160302D01*
G01X17653688Y148872D01*
G01X17659530Y131854D01*
G01X17670960Y120424D01*
G01X17682390Y114582D01*
G01X17699408Y114582D01*
G01X17710838Y120424D01*
G01X17722268Y131854D01*
G01X17770020Y194592D02*
G01X17770020Y114582D01*
G01X17770020Y160302D02*
G01X17775862Y177574D01*
G01X17787292Y189004D01*
G01X17798722Y194592D01*
G01X17815740Y194592D01*
G01X17863492Y166144D02*
G01X17966362Y166144D01*
G01X18014114Y234724D02*
G01X18014114Y114582D01*
G01X18014114Y234724D02*
G01X18065676Y234724D01*
G01X18082694Y228882D01*
G01X18088536Y223294D01*
G01X18094124Y211864D01*
G01X18094124Y200434D01*
G01X18088536Y189004D01*
G01X18082694Y183162D01*
G01X18065676Y177574D01*
G01X18014114Y177574D02*
G01X18065676Y177574D01*
G01X18082694Y171732D01*
G01X18088536Y166144D01*
G01X18094124Y154714D01*
G01X18094124Y137442D01*
G01X18088536Y126012D01*
G01X18082694Y120424D01*
G01X18065676Y114582D01*
G01X18014114Y114582D01*
G01X18170578Y194592D02*
G01X18159148Y189004D01*
G01X18147718Y177574D01*
G01X18141876Y160302D01*
G01X18141876Y148872D01*
G01X18147718Y131854D01*
G01X18159148Y120424D01*
G01X18170578Y114582D01*
G01X18187596Y114582D01*
G01X18199026Y120424D01*
G01X18210456Y131854D01*
G01X18216298Y148872D01*
G01X18216298Y160302D01*
G01X18210456Y177574D01*
G01X18199026Y189004D01*
G01X18187596Y194592D01*
G01X18170578Y194592D01*
G01X18281322Y234724D02*
G01X18281322Y137442D01*
G01X18286910Y120424D01*
G01X18298340Y114582D01*
G01X18309770Y114582D01*
G01X18264050Y194592D02*
G01X18304182Y194592D01*
G01X18374794Y234724D02*
G01X18374794Y137442D01*
G01X18380382Y120424D01*
G01X18391812Y114582D01*
G01X18403242Y114582D01*
G01X18357522Y194592D02*
G01X18397654Y194592D01*
G01X18479696Y194592D02*
G01X18468266Y189004D01*
G01X18456836Y177574D01*
G01X18450994Y160302D01*
G01X18450994Y148872D01*
G01X18456836Y131854D01*
G01X18468266Y120424D01*
G01X18479696Y114582D01*
G01X18496714Y114582D01*
G01X18508144Y120424D01*
G01X18519574Y131854D01*
G01X18525416Y148872D01*
G01X18525416Y160302D01*
G01X18519574Y177574D01*
G01X18508144Y189004D01*
G01X18496714Y194592D01*
G01X18479696Y194592D01*
G01X18573168Y194592D02*
G01X18573168Y114582D01*
G01X18573168Y171732D02*
G01X18590440Y189004D01*
G01X18601870Y194592D01*
G01X18618888Y194592D01*
G01X18630318Y189004D01*
G01X18636160Y171732D01*
G01X18636160Y114582D01*
G01X18636160Y171732D02*
G01X18653178Y189004D01*
G01X18664608Y194592D01*
G01X18681880Y194592D01*
G01X18693310Y189004D01*
G01X18698898Y171732D01*
G01X18698898Y114582D01*
G01X18874666Y234724D02*
G01X18874666Y114582D01*
G01X18874666Y114582D02*
G01X18943246Y114582D01*
G01X19059578Y194592D02*
G01X19059578Y114582D01*
G01X19059578Y177574D02*
G01X19048148Y189004D01*
G01X19036718Y194592D01*
G01X19019700Y194592D01*
G01X19008270Y189004D01*
G01X18996840Y177574D01*
G01X18990998Y160302D01*
G01X18990998Y148872D01*
G01X18996840Y131854D01*
G01X19008270Y120424D01*
G01X19019700Y114582D01*
G01X19036718Y114582D01*
G01X19048148Y120424D01*
G01X19059578Y131854D01*
G01X19113172Y194592D02*
G01X19147462Y114582D01*
G01X19181752Y194592D02*
G01X19147462Y114582D01*
G01X19136032Y91722D01*
G01X19124602Y80292D01*
G01X19113172Y74704D01*
G01X19107330Y74704D01*
G01X19229504Y160302D02*
G01X19298084Y160302D01*
G01X19298084Y171732D01*
G01X19292496Y183162D01*
G01X19286654Y189004D01*
G01X19275224Y194592D01*
G01X19258206Y194592D01*
G01X19246776Y189004D01*
G01X19235346Y177574D01*
G01X19229504Y160302D01*
G01X19229504Y148872D01*
G01X19235346Y131854D01*
G01X19246776Y120424D01*
G01X19258206Y114582D01*
G01X19275224Y114582D01*
G01X19286654Y120424D01*
G01X19298084Y131854D01*
G01X19345836Y194592D02*
G01X19345836Y114582D01*
G01X19345836Y160302D02*
G01X19351678Y177574D01*
G01X19363108Y189004D01*
G01X19374538Y194592D01*
G01X19391556Y194592D01*
G01X5027240Y-345848D02*
G01X5090232Y-345848D01*
G01X5055942Y-391568D01*
G01X5072960Y-391568D01*
G01X5084390Y-397410D01*
G01X5090232Y-402998D01*
G01X5095820Y-420270D01*
G01X5095820Y-431700D01*
G01X5090232Y-448718D01*
G01X5078802Y-460148D01*
G01X5061530Y-465990D01*
G01X5044512Y-465990D01*
G01X5027240Y-460148D01*
G01X5021652Y-454560D01*
G01X5015810Y-443130D01*
G01X6441403Y-345848D02*
G01X6504395Y-345848D01*
G01X6470105Y-391568D01*
G01X6487123Y-391568D01*
G01X6498553Y-397410D01*
G01X6504395Y-402998D01*
G01X6509983Y-420270D01*
G01X6509983Y-431700D01*
G01X6504395Y-448718D01*
G01X6492965Y-460148D01*
G01X6475693Y-465990D01*
G01X6458675Y-465990D01*
G01X6441403Y-460148D01*
G01X6435815Y-454560D01*
G01X6429973Y-443130D01*
G01X6569165Y-345848D02*
G01X6632157Y-345848D01*
G01X6597867Y-391568D01*
G01X6614885Y-391568D01*
G01X6626315Y-397410D01*
G01X6632157Y-402998D01*
G01X6637745Y-420270D01*
G01X6637745Y-431700D01*
G01X6632157Y-448718D01*
G01X6620727Y-460148D01*
G01X6603455Y-465990D01*
G01X6586437Y-465990D01*
G01X6569165Y-460148D01*
G01X6563577Y-454560D01*
G01X6557735Y-443130D01*
G01X6691339Y-437288D02*
G01X6685497Y-443130D01*
G01X6691339Y-448718D01*
G01X6696927Y-443130D01*
G01X6691339Y-437288D01*
G01X6813259Y-345848D02*
G01X6756109Y-345848D01*
G01X6750521Y-397410D01*
G01X6756109Y-391568D01*
G01X6773381Y-385980D01*
G01X6790399Y-385980D01*
G01X6807671Y-391568D01*
G01X6819101Y-402998D01*
G01X6824689Y-420270D01*
G01X6824689Y-431700D01*
G01X6819101Y-448718D01*
G01X6807671Y-460148D01*
G01X6790399Y-465990D01*
G01X6773381Y-465990D01*
G01X6756109Y-460148D01*
G01X6750521Y-454560D01*
G01X6744679Y-443130D01*
G01X6872441Y-385980D02*
G01X6935433Y-465990D01*
G01X6935433Y-385980D02*
G01X6872441Y-465990D01*
G01X6994615Y-345848D02*
G01X7057607Y-345848D01*
G01X7023317Y-391568D01*
G01X7040335Y-391568D01*
G01X7051765Y-397410D01*
G01X7057607Y-402998D01*
G01X7063195Y-420270D01*
G01X7063195Y-431700D01*
G01X7057607Y-448718D01*
G01X7046177Y-460148D01*
G01X7028905Y-465990D01*
G01X7011887Y-465990D01*
G01X6994615Y-460148D01*
G01X6989027Y-454560D01*
G01X6983185Y-443130D01*
G01X7122377Y-345848D02*
G01X7185369Y-345848D01*
G01X7151079Y-391568D01*
G01X7168097Y-391568D01*
G01X7179527Y-397410D01*
G01X7185369Y-402998D01*
G01X7190957Y-420270D01*
G01X7190957Y-431700D01*
G01X7185369Y-448718D01*
G01X7173939Y-460148D01*
G01X7156667Y-465990D01*
G01X7139649Y-465990D01*
G01X7122377Y-460148D01*
G01X7116789Y-454560D01*
G01X7110947Y-443130D01*
G01X7244551Y-437288D02*
G01X7238709Y-443130D01*
G01X7244551Y-448718D01*
G01X7250139Y-443130D01*
G01X7244551Y-437288D01*
G01X7366471Y-345848D02*
G01X7309321Y-345848D01*
G01X7303733Y-397410D01*
G01X7309321Y-391568D01*
G01X7326593Y-385980D01*
G01X7343611Y-385980D01*
G01X7360883Y-391568D01*
G01X7372313Y-402998D01*
G01X7377901Y-420270D01*
G01X7377901Y-431700D01*
G01X7372313Y-448718D01*
G01X7360883Y-460148D01*
G01X7343611Y-465990D01*
G01X7326593Y-465990D01*
G01X7309321Y-460148D01*
G01X7303733Y-454560D01*
G01X7297891Y-443130D01*
G01X7425653Y-385980D02*
G01X7425653Y-465990D01*
G01X7425653Y-408840D02*
G01X7442925Y-391568D01*
G01X7454355Y-385980D01*
G01X7471373Y-385980D01*
G01X7482803Y-391568D01*
G01X7488645Y-408840D01*
G01X7488645Y-465990D01*
G01X7488645Y-408840D02*
G01X7505663Y-391568D01*
G01X7517093Y-385980D01*
G01X7534365Y-385980D01*
G01X7545795Y-391568D01*
G01X7551383Y-408840D01*
G01X7551383Y-465990D01*
G01X7599135Y-345848D02*
G01X7604977Y-351690D01*
G01X7610565Y-345848D01*
G01X7604977Y-340260D01*
G01X7599135Y-345848D01*
G01X7604977Y-385980D02*
G01X7604977Y-465990D01*
G01X7658317Y-345848D02*
G01X7658317Y-465990D01*
G01X7746201Y-322988D02*
G01X7734771Y-334418D01*
G01X7723341Y-351690D01*
G01X7711911Y-374550D01*
G01X7706069Y-402998D01*
G01X7706069Y-425858D01*
G01X7711911Y-454560D01*
G01X7723341Y-477420D01*
G01X7734771Y-494438D01*
G01X7746201Y-505868D01*
G01X7828243Y-345848D02*
G01X7811225Y-351690D01*
G01X7799795Y-368708D01*
G01X7793953Y-397410D01*
G01X7793953Y-414428D01*
G01X7799795Y-443130D01*
G01X7811225Y-460148D01*
G01X7828243Y-465990D01*
G01X7839673Y-465990D01*
G01X7856945Y-460148D01*
G01X7868375Y-443130D01*
G01X7873963Y-414428D01*
G01X7873963Y-397410D01*
G01X7868375Y-368708D01*
G01X7856945Y-351690D01*
G01X7839673Y-345848D01*
G01X7828243Y-345848D01*
G01X7927557Y-437288D02*
G01X7921715Y-443130D01*
G01X7927557Y-448718D01*
G01X7933145Y-443130D01*
G01X7927557Y-437288D01*
G01X8009599Y-345848D02*
G01X7992327Y-351690D01*
G01X7986739Y-363120D01*
G01X7986739Y-374550D01*
G01X7992327Y-385980D01*
G01X8003757Y-391568D01*
G01X8026617Y-397410D01*
G01X8043889Y-402998D01*
G01X8055319Y-414428D01*
G01X8060907Y-425858D01*
G01X8060907Y-443130D01*
G01X8055319Y-454560D01*
G01X8049477Y-460148D01*
G01X8032459Y-465990D01*
G01X8009599Y-465990D01*
G01X7992327Y-460148D01*
G01X7986739Y-454560D01*
G01X7980897Y-443130D01*
G01X7980897Y-425858D01*
G01X7986739Y-414428D01*
G01X7998169Y-402998D01*
G01X8015187Y-397410D01*
G01X8038047Y-391568D01*
G01X8049477Y-385980D01*
G01X8055319Y-374550D01*
G01X8055319Y-363120D01*
G01X8049477Y-351690D01*
G01X8032459Y-345848D01*
G01X8009599Y-345848D01*
G01X8177239Y-345848D02*
G01X8120089Y-345848D01*
G01X8114501Y-397410D01*
G01X8120089Y-391568D01*
G01X8137361Y-385980D01*
G01X8154379Y-385980D01*
G01X8171651Y-391568D01*
G01X8183081Y-402998D01*
G01X8188669Y-420270D01*
G01X8188669Y-431700D01*
G01X8183081Y-448718D01*
G01X8171651Y-460148D01*
G01X8154379Y-465990D01*
G01X8137361Y-465990D01*
G01X8120089Y-460148D01*
G01X8114501Y-454560D01*
G01X8108659Y-443130D01*
G01X8270711Y-345848D02*
G01X8253693Y-351690D01*
G01X8242263Y-368708D01*
G01X8236421Y-397410D01*
G01X8236421Y-414428D01*
G01X8242263Y-443130D01*
G01X8253693Y-460148D01*
G01X8270711Y-465990D01*
G01X8282141Y-465990D01*
G01X8299413Y-460148D01*
G01X8310843Y-443130D01*
G01X8316431Y-414428D01*
G01X8316431Y-397410D01*
G01X8310843Y-368708D01*
G01X8299413Y-351690D01*
G01X8282141Y-345848D01*
G01X8270711Y-345848D01*
G01X8364183Y-385980D02*
G01X8427175Y-465990D01*
G01X8427175Y-385980D02*
G01X8364183Y-465990D01*
G01X8509217Y-345848D02*
G01X8492199Y-351690D01*
G01X8480769Y-368708D01*
G01X8474927Y-397410D01*
G01X8474927Y-414428D01*
G01X8480769Y-443130D01*
G01X8492199Y-460148D01*
G01X8509217Y-465990D01*
G01X8520647Y-465990D01*
G01X8537919Y-460148D01*
G01X8549349Y-443130D01*
G01X8554937Y-414428D01*
G01X8554937Y-397410D01*
G01X8549349Y-368708D01*
G01X8537919Y-351690D01*
G01X8520647Y-345848D01*
G01X8509217Y-345848D01*
G01X8608531Y-437288D02*
G01X8602689Y-443130D01*
G01X8608531Y-448718D01*
G01X8614119Y-443130D01*
G01X8608531Y-437288D01*
G01X8690573Y-345848D02*
G01X8673301Y-351690D01*
G01X8667713Y-363120D01*
G01X8667713Y-374550D01*
G01X8673301Y-385980D01*
G01X8684731Y-391568D01*
G01X8707591Y-397410D01*
G01X8724863Y-402998D01*
G01X8736293Y-414428D01*
G01X8741881Y-425858D01*
G01X8741881Y-443130D01*
G01X8736293Y-454560D01*
G01X8730451Y-460148D01*
G01X8713433Y-465990D01*
G01X8690573Y-465990D01*
G01X8673301Y-460148D01*
G01X8667713Y-454560D01*
G01X8661871Y-443130D01*
G01X8661871Y-425858D01*
G01X8667713Y-414428D01*
G01X8679143Y-402998D01*
G01X8696161Y-397410D01*
G01X8719021Y-391568D01*
G01X8730451Y-385980D01*
G01X8736293Y-374550D01*
G01X8736293Y-363120D01*
G01X8730451Y-351690D01*
G01X8713433Y-345848D01*
G01X8690573Y-345848D01*
G01X8858213Y-345848D02*
G01X8801063Y-345848D01*
G01X8795475Y-397410D01*
G01X8801063Y-391568D01*
G01X8818335Y-385980D01*
G01X8835353Y-385980D01*
G01X8852625Y-391568D01*
G01X8864055Y-402998D01*
G01X8869643Y-420270D01*
G01X8869643Y-431700D01*
G01X8864055Y-448718D01*
G01X8852625Y-460148D01*
G01X8835353Y-465990D01*
G01X8818335Y-465990D01*
G01X8801063Y-460148D01*
G01X8795475Y-454560D01*
G01X8789633Y-443130D01*
G01X8951685Y-345848D02*
G01X8934667Y-351690D01*
G01X8923237Y-368708D01*
G01X8917395Y-397410D01*
G01X8917395Y-414428D01*
G01X8923237Y-443130D01*
G01X8934667Y-460148D01*
G01X8951685Y-465990D01*
G01X8963115Y-465990D01*
G01X8980387Y-460148D01*
G01X8991817Y-443130D01*
G01X8997405Y-414428D01*
G01X8997405Y-397410D01*
G01X8991817Y-368708D01*
G01X8980387Y-351690D01*
G01X8963115Y-345848D01*
G01X8951685Y-345848D01*
G01X9045157Y-385980D02*
G01X9045157Y-465990D01*
G01X9045157Y-408840D02*
G01X9062429Y-391568D01*
G01X9073859Y-385980D01*
G01X9090877Y-385980D01*
G01X9102307Y-391568D01*
G01X9108149Y-408840D01*
G01X9108149Y-465990D01*
G01X9108149Y-408840D02*
G01X9125167Y-391568D01*
G01X9136597Y-385980D01*
G01X9153869Y-385980D01*
G01X9165299Y-391568D01*
G01X9170887Y-408840D01*
G01X9170887Y-465990D01*
G01X9218639Y-385980D02*
G01X9218639Y-465990D01*
G01X9218639Y-408840D02*
G01X9235911Y-391568D01*
G01X9247341Y-385980D01*
G01X9264359Y-385980D01*
G01X9275789Y-391568D01*
G01X9281631Y-408840D01*
G01X9281631Y-465990D01*
G01X9281631Y-408840D02*
G01X9298649Y-391568D01*
G01X9310079Y-385980D01*
G01X9327351Y-385980D01*
G01X9338781Y-391568D01*
G01X9344369Y-408840D01*
G01X9344369Y-465990D01*
G01X9392121Y-322988D02*
G01X9403551Y-334418D01*
G01X9414981Y-351690D01*
G01X9426411Y-374550D01*
G01X9432253Y-402998D01*
G01X9432253Y-425858D01*
G01X9426411Y-454560D01*
G01X9414981Y-477420D01*
G01X9403551Y-494438D01*
G01X9392121Y-505868D01*
G01X10323430Y-345848D02*
G01X10323430Y-465990D01*
G01X10323430Y-345848D02*
G01X10374992Y-345848D01*
G01X10392010Y-351690D01*
G01X10397852Y-357278D01*
G01X10403440Y-368708D01*
G01X10403440Y-385980D01*
G01X10397852Y-397410D01*
G01X10392010Y-402998D01*
G01X10374992Y-408840D01*
G01X10323430Y-408840D01*
G01X10491324Y-345848D02*
G01X10491324Y-465990D01*
G01X10451192Y-345848D02*
G01X10531202Y-345848D01*
G01X10578954Y-345848D02*
G01X10578954Y-465990D01*
G01X10658964Y-345848D02*
G01X10658964Y-465990D01*
G01X10578954Y-402998D02*
G01X10658964Y-402998D01*
G01X11784837Y-345848D02*
G01X11784837Y-465990D01*
G01X11784837Y-345848D02*
G01X11836399Y-345848D01*
G01X11853417Y-351690D01*
G01X11859259Y-357278D01*
G01X11864847Y-368708D01*
G01X11864847Y-380138D01*
G01X11859259Y-391568D01*
G01X11853417Y-397410D01*
G01X11836399Y-402998D01*
G01X11784837Y-402998D01*
G01X11824969Y-402998D02*
G01X11864847Y-465990D01*
G01X11941301Y-385980D02*
G01X11929871Y-391568D01*
G01X11918441Y-402998D01*
G01X11912599Y-420270D01*
G01X11912599Y-431700D01*
G01X11918441Y-448718D01*
G01X11929871Y-460148D01*
G01X11941301Y-465990D01*
G01X11958319Y-465990D01*
G01X11969749Y-460148D01*
G01X11981179Y-448718D01*
G01X11987021Y-431700D01*
G01X11987021Y-420270D01*
G01X11981179Y-402998D01*
G01X11969749Y-391568D01*
G01X11958319Y-385980D01*
G01X11941301Y-385980D01*
G01X12034773Y-385980D02*
G01X12034773Y-443130D01*
G01X12040615Y-460148D01*
G01X12052045Y-465990D01*
G01X12069063Y-465990D01*
G01X12080493Y-460148D01*
G01X12097765Y-443130D01*
G01X12097765Y-385980D02*
G01X12097765Y-465990D01*
G01X12145517Y-385980D02*
G01X12145517Y-465990D01*
G01X12145517Y-408840D02*
G01X12162789Y-391568D01*
G01X12174219Y-385980D01*
G01X12191237Y-385980D01*
G01X12202667Y-391568D01*
G01X12208509Y-408840D01*
G01X12208509Y-465990D01*
G01X12324841Y-345848D02*
G01X12324841Y-465990D01*
G01X12324841Y-402998D02*
G01X12313411Y-391568D01*
G01X12301981Y-385980D01*
G01X12284963Y-385980D01*
G01X12273533Y-391568D01*
G01X12262103Y-402998D01*
G01X12256261Y-420270D01*
G01X12256261Y-431700D01*
G01X12262103Y-448718D01*
G01X12273533Y-460148D01*
G01X12284963Y-465990D01*
G01X12301981Y-465990D01*
G01X12313411Y-460148D01*
G01X12324841Y-448718D01*
G01X13216018Y-345848D02*
G01X13216018Y-465990D01*
G01X13216018Y-345848D02*
G01X13267580Y-345848D01*
G01X13284598Y-351690D01*
G01X13290440Y-357278D01*
G01X13296028Y-368708D01*
G01X13296028Y-385980D01*
G01X13290440Y-397410D01*
G01X13284598Y-402998D01*
G01X13267580Y-408840D01*
G01X13216018Y-408840D01*
G01X13412360Y-385980D02*
G01X13412360Y-465990D01*
G01X13412360Y-402998D02*
G01X13400930Y-391568D01*
G01X13389500Y-385980D01*
G01X13372482Y-385980D01*
G01X13361052Y-391568D01*
G01X13349622Y-402998D01*
G01X13343780Y-420270D01*
G01X13343780Y-431700D01*
G01X13349622Y-448718D01*
G01X13361052Y-460148D01*
G01X13372482Y-465990D01*
G01X13389500Y-465990D01*
G01X13400930Y-460148D01*
G01X13412360Y-448718D01*
G01X13528692Y-345848D02*
G01X13528692Y-465990D01*
G01X13528692Y-402998D02*
G01X13517262Y-391568D01*
G01X13505832Y-385980D01*
G01X13488814Y-385980D01*
G01X13477384Y-391568D01*
G01X13465954Y-402998D01*
G01X13460112Y-420270D01*
G01X13460112Y-431700D01*
G01X13465954Y-448718D01*
G01X13477384Y-460148D01*
G01X13488814Y-465990D01*
G01X13505832Y-465990D01*
G01X13517262Y-460148D01*
G01X13528692Y-448718D01*
G01X14885197Y-345848D02*
G01X14885197Y-465990D01*
G01X14885197Y-345848D02*
G01X14936759Y-345848D01*
G01X14953777Y-351690D01*
G01X14959619Y-357278D01*
G01X14965207Y-368708D01*
G01X14965207Y-380138D01*
G01X14959619Y-391568D01*
G01X14953777Y-397410D01*
G01X14936759Y-402998D01*
G01X14885197Y-402998D01*
G01X14925329Y-402998D02*
G01X14965207Y-465990D01*
G01X15041661Y-385980D02*
G01X15030231Y-391568D01*
G01X15018801Y-402998D01*
G01X15012959Y-420270D01*
G01X15012959Y-431700D01*
G01X15018801Y-448718D01*
G01X15030231Y-460148D01*
G01X15041661Y-465990D01*
G01X15058679Y-465990D01*
G01X15070109Y-460148D01*
G01X15081539Y-448718D01*
G01X15087381Y-431700D01*
G01X15087381Y-420270D01*
G01X15081539Y-402998D01*
G01X15070109Y-391568D01*
G01X15058679Y-385980D01*
G01X15041661Y-385980D01*
G01X15135133Y-385980D02*
G01X15135133Y-443130D01*
G01X15140975Y-460148D01*
G01X15152405Y-465990D01*
G01X15169423Y-465990D01*
G01X15180853Y-460148D01*
G01X15198125Y-443130D01*
G01X15198125Y-385980D02*
G01X15198125Y-465990D01*
G01X15245877Y-385980D02*
G01X15245877Y-465990D01*
G01X15245877Y-408840D02*
G01X15263149Y-391568D01*
G01X15274579Y-385980D01*
G01X15291597Y-385980D01*
G01X15303027Y-391568D01*
G01X15308869Y-408840D01*
G01X15308869Y-465990D01*
G01X15425201Y-345848D02*
G01X15425201Y-465990D01*
G01X15425201Y-402998D02*
G01X15413771Y-391568D01*
G01X15402341Y-385980D01*
G01X15385323Y-385980D01*
G01X15373893Y-391568D01*
G01X15362463Y-402998D01*
G01X15356621Y-420270D01*
G01X15356621Y-431700D01*
G01X15362463Y-448718D01*
G01X15373893Y-460148D01*
G01X15385323Y-465990D01*
G01X15402341Y-465990D01*
G01X15413771Y-460148D01*
G01X15425201Y-448718D01*
G01X16844698Y-345848D02*
G01X16844698Y-465990D01*
G01X16804566Y-345848D02*
G01X16884576Y-345848D01*
G01X16961030Y-385980D02*
G01X16949600Y-391568D01*
G01X16938170Y-402998D01*
G01X16932328Y-420270D01*
G01X16932328Y-431700D01*
G01X16938170Y-448718D01*
G01X16949600Y-460148D01*
G01X16961030Y-465990D01*
G01X16978048Y-465990D01*
G01X16989478Y-460148D01*
G01X17000908Y-448718D01*
G01X17006750Y-431700D01*
G01X17006750Y-420270D01*
G01X17000908Y-402998D01*
G01X16989478Y-391568D01*
G01X16978048Y-385980D01*
G01X16961030Y-385980D01*
G01X17054502Y-385980D02*
G01X17054502Y-505868D01*
G01X17054502Y-402998D02*
G01X17065932Y-391568D01*
G01X17077362Y-385980D01*
G01X17094634Y-385980D01*
G01X17106064Y-391568D01*
G01X17117494Y-402998D01*
G01X17123082Y-420270D01*
G01X17123082Y-431700D01*
G01X17117494Y-448718D01*
G01X17106064Y-460148D01*
G01X17094634Y-465990D01*
G01X17077362Y-465990D01*
G01X17065932Y-460148D01*
G01X17054502Y-448718D01*
G01X17298850Y-345848D02*
G01X17298850Y-465990D01*
G01X17298850Y-465990D02*
G01X17367430Y-465990D01*
G01X17483762Y-385980D02*
G01X17483762Y-465990D01*
G01X17483762Y-402998D02*
G01X17472332Y-391568D01*
G01X17460902Y-385980D01*
G01X17443884Y-385980D01*
G01X17432454Y-391568D01*
G01X17421024Y-402998D01*
G01X17415182Y-420270D01*
G01X17415182Y-431700D01*
G01X17421024Y-448718D01*
G01X17432454Y-460148D01*
G01X17443884Y-465990D01*
G01X17460902Y-465990D01*
G01X17472332Y-460148D01*
G01X17483762Y-448718D01*
G01X17537356Y-385980D02*
G01X17571646Y-465990D01*
G01X17605936Y-385980D02*
G01X17571646Y-465990D01*
G01X17560216Y-488850D01*
G01X17548786Y-500280D01*
G01X17537356Y-505868D01*
G01X17531514Y-505868D01*
G01X17653688Y-420270D02*
G01X17722268Y-420270D01*
G01X17722268Y-408840D01*
G01X17716680Y-397410D01*
G01X17710838Y-391568D01*
G01X17699408Y-385980D01*
G01X17682390Y-385980D01*
G01X17670960Y-391568D01*
G01X17659530Y-402998D01*
G01X17653688Y-420270D01*
G01X17653688Y-431700D01*
G01X17659530Y-448718D01*
G01X17670960Y-460148D01*
G01X17682390Y-465990D01*
G01X17699408Y-465990D01*
G01X17710838Y-460148D01*
G01X17722268Y-448718D01*
G01X17770020Y-385980D02*
G01X17770020Y-465990D01*
G01X17770020Y-420270D02*
G01X17775862Y-402998D01*
G01X17787292Y-391568D01*
G01X17798722Y-385980D01*
G01X17815740Y-385980D01*
G01X17863492Y-414428D02*
G01X17966362Y-414428D01*
G01X18014114Y-345848D02*
G01X18014114Y-465990D01*
G01X18014114Y-345848D02*
G01X18065676Y-345848D01*
G01X18082694Y-351690D01*
G01X18088536Y-357278D01*
G01X18094124Y-368708D01*
G01X18094124Y-380138D01*
G01X18088536Y-391568D01*
G01X18082694Y-397410D01*
G01X18065676Y-402998D01*
G01X18014114Y-402998D02*
G01X18065676Y-402998D01*
G01X18082694Y-408840D01*
G01X18088536Y-414428D01*
G01X18094124Y-425858D01*
G01X18094124Y-443130D01*
G01X18088536Y-454560D01*
G01X18082694Y-460148D01*
G01X18065676Y-465990D01*
G01X18014114Y-465990D01*
G01X18170578Y-385980D02*
G01X18159148Y-391568D01*
G01X18147718Y-402998D01*
G01X18141876Y-420270D01*
G01X18141876Y-431700D01*
G01X18147718Y-448718D01*
G01X18159148Y-460148D01*
G01X18170578Y-465990D01*
G01X18187596Y-465990D01*
G01X18199026Y-460148D01*
G01X18210456Y-448718D01*
G01X18216298Y-431700D01*
G01X18216298Y-420270D01*
G01X18210456Y-402998D01*
G01X18199026Y-391568D01*
G01X18187596Y-385980D01*
G01X18170578Y-385980D01*
G01X18281322Y-345848D02*
G01X18281322Y-443130D01*
G01X18286910Y-460148D01*
G01X18298340Y-465990D01*
G01X18309770Y-465990D01*
G01X18264050Y-385980D02*
G01X18304182Y-385980D01*
G01X18374794Y-345848D02*
G01X18374794Y-443130D01*
G01X18380382Y-460148D01*
G01X18391812Y-465990D01*
G01X18403242Y-465990D01*
G01X18357522Y-385980D02*
G01X18397654Y-385980D01*
G01X18479696Y-385980D02*
G01X18468266Y-391568D01*
G01X18456836Y-402998D01*
G01X18450994Y-420270D01*
G01X18450994Y-431700D01*
G01X18456836Y-448718D01*
G01X18468266Y-460148D01*
G01X18479696Y-465990D01*
G01X18496714Y-465990D01*
G01X18508144Y-460148D01*
G01X18519574Y-448718D01*
G01X18525416Y-431700D01*
G01X18525416Y-420270D01*
G01X18519574Y-402998D01*
G01X18508144Y-391568D01*
G01X18496714Y-385980D01*
G01X18479696Y-385980D01*
G01X18573168Y-385980D02*
G01X18573168Y-465990D01*
G01X18573168Y-408840D02*
G01X18590440Y-391568D01*
G01X18601870Y-385980D01*
G01X18618888Y-385980D01*
G01X18630318Y-391568D01*
G01X18636160Y-408840D01*
G01X18636160Y-465990D01*
G01X18636160Y-408840D02*
G01X18653178Y-391568D01*
G01X18664608Y-385980D01*
G01X18681880Y-385980D01*
G01X18693310Y-391568D01*
G01X18698898Y-408840D01*
G01X18698898Y-465990D01*
G01X18874666Y-345848D02*
G01X18874666Y-465990D01*
G01X18874666Y-465990D02*
G01X18943246Y-465990D01*
G01X19059578Y-385980D02*
G01X19059578Y-465990D01*
G01X19059578Y-402998D02*
G01X19048148Y-391568D01*
G01X19036718Y-385980D01*
G01X19019700Y-385980D01*
G01X19008270Y-391568D01*
G01X18996840Y-402998D01*
G01X18990998Y-420270D01*
G01X18990998Y-431700D01*
G01X18996840Y-448718D01*
G01X19008270Y-460148D01*
G01X19019700Y-465990D01*
G01X19036718Y-465990D01*
G01X19048148Y-460148D01*
G01X19059578Y-448718D01*
G01X19113172Y-385980D02*
G01X19147462Y-465990D01*
G01X19181752Y-385980D02*
G01X19147462Y-465990D01*
G01X19136032Y-488850D01*
G01X19124602Y-500280D01*
G01X19113172Y-505868D01*
G01X19107330Y-505868D01*
G01X19229504Y-420270D02*
G01X19298084Y-420270D01*
G01X19298084Y-408840D01*
G01X19292496Y-397410D01*
G01X19286654Y-391568D01*
G01X19275224Y-385980D01*
G01X19258206Y-385980D01*
G01X19246776Y-391568D01*
G01X19235346Y-402998D01*
G01X19229504Y-420270D01*
G01X19229504Y-431700D01*
G01X19235346Y-448718D01*
G01X19246776Y-460148D01*
G01X19258206Y-465990D01*
G01X19275224Y-465990D01*
G01X19286654Y-460148D01*
G01X19298084Y-448718D01*
G01X19345836Y-385980D02*
G01X19345836Y-465990D01*
G01X19345836Y-420270D02*
G01X19351678Y-402998D01*
G01X19363108Y-391568D01*
G01X19374538Y-385980D01*
G01X19391556Y-385980D01*
G01X5072960Y-926419D02*
G01X5015810Y-1006429D01*
G01X5101662Y-1006429D01*
G01X5072960Y-926419D02*
G01X5072960Y-1046561D01*
G01X6435815Y-955121D02*
G01X6435815Y-949279D01*
G01X6441403Y-937849D01*
G01X6447245Y-932261D01*
G01X6458675Y-926419D01*
G01X6481535Y-926419D01*
G01X6492965Y-932261D01*
G01X6498553Y-937849D01*
G01X6504395Y-949279D01*
G01X6504395Y-960709D01*
G01X6498553Y-972139D01*
G01X6487123Y-989411D01*
G01X6429973Y-1046561D01*
G01X6509983Y-1046561D01*
G01X6569165Y-926419D02*
G01X6632157Y-926419D01*
G01X6597867Y-972139D01*
G01X6614885Y-972139D01*
G01X6626315Y-977981D01*
G01X6632157Y-983569D01*
G01X6637745Y-1000841D01*
G01X6637745Y-1012271D01*
G01X6632157Y-1029289D01*
G01X6620727Y-1040719D01*
G01X6603455Y-1046561D01*
G01X6586437Y-1046561D01*
G01X6569165Y-1040719D01*
G01X6563577Y-1035131D01*
G01X6557735Y-1023701D01*
G01X6691339Y-1017859D02*
G01X6685497Y-1023701D01*
G01X6691339Y-1029289D01*
G01X6696927Y-1023701D01*
G01X6691339Y-1017859D01*
G01X6813259Y-943691D02*
G01X6807671Y-932261D01*
G01X6790399Y-926419D01*
G01X6778969Y-926419D01*
G01X6761951Y-932261D01*
G01X6750521Y-949279D01*
G01X6744679Y-977981D01*
G01X6744679Y-1006429D01*
G01X6750521Y-1029289D01*
G01X6761951Y-1040719D01*
G01X6778969Y-1046561D01*
G01X6784811Y-1046561D01*
G01X6801829Y-1040719D01*
G01X6813259Y-1029289D01*
G01X6819101Y-1012271D01*
G01X6819101Y-1006429D01*
G01X6813259Y-989411D01*
G01X6801829Y-977981D01*
G01X6784811Y-972139D01*
G01X6778969Y-972139D01*
G01X6761951Y-977981D01*
G01X6750521Y-989411D01*
G01X6744679Y-1006429D01*
G01X6866853Y-966551D02*
G01X6929845Y-1046561D01*
G01X6929845Y-966551D02*
G01X6866853Y-1046561D01*
G01X7046177Y-926419D02*
G01X6989027Y-926419D01*
G01X6983439Y-977981D01*
G01X6989027Y-972139D01*
G01X7006299Y-966551D01*
G01X7023317Y-966551D01*
G01X7040589Y-972139D01*
G01X7052019Y-983569D01*
G01X7057607Y-1000841D01*
G01X7057607Y-1012271D01*
G01X7052019Y-1029289D01*
G01X7040589Y-1040719D01*
G01X7023317Y-1046561D01*
G01X7006299Y-1046561D01*
G01X6989027Y-1040719D01*
G01X6983439Y-1035131D01*
G01X6977597Y-1023701D01*
G01X7105359Y-949279D02*
G01X7116789Y-943691D01*
G01X7134061Y-926419D01*
G01X7134061Y-1046561D01*
G01X7187655Y-1017859D02*
G01X7181813Y-1023701D01*
G01X7187655Y-1029289D01*
G01X7193243Y-1023701D01*
G01X7187655Y-1017859D01*
G01X7246837Y-955121D02*
G01X7246837Y-949279D01*
G01X7252425Y-937849D01*
G01X7258267Y-932261D01*
G01X7269697Y-926419D01*
G01X7292557Y-926419D01*
G01X7303987Y-932261D01*
G01X7309575Y-937849D01*
G01X7315417Y-949279D01*
G01X7315417Y-960709D01*
G01X7309575Y-972139D01*
G01X7298145Y-989411D01*
G01X7240995Y-1046561D01*
G01X7321005Y-1046561D01*
G01X7368757Y-966551D02*
G01X7368757Y-1046561D01*
G01X7368757Y-989411D02*
G01X7386029Y-972139D01*
G01X7397459Y-966551D01*
G01X7414477Y-966551D01*
G01X7425907Y-972139D01*
G01X7431749Y-989411D01*
G01X7431749Y-1046561D01*
G01X7431749Y-989411D02*
G01X7448767Y-972139D01*
G01X7460197Y-966551D01*
G01X7477469Y-966551D01*
G01X7488899Y-972139D01*
G01X7494487Y-989411D01*
G01X7494487Y-1046561D01*
G01X7542239Y-926419D02*
G01X7548081Y-932261D01*
G01X7553669Y-926419D01*
G01X7548081Y-920831D01*
G01X7542239Y-926419D01*
G01X7548081Y-966551D02*
G01X7548081Y-1046561D01*
G01X7601421Y-926419D02*
G01X7601421Y-1046561D01*
G01X7689305Y-903559D02*
G01X7677875Y-914989D01*
G01X7666445Y-932261D01*
G01X7655015Y-955121D01*
G01X7649173Y-983569D01*
G01X7649173Y-1006429D01*
G01X7655015Y-1035131D01*
G01X7666445Y-1057991D01*
G01X7677875Y-1075009D01*
G01X7689305Y-1086439D01*
G01X7771347Y-926419D02*
G01X7754329Y-932261D01*
G01X7742899Y-949279D01*
G01X7737057Y-977981D01*
G01X7737057Y-994999D01*
G01X7742899Y-1023701D01*
G01X7754329Y-1040719D01*
G01X7771347Y-1046561D01*
G01X7782777Y-1046561D01*
G01X7800049Y-1040719D01*
G01X7811479Y-1023701D01*
G01X7817067Y-994999D01*
G01X7817067Y-977981D01*
G01X7811479Y-949279D01*
G01X7800049Y-932261D01*
G01X7782777Y-926419D01*
G01X7771347Y-926419D01*
G01X7870661Y-1017859D02*
G01X7864819Y-1023701D01*
G01X7870661Y-1029289D01*
G01X7876249Y-1023701D01*
G01X7870661Y-1017859D01*
G01X7992581Y-943691D02*
G01X7986993Y-932261D01*
G01X7969721Y-926419D01*
G01X7958291Y-926419D01*
G01X7941273Y-932261D01*
G01X7929843Y-949279D01*
G01X7924001Y-977981D01*
G01X7924001Y-1006429D01*
G01X7929843Y-1029289D01*
G01X7941273Y-1040719D01*
G01X7958291Y-1046561D01*
G01X7964133Y-1046561D01*
G01X7981151Y-1040719D01*
G01X7992581Y-1029289D01*
G01X7998423Y-1012271D01*
G01X7998423Y-1006429D01*
G01X7992581Y-989411D01*
G01X7981151Y-977981D01*
G01X7964133Y-972139D01*
G01X7958291Y-972139D01*
G01X7941273Y-977981D01*
G01X7929843Y-989411D01*
G01X7924001Y-1006429D01*
G01X8080465Y-926419D02*
G01X8063447Y-932261D01*
G01X8052017Y-949279D01*
G01X8046175Y-977981D01*
G01X8046175Y-994999D01*
G01X8052017Y-1023701D01*
G01X8063447Y-1040719D01*
G01X8080465Y-1046561D01*
G01X8091895Y-1046561D01*
G01X8109167Y-1040719D01*
G01X8120597Y-1023701D01*
G01X8126185Y-994999D01*
G01X8126185Y-977981D01*
G01X8120597Y-949279D01*
G01X8109167Y-932261D01*
G01X8091895Y-926419D01*
G01X8080465Y-926419D01*
G01X8208227Y-926419D02*
G01X8191209Y-932261D01*
G01X8179779Y-949279D01*
G01X8173937Y-977981D01*
G01X8173937Y-994999D01*
G01X8179779Y-1023701D01*
G01X8191209Y-1040719D01*
G01X8208227Y-1046561D01*
G01X8219657Y-1046561D01*
G01X8236929Y-1040719D01*
G01X8248359Y-1023701D01*
G01X8253947Y-994999D01*
G01X8253947Y-977981D01*
G01X8248359Y-949279D01*
G01X8236929Y-932261D01*
G01X8219657Y-926419D01*
G01X8208227Y-926419D01*
G01X8301699Y-966551D02*
G01X8364691Y-1046561D01*
G01X8364691Y-966551D02*
G01X8301699Y-1046561D01*
G01X8412443Y-949279D02*
G01X8423873Y-943691D01*
G01X8441145Y-926419D01*
G01X8441145Y-1046561D01*
G01X8494739Y-1017859D02*
G01X8488897Y-1023701D01*
G01X8494739Y-1029289D01*
G01X8500327Y-1023701D01*
G01X8494739Y-1017859D01*
G01X8559509Y-926419D02*
G01X8622501Y-926419D01*
G01X8588211Y-972139D01*
G01X8605229Y-972139D01*
G01X8616659Y-977981D01*
G01X8622501Y-983569D01*
G01X8628089Y-1000841D01*
G01X8628089Y-1012271D01*
G01X8622501Y-1029289D01*
G01X8611071Y-1040719D01*
G01X8593799Y-1046561D01*
G01X8576781Y-1046561D01*
G01X8559509Y-1040719D01*
G01X8553921Y-1035131D01*
G01X8548079Y-1023701D01*
G01X8710131Y-926419D02*
G01X8693113Y-932261D01*
G01X8681683Y-949279D01*
G01X8675841Y-977981D01*
G01X8675841Y-994999D01*
G01X8681683Y-1023701D01*
G01X8693113Y-1040719D01*
G01X8710131Y-1046561D01*
G01X8721561Y-1046561D01*
G01X8738833Y-1040719D01*
G01X8750263Y-1023701D01*
G01X8755851Y-994999D01*
G01X8755851Y-977981D01*
G01X8750263Y-949279D01*
G01X8738833Y-932261D01*
G01X8721561Y-926419D01*
G01X8710131Y-926419D01*
G01X8837893Y-926419D02*
G01X8820875Y-932261D01*
G01X8809445Y-949279D01*
G01X8803603Y-977981D01*
G01X8803603Y-994999D01*
G01X8809445Y-1023701D01*
G01X8820875Y-1040719D01*
G01X8837893Y-1046561D01*
G01X8849323Y-1046561D01*
G01X8866595Y-1040719D01*
G01X8878025Y-1023701D01*
G01X8883613Y-994999D01*
G01X8883613Y-977981D01*
G01X8878025Y-949279D01*
G01X8866595Y-932261D01*
G01X8849323Y-926419D01*
G01X8837893Y-926419D01*
G01X8931365Y-966551D02*
G01X8931365Y-1046561D01*
G01X8931365Y-989411D02*
G01X8948637Y-972139D01*
G01X8960067Y-966551D01*
G01X8977085Y-966551D01*
G01X8988515Y-972139D01*
G01X8994357Y-989411D01*
G01X8994357Y-1046561D01*
G01X8994357Y-989411D02*
G01X9011375Y-972139D01*
G01X9022805Y-966551D01*
G01X9040077Y-966551D01*
G01X9051507Y-972139D01*
G01X9057095Y-989411D01*
G01X9057095Y-1046561D01*
G01X9104847Y-966551D02*
G01X9104847Y-1046561D01*
G01X9104847Y-989411D02*
G01X9122119Y-972139D01*
G01X9133549Y-966551D01*
G01X9150567Y-966551D01*
G01X9161997Y-972139D01*
G01X9167839Y-989411D01*
G01X9167839Y-1046561D01*
G01X9167839Y-989411D02*
G01X9184857Y-972139D01*
G01X9196287Y-966551D01*
G01X9213559Y-966551D01*
G01X9224989Y-972139D01*
G01X9230577Y-989411D01*
G01X9230577Y-1046561D01*
G01X9278329Y-903559D02*
G01X9289759Y-914989D01*
G01X9301189Y-932261D01*
G01X9312619Y-955121D01*
G01X9318461Y-983569D01*
G01X9318461Y-1006429D01*
G01X9312619Y-1035131D01*
G01X9301189Y-1057991D01*
G01X9289759Y-1075009D01*
G01X9278329Y-1086439D01*
G01X10323430Y-926419D02*
G01X10323430Y-1046561D01*
G01X10323430Y-926419D02*
G01X10374992Y-926419D01*
G01X10392010Y-932261D01*
G01X10397852Y-937849D01*
G01X10403440Y-949279D01*
G01X10403440Y-966551D01*
G01X10397852Y-977981D01*
G01X10392010Y-983569D01*
G01X10374992Y-989411D01*
G01X10323430Y-989411D01*
G01X10491324Y-926419D02*
G01X10491324Y-1046561D01*
G01X10451192Y-926419D02*
G01X10531202Y-926419D01*
G01X10578954Y-926419D02*
G01X10578954Y-1046561D01*
G01X10658964Y-926419D02*
G01X10658964Y-1046561D01*
G01X10578954Y-983569D02*
G01X10658964Y-983569D01*
G01X11864847Y-943691D02*
G01X11853417Y-932261D01*
G01X11836399Y-926419D01*
G01X11813539Y-926419D01*
G01X11796267Y-932261D01*
G01X11784837Y-943691D01*
G01X11784837Y-955121D01*
G01X11790679Y-966551D01*
G01X11796267Y-972139D01*
G01X11807697Y-977981D01*
G01X11841987Y-989411D01*
G01X11853417Y-994999D01*
G01X11859259Y-1000841D01*
G01X11864847Y-1012271D01*
G01X11864847Y-1029289D01*
G01X11853417Y-1040719D01*
G01X11836399Y-1046561D01*
G01X11813539Y-1046561D01*
G01X11796267Y-1040719D01*
G01X11784837Y-1029289D01*
G01X11912599Y-926419D02*
G01X11912599Y-1046561D01*
G01X11989053Y-966551D02*
G01X11977623Y-972139D01*
G01X11966193Y-983569D01*
G01X11960351Y-1000841D01*
G01X11960351Y-1012271D01*
G01X11966193Y-1029289D01*
G01X11977623Y-1040719D01*
G01X11989053Y-1046561D01*
G01X12006071Y-1046561D01*
G01X12017501Y-1040719D01*
G01X12028931Y-1029289D01*
G01X12034773Y-1012271D01*
G01X12034773Y-1000841D01*
G01X12028931Y-983569D01*
G01X12017501Y-972139D01*
G01X12006071Y-966551D01*
G01X11989053Y-966551D01*
G01X12099797Y-926419D02*
G01X12099797Y-1023701D01*
G01X12105385Y-1040719D01*
G01X12116815Y-1046561D01*
G01X12128245Y-1046561D01*
G01X12082525Y-966551D02*
G01X12122657Y-966551D01*
G01X13216018Y-926419D02*
G01X13216018Y-1046561D01*
G01X13216018Y-926419D02*
G01X13267580Y-926419D01*
G01X13284598Y-932261D01*
G01X13290440Y-937849D01*
G01X13296028Y-949279D01*
G01X13296028Y-966551D01*
G01X13290440Y-977981D01*
G01X13284598Y-983569D01*
G01X13267580Y-989411D01*
G01X13216018Y-989411D01*
G01X13412360Y-966551D02*
G01X13412360Y-1046561D01*
G01X13412360Y-983569D02*
G01X13400930Y-972139D01*
G01X13389500Y-966551D01*
G01X13372482Y-966551D01*
G01X13361052Y-972139D01*
G01X13349622Y-983569D01*
G01X13343780Y-1000841D01*
G01X13343780Y-1012271D01*
G01X13349622Y-1029289D01*
G01X13361052Y-1040719D01*
G01X13372482Y-1046561D01*
G01X13389500Y-1046561D01*
G01X13400930Y-1040719D01*
G01X13412360Y-1029289D01*
G01X13528692Y-926419D02*
G01X13528692Y-1046561D01*
G01X13528692Y-983569D02*
G01X13517262Y-972139D01*
G01X13505832Y-966551D01*
G01X13488814Y-966551D01*
G01X13477384Y-972139D01*
G01X13465954Y-983569D01*
G01X13460112Y-1000841D01*
G01X13460112Y-1012271D01*
G01X13465954Y-1029289D01*
G01X13477384Y-1040719D01*
G01X13488814Y-1046561D01*
G01X13505832Y-1046561D01*
G01X13517262Y-1040719D01*
G01X13528692Y-1029289D01*
G01X14919487Y-926419D02*
G01X14908057Y-932261D01*
G01X14896627Y-943691D01*
G01X14891039Y-955121D01*
G01X14885197Y-972139D01*
G01X14885197Y-1000841D01*
G01X14891039Y-1017859D01*
G01X14896627Y-1029289D01*
G01X14908057Y-1040719D01*
G01X14919487Y-1046561D01*
G01X14942347Y-1046561D01*
G01X14953777Y-1040719D01*
G01X14965207Y-1029289D01*
G01X14971049Y-1017859D01*
G01X14976637Y-1000841D01*
G01X14976637Y-972139D01*
G01X14971049Y-955121D01*
G01X14965207Y-943691D01*
G01X14953777Y-932261D01*
G01X14942347Y-926419D01*
G01X14919487Y-926419D01*
G01X15024389Y-966551D02*
G01X15058679Y-1046561D01*
G01X15092969Y-966551D02*
G01X15058679Y-1046561D01*
G01X15209301Y-966551D02*
G01X15209301Y-1046561D01*
G01X15209301Y-983569D02*
G01X15197871Y-972139D01*
G01X15186441Y-966551D01*
G01X15169423Y-966551D01*
G01X15157993Y-972139D01*
G01X15146563Y-983569D01*
G01X15140721Y-1000841D01*
G01X15140721Y-1012271D01*
G01X15146563Y-1029289D01*
G01X15157993Y-1040719D01*
G01X15169423Y-1046561D01*
G01X15186441Y-1046561D01*
G01X15197871Y-1040719D01*
G01X15209301Y-1029289D01*
G01X15257053Y-926419D02*
G01X15257053Y-1046561D01*
G01X16844698Y-926419D02*
G01X16844698Y-1046561D01*
G01X16804566Y-926419D02*
G01X16884576Y-926419D01*
G01X16961030Y-966551D02*
G01X16949600Y-972139D01*
G01X16938170Y-983569D01*
G01X16932328Y-1000841D01*
G01X16932328Y-1012271D01*
G01X16938170Y-1029289D01*
G01X16949600Y-1040719D01*
G01X16961030Y-1046561D01*
G01X16978048Y-1046561D01*
G01X16989478Y-1040719D01*
G01X17000908Y-1029289D01*
G01X17006750Y-1012271D01*
G01X17006750Y-1000841D01*
G01X17000908Y-983569D01*
G01X16989478Y-972139D01*
G01X16978048Y-966551D01*
G01X16961030Y-966551D01*
G01X17054502Y-966551D02*
G01X17054502Y-1086439D01*
G01X17054502Y-983569D02*
G01X17065932Y-972139D01*
G01X17077362Y-966551D01*
G01X17094634Y-966551D01*
G01X17106064Y-972139D01*
G01X17117494Y-983569D01*
G01X17123082Y-1000841D01*
G01X17123082Y-1012271D01*
G01X17117494Y-1029289D01*
G01X17106064Y-1040719D01*
G01X17094634Y-1046561D01*
G01X17077362Y-1046561D01*
G01X17065932Y-1040719D01*
G01X17054502Y-1029289D01*
G01X17298850Y-926419D02*
G01X17298850Y-1046561D01*
G01X17298850Y-1046561D02*
G01X17367430Y-1046561D01*
G01X17483762Y-966551D02*
G01X17483762Y-1046561D01*
G01X17483762Y-983569D02*
G01X17472332Y-972139D01*
G01X17460902Y-966551D01*
G01X17443884Y-966551D01*
G01X17432454Y-972139D01*
G01X17421024Y-983569D01*
G01X17415182Y-1000841D01*
G01X17415182Y-1012271D01*
G01X17421024Y-1029289D01*
G01X17432454Y-1040719D01*
G01X17443884Y-1046561D01*
G01X17460902Y-1046561D01*
G01X17472332Y-1040719D01*
G01X17483762Y-1029289D01*
G01X17537356Y-966551D02*
G01X17571646Y-1046561D01*
G01X17605936Y-966551D02*
G01X17571646Y-1046561D01*
G01X17560216Y-1069421D01*
G01X17548786Y-1080851D01*
G01X17537356Y-1086439D01*
G01X17531514Y-1086439D01*
G01X17653688Y-1000841D02*
G01X17722268Y-1000841D01*
G01X17722268Y-989411D01*
G01X17716680Y-977981D01*
G01X17710838Y-972139D01*
G01X17699408Y-966551D01*
G01X17682390Y-966551D01*
G01X17670960Y-972139D01*
G01X17659530Y-983569D01*
G01X17653688Y-1000841D01*
G01X17653688Y-1012271D01*
G01X17659530Y-1029289D01*
G01X17670960Y-1040719D01*
G01X17682390Y-1046561D01*
G01X17699408Y-1046561D01*
G01X17710838Y-1040719D01*
G01X17722268Y-1029289D01*
G01X17770020Y-966551D02*
G01X17770020Y-1046561D01*
G01X17770020Y-1000841D02*
G01X17775862Y-983569D01*
G01X17787292Y-972139D01*
G01X17798722Y-966551D01*
G01X17815740Y-966551D01*
G01X17863492Y-994999D02*
G01X17966362Y-994999D01*
G01X18014114Y-926419D02*
G01X18014114Y-1046561D01*
G01X18014114Y-926419D02*
G01X18065676Y-926419D01*
G01X18082694Y-932261D01*
G01X18088536Y-937849D01*
G01X18094124Y-949279D01*
G01X18094124Y-960709D01*
G01X18088536Y-972139D01*
G01X18082694Y-977981D01*
G01X18065676Y-983569D01*
G01X18014114Y-983569D02*
G01X18065676Y-983569D01*
G01X18082694Y-989411D01*
G01X18088536Y-994999D01*
G01X18094124Y-1006429D01*
G01X18094124Y-1023701D01*
G01X18088536Y-1035131D01*
G01X18082694Y-1040719D01*
G01X18065676Y-1046561D01*
G01X18014114Y-1046561D01*
G01X18170578Y-966551D02*
G01X18159148Y-972139D01*
G01X18147718Y-983569D01*
G01X18141876Y-1000841D01*
G01X18141876Y-1012271D01*
G01X18147718Y-1029289D01*
G01X18159148Y-1040719D01*
G01X18170578Y-1046561D01*
G01X18187596Y-1046561D01*
G01X18199026Y-1040719D01*
G01X18210456Y-1029289D01*
G01X18216298Y-1012271D01*
G01X18216298Y-1000841D01*
G01X18210456Y-983569D01*
G01X18199026Y-972139D01*
G01X18187596Y-966551D01*
G01X18170578Y-966551D01*
G01X18281322Y-926419D02*
G01X18281322Y-1023701D01*
G01X18286910Y-1040719D01*
G01X18298340Y-1046561D01*
G01X18309770Y-1046561D01*
G01X18264050Y-966551D02*
G01X18304182Y-966551D01*
G01X18374794Y-926419D02*
G01X18374794Y-1023701D01*
G01X18380382Y-1040719D01*
G01X18391812Y-1046561D01*
G01X18403242Y-1046561D01*
G01X18357522Y-966551D02*
G01X18397654Y-966551D01*
G01X18479696Y-966551D02*
G01X18468266Y-972139D01*
G01X18456836Y-983569D01*
G01X18450994Y-1000841D01*
G01X18450994Y-1012271D01*
G01X18456836Y-1029289D01*
G01X18468266Y-1040719D01*
G01X18479696Y-1046561D01*
G01X18496714Y-1046561D01*
G01X18508144Y-1040719D01*
G01X18519574Y-1029289D01*
G01X18525416Y-1012271D01*
G01X18525416Y-1000841D01*
G01X18519574Y-983569D01*
G01X18508144Y-972139D01*
G01X18496714Y-966551D01*
G01X18479696Y-966551D01*
G01X18573168Y-966551D02*
G01X18573168Y-1046561D01*
G01X18573168Y-989411D02*
G01X18590440Y-972139D01*
G01X18601870Y-966551D01*
G01X18618888Y-966551D01*
G01X18630318Y-972139D01*
G01X18636160Y-989411D01*
G01X18636160Y-1046561D01*
G01X18636160Y-989411D02*
G01X18653178Y-972139D01*
G01X18664608Y-966551D01*
G01X18681880Y-966551D01*
G01X18693310Y-972139D01*
G01X18698898Y-989411D01*
G01X18698898Y-1046561D01*
G01X18874666Y-926419D02*
G01X18874666Y-1046561D01*
G01X18874666Y-1046561D02*
G01X18943246Y-1046561D01*
G01X19059578Y-966551D02*
G01X19059578Y-1046561D01*
G01X19059578Y-983569D02*
G01X19048148Y-972139D01*
G01X19036718Y-966551D01*
G01X19019700Y-966551D01*
G01X19008270Y-972139D01*
G01X18996840Y-983569D01*
G01X18990998Y-1000841D01*
G01X18990998Y-1012271D01*
G01X18996840Y-1029289D01*
G01X19008270Y-1040719D01*
G01X19019700Y-1046561D01*
G01X19036718Y-1046561D01*
G01X19048148Y-1040719D01*
G01X19059578Y-1029289D01*
G01X19113172Y-966551D02*
G01X19147462Y-1046561D01*
G01X19181752Y-966551D02*
G01X19147462Y-1046561D01*
G01X19136032Y-1069421D01*
G01X19124602Y-1080851D01*
G01X19113172Y-1086439D01*
G01X19107330Y-1086439D01*
G01X19229504Y-1000841D02*
G01X19298084Y-1000841D01*
G01X19298084Y-989411D01*
G01X19292496Y-977981D01*
G01X19286654Y-972139D01*
G01X19275224Y-966551D01*
G01X19258206Y-966551D01*
G01X19246776Y-972139D01*
G01X19235346Y-983569D01*
G01X19229504Y-1000841D01*
G01X19229504Y-1012271D01*
G01X19235346Y-1029289D01*
G01X19246776Y-1040719D01*
G01X19258206Y-1046561D01*
G01X19275224Y-1046561D01*
G01X19286654Y-1040719D01*
G01X19298084Y-1029289D01*
G01X19345836Y-966551D02*
G01X19345836Y-1046561D01*
G01X19345836Y-1000841D02*
G01X19351678Y-983569D01*
G01X19363108Y-972139D01*
G01X19374538Y-966551D01*
G01X19391556Y-966551D01*
G01X5095820Y-1506991D02*
G01X5038670Y-1627133D01*
G01X5015810Y-1506991D02*
G01X5095820Y-1506991D01*
G01X6429973Y-1529851D02*
G01X6441403Y-1524263D01*
G01X6458675Y-1506991D01*
G01X6458675Y-1627133D01*
G01X6512269Y-1535693D02*
G01X6512269Y-1529851D01*
G01X6517857Y-1518421D01*
G01X6523699Y-1512833D01*
G01X6535129Y-1506991D01*
G01X6557989Y-1506991D01*
G01X6569419Y-1512833D01*
G01X6575007Y-1518421D01*
G01X6580849Y-1529851D01*
G01X6580849Y-1541281D01*
G01X6575007Y-1552711D01*
G01X6563577Y-1569983D01*
G01X6506427Y-1627133D01*
G01X6586437Y-1627133D01*
G01X6640031Y-1598431D02*
G01X6634189Y-1604273D01*
G01X6640031Y-1609861D01*
G01X6645619Y-1604273D01*
G01X6640031Y-1598431D01*
G01X6727661Y-1506991D02*
G01X6710643Y-1512833D01*
G01X6699213Y-1529851D01*
G01X6693371Y-1558553D01*
G01X6693371Y-1575571D01*
G01X6699213Y-1604273D01*
G01X6710643Y-1621291D01*
G01X6727661Y-1627133D01*
G01X6739091Y-1627133D01*
G01X6756363Y-1621291D01*
G01X6767793Y-1604273D01*
G01X6773381Y-1575571D01*
G01X6773381Y-1558553D01*
G01X6767793Y-1529851D01*
G01X6756363Y-1512833D01*
G01X6739091Y-1506991D01*
G01X6727661Y-1506991D01*
G01X6821133Y-1547123D02*
G01X6821133Y-1627133D01*
G01X6821133Y-1569983D02*
G01X6838405Y-1552711D01*
G01X6849835Y-1547123D01*
G01X6866853Y-1547123D01*
G01X6878283Y-1552711D01*
G01X6884125Y-1569983D01*
G01X6884125Y-1627133D01*
G01X6884125Y-1569983D02*
G01X6901143Y-1552711D01*
G01X6912573Y-1547123D01*
G01X6929845Y-1547123D01*
G01X6941275Y-1552711D01*
G01X6946863Y-1569983D01*
G01X6946863Y-1627133D01*
G01X6994615Y-1506991D02*
G01X7000457Y-1512833D01*
G01X7006045Y-1506991D01*
G01X7000457Y-1501403D01*
G01X6994615Y-1506991D01*
G01X7000457Y-1547123D02*
G01X7000457Y-1627133D01*
G01X7053797Y-1506991D02*
G01X7053797Y-1627133D01*
G01X7141681Y-1484131D02*
G01X7130251Y-1495561D01*
G01X7118821Y-1512833D01*
G01X7107391Y-1535693D01*
G01X7101549Y-1564141D01*
G01X7101549Y-1587001D01*
G01X7107391Y-1615703D01*
G01X7118821Y-1638563D01*
G01X7130251Y-1655581D01*
G01X7141681Y-1667011D01*
G01X7223723Y-1506991D02*
G01X7206705Y-1512833D01*
G01X7195275Y-1529851D01*
G01X7189433Y-1558553D01*
G01X7189433Y-1575571D01*
G01X7195275Y-1604273D01*
G01X7206705Y-1621291D01*
G01X7223723Y-1627133D01*
G01X7235153Y-1627133D01*
G01X7252425Y-1621291D01*
G01X7263855Y-1604273D01*
G01X7269443Y-1575571D01*
G01X7269443Y-1558553D01*
G01X7263855Y-1529851D01*
G01X7252425Y-1512833D01*
G01X7235153Y-1506991D01*
G01X7223723Y-1506991D01*
G01X7323037Y-1598431D02*
G01X7317195Y-1604273D01*
G01X7323037Y-1609861D01*
G01X7328625Y-1604273D01*
G01X7323037Y-1598431D01*
G01X7387807Y-1506991D02*
G01X7450799Y-1506991D01*
G01X7416509Y-1552711D01*
G01X7433527Y-1552711D01*
G01X7444957Y-1558553D01*
G01X7450799Y-1564141D01*
G01X7456387Y-1581413D01*
G01X7456387Y-1592843D01*
G01X7450799Y-1609861D01*
G01X7439369Y-1621291D01*
G01X7422097Y-1627133D01*
G01X7405079Y-1627133D01*
G01X7387807Y-1621291D01*
G01X7382219Y-1615703D01*
G01X7376377Y-1604273D01*
G01X7538429Y-1506991D02*
G01X7521411Y-1512833D01*
G01X7509981Y-1529851D01*
G01X7504139Y-1558553D01*
G01X7504139Y-1575571D01*
G01X7509981Y-1604273D01*
G01X7521411Y-1621291D01*
G01X7538429Y-1627133D01*
G01X7549859Y-1627133D01*
G01X7567131Y-1621291D01*
G01X7578561Y-1604273D01*
G01X7584149Y-1575571D01*
G01X7584149Y-1558553D01*
G01X7578561Y-1529851D01*
G01X7567131Y-1512833D01*
G01X7549859Y-1506991D01*
G01X7538429Y-1506991D01*
G01X7700481Y-1506991D02*
G01X7643331Y-1506991D01*
G01X7637743Y-1558553D01*
G01X7643331Y-1552711D01*
G01X7660603Y-1547123D01*
G01X7677621Y-1547123D01*
G01X7694893Y-1552711D01*
G01X7706323Y-1564141D01*
G01X7711911Y-1581413D01*
G01X7711911Y-1592843D01*
G01X7706323Y-1609861D01*
G01X7694893Y-1621291D01*
G01X7677621Y-1627133D01*
G01X7660603Y-1627133D01*
G01X7643331Y-1621291D01*
G01X7637743Y-1615703D01*
G01X7631901Y-1604273D01*
G01X7759663Y-1547123D02*
G01X7759663Y-1627133D01*
G01X7759663Y-1569983D02*
G01X7776935Y-1552711D01*
G01X7788365Y-1547123D01*
G01X7805383Y-1547123D01*
G01X7816813Y-1552711D01*
G01X7822655Y-1569983D01*
G01X7822655Y-1627133D01*
G01X7822655Y-1569983D02*
G01X7839673Y-1552711D01*
G01X7851103Y-1547123D01*
G01X7868375Y-1547123D01*
G01X7879805Y-1552711D01*
G01X7885393Y-1569983D01*
G01X7885393Y-1627133D01*
G01X7933145Y-1547123D02*
G01X7933145Y-1627133D01*
G01X7933145Y-1569983D02*
G01X7950417Y-1552711D01*
G01X7961847Y-1547123D01*
G01X7978865Y-1547123D01*
G01X7990295Y-1552711D01*
G01X7996137Y-1569983D01*
G01X7996137Y-1627133D01*
G01X7996137Y-1569983D02*
G01X8013155Y-1552711D01*
G01X8024585Y-1547123D01*
G01X8041857Y-1547123D01*
G01X8053287Y-1552711D01*
G01X8058875Y-1569983D01*
G01X8058875Y-1627133D01*
G01X8106627Y-1484131D02*
G01X8118057Y-1495561D01*
G01X8129487Y-1512833D01*
G01X8140917Y-1535693D01*
G01X8146759Y-1564141D01*
G01X8146759Y-1587001D01*
G01X8140917Y-1615703D01*
G01X8129487Y-1638563D01*
G01X8118057Y-1655581D01*
G01X8106627Y-1667011D01*
G01X10323430Y-1506991D02*
G01X10323430Y-1627133D01*
G01X10323430Y-1506991D02*
G01X10374992Y-1506991D01*
G01X10392010Y-1512833D01*
G01X10397852Y-1518421D01*
G01X10403440Y-1529851D01*
G01X10403440Y-1547123D01*
G01X10397852Y-1558553D01*
G01X10392010Y-1564141D01*
G01X10374992Y-1569983D01*
G01X10323430Y-1569983D01*
G01X10491324Y-1506991D02*
G01X10491324Y-1627133D01*
G01X10451192Y-1506991D02*
G01X10531202Y-1506991D01*
G01X10578954Y-1506991D02*
G01X10578954Y-1627133D01*
G01X10658964Y-1506991D02*
G01X10658964Y-1627133D01*
G01X10578954Y-1564141D02*
G01X10658964Y-1564141D01*
G01X11784837Y-1506991D02*
G01X11784837Y-1627133D01*
G01X11784837Y-1506991D02*
G01X11836399Y-1506991D01*
G01X11853417Y-1512833D01*
G01X11859259Y-1518421D01*
G01X11864847Y-1529851D01*
G01X11864847Y-1541281D01*
G01X11859259Y-1552711D01*
G01X11853417Y-1558553D01*
G01X11836399Y-1564141D01*
G01X11784837Y-1564141D01*
G01X11824969Y-1564141D02*
G01X11864847Y-1627133D01*
G01X11941301Y-1547123D02*
G01X11929871Y-1552711D01*
G01X11918441Y-1564141D01*
G01X11912599Y-1581413D01*
G01X11912599Y-1592843D01*
G01X11918441Y-1609861D01*
G01X11929871Y-1621291D01*
G01X11941301Y-1627133D01*
G01X11958319Y-1627133D01*
G01X11969749Y-1621291D01*
G01X11981179Y-1609861D01*
G01X11987021Y-1592843D01*
G01X11987021Y-1581413D01*
G01X11981179Y-1564141D01*
G01X11969749Y-1552711D01*
G01X11958319Y-1547123D01*
G01X11941301Y-1547123D01*
G01X12034773Y-1547123D02*
G01X12034773Y-1604273D01*
G01X12040615Y-1621291D01*
G01X12052045Y-1627133D01*
G01X12069063Y-1627133D01*
G01X12080493Y-1621291D01*
G01X12097765Y-1604273D01*
G01X12097765Y-1547123D02*
G01X12097765Y-1627133D01*
G01X12145517Y-1547123D02*
G01X12145517Y-1627133D01*
G01X12145517Y-1569983D02*
G01X12162789Y-1552711D01*
G01X12174219Y-1547123D01*
G01X12191237Y-1547123D01*
G01X12202667Y-1552711D01*
G01X12208509Y-1569983D01*
G01X12208509Y-1627133D01*
G01X12324841Y-1506991D02*
G01X12324841Y-1627133D01*
G01X12324841Y-1564141D02*
G01X12313411Y-1552711D01*
G01X12301981Y-1547123D01*
G01X12284963Y-1547123D01*
G01X12273533Y-1552711D01*
G01X12262103Y-1564141D01*
G01X12256261Y-1581413D01*
G01X12256261Y-1592843D01*
G01X12262103Y-1609861D01*
G01X12273533Y-1621291D01*
G01X12284963Y-1627133D01*
G01X12301981Y-1627133D01*
G01X12313411Y-1621291D01*
G01X12324841Y-1609861D01*
G01X13216018Y-1506991D02*
G01X13261738Y-1627133D01*
G01X13307458Y-1506991D02*
G01X13261738Y-1627133D01*
G01X13355210Y-1506991D02*
G01X13361052Y-1512833D01*
G01X13366640Y-1506991D01*
G01X13361052Y-1501403D01*
G01X13355210Y-1506991D01*
G01X13361052Y-1547123D02*
G01X13361052Y-1627133D01*
G01X13482972Y-1547123D02*
G01X13482972Y-1627133D01*
G01X13482972Y-1564141D02*
G01X13471542Y-1552711D01*
G01X13460112Y-1547123D01*
G01X13443094Y-1547123D01*
G01X13431664Y-1552711D01*
G01X13420234Y-1564141D01*
G01X13414392Y-1581413D01*
G01X13414392Y-1592843D01*
G01X13420234Y-1609861D01*
G01X13431664Y-1621291D01*
G01X13443094Y-1627133D01*
G01X13460112Y-1627133D01*
G01X13471542Y-1621291D01*
G01X13482972Y-1609861D01*
G01X16844698Y-1506991D02*
G01X16844698Y-1627133D01*
G01X16804566Y-1506991D02*
G01X16884576Y-1506991D01*
G01X16961030Y-1547123D02*
G01X16949600Y-1552711D01*
G01X16938170Y-1564141D01*
G01X16932328Y-1581413D01*
G01X16932328Y-1592843D01*
G01X16938170Y-1609861D01*
G01X16949600Y-1621291D01*
G01X16961030Y-1627133D01*
G01X16978048Y-1627133D01*
G01X16989478Y-1621291D01*
G01X17000908Y-1609861D01*
G01X17006750Y-1592843D01*
G01X17006750Y-1581413D01*
G01X17000908Y-1564141D01*
G01X16989478Y-1552711D01*
G01X16978048Y-1547123D01*
G01X16961030Y-1547123D01*
G01X17054502Y-1547123D02*
G01X17054502Y-1667011D01*
G01X17054502Y-1564141D02*
G01X17065932Y-1552711D01*
G01X17077362Y-1547123D01*
G01X17094634Y-1547123D01*
G01X17106064Y-1552711D01*
G01X17117494Y-1564141D01*
G01X17123082Y-1581413D01*
G01X17123082Y-1592843D01*
G01X17117494Y-1609861D01*
G01X17106064Y-1621291D01*
G01X17094634Y-1627133D01*
G01X17077362Y-1627133D01*
G01X17065932Y-1621291D01*
G01X17054502Y-1609861D01*
G01X17298850Y-1506991D02*
G01X17298850Y-1627133D01*
G01X17298850Y-1627133D02*
G01X17367430Y-1627133D01*
G01X17483762Y-1547123D02*
G01X17483762Y-1627133D01*
G01X17483762Y-1564141D02*
G01X17472332Y-1552711D01*
G01X17460902Y-1547123D01*
G01X17443884Y-1547123D01*
G01X17432454Y-1552711D01*
G01X17421024Y-1564141D01*
G01X17415182Y-1581413D01*
G01X17415182Y-1592843D01*
G01X17421024Y-1609861D01*
G01X17432454Y-1621291D01*
G01X17443884Y-1627133D01*
G01X17460902Y-1627133D01*
G01X17472332Y-1621291D01*
G01X17483762Y-1609861D01*
G01X17537356Y-1547123D02*
G01X17571646Y-1627133D01*
G01X17605936Y-1547123D02*
G01X17571646Y-1627133D01*
G01X17560216Y-1649993D01*
G01X17548786Y-1661423D01*
G01X17537356Y-1667011D01*
G01X17531514Y-1667011D01*
G01X17653688Y-1581413D02*
G01X17722268Y-1581413D01*
G01X17722268Y-1569983D01*
G01X17716680Y-1558553D01*
G01X17710838Y-1552711D01*
G01X17699408Y-1547123D01*
G01X17682390Y-1547123D01*
G01X17670960Y-1552711D01*
G01X17659530Y-1564141D01*
G01X17653688Y-1581413D01*
G01X17653688Y-1592843D01*
G01X17659530Y-1609861D01*
G01X17670960Y-1621291D01*
G01X17682390Y-1627133D01*
G01X17699408Y-1627133D01*
G01X17710838Y-1621291D01*
G01X17722268Y-1609861D01*
G01X17770020Y-1547123D02*
G01X17770020Y-1627133D01*
G01X17770020Y-1581413D02*
G01X17775862Y-1564141D01*
G01X17787292Y-1552711D01*
G01X17798722Y-1547123D01*
G01X17815740Y-1547123D01*
G01X17863492Y-1575571D02*
G01X17966362Y-1575571D01*
G01X18014114Y-1506991D02*
G01X18014114Y-1627133D01*
G01X18014114Y-1506991D02*
G01X18065676Y-1506991D01*
G01X18082694Y-1512833D01*
G01X18088536Y-1518421D01*
G01X18094124Y-1529851D01*
G01X18094124Y-1541281D01*
G01X18088536Y-1552711D01*
G01X18082694Y-1558553D01*
G01X18065676Y-1564141D01*
G01X18014114Y-1564141D02*
G01X18065676Y-1564141D01*
G01X18082694Y-1569983D01*
G01X18088536Y-1575571D01*
G01X18094124Y-1587001D01*
G01X18094124Y-1604273D01*
G01X18088536Y-1615703D01*
G01X18082694Y-1621291D01*
G01X18065676Y-1627133D01*
G01X18014114Y-1627133D01*
G01X18170578Y-1547123D02*
G01X18159148Y-1552711D01*
G01X18147718Y-1564141D01*
G01X18141876Y-1581413D01*
G01X18141876Y-1592843D01*
G01X18147718Y-1609861D01*
G01X18159148Y-1621291D01*
G01X18170578Y-1627133D01*
G01X18187596Y-1627133D01*
G01X18199026Y-1621291D01*
G01X18210456Y-1609861D01*
G01X18216298Y-1592843D01*
G01X18216298Y-1581413D01*
G01X18210456Y-1564141D01*
G01X18199026Y-1552711D01*
G01X18187596Y-1547123D01*
G01X18170578Y-1547123D01*
G01X18281322Y-1506991D02*
G01X18281322Y-1604273D01*
G01X18286910Y-1621291D01*
G01X18298340Y-1627133D01*
G01X18309770Y-1627133D01*
G01X18264050Y-1547123D02*
G01X18304182Y-1547123D01*
G01X18374794Y-1506991D02*
G01X18374794Y-1604273D01*
G01X18380382Y-1621291D01*
G01X18391812Y-1627133D01*
G01X18403242Y-1627133D01*
G01X18357522Y-1547123D02*
G01X18397654Y-1547123D01*
G01X18479696Y-1547123D02*
G01X18468266Y-1552711D01*
G01X18456836Y-1564141D01*
G01X18450994Y-1581413D01*
G01X18450994Y-1592843D01*
G01X18456836Y-1609861D01*
G01X18468266Y-1621291D01*
G01X18479696Y-1627133D01*
G01X18496714Y-1627133D01*
G01X18508144Y-1621291D01*
G01X18519574Y-1609861D01*
G01X18525416Y-1592843D01*
G01X18525416Y-1581413D01*
G01X18519574Y-1564141D01*
G01X18508144Y-1552711D01*
G01X18496714Y-1547123D01*
G01X18479696Y-1547123D01*
G01X18573168Y-1547123D02*
G01X18573168Y-1627133D01*
G01X18573168Y-1569983D02*
G01X18590440Y-1552711D01*
G01X18601870Y-1547123D01*
G01X18618888Y-1547123D01*
G01X18630318Y-1552711D01*
G01X18636160Y-1569983D01*
G01X18636160Y-1627133D01*
G01X18636160Y-1569983D02*
G01X18653178Y-1552711D01*
G01X18664608Y-1547123D01*
G01X18681880Y-1547123D01*
G01X18693310Y-1552711D01*
G01X18698898Y-1569983D01*
G01X18698898Y-1627133D01*
G01X18874666Y-1506991D02*
G01X18874666Y-1627133D01*
G01X18874666Y-1627133D02*
G01X18943246Y-1627133D01*
G01X19059578Y-1547123D02*
G01X19059578Y-1627133D01*
G01X19059578Y-1564141D02*
G01X19048148Y-1552711D01*
G01X19036718Y-1547123D01*
G01X19019700Y-1547123D01*
G01X19008270Y-1552711D01*
G01X18996840Y-1564141D01*
G01X18990998Y-1581413D01*
G01X18990998Y-1592843D01*
G01X18996840Y-1609861D01*
G01X19008270Y-1621291D01*
G01X19019700Y-1627133D01*
G01X19036718Y-1627133D01*
G01X19048148Y-1621291D01*
G01X19059578Y-1609861D01*
G01X19113172Y-1547123D02*
G01X19147462Y-1627133D01*
G01X19181752Y-1547123D02*
G01X19147462Y-1627133D01*
G01X19136032Y-1649993D01*
G01X19124602Y-1661423D01*
G01X19113172Y-1667011D01*
G01X19107330Y-1667011D01*
G01X19229504Y-1581413D02*
G01X19298084Y-1581413D01*
G01X19298084Y-1569983D01*
G01X19292496Y-1558553D01*
G01X19286654Y-1552711D01*
G01X19275224Y-1547123D01*
G01X19258206Y-1547123D01*
G01X19246776Y-1552711D01*
G01X19235346Y-1564141D01*
G01X19229504Y-1581413D01*
G01X19229504Y-1592843D01*
G01X19235346Y-1609861D01*
G01X19246776Y-1621291D01*
G01X19258206Y-1627133D01*
G01X19275224Y-1627133D01*
G01X19286654Y-1621291D01*
G01X19298084Y-1609861D01*
G01X19345836Y-1547123D02*
G01X19345836Y-1627133D01*
G01X19345836Y-1581413D02*
G01X19351678Y-1564141D01*
G01X19363108Y-1552711D01*
G01X19374538Y-1547123D01*
G01X19391556Y-1547123D01*

G04 Image Start*
G36*
G01X3851198Y-1687603D02*
G01X3745585Y-1676122D01*
G01X3702709Y-1773328D01*
G01X3659834Y-1676122D01*
G01X3554221Y-1687603D01*
G01X3616984Y-1601878D01*
G01X3577262Y-1547623D01*
G01X3608755Y-1547623D01*
G01X3648455Y-1601878D01*
G01X3608755Y-1656132D01*
G01X3675582Y-1648868D01*
G01X3675582Y-1648868D01*
G01X3702709Y-1710361D01*
G01X3729837Y-1648868D01*
G01X3796664Y-1656132D01*
G01X3756964Y-1601878D01*
G01X3796639Y-1547649D01*
G01X3729811Y-1554913D01*
G01X3702709Y-1493394D01*
G01X3675582Y-1554888D01*
G01X3608755Y-1547623D01*
G01X3577262Y-1547623D01*
G01X3554221Y-1516153D01*
G01X3659860Y-1527634D01*
G01X3702709Y-1430428D01*
G01X3745585Y-1527634D01*
G01X3851198Y-1516153D01*
G01X3788434Y-1601878D01*
G01X3851198Y-1687603D01*
G37*
G36*
G01X3722204Y-573298D02*
G01X3714464Y-573887D01*
G01X3706621Y-574085D01*
G01X3698778Y-573887D01*
G01X3691038Y-573298D01*
G01X3683410Y-572329D01*
G01X3675905Y-570989D01*
G01X3661299Y-567234D01*
G01X3647297Y-562110D01*
G01X3633975Y-555693D01*
G01X3621409Y-548059D01*
G01X3609677Y-539287D01*
G01X3598855Y-529451D01*
G01X3589019Y-518629D01*
G01X3580247Y-506897D01*
G01X3572613Y-494331D01*
G01X3566196Y-481009D01*
G01X3561072Y-467007D01*
G01X3557317Y-452401D01*
G01X3555977Y-444896D01*
G01X3555008Y-437268D01*
G01X3554419Y-429528D01*
G01X3554221Y-421685D01*
G01X3579621Y-421685D01*
G01X3580278Y-434651D01*
G01X3582206Y-447248D01*
G01X3585340Y-459409D01*
G01X3589617Y-471072D01*
G01X3594972Y-482171D01*
G01X3601340Y-492643D01*
G01X3608658Y-502422D01*
G01X3616861Y-511445D01*
G01X3625884Y-519648D01*
G01X3635663Y-526966D01*
G01X3646135Y-533334D01*
G01X3657234Y-538689D01*
G01X3668897Y-542966D01*
G01X3681058Y-546100D01*
G01X3681058Y-546100D01*
G01X3693654Y-548028D01*
G01X3706621Y-548685D01*
G01X3719587Y-548028D01*
G01X3732184Y-546100D01*
G01X3744345Y-542966D01*
G01X3756008Y-538689D01*
G01X3767107Y-533334D01*
G01X3777578Y-526966D01*
G01X3787358Y-519648D01*
G01X3796381Y-511445D01*
G01X3804584Y-502422D01*
G01X3811902Y-492643D01*
G01X3818270Y-482171D01*
G01X3823625Y-471072D01*
G01X3827902Y-459409D01*
G01X3831036Y-447248D01*
G01X3832964Y-434651D01*
G01X3833621Y-421685D01*
G01X3832964Y-408718D01*
G01X3831036Y-396122D01*
G01X3827902Y-383961D01*
G01X3823625Y-372298D01*
G01X3818270Y-361199D01*
G01X3811902Y-350727D01*
G01X3804584Y-340948D01*
G01X3796381Y-331925D01*
G01X3787358Y-323722D01*
G01X3777578Y-316404D01*
G01X3767107Y-310036D01*
G01X3756008Y-304681D01*
G01X3744345Y-300404D01*
G01X3732184Y-297270D01*
G01X3719587Y-295342D01*
G01X3706621Y-294685D01*
G01X3693654Y-295342D01*
G01X3681058Y-297270D01*
G01X3668897Y-300404D01*
G01X3657234Y-304681D01*
G01X3646135Y-310036D01*
G01X3635663Y-316404D01*
G01X3625884Y-323722D01*
G01X3616861Y-331925D01*
G01X3608658Y-340948D01*
G01X3601340Y-350727D01*
G01X3594972Y-361199D01*
G01X3589617Y-372298D01*
G01X3585340Y-383961D01*
G01X3582206Y-396122D01*
G01X3580278Y-408718D01*
G01X3579621Y-421685D01*
G01X3554221Y-421685D01*
G01X3554419Y-413842D01*
G01X3555008Y-406102D01*
G01X3555977Y-398474D01*
G01X3557317Y-390969D01*
G01X3561072Y-376363D01*
G01X3566196Y-362361D01*
G01X3572613Y-349039D01*
G01X3580247Y-336473D01*
G01X3589019Y-324741D01*
G01X3598855Y-313919D01*
G01X3609677Y-304083D01*
G01X3621409Y-295311D01*
G01X3633975Y-287677D01*
G01X3647297Y-281260D01*
G01X3661299Y-276136D01*
G01X3675905Y-272381D01*
G01X3683410Y-271041D01*
G01X3691038Y-270072D01*
G01X3698778Y-269483D01*
G01X3706621Y-269285D01*
G01X3714464Y-269483D01*
G01X3722204Y-270072D01*
G01X3729832Y-271041D01*
G01X3737337Y-272381D01*
G01X3751943Y-276136D01*
G01X3765945Y-281260D01*
G01X3779267Y-287677D01*
G01X3791832Y-295311D01*
G01X3803565Y-304083D01*
G01X3814387Y-313919D01*
G01X3824223Y-324741D01*
G01X3832995Y-336473D01*
G01X3840629Y-349039D01*
G01X3847046Y-362361D01*
G01X3852170Y-376363D01*
G01X3855925Y-390969D01*
G01X3857265Y-398474D01*
G01X3858234Y-406102D01*
G01X3858823Y-413842D01*
G01X3859021Y-421685D01*
G01X3858823Y-429528D01*
G01X3858234Y-437268D01*
G01X3857265Y-444896D01*
G01X3855925Y-452401D01*
G01X3852170Y-467007D01*
G01X3847046Y-481009D01*
G01X3840629Y-494331D01*
G01X3832995Y-506897D01*
G01X3824223Y-518629D01*
G01X3814387Y-529451D01*
G01X3803565Y-539287D01*
G01X3791832Y-548059D01*
G01X3779267Y-555693D01*
G01X3765945Y-562110D01*
G01X3751943Y-567234D01*
G01X3737337Y-570989D01*
G01X3729832Y-572329D01*
G01X3722204Y-573298D01*
G37*
G36*
G01X3554221Y-849856D02*
G01X3859021Y-849856D01*
G01X3706621Y-1113813D01*
G01X3568886Y-875256D01*
G01X3598214Y-875256D01*
G01X3706621Y-1063013D01*
G01X3815028Y-875256D01*
G01X3815028Y-875256D01*
G01X3598214Y-875256D01*
G01X3568886Y-875256D01*
G01X3554221Y-849856D01*
G37*
G36*
G01X3554221Y311286D02*
G01X3833621Y311286D01*
G01X3833621Y31886D01*
G01X3554221Y31886D01*
G01X3554221Y285886D01*
G01X3579621Y285886D01*
G01X3579621Y57286D01*
G01X3808221Y57286D01*
G01X3808221Y285886D01*
G01X3808221Y285886D01*
G01X3579621Y285886D01*
G01X3554221Y285886D01*
G01X3554221Y311286D01*
G37*

G04 PolygonModel Start*
G54D15*
G01X3263935Y-1865856D02*
G01X19982288Y-1865856D01*
G01X3263935Y-1285285D02*
G01X19982288Y-1285285D01*
G01X3263935Y-704714D02*
G01X19982288Y-704714D01*
G01X3263935Y-124142D02*
G01X19982288Y-124142D01*
G01X3263935Y456429D02*
G01X19982288Y456429D01*
G01X3263935Y1037001D02*
G01X19982288Y1037001D01*
G01X3263935Y1037001D02*
G01X3263935Y-1840456D01*
G01X4715364Y1037001D02*
G01X4715364Y-1840456D01*
G01X6129527Y1037001D02*
G01X6129527Y-1840456D01*
G01X10022984Y1037001D02*
G01X10022984Y-1840456D01*
G01X11484391Y1037001D02*
G01X11484391Y-1840456D01*
G01X12915572Y1037001D02*
G01X12915572Y-1840456D01*
G01X14584752Y1037001D02*
G01X14584752Y-1840456D01*
G01X16504121Y1037001D02*
G01X16504121Y-1840456D01*
G01X19982288Y1037001D02*
G01X19982288Y-1840456D01*

M02*

