G04 Layer: TopPasteMaskLayer*
G04 EasyEDA Pro v3.2.135, 2026-06-11 10:07:19*
G04 Gerber Generator version 0.3*
G04 Scale: 100 percent, Rotated: No, Reflected: No*
G04 Dimensions in millimeters*
G04 Leading zeros omitted, absolute positions, 4 integers and 5 decimals*
G04 Generated by one-click*
G04 Object Configs: Pad,Via,Track,Text,Image,Dimension,BoardOutline,BoardCutout,CopperFilled,SolidRegion,FPCStiffener,Line,PlaneZone,ComponentProperty,ComponentSilkscreen,TearDrop*
G04 Layer Configs: 1,2,3,4,5,6,7,8,9,10,11,13,14,56*
G04 Copper Areas: 0*
%FSLAX45Y45*%
%MOMM*%
%ADD10R,2.49999X1.2*%
%ADD11R,1.7X0.5*%
%ADD12C,0.4715*%
G75*


G04 PolygonModel Start*
G36*
G01X-635001Y-599502D02*
G01X-640003Y-604501D01*
G01X-720002Y-604501D01*
G01X-725001Y-599502D01*
G01X-725001Y-519502D01*
G01X-720002Y-514501D01*
G01X-695799Y-514501D01*
G01X-695799Y-551501D01*
G01X-662799Y-551501D01*
G01X-662799Y-514501D01*
G01X-640003Y-514501D01*
G01X-635001Y-519502D01*
G01X-635001Y-599502D01*
G37*
G36*
G01X-640003Y-444501D02*
G01X-662799Y-444501D01*
G01X-662799Y-406503D01*
G01X-695799Y-406503D01*
G01X-695799Y-444501D01*
G01X-720002Y-444501D01*
G01X-725001Y-439502D01*
G01X-725001Y-360503D01*
G01X-720002Y-355502D01*
G01X-640003Y-355502D01*
G01X-635001Y-360503D01*
G01X-635001Y-439502D01*
G01X-640003Y-444501D01*
G37*
G36*
G01X724999Y-599502D02*
G01X719997Y-604501D01*
G01X639997Y-604501D01*
G01X634999Y-599502D01*
G01X634999Y-519502D01*
G01X639997Y-514501D01*
G01X664201Y-514501D01*
G01X664201Y-551501D01*
G01X697201Y-551501D01*
G01X697201Y-514501D01*
G01X719997Y-514501D01*
G01X724999Y-519502D01*
G01X724999Y-599502D01*
G37*
G36*
G01X719997Y-444501D02*
G01X697201Y-444501D01*
G01X697201Y-406503D01*
G01X664201Y-406503D01*
G01X664201Y-444501D01*
G01X639997Y-444501D01*
G01X634999Y-439502D01*
G01X634999Y-360503D01*
G01X639997Y-355502D01*
G01X719997Y-355502D01*
G01X724999Y-360503D01*
G01X724999Y-439502D01*
G01X719997Y-444501D01*
G37*
G36*
G01X234926Y-170119D02*
G01X314926Y-170119D01*
G01X314926Y-330119D01*
G01X234926Y-330119D01*
G01X234926Y-170119D01*
G37*
G36*
G01X84934Y-330121D02*
G01X14934Y-330121D01*
G01X14934Y-170122D01*
G01X84934Y-170122D01*
G01X84934Y-330121D01*
G37*
G36*
G01X113941Y-170122D02*
G01X189940Y-170122D01*
G01X189940Y-330121D01*
G01X113941Y-330121D01*
G01X113941Y-170122D01*
G37*
G36*
G01X-85066Y-170122D02*
G01X-15066Y-170122D01*
G01X-15066Y-330121D01*
G01X-85066Y-330121D01*
G01X-85066Y-170122D01*
G37*
G36*
G01X-235060Y-330121D02*
G01X-315060Y-330121D01*
G01X-315060Y-170122D01*
G01X-235060Y-170122D01*
G01X-235060Y-330121D01*
G37*
G36*
G01X-114073Y-330121D02*
G01X-190072Y-330121D01*
G01X-190072Y-170122D01*
G01X-114073Y-170122D01*
G01X-114073Y-330121D01*
G37*
G36*
G01X-433305Y-210055D02*
G01X-430811Y-210055D01*
G01X-428321Y-210180D01*
G01X-425840Y-210429D01*
G01X-423376Y-210800D01*
G01X-420933Y-211295D01*
G01X-418517Y-211910D01*
G01X-416135Y-212644D01*
G01X-413790Y-213497D01*
G01X-411494Y-214465D01*
G01X-409246Y-215547D01*
G01X-407057Y-216738D01*
G01X-404931Y-218039D01*
G01X-402871Y-219443D01*
G01X-400884Y-220950D01*
G01X-398974Y-222552D01*
G01X-397146Y-224246D01*
G01X-395406Y-226032D01*
G01X-393755Y-227901D01*
G01X-392200Y-229850D01*
G01X-390745Y-231874D01*
G01X-389393Y-233970D01*
G01X-388146Y-236129D01*
G01X-387008Y-238346D01*
G01X-385985Y-240619D01*
G01X-385073Y-242938D01*
G01X-384280Y-245303D01*
G01X-383605Y-247703D01*
G01X-383049Y-250132D01*
G01X-382617Y-252588D01*
G01X-382307Y-255062D01*
G01X-382119Y-257548D01*
G01X-382058Y-260040D01*
G01X-382058Y-330040D01*
G01X-382119Y-332532D01*
G01X-382307Y-335018D01*
G01X-382617Y-337492D01*
G01X-383049Y-339949D01*
G01X-383605Y-342377D01*
G01X-384280Y-344777D01*
G01X-385073Y-347142D01*
G01X-385985Y-349461D01*
G01X-387008Y-351734D01*
G01X-388146Y-353952D01*
G01X-389393Y-356111D01*
G01X-390745Y-358206D01*
G01X-392200Y-360230D01*
G01X-393755Y-362179D01*
G01X-395406Y-364048D01*
G01X-397146Y-365834D01*
G01X-398974Y-367528D01*
G01X-400884Y-369131D01*
G01X-402871Y-370637D01*
G01X-404931Y-372041D01*
G01X-407057Y-373342D01*
G01X-409246Y-374533D01*
G01X-411494Y-375615D01*
G01X-413790Y-376583D01*
G01X-416135Y-377436D01*
G01X-418517Y-378170D01*
G01X-420933Y-378785D01*
G01X-423376Y-379280D01*
G01X-425840Y-379651D01*
G01X-428321Y-379900D01*
G01X-430811Y-380025D01*
G01X-433305Y-380025D01*
G01X-435794Y-379900D01*
G01X-438276Y-379651D01*
G01X-440740Y-379280D01*
G01X-443183Y-378785D01*
G01X-445599Y-378170D01*
G01X-447981Y-377436D01*
G01X-450325Y-376583D01*
G01X-452622Y-375615D01*
G01X-454870Y-374533D01*
G01X-457056Y-373342D01*
G01X-459185Y-372041D01*
G01X-461245Y-370637D01*
G01X-463231Y-369131D01*
G01X-465141Y-367528D01*
G01X-466970Y-365834D01*
G01X-468710Y-364048D01*
G01X-470361Y-362179D01*
G01X-471915Y-360230D01*
G01X-473371Y-358206D01*
G01X-474722Y-356111D01*
G01X-475969Y-353952D01*
G01X-477107Y-351734D01*
G01X-478131Y-349461D01*
G01X-479043Y-347142D01*
G01X-479835Y-344777D01*
G01X-480511Y-342377D01*
G01X-481067Y-339949D01*
G01X-481499Y-337492D01*
G01X-481809Y-335018D01*
G01X-481997Y-332532D01*
G01X-482058Y-330040D01*
G01X-482058Y-260040D01*
G01X-481997Y-257548D01*
G01X-481809Y-255062D01*
G01X-481499Y-252588D01*
G01X-481067Y-250132D01*
G01X-480511Y-247703D01*
G01X-479835Y-245303D01*
G01X-479043Y-242938D01*
G01X-478131Y-240619D01*
G01X-477107Y-238346D01*
G01X-475969Y-236129D01*
G01X-474722Y-233970D01*
G01X-473371Y-231874D01*
G01X-471915Y-229850D01*
G01X-470361Y-227901D01*
G01X-468710Y-226032D01*
G01X-466970Y-224246D01*
G01X-465141Y-222552D01*
G01X-463231Y-220950D01*
G01X-461245Y-219443D01*
G01X-459185Y-218039D01*
G01X-457056Y-216738D01*
G01X-454870Y-215547D01*
G01X-452622Y-214465D01*
G01X-450325Y-213497D01*
G01X-447981Y-212644D01*
G01X-445599Y-211910D01*
G01X-443183Y-211295D01*
G01X-440740Y-210800D01*
G01X-438276Y-210429D01*
G01X-435794Y-210180D01*
G01X-433305Y-210055D01*
G37*
G36*
G01X430676Y-210055D02*
G01X433170Y-210055D01*
G01X435660Y-210180D01*
G01X438141Y-210429D01*
G01X440605Y-210800D01*
G01X443048Y-211295D01*
G01X445464Y-211910D01*
G01X447846Y-212644D01*
G01X450191Y-213497D01*
G01X452487Y-214465D01*
G01X454735Y-215547D01*
G01X456924Y-216738D01*
G01X459050Y-218039D01*
G01X461110Y-219443D01*
G01X463097Y-220950D01*
G01X465007Y-222552D01*
G01X466835Y-224246D01*
G01X468575Y-226032D01*
G01X470226Y-227901D01*
G01X471781Y-229850D01*
G01X473236Y-231874D01*
G01X474588Y-233970D01*
G01X475835Y-236129D01*
G01X476973Y-238346D01*
G01X477996Y-240619D01*
G01X478908Y-242938D01*
G01X479701Y-245303D01*
G01X480376Y-247703D01*
G01X480932Y-250132D01*
G01X481364Y-252588D01*
G01X481674Y-255062D01*
G01X481862Y-257548D01*
G01X481923Y-260040D01*
G01X481923Y-330040D01*
G01X481862Y-332532D01*
G01X481674Y-335018D01*
G01X481364Y-337492D01*
G01X480932Y-339949D01*
G01X480376Y-342377D01*
G01X479701Y-344777D01*
G01X478908Y-347142D01*
G01X477996Y-349461D01*
G01X476973Y-351734D01*
G01X475835Y-353952D01*
G01X474588Y-356111D01*
G01X473236Y-358206D01*
G01X471781Y-360230D01*
G01X470226Y-362179D01*
G01X468575Y-364048D01*
G01X466835Y-365834D01*
G01X465007Y-367528D01*
G01X463097Y-369131D01*
G01X461110Y-370637D01*
G01X459050Y-372041D01*
G01X456924Y-373342D01*
G01X454735Y-374533D01*
G01X452487Y-375615D01*
G01X450191Y-376583D01*
G01X447846Y-377436D01*
G01X445464Y-378170D01*
G01X443048Y-378785D01*
G01X440605Y-379280D01*
G01X438141Y-379651D01*
G01X435660Y-379900D01*
G01X433170Y-380025D01*
G01X430676Y-380025D01*
G01X428187Y-379900D01*
G01X425705Y-379651D01*
G01X423241Y-379280D01*
G01X420798Y-378785D01*
G01X418382Y-378170D01*
G01X416000Y-377436D01*
G01X413656Y-376583D01*
G01X411359Y-375615D01*
G01X409111Y-374533D01*
G01X406925Y-373342D01*
G01X404796Y-372041D01*
G01X402736Y-370637D01*
G01X400750Y-369131D01*
G01X398840Y-367528D01*
G01X397011Y-365834D01*
G01X395271Y-364048D01*
G01X393620Y-362179D01*
G01X392066Y-360230D01*
G01X390610Y-358206D01*
G01X389259Y-356111D01*
G01X388012Y-353952D01*
G01X386874Y-351734D01*
G01X385850Y-349461D01*
G01X384938Y-347142D01*
G01X384146Y-344777D01*
G01X383470Y-342377D01*
G01X382914Y-339949D01*
G01X382482Y-337492D01*
G01X382172Y-335018D01*
G01X381984Y-332532D01*
G01X381923Y-330040D01*
G01X381923Y-260040D01*
G01X381984Y-257548D01*
G01X382172Y-255062D01*
G01X382482Y-252588D01*
G01X382914Y-250132D01*
G01X383470Y-247703D01*
G01X384146Y-245303D01*
G01X384938Y-242938D01*
G01X385850Y-240619D01*
G01X386874Y-238346D01*
G01X388012Y-236129D01*
G01X389259Y-233970D01*
G01X390610Y-231874D01*
G01X392066Y-229850D01*
G01X393620Y-227901D01*
G01X395271Y-226032D01*
G01X397011Y-224246D01*
G01X398840Y-222552D01*
G01X400750Y-220950D01*
G01X402736Y-219443D01*
G01X404796Y-218039D01*
G01X406925Y-216738D01*
G01X409111Y-215547D01*
G01X411359Y-214465D01*
G01X413656Y-213497D01*
G01X416000Y-212644D01*
G01X418382Y-211910D01*
G01X420798Y-211295D01*
G01X423241Y-210800D01*
G01X425705Y-210429D01*
G01X428187Y-210180D01*
G01X430676Y-210055D01*
G37*
G36*
G01X-433305Y-590065D02*
G01X-430811Y-590065D01*
G01X-428321Y-590189D01*
G01X-425840Y-590438D01*
G01X-423376Y-590809D01*
G01X-420933Y-591304D01*
G01X-418517Y-591919D01*
G01X-416135Y-592653D01*
G01X-413790Y-593507D01*
G01X-411494Y-594474D01*
G01X-409246Y-595556D01*
G01X-407057Y-596748D01*
G01X-404931Y-598048D01*
G01X-402871Y-599453D01*
G01X-400884Y-600959D01*
G01X-398974Y-602562D01*
G01X-397146Y-604256D01*
G01X-395406Y-606041D01*
G01X-393755Y-607911D01*
G01X-392200Y-609859D01*
G01X-390745Y-611883D01*
G01X-389393Y-613979D01*
G01X-388146Y-616138D01*
G01X-387008Y-618355D01*
G01X-385985Y-620629D01*
G01X-385073Y-622948D01*
G01X-384280Y-625312D01*
G01X-383605Y-627713D01*
G01X-383049Y-630141D01*
G01X-382617Y-632597D01*
G01X-382307Y-635071D01*
G01X-382119Y-637558D01*
G01X-382058Y-640050D01*
G01X-382058Y-710049D01*
G01X-382119Y-712541D01*
G01X-382307Y-715028D01*
G01X-382617Y-717502D01*
G01X-383049Y-719958D01*
G01X-383605Y-722386D01*
G01X-384280Y-724786D01*
G01X-385073Y-727151D01*
G01X-385985Y-729470D01*
G01X-387008Y-731744D01*
G01X-388146Y-733961D01*
G01X-389393Y-736120D01*
G01X-390745Y-738215D01*
G01X-392200Y-740240D01*
G01X-393755Y-742188D01*
G01X-395406Y-744057D01*
G01X-397146Y-745843D01*
G01X-398974Y-747537D01*
G01X-400884Y-749140D01*
G01X-402871Y-750646D01*
G01X-404931Y-752051D01*
G01X-407057Y-753351D01*
G01X-409246Y-754543D01*
G01X-411494Y-755625D01*
G01X-413790Y-756592D01*
G01X-416135Y-757446D01*
G01X-418517Y-758180D01*
G01X-420933Y-758795D01*
G01X-423376Y-759290D01*
G01X-425840Y-759661D01*
G01X-428321Y-759910D01*
G01X-430811Y-760034D01*
G01X-433305Y-760034D01*
G01X-435794Y-759910D01*
G01X-438276Y-759661D01*
G01X-440740Y-759290D01*
G01X-443183Y-758795D01*
G01X-445599Y-758180D01*
G01X-447981Y-757446D01*
G01X-450325Y-756592D01*
G01X-452622Y-755625D01*
G01X-454870Y-754543D01*
G01X-457056Y-753351D01*
G01X-459185Y-752051D01*
G01X-461245Y-750646D01*
G01X-463231Y-749140D01*
G01X-465141Y-747537D01*
G01X-466970Y-745843D01*
G01X-468710Y-744057D01*
G01X-470361Y-742188D01*
G01X-471915Y-740240D01*
G01X-473371Y-738215D01*
G01X-474722Y-736120D01*
G01X-475969Y-733961D01*
G01X-477107Y-731744D01*
G01X-478131Y-729470D01*
G01X-479043Y-727151D01*
G01X-479835Y-724786D01*
G01X-480511Y-722386D01*
G01X-481067Y-719958D01*
G01X-481499Y-717502D01*
G01X-481809Y-715028D01*
G01X-481997Y-712541D01*
G01X-482058Y-710049D01*
G01X-482058Y-640050D01*
G01X-481997Y-637558D01*
G01X-481809Y-635071D01*
G01X-481499Y-632597D01*
G01X-481067Y-630141D01*
G01X-480511Y-627713D01*
G01X-479835Y-625312D01*
G01X-479043Y-622948D01*
G01X-478131Y-620629D01*
G01X-477107Y-618355D01*
G01X-475969Y-616138D01*
G01X-474722Y-613979D01*
G01X-473371Y-611883D01*
G01X-471915Y-609859D01*
G01X-470361Y-607911D01*
G01X-468710Y-606041D01*
G01X-466970Y-604256D01*
G01X-465141Y-602562D01*
G01X-463231Y-600959D01*
G01X-461245Y-599453D01*
G01X-459185Y-598048D01*
G01X-457056Y-596748D01*
G01X-454870Y-595556D01*
G01X-452622Y-594474D01*
G01X-450325Y-593507D01*
G01X-447981Y-592653D01*
G01X-445599Y-591919D01*
G01X-443183Y-591304D01*
G01X-440740Y-590809D01*
G01X-438276Y-590438D01*
G01X-435794Y-590189D01*
G01X-433305Y-590065D01*
G37*
G36*
G01X435660Y-590189D02*
G01X438141Y-590438D01*
G01X440605Y-590809D01*
G01X443048Y-591304D01*
G01X445464Y-591919D01*
G01X447846Y-592653D01*
G01X450191Y-593507D01*
G01X452487Y-594474D01*
G01X454735Y-595556D01*
G01X456924Y-596748D01*
G01X459050Y-598048D01*
G01X461110Y-599453D01*
G01X463097Y-600959D01*
G01X465007Y-602562D01*
G01X466835Y-604256D01*
G01X468575Y-606041D01*
G01X470226Y-607911D01*
G01X471781Y-609859D01*
G01X473236Y-611883D01*
G01X474588Y-613979D01*
G01X475835Y-616138D01*
G01X476973Y-618355D01*
G01X477996Y-620629D01*
G01X478908Y-622948D01*
G01X479701Y-625312D01*
G01X480376Y-627713D01*
G01X480932Y-630141D01*
G01X481364Y-632597D01*
G01X481674Y-635071D01*
G01X481862Y-637558D01*
G01X481923Y-640050D01*
G01X481923Y-710049D01*
G01X481862Y-712541D01*
G01X481674Y-715028D01*
G01X481364Y-717502D01*
G01X480932Y-719958D01*
G01X480376Y-722386D01*
G01X479701Y-724786D01*
G01X478908Y-727151D01*
G01X477996Y-729470D01*
G01X476973Y-731744D01*
G01X475835Y-733961D01*
G01X474588Y-736120D01*
G01X473236Y-738215D01*
G01X471781Y-740240D01*
G01X470226Y-742188D01*
G01X468575Y-744057D01*
G01X466835Y-745843D01*
G01X465007Y-747537D01*
G01X463097Y-749140D01*
G01X461110Y-750646D01*
G01X459050Y-752051D01*
G01X456924Y-753351D01*
G01X454735Y-754543D01*
G01X452487Y-755625D01*
G01X450191Y-756592D01*
G01X447846Y-757446D01*
G01X445464Y-758180D01*
G01X443048Y-758795D01*
G01X440605Y-759290D01*
G01X438141Y-759661D01*
G01X435660Y-759910D01*
G01X433170Y-760034D01*
G01X430676Y-760034D01*
G01X428187Y-759910D01*
G01X425705Y-759661D01*
G01X423241Y-759290D01*
G01X420798Y-758795D01*
G01X418382Y-758180D01*
G01X416000Y-757446D01*
G01X413656Y-756592D01*
G01X411359Y-755625D01*
G01X409111Y-754543D01*
G01X406925Y-753351D01*
G01X404796Y-752051D01*
G01X402736Y-750646D01*
G01X400750Y-749140D01*
G01X398840Y-747537D01*
G01X397011Y-745843D01*
G01X395271Y-744057D01*
G01X393620Y-742188D01*
G01X392066Y-740240D01*
G01X390610Y-738215D01*
G01X389259Y-736120D01*
G01X388012Y-733961D01*
G01X386874Y-731744D01*
G01X385850Y-729470D01*
G01X384938Y-727151D01*
G01X384146Y-724786D01*
G01X383470Y-722386D01*
G01X382914Y-719958D01*
G01X382482Y-717502D01*
G01X382172Y-715028D01*
G01X381984Y-712541D01*
G01X381923Y-710049D01*
G01X381923Y-640050D01*
G01X381984Y-637558D01*
G01X382172Y-635071D01*
G01X382482Y-632597D01*
G01X382914Y-630141D01*
G01X383470Y-627713D01*
G01X384146Y-625312D01*
G01X384938Y-622948D01*
G01X385850Y-620629D01*
G01X386874Y-618355D01*
G01X388012Y-616138D01*
G01X389259Y-613979D01*
G01X390610Y-611883D01*
G01X392066Y-609859D01*
G01X393620Y-607911D01*
G01X395271Y-606041D01*
G01X397011Y-604256D01*
G01X398840Y-602562D01*
G01X400750Y-600959D01*
G01X402736Y-599453D01*
G01X404796Y-598048D01*
G01X406925Y-596748D01*
G01X409111Y-595556D01*
G01X411359Y-594474D01*
G01X413656Y-593507D01*
G01X416000Y-592653D01*
G01X418382Y-591919D01*
G01X420798Y-591304D01*
G01X423241Y-590809D01*
G01X425705Y-590438D01*
G01X428187Y-590189D01*
G01X430676Y-590065D01*
G01X433170Y-590065D01*
G01X435660Y-590189D01*
G37*

G04 Pad Start*
G54D10*
G01X-83998Y18606D03*
G54D11*
G01X-424002Y328613D03*
G01X-424002Y228613D03*
G01X-424002Y128613D03*
G54D10*
G01X-83998Y438595D03*
G04 Pad End*

M02*

