G04 Layer: TopLayer*
G04 EasyEDA Pro v3.2.135, 2026-06-11 10:07:19*
G04 Gerber Generator version 0.3*
G04 Scale: 100 percent, Rotated: No, Reflected: No*
G04 Dimensions in millimeters*
G04 Leading zeros omitted, absolute positions, 4 integers and 5 decimals*
G04 Generated by one-click*
G04 Object Configs: Pad,Via,Track,Text,Image,Dimension,BoardOutline,BoardCutout,CopperFilled,SolidRegion,FPCStiffener,Line,PlaneZone,ComponentProperty,ComponentSilkscreen,TearDrop*
G04 Layer Configs: 1,2,3,4,5,6,7,8,9,10,11,13,14,56*
G04 Copper Areas: 43*
%FSLAX45Y45*%
%MOMM*%
%ADD10C,0.2032*%
%ADD11C,0.254*%
%ADD12C,4.0*%
%ADD13R,0.86401X0.80648*%
%ADD14R,0.8X1.6*%
%ADD15R,0.75999X1.6*%
%ADD16R,0.7X1.6*%
%ADD17O,1.0X1.7*%
%ADD18C,1.3*%
%ADD19C,0.5026*%
%ADD20C,0.5*%
%ADD21R,2.49999X1.2*%
%ADD22R,1.7X0.5*%
%ADD23C,0.61*%
G75*


G04 Copper Start*
G36*
G01X374155Y-773506D02*
G01X-374290Y-773506D01*
G01X-362427Y-760204D01*
G01X-353568Y-744738D01*
G01X-348095Y-727775D01*
G01X-346244Y-710048D01*
G01X-346244Y-640048D01*
G01X-348119Y-622207D01*
G01X-353663Y-605145D01*
G01X-362633Y-589608D01*
G01X-374637Y-576276D01*
G01X-389151Y-565731D01*
G01X-405540Y-558434D01*
G01X-423088Y-554704D01*
G01X-441028Y-554704D01*
G01X-458576Y-558434D01*
G01X-474965Y-565731D01*
G01X-489479Y-576276D01*
G01X-501483Y-589608D01*
G01X-510453Y-605145D01*
G01X-515996Y-622207D01*
G01X-517872Y-640048D01*
G01X-517872Y-710048D01*
G01X-516021Y-727775D01*
G01X-510548Y-744738D01*
G01X-501689Y-760204D01*
G01X-489826Y-773506D01*
G01X-799460Y-773506D01*
G01X-813460Y-771929D01*
G01X-826759Y-767275D01*
G01X-838688Y-759780D01*
G01X-848650Y-749817D01*
G01X-856146Y-737888D01*
G01X-860799Y-724590D01*
G01X-862376Y-710590D01*
G01X-862376Y-590793D01*
G01X-864064Y-569349D01*
G01X-869086Y-548432D01*
G01X-877318Y-528558D01*
G01X-888557Y-510217D01*
G01X-902527Y-493860D01*
G01X-918884Y-479890D01*
G01X-937226Y-468650D01*
G01X-957099Y-460418D01*
G01X-978016Y-455397D01*
G01X-999460Y-453709D01*
G01X-1165205Y-453709D01*
G01X-1179205Y-452132D01*
G01X-1192503Y-447478D01*
G01X-1204433Y-439983D01*
G01X-1214395Y-430021D01*
G01X-1221891Y-418091D01*
G01X-1226544Y-404793D01*
G01X-1228121Y-390793D01*
G01X-1228121Y-215901D01*
G01X-1226416Y-215901D01*
G01X-1224399Y-246680D01*
G01X-1218381Y-276934D01*
G01X-1208466Y-306143D01*
G01X-1194823Y-333807D01*
G01X-1177686Y-359455D01*
G01X-1157348Y-382646D01*
G01X-1134156Y-402984D01*
G01X-1108509Y-420121D01*
G01X-1080844Y-433764D01*
G01X-1051635Y-443679D01*
G01X-1021382Y-449697D01*
G01X-990602Y-451714D01*
G01X-959822Y-449697D01*
G01X-929569Y-443679D01*
G01X-900360Y-433764D01*
G01X-872695Y-420121D01*
G01X-847048Y-402984D01*
G01X-823856Y-382646D01*
G01X-803518Y-359455D01*
G01X-786381Y-333807D01*
G01X-772738Y-306143D01*
G01X-762823Y-276934D01*
G01X-756805Y-246680D01*
G01X-754788Y-215901D01*
G01X-756805Y-185121D01*
G01X-762823Y-154867D01*
G01X-772738Y-125658D01*
G01X-786381Y-97994D01*
G01X-803518Y-72346D01*
G01X-823856Y-49155D01*
G01X-847048Y-28817D01*
G01X-872695Y-11680D01*
G01X-900360Y1963D01*
G01X-929569Y11878D01*
G01X-959822Y17896D01*
G01X-990602Y19913D01*
G01X-1021382Y17896D01*
G01X-1051635Y11878D01*
G01X-1080844Y1963D01*
G01X-1108509Y-11680D01*
G01X-1134156Y-28817D01*
G01X-1157348Y-49155D01*
G01X-1177686Y-72346D01*
G01X-1194823Y-97994D01*
G01X-1208466Y-125658D01*
G01X-1218381Y-154867D01*
G01X-1224399Y-185121D01*
G01X-1226416Y-215901D01*
G01X-1226416Y-215901D01*
G01X-1228121Y-215901D01*
G01X-1228121Y121559D01*
G01X-1216270Y121559D01*
G01X-1213013Y106663D01*
G01X-1206152Y93045D01*
G01X-1196119Y81561D01*
G01X-1183545Y72935D01*
G01X-1169220Y67708D01*
G01X-1155700Y65786D01*
G01X-1142180Y67708D01*
G01X-1128868Y72425D01*
G01X-1117003Y80086D01*
G01X-547102Y80086D01*
G01X-538078Y78667D01*
G01X-529926Y74547D01*
G01X-519995Y69528D01*
G01X-509002Y67799D01*
G01X-471474Y67799D01*
G01X-463783Y63745D01*
G01X-457052Y58243D01*
G01X-264491Y-134318D01*
G01X-264491Y-134318D01*
G01X-315060Y-134318D01*
G01X-326127Y-136071D01*
G01X-336111Y-141158D01*
G01X-344034Y-149081D01*
G01X-349121Y-159065D01*
G01X-350874Y-170132D01*
G01X-350874Y-232231D01*
G01X-358733Y-215457D01*
G01X-370008Y-200761D01*
G01X-384174Y-188827D01*
G01X-400572Y-180210D01*
G01X-418436Y-175313D01*
G01X-436935Y-174364D01*
G01X-455207Y-177406D01*
G01X-472400Y-184299D01*
G01X-487713Y-194720D01*
G01X-500434Y-208186D01*
G01X-509968Y-224067D01*
G01X-515873Y-241624D01*
G01X-517872Y-260039D01*
G01X-517872Y-330039D01*
G01X-515955Y-348076D01*
G01X-510289Y-365308D01*
G01X-501128Y-380963D01*
G01X-488881Y-394344D01*
G01X-474096Y-404851D01*
G01X-457432Y-412016D01*
G01X-439634Y-415518D01*
G01X-421498Y-415200D01*
G01X-403833Y-411078D01*
G01X-387430Y-403335D01*
G01X-373021Y-392317D01*
G01X-361249Y-378517D01*
G01X-352641Y-362551D01*
G01X-347582Y-345132D01*
G01X-342060Y-353661D01*
G01X-334366Y-360296D01*
G01X-325118Y-364504D01*
G01X-315060Y-365945D01*
G01X-235060Y-365945D01*
G01X-227023Y-365032D01*
G01X-219395Y-362338D01*
G01X-212567Y-358000D01*
G01X-205739Y-362338D01*
G01X-198111Y-365032D01*
G01X-190073Y-365945D01*
G01X-114074Y-365945D01*
G01X-106662Y-365170D01*
G01X-99571Y-362877D01*
G01X-98581Y-363298D01*
G01X-98581Y-372872D01*
G01X-165383Y-439673D01*
G01X-600986Y-439673D01*
G01X-600986Y-364340D01*
G01X-602738Y-353273D01*
G01X-607825Y-343289D01*
G01X-615749Y-335366D01*
G01X-625732Y-330279D01*
G01X-636800Y-328526D01*
G01X-723200Y-328526D01*
G01X-734267Y-330279D01*
G01X-744251Y-335366D01*
G01X-752174Y-343289D01*
G01X-757261Y-353273D01*
G01X-759014Y-364340D01*
G01X-759014Y-444987D01*
G01X-757700Y-454601D01*
G01X-753853Y-463509D01*
G01X-747756Y-471058D01*
G01X-739856Y-476693D01*
G01X-730734Y-480000D01*
G01X-739856Y-483307D01*
G01X-747756Y-488942D01*
G01X-753853Y-496491D01*
G01X-757700Y-505399D01*
G01X-759014Y-515013D01*
G01X-759014Y-595660D01*
G01X-757261Y-606727D01*
G01X-752174Y-616711D01*
G01X-744251Y-624634D01*
G01X-734267Y-629721D01*
G01X-723200Y-631474D01*
G01X-636800Y-631474D01*
G01X-625732Y-629721D01*
G01X-615749Y-624634D01*
G01X-607825Y-616711D01*
G01X-602738Y-606727D01*
G01X-600986Y-595660D01*
G01X-600986Y-555295D01*
G01X-582392Y-536701D01*
G01X-145287Y-536701D01*
G01X-132731Y-535048D01*
G01X-121030Y-530202D01*
G01X-110983Y-522492D01*
G01X-15763Y-427272D01*
G01X-8053Y-417224D01*
G01X-3206Y-405524D01*
G01X-1553Y-392967D01*
G01X-1553Y-363298D01*
G01X-67Y-362653D01*
G01X2286Y-363638D01*
G01X2286Y-393700D01*
G01X3939Y-406256D01*
G01X8786Y-417957D01*
G01X16495Y-428005D01*
G01X105395Y-516905D01*
G01X115443Y-524614D01*
G01X127144Y-529461D01*
G01X139700Y-531114D01*
G01X590368Y-531114D01*
G01X600986Y-541731D01*
G01X600986Y-595660D01*
G01X602738Y-606727D01*
G01X607825Y-616711D01*
G01X615749Y-624634D01*
G01X625732Y-629721D01*
G01X636800Y-631474D01*
G01X723200Y-631474D01*
G01X734267Y-629721D01*
G01X744251Y-624634D01*
G01X752174Y-616711D01*
G01X757261Y-606727D01*
G01X759014Y-595660D01*
G01X759014Y-515013D01*
G01X757700Y-505399D01*
G01X753853Y-496491D01*
G01X747756Y-488942D01*
G01X739856Y-483307D01*
G01X730734Y-480000D01*
G01X739856Y-476693D01*
G01X747756Y-471058D01*
G01X753853Y-463509D01*
G01X757700Y-454601D01*
G01X759014Y-444987D01*
G01X759014Y-364340D01*
G01X757261Y-353273D01*
G01X752174Y-343289D01*
G01X744251Y-335366D01*
G01X734267Y-330279D01*
G01X723200Y-328526D01*
G01X636800Y-328526D01*
G01X625732Y-330279D01*
G01X615749Y-335366D01*
G01X607825Y-343289D01*
G01X602738Y-353273D01*
G01X600986Y-364340D01*
G01X600986Y-434086D01*
G01X159795Y-434086D01*
G01X99314Y-373605D01*
G01X99314Y-362931D01*
G01X99546Y-362829D01*
G01X106580Y-365140D01*
G01X113939Y-365945D01*
G01X189939Y-365945D01*
G01X197976Y-365032D01*
G01X205604Y-362338D01*
G01X212432Y-358000D01*
G01X219261Y-362338D01*
G01X226888Y-365032D01*
G01X234926Y-365945D01*
G01X314926Y-365945D01*
G01X324983Y-364504D01*
G01X334231Y-360296D01*
G01X341926Y-353661D01*
G01X347447Y-345132D01*
G01X352507Y-362551D01*
G01X361114Y-378517D01*
G01X372886Y-392317D01*
G01X387295Y-403335D01*
G01X403699Y-411078D01*
G01X421363Y-415200D01*
G01X439499Y-415518D01*
G01X457297Y-412016D01*
G01X473961Y-404851D01*
G01X488747Y-394344D01*
G01X500994Y-380963D01*
G01X510154Y-365308D01*
G01X515820Y-348076D01*
G01X517737Y-330039D01*
G01X517737Y-260039D01*
G01X515738Y-241624D01*
G01X509834Y-224067D01*
G01X504931Y-215901D01*
G01X754788Y-215901D01*
G01X756805Y-246680D01*
G01X762823Y-276934D01*
G01X772738Y-306143D01*
G01X786381Y-333807D01*
G01X803518Y-359455D01*
G01X823856Y-382646D01*
G01X847048Y-402984D01*
G01X872695Y-420121D01*
G01X900360Y-433764D01*
G01X929569Y-443679D01*
G01X959822Y-449697D01*
G01X990602Y-451714D01*
G01X1021382Y-449697D01*
G01X1051635Y-443679D01*
G01X1080844Y-433764D01*
G01X1108509Y-420121D01*
G01X1134156Y-402984D01*
G01X1157348Y-382646D01*
G01X1177686Y-359455D01*
G01X1194823Y-333807D01*
G01X1208466Y-306143D01*
G01X1218381Y-276934D01*
G01X1224399Y-246680D01*
G01X1226416Y-215901D01*
G01X1224399Y-185121D01*
G01X1218381Y-154867D01*
G01X1208466Y-125658D01*
G01X1194823Y-97994D01*
G01X1177686Y-72346D01*
G01X1157348Y-49155D01*
G01X1134156Y-28817D01*
G01X1108509Y-11680D01*
G01X1080844Y1963D01*
G01X1051635Y11878D01*
G01X1021382Y17896D01*
G01X990602Y19913D01*
G01X959822Y17896D01*
G01X929569Y11878D01*
G01X900360Y1963D01*
G01X872695Y-11680D01*
G01X847048Y-28817D01*
G01X823856Y-49155D01*
G01X803518Y-72346D01*
G01X786381Y-97994D01*
G01X772738Y-125658D01*
G01X762823Y-154867D01*
G01X756805Y-185121D01*
G01X754788Y-215901D01*
G01X754788Y-215901D01*
G01X504931Y-215901D01*
G01X500299Y-208186D01*
G01X487579Y-194720D01*
G01X472265Y-184299D01*
G01X455072Y-177406D01*
G01X436800Y-174364D01*
G01X418301Y-175313D01*
G01X400437Y-180210D01*
G01X384040Y-188827D01*
G01X369873Y-200761D01*
G01X358598Y-215457D01*
G01X350740Y-232231D01*
G01X350740Y-170132D01*
G01X348987Y-159065D01*
G01X343900Y-149081D01*
G01X335977Y-141158D01*
G01X325993Y-136071D01*
G01X314926Y-134318D01*
G01X277114Y-134318D01*
G01X277114Y690297D01*
G01X294722Y697042D01*
G01X310765Y706948D01*
G01X324684Y719668D01*
G01X335990Y734757D01*
G01X344289Y751688D01*
G01X349290Y769868D01*
G01X350818Y788661D01*
G01X348820Y807410D01*
G01X343366Y825459D01*
G01X334646Y842177D01*
G01X322966Y856979D01*
G01X308734Y869347D01*
G01X292447Y878848D01*
G01X274676Y885150D01*
G01X256043Y888033D01*
G01X237198Y887396D01*
G01X218802Y883261D01*
G01X201498Y875773D01*
G01X185890Y865193D01*
G01X172526Y851893D01*
G01X161872Y836336D01*
G01X154301Y819067D01*
G01X150078Y800691D01*
G01X149351Y781850D01*
G01X152145Y763203D01*
G01X158363Y745402D01*
G01X167786Y729070D01*
G01X180086Y714779D01*
G01X180086Y-116906D01*
G01X163750Y-133241D01*
G01X123085Y-92576D01*
G01X113037Y-84866D01*
G01X101336Y-80019D01*
G01X88780Y-78366D01*
G01X-88780Y-78366D01*
G01X-92189Y-78486D01*
G01X-183105Y-78486D01*
G01X-184382Y-77208D01*
G01X41002Y-77208D01*
G01X52069Y-75456D01*
G01X62053Y-70369D01*
G01X69976Y-62445D01*
G01X75063Y-52462D01*
G01X76816Y-41394D01*
G01X76816Y78605D01*
G01X75063Y89673D01*
G01X69976Y99656D01*
G01X62053Y107580D01*
G01X52069Y112667D01*
G01X41002Y114419D01*
G01X-208998Y114419D01*
G01X-220065Y112667D01*
G01X-230048Y107580D01*
G01X-237972Y99656D01*
G01X-243059Y89673D01*
G01X-244812Y78605D01*
G01X-244812Y-16779D01*
G01X-330431Y68840D01*
G01X-319557Y73538D01*
G01X-310810Y81526D01*
G01X-305147Y91931D01*
G01X-303188Y103613D01*
G01X-303188Y153613D01*
G01X-304370Y162735D01*
G01X-307836Y171256D01*
G01X-313358Y178613D01*
G01X-307836Y185970D01*
G01X-304370Y194490D01*
G01X-303188Y203613D01*
G01X-303188Y212996D01*
G01X-301881Y221982D01*
G01X-298068Y230223D01*
G01X-257795Y270495D01*
G01X-250086Y280543D01*
G01X-245239Y292244D01*
G01X-243586Y304800D01*
G01X-243586Y369306D01*
G01X-238767Y358685D01*
G01X-230792Y350175D01*
G01X-220505Y344680D01*
G01X-208998Y342781D01*
G01X41002Y342781D01*
G01X52069Y344533D01*
G01X62053Y349620D01*
G01X69976Y357544D01*
G01X75063Y367527D01*
G01X76816Y378595D01*
G01X76816Y498594D01*
G01X75063Y509662D01*
G01X69976Y519645D01*
G01X62053Y527569D01*
G01X52069Y532656D01*
G01X41002Y534408D01*
G01X-208998Y534408D01*
G01X-220505Y532509D01*
G01X-230792Y527014D01*
G01X-238767Y518504D01*
G01X-243586Y507883D01*
G01X-243586Y526005D01*
G01X-61823Y707768D01*
G01X-44891Y697133D01*
G01X-26193Y690048D01*
G01X-6465Y686794D01*
G01X13517Y687496D01*
G01X32968Y692129D01*
G01X51122Y700509D01*
G01X67265Y712308D01*
G01X80762Y727060D01*
G01X91082Y744186D01*
G01X97819Y763011D01*
G01X100709Y782796D01*
G01X99636Y802762D01*
G01X94645Y822124D01*
G01X85930Y840120D01*
G01X73836Y856042D01*
G01X58836Y869264D01*
G01X41523Y879266D01*
G01X22576Y885654D01*
G01X2741Y888177D01*
G01X-17202Y886735D01*
G01X-36469Y881387D01*
G01X-54300Y872341D01*
G01X-69996Y859954D01*
G01X-82938Y844712D01*
G01X-92618Y827217D01*
G01X-98654Y808155D01*
G01X-156120Y750689D01*
G01X-150787Y769570D01*
G01X-149213Y789127D01*
G01X-151456Y808618D01*
G01X-157433Y827305D01*
G01X-166915Y844481D01*
G01X-179545Y859496D01*
G01X-194843Y871779D01*
G01X-212232Y880867D01*
G01X-231051Y886415D01*
G01X-250588Y888212D01*
G01X-270103Y886192D01*
G01X-288858Y880429D01*
G01X-306141Y871144D01*
G01X-321298Y858686D01*
G01X-333756Y843529D01*
G01X-343042Y826246D01*
G01X-348804Y807491D01*
G01X-350824Y787976D01*
G01X-349027Y768438D01*
G01X-343479Y749619D01*
G01X-334391Y732231D01*
G01X-322108Y716933D01*
G01X-307094Y704303D01*
G01X-289918Y694820D01*
G01X-271230Y688844D01*
G01X-251739Y686601D01*
G01X-232183Y688175D01*
G01X-213301Y693508D01*
G01X-326405Y580405D01*
G01X-334114Y570357D01*
G01X-338961Y558656D01*
G01X-340614Y546100D01*
G01X-340614Y389426D01*
G01X-509002Y389426D01*
G01X-520069Y387674D01*
G01X-530053Y382587D01*
G01X-537976Y374663D01*
G01X-543063Y364680D01*
G01X-544816Y353612D01*
G01X-544816Y303613D01*
G01X-543737Y294889D01*
G01X-540566Y286691D01*
G01X-535494Y279512D01*
G01X-541175Y277720D01*
G01X-547102Y277114D01*
G01X-969375Y277114D01*
G01X-1100367Y408106D01*
G01X-1107624Y419550D01*
G01X-1117234Y429104D01*
G01X-1128722Y436291D01*
G01X-1141515Y440757D01*
G01X-1155035Y442679D01*
G01X-1168555Y440757D01*
G01X-1182782Y435580D01*
G01X-1195289Y427050D01*
G01X-1205302Y415694D01*
G01X-1212199Y402217D01*
G01X-1215554Y387454D01*
G01X-1215158Y372320D01*
G01X-1211036Y357753D01*
G01X-1203443Y344655D01*
G01X-1192851Y333838D01*
G01X-1179915Y325973D01*
G01X-1165437Y321547D01*
G01X-1150314Y320835D01*
G01X-1023775Y194295D01*
G01X-1013727Y186586D01*
G01X-1002027Y181739D01*
G01X-989470Y180086D01*
G01X-547102Y180086D01*
G01X-537883Y178603D01*
G01X-547102Y177114D01*
G01X-1121249Y177114D01*
G01X-1134798Y184109D01*
G01X-1149662Y187513D01*
G01X-1164905Y187113D01*
G01X-1179570Y182934D01*
G01X-1192734Y175237D01*
G01X-1203569Y164508D01*
G01X-1211395Y151421D01*
G01X-1215719Y136798D01*
G01X-1216270Y121559D01*
G01X-1228121Y121559D01*
G01X-1228121Y937001D01*
G01X-1226512Y951283D01*
G01X-1221765Y964850D01*
G01X-1214118Y977020D01*
G01X-1203955Y987183D01*
G01X-1191784Y994830D01*
G01X-1178218Y999577D01*
G01X-1163935Y1001187D01*
G01X1163935Y1001187D01*
G01X1178218Y999577D01*
G01X1191784Y994830D01*
G01X1203955Y987183D01*
G01X1214118Y977020D01*
G01X1221765Y964850D01*
G01X1226512Y951283D01*
G01X1228121Y937001D01*
G01X1228121Y-390793D01*
G01X1226544Y-404793D01*
G01X1221891Y-418091D01*
G01X1214395Y-430021D01*
G01X1204433Y-439983D01*
G01X1192503Y-447478D01*
G01X1179205Y-452132D01*
G01X1165205Y-453709D01*
G01X999461Y-453709D01*
G01X978016Y-455397D01*
G01X957099Y-460418D01*
G01X937226Y-468650D01*
G01X918885Y-479890D01*
G01X902528Y-493860D01*
G01X888557Y-510217D01*
G01X877318Y-528558D01*
G01X869086Y-548432D01*
G01X864064Y-569349D01*
G01X862376Y-590793D01*
G01X862376Y-710590D01*
G01X860799Y-724590D01*
G01X856146Y-737888D01*
G01X848650Y-749817D01*
G01X838688Y-759780D01*
G01X826759Y-767275D01*
G01X813460Y-771929D01*
G01X799460Y-773506D01*
G01X489691Y-773506D01*
G01X501554Y-760204D01*
G01X510413Y-744738D01*
G01X515886Y-727775D01*
G01X517737Y-710048D01*
G01X517737Y-640048D01*
G01X515862Y-622207D01*
G01X510318Y-605145D01*
G01X501348Y-589608D01*
G01X489344Y-576276D01*
G01X474830Y-565731D01*
G01X458441Y-558434D01*
G01X440893Y-554704D01*
G01X422953Y-554704D01*
G01X405405Y-558434D01*
G01X389016Y-565731D01*
G01X374502Y-576276D01*
G01X362498Y-589608D01*
G01X353528Y-605145D01*
G01X347985Y-622207D01*
G01X346109Y-640048D01*
G01X346109Y-710048D01*
G01X347960Y-727775D01*
G01X353433Y-744738D01*
G01X362292Y-760204D01*
G01X374155Y-773506D01*
G37*
G54D10*
G01X374155Y-773506D02*
G01X-374290Y-773506D01*
G03X-346244Y-710048I-57768J63458D01*
G01X-346244Y-640048D01*
G03X-517872Y-640048I-85814J0D01*
G01X-517872Y-710048D01*
G03X-489826Y-773506I85814J0D01*
G01X-799460Y-773506D01*
G02X-862376Y-710590I0J62916D01*
G01X-862376Y-590793D01*
G03X-999460Y-453709I-137084J0D01*
G01X-1165205Y-453709D01*
G02X-1228121Y-390793I0J62916D01*
G01X-1228121Y937001D01*
G02X-1163935Y1001187I64186J0D01*
G01X1163935Y1001187D01*
G02X1228121Y937001I0J-64186D01*
G01X1228121Y-390793D01*
G02X1165205Y-453709I-62916J0D01*
G01X999461Y-453709D01*
G03X862376Y-590793I0J-137084D01*
G01X862376Y-710590D01*
G02X799460Y-773506I-62916J0D01*
G01X489691Y-773506D01*
G03X517737Y-710048I-57768J63458D01*
G01X517737Y-640048D01*
G03X346109Y-640048I-85814J0D01*
G01X346109Y-710048D01*
G03X374155Y-773506I85814J0D01*
G01X-1226416Y-215901D02*
G03X-754788Y-215901I235814J0D01*
G03X-1226416Y-215901I-235814J0D01*
G01X-264491Y-134318D02*
G01X-315060Y-134318D01*
G03X-350874Y-170132I0J-35814D01*
G01X-350874Y-232231D01*
G03X-517872Y-260039I-81183J-27808D01*
G01X-517872Y-330039D01*
G03X-347582Y-345132I85814J0D01*
G03X-315060Y-365945I32521J15000D01*
G01X-235060Y-365945D01*
G03X-212567Y-358000I0J35814D01*
G03X-190073Y-365945I22494J27869D01*
G01X-114074Y-365945D01*
G03X-99571Y-362877I0J35814D01*
G01X-98581Y-363298D01*
G01X-98581Y-372872D01*
G01X-165383Y-439673D01*
G01X-600986Y-439673D01*
G01X-600986Y-364340D01*
G03X-636800Y-328526I-35814J0D01*
G01X-723200Y-328526D01*
G03X-759014Y-364340I0J-35814D01*
G01X-759014Y-444987D01*
G03X-730734Y-480000I35814J0D01*
G03X-759014Y-515013I7534J-35013D01*
G01X-759014Y-595660D01*
G03X-723200Y-631474I35814J0D01*
G01X-636800Y-631474D01*
G03X-600986Y-595660I0J35814D01*
G01X-600986Y-555295D01*
G01X-582392Y-536701D01*
G01X-145287Y-536701D01*
G03X-110983Y-522492I0J48514D01*
G01X-15763Y-427272D01*
G03X-1553Y-392967I-34305J34305D01*
G01X-1553Y-363298D01*
G01X-67Y-362653D01*
G03X2286Y-363638I15000J32521D01*
G01X2286Y-393700D01*
G03X16495Y-428005I48514J0D01*
G01X105395Y-516905D01*
G03X139700Y-531114I34305J34305D01*
G01X590368Y-531114D01*
G01X600986Y-541731D01*
G01X600986Y-595660D01*
G03X636800Y-631474I35814J0D01*
G01X723200Y-631474D01*
G03X759014Y-595660I0J35814D01*
G01X759014Y-515013D01*
G03X730734Y-480000I-35814J0D01*
G03X759014Y-444987I-7534J35013D01*
G01X759014Y-364340D01*
G03X723200Y-328526I-35814J0D01*
G01X636800Y-328526D01*
G03X600986Y-364340I0J-35814D01*
G01X600986Y-434086D01*
G01X159795Y-434086D01*
G01X99314Y-373605D01*
G01X99314Y-362931D01*
G01X99546Y-362829D01*
G03X113939Y-365945I14563J32460D01*
G01X189939Y-365945D01*
G03X212432Y-358000I0J35814D01*
G03X234926Y-365945I22494J27869D01*
G01X314926Y-365945D01*
G03X347447Y-345132I0J35814D01*
G03X517737Y-330039I84476J15093D01*
G01X517737Y-260039D01*
G03X350740Y-232231I-85814J0D01*
G01X350740Y-170132D01*
G03X314926Y-134318I-35814J0D01*
G01X277114Y-134318D01*
G01X277114Y690297D01*
G03X274676Y885150I-27102J97103D01*
G03X180086Y714779I-24664J-97750D01*
G01X180086Y-116906D01*
G01X163750Y-133241D01*
G01X123085Y-92576D01*
G03X88780Y-78366I-34305J-34305D01*
G01X-88780Y-78366D01*
G03X-92189Y-78486I0J-48514D01*
G01X-183105Y-78486D01*
G01X-184382Y-77208D01*
G01X41002Y-77208D01*
G03X76816Y-41394I0J35814D01*
G01X76816Y78605D01*
G03X41002Y114419I-35814J0D01*
G01X-208998Y114419D01*
G03X-244812Y78605I0J-35814D01*
G01X-244812Y-16779D01*
G01X-330431Y68840D01*
G03X-303188Y103613I-8572J34773D01*
G01X-303188Y153613D01*
G03X-313358Y178613I-35814J0D01*
G03X-303188Y203613I-25645J25000D01*
G01X-303188Y212996D01*
G02X-298068Y230223I31538J0D01*
G01X-257795Y270495D01*
G03X-243586Y304800I-34305J34305D01*
G01X-243586Y369306D01*
G03X-208998Y342781I34588J9289D01*
G01X41002Y342781D01*
G03X76816Y378595I0J35814D01*
G01X76816Y498594D01*
G03X41002Y534408I-35814J0D01*
G01X-208998Y534408D01*
G03X-243586Y507883I0J-35814D01*
G01X-243586Y526005D01*
G01X-61823Y707768D01*
G03X94645Y822124I61823J79632D01*
G03X-98654Y808155I-94645J-34724D01*
G01X-156120Y750689D01*
G03X-321298Y858686I-93892J36711D01*
G03X-213301Y693508I71286J-71286D01*
G01X-326405Y580405D01*
G03X-340614Y546100I34305J-34305D01*
G01X-340614Y389426D01*
G01X-509002Y389426D01*
G03X-544816Y353612I0J-35814D01*
G01X-544816Y303613D01*
G03X-535494Y279512I35814J0D01*
G02X-547102Y277114I-11608J26892D01*
G01X-969375Y277114D01*
G01X-1100367Y408106D01*
G03X-1141515Y440757I-54668J-26641D01*
G03X-1168555Y440757I-13520J-46592D01*
G03X-1215158Y372320I13520J-59292D01*
G03X-1150314Y320835I60122J9145D01*
G01X-1023775Y194295D01*
G03X-989470Y180086I34305J34305D01*
G01X-547102Y180086D01*
G02X-537883Y178603I0J-29399D01*
G02X-547102Y177114I-9219J27801D01*
G01X-1121249Y177114D01*
G03X-1211395Y151421I-34451J-50114D01*
G03X-1169220Y67708I55695J-24421D01*
G03X-1142180Y67708I13520J46592D01*
G03X-1117003Y80086I-13520J59292D01*
G01X-547102Y80086D01*
G02X-529926Y74547I0J-29399D01*
G03X-509002Y67799I20924J29066D01*
G01X-471474Y67799D01*
G02X-457052Y58243I-16336J-40314D01*
G01X-264491Y-134318D01*
G01X754788Y-215901D02*
G03X1226416Y-215901I235814J0D01*
G03X754788Y-215901I-235814J0D01*
G54D11*
G01X-990602Y-215901D02*
G01X-1216256Y-215901D01*
G01X-990602Y-215901D02*
G01X-764948Y-215901D01*
G01X-990602Y-215901D02*
G01X-990602Y9753D01*
G01X-990602Y-215901D02*
G01X-990602Y-441554D01*
G01X-432058Y-295039D02*
G01X-507712Y-295039D01*
G01X-432058Y-295039D02*
G01X-432058Y-184385D01*
G01X-432058Y-295039D02*
G01X-432058Y-405693D01*
G01X-432058Y-675048D02*
G01X-507712Y-675048D01*
G01X-432058Y-675048D02*
G01X-356404Y-675048D01*
G01X-432058Y-675048D02*
G01X-432058Y-564394D01*
G01X-250012Y787400D02*
G01X-159358Y787400D01*
G01X-250012Y787400D02*
G01X-340666Y787400D01*
G01X-250012Y787400D02*
G01X-250012Y696746D01*
G01X-250012Y787400D02*
G01X-250012Y878054D01*
G01X431923Y-675048D02*
G01X356269Y-675048D01*
G01X431923Y-675048D02*
G01X507577Y-675048D01*
G01X431923Y-675048D02*
G01X431923Y-564394D01*
G01X431923Y-295039D02*
G01X507577Y-295039D01*
G01X431923Y-295039D02*
G01X431923Y-184385D01*
G01X431923Y-295039D02*
G01X431923Y-405693D01*
G01X990602Y-215901D02*
G01X764948Y-215901D01*
G01X990602Y-215901D02*
G01X1216256Y-215901D01*
G01X990602Y-215901D02*
G01X990602Y9753D01*
G01X990602Y-215901D02*
G01X990602Y-441554D01*
G01X-680000Y-404664D02*
G01X-680000Y-338686D01*
G01X-680000Y-404664D02*
G01X-611146Y-404664D01*
G01X-680000Y-404664D02*
G01X-748854Y-404664D01*
G01X-275060Y-250132D02*
G01X-275060Y-144478D01*
G01X-275060Y-250132D02*
G01X-275060Y-355785D01*
G01X274926Y-250132D02*
G01X274926Y-355785D01*
G01X680000Y-404664D02*
G01X680000Y-338686D01*
G01X680000Y-404664D02*
G01X748854Y-404664D01*
G01X680000Y-404664D02*
G01X611146Y-404664D01*
G01X-83998Y18606D02*
G01X-83998Y-67048D01*
G01X-83998Y18606D02*
G01X-83998Y104259D01*
G01X-83998Y18606D02*
G01X-234652Y18606D01*
G01X-83998Y18606D02*
G01X66656Y18606D01*
G01X-424002Y328613D02*
G01X-424002Y379266D01*
G01X-424002Y328613D02*
G01X-534656Y328613D01*
G01X-83998Y438595D02*
G01X-83998Y352941D01*
G01X-83998Y438595D02*
G01X-83998Y524248D01*
G01X-83998Y438595D02*
G01X66656Y438595D01*
G04 Copper End*

G04 TearDrop Start*
G36*
G01X-547102Y215900D02*
G01X-547102Y241300D01*
G03X-509002Y253613I0J65104D01*
G01X-509002Y203613D01*
G03X-547102Y215900I-38100J-52926D01*
G37*
G36*
G01X-347778Y267083D02*
G01X-325532Y253407D01*
G03X-339002Y212996I53882J-40411D01*
G01X-388189Y253613D01*
G03X-347778Y267083I0J67352D01*
G37*
G36*
G01X-547102Y115900D02*
G01X-547102Y141300D01*
G03X-509002Y153613I0J65104D01*
G01X-509002Y103613D01*
G03X-547102Y115900I-38100J-52926D01*
G37*
G36*
G01X-382017Y69777D02*
G01X-431727Y83567D01*
G03X-465563Y103613I-56082J-56082D01*
G01X-402063Y103613D01*
G03X-382017Y69777I76128J22246D01*
G37*
G04 TearDrop End*

G04 Pad Start*
G54D12*
G01X-990602Y-215901D03*
G01X990602Y-215901D03*
G54D13*
G01X-680000Y-555336D03*
G01X-680000Y-404664D03*
G01X680000Y-555336D03*
G01X680000Y-404664D03*
G54D14*
G01X274926Y-250132D03*
G54D15*
G01X151939Y-250132D03*
G54D16*
G01X49933Y-250132D03*
G01X-50067Y-250132D03*
G54D15*
G01X-152074Y-250132D03*
G54D14*
G01X-275060Y-250132D03*
G54D17*
G01X431923Y-675048D03*
G01X-432058Y-675048D03*
G01X431923Y-295039D03*
G01X-432058Y-295039D03*
G54D18*
G01X0Y787400D03*
G01X250012Y787400D03*
G01X-250012Y787400D03*
G54D20*
G01X-1155700Y127000D03*
G01X-1155035Y381465D03*
G54D21*
G01X-83998Y18606D03*
G54D22*
G01X-424002Y328613D03*
G01X-424002Y228613D03*
G01X-424002Y128613D03*
G54D21*
G01X-83998Y438595D03*
G04 Pad End*

G04 Via Start*
G54D23*
G01X-896600Y655300D03*
G01X119400Y655300D03*
G01X627400Y655300D03*
G01X1135400Y655300D03*
G01X119400Y147300D03*
G01X631805Y149205D03*
G01X1135400Y147300D03*
G04 Via End*

G04 Track Start*
G54D11*
G01X-50067Y-392967D02*
G01X-50067Y-288232D01*
G01X49933Y-288232D02*
G01X50800Y-289099D01*
G01X50800Y-393700D01*
G01X-152074Y-288232D02*
G01X-152074Y-190174D01*
G01X-88780Y-126880D02*
G01X88780Y-126880D01*
G01X151939Y-190039D02*
G01X88780Y-126880D01*
G01X-152074Y-190174D02*
G01X-88900Y-127000D01*
G01X-145287Y-488187D02*
G01X-50067Y-392967D01*
G01X-684936Y-570636D02*
G01X-602487Y-488187D01*
G01X-145287Y-488187D01*
G01X50800Y-393700D02*
G01X139700Y-482600D01*
G01X610464Y-482600D01*
G01X698500Y-570636D01*
G01X-1155035Y394165D02*
G01X-989470Y228600D01*
G01X-203200Y-127000D02*
G01X-88900Y-127000D01*
G01X-458800Y128600D02*
G01X-203200Y-127000D01*
G01X-1155700Y114300D02*
G01X-1141400Y128600D01*
G01X-458800Y128600D01*
G01X-368300Y228600D02*
G01X-292100Y304800D01*
G01X-292100Y546100D01*
G01X-50800Y787400D01*
G01X0Y787400D01*
G01X151939Y-250132D02*
G01X151939Y-213662D01*
G01X151939Y-190039D01*
G01X151939Y-213662D02*
G01X228600Y-137001D01*
G01X228600Y765988D01*
G01X250012Y787400D01*
G01X-368300Y228600D02*
G01X-989470Y228600D01*
G04 Track End*

M02*

