G04 Layer: TopLayer*
G04 EasyEDA Pro v3.2.135, 2026-06-11 10:07:05*
G04 Gerber Generator version 0.3*
G04 Scale: 100 percent, Rotated: No, Reflected: No*
G04 Dimensions in millimeters*
G04 Leading zeros omitted, absolute positions, 4 integers and 5 decimals*
G04 Generated by one-click*
G04 Object Configs: Pad,Via,Track,Text,Image,Dimension,BoardOutline,BoardCutout,CopperFilled,SolidRegion,FPCStiffener,Line,PlaneZone,ComponentProperty,ComponentSilkscreen,TearDrop*
G04 Layer Configs: 1,2,3,4,5,6,7,8,9,10,11,13,14,56*
G04 Copper Areas: 98*
%FSLAX45Y45*%
%MOMM*%
%ADD10C,0.2032*%
%ADD11C,0.254*%
%ADD12C,0.6096*%
%ADD13R,1.6X0.8*%
%ADD14R,1.6X0.75999*%
%ADD15R,1.6X0.7*%
%ADD16O,1.7X1.0*%
%ADD17R,1.7X1.7*%
%ADD18C,1.7068*%
%ADD19C,1.7*%
%ADD20R,0.5X1.2*%
%ADD21R,1.0X1.8*%
%ADD22R,2.49999X2.79999*%
%ADD23R,1.5X0.6*%
%ADD24C,0.5*%
%ADD25R,2.0X2.99999*%
%ADD26R,0.6X1.5*%
%ADD27R,0.8X1.5*%
%ADD28C,0.61*%
G75*


G04 Copper Start*
G36*
G01X-2334144Y1405524D02*
G01X-983424Y1405524D01*
G01X-983424Y1231105D01*
G01X-981672Y1220038D01*
G01X-976585Y1210054D01*
G01X-968661Y1202131D01*
G01X-958678Y1197044D01*
G01X-947610Y1195291D01*
G01X-847611Y1195291D01*
G01X-836544Y1197044D01*
G01X-826560Y1202131D01*
G01X-818637Y1210054D01*
G01X-813550Y1220038D01*
G01X-811797Y1231105D01*
G01X-811797Y1405524D01*
G01X-661403Y1405524D01*
G01X-661403Y1242763D01*
G01X-675763Y1246650D01*
G01X-690628Y1247238D01*
G01X-705250Y1244498D01*
G01X-718893Y1238566D01*
G01X-730871Y1229743D01*
G01X-740580Y1218472D01*
G01X-747533Y1205320D01*
G01X-751379Y1190949D01*
G01X-751924Y1176083D01*
G01X-749142Y1161468D01*
G01X-743171Y1147842D01*
G01X-734314Y1135890D01*
G01X-734314Y1128795D01*
G01X-736613Y1126740D01*
G01X-743969Y1132262D01*
G01X-752490Y1135728D01*
G01X-761613Y1136909D01*
G01X-811613Y1136909D01*
G01X-822680Y1135156D01*
G01X-832663Y1130069D01*
G01X-840587Y1122146D01*
G01X-845674Y1112162D01*
G01X-847427Y1101095D01*
G01X-847427Y981095D01*
G01X-845674Y970028D01*
G01X-840587Y960044D01*
G01X-832663Y952121D01*
G01X-822680Y947034D01*
G01X-811613Y945281D01*
G01X-761613Y945281D01*
G01X-756519Y945645D01*
G01X-759168Y936717D01*
G01X-760061Y927448D01*
G01X-760061Y913598D01*
G01X-764169Y898082D01*
G01X-764427Y882034D01*
G01X-760821Y866394D01*
G01X-753561Y852079D01*
G01X-743075Y839929D01*
G01X-729975Y830654D01*
G01X-715030Y824800D01*
G01X-699117Y822709D01*
G01X-683167Y824504D01*
G01X-668116Y830079D01*
G01X-654846Y839108D01*
G01X-644135Y851061D01*
G01X-636611Y865239D01*
G01X-632714Y880809D01*
G01X-632714Y832984D01*
G01X-1016654Y449044D01*
G01X-1024364Y438996D01*
G01X-1029210Y427296D01*
G01X-1030864Y414739D01*
G01X-1030864Y-43822D01*
G01X-1041275Y-34711D01*
G01X-1053351Y-27959D01*
G01X-1066564Y-23860D01*
G01X-1080341Y-22591D01*
G01X-1094081Y-24209D01*
G01X-1107186Y-28642D01*
G01X-1107186Y43405D01*
G01X-1045195Y105395D01*
G01X-1037486Y115443D01*
G01X-1032639Y127144D01*
G01X-1030986Y139700D01*
G01X-1030986Y437105D01*
G01X-930895Y537195D01*
G01X-923186Y547243D01*
G01X-918339Y558944D01*
G01X-916686Y571500D01*
G01X-916686Y825500D01*
G01X-918339Y838056D01*
G01X-923186Y849757D01*
G01X-930895Y859805D01*
G01X-1022186Y951095D01*
G01X-1022186Y1037500D01*
G01X-1023939Y1048567D01*
G01X-1029026Y1058551D01*
G01X-1036949Y1066474D01*
G01X-1046933Y1071561D01*
G01X-1058000Y1073314D01*
G01X-1228000Y1073314D01*
G01X-1239067Y1071561D01*
G01X-1249051Y1066474D01*
G01X-1256974Y1058551D01*
G01X-1262061Y1048567D01*
G01X-1263814Y1037500D01*
G01X-1263814Y867500D01*
G01X-1262061Y856433D01*
G01X-1256974Y846449D01*
G01X-1249051Y838526D01*
G01X-1239067Y833439D01*
G01X-1228000Y831686D01*
G01X-1058000Y831686D01*
G01X-1050428Y832496D01*
G01X-1043198Y834888D01*
G01X-1013714Y805405D01*
G01X-1013714Y591595D01*
G01X-1113805Y491505D01*
G01X-1121514Y481457D01*
G01X-1126361Y469756D01*
G01X-1128014Y457200D01*
G01X-1128014Y159795D01*
G01X-1190005Y97805D01*
G01X-1197714Y87757D01*
G01X-1202561Y76056D01*
G01X-1204214Y63500D01*
G01X-1204214Y-296745D01*
G01X-1205079Y-298316D01*
G01X-1206666Y-300473D01*
G01X-1214579Y-312391D01*
G01X-1219752Y-325729D01*
G01X-1221945Y-339866D01*
G01X-1221054Y-354144D01*
G01X-1217122Y-367899D01*
G01X-1210331Y-380490D01*
G01X-1200997Y-391332D01*
G01X-1189556Y-399920D01*
G01X-1176539Y-405855D01*
G01X-1162552Y-408859D01*
G01X-1148246Y-408794D01*
G01X-1134287Y-405662D01*
G01X-1125322Y-416236D01*
G01X-1114354Y-424716D01*
G01X-1101863Y-430730D01*
G01X-1088395Y-434015D01*
G01X-1074537Y-434428D01*
G01X-1150395Y-510286D01*
G01X-1350845Y-510286D01*
G01X-1352416Y-509421D01*
G01X-1354573Y-507834D01*
G01X-1355068Y-507426D01*
G01X-1342985Y-502015D01*
G01X-1332217Y-494310D01*
G01X-1323194Y-484621D01*
G01X-1316276Y-473332D01*
G01X-1311738Y-460893D01*
G01X-1309762Y-447801D01*
G01X-1310427Y-434578D01*
G01X-1313705Y-421750D01*
G01X-1319466Y-409829D01*
G01X-1327480Y-399290D01*
G01X-1327480Y445411D01*
G01X-1186933Y585957D01*
G01X-1165851Y579867D01*
G01X-1144014Y577690D01*
G01X-1122144Y579500D01*
G01X-1100962Y585236D01*
G01X-1081167Y594708D01*
G01X-1063413Y607605D01*
G01X-1048284Y623501D01*
G01X-1036280Y641872D01*
G01X-1027797Y662111D01*
G01X-1023115Y683550D01*
G01X-1022388Y705483D01*
G01X-1025641Y727185D01*
G01X-1032766Y747941D01*
G01X-1043528Y767066D01*
G01X-1057572Y783928D01*
G01X-1074434Y797972D01*
G01X-1093559Y808734D01*
G01X-1114315Y815859D01*
G01X-1136017Y819112D01*
G01X-1157950Y818385D01*
G01X-1179389Y813703D01*
G01X-1199628Y805220D01*
G01X-1217999Y793216D01*
G01X-1233895Y778087D01*
G01X-1246792Y760333D01*
G01X-1256264Y740538D01*
G01X-1262000Y719356D01*
G01X-1263810Y697486D01*
G01X-1261633Y675649D01*
G01X-1255543Y654567D01*
G01X-1410299Y499810D01*
G01X-1418009Y489763D01*
G01X-1422855Y478062D01*
G01X-1424508Y465506D01*
G01X-1424508Y-399290D01*
G01X-1430363Y-406531D01*
G01X-1435145Y-414521D01*
G01X-1446366Y-403959D01*
G01X-1459722Y-396271D01*
G01X-1474492Y-391875D01*
G01X-1489878Y-391005D01*
G01X-1505049Y-393711D01*
G01X-1519186Y-399845D01*
G01X-1531525Y-409076D01*
G01X-1541401Y-420907D01*
G01X-1548279Y-434697D01*
G01X-1551789Y-449702D01*
G01X-1565677Y-435814D01*
G01X-1568145Y-420080D01*
G01X-1574294Y-405389D01*
G01X-1583768Y-392587D01*
G01X-1596020Y-382413D01*
G01X-1610346Y-375454D01*
G01X-1625917Y-372111D01*
G01X-1641836Y-372577D01*
G01X-1641836Y-351545D01*
G01X-1502395Y-212105D01*
G01X-1494686Y-202057D01*
G01X-1489839Y-190356D01*
G01X-1488186Y-177800D01*
G01X-1488186Y619247D01*
G01X-1473155Y604711D01*
G01X-1455843Y592984D01*
G01X-1436768Y584419D01*
G01X-1416501Y579270D01*
G01X-1395651Y577694D01*
G01X-1374841Y579736D01*
G01X-1354695Y585335D01*
G01X-1335816Y594325D01*
G01X-1318770Y606435D01*
G01X-1304067Y621303D01*
G01X-1292148Y638483D01*
G01X-1283370Y657461D01*
G01X-1277996Y677669D01*
G01X-1276186Y698500D01*
G01X-1277996Y719331D01*
G01X-1283370Y739539D01*
G01X-1292148Y758517D01*
G01X-1304067Y775697D01*
G01X-1318770Y790565D01*
G01X-1335816Y802675D01*
G01X-1354695Y811665D01*
G01X-1374841Y817264D01*
G01X-1395651Y819306D01*
G01X-1416501Y817730D01*
G01X-1436768Y812581D01*
G01X-1455843Y804016D01*
G01X-1473155Y792289D01*
G01X-1488186Y777753D01*
G01X-1488186Y873247D01*
G01X-1473155Y858711D01*
G01X-1455843Y846984D01*
G01X-1436768Y838419D01*
G01X-1416501Y833270D01*
G01X-1395651Y831694D01*
G01X-1374841Y833736D01*
G01X-1354695Y839335D01*
G01X-1335816Y848325D01*
G01X-1318770Y860435D01*
G01X-1304067Y875303D01*
G01X-1292148Y892483D01*
G01X-1283370Y911461D01*
G01X-1277996Y931669D01*
G01X-1276186Y952500D01*
G01X-1277996Y973331D01*
G01X-1283370Y993539D01*
G01X-1292148Y1012517D01*
G01X-1304067Y1029697D01*
G01X-1318770Y1044565D01*
G01X-1335816Y1056675D01*
G01X-1354695Y1065665D01*
G01X-1374841Y1071264D01*
G01X-1395651Y1073306D01*
G01X-1416501Y1071730D01*
G01X-1436768Y1066581D01*
G01X-1455843Y1058016D01*
G01X-1473155Y1046289D01*
G01X-1488186Y1031753D01*
G01X-1488186Y1046990D01*
G01X-1478661Y1060121D01*
G01X-1472610Y1075171D01*
G01X-1470393Y1091240D01*
G01X-1472144Y1107367D01*
G01X-1477757Y1122586D01*
G01X-1486898Y1135987D01*
G01X-1499019Y1146768D01*
G01X-1513394Y1154284D01*
G01X-1529164Y1158084D01*
G01X-1545385Y1157943D01*
G01X-1561086Y1153868D01*
G01X-1575328Y1146102D01*
G01X-1587258Y1135112D01*
G01X-1596164Y1121553D01*
G01X-1601511Y1106238D01*
G01X-1602980Y1090084D01*
G01X-1600483Y1074055D01*
G01X-1594170Y1059113D01*
G01X-1613635Y1067390D01*
G01X-1634245Y1072146D01*
G01X-1655368Y1073235D01*
G01X-1676358Y1070623D01*
G01X-1696570Y1064390D01*
G01X-1715386Y1054727D01*
G01X-1715386Y1065400D01*
G01X-1716416Y1075346D01*
G01X-1719464Y1084870D01*
G01X-1724400Y1093567D01*
G01X-1726420Y1108498D01*
G01X-1731759Y1122589D01*
G01X-1740140Y1135110D01*
G01X-1751132Y1145416D01*
G01X-1764167Y1152975D01*
G01X-1778572Y1157396D01*
G01X-1793603Y1158451D01*
G01X-1808484Y1156085D01*
G01X-1822446Y1150421D01*
G01X-1834770Y1141752D01*
G01X-1844819Y1130524D01*
G01X-1852073Y1117317D01*
G01X-1856159Y1102814D01*
G01X-1856865Y1087763D01*
G01X-1854156Y1072941D01*
G01X-1848170Y1059113D01*
G01X-1867399Y1067314D01*
G01X-1887754Y1072077D01*
G01X-1908625Y1073259D01*
G01X-1929388Y1070827D01*
G01X-1949420Y1064851D01*
G01X-1968123Y1055512D01*
G01X-1984936Y1043089D01*
G01X-1999355Y1027953D01*
G01X-2010949Y1010558D01*
G01X-2019371Y991425D01*
G01X-2024369Y971127D01*
G01X-2025793Y950270D01*
G01X-2023601Y929481D01*
G01X-2017857Y909381D01*
G01X-2008735Y890572D01*
G01X-1996506Y873617D01*
G01X-1981538Y859023D01*
G01X-1964278Y847229D01*
G01X-1945244Y838586D01*
G01X-1925005Y833354D01*
G01X-1904166Y831689D01*
G01X-1883353Y833641D01*
G01X-1863188Y839152D01*
G01X-1844274Y848057D01*
G01X-1827179Y860088D01*
G01X-1812414Y874887D01*
G01X-1812414Y776113D01*
G01X-1827301Y791014D01*
G01X-1844550Y803103D01*
G01X-1863636Y812012D01*
G01X-1883980Y817471D01*
G01X-1904963Y819314D01*
G01X-1925946Y817484D01*
G01X-1946294Y812038D01*
G01X-1965385Y803140D01*
G01X-1982642Y791062D01*
G01X-1997538Y776170D01*
G01X-2009622Y758918D01*
G01X-2018525Y739829D01*
G01X-2023978Y719483D01*
G01X-2025814Y698500D01*
G01X-2023978Y677517D01*
G01X-2018525Y657171D01*
G01X-2009622Y638082D01*
G01X-1997538Y620830D01*
G01X-1982642Y605938D01*
G01X-1965385Y593860D01*
G01X-1946294Y584962D01*
G01X-1925946Y579516D01*
G01X-1904963Y577686D01*
G01X-1883980Y579529D01*
G01X-1863636Y584988D01*
G01X-1844550Y593897D01*
G01X-1827301Y605986D01*
G01X-1812414Y620887D01*
G01X-1812414Y609600D01*
G01X-1810761Y597044D01*
G01X-1805914Y585343D01*
G01X-1798205Y575295D01*
G01X-1712214Y489305D01*
G01X-1712214Y368300D01*
G01X-1710561Y355744D01*
G01X-1705714Y344043D01*
G01X-1698005Y333995D01*
G01X-1636014Y272005D01*
G01X-1636014Y-145005D01*
G01X-1716786Y-225777D01*
G01X-1716786Y232145D01*
G01X-1714336Y245312D01*
G01X-1715580Y258648D01*
G01X-1720423Y271135D01*
G01X-1728495Y281822D01*
G01X-2123401Y676728D01*
G01X-2117311Y697811D01*
G01X-2115134Y719647D01*
G01X-2116944Y741517D01*
G01X-2122680Y762699D01*
G01X-2132152Y782494D01*
G01X-2145049Y800249D01*
G01X-2160945Y815378D01*
G01X-2179316Y827382D01*
G01X-2199555Y835865D01*
G01X-2220994Y840547D01*
G01X-2242927Y841274D01*
G01X-2264629Y838021D01*
G01X-2285385Y830896D01*
G01X-2304510Y820134D01*
G01X-2321372Y806090D01*
G01X-2335416Y789228D01*
G01X-2346178Y770103D01*
G01X-2353303Y749347D01*
G01X-2356556Y727645D01*
G01X-2355829Y705712D01*
G01X-2351147Y684273D01*
G01X-2342664Y664034D01*
G01X-2330660Y645663D01*
G01X-2315531Y629767D01*
G01X-2297777Y616870D01*
G01X-2277982Y607397D01*
G01X-2256800Y601662D01*
G01X-2234930Y599852D01*
G01X-2213093Y602029D01*
G01X-2192011Y608119D01*
G01X-1813814Y229923D01*
G01X-1813814Y-522649D01*
G01X-1812161Y-535206D01*
G01X-1807314Y-546906D01*
G01X-1799605Y-556954D01*
G01X-1770072Y-586486D01*
G01X-1885190Y-586486D01*
G01X-1898017Y-577130D01*
G01X-1912700Y-571092D01*
G01X-1928397Y-568716D01*
G01X-1944209Y-570140D01*
G01X-1959230Y-575281D01*
G01X-1972598Y-583845D01*
G01X-1983548Y-595341D01*
G01X-1991451Y-609110D01*
G01X-1995855Y-624363D01*
G01X-1996508Y-640226D01*
G01X-1993371Y-655789D01*
G01X-1986625Y-670161D01*
G01X-1976657Y-682517D01*
G01X-1964037Y-692150D01*
G01X-1974756Y-700004D01*
G01X-1983693Y-709837D01*
G01X-1990491Y-721254D01*
G01X-1994877Y-733798D01*
G01X-1996673Y-746964D01*
G01X-2229895Y-980186D01*
G01X-2253490Y-980186D01*
G01X-2265861Y-971088D01*
G01X-2279994Y-965079D01*
G01X-2295129Y-962482D01*
G01X-2310456Y-963436D01*
G01X-2325153Y-967890D01*
G01X-2338431Y-975606D01*
G01X-2349578Y-986168D01*
G01X-2357997Y-999011D01*
G01X-2363236Y-1013447D01*
G01X-2365014Y-1028700D01*
G01X-2363236Y-1043953D01*
G01X-2357997Y-1058389D01*
G01X-2349578Y-1071232D01*
G01X-2338431Y-1081794D01*
G01X-2325153Y-1089510D01*
G01X-2310456Y-1093964D01*
G01X-2295129Y-1094918D01*
G01X-2279994Y-1092321D01*
G01X-2265861Y-1086312D01*
G01X-2253490Y-1077214D01*
G01X-2209800Y-1077214D01*
G01X-2197244Y-1075561D01*
G01X-2185543Y-1070714D01*
G01X-2175495Y-1063005D01*
G01X-1978914Y-866423D01*
G01X-1978914Y-1028246D01*
G01X-1977261Y-1040802D01*
G01X-1972414Y-1052503D01*
G01X-1964705Y-1062550D01*
G01X-1672150Y-1355105D01*
G01X-1662103Y-1362814D01*
G01X-1650402Y-1367661D01*
G01X-1637846Y-1369314D01*
G01X-406854Y-1369314D01*
G01X-394298Y-1367661D01*
G01X-382597Y-1362814D01*
G01X-372550Y-1355105D01*
G01X-224323Y-1206878D01*
G01X-218246Y-1218774D01*
G01X-209719Y-1229056D01*
G01X-199152Y-1237228D01*
G01X-187056Y-1242896D01*
G01X-174014Y-1245787D01*
G01X-160656Y-1245760D01*
G01X-147626Y-1242817D01*
G01X-135553Y-1237101D01*
G01X-125019Y-1228887D01*
G01X-116532Y-1218571D01*
G01X-110503Y-1206651D01*
G01X-107221Y-1193702D01*
G01X-61572Y-1148053D01*
G01X-61572Y-1203993D01*
G01X-59819Y-1215060D01*
G01X-54732Y-1225044D01*
G01X-46809Y-1232967D01*
G01X-36825Y-1238054D01*
G01X-25758Y-1239807D01*
G01X36341Y-1239807D01*
G01X20547Y-1247079D01*
G01X6543Y-1257386D01*
G01X-5096Y-1270304D01*
G01X-13892Y-1285303D01*
G01X-19484Y-1301767D01*
G01X-21642Y-1319021D01*
G01X-20278Y-1336355D01*
G01X-15448Y-1353059D01*
G01X-7350Y-1368446D01*
G01X3684Y-1381884D01*
G01X17201Y-1392823D01*
G01X32644Y-1400812D01*
G01X49382Y-1405524D01*
G01X-2334144Y-1405524D01*
G01X-2348427Y-1403915D01*
G01X-2361993Y-1399168D01*
G01X-2374163Y-1391521D01*
G01X-2384327Y-1381358D01*
G01X-2391974Y-1369187D01*
G01X-2396721Y-1355621D01*
G01X-2398330Y-1341338D01*
G01X-2398330Y297662D01*
G01X-2356758Y297662D01*
G01X-2356758Y127662D01*
G01X-2355005Y116595D01*
G01X-2349918Y106611D01*
G01X-2341995Y98688D01*
G01X-2332011Y93601D01*
G01X-2320944Y91848D01*
G01X-2150944Y91848D01*
G01X-2139877Y93601D01*
G01X-2129893Y98688D01*
G01X-2121970Y106611D01*
G01X-2116883Y116595D01*
G01X-2115130Y127662D01*
G01X-2115130Y297662D01*
G01X-2116719Y308209D01*
G01X-2105914Y297405D01*
G01X-2105914Y-119890D01*
G01X-2115012Y-132261D01*
G01X-2121021Y-146394D01*
G01X-2123618Y-161529D01*
G01X-2122664Y-176856D01*
G01X-2118210Y-191553D01*
G01X-2110494Y-204831D01*
G01X-2099932Y-215978D01*
G01X-2087089Y-224397D01*
G01X-2072653Y-229636D01*
G01X-2057400Y-231414D01*
G01X-2057400Y-231414D01*
G01X-2042147Y-229636D01*
G01X-2027711Y-224397D01*
G01X-2014868Y-215978D01*
G01X-2004306Y-204831D01*
G01X-1996590Y-191553D01*
G01X-1992136Y-176856D01*
G01X-1991182Y-161529D01*
G01X-1993779Y-146394D01*
G01X-1999788Y-132261D01*
G01X-2008886Y-119890D01*
G01X-2008886Y317500D01*
G01X-2010539Y330056D01*
G01X-2015386Y341757D01*
G01X-2023095Y351805D01*
G01X-2116967Y445676D01*
G01X-2115133Y467479D01*
G01X-2117262Y489256D01*
G01X-2123283Y510292D01*
G01X-2133000Y529896D01*
G01X-2146094Y547426D01*
G01X-2162134Y562308D01*
G01X-2180596Y574052D01*
G01X-2200873Y582273D01*
G01X-2222301Y586703D01*
G01X-2244176Y587195D01*
G01X-2265781Y583733D01*
G01X-2286407Y576432D01*
G01X-2305378Y565530D01*
G01X-2322071Y551385D01*
G01X-2335940Y534461D01*
G01X-2346529Y515313D01*
G01X-2353490Y494570D01*
G01X-2356596Y472911D01*
G01X-2355744Y451047D01*
G01X-2350963Y429695D01*
G01X-2342410Y409556D01*
G01X-2330364Y391290D01*
G01X-2315221Y375496D01*
G01X-2297478Y362693D01*
G01X-2277716Y353299D01*
G01X-2256584Y347624D01*
G01X-2234776Y345854D01*
G01X-2213005Y348046D01*
G01X-2191987Y354128D01*
G01X-2172411Y363902D01*
G01X-2140396Y331887D01*
G01X-2150944Y333476D01*
G01X-2320944Y333476D01*
G01X-2332011Y331723D01*
G01X-2341995Y326636D01*
G01X-2349918Y318713D01*
G01X-2355005Y308729D01*
G01X-2356758Y297662D01*
G01X-2398330Y297662D01*
G01X-2398330Y974662D01*
G01X-2356758Y974662D01*
G01X-2354922Y953683D01*
G01X-2349472Y933341D01*
G01X-2340572Y914255D01*
G01X-2328493Y897004D01*
G01X-2313602Y882113D01*
G01X-2296351Y870034D01*
G01X-2277265Y861134D01*
G01X-2256923Y855683D01*
G01X-2235944Y853848D01*
G01X-2235944Y853848D01*
G01X-2214965Y855683D01*
G01X-2194623Y861134D01*
G01X-2175537Y870034D01*
G01X-2158286Y882113D01*
G01X-2143395Y897004D01*
G01X-2131316Y914255D01*
G01X-2122416Y933341D01*
G01X-2116966Y953683D01*
G01X-2115130Y974662D01*
G01X-2116966Y995641D01*
G01X-2122416Y1015983D01*
G01X-2131316Y1035069D01*
G01X-2143395Y1052319D01*
G01X-2158286Y1067211D01*
G01X-2175537Y1079290D01*
G01X-2194623Y1088190D01*
G01X-2214965Y1093640D01*
G01X-2235944Y1095476D01*
G01X-2256923Y1093640D01*
G01X-2277265Y1088190D01*
G01X-2296351Y1079290D01*
G01X-2313602Y1067211D01*
G01X-2328493Y1052319D01*
G01X-2340572Y1035069D01*
G01X-2349472Y1015983D01*
G01X-2354922Y995641D01*
G01X-2356758Y974662D01*
G01X-2398330Y974662D01*
G01X-2398330Y1341338D01*
G01X-2396791Y1355000D01*
G01X-2356014Y1355000D01*
G01X-2356014Y1185000D01*
G01X-2354261Y1173933D01*
G01X-2349174Y1163949D01*
G01X-2341251Y1156026D01*
G01X-2331267Y1150939D01*
G01X-2320200Y1149186D01*
G01X-2150200Y1149186D01*
G01X-2150200Y1149186D01*
G01X-2139133Y1150939D01*
G01X-2129149Y1156026D01*
G01X-2121226Y1163949D01*
G01X-2116139Y1173933D01*
G01X-2114386Y1185000D01*
G01X-2114386Y1270000D01*
G01X-2102014Y1270000D01*
G01X-2100178Y1249021D01*
G01X-2094728Y1228679D01*
G01X-2085828Y1209593D01*
G01X-2073749Y1192342D01*
G01X-2058858Y1177451D01*
G01X-2041607Y1165372D01*
G01X-2022521Y1156472D01*
G01X-2002179Y1151022D01*
G01X-1981200Y1149186D01*
G01X-1960221Y1151022D01*
G01X-1939879Y1156472D01*
G01X-1920793Y1165372D01*
G01X-1903542Y1177451D01*
G01X-1888651Y1192342D01*
G01X-1876572Y1209593D01*
G01X-1867672Y1228679D01*
G01X-1862222Y1249021D01*
G01X-1860386Y1270000D01*
G01X-1848014Y1270000D01*
G01X-1846178Y1249021D01*
G01X-1840728Y1228679D01*
G01X-1831828Y1209593D01*
G01X-1819749Y1192342D01*
G01X-1804858Y1177451D01*
G01X-1787607Y1165372D01*
G01X-1768521Y1156472D01*
G01X-1748179Y1151022D01*
G01X-1727200Y1149186D01*
G01X-1706221Y1151022D01*
G01X-1685879Y1156472D01*
G01X-1666793Y1165372D01*
G01X-1649542Y1177451D01*
G01X-1634651Y1192342D01*
G01X-1622572Y1209593D01*
G01X-1613672Y1228679D01*
G01X-1608222Y1249021D01*
G01X-1606386Y1270000D01*
G01X-1594014Y1270000D01*
G01X-1592178Y1249021D01*
G01X-1586728Y1228679D01*
G01X-1577828Y1209593D01*
G01X-1565749Y1192342D01*
G01X-1550858Y1177451D01*
G01X-1533607Y1165372D01*
G01X-1514521Y1156472D01*
G01X-1494179Y1151022D01*
G01X-1473200Y1149186D01*
G01X-1452221Y1151022D01*
G01X-1431879Y1156472D01*
G01X-1412793Y1165372D01*
G01X-1395542Y1177451D01*
G01X-1380651Y1192342D01*
G01X-1368572Y1209593D01*
G01X-1359672Y1228679D01*
G01X-1354222Y1249021D01*
G01X-1352386Y1270000D01*
G01X-1354222Y1290979D01*
G01X-1359672Y1311321D01*
G01X-1368572Y1330407D01*
G01X-1380651Y1347658D01*
G01X-1395542Y1362549D01*
G01X-1412793Y1374628D01*
G01X-1431879Y1383528D01*
G01X-1452221Y1388978D01*
G01X-1473200Y1390814D01*
G01X-1494179Y1388978D01*
G01X-1514521Y1383528D01*
G01X-1533607Y1374628D01*
G01X-1550858Y1362549D01*
G01X-1565749Y1347658D01*
G01X-1577828Y1330407D01*
G01X-1586728Y1311321D01*
G01X-1592178Y1290979D01*
G01X-1594014Y1270000D01*
G01X-1594014Y1270000D01*
G01X-1606386Y1270000D01*
G01X-1608222Y1290979D01*
G01X-1613672Y1311321D01*
G01X-1622572Y1330407D01*
G01X-1634651Y1347658D01*
G01X-1649542Y1362549D01*
G01X-1666793Y1374628D01*
G01X-1685879Y1383528D01*
G01X-1706221Y1388978D01*
G01X-1727200Y1390814D01*
G01X-1748179Y1388978D01*
G01X-1768521Y1383528D01*
G01X-1787607Y1374628D01*
G01X-1804858Y1362549D01*
G01X-1819749Y1347658D01*
G01X-1831828Y1330407D01*
G01X-1840728Y1311321D01*
G01X-1846178Y1290979D01*
G01X-1848014Y1270000D01*
G01X-1848014Y1270000D01*
G01X-1860386Y1270000D01*
G01X-1862222Y1290979D01*
G01X-1867672Y1311321D01*
G01X-1876572Y1330407D01*
G01X-1888651Y1347658D01*
G01X-1903542Y1362549D01*
G01X-1920793Y1374628D01*
G01X-1939879Y1383528D01*
G01X-1960221Y1388978D01*
G01X-1981200Y1390814D01*
G01X-2002179Y1388978D01*
G01X-2022521Y1383528D01*
G01X-2041607Y1374628D01*
G01X-2058858Y1362549D01*
G01X-2073749Y1347658D01*
G01X-2085828Y1330407D01*
G01X-2094728Y1311321D01*
G01X-2100178Y1290979D01*
G01X-2102014Y1270000D01*
G01X-2102014Y1270000D01*
G01X-2114386Y1270000D01*
G01X-2114386Y1355000D01*
G01X-2116139Y1366067D01*
G01X-2121226Y1376051D01*
G01X-2129149Y1383974D01*
G01X-2139133Y1389061D01*
G01X-2150200Y1390814D01*
G01X-2320200Y1390814D01*
G01X-2331267Y1389061D01*
G01X-2341251Y1383974D01*
G01X-2349174Y1376051D01*
G01X-2354261Y1366067D01*
G01X-2356014Y1355000D01*
G01X-2396791Y1355000D01*
G01X-2396721Y1355621D01*
G01X-2391974Y1369187D01*
G01X-2384327Y1381358D01*
G01X-2374163Y1391521D01*
G01X-2361993Y1399168D01*
G01X-2348427Y1403915D01*
G01X-2334144Y1405524D01*
G37*
G36*
G01X-1378896Y-622595D02*
G01X-1366062Y-617455D01*
G01X-1354573Y-609766D01*
G01X-1352416Y-608179D01*
G01X-1350845Y-607314D01*
G01X-1130300Y-607314D01*
G01X-1117744Y-605661D01*
G01X-1106043Y-600814D01*
G01X-1095995Y-593105D01*
G01X-1078042Y-575151D01*
G01X-1068541Y-587339D01*
G01X-1056477Y-596997D01*
G01X-1042505Y-603601D01*
G01X-1027385Y-606792D01*
G01X-1024738Y-607195D01*
G01X-1023014Y-607695D01*
G01X-1008409Y-622300D01*
G01X-1075705Y-689595D01*
G01X-1083414Y-699643D01*
G01X-1088261Y-711344D01*
G01X-1089914Y-723900D01*
G01X-1089914Y-777338D01*
G01X-1090779Y-778910D01*
G01X-1092366Y-781067D01*
G01X-1100592Y-793596D01*
G01X-1105794Y-807652D01*
G01X-1107707Y-822518D01*
G01X-1106232Y-837433D01*
G01X-1101446Y-851636D01*
G01X-1093592Y-864402D01*
G01X-1083072Y-875078D01*
G01X-1070424Y-883119D01*
G01X-1056292Y-888114D01*
G01X-1041400Y-889807D01*
G01X-1026508Y-888114D01*
G01X-1012376Y-883119D01*
G01X-999728Y-875078D01*
G01X-989208Y-864402D01*
G01X-981354Y-851636D01*
G01X-976568Y-837433D01*
G01X-975093Y-822518D01*
G01X-977006Y-807652D01*
G01X-982208Y-793596D01*
G01X-990434Y-781067D01*
G01X-992021Y-778910D01*
G01X-992886Y-777338D01*
G01X-992886Y-743995D01*
G01X-932405Y-683514D01*
G01X-330654Y-683514D01*
G01X-318098Y-681861D01*
G01X-306397Y-677014D01*
G01X-296350Y-669305D01*
G01X-150114Y-523069D01*
G01X-150114Y-760204D01*
G01X-163966Y-750986D01*
G01X-179336Y-744613D01*
G01X-195647Y-741327D01*
G01X-212286Y-741250D01*
G01X-228626Y-744386D01*
G01X-244055Y-750616D01*
G01X-257991Y-759707D01*
G01X-269911Y-771316D01*
G01X-279366Y-785007D01*
G01X-286002Y-800265D01*
G01X-289568Y-816517D01*
G01X-289931Y-833152D01*
G01X-287077Y-849545D01*
G01X-281113Y-865078D01*
G01X-272264Y-879168D01*
G01X-260861Y-891286D01*
G01X-577881Y-891286D01*
G01X-566077Y-878643D01*
G01X-557047Y-863890D01*
G01X-551160Y-847626D01*
G01X-548653Y-830512D01*
G01X-549630Y-813242D01*
G01X-554050Y-796519D01*
G01X-561734Y-781023D01*
G01X-572369Y-767382D01*
G01X-585524Y-756151D01*
G01X-600664Y-747786D01*
G01X-617173Y-742627D01*
G01X-634382Y-740884D01*
G01X-651591Y-742627D01*
G01X-668101Y-747786D01*
G01X-683241Y-756151D01*
G01X-696396Y-767382D01*
G01X-707031Y-781023D01*
G01X-714715Y-796519D01*
G01X-719135Y-813242D01*
G01X-720111Y-830512D01*
G01X-717605Y-847626D01*
G01X-711717Y-863890D01*
G01X-702688Y-878643D01*
G01X-690883Y-891286D01*
G01X-1110205Y-891286D01*
G01X-1378896Y-622595D01*
G37*
G36*
G01X-662473Y-988314D02*
G01X-662939Y-1004233D01*
G01X-659596Y-1019805D01*
G01X-652637Y-1034130D01*
G01X-642463Y-1046383D01*
G01X-629661Y-1055856D01*
G01X-614970Y-1062005D01*
G01X-599236Y-1064473D01*
G01X-563963Y-1099747D01*
G01X-933454Y-1099747D01*
G01X-1044887Y-988314D01*
G01X-662473Y-988314D01*
G37*
G36*
G01X-929987Y222911D02*
G01X-927340Y222507D01*
G01X-925617Y222008D01*
G01X-898423Y194814D01*
G01X-898423Y-102591D01*
G01X-896770Y-115147D01*
G01X-891924Y-126848D01*
G01X-884214Y-136895D01*
G01X-771145Y-249964D01*
G01X-761098Y-257674D01*
G01X-749397Y-262520D01*
G01X-736841Y-264173D01*
G01X-161747Y-264173D01*
G01X-166571Y-278823D01*
G01X-167881Y-294191D01*
G01X-165605Y-309446D01*
G01X-159867Y-323763D01*
G01X-150976Y-336367D01*
G01X-365495Y-550886D01*
G01X-942605Y-550886D01*
G01X-954405Y-539086D01*
G01X-954905Y-537362D01*
G01X-955308Y-534715D01*
G01X-958499Y-519595D01*
G01X-965103Y-505623D01*
G01X-974761Y-493559D01*
G01X-986949Y-484058D01*
G01X-948045Y-445154D01*
G01X-940335Y-435107D01*
G01X-935489Y-423406D01*
G01X-933836Y-410850D01*
G01X-933836Y223376D01*
G01X-929987Y222911D01*
G37*
G36*
G01X-764286Y437105D02*
G01X-691105Y510286D01*
G01X-557083Y510286D01*
G01X-565761Y502301D01*
G01X-571375Y491930D01*
G01X-573316Y480299D01*
G01X-573316Y180299D01*
G01X-571563Y169232D01*
G01X-566476Y159248D01*
G01X-558553Y151325D01*
G01X-548569Y146238D01*
G01X-537502Y144485D01*
G01X-337502Y144485D01*
G01X-326435Y146238D01*
G01X-316452Y151325D01*
G01X-308528Y159248D01*
G01X-303441Y169232D01*
G01X-301688Y180299D01*
G01X-301688Y480299D01*
G01X-303441Y491366D01*
G01X-308528Y501350D01*
G01X-316452Y509273D01*
G01X-326435Y514360D01*
G01X-337502Y516113D01*
G01X-383348Y516113D01*
G01X-377417Y519895D01*
G01X-372095Y524495D01*
G01X-251456Y645135D01*
G01X-253329Y633703D01*
G01X-253329Y483704D01*
G01X-251893Y473663D01*
G01X-247700Y464428D01*
G01X-241086Y456739D01*
G01X-237353Y451718D01*
G01X-236029Y445604D01*
G01X-236029Y442301D01*
G01X-236278Y441892D01*
G01X-237415Y440568D01*
G01X-246582Y429089D01*
G01X-252997Y415875D01*
G01X-256345Y401572D01*
G01X-256463Y386883D01*
G01X-253344Y372529D01*
G01X-247141Y359213D01*
G01X-238159Y347589D01*
G01X-226838Y338229D01*
G01X-213735Y331590D01*
G01X-199491Y327998D01*
G01X-184806Y327631D01*
G01X-170401Y330505D01*
G01X-156981Y336481D01*
G01X-145207Y345264D01*
G01X-135655Y356423D01*
G01X-128794Y369412D01*
G01X-124515Y355025D01*
G01X-117110Y341968D01*
G01X-106958Y330911D01*
G01X-94580Y322420D01*
G01X-80609Y316931D01*
G01X-65762Y314725D01*
G01X-50799Y315914D01*
G01X-36487Y320437D01*
G01X-23558Y328064D01*
G01X-12676Y338403D01*
G01X-4398Y350925D01*
G01X852Y364987D01*
G01X2804Y379870D01*
G01X1360Y394811D01*
G01X-3407Y409044D01*
G01X-11254Y421840D01*
G01X-12937Y424258D01*
G01X-13983Y426237D01*
G01X-13983Y445604D01*
G01X-12659Y451718D01*
G01X-8926Y456739D01*
G01X-3838Y462226D01*
G01X0Y468650D01*
G01X3838Y462226D01*
G01X8926Y456739D01*
G01X12659Y451718D01*
G01X13983Y445604D01*
G01X13983Y138403D01*
G01X12659Y132288D01*
G01X8926Y127268D01*
G01X3838Y121781D01*
G01X0Y115357D01*
G01X-5526Y123866D01*
G01X-13216Y130484D01*
G01X-22453Y134680D01*
G01X-32497Y136117D01*
G01X-92497Y136117D01*
G01X-102547Y134678D01*
G01X-111790Y130476D01*
G01X-119483Y123849D01*
G01X-125006Y115329D01*
G01X-130529Y123849D01*
G01X-138222Y130476D01*
G01X-147465Y134678D01*
G01X-157516Y136117D01*
G01X-217515Y136117D01*
G01X-228583Y134364D01*
G01X-238566Y129277D01*
G01X-246490Y121354D01*
G01X-251577Y111370D01*
G01X-253329Y100303D01*
G01X-253329Y74041D01*
G01X-255615Y73817D01*
G01X-495397Y73817D01*
G01X-507953Y72164D01*
G01X-519654Y67318D01*
G01X-529701Y59608D01*
G01X-560468Y28841D01*
G01X-562191Y28342D01*
G01X-564838Y27939D01*
G01X-580184Y24672D01*
G01X-594333Y17890D01*
G01X-606493Y7975D01*
G01X-615983Y-4520D01*
G01X-622272Y-18895D01*
G01X-625008Y-34344D01*
G01X-624037Y-50004D01*
G01X-619414Y-64998D01*
G01X-611398Y-78486D01*
G01X-754605Y-78486D01*
G01X-764286Y-68805D01*
G01X-764286Y437105D01*
G37*
G36*
G01X-573316Y713699D02*
G01X-571563Y702632D01*
G01X-566476Y692648D01*
G01X-558553Y684725D01*
G01X-548569Y679638D01*
G01X-537502Y677885D01*
G01X-355924Y677885D01*
G01X-426495Y607314D01*
G01X-711200Y607314D01*
G01X-722500Y605980D01*
G01X-573316Y755164D01*
G01X-573316Y713699D01*
G37*
G36*
G01X-637286Y1135890D02*
G01X-627883Y1148802D01*
G01X-621840Y1163588D01*
G01X-619508Y1179390D01*
G01X-621022Y1195291D01*
G01X-549718Y1195291D01*
G01X-618505Y1126505D01*
G01X-623772Y1120266D01*
G01X-627918Y1113232D01*
G01X-631752Y1120868D01*
G01X-637286Y1127379D01*
G01X-637286Y1135890D01*
G37*
G36*
G01X-301688Y1013699D02*
G01X-303441Y1024766D01*
G01X-308528Y1034750D01*
G01X-316452Y1042673D01*
G01X-326435Y1047760D01*
G01X-337502Y1049513D01*
G01X-535686Y1049513D01*
G01X-535686Y1072105D01*
G01X-437105Y1170686D01*
G01X340077Y1170686D01*
G01X28192Y858801D01*
G01X20482Y848754D01*
G01X15636Y837053D01*
G01X13983Y824497D01*
G01X13983Y671803D01*
G01X12659Y665688D01*
G01X8926Y660668D01*
G01X3838Y655181D01*
G01X0Y648757D01*
G01X-5526Y657266D01*
G01X-13216Y663884D01*
G01X-22453Y668080D01*
G01X-32497Y669517D01*
G01X-92497Y669517D01*
G01X-102547Y668078D01*
G01X-111790Y663876D01*
G01X-119483Y657249D01*
G01X-125006Y648729D01*
G01X-130529Y657249D01*
G01X-138222Y663876D01*
G01X-147465Y668078D01*
G01X-157516Y669517D01*
G01X-217515Y669517D01*
G01X-228947Y667644D01*
G01X-188832Y707759D01*
G01X-187109Y708258D01*
G01X-184462Y708661D01*
G01X-169786Y711704D01*
G01X-156168Y717965D01*
G01X-144304Y727124D01*
G01X-134800Y738713D01*
G01X-128141Y752141D01*
G01X-124668Y766721D01*
G01X-124557Y781709D01*
G01X-127816Y796339D01*
G01X-134276Y809863D01*
G01X-143609Y821591D01*
G01X-155337Y830924D01*
G01X-168861Y837384D01*
G01X-183491Y840643D01*
G01X-198479Y840532D01*
G01X-213059Y837059D01*
G01X-226487Y830400D01*
G01X-238076Y820896D01*
G01X-247235Y809032D01*
G01X-253496Y795414D01*
G01X-256539Y780738D01*
G01X-256942Y778091D01*
G01X-257441Y776368D01*
G01X-301688Y732121D01*
G01X-301688Y1013699D01*
G37*
G36*
G01X-489775Y1255151D02*
G01X-489775Y1405524D01*
G01X2333343Y1405524D01*
G01X2340060Y1405213D01*
G01X2345931Y1404394D01*
G01X2351699Y1403037D01*
G01X2357316Y1401154D01*
G01X2362737Y1398761D01*
G01X2367914Y1395877D01*
G01X2372801Y1392529D01*
G01X2377360Y1388744D01*
G01X2381550Y1384554D01*
G01X2385335Y1379996D01*
G01X2388683Y1375108D01*
G01X2391567Y1369931D01*
G01X2393960Y1364511D01*
G01X2395843Y1358893D01*
G01X2397199Y1353125D01*
G01X2398018Y1347254D01*
G01X2398330Y1340537D01*
G01X2398330Y-251562D01*
G01X2398018Y-258279D01*
G01X2397199Y-264150D01*
G01X2395843Y-269918D01*
G01X2393960Y-275536D01*
G01X2391567Y-280956D01*
G01X2388683Y-286133D01*
G01X2385335Y-291020D01*
G01X2381550Y-295579D01*
G01X2377360Y-299769D01*
G01X2372801Y-303554D01*
G01X2367914Y-306902D01*
G01X2362737Y-309786D01*
G01X2357317Y-312179D01*
G01X2351699Y-314062D01*
G01X2345931Y-315418D01*
G01X2340060Y-316237D01*
G01X2333343Y-316549D01*
G01X1938381Y-316549D01*
G01X1990105Y-264826D01*
G01X1997814Y-254778D01*
G01X2002661Y-243077D01*
G01X2004314Y-230521D01*
G01X2004314Y88900D01*
G01X2002661Y101456D01*
G01X1997814Y113157D01*
G01X1990105Y123205D01*
G01X1912111Y201198D01*
G01X2132298Y201198D01*
G01X2143365Y202951D01*
G01X2153349Y208038D01*
G01X2161272Y215962D01*
G01X2166359Y225945D01*
G01X2168112Y237012D01*
G01X2168112Y517012D01*
G01X2166359Y528079D01*
G01X2161272Y538063D01*
G01X2153349Y545986D01*
G01X2143365Y551073D01*
G01X2132298Y552826D01*
G01X1882299Y552826D01*
G01X1875194Y552114D01*
G01X1868372Y550007D01*
G01X1876495Y555607D01*
G01X1882783Y563210D01*
G01X1886756Y572241D01*
G01X1888115Y582013D01*
G01X1888115Y642013D01*
G01X1886555Y652468D01*
G01X1882011Y662013D01*
G01X1886555Y671557D01*
G01X1888115Y682013D01*
G01X1888115Y742013D01*
G01X1886555Y752468D01*
G01X1882011Y762013D01*
G01X1886555Y771557D01*
G01X1888115Y782013D01*
G01X1888115Y842013D01*
G01X1886555Y852468D01*
G01X1882011Y862013D01*
G01X1886555Y871557D01*
G01X1888115Y882012D01*
G01X1888115Y942012D01*
G01X1886778Y951709D01*
G01X1882865Y960681D01*
G01X1876669Y968259D01*
G01X1868653Y973876D01*
G01X1875343Y971856D01*
G01X1882299Y971174D01*
G01X2132298Y971174D01*
G01X2143365Y972927D01*
G01X2153349Y978014D01*
G01X2161272Y985937D01*
G01X2166359Y995921D01*
G01X2168112Y1006988D01*
G01X2168112Y1286988D01*
G01X2166359Y1298055D01*
G01X2161272Y1308038D01*
G01X2153349Y1315962D01*
G01X2143365Y1321049D01*
G01X2132298Y1322802D01*
G01X1882299Y1322802D01*
G01X1871232Y1321049D01*
G01X1861248Y1315962D01*
G01X1853325Y1308038D01*
G01X1848238Y1298055D01*
G01X1846485Y1286988D01*
G01X1846485Y1006988D01*
G01X1847822Y997292D01*
G01X1851735Y988319D01*
G01X1857931Y980742D01*
G01X1865947Y975125D01*
G01X1859257Y977144D01*
G01X1852301Y977826D01*
G01X1724914Y977826D01*
G01X1724914Y1021619D01*
G01X1734004Y1033988D01*
G01X1740007Y1048116D01*
G01X1742599Y1063245D01*
G01X1741642Y1078565D01*
G01X1737187Y1093255D01*
G01X1729473Y1106526D01*
G01X1718914Y1117667D01*
G01X1706076Y1126081D01*
G01X1691647Y1131317D01*
G01X1676400Y1133094D01*
G01X1661153Y1131317D01*
G01X1646724Y1126081D01*
G01X1633886Y1117667D01*
G01X1623327Y1106526D01*
G01X1615613Y1093255D01*
G01X1611158Y1078565D01*
G01X1610201Y1063245D01*
G01X1612793Y1048116D01*
G01X1618796Y1033988D01*
G01X1627886Y1021619D01*
G01X1627886Y985295D01*
G01X1625600Y983009D01*
G01X1355105Y1253505D01*
G01X1345057Y1261214D01*
G01X1333356Y1266061D01*
G01X1320800Y1267714D01*
G01X-457200Y1267714D01*
G01X-468986Y1266261D01*
G01X-480066Y1261987D01*
G01X-489775Y1255151D01*
G37*
G36*
G01X92497Y-85510D02*
G01X102540Y-84073D01*
G01X111778Y-79877D01*
G01X119468Y-73259D01*
G01X124993Y-64750D01*
G01X130519Y-73259D01*
G01X138209Y-79877D01*
G01X147447Y-84073D01*
G01X157490Y-85510D01*
G01X217490Y-85510D01*
G01X228557Y-83758D01*
G01X238541Y-78671D01*
G01X246464Y-70747D01*
G01X251551Y-60764D01*
G01X253304Y-49696D01*
G01X253304Y100303D01*
G01X251551Y111370D01*
G01X246464Y121354D01*
G01X238541Y129277D01*
G01X228557Y134364D01*
G01X217490Y136117D01*
G01X157490Y136117D01*
G01X147447Y134680D01*
G01X138209Y130484D01*
G01X130519Y123866D01*
G01X124993Y115357D01*
G01X121156Y121781D01*
G01X116067Y127268D01*
G01X112334Y132288D01*
G01X111011Y138403D01*
G01X111011Y180299D01*
G01X301689Y180299D01*
G01X303441Y169232D01*
G01X308528Y159248D01*
G01X316452Y151325D01*
G01X326435Y146238D01*
G01X337503Y144485D01*
G01X537502Y144485D01*
G01X548569Y146238D01*
G01X558553Y151325D01*
G01X566476Y159248D01*
G01X571563Y169232D01*
G01X573316Y180299D01*
G01X573316Y480299D01*
G01X573316Y480299D01*
G01X571563Y491366D01*
G01X566476Y501350D01*
G01X561031Y506795D01*
G01X656697Y506795D01*
G01X658450Y495728D01*
G01X663537Y485744D01*
G01X671460Y477821D01*
G01X681444Y472734D01*
G01X692511Y470981D01*
G01X772511Y470981D01*
G01X783578Y472734D01*
G01X793561Y477821D01*
G01X801485Y485744D01*
G01X806572Y495728D01*
G01X808325Y506795D01*
G01X808325Y656794D01*
G01X808325Y656794D01*
G01X806572Y667862D01*
G01X801485Y677845D01*
G01X793561Y685769D01*
G01X783578Y690856D01*
G01X772511Y692608D01*
G01X692511Y692608D01*
G01X681444Y690856D01*
G01X671460Y685769D01*
G01X663537Y677845D01*
G01X658450Y667862D01*
G01X656697Y656794D01*
G01X656697Y506795D01*
G01X561031Y506795D01*
G01X558553Y509273D01*
G01X548569Y514360D01*
G01X537502Y516113D01*
G01X337503Y516113D01*
G01X326435Y514360D01*
G01X316452Y509273D01*
G01X308528Y501350D01*
G01X303441Y491366D01*
G01X301689Y480299D01*
G01X301689Y180299D01*
G01X111011Y180299D01*
G01X111011Y445604D01*
G01X112334Y451718D01*
G01X116067Y456739D01*
G01X121156Y462226D01*
G01X124993Y468650D01*
G01X130519Y460141D01*
G01X138209Y453523D01*
G01X147447Y449327D01*
G01X157490Y447890D01*
G01X217490Y447890D01*
G01X228557Y449642D01*
G01X238541Y454729D01*
G01X246464Y462653D01*
G01X251551Y472636D01*
G01X253304Y483704D01*
G01X253304Y633703D01*
G01X251551Y644770D01*
G01X246464Y654754D01*
G01X238541Y662677D01*
G01X228557Y667764D01*
G01X217490Y669517D01*
G01X157490Y669517D01*
G01X147447Y668080D01*
G01X138209Y663884D01*
G01X130519Y657266D01*
G01X124993Y648757D01*
G01X121156Y655181D01*
G01X116067Y660668D01*
G01X112334Y665688D01*
G01X111011Y671803D01*
G01X111011Y804402D01*
G01X301689Y995079D01*
G01X301689Y713699D01*
G01X303441Y702632D01*
G01X308528Y692648D01*
G01X316452Y684725D01*
G01X326435Y679638D01*
G01X337503Y677885D01*
G01X531015Y677885D01*
G01X541691Y667086D01*
G01X554543Y658999D01*
G01X568899Y654047D01*
G01X584004Y652491D01*
G01X599068Y654412D01*
G01X613299Y659709D01*
G01X625952Y668105D01*
G01X636364Y679159D01*
G01X643988Y692292D01*
G01X648424Y706815D01*
G01X782095Y840486D01*
G01X834299Y840486D01*
G01X830331Y831461D01*
G01X828973Y821695D01*
G01X828973Y701695D01*
G01X830726Y690628D01*
G01X835813Y680644D01*
G01X843737Y672721D01*
G01X853720Y667634D01*
G01X864787Y665881D01*
G01X914787Y665881D01*
G01X923910Y667063D01*
G01X932431Y670529D01*
G01X939787Y676051D01*
G01X947144Y670529D01*
G01X955665Y667063D01*
G01X964787Y665881D01*
G01X1014787Y665881D01*
G01X1025854Y667634D01*
G01X1035838Y672721D01*
G01X1043761Y680644D01*
G01X1048848Y690628D01*
G01X1050601Y701695D01*
G01X1050601Y713181D01*
G01X1072410Y713181D01*
G01X1076748Y708843D01*
G01X1078437Y696151D01*
G01X1082533Y684021D01*
G01X1088885Y672905D01*
G01X1097256Y663217D01*
G01X1096675Y656794D01*
G01X1096675Y506795D01*
G01X1098428Y495728D01*
G01X1103515Y485744D01*
G01X1111439Y477821D01*
G01X1121422Y472734D01*
G01X1132489Y470981D01*
G01X1212489Y470981D01*
G01X1223556Y472734D01*
G01X1233540Y477821D01*
G01X1241463Y485744D01*
G01X1246550Y495728D01*
G01X1248303Y506795D01*
G01X1248303Y656794D01*
G01X1246550Y667862D01*
G01X1241463Y677845D01*
G01X1233540Y685769D01*
G01X1223556Y690856D01*
G01X1212489Y692608D01*
G01X1206634Y692608D01*
G01X1209187Y707435D01*
G01X1208331Y722456D01*
G01X1204111Y736897D01*
G01X1196743Y750015D01*
G01X1186607Y761133D01*
G01X1174225Y769680D01*
G01X1160235Y775214D01*
G01X1145357Y777452D01*
G01X1126809Y796000D01*
G01X1116762Y803710D01*
G01X1105061Y808556D01*
G01X1092505Y810209D01*
G01X1050601Y810209D01*
G01X1050601Y821695D01*
G01X1049158Y831759D01*
G01X1044945Y841012D01*
G01X1038301Y848709D01*
G01X1038301Y851713D01*
G01X1036648Y864269D01*
G01X1031802Y875970D01*
G01X1024092Y886017D01*
G01X986805Y923305D01*
G01X976757Y931014D01*
G01X965056Y935861D01*
G01X952500Y937514D01*
G01X861672Y937514D01*
G01X863863Y944460D01*
G01X864603Y951705D01*
G01X864603Y1131705D01*
G01X864592Y1132586D01*
G01X1015008Y1132586D01*
G01X1014997Y1131705D01*
G01X1014997Y951705D01*
G01X1016750Y940638D01*
G01X1021837Y930654D01*
G01X1029760Y922731D01*
G01X1039744Y917644D01*
G01X1050811Y915891D01*
G01X1150811Y915891D01*
G01X1159814Y917041D01*
G01X1168240Y920418D01*
G01X1175546Y925805D01*
G01X1181263Y932855D01*
G01X1186492Y920546D01*
G01X1194086Y909537D01*
G01X1203733Y900275D01*
G01X1215043Y893137D01*
G01X1227556Y888414D01*
G01X1240761Y886297D01*
G01X1254123Y886873D01*
G01X1267097Y890119D01*
G01X1279156Y895901D01*
G01X1289810Y903986D01*
G01X1472263Y903986D01*
G01X1573350Y802898D01*
G01X1558639Y800915D01*
G01X1544738Y795709D01*
G01X1532343Y787541D01*
G01X1522076Y776821D01*
G01X1514450Y764085D01*
G01X1509848Y749972D01*
G01X1508501Y735189D01*
G01X1510476Y720477D01*
G01X1515674Y706573D01*
G01X1523834Y694173D01*
G01X1525421Y692016D01*
G01X1526286Y690445D01*
G01X1526286Y546100D01*
G01X1527939Y533544D01*
G01X1532786Y521843D01*
G01X1540495Y511795D01*
G01X1767586Y284705D01*
G01X1767586Y228600D01*
G01X1769239Y216044D01*
G01X1774086Y204343D01*
G01X1781795Y194295D01*
G01X1907286Y68805D01*
G01X1907286Y-41342D01*
G01X1891844Y-36426D01*
G01X1875671Y-35402D01*
G01X1859732Y-38332D01*
G01X1844980Y-45040D01*
G01X1832296Y-55126D01*
G01X1822436Y-67987D01*
G01X1815990Y-82855D01*
G01X1813343Y-98843D01*
G01X1801090Y-100507D01*
G01X1789358Y-104417D01*
G01X1778556Y-110437D01*
G01X1769060Y-118358D01*
G01X1761200Y-127904D01*
G01X1755249Y-138744D01*
G01X1751413Y-150500D01*
G01X1749827Y-162764D01*
G01X1742705Y-169886D01*
G01X1229095Y-169886D01*
G01X1101105Y-41895D01*
G01X1091057Y-34186D01*
G01X1079356Y-29339D01*
G01X1066800Y-27686D01*
G01X1030438Y-27686D01*
G01X1035191Y-19111D01*
G01X1038123Y-9754D01*
G01X1039114Y0D01*
G01X1039114Y127000D01*
G01X1037836Y138063D01*
G01X1034068Y148544D01*
G01X1028010Y157889D01*
G01X1019024Y173298D01*
G01X1011810Y189611D01*
G01X1019449Y186908D01*
G01X1027500Y185992D01*
G01X1077500Y185992D01*
G01X1088567Y187744D01*
G01X1098551Y192831D01*
G01X1106474Y200755D01*
G01X1111561Y210738D01*
G01X1113314Y221806D01*
G01X1113314Y230663D01*
G01X1115600Y230886D01*
G01X1206500Y230886D01*
G01X1219056Y232539D01*
G01X1230757Y237386D01*
G01X1240805Y245095D01*
G01X1309768Y314059D01*
G01X1311491Y314558D01*
G01X1314138Y314961D01*
G01X1328814Y318004D01*
G01X1342432Y324265D01*
G01X1354296Y333424D01*
G01X1363800Y345013D01*
G01X1370459Y358441D01*
G01X1373932Y373021D01*
G01X1374043Y388009D01*
G01X1370784Y402639D01*
G01X1364324Y416163D01*
G01X1354991Y427891D01*
G01X1343263Y437224D01*
G01X1329739Y443684D01*
G01X1315109Y446943D01*
G01X1300121Y446832D01*
G01X1285541Y443359D01*
G01X1272113Y436700D01*
G01X1260524Y427196D01*
G01X1251365Y415332D01*
G01X1245104Y401714D01*
G01X1242061Y387038D01*
G01X1241658Y384391D01*
G01X1241159Y382668D01*
G01X1186405Y327914D01*
G01X1115600Y327914D01*
G01X1113314Y328137D01*
G01X1113314Y341805D01*
G01X1111561Y352872D01*
G01X1106474Y362856D01*
G01X1098551Y370779D01*
G01X1088567Y375866D01*
G01X1077500Y377619D01*
G01X1027500Y377619D01*
G01X1018377Y376438D01*
G01X1009857Y372972D01*
G01X1002500Y367450D01*
G01X995143Y372972D01*
G01X986622Y376438D01*
G01X977500Y377619D01*
G01X927500Y377619D01*
G01X918378Y376438D01*
G01X909857Y372972D01*
G01X902500Y367450D01*
G01X895143Y372972D01*
G01X886623Y376438D01*
G01X877500Y377619D01*
G01X827500Y377619D01*
G01X816433Y375866D01*
G01X806449Y370779D01*
G01X798526Y362856D01*
G01X793439Y352872D01*
G01X791686Y341805D01*
G01X791686Y221806D01*
G01X793439Y210738D01*
G01X798526Y200755D01*
G01X806449Y192831D01*
G01X816433Y187744D01*
G01X827500Y185992D01*
G01X877500Y185992D01*
G01X886315Y187093D01*
G01X894587Y190331D01*
G01X901808Y195504D01*
G01X904426Y185635D01*
G01X843505Y124714D01*
G01X706666Y124714D01*
G01X705103Y125574D01*
G01X702956Y127153D01*
G01X690430Y135375D01*
G01X676378Y140575D01*
G01X661518Y142487D01*
G01X646607Y141012D01*
G01X632409Y136227D01*
G01X619647Y128376D01*
G01X608975Y117859D01*
G01X600937Y105214D01*
G01X595944Y91087D01*
G01X594251Y76200D01*
G01X595944Y61313D01*
G01X600937Y47186D01*
G01X608975Y34541D01*
G01X619647Y24024D01*
G01X632409Y16173D01*
G01X646607Y11388D01*
G01X661518Y9913D01*
G01X676378Y11825D01*
G01X690430Y17025D01*
G01X702956Y25247D01*
G01X705103Y26826D01*
G01X706666Y27686D01*
G01X863600Y27686D01*
G01X876156Y29339D01*
G01X887857Y34186D01*
G01X897905Y41895D01*
G01X923943Y67934D01*
G01X932414Y74871D01*
G01X942086Y80003D01*
G01X942086Y20095D01*
G01X932405Y10414D01*
G01X684670Y10414D01*
G01X672114Y8761D01*
G01X660413Y3914D01*
G01X650366Y-3795D01*
G01X524875Y-129286D01*
G01X126546Y-129286D01*
G01X113990Y-130939D01*
G01X102289Y-135786D01*
G01X92241Y-143495D01*
G01X-37906Y-273643D01*
G01X-43611Y-259931D01*
G01X-52224Y-247833D01*
G01X59705Y-135905D01*
G01X67414Y-125857D01*
G01X72261Y-114156D01*
G01X73914Y-101600D01*
G01X73914Y-85510D01*
G01X92497Y-85510D01*
G37*
G36*
G01X308595Y-397495D02*
G01X300886Y-407543D01*
G01X296039Y-419244D01*
G01X294386Y-431800D01*
G01X294386Y-526005D01*
G01X170056Y-650335D01*
G01X170056Y-574007D01*
G01X168614Y-563949D01*
G01X164407Y-554701D01*
G01X157771Y-547007D01*
G01X149242Y-541486D01*
G01X166661Y-536426D01*
G01X182627Y-527818D01*
G01X196428Y-516047D01*
G01X207445Y-501637D01*
G01X215188Y-485234D01*
G01X219310Y-467570D01*
G01X219628Y-449433D01*
G01X216126Y-431636D01*
G01X208961Y-414972D01*
G01X198454Y-400186D01*
G01X185073Y-387939D01*
G01X169418Y-378778D01*
G01X152186Y-373113D01*
G01X134149Y-371196D01*
G01X103814Y-371196D01*
G01X116595Y-358414D01*
G01X347677Y-358414D01*
G01X308595Y-397495D01*
G37*
G36*
G01X429391Y-1405524D02*
G01X148916Y-1405524D01*
G01X166592Y-1400435D01*
G01X182777Y-1391696D01*
G01X196728Y-1379709D01*
G01X207804Y-1365024D01*
G01X215496Y-1348315D01*
G01X219451Y-1330352D01*
G01X219486Y-1311958D01*
G01X215601Y-1293979D01*
G01X207973Y-1277242D01*
G01X196954Y-1262514D01*
G01X183049Y-1250473D01*
G01X166898Y-1241671D01*
G01X149242Y-1236514D01*
G01X157771Y-1230993D01*
G01X164407Y-1223299D01*
G01X168614Y-1214051D01*
G01X170056Y-1203993D01*
G01X170056Y-1123993D01*
G01X169142Y-1115956D01*
G01X166448Y-1108328D01*
G01X162111Y-1101500D01*
G01X166448Y-1094671D01*
G01X169142Y-1087044D01*
G01X170056Y-1079006D01*
G01X170056Y-1066954D01*
G01X237505Y-999505D01*
G01X245214Y-989457D01*
G01X250061Y-977756D01*
G01X251714Y-965200D01*
G01X251714Y-800100D01*
G01X250061Y-787544D01*
G01X245214Y-775843D01*
G01X237505Y-765795D01*
G01X214659Y-742950D01*
G01X377205Y-580405D01*
G01X384914Y-570357D01*
G01X389761Y-558656D01*
G01X391414Y-546100D01*
G01X391414Y-524700D01*
G01X403285Y-532464D01*
G01X416273Y-538166D01*
G01X430022Y-541651D01*
G01X444158Y-542823D01*
G01X514158Y-542823D01*
G01X531621Y-541028D01*
G01X548353Y-535716D01*
G01X563654Y-527111D01*
G01X576884Y-515572D01*
G01X587488Y-501582D01*
G01X595024Y-485727D01*
G01X599176Y-468670D01*
G01X610911Y-473550D01*
G01X623510Y-475214D01*
G01X675567Y-475214D01*
G01X688123Y-473561D01*
G01X699824Y-468715D01*
G01X709871Y-461005D01*
G01X752798Y-418078D01*
G01X750958Y-425923D01*
G01X750373Y-429060D01*
G01X749086Y-438325D01*
G01X748794Y-441487D01*
G01X748367Y-450773D01*
G01X748330Y-452363D01*
G01X748330Y-1341338D01*
G01X746721Y-1355621D01*
G01X741974Y-1369187D01*
G01X734327Y-1381358D01*
G01X724163Y-1391521D01*
G01X711993Y-1399168D01*
G01X698427Y-1403915D01*
G01X684144Y-1405524D01*
G01X528925Y-1405524D01*
G01X546386Y-1400523D01*
G01X562402Y-1391959D01*
G01X576258Y-1380216D01*
G01X587332Y-1365820D01*
G01X595128Y-1349416D01*
G01X599296Y-1331738D01*
G01X599651Y-1313579D01*
G01X596177Y-1295752D01*
G01X589028Y-1279056D01*
G01X578526Y-1264238D01*
G01X565140Y-1251962D01*
G01X549470Y-1242779D01*
G01X532219Y-1237099D01*
G01X514158Y-1235177D01*
G01X444158Y-1235177D01*
G01X426098Y-1237099D01*
G01X408846Y-1242779D01*
G01X393177Y-1251962D01*
G01X379791Y-1264238D01*
G01X369288Y-1279056D01*
G01X362140Y-1295752D01*
G01X358665Y-1313579D01*
G01X359020Y-1331738D01*
G01X363189Y-1349416D01*
G01X370985Y-1365820D01*
G01X382059Y-1380216D01*
G01X395914Y-1391959D01*
G01X411931Y-1400523D01*
G01X429391Y-1405524D01*
G37*
G36*
G01X573316Y1013699D02*
G01X571563Y1024766D01*
G01X566476Y1034750D01*
G01X558553Y1042673D01*
G01X548569Y1047760D01*
G01X537502Y1049513D01*
G01X356122Y1049513D01*
G01X439195Y1132586D01*
G01X692986Y1132586D01*
G01X692976Y1131705D01*
G01X692976Y951705D01*
G01X694282Y942119D01*
G01X698107Y933233D01*
G01X704171Y925694D01*
G01X712031Y920054D01*
G01X721114Y916723D01*
G01X589231Y784840D01*
G01X573316Y784373D01*
G01X573316Y1013699D01*
G37*
G36*
G01X1196086Y1097505D02*
G01X1196086Y997710D01*
G01X1186625Y984693D01*
G01X1186625Y1106966D01*
G01X1196086Y1097505D01*
G37*
G36*
G01X1641098Y735150D02*
G01X1666488Y709761D01*
G01X1666488Y682013D01*
G01X1668048Y671557D01*
G01X1672592Y662013D01*
G01X1668048Y652468D01*
G01X1666488Y642013D01*
G01X1666488Y582013D01*
G01X1668241Y570946D01*
G01X1673328Y560962D01*
G01X1681251Y553039D01*
G01X1691235Y547952D01*
G01X1702302Y546199D01*
G01X1852301Y546199D01*
G01X1859406Y546911D01*
G01X1866228Y549018D01*
G01X1858105Y543418D01*
G01X1851818Y535815D01*
G01X1847844Y526784D01*
G01X1846485Y517012D01*
G01X1846485Y343024D01*
G01X1623314Y566195D01*
G01X1623314Y690445D01*
G01X1624179Y692016D01*
G01X1625766Y694173D01*
G01X1633920Y706561D01*
G01X1639118Y720452D01*
G01X1641098Y735150D01*
G37*
G54D10*
G01X-2334144Y1405524D02*
G01X-983424Y1405524D01*
G01X-983424Y1231105D01*
G03X-947610Y1195291I35814J0D01*
G01X-847611Y1195291D01*
G03X-811797Y1231105I0J35814D01*
G01X-811797Y1405524D01*
G01X-661403Y1405524D01*
G01X-661403Y1242763D01*
G03X-740580Y1218472I-24397J-61663D01*
G03X-734314Y1135890I54780J-37372D01*
G01X-734314Y1128795D01*
G03X-736613Y1126740I22701J-27700D01*
G03X-761613Y1136909I-25000J-25645D01*
G01X-811613Y1136909D01*
G03X-847427Y1101095I0J-35814D01*
G01X-847427Y981095D01*
G03X-811613Y945281I35814J0D01*
G01X-761613Y945281D01*
G03X-756519Y945645I0J35814D01*
G03X-760061Y927448I44972J-18198D01*
G01X-760061Y913598D01*
G03X-715030Y824800I61561J-24598D01*
G03X-632714Y880809I16530J64200D01*
G01X-632714Y832984D01*
G01X-1016654Y449044D01*
G03X-1030864Y414739I34305J-34305D01*
G01X-1030864Y-43822D01*
G03X-1066564Y-23860I-48636J-45078D01*
G03X-1107186Y-28642I-12936J-65040D01*
G01X-1107186Y43405D01*
G01X-1045195Y105395D01*
G03X-1030986Y139700I-34305J34305D01*
G01X-1030986Y437105D01*
G01X-930895Y537195D01*
G03X-916686Y571500I-34305J34305D01*
G01X-916686Y825500D01*
G03X-930895Y859805I-48514J0D01*
G01X-1022186Y951095D01*
G01X-1022186Y1037500D01*
G03X-1058000Y1073314I-35814J0D01*
G01X-1228000Y1073314D01*
G03X-1263814Y1037500I0J-35814D01*
G01X-1263814Y867500D01*
G03X-1228000Y831686I35814J0D01*
G01X-1058000Y831686D01*
G03X-1043198Y834888I0J35814D01*
G01X-1013714Y805405D01*
G01X-1013714Y591595D01*
G01X-1113805Y491505D01*
G03X-1128014Y457200I34305J-34305D01*
G01X-1128014Y159795D01*
G01X-1190005Y97805D01*
G03X-1204214Y63500I34305J-34305D01*
G01X-1204214Y-296745D01*
G01X-1205079Y-298316D01*
G01X-1206666Y-300473D01*
G03X-1210331Y-380490I50966J-42427D01*
G03X-1134287Y-405662I54631J37590D01*
G03X-1074537Y-434428I54787J37362D01*
G01X-1150395Y-510286D01*
G01X-1350845Y-510286D01*
G01X-1352416Y-509421D01*
G01X-1354573Y-507834D01*
G01X-1355068Y-507426D01*
G03X-1311738Y-460893I-20926J62926D01*
G03X-1327480Y-399290I-64256J16393D01*
G01X-1327480Y445411D01*
G01X-1186933Y585957D01*
G03X-1057572Y783928I43933J112543D01*
G03X-1255543Y654567I-85428J-85428D01*
G01X-1410299Y499810D01*
G03X-1424508Y465506I34305J-34305D01*
G01X-1424508Y-399290D01*
G03X-1435145Y-414521I48514J-45210D01*
G03X-1551789Y-449702I-50755J-42679D01*
G01X-1565677Y-435814D01*
G03X-1641836Y-372577I-66273J-2336D01*
G01X-1641836Y-351545D01*
G01X-1502395Y-212105D01*
G03X-1488186Y-177800I-34305J34305D01*
G01X-1488186Y619247D01*
G03X-1276186Y698500I91186J79253D01*
G03X-1488186Y777753I-120814J0D01*
G01X-1488186Y873247D01*
G03X-1276186Y952500I91186J79253D01*
G03X-1488186Y1031753I-120814J0D01*
G01X-1488186Y1046990D01*
G03X-1529164Y1158084I-48514J45210D01*
G03X-1594170Y1059113I-7536J-65884D01*
G03X-1715386Y1054727I-56830J-106613D01*
G01X-1715386Y1065400D01*
G03X-1724400Y1093567I-48514J0D01*
G03X-1808484Y1156085I-66300J-1367D01*
G03X-1848170Y1059113I17784J-63885D01*
G03X-2023601Y929481I-56830J-106613D01*
G03X-1812414Y874887I118601J23019D01*
G01X-1812414Y776113D01*
G03X-2025814Y698500I-92586J-77613D01*
G03X-1812414Y620887I120814J0D01*
G01X-1812414Y609600D01*
G03X-1798205Y575295I48514J0D01*
G01X-1712214Y489305D01*
G01X-1712214Y368300D01*
G03X-1698005Y333995I48514J0D01*
G01X-1636014Y272005D01*
G01X-1636014Y-145005D01*
G01X-1716786Y-225777D01*
G01X-1716786Y232145D01*
G03X-1728495Y281822I-46014J15373D01*
G01X-2123401Y676728D01*
G03X-2321372Y806090I-112543J43933D01*
G03X-2192011Y608119I85428J-85428D01*
G01X-1813814Y229923D01*
G01X-1813814Y-522649D01*
G03X-1799605Y-556954I48514J0D01*
G01X-1770072Y-586486D01*
G01X-1885190Y-586486D01*
G03X-1983548Y-595341I-45210J-48514D01*
G03X-1964037Y-692150I53148J-39659D01*
G03X-1996673Y-746964I33637J-57150D01*
G01X-2229895Y-980186D01*
G01X-2253490Y-980186D01*
G03X-2365014Y-1028700I-45210J-48514D01*
G03X-2253490Y-1077214I66314J0D01*
G01X-2209800Y-1077214D01*
G03X-2175495Y-1063005I0J48514D01*
G01X-1978914Y-866423D01*
G01X-1978914Y-1028246D01*
G03X-1964705Y-1062550I48514J0D01*
G01X-1672150Y-1355105D01*
G03X-1637846Y-1369314I34305J34305D01*
G01X-406854Y-1369314D01*
G03X-372550Y-1355105I0J48514D01*
G01X-224323Y-1206878D01*
G03X-160656Y-1245760I56867J21551D01*
G03X-107221Y-1193702I-6800J60433D01*
G01X-61572Y-1148053D01*
G01X-61572Y-1203993D01*
G03X-25758Y-1239807I35814J0D01*
G01X36341Y-1239807D01*
G03X49382Y-1405524I27808J-81183D01*
G01X-2334144Y-1405524D01*
G02X-2398330Y-1341338I0J64186D01*
G01X-2398330Y1341338D01*
G02X-2334144Y1405524I64186J0D01*
G01X-2235944Y853848D02*
G03X-2235944Y1095476I0J120814D01*
G03X-2235944Y853848I0J-120814D01*
G01X-2057400Y-231414D02*
G03X-2008886Y-119890I0J66314D01*
G01X-2008886Y317500D01*
G03X-2023095Y351805I-48514J0D01*
G01X-2116967Y445676D01*
G03X-2335940Y534461I-118977J20986D01*
G03X-2172411Y363902I99996J-67799D01*
G01X-2140396Y331887D01*
G03X-2150944Y333476I-10548J-34225D01*
G01X-2320944Y333476D01*
G03X-2356758Y297662I0J-35814D01*
G01X-2356758Y127662D01*
G03X-2320944Y91848I35814J0D01*
G01X-2150944Y91848D01*
G03X-2115130Y127662I0J35814D01*
G01X-2115130Y297662D01*
G03X-2116719Y308209I-35814J0D01*
G01X-2105914Y297405D01*
G01X-2105914Y-119890D01*
G03X-2057400Y-231414I48514J-45210D01*
G01X-2150200Y1149186D02*
G03X-2114386Y1185000I0J35814D01*
G01X-2114386Y1355000D01*
G03X-2150200Y1390814I-35814J0D01*
G01X-2320200Y1390814D01*
G03X-2356014Y1355000I0J-35814D01*
G01X-2356014Y1185000D01*
G03X-2320200Y1149186I35814J0D01*
G01X-2150200Y1149186D01*
G01X-2102014Y1270000D02*
G03X-1860386Y1270000I120814J0D01*
G03X-2102014Y1270000I-120814J0D01*
G01X-1848014Y1270000D02*
G03X-1606386Y1270000I120814J0D01*
G03X-1848014Y1270000I-120814J0D01*
G01X-1594014Y1270000D02*
G03X-1352386Y1270000I120814J0D01*
G03X-1594014Y1270000I-120814J0D01*
G01X-1378896Y-622595D02*
G03X-1354573Y-609766I-18104J63795D01*
G01X-1352416Y-608179D01*
G01X-1350845Y-607314D01*
G01X-1130300Y-607314D01*
G03X-1095995Y-593105I0J48514D01*
G01X-1078042Y-575151D01*
G03X-1027385Y-606792I56695J34398D01*
G01X-1024738Y-607195D01*
G01X-1023014Y-607695D01*
G01X-1008409Y-622300D01*
G01X-1075705Y-689595D01*
G03X-1089914Y-723900I34305J-34305D01*
G01X-1089914Y-777338D01*
G01X-1090779Y-778910D01*
G01X-1092366Y-781067D01*
G03X-1041400Y-889807I50966J-42427D01*
G03X-990434Y-781067I0J66314D01*
G01X-992021Y-778910D01*
G01X-992886Y-777338D01*
G01X-992886Y-743995D01*
G01X-932405Y-683514D01*
G01X-330654Y-683514D01*
G03X-296350Y-669305I0J48514D01*
G01X-150114Y-523069D01*
G01X-150114Y-760204D01*
G03X-269911Y-771316I-54246J-66493D01*
G03X-260861Y-891286I65551J-55382D01*
G01X-577881Y-891286D01*
G03X-634382Y-740884I-56501J64588D01*
G03X-690883Y-891286I0J-85814D01*
G01X-1110205Y-891286D01*
G01X-1378896Y-622595D01*
G01X-662473Y-988314D02*
G03X-599236Y-1064473I65573J-9886D01*
G01X-563963Y-1099747D01*
G01X-933454Y-1099747D01*
G01X-1044887Y-988314D01*
G01X-662473Y-988314D01*
G01X-929987Y222911D02*
G01X-927340Y222507D01*
G01X-925617Y222008D01*
G01X-898423Y194814D01*
G01X-898423Y-102591D01*
G03X-884214Y-136895I48514J0D01*
G01X-771145Y-249964D01*
G03X-736841Y-264173I34305J34305D01*
G01X-161747Y-264173D01*
G03X-150976Y-336367I60147J-27927D01*
G01X-365495Y-550886D01*
G01X-942605Y-550886D01*
G01X-954405Y-539086D01*
G01X-954905Y-537362D01*
G01X-955308Y-534715D01*
G03X-986949Y-484058I-66039J-6038D01*
G01X-948045Y-445154D01*
G03X-933836Y-410850I-34305J34305D01*
G01X-933836Y223376D01*
G03X-929987Y222911I9886J65573D01*
G01X-764286Y437105D02*
G01X-691105Y510286D01*
G01X-557083Y510286D01*
G03X-573316Y480299I19581J-29987D01*
G01X-573316Y180299D01*
G03X-537502Y144485I35814J0D01*
G01X-337502Y144485D01*
G03X-301688Y180299I0J35814D01*
G01X-301688Y480299D01*
G03X-337502Y516113I-35814J0D01*
G01X-383348Y516113D01*
G03X-372095Y524495I-23052J42687D01*
G01X-251456Y645135D01*
G03X-253329Y633703I33941J-11431D01*
G01X-253329Y483704D01*
G03X-241086Y456739I35814J0D01*
G02X-236029Y445604I-9734J-11136D01*
G01X-236029Y442301D01*
G01X-236278Y441892D01*
G01X-237415Y440568D01*
G03X-226838Y338229I46915J-46868D01*
G03X-128794Y369412I36338J55471D01*
G03X-36487Y320437I65294J11588D01*
G03X-11254Y421840I-27013J60563D01*
G01X-12937Y424258D01*
G01X-13983Y426237D01*
G01X-13983Y445604D01*
G02X-8926Y456739I14790J0D01*
G03X0Y468650I-23570J26964D01*
G03X8926Y456739I32497J15053D01*
G02X13983Y445604I-9734J-11136D01*
G01X13983Y138403D01*
G02X8926Y127268I-14790J0D01*
G03X0Y115357I23570J-26964D01*
G03X-32497Y136117I-32497J-15053D01*
G01X-92497Y136117D01*
G03X-125006Y115329I0J-35814D01*
G03X-157516Y136117I-32509J-15026D01*
G01X-217515Y136117D01*
G03X-253329Y100303I0J-35814D01*
G01X-253329Y74041D01*
G01X-255615Y73817D01*
G01X-495397Y73817D01*
G03X-529701Y59608I0J-48514D01*
G01X-560468Y28841D01*
G01X-562191Y28342D01*
G01X-564838Y27939D01*
G03X-611398Y-78486I6038J-66039D01*
G01X-754605Y-78486D01*
G01X-764286Y-68805D01*
G01X-764286Y437105D01*
G01X-573316Y713699D02*
G03X-537502Y677885I35814J0D01*
G01X-355924Y677885D01*
G01X-426495Y607314D01*
G01X-711200Y607314D01*
G03X-722500Y605980I0J-48514D01*
G01X-573316Y755164D01*
G01X-573316Y713699D01*
G01X-637286Y1135890D02*
G03X-621022Y1195291I-48514J45210D01*
G01X-549718Y1195291D01*
G01X-618505Y1126505D01*
G03X-627918Y1113232I34305J-34305D01*
G03X-637286Y1127379I-33695J-12137D01*
G01X-637286Y1135890D01*
G01X-301688Y1013699D02*
G03X-337502Y1049513I-35814J0D01*
G01X-535686Y1049513D01*
G01X-535686Y1072105D01*
G01X-437105Y1170686D01*
G01X340077Y1170686D01*
G01X28192Y858801D01*
G03X13983Y824497I34305J-34305D01*
G01X13983Y671803D01*
G02X8926Y660668I-14790J0D01*
G03X0Y648757I23570J-26964D01*
G03X-32497Y669517I-32497J-15053D01*
G01X-92497Y669517D01*
G03X-125006Y648729I0J-35814D01*
G03X-157516Y669517I-32509J-15026D01*
G01X-217515Y669517D01*
G03X-228947Y667644I0J-35814D01*
G01X-188832Y707759D01*
G01X-187109Y708258D01*
G01X-184462Y708661D01*
G03X-143609Y821591I-6038J66039D01*
G03X-256539Y780738I-46891J-46891D01*
G01X-256942Y778091D01*
G01X-257441Y776368D01*
G01X-301688Y732121D01*
G01X-301688Y1013699D01*
G01X-489775Y1255151D02*
G01X-489775Y1405524D01*
G01X2333343Y1405524D01*
G01X2340060Y1405213D01*
G01X2345931Y1404394D01*
G01X2351699Y1403037D01*
G01X2357316Y1401154D01*
G01X2362737Y1398761D01*
G01X2367914Y1395877D01*
G01X2372801Y1392529D01*
G01X2377360Y1388744D01*
G01X2381550Y1384554D01*
G01X2385335Y1379996D01*
G01X2388683Y1375108D01*
G01X2391567Y1369931D01*
G01X2393960Y1364511D01*
G01X2395843Y1358893D01*
G01X2397199Y1353125D01*
G01X2398018Y1347254D01*
G01X2398330Y1340537D01*
G01X2398330Y-251562D01*
G01X2398018Y-258279D01*
G01X2397199Y-264150D01*
G01X2395843Y-269918D01*
G01X2393960Y-275536D01*
G01X2391567Y-280956D01*
G01X2388683Y-286133D01*
G01X2385335Y-291020D01*
G01X2381550Y-295579D01*
G01X2377360Y-299769D01*
G01X2372801Y-303554D01*
G01X2367914Y-306902D01*
G01X2362737Y-309786D01*
G01X2357317Y-312179D01*
G01X2351699Y-314062D01*
G01X2345931Y-315418D01*
G01X2340060Y-316237D01*
G01X2333343Y-316549D01*
G01X1938381Y-316549D01*
G01X1990105Y-264826D01*
G03X2004314Y-230521I-34305J34305D01*
G01X2004314Y88900D01*
G03X1990105Y123205I-48514J0D01*
G01X1912111Y201198D01*
G01X2132298Y201198D01*
G03X2168112Y237012I0J35814D01*
G01X2168112Y517012D01*
G03X2132298Y552826I-35814J0D01*
G01X1882299Y552826D01*
G03X1868372Y550007I0J-35814D01*
G03X1888115Y582013I-16071J32006D01*
G01X1888115Y642013D01*
G03X1882011Y662013I-35814J0D01*
G03X1888115Y682013I-29709J20000D01*
G01X1888115Y742013D01*
G03X1882011Y762013I-35814J0D01*
G03X1888115Y782013I-29709J20000D01*
G01X1888115Y842013D01*
G03X1882011Y862013I-35814J0D01*
G03X1888115Y882012I-29709J20000D01*
G01X1888115Y942012D01*
G03X1868653Y973876I-35814J0D01*
G03X1882299Y971174I13646J33112D01*
G01X2132298Y971174D01*
G03X2168112Y1006988I0J35814D01*
G01X2168112Y1286988D01*
G03X2132298Y1322802I-35814J0D01*
G01X1882299Y1322802D01*
G03X1846485Y1286988I0J-35814D01*
G01X1846485Y1006988D01*
G03X1865947Y975125I35814J0D01*
G03X1852301Y977826I-13646J-33112D01*
G01X1724914Y977826D01*
G01X1724914Y1021619D01*
G03X1676400Y1133094I-48514J45181D01*
G03X1627886Y1021619I0J-66294D01*
G01X1627886Y985295D01*
G01X1625600Y983009D01*
G01X1355105Y1253505D01*
G03X1320800Y1267714I-34305J-34305D01*
G01X-457200Y1267714D01*
G03X-489775Y1255151I0J-48514D01*
G01X92497Y-85510D02*
G03X124993Y-64750I0J35814D01*
G03X157490Y-85510I32497J15053D01*
G01X217490Y-85510D01*
G03X253304Y-49696I0J35814D01*
G01X253304Y100303D01*
G03X217490Y136117I-35814J0D01*
G01X157490Y136117D01*
G03X124993Y115357I0J-35814D01*
G03X116067Y127268I-32497J-15053D01*
G02X111011Y138403I9734J11136D01*
G01X111011Y445604D01*
G02X116067Y456739I14790J0D01*
G03X124993Y468650I-23570J26964D01*
G03X157490Y447890I32497J15053D01*
G01X217490Y447890D01*
G03X253304Y483704I0J35814D01*
G01X253304Y633703D01*
G03X217490Y669517I-35814J0D01*
G01X157490Y669517D01*
G03X124993Y648757I0J-35814D01*
G03X116067Y660668I-32497J-15053D01*
G02X111011Y671803I9734J11136D01*
G01X111011Y804402D01*
G01X301689Y995079D01*
G01X301689Y713699D01*
G03X337503Y677885I35814J0D01*
G01X531015Y677885D01*
G03X648424Y706815I52187J40915D01*
G01X782095Y840486D01*
G01X834299Y840486D01*
G03X828973Y821695I30488J-18791D01*
G01X828973Y701695D01*
G03X864787Y665881I35814J0D01*
G01X914787Y665881D01*
G03X939787Y676051I0J35814D01*
G03X964787Y665881I25000J25645D01*
G01X1014787Y665881D01*
G03X1050601Y701695I0J35814D01*
G01X1050601Y713181D01*
G01X1072410Y713181D01*
G01X1076748Y708843D01*
G03X1097256Y663217I66252J2357D01*
G03X1096675Y656794I35233J-6422D01*
G01X1096675Y506795D01*
G03X1132489Y470981I35814J0D01*
G01X1212489Y470981D01*
G03X1248303Y506795I0J35814D01*
G01X1248303Y656794D01*
G03X1212489Y692608I-35814J0D01*
G01X1206634Y692608D01*
G03X1145357Y777452I-63634J18592D01*
G01X1126809Y796000D01*
G03X1092505Y810209I-34305J-34305D01*
G01X1050601Y810209D01*
G01X1050601Y821695D01*
G03X1038301Y848709I-35814J0D01*
G01X1038301Y851713D01*
G03X1024092Y886017I-48514J0D01*
G01X986805Y923305D01*
G03X952500Y937514I-34305J-34305D01*
G01X861672Y937514D01*
G03X864603Y951705I-32882J14191D01*
G01X864603Y1131705D01*
G01X864592Y1132586D01*
G01X1015008Y1132586D01*
G01X1014997Y1131705D01*
G01X1014997Y951705D01*
G03X1050811Y915891I35814J0D01*
G01X1150811Y915891D01*
G03X1181263Y932855I0J35814D01*
G03X1227556Y888414I63337J19645D01*
G03X1289810Y903986I17044J64086D01*
G01X1472263Y903986D01*
G01X1573350Y802898D01*
G03X1523834Y694173I1450J-66298D01*
G01X1525421Y692016D01*
G01X1526286Y690445D01*
G01X1526286Y546100D01*
G03X1540495Y511795I48514J0D01*
G01X1767586Y284705D01*
G01X1767586Y228600D01*
G03X1781795Y194295I48514J0D01*
G01X1907286Y68805D01*
G01X1907286Y-41342D01*
G03X1844980Y-45040I-27686J-60258D01*
G03X1813343Y-98843I34620J-56560D01*
G03X1769060Y-118358I2757J-66257D01*
G03X1749827Y-162764I47040J-46742D01*
G01X1742705Y-169886D01*
G01X1229095Y-169886D01*
G01X1101105Y-41895D01*
G03X1066800Y-27686I-34305J-34305D01*
G01X1030438Y-27686D01*
G03X1039114Y0I-39838J27686D01*
G01X1039114Y127000D01*
G03X1028010Y157889I-48514J0D01*
G02X1011810Y189611I133483J88163D01*
G03X1027500Y185992I15690J32194D01*
G01X1077500Y185992D01*
G03X1113314Y221806I0J35814D01*
G01X1113314Y230663D01*
G01X1115600Y230886D01*
G01X1206500Y230886D01*
G03X1240805Y245095I0J48514D01*
G01X1309768Y314059D01*
G01X1311491Y314558D01*
G01X1314138Y314961D01*
G03X1354991Y427891I-6038J66039D01*
G03X1242061Y387038I-46891J-46891D01*
G01X1241658Y384391D01*
G01X1241159Y382668D01*
G01X1186405Y327914D01*
G01X1115600Y327914D01*
G01X1113314Y328137D01*
G01X1113314Y341805D01*
G03X1077500Y377619I-35814J0D01*
G01X1027500Y377619D01*
G03X1002500Y367450I0J-35814D01*
G03X977500Y377619I-25000J-25645D01*
G01X927500Y377619D01*
G03X902500Y367450I0J-35814D01*
G03X877500Y377619I-25000J-25645D01*
G01X827500Y377619D01*
G03X791686Y341805I0J-35814D01*
G01X791686Y221806D01*
G03X827500Y185992I35814J0D01*
G01X877500Y185992D01*
G03X901808Y195504I0J35814D01*
G02X904426Y185635I-24569J-11799D01*
G01X843505Y124714D01*
G01X706666Y124714D01*
G01X705103Y125574D01*
G01X702956Y127153D01*
G03X594251Y76200I-42411J-50953D01*
G03X702956Y25247I66294J0D01*
G01X705103Y26826D01*
G01X706666Y27686D01*
G01X863600Y27686D01*
G03X897905Y41895I0J48514D01*
G01X923943Y67934D01*
G02X942086Y80003I39085J-39085D01*
G01X942086Y20095D01*
G01X932405Y10414D01*
G01X684670Y10414D01*
G03X650366Y-3795I0J-48514D01*
G01X524875Y-129286D01*
G01X126546Y-129286D01*
G03X92241Y-143495I0J-48514D01*
G01X-37906Y-273643D01*
G03X-52224Y-247833I-63694J-18457D01*
G01X59705Y-135905D01*
G03X73914Y-101600I-34305J34305D01*
G01X73914Y-85510D01*
G01X92497Y-85510D01*
G01X573316Y480299D02*
G03X537502Y516113I-35814J0D01*
G01X337503Y516113D01*
G03X301689Y480299I0J-35814D01*
G01X301689Y180299D01*
G03X337503Y144485I35814J0D01*
G01X537502Y144485D01*
G03X573316Y180299I0J35814D01*
G01X573316Y480299D01*
G01X808325Y656794D02*
G03X772511Y692608I-35814J0D01*
G01X692511Y692608D01*
G03X656697Y656794I0J-35814D01*
G01X656697Y506795D01*
G03X692511Y470981I35814J0D01*
G01X772511Y470981D01*
G03X808325Y506795I0J35814D01*
G01X808325Y656794D01*
G01X308595Y-397495D02*
G03X294386Y-431800I34305J-34305D01*
G01X294386Y-526005D01*
G01X170056Y-650335D01*
G01X170056Y-574007D01*
G03X149242Y-541486I-35814J0D01*
G03X134149Y-371196I-15093J84476D01*
G01X103814Y-371196D01*
G01X116595Y-358414D01*
G01X347677Y-358414D01*
G01X308595Y-397495D01*
G01X429391Y-1405524D02*
G01X148916Y-1405524D01*
G03X149242Y-1236514I-14767J84534D01*
G03X170056Y-1203993I-15000J32521D01*
G01X170056Y-1123993D01*
G03X162111Y-1101500I-35814J0D01*
G03X170056Y-1079006I-27869J22494D01*
G01X170056Y-1066954D01*
G01X237505Y-999505D01*
G03X251714Y-965200I-34305J34305D01*
G01X251714Y-800100D01*
G03X237505Y-765795I-48514J0D01*
G01X214659Y-742950D01*
G01X377205Y-580405D01*
G03X391414Y-546100I-34305J34305D01*
G01X391414Y-524700D01*
G03X444158Y-542823I52744J67691D01*
G01X514158Y-542823D01*
G03X599176Y-468670I0J85814D01*
G03X623510Y-475214I24334J41970D01*
G01X675567Y-475214D01*
G03X709871Y-461005I0J48514D01*
G01X752798Y-418078D01*
G01X750958Y-425923D01*
G03X750373Y-429060I33631J-7890D01*
G01X749086Y-438325D01*
G03X748794Y-441487I34215J-4753D01*
G01X748367Y-450773D01*
G01X748330Y-452363D01*
G01X748330Y-1341338D01*
G02X684144Y-1405524I-64186J0D01*
G01X528925Y-1405524D01*
G03X514158Y-1235177I-14767J84534D01*
G01X444158Y-1235177D01*
G03X429391Y-1405524I0J-85814D01*
G01X573316Y1013699D02*
G03X537502Y1049513I-35814J0D01*
G01X356122Y1049513D01*
G01X439195Y1132586D01*
G01X692986Y1132586D01*
G01X692976Y1131705D01*
G01X692976Y951705D01*
G03X721114Y916723I35814J0D01*
G01X589231Y784840D01*
G03X573316Y784373I-6028J-66040D01*
G01X573316Y1013699D01*
G01X1196086Y1097505D02*
G01X1196086Y997710D01*
G03X1186625Y984693I48514J-45210D01*
G01X1186625Y1106966D01*
G01X1196086Y1097505D01*
G01X1641098Y735150D02*
G01X1666488Y709761D01*
G01X1666488Y682013D01*
G03X1672592Y662013I35814J0D01*
G03X1666488Y642013I29709J-20000D01*
G01X1666488Y582013D01*
G03X1702302Y546199I35814J0D01*
G01X1852301Y546199D01*
G03X1866228Y549018I0J35814D01*
G03X1846485Y517012I16071J-32006D01*
G01X1846485Y343024D01*
G01X1623314Y566195D01*
G01X1623314Y690445D01*
G01X1624179Y692016D01*
G01X1625766Y694173D01*
G03X1641098Y735150I-50966J42427D01*
G54D11*
G01X1777302Y612013D02*
G01X1777302Y556359D01*
G01X1777302Y612013D02*
G01X1676648Y612013D01*
G01X1777302Y612013D02*
G01X1877955Y612013D01*
G01X2007299Y1146988D02*
G01X2007299Y981334D01*
G01X2007299Y1146988D02*
G01X2007299Y1312642D01*
G01X2007299Y1146988D02*
G01X1856645Y1146988D01*
G01X2007299Y1146988D02*
G01X2157952Y1146988D01*
G01X2007299Y377012D02*
G01X2007299Y211358D01*
G01X2007299Y377012D02*
G01X2007299Y542666D01*
G01X2007299Y377012D02*
G01X1856645Y377012D01*
G01X2007299Y377012D02*
G01X2157952Y377012D01*
G01X187490Y558703D02*
G01X243144Y558703D01*
G01X187490Y558703D02*
G01X187490Y458050D01*
G01X187490Y558703D02*
G01X187490Y659357D01*
G01X437502Y863699D02*
G01X563156Y863699D01*
G01X437502Y863699D02*
G01X311849Y863699D01*
G01X437502Y863699D02*
G01X437502Y688045D01*
G01X437502Y863699D02*
G01X437502Y1039353D01*
G01X778789Y1041705D02*
G01X854443Y1041705D01*
G01X778789Y1041705D02*
G01X703136Y1041705D01*
G01X889787Y761695D02*
G01X839133Y761695D01*
G01X889787Y761695D02*
G01X889787Y676041D01*
G01X1100811Y1041705D02*
G01X1176465Y1041705D01*
G01X1100811Y1041705D02*
G01X1025157Y1041705D01*
G01X1100811Y1041705D02*
G01X1100811Y926051D01*
G01X1777302Y912012D02*
G01X1777302Y967666D01*
G01X1777302Y912012D02*
G01X1877955Y912012D01*
G01X852500Y281805D02*
G01X801846Y281805D01*
G01X852500Y281805D02*
G01X852500Y196152D01*
G01X852500Y281805D02*
G01X852500Y367459D01*
G01X732511Y581795D02*
G01X798165Y581795D01*
G01X732511Y581795D02*
G01X666857Y581795D01*
G01X732511Y581795D02*
G01X732511Y481141D01*
G01X732511Y581795D02*
G01X732511Y682448D01*
G01X1172489Y581795D02*
G01X1238143Y581795D01*
G01X1172489Y581795D02*
G01X1106835Y581795D01*
G01X1172489Y581795D02*
G01X1172489Y481141D01*
G01X437502Y330299D02*
G01X563156Y330299D01*
G01X437502Y330299D02*
G01X311849Y330299D01*
G01X437502Y330299D02*
G01X437502Y154645D01*
G01X437502Y330299D02*
G01X437502Y505953D01*
G01X-897611Y1321105D02*
G01X-821957Y1321105D01*
G01X-897611Y1321105D02*
G01X-973264Y1321105D01*
G01X-897611Y1321105D02*
G01X-897611Y1205451D01*
G01X-786613Y1041095D02*
G01X-837267Y1041095D01*
G01X-786613Y1041095D02*
G01X-786613Y955441D01*
G01X-786613Y1041095D02*
G01X-786613Y1126749D01*
G01X-575589Y1321105D02*
G01X-499935Y1321105D01*
G01X-575589Y1321105D02*
G01X-651243Y1321105D01*
G01X-575589Y1321105D02*
G01X-575589Y1205451D01*
G01X-437502Y863699D02*
G01X-311848Y863699D01*
G01X-437502Y863699D02*
G01X-437502Y688045D01*
G01X-437502Y863699D02*
G01X-437502Y1039353D01*
G01X54242Y-1163993D02*
G01X-51412Y-1163993D01*
G01X54242Y-1163993D02*
G01X159896Y-1163993D01*
G01X54242Y-614007D02*
G01X159896Y-614007D01*
G01X-437502Y330299D02*
G01X-311848Y330299D01*
G01X-437502Y330299D02*
G01X-563156Y330299D01*
G01X-437502Y330299D02*
G01X-437502Y154645D01*
G01X187490Y25303D02*
G01X243144Y25303D01*
G01X187490Y25303D02*
G01X187490Y-75350D01*
G01X187490Y25303D02*
G01X187490Y125957D01*
G01X-2235944Y212662D02*
G01X-2235944Y102008D01*
G01X-2235944Y212662D02*
G01X-2235944Y323316D01*
G01X-2235944Y212662D02*
G01X-2346598Y212662D01*
G01X-2235944Y212662D02*
G01X-2125290Y212662D01*
G01X-2235200Y1270000D02*
G01X-2345854Y1270000D01*
G01X-2235200Y1270000D02*
G01X-2124546Y1270000D01*
G01X-2235200Y1270000D02*
G01X-2235200Y1380654D01*
G01X-2235200Y1270000D02*
G01X-2235200Y1159346D01*
G01X-1905000Y952500D02*
G01X-2015654Y952500D01*
G01X-1905000Y952500D02*
G01X-1905000Y841846D01*
G01X-1905000Y952500D02*
G01X-1905000Y1063154D01*
G01X-1905000Y698500D02*
G01X-2015654Y698500D01*
G01X-1905000Y698500D02*
G01X-1905000Y587846D01*
G01X-1905000Y698500D02*
G01X-1905000Y809154D01*
G01X99149Y-1320990D02*
G01X-11505Y-1320990D01*
G01X99149Y-1320990D02*
G01X209803Y-1320990D01*
G01X99149Y-457009D02*
G01X209803Y-457009D01*
G01X479158Y-1320990D02*
G01X479158Y-1245337D01*
G01X479158Y-1320990D02*
G01X368504Y-1320990D01*
G01X479158Y-1320990D02*
G01X589812Y-1320990D01*
G01X479158Y-457009D02*
G01X479158Y-532663D01*
G04 Copper End*

G04 TearDrop Start*
G36*
G01X75197Y445604D02*
G01X49797Y445604D01*
G03X32497Y483704I-50604J0D01*
G01X92497Y483704D01*
G03X75197Y445604I33304J-38100D01*
G37*
G36*
G01X49797Y138403D02*
G01X75197Y138403D01*
G03X92497Y100303I50604J0D01*
G01X32497Y100303D01*
G03X49797Y138403I-33304J38100D01*
G37*
G36*
G01X-200215Y437365D02*
G01X-174815Y432889D01*
G01X-174037Y428581D01*
G01X-171986Y422920D01*
G01X-169086Y416905D01*
G01X-165761Y411539D01*
G01X-211291Y416015D01*
G01X-207224Y420753D01*
G01X-203677Y426557D01*
G01X-201167Y432428D01*
G01X-200464Y435076D01*
G01X-200215Y437365D01*
G37*
G36*
G01X-174815Y445604D02*
G01X-200215Y445604D01*
G03X-217515Y483704I-50604J0D01*
G01X-157516Y483704D01*
G03X-174815Y445604I33304J-38100D01*
G37*
G36*
G01X-75197Y423266D02*
G01X-49797Y421761D01*
G01X-48953Y417270D01*
G01X-46727Y411547D01*
G01X-43581Y405594D01*
G01X-39974Y400410D01*
G01X-85699Y401915D01*
G01X-81843Y406885D01*
G01X-78479Y412768D01*
G01X-76099Y418561D01*
G01X-75197Y423266D01*
G37*
G36*
G01X-49797Y445604D02*
G01X-75197Y445604D01*
G03X-92497Y483704I-50604J0D01*
G01X-32497Y483704D01*
G03X-49797Y445604I33304J-38100D01*
G37*
G36*
G01X49797Y671803D02*
G01X75197Y671803D01*
G03X92497Y633703I50604J0D01*
G01X32497Y633703D01*
G03X49797Y671803I-33304J38100D01*
G37*
G36*
G01X1587500Y695076D02*
G01X1562100Y695076D01*
G01X1561225Y699671D01*
G01X1558920Y705428D01*
G01X1555661Y711347D01*
G01X1551925Y716426D01*
G01X1597675Y716426D01*
G01X1593939Y711347D01*
G01X1590680Y705428D01*
G01X1588375Y699671D01*
G01X1587500Y695076D01*
G37*
G36*
G01X702042Y88900D02*
G01X702042Y63500D01*
G01X697447Y62627D01*
G01X691693Y60325D01*
G01X685779Y57071D01*
G01X680706Y53340D01*
G01X680706Y99060D01*
G01X685779Y95330D01*
G01X691693Y92075D01*
G01X697447Y89773D01*
G01X702042Y88900D01*
G37*
G36*
G01X1287718Y342658D02*
G01X1269758Y360618D01*
G01X1272388Y364485D01*
G01X1274829Y370186D01*
G01X1276710Y376676D01*
G01X1277660Y382910D01*
G01X1310010Y350560D01*
G01X1303776Y349610D01*
G01X1297286Y347729D01*
G01X1291585Y345288D01*
G01X1287718Y342658D01*
G37*
G36*
G01X1115600Y292100D02*
G01X1115600Y266700D01*
G03X1077500Y247650I0J-47625D01*
G01X1077500Y311150D01*
G03X1115600Y292100I38100J28575D01*
G37*
G36*
G01X965709Y183706D02*
G01X940309Y183706D01*
G03X927500Y221806I-63069J0D01*
G01X977500Y221806D01*
G03X965709Y183706I55659J-38100D01*
G37*
G36*
G01X999580Y135980D02*
G02X965709Y246052I161913J110072D01*
G01X940309Y247060D01*
G01X940235Y170791D01*
G01X898618Y93258D01*
G02X981620Y118020I64410J-64410D01*
G01X999580Y135980D01*
G37*
G36*
G01X-210882Y736358D02*
G01X-228842Y754318D01*
G01X-226212Y758185D01*
G01X-223771Y763886D01*
G01X-221890Y770376D01*
G01X-220940Y776610D01*
G01X-188590Y744260D01*
G01X-194824Y743310D01*
G01X-201314Y741429D01*
G01X-207015Y738988D01*
G01X-210882Y736358D01*
G37*
G36*
G01X-295524Y-139700D02*
G01X-295524Y-114300D01*
G01X-290929Y-113425D01*
G01X-285172Y-111120D01*
G01X-279253Y-107861D01*
G01X-274174Y-104125D01*
G01X-274174Y-149875D01*
G01X-279253Y-146139D01*
G01X-285172Y-142880D01*
G01X-290929Y-140575D01*
G01X-295524Y-139700D01*
G37*
G36*
G01X-1168400Y-301376D02*
G01X-1143000Y-301376D01*
G01X-1142125Y-305971D01*
G01X-1139820Y-311728D01*
G01X-1136561Y-317647D01*
G01X-1132825Y-322726D01*
G01X-1178575Y-322726D01*
G01X-1174839Y-317647D01*
G01X-1171580Y-311728D01*
G01X-1169275Y-305971D01*
G01X-1168400Y-301376D01*
G37*
G36*
G01X-1355476Y-546100D02*
G01X-1355476Y-571500D01*
G01X-1360071Y-572375D01*
G01X-1365828Y-574680D01*
G01X-1371747Y-577939D01*
G01X-1376826Y-581675D01*
G01X-1376826Y-535925D01*
G01X-1371747Y-539661D01*
G01X-1365828Y-542920D01*
G01X-1360071Y-545225D01*
G01X-1355476Y-546100D01*
G37*
G36*
G01X-538418Y242D02*
G01X-520458Y-17718D01*
G01X-523088Y-21585D01*
G01X-525529Y-27286D01*
G01X-527410Y-33776D01*
G01X-528360Y-40010D01*
G01X-560710Y-7660D01*
G01X-554476Y-6710D01*
G01X-547986Y-4829D01*
G01X-542285Y-2388D01*
G01X-538418Y242D01*
G37*
G36*
G01X-255615Y12603D02*
G01X-255615Y38003D01*
G03X-217515Y57053I0J47625D01*
G01X-217515Y-6447D01*
G03X-255615Y12603I-38100J-28575D01*
G37*
G36*
G01X-885607Y268568D02*
G01X-903568Y250607D01*
G01X-907435Y253238D01*
G01X-913136Y255679D01*
G01X-919626Y257559D01*
G01X-925859Y258509D01*
G01X-893509Y290859D01*
G01X-892559Y284626D01*
G01X-890679Y278136D01*
G01X-888238Y272435D01*
G01X-885607Y268568D01*
G37*
G36*
G01X-1092200Y-326776D02*
G01X-1066800Y-326776D01*
G01X-1065925Y-331371D01*
G01X-1063620Y-337128D01*
G01X-1060361Y-343047D01*
G01X-1056625Y-348126D01*
G01X-1102375Y-348126D01*
G01X-1098639Y-343047D01*
G01X-1095380Y-337128D01*
G01X-1093075Y-331371D01*
G01X-1092200Y-326776D01*
G37*
G36*
G01X-1066800Y-130424D02*
G01X-1092200Y-130424D01*
G01X-1093075Y-125829D01*
G01X-1095380Y-120072D01*
G01X-1098639Y-114153D01*
G01X-1102375Y-109074D01*
G01X-1056625Y-109074D01*
G01X-1060361Y-114153D01*
G01X-1063620Y-120072D01*
G01X-1065925Y-125829D01*
G01X-1066800Y-130424D01*
G37*
G36*
G01X-983005Y-561135D02*
G01X-1000965Y-579095D01*
G01X-1004832Y-576465D01*
G01X-1010533Y-574024D01*
G01X-1017023Y-572144D01*
G01X-1023257Y-571193D01*
G01X-990907Y-538843D01*
G01X-989956Y-545077D01*
G01X-988076Y-551567D01*
G01X-985635Y-557268D01*
G01X-983005Y-561135D01*
G37*
G36*
G01X-1054100Y-781969D02*
G01X-1028700Y-781969D01*
G01X-1027825Y-786564D01*
G01X-1025520Y-792321D01*
G01X-1022261Y-798240D01*
G01X-1018525Y-803319D01*
G01X-1064275Y-803319D01*
G01X-1060539Y-798240D01*
G01X-1057280Y-792321D01*
G01X-1054975Y-786564D01*
G01X-1054100Y-781969D01*
G37*
G04 TearDrop End*

G04 Pad Start*
G54D12*
G01X-698500Y889000D03*
G01X1143000Y711200D03*
G01X660545Y76200D03*
G01X1676400Y1066800D03*
G54D13*
G01X54242Y-614007D03*
G54D14*
G01X54242Y-736994D03*
G54D15*
G01X54242Y-839000D03*
G01X54242Y-939000D03*
G54D14*
G01X54242Y-1041006D03*
G54D13*
G01X54242Y-1163993D03*
G54D16*
G01X479158Y-457009D03*
G01X479158Y-1320990D03*
G01X99149Y-457009D03*
G01X99149Y-1320990D03*
G54D17*
G01X-1143000Y952500D03*
G54D19*
G01X-1143000Y698500D03*
G01X-1397000Y952500D03*
G01X-1397000Y698500D03*
G01X-1651000Y952500D03*
G01X-1651000Y698500D03*
G01X-1905000Y952500D03*
G01X-1905000Y698500D03*
G54D20*
G01X-686613Y1041095D03*
G01X-786613Y1041095D03*
G54D21*
G01X-575589Y1321105D03*
G01X-897611Y1321105D03*
G54D17*
G01X-2235944Y212662D03*
G54D19*
G01X-2235944Y466662D03*
G01X-2235944Y720662D03*
G01X-2235944Y974662D03*
G54D17*
G01X-2235200Y1270000D03*
G54D19*
G01X-1981200Y1270000D03*
G01X-1727200Y1270000D03*
G01X-1473200Y1270000D03*
G54D20*
G01X989787Y761695D03*
G01X889787Y761695D03*
G54D21*
G01X1100811Y1041705D03*
G01X778789Y1041705D03*
G54D22*
G01X2007299Y1146988D03*
G01X2007299Y377012D03*
G54D23*
G01X1777302Y912012D03*
G01X1777302Y812013D03*
G01X1777302Y712013D03*
G01X1777302Y612013D03*
G54D24*
G01X-167456Y-1185327D03*
G54D25*
G01X-437502Y330299D03*
G01X437502Y330299D03*
G54D26*
G01X-187515Y25303D03*
G01X-62497Y25303D03*
G01X62497Y25303D03*
G01X187490Y25303D03*
G54D25*
G01X-437502Y863699D03*
G01X437502Y863699D03*
G54D26*
G01X-187515Y558703D03*
G01X-62497Y558703D03*
G01X62497Y558703D03*
G01X187490Y558703D03*
G54D20*
G01X1052500Y281805D03*
G01X952500Y281805D03*
G01X852500Y281805D03*
G54D27*
G01X732511Y581795D03*
G01X1172489Y581795D03*
G04 Pad End*

G04 Via Start*
G54D28*
G01X-1021347Y-540753D03*
G01X-1041400Y-823493D03*
G01X-1631950Y-438150D03*
G01X-190500Y-939800D03*
G01X-1155700Y-342900D03*
G01X-1375994Y-444500D03*
G01X-1485900Y-457200D03*
G01X-1930400Y-749300D03*
G01X-2298700Y-1028700D03*
G01X-2057400Y-165100D03*
G01X-1752600Y-939800D03*
G01X-1790700Y1092200D03*
G01X-1600200Y-939800D03*
G01X-1536700Y1092200D03*
G01X-1574800Y-825500D03*
G01X-1498600Y-952500D03*
G01X-1409700Y-762000D03*
G01X-1397000Y-558800D03*
G01X-1473200Y-1262400D03*
G01X-1143000Y-1041400D03*
G01X-1930400Y-635000D03*
G01X1816100Y-165100D03*
G01X1879600Y-101600D03*
G01X-596900Y-998200D03*
G01X-419100Y-1066800D03*
G01X-1600200Y508000D03*
G01X-923949Y288949D03*
G01X-685800Y1181100D03*
G01X647700Y-368300D03*
G01X805361Y-165100D03*
G01X736600Y-228600D03*
G01X1041400Y-152400D03*
G01X-254000Y-127000D03*
G01X-190500Y774700D03*
G01X1308100Y381000D03*
G01X-2065000Y1125200D03*
G01X-1049000Y1125200D03*
G01X475000Y-906800D03*
G01X-1917700Y-508000D03*
G01X228600Y-508000D03*
G01X-203200Y-723900D03*
G01X-1943100Y-1320800D03*
G01X-1790700Y-1257300D03*
G01X-825500Y-1016000D03*
G01X-1447800Y342900D03*
G01X-1016000Y-1003300D03*
G01X1473200Y863600D03*
G01X1270000Y-63500D03*
G01X387872Y510306D03*
G01X583202Y718800D03*
G01X1244600Y952500D03*
G01X1625600Y914400D03*
G01X1574800Y736600D03*
G01X736600Y736600D03*
G01X-190500Y393700D03*
G01X-63500Y381000D03*
G01X-101600Y-292100D03*
G01X-101600Y-127000D03*
G01X152400Y1130300D03*
G01X-838200Y774700D03*
G01X-186245Y215301D03*
G01X127000Y-114300D03*
G01X-558800Y-38100D03*
G01X-1079500Y-368300D03*
G01X-1079500Y-88900D03*
G01X-685800Y292100D03*
G01X-377157Y-431800D03*
G01X-571500Y88900D03*
G01X-850900Y-693400D03*
G01X-381000Y139700D03*
G04 Via End*

G04 Track Start*
G54D11*
G01X-965200Y571500D02*
G01X-965200Y825500D01*
G01X-1092200Y952500D01*
G01X-1143000Y952500D01*
G01X-1375994Y-444500D02*
G01X-1375994Y465506D01*
G01X-1143000Y698500D01*
G01X-1631950Y-438150D02*
G01X-1130300Y-939800D01*
G01X-190500Y-939800D01*
G01X-2057400Y-165100D02*
G01X-2057400Y317500D01*
G01X-2206562Y466662D01*
G01X-2235944Y466662D01*
G01X-1536700Y1092200D02*
G01X-1536700Y-177800D01*
G01X-1498600Y-952500D02*
G01X-1409700Y-863600D01*
G01X-1409700Y-762000D01*
G01X-1536700Y-177800D02*
G01X-1690350Y-331450D01*
G01X-1690350Y-468650D01*
G01X-1574800Y-584200D01*
G01X-1574800Y-825500D01*
G01X-1600200Y-889000D02*
G01X-1600200Y-939800D01*
G01X-1790700Y1092200D02*
G01X-1763900Y1065400D01*
G01X-1763900Y609600D01*
G01X-1663700Y509400D01*
G01X-1663700Y368300D02*
G01X-1587500Y292100D01*
G01X-1587500Y-165100D01*
G01X-1663700Y509400D02*
G01X-1663700Y368300D01*
G01X-1587500Y-165100D02*
G01X-1727200Y-304800D01*
G01X-1727200Y-495300D01*
G01X-1638300Y-584200D01*
G01X-1638300Y-850900D01*
G01X-1600200Y-889000D01*
G01X-2235944Y720662D02*
G01X-1762800Y247518D01*
G01X-1739900Y-635000D02*
G01X-1930400Y-635000D01*
G01X-1739900Y-635000D02*
G01X-1721939Y-652961D01*
G01X-1721939Y-807539D01*
G01X-1118810Y-983000D02*
G01X-953549Y-1148261D01*
G01X-284661Y-1148261D01*
G01X-101600Y-965200D01*
G01X-1678349Y-865549D02*
G01X-1752600Y-939800D01*
G01X-1678349Y-609600D02*
G01X-1765300Y-522649D01*
G01X-1765300Y245018D02*
G01X-1762800Y247518D01*
G01X-1678349Y-609600D02*
G01X-1678349Y-865549D01*
G01X-1765300Y-522649D02*
G01X-1765300Y245018D01*
G01X-101600Y-965200D02*
G01X-101600Y-456292D01*
G01X-66000Y-472400D02*
G01X-66000Y-979946D01*
G01X-596900Y-998200D02*
G01X-528300Y-1066800D01*
G01X-419100Y-1066800D01*
G01X-1414961Y-1148261D02*
G01X-1249700Y-983000D01*
G01X-1118810Y-983000D01*
G01X-1721939Y-807539D02*
G01X-1856379Y-941979D01*
G01X-1856379Y-1051921D01*
G01X-1760039Y-1148261D01*
G01X-1414961Y-1148261D01*
G01X-1651000Y698500D02*
G01X-1600200Y647700D01*
G01X-1600200Y508000D01*
G01X-1079500Y139700D02*
G01X-1079500Y457200D01*
G01X-965200Y571500D01*
G01X-101600Y-456292D02*
G01X141292Y-213400D01*
G01X-66000Y-472400D02*
G01X96500Y-309900D01*
G01X141292Y-213400D02*
G01X166692Y-213400D01*
G01X207292Y-254000D01*
G01X584200Y-254000D01*
G01X762000Y-76200D01*
G01X1066800Y-76200D01*
G01X96500Y-309900D02*
G01X604046Y-309900D01*
G01X685346Y-228600D01*
G01X736600Y-228600D01*
G01X126546Y-177800D02*
G01X544970Y-177800D01*
G01X684670Y-38100D02*
G01X544970Y-177800D01*
G01X54242Y-736994D02*
G01X140094Y-736994D01*
G01X203200Y-800100D01*
G01X203200Y-965200D01*
G01X127394Y-1041006D01*
G01X54242Y-1041006D01*
G01X-23135Y-1041006D02*
G01X54242Y-1041006D01*
G01X-167456Y-1185327D02*
G01X-23135Y-1041006D01*
G01X647700Y-368300D02*
G01X683621Y-368300D01*
G01X805361Y-246561D01*
G01X805361Y-165100D01*
G01X1041400Y-152400D02*
G01X1143000Y-254000D01*
G01X-1930400Y-749300D02*
G01X-2209800Y-1028700D01*
G01X-2298700Y-1028700D01*
G01X-1473200Y-1262400D02*
G01X-1252200Y-1041400D01*
G01X-1143000Y-1041400D01*
G01X-1930400Y-749300D02*
G01X-1930400Y-1028246D01*
G01X-1637846Y-1320800D01*
G01X-406854Y-1320800D01*
G01X-66000Y-979946D01*
G01X1066800Y-76200D02*
G01X1209000Y-218400D01*
G01X1143000Y-254000D02*
G01X1828800Y-254000D01*
G01X1209000Y-218400D02*
G01X1762800Y-218400D01*
G01X1816100Y-165100D01*
G01X1828800Y-254000D02*
G01X1887200Y-195600D01*
G01X1887200Y-109200D01*
G01X1879600Y-101600D01*
G01X989787Y761695D02*
G01X989787Y851713D01*
G01X952500Y889000D01*
G01X762000Y889000D01*
G01X1492358Y952500D02*
G01X1244600Y952500D01*
G01X1777302Y712013D02*
G01X1732845Y712013D01*
G01X1492358Y952500D01*
G01X1777302Y812013D02*
G01X1763814Y825500D01*
G01X1701800Y825500D01*
G01X1320800Y1219200D02*
G01X1625600Y914400D01*
G01X1701800Y825500D02*
G01X1625600Y901700D01*
G01X1625600Y914400D01*
G01X342900Y-431800D02*
G01X342900Y-546100D01*
G01X429200Y-345500D02*
G01X342900Y-431800D01*
G01X542309Y-345500D02*
G01X429200Y-345500D01*
G01X623510Y-426700D02*
G01X542309Y-345500D01*
G01X675567Y-426700D02*
G01X623510Y-426700D01*
G01X860967Y-241300D02*
G01X675567Y-426700D01*
G01X1128254Y-289600D02*
G01X1079954Y-241300D01*
G01X860967Y-241300D01*
G01X1896721Y-289600D02*
G01X1128254Y-289600D01*
G01X152006Y-736994D02*
G01X140094Y-736994D01*
G01X342900Y-546100D02*
G01X152006Y-736994D01*
G01X1955800Y-230521D02*
G01X1896721Y-289600D01*
G01X1955800Y88900D02*
G01X1955800Y-230521D01*
G01X762000Y889000D02*
G01X591800Y718800D01*
G01X583202Y718800D01*
G01X-101600Y-355600D02*
G01X-101600Y-292100D01*
G01X-849909Y-102591D02*
G01X-736841Y-215659D01*
G01X-101600Y-13800D02*
G01X-62497Y25303D01*
G01X-101600Y-127000D02*
G01X-101600Y-13800D01*
G01X-686105Y1041095D02*
G01X-685800Y1041400D01*
G01X-685800Y1181100D01*
G01X-457200Y1219200D02*
G01X1320800Y1219200D01*
G01X419100Y1181100D02*
G01X1181100Y1181100D01*
G01X1244600Y1117600D01*
G01X1244600Y952500D01*
G01X-736841Y-215659D02*
G01X-88659Y-215659D01*
G01X25400Y-101600D01*
G01X25400Y-38100D01*
G01X62497Y-1003D01*
G01X62497Y25303D01*
G01X-685800Y953195D02*
G01X-685800Y1040282D01*
G01X-686613Y1041095D01*
G01X-584200Y812889D02*
G01X-584200Y1092200D01*
G01X-457200Y1219200D01*
G01X-685800Y953195D02*
G01X-711547Y927448D01*
G01X-711547Y902048D01*
G01X-698500Y889000D01*
G01X989787Y761695D02*
G01X1092505Y761695D01*
G01X1143000Y711200D01*
G01X1625600Y914400D02*
G01X1676400Y965200D01*
G01X1676400Y1066800D01*
G01X62497Y558703D02*
G01X62497Y25303D01*
G01X-190500Y393700D02*
G01X-187515Y396685D01*
G01X-187515Y558703D01*
G01X-63500Y381000D02*
G01X-62497Y382003D01*
G01X-62497Y558703D01*
G01X62497Y558703D02*
G01X62497Y824497D01*
G01X419100Y1181100D01*
G01X1574800Y736600D02*
G01X1574800Y546100D01*
G01X1816100Y304800D01*
G01X1816100Y228600D01*
G01X1955800Y88900D01*
G01X660545Y76200D02*
G01X863600Y76200D01*
G01X948999Y161599D01*
G01X684670Y-38100D02*
G01X952500Y-38100D01*
G01X1308100Y381000D02*
G01X1206500Y279400D01*
G01X1054905Y279400D01*
G01X1042205Y266700D01*
G01X953009Y307714D02*
G01X953009Y165609D01*
G01X948999Y161599D01*
G01X952500Y-38100D02*
G01X990600Y0D01*
G01X990600Y127000D01*
G01X956001Y161599D01*
G01X948999Y161599D01*
G01X-190500Y774700D02*
G01X-406400Y558800D01*
G01X-774700Y-127000D02*
G01X-254000Y-127000D01*
G01X-406400Y558800D02*
G01X-711200Y558800D01*
G01X-812800Y457200D01*
G01X-812800Y-88900D01*
G01X-774700Y-127000D01*
G01X-1155700Y-342900D02*
G01X-1155700Y63500D01*
G01X-1079500Y139700D01*
G01X-1397000Y-558800D02*
G01X-1130300Y-558800D01*
G01X-558800Y-38100D02*
G01X-495397Y25303D01*
G01X-187515Y25303D01*
G01X-923949Y288949D02*
G01X-849909Y214909D01*
G01X-849909Y-102591D01*
G01X-1130300Y-558800D02*
G01X-982350Y-410850D01*
G01X-982350Y414739D01*
G01X-584200Y812889D01*
G01X-1079500Y-368300D02*
G01X-1079500Y-88900D01*
G01X-330654Y-635000D02*
G01X126546Y-177800D01*
G01X-1021347Y-540753D02*
G01X-962700Y-599400D01*
G01X-345400Y-599400D01*
G01X-101600Y-355600D01*
G01X-1041400Y-823493D02*
G01X-1041400Y-723900D01*
G01X-952500Y-635000D01*
G01X-330654Y-635000D01*
G04 Track End*

M02*

