G04 Layer: TopLayer*
G04 EasyEDA Pro v3.2.135, 2026-06-15 15:00:53*
G04 Gerber Generator version 0.3*
G04 Scale: 100 percent, Rotated: No, Reflected: No*
G04 Dimensions in millimeters*
G04 Leading zeros omitted, absolute positions, 4 integers and 5 decimals*
G04 Generated by one-click*
G04 Object Configs: Pad,Via,Track,Text,Image,Dimension,BoardOutline,BoardCutout,CopperFilled,SolidRegion,FPCStiffener,Line,PlaneZone,ComponentProperty,ComponentSilkscreen,TearDrop*
G04 Layer Configs: 1,2,3,4,5,6,7,8,9,10,11,13,14,56*
G04 Copper Areas: 16*
%FSLAX45Y45*%
%MOMM*%
%ADD10C,0.2032*%
%ADD11C,0.254*%
%ADD12C,4.0*%
%ADD13R,0.9X0.7*%
%ADD14C,0.61*%
%ADD15C,0.1655*%
G75*


G04 Copper Start*
G36*
G01X-968310Y183923D02*
G01X-948470Y206468D01*
G01X-931656Y231351D01*
G01X-918141Y258169D01*
G01X-908144Y286488D01*
G01X-901827Y315847D01*
G01X-899292Y345771D01*
G01X-900582Y375775D01*
G01X-905674Y405371D01*
G01X-914486Y434080D01*
G01X-926876Y461437D01*
G01X-942642Y486997D01*
G01X-961528Y510346D01*
G01X-983229Y531105D01*
G01X-1007393Y548938D01*
G01X-1033626Y563555D01*
G01X1283756Y563555D01*
G01X1298038Y561946D01*
G01X1311605Y557199D01*
G01X1323775Y549552D01*
G01X1333938Y539389D01*
G01X1341585Y527219D01*
G01X1346332Y513652D01*
G01X1347942Y499369D01*
G01X1347942Y-132025D01*
G01X1343038Y-116392D01*
G01X1334451Y-102438D01*
G01X1322705Y-91015D01*
G01X1308517Y-82821D01*
G01X1292752Y-78356D01*
G01X1276375Y-77892D01*
G01X1260383Y-81458D01*
G01X1245754Y-88835D01*
G01X1250268Y-79317D01*
G01X1251817Y-68896D01*
G01X1251817Y1104D01*
G01X1250065Y12171D01*
G01X1244978Y22155D01*
G01X1237054Y30078D01*
G01X1227071Y35165D01*
G01X1216003Y36918D01*
G01X1168799Y36918D01*
G01X1082512Y123205D01*
G01X1072464Y130914D01*
G01X1060764Y135761D01*
G01X1048207Y137414D01*
G01X531800Y137414D01*
G01X519243Y135761D01*
G01X507543Y130914D01*
G01X497495Y123205D01*
G01X437350Y63059D01*
G01X377205Y123205D01*
G01X367157Y130914D01*
G01X355456Y135761D01*
G01X342900Y137414D01*
G01X-217500Y137414D01*
G01X-230057Y135761D01*
G01X-241757Y130914D01*
G01X-251805Y123205D01*
G01X-303968Y71041D01*
G01X-305992Y73192D01*
G01X-333995Y101196D01*
G01X-344043Y108906D01*
G01X-355744Y113752D01*
G01X-368300Y115405D01*
G01X-834809Y115405D01*
G01X-847365Y113752D01*
G01X-859066Y108906D01*
G01X-869113Y101196D01*
G01X-942136Y28173D01*
G01X-957715Y25748D01*
G01X-972280Y19715D01*
G01X-985010Y10414D01*
G01X-1003914Y10414D01*
G01X-1008736Y21027D01*
G01X-1016711Y29530D01*
G01X-1026995Y35020D01*
G01X-1038497Y36918D01*
G01X-1128496Y36918D01*
G01X-1139564Y35165D01*
G01X-1149547Y30078D01*
G01X-1157471Y22155D01*
G01X-1162558Y12171D01*
G01X-1164310Y1104D01*
G01X-1164310Y-68896D01*
G01X-1162750Y-79354D01*
G01X-1158203Y-88900D01*
G01X-1162750Y-98446D01*
G01X-1164310Y-108904D01*
G01X-1164310Y-178904D01*
G01X-1162558Y-189971D01*
G01X-1157471Y-199955D01*
G01X-1149547Y-207878D01*
G01X-1139564Y-212965D01*
G01X-1128496Y-214718D01*
G01X-1038497Y-214718D01*
G01X-1028051Y-213160D01*
G01X-1018513Y-208624D01*
G01X-1010714Y-201504D01*
G01X-1005330Y-192418D01*
G01X-829704Y-192418D01*
G01X-817147Y-190765D01*
G01X-805447Y-185918D01*
G01X-795399Y-178208D01*
G01X-703805Y-86614D01*
G01X-599428Y-86614D01*
G01X-598010Y-88900D01*
G01X-602557Y-98446D01*
G01X-604117Y-108904D01*
G01X-604117Y-178904D01*
G01X-602365Y-189971D01*
G01X-597278Y-199955D01*
G01X-589354Y-207878D01*
G01X-579371Y-212965D01*
G01X-568303Y-214718D01*
G01X-478304Y-214718D01*
G01X-467236Y-212965D01*
G01X-457253Y-207878D01*
G01X-449329Y-199955D01*
G01X-444242Y-189971D01*
G01X-442490Y-178904D01*
G01X-442490Y-108904D01*
G01X-444050Y-98446D01*
G01X-448597Y-88900D01*
G01X-444050Y-79354D01*
G01X-442490Y-68896D01*
G01X-442490Y1104D01*
G01X-443618Y10021D01*
G01X-446931Y18377D01*
G01X-416669Y18377D01*
G01X-419982Y10021D01*
G01X-421110Y1104D01*
G01X-421110Y-68896D01*
G01X-419550Y-79354D01*
G01X-415003Y-88900D01*
G01X-419550Y-98446D01*
G01X-421110Y-108904D01*
G01X-421110Y-178904D01*
G01X-419358Y-189971D01*
G01X-414271Y-199955D01*
G01X-406347Y-207878D01*
G01X-396364Y-212965D01*
G01X-385296Y-214718D01*
G01X-295297Y-214718D01*
G01X-284851Y-213160D01*
G01X-275313Y-208624D01*
G01X-267514Y-201504D01*
G01X-262130Y-192418D01*
G01X-67704Y-192418D01*
G01X-55147Y-190765D01*
G01X-43447Y-185918D01*
G01X-33399Y-178208D01*
G01X62399Y-82410D01*
G01X147830Y-82410D01*
G01X151290Y-88900D01*
G01X146743Y-98446D01*
G01X145183Y-108904D01*
G01X145183Y-178904D01*
G01X146935Y-189971D01*
G01X152022Y-199955D01*
G01X159946Y-207878D01*
G01X169929Y-212965D01*
G01X180997Y-214718D01*
G01X270996Y-214718D01*
G01X282064Y-212965D01*
G01X292047Y-207878D01*
G01X299971Y-199955D01*
G01X305058Y-189971D01*
G01X306810Y-178904D01*
G01X306810Y-108904D01*
G01X305250Y-98446D01*
G01X300703Y-88900D01*
G01X305250Y-79354D01*
G01X306810Y-68896D01*
G01X306810Y1104D01*
G01X305058Y12171D01*
G01X299971Y22155D01*
G01X292047Y30078D01*
G01X282064Y35165D01*
G01X270996Y36918D01*
G01X180997Y36918D01*
G01X170551Y35360D01*
G01X161013Y30824D01*
G01X153214Y23704D01*
G01X147830Y14618D01*
G01X42304Y14618D01*
G01X29747Y12965D01*
G01X18047Y8118D01*
G01X7999Y408D01*
G01X-87799Y-95390D01*
G01X-262130Y-95390D01*
G01X-265590Y-88900D01*
G01X-261043Y-79354D01*
G01X-259483Y-68896D01*
G01X-259483Y-21692D01*
G01X-197405Y40386D01*
G01X322805Y40386D01*
G01X337739Y25452D01*
G01X332546Y18222D01*
G01X329296Y9936D01*
G01X328190Y1104D01*
G01X328190Y-68896D01*
G01X329750Y-79354D01*
G01X334297Y-88900D01*
G01X329750Y-98446D01*
G01X328190Y-108904D01*
G01X328190Y-178904D01*
G01X329942Y-189971D01*
G01X335029Y-199955D01*
G01X342953Y-207878D01*
G01X352936Y-212965D01*
G01X364004Y-214718D01*
G01X454003Y-214718D01*
G01X464449Y-213160D01*
G01X473987Y-208624D01*
G01X481786Y-201504D01*
G01X487170Y-192418D01*
G01X685800Y-192418D01*
G01X698356Y-190765D01*
G01X710057Y-185918D01*
G01X720105Y-178208D01*
G01X815903Y-82410D01*
G01X909830Y-82410D01*
G01X913290Y-88900D01*
G01X908743Y-98446D01*
G01X907183Y-108904D01*
G01X907183Y-178904D01*
G01X908935Y-189971D01*
G01X914022Y-199955D01*
G01X921946Y-207878D01*
G01X931929Y-212965D01*
G01X942997Y-214718D01*
G01X1032996Y-214718D01*
G01X1044064Y-212965D01*
G01X1054047Y-207878D01*
G01X1061971Y-199955D01*
G01X1067058Y-189971D01*
G01X1068810Y-178904D01*
G01X1068810Y-108904D01*
G01X1067250Y-98446D01*
G01X1062703Y-88900D01*
G01X1067250Y-79354D01*
G01X1068810Y-68896D01*
G01X1068810Y-312D01*
G01X1090190Y-21692D01*
G01X1090190Y-68896D01*
G01X1091750Y-79354D01*
G01X1096297Y-88900D01*
G01X1091750Y-98446D01*
G01X1090190Y-108904D01*
G01X1090190Y-178904D01*
G01X1091927Y-189922D01*
G01X1096969Y-199871D01*
G01X1104828Y-207787D01*
G01X1075591Y-211845D01*
G01X1047090Y-219523D01*
G01X1019772Y-230702D01*
G01X994064Y-245206D01*
G01X970369Y-262808D01*
G01X949059Y-283232D01*
G01X930467Y-306158D01*
G01X914886Y-331228D01*
G01X902558Y-358047D01*
G01X893677Y-386197D01*
G01X888382Y-415235D01*
G01X886756Y-444708D01*
G01X888825Y-474152D01*
G01X894556Y-503108D01*
G01X903860Y-531120D01*
G01X916590Y-557751D01*
G01X932548Y-582583D01*
G01X951482Y-605227D01*
G01X973097Y-625328D01*
G01X997054Y-642572D01*
G01X-1283756Y-642572D01*
G01X-1298038Y-640962D01*
G01X-1311605Y-636215D01*
G01X-1323775Y-628568D01*
G01X-1333938Y-618405D01*
G01X-1341585Y-606235D01*
G01X-1346332Y-592668D01*
G01X-1347942Y-578386D01*
G01X-1347942Y-108904D01*
G01X-1347317Y-108904D01*
G01X-1347317Y-178904D01*
G01X-1345565Y-189971D01*
G01X-1340478Y-199955D01*
G01X-1332554Y-207878D01*
G01X-1322571Y-212965D01*
G01X-1311503Y-214718D01*
G01X-1221504Y-214718D01*
G01X-1210436Y-212965D01*
G01X-1200453Y-207878D01*
G01X-1192529Y-199955D01*
G01X-1187442Y-189971D01*
G01X-1185690Y-178904D01*
G01X-1185690Y-108904D01*
G01X-1187250Y-98446D01*
G01X-1191797Y-88900D01*
G01X-1187250Y-79354D01*
G01X-1185690Y-68896D01*
G01X-1185690Y1104D01*
G01X-1187442Y12171D01*
G01X-1192529Y22155D01*
G01X-1200453Y30078D01*
G01X-1210436Y35165D01*
G01X-1221504Y36918D01*
G01X-1311503Y36918D01*
G01X-1322571Y35165D01*
G01X-1332554Y30078D01*
G01X-1340478Y22155D01*
G01X-1345565Y12171D01*
G01X-1347317Y1104D01*
G01X-1347317Y-68896D01*
G01X-1345757Y-79354D01*
G01X-1341210Y-88900D01*
G01X-1345757Y-98446D01*
G01X-1347317Y-108904D01*
G01X-1347317Y-108904D01*
G01X-1347942Y-108904D01*
G01X-1347942Y249241D01*
G01X-1333324Y223007D01*
G01X-1315492Y198844D01*
G01X-1294732Y177143D01*
G01X-1271383Y158256D01*
G01X-1245823Y142490D01*
G01X-1218467Y130100D01*
G01X-1189758Y121288D01*
G01X-1160161Y116196D01*
G01X-1130158Y114906D01*
G01X-1100234Y117441D01*
G01X-1070874Y123757D01*
G01X-1042556Y133755D01*
G01X-1015738Y147270D01*
G01X-990854Y164083D01*
G01X-968310Y183923D01*
G37*
G54D10*
G01X-968310Y183923D02*
G03X-1033626Y563555I-166745J166746D01*
G01X1283756Y563555D01*
G02X1347942Y499369I0J-64186D01*
G01X1347942Y-132025D01*
G03X1245754Y-88835I-65242J-11878D01*
G03X1251817Y-68896I-29750J19939D01*
G01X1251817Y1104D01*
G03X1216003Y36918I-35814J0D01*
G01X1168799Y36918D01*
G01X1082512Y123205D01*
G03X1048207Y137414I-34305J-34305D01*
G01X531800Y137414D01*
G03X497495Y123205I0J-48514D01*
G01X437350Y63059D01*
G01X377205Y123205D01*
G03X342900Y137414I-34305J-34305D01*
G01X-217500Y137414D01*
G03X-251805Y123205I0J-48514D01*
G01X-303968Y71041D01*
G03X-305992Y73192I-36328J-32154D01*
G01X-333995Y101196D01*
G03X-368300Y115405I-34305J-34305D01*
G01X-834809Y115405D01*
G03X-869113Y101196I0J-48514D01*
G01X-942136Y28173D01*
G03X-985010Y10414I2336J-66273D01*
G01X-1003914Y10414D01*
G03X-1038497Y36918I-34583J-9310D01*
G01X-1128496Y36918D01*
G03X-1164310Y1104I0J-35814D01*
G01X-1164310Y-68896D01*
G03X-1158203Y-88900I35814J0D01*
G03X-1164310Y-108904I29707J-20004D01*
G01X-1164310Y-178904D01*
G03X-1128496Y-214718I35814J0D01*
G01X-1038497Y-214718D01*
G03X-1005330Y-192418I0J35814D01*
G01X-829704Y-192418D01*
G03X-795399Y-178208I0J48514D01*
G01X-703805Y-86614D01*
G01X-599428Y-86614D01*
G03X-598010Y-88900I31124J17718D01*
G03X-604117Y-108904I29707J-20004D01*
G01X-604117Y-178904D01*
G03X-568303Y-214718I35814J0D01*
G01X-478304Y-214718D01*
G03X-442490Y-178904I0J35814D01*
G01X-442490Y-108904D01*
G03X-448597Y-88900I-35814J0D01*
G03X-442490Y-68896I-29707J20004D01*
G01X-442490Y1104D01*
G03X-446931Y18377I-35814J0D01*
G01X-416669Y18377D01*
G03X-421110Y1104I31373J-17274D01*
G01X-421110Y-68896D01*
G03X-415003Y-88900I35814J0D01*
G03X-421110Y-108904I29707J-20004D01*
G01X-421110Y-178904D01*
G03X-385296Y-214718I35814J0D01*
G01X-295297Y-214718D01*
G03X-262130Y-192418I0J35814D01*
G01X-67704Y-192418D01*
G03X-33399Y-178208I0J48514D01*
G01X62399Y-82410D01*
G01X147830Y-82410D01*
G03X151290Y-88900I33166J13514D01*
G03X145183Y-108904I29707J-20004D01*
G01X145183Y-178904D01*
G03X180997Y-214718I35814J0D01*
G01X270996Y-214718D01*
G03X306810Y-178904I0J35814D01*
G01X306810Y-108904D01*
G03X300703Y-88900I-35814J0D01*
G03X306810Y-68896I-29707J20004D01*
G01X306810Y1104D01*
G03X270996Y36918I-35814J0D01*
G01X180997Y36918D01*
G03X147830Y14618I0J-35814D01*
G01X42304Y14618D01*
G03X7999Y408I0J-48514D01*
G01X-87799Y-95390D01*
G01X-262130Y-95390D01*
G03X-265590Y-88900I-33166J-13514D01*
G03X-259483Y-68896I-29707J20004D01*
G01X-259483Y-21692D01*
G01X-197405Y40386D01*
G01X322805Y40386D01*
G01X337739Y25452D01*
G03X328190Y1104I26264J-24348D01*
G01X328190Y-68896D01*
G03X334297Y-88900I35814J0D01*
G03X328190Y-108904I29707J-20004D01*
G01X328190Y-178904D01*
G03X364004Y-214718I35814J0D01*
G01X454003Y-214718D01*
G03X487170Y-192418I0J35814D01*
G01X685800Y-192418D01*
G03X720105Y-178208I0J48514D01*
G01X815903Y-82410D01*
G01X909830Y-82410D01*
G03X913290Y-88900I33166J13514D01*
G03X907183Y-108904I29707J-20004D01*
G01X907183Y-178904D01*
G03X942997Y-214718I35814J0D01*
G01X1032996Y-214718D01*
G03X1068810Y-178904I0J35814D01*
G01X1068810Y-108904D01*
G03X1062703Y-88900I-35814J0D01*
G03X1068810Y-68896I-29707J20004D01*
G01X1068810Y-312D01*
G01X1090190Y-21692D01*
G01X1090190Y-68896D01*
G03X1096297Y-88900I35814J0D01*
G03X1090190Y-108904I29707J-20004D01*
G01X1090190Y-178904D01*
G03X1104828Y-207787I35814J0D01*
G03X997054Y-642572I17735J-235146D01*
G01X-1283756Y-642572D01*
G02X-1347942Y-578386I0J64186D01*
G01X-1347942Y249241D01*
G03X-968310Y183923I212886J101429D01*
G01X-1347317Y-108904D02*
G01X-1347317Y-178904D01*
G03X-1311503Y-214718I35814J0D01*
G01X-1221504Y-214718D01*
G03X-1185690Y-178904I0J35814D01*
G01X-1185690Y-108904D01*
G03X-1191797Y-88900I-35814J0D01*
G03X-1185690Y-68896I-29707J20004D01*
G01X-1185690Y1104D01*
G03X-1221504Y36918I-35814J0D01*
G01X-1311503Y36918D01*
G03X-1347317Y1104I0J-35814D01*
G01X-1347317Y-68896D01*
G03X-1341210Y-88900I35814J0D01*
G03X-1347317Y-108904I29707J-20004D01*
G54D11*
G01X-1266503Y-143904D02*
G01X-1337157Y-143904D01*
G01X-1266503Y-143904D02*
G01X-1195850Y-143904D01*
G01X-1266503Y-143904D02*
G01X-1266503Y-204558D01*
G01X-523303Y-143904D02*
G01X-593957Y-143904D01*
G01X-523303Y-143904D02*
G01X-452650Y-143904D01*
G01X-523303Y-143904D02*
G01X-523303Y-204558D01*
G01X225997Y-143904D02*
G01X155343Y-143904D01*
G01X225997Y-143904D02*
G01X296650Y-143904D01*
G01X225997Y-143904D02*
G01X225997Y-204558D01*
G01X987997Y-143904D02*
G01X917343Y-143904D01*
G01X987997Y-143904D02*
G01X1058650Y-143904D01*
G01X987997Y-143904D02*
G01X987997Y-204558D01*
G01X-1135056Y350669D02*
G01X-909402Y350669D01*
G01X-1135056Y350669D02*
G01X-1135056Y125015D01*
G01X1122564Y-442933D02*
G01X896910Y-442933D01*
G04 Copper End*

G04 Pad Start*
G54D12*
G01X-1135056Y350669D03*
G01X1122563Y-442933D03*
G54D13*
G01X-1266503Y-33896D03*
G01X-1266503Y-143904D03*
G01X-1083496Y-143904D03*
G01X-1083496Y-33896D03*
G01X-523303Y-33896D03*
G01X-523303Y-143904D03*
G01X-340296Y-143904D03*
G01X-340296Y-33896D03*
G01X225997Y-33896D03*
G01X225997Y-143904D03*
G01X409004Y-143904D03*
G01X409004Y-33896D03*
G01X987997Y-33896D03*
G01X987997Y-143904D03*
G01X1171004Y-143904D03*
G01X1171004Y-33896D03*
G04 Pad End*

G04 Via Start*
G54D14*
G01X1282700Y-143904D03*
G01X-939800Y-38100D03*
G01X-839942Y373428D03*
G01X-331942Y373428D03*
G01X176058Y373428D03*
G01X684058Y373428D03*
G01X1192058Y373428D03*
G01X475000Y287000D03*
G01X983000Y287000D03*
G01X475000Y-221000D03*
G01X983000Y-221000D03*
G04 Via End*

G04 Track Start*
G54D11*
G01X-1083496Y-143904D02*
G01X-829704Y-143904D01*
G01X-723900Y-38100D01*
G01X-527507Y-38100D01*
G01X-523303Y-33896D01*
G01X42304Y-33896D02*
G01X225997Y-33896D01*
G01X-340296Y-143904D02*
G01X-67704Y-143904D01*
G01X42304Y-33896D01*
G01X409004Y-143904D02*
G01X685800Y-143904D01*
G01X795807Y-33896D02*
G01X987997Y-33896D01*
G01X685800Y-143904D02*
G01X795807Y-33896D01*
G01X1171004Y-143904D02*
G01X1282700Y-143904D01*
G01X-939800Y-38100D02*
G01X-1079293Y-38100D01*
G01X-1083496Y-33896D01*
G01X409004Y-33896D02*
G01X409004Y22797D01*
G01X342900Y88900D01*
G01X-217500Y88900D02*
G01X-340296Y-33896D01*
G01X342900Y88900D02*
G01X-217500Y88900D01*
G01X409004Y-33896D02*
G01X531800Y88900D01*
G01X1048207Y88900D02*
G01X1171004Y-33896D01*
G01X531800Y88900D02*
G01X1048207Y88900D01*
G01X-939800Y-38100D02*
G01X-834809Y66891D01*
G01X-368300Y66891D01*
G01X-340296Y38888D01*
G01X-340296Y-33896D01*
G04 Track End*

M02*

