G04 Layer: BottomLayer*
G04 EasyEDA Pro v3.2.135, 2026-06-15 15:00:53*
G04 Gerber Generator version 0.3*
G04 Scale: 100 percent, Rotated: No, Reflected: No*
G04 Dimensions in millimeters*
G04 Leading zeros omitted, absolute positions, 4 integers and 5 decimals*
G04 Generated by one-click*
G04 Object Configs: Pad,Via,Track,Text,Image,Dimension,BoardOutline,BoardCutout,CopperFilled,SolidRegion,FPCStiffener,Line,PlaneZone,ComponentProperty,ComponentSilkscreen,TearDrop*
G04 Layer Configs: 1,2,3,4,5,6,7,8,9,10,11,13,14,56*
G04 Copper Areas: 18*
%FSLAX45Y45*%
%MOMM*%
%ADD10C,0.2032*%
%ADD11C,0.254*%
%ADD12C,4.0*%
%ADD13R,2.79999X2.49999*%
%ADD14R,0.6X1.5*%
%ADD15C,0.6168*%
%ADD16C,0.61*%
G75*


G04 Copper Start*
G36*
G01X-968310Y183923D02*
G01X-948470Y206468D01*
G01X-931656Y231351D01*
G01X-918141Y258169D01*
G01X-908144Y286488D01*
G01X-901827Y315847D01*
G01X-899292Y345771D01*
G01X-900582Y375775D01*
G01X-905674Y405371D01*
G01X-914486Y434080D01*
G01X-926876Y461437D01*
G01X-942642Y486997D01*
G01X-961528Y510346D01*
G01X-983229Y531105D01*
G01X-1007393Y548938D01*
G01X-1033626Y563555D01*
G01X1283756Y563555D01*
G01X1298038Y561946D01*
G01X1311605Y557199D01*
G01X1323775Y549552D01*
G01X1333938Y539389D01*
G01X1341585Y527219D01*
G01X1346332Y513652D01*
G01X1347942Y499369D01*
G01X1347942Y-132025D01*
G01X1343305Y-116987D01*
G01X1335256Y-103464D01*
G01X1324247Y-92218D01*
G01X1310898Y-83884D01*
G01X1295961Y-78929D01*
G01X1280277Y-77634D01*
G01X1264730Y-80071D01*
G01X1250195Y-86103D01*
G01X1237490Y-95390D01*
G01X33896Y-95390D01*
G01X21340Y-97043D01*
G01X9639Y-101889D01*
G01X-408Y-109599D01*
G01X-70895Y-180086D01*
G01X-102695Y-180086D01*
G01X-95311Y-172239D01*
G01X-90595Y-162551D01*
G01X-88974Y-151898D01*
G01X-88974Y-1899D01*
G01X-89656Y5057D01*
G01X-91675Y11747D01*
G01X-86058Y3731D01*
G01X-78481Y-2465D01*
G01X-69508Y-6378D01*
G01X-59812Y-7715D01*
G01X220188Y-7715D01*
G01X231255Y-5962D01*
G01X241238Y-875D01*
G01X249162Y7048D01*
G01X254249Y17032D01*
G01X256002Y28099D01*
G01X256002Y278098D01*
G01X254249Y289165D01*
G01X249162Y299149D01*
G01X241238Y307072D01*
G01X231255Y312159D01*
G01X220188Y313912D01*
G01X-59812Y313912D01*
G01X-70879Y312159D01*
G01X-80863Y307072D01*
G01X-88786Y299149D01*
G01X-93873Y289165D01*
G01X-95626Y278098D01*
G01X-95626Y28099D01*
G01X-94944Y21143D01*
G01X-92924Y14453D01*
G01X-98541Y22469D01*
G01X-106119Y28665D01*
G01X-115091Y32578D01*
G01X-124788Y33915D01*
G01X-184788Y33915D01*
G01X-195243Y32355D01*
G01X-204787Y27811D01*
G01X-214332Y32355D01*
G01X-224787Y33915D01*
G01X-284787Y33915D01*
G01X-295243Y32355D01*
G01X-304787Y27811D01*
G01X-314332Y32355D01*
G01X-324787Y33915D01*
G01X-384787Y33915D01*
G01X-395243Y32355D01*
G01X-404787Y27811D01*
G01X-414332Y32355D01*
G01X-424787Y33915D01*
G01X-484787Y33915D01*
G01X-494559Y32556D01*
G01X-503590Y28583D01*
G01X-511193Y22295D01*
G01X-516793Y14172D01*
G01X-514686Y20994D01*
G01X-513974Y28099D01*
G01X-513974Y278098D01*
G01X-515727Y289165D01*
G01X-520814Y299149D01*
G01X-528737Y307072D01*
G01X-538721Y312159D01*
G01X-549788Y313912D01*
G01X-829788Y313912D01*
G01X-840855Y312159D01*
G01X-850838Y307072D01*
G01X-858762Y299149D01*
G01X-863849Y289165D01*
G01X-865602Y278098D01*
G01X-865602Y28099D01*
G01X-863849Y17032D01*
G01X-858762Y7048D01*
G01X-850838Y-875D01*
G01X-840855Y-5962D01*
G01X-829788Y-7715D01*
G01X-549788Y-7715D01*
G01X-540016Y-6356D01*
G01X-530985Y-2382D01*
G01X-523382Y3905D01*
G01X-517782Y12028D01*
G01X-519889Y5206D01*
G01X-520601Y-1899D01*
G01X-520601Y-151898D01*
G01X-518848Y-162965D01*
G01X-513761Y-172949D01*
G01X-505838Y-180872D01*
G01X-495854Y-185959D01*
G01X-484787Y-187712D01*
G01X-434122Y-187712D01*
G01X-439195Y-192786D01*
G01X-716505Y-192786D01*
G01X-873527Y-35764D01*
G01X-875841Y-20582D01*
G01X-881586Y-6341D01*
G01X-890452Y6198D01*
G01X-901964Y16361D01*
G01X-915506Y23604D01*
G01X-930350Y27537D01*
G01X-945701Y27951D01*
G01X-960736Y24822D01*
G01X-974648Y18320D01*
G01X-986691Y8791D01*
G01X-996220Y-3252D01*
G01X-1002722Y-17164D01*
G01X-1005851Y-32199D01*
G01X-1005437Y-47550D01*
G01X-1001504Y-62394D01*
G01X-994261Y-75936D01*
G01X-984098Y-87448D01*
G01X-971559Y-96314D01*
G01X-957318Y-102059D01*
G01X-942136Y-104373D01*
G01X-770905Y-275605D01*
G01X-760857Y-283314D01*
G01X-749156Y-288161D01*
G01X-736600Y-289814D01*
G01X-419100Y-289814D01*
G01X-406544Y-288161D01*
G01X-394843Y-283314D01*
G01X-384795Y-275605D01*
G01X-320483Y-211292D01*
G01X-313770Y-202895D01*
G01X-309072Y-193227D01*
G01X-306618Y-182761D01*
G01X-304787Y-181608D01*
G01X-303301Y-182556D01*
G01X-303301Y-189713D01*
G01X-301648Y-202269D01*
G01X-296802Y-213970D01*
G01X-289092Y-224017D01*
G01X-250205Y-262905D01*
G01X-240157Y-270614D01*
G01X-228456Y-275461D01*
G01X-215900Y-277114D01*
G01X-50800Y-277114D01*
G01X-38244Y-275461D01*
G01X-26543Y-270614D01*
G01X-16495Y-262905D01*
G01X53991Y-192418D01*
G01X1237490Y-192418D01*
G01X1250195Y-201705D01*
G01X1264730Y-207737D01*
G01X1280277Y-210174D01*
G01X1295961Y-208878D01*
G01X1310898Y-203924D01*
G01X1324247Y-195589D01*
G01X1335256Y-184344D01*
G01X1343305Y-170821D01*
G01X1347942Y-155782D01*
G01X1347942Y-373557D01*
G01X1337201Y-345266D01*
G01X1322926Y-318582D01*
G01X1305351Y-293947D01*
G01X1284766Y-271765D01*
G01X1261510Y-252402D01*
G01X1235965Y-236177D01*
G01X1208553Y-223356D01*
G01X1179725Y-214152D01*
G01X1149956Y-208715D01*
G01X1119735Y-207136D01*
G01X1089561Y-209440D01*
G01X1059930Y-215589D01*
G01X1031331Y-225482D01*
G01X1004235Y-238956D01*
G01X979087Y-255790D01*
G01X956302Y-275705D01*
G01X936255Y-298374D01*
G01X919276Y-323424D01*
G01X905645Y-350443D01*
G01X895586Y-378984D01*
G01X889265Y-408578D01*
G01X886787Y-438738D01*
G01X888191Y-468968D01*
G01X893455Y-498768D01*
G01X902492Y-527649D01*
G01X915153Y-555135D01*
G01X931231Y-580773D01*
G01X950458Y-604141D01*
G01X972521Y-624854D01*
G01X997054Y-642572D01*
G01X-1283756Y-642572D01*
G01X-1298038Y-640962D01*
G01X-1311605Y-636215D01*
G01X-1323775Y-628568D01*
G01X-1333938Y-618405D01*
G01X-1341585Y-606235D01*
G01X-1346332Y-592668D01*
G01X-1347942Y-578386D01*
G01X-1347942Y249241D01*
G01X-1333324Y223007D01*
G01X-1315492Y198844D01*
G01X-1294732Y177143D01*
G01X-1271383Y158256D01*
G01X-1245823Y142490D01*
G01X-1218467Y130100D01*
G01X-1189758Y121288D01*
G01X-1160161Y116196D01*
G01X-1130158Y114906D01*
G01X-1100234Y117441D01*
G01X-1070874Y123757D01*
G01X-1042556Y133755D01*
G01X-1015738Y147270D01*
G01X-990854Y164083D01*
G01X-968310Y183923D01*
G37*
G54D10*
G01X-968310Y183923D02*
G03X-1033626Y563555I-166745J166746D01*
G01X1283756Y563555D01*
G02X1347942Y499369I0J-64186D01*
G01X1347942Y-132025D01*
G03X1237490Y-95390I-65242J-11878D01*
G01X33896Y-95390D01*
G03X-408Y-109599I0J-48514D01*
G01X-70895Y-180086D01*
G01X-102695Y-180086D01*
G03X-88974Y-151898I-22093J28188D01*
G01X-88974Y-1899D01*
G03X-91675Y11747I-35814J0D01*
G03X-59812Y-7715I31863J16351D01*
G01X220188Y-7715D01*
G03X256002Y28099I0J35814D01*
G01X256002Y278098D01*
G03X220188Y313912I-35814J0D01*
G01X-59812Y313912D01*
G03X-95626Y278098I0J-35814D01*
G01X-95626Y28099D01*
G03X-92924Y14453I35814J0D01*
G03X-124788Y33915I-31863J-16351D01*
G01X-184788Y33915D01*
G03X-204787Y27811I0J-35814D01*
G03X-224787Y33915I-20000J-29709D01*
G01X-284787Y33915D01*
G03X-304787Y27811I0J-35814D01*
G03X-324787Y33915I-20000J-29709D01*
G01X-384787Y33915D01*
G03X-404787Y27811I0J-35814D01*
G03X-424787Y33915I-20000J-29709D01*
G01X-484787Y33915D01*
G03X-516793Y14172I0J-35814D01*
G03X-513974Y28099I-32995J13926D01*
G01X-513974Y278098D01*
G03X-549788Y313912I-35814J0D01*
G01X-829788Y313912D01*
G03X-865602Y278098I0J-35814D01*
G01X-865602Y28099D01*
G03X-829788Y-7715I35814J0D01*
G01X-549788Y-7715D01*
G03X-517782Y12028I0J35814D01*
G03X-520601Y-1899I32995J-13926D01*
G01X-520601Y-151898D01*
G03X-484787Y-187712I35814J0D01*
G01X-434122Y-187712D01*
G01X-439195Y-192786D01*
G01X-716505Y-192786D01*
G01X-873527Y-35764D01*
G03X-986691Y8791I-66273J-2336D01*
G03X-942136Y-104373I46891J-46891D01*
G01X-770905Y-275605D01*
G03X-736600Y-289814I34305J34305D01*
G01X-419100Y-289814D01*
G03X-384795Y-275605I0J48514D01*
G01X-320483Y-211292D01*
G03X-306618Y-182761I-34305J34305D01*
G01X-304787Y-181608D01*
G01X-303301Y-182556D01*
G01X-303301Y-189713D01*
G03X-289092Y-224017I48514J0D01*
G01X-250205Y-262905D01*
G03X-215900Y-277114I34305J34305D01*
G01X-50800Y-277114D01*
G03X-16495Y-262905I0J48514D01*
G01X53991Y-192418D01*
G01X1237490Y-192418D01*
G03X1347942Y-155782I45210J48514D01*
G01X1347942Y-373557D01*
G03X979087Y-255790I-225378J-69376D01*
G03X997054Y-642572I143477J-187143D01*
G01X-1283756Y-642572D01*
G02X-1347942Y-578386I0J64186D01*
G01X-1347942Y249241D01*
G03X-968310Y183923I212886J101429D01*
G54D11*
G01X-689788Y153099D02*
G01X-855442Y153099D01*
G01X-689788Y153099D02*
G01X-524134Y153099D01*
G01X-689788Y153099D02*
G01X-689788Y303752D01*
G01X-689788Y153099D02*
G01X-689788Y2445D01*
G01X-454787Y-76898D02*
G01X-510441Y-76898D01*
G01X-454787Y-76898D02*
G01X-454787Y23755D01*
G01X-454787Y-76898D02*
G01X-454787Y-177552D01*
G01X-154788Y-76898D02*
G01X-99134Y-76898D01*
G01X-154788Y-76898D02*
G01X-154788Y23755D01*
G01X80188Y153099D02*
G01X-85466Y153099D01*
G01X80188Y153099D02*
G01X245842Y153099D01*
G01X80188Y153099D02*
G01X80188Y303752D01*
G01X80188Y153099D02*
G01X80188Y2445D01*
G01X-1135056Y350669D02*
G01X-909402Y350669D01*
G01X-1135056Y350669D02*
G01X-1135056Y125015D01*
G01X1122564Y-442933D02*
G01X896910Y-442933D01*
G01X1122564Y-442933D02*
G01X1122564Y-217279D01*
G04 Copper End*

G04 Pad Start*
G54D12*
G01X-1135056Y350669D03*
G01X1122563Y-442933D03*
G54D13*
G01X80188Y153099D03*
G01X-689788Y153099D03*
G54D14*
G01X-154788Y-76898D03*
G01X-254787Y-76898D03*
G01X-354787Y-76898D03*
G01X-454787Y-76898D03*
G04 Pad End*

G04 Via Start*
G54D16*
G01X1282700Y-143904D03*
G01X-939800Y-38100D03*
G01X-839942Y373428D03*
G01X-331942Y373428D03*
G01X176058Y373428D03*
G01X684058Y373428D03*
G01X1192058Y373428D03*
G01X475000Y287000D03*
G01X983000Y287000D03*
G01X475000Y-221000D03*
G01X983000Y-221000D03*
G04 Via End*

G04 Track Start*
G54D11*
G01X1282700Y-143904D02*
G01X33896Y-143904D01*
G01X-50800Y-228600D01*
G01X-215900Y-228600D01*
G01X-254787Y-189713D01*
G01X-254787Y-76898D01*
G01X-354787Y-76898D02*
G01X-354787Y-176987D01*
G01X-419100Y-241300D01*
G01X-736600Y-241300D01*
G01X-939800Y-38100D01*
G04 Track End*

M02*

