G04 Layer: BottomSilkscreenLayer*
G04 EasyEDA Pro v3.2.135, 2026-06-15 15:00:53*
G04 Gerber Generator version 0.3*
G04 Scale: 100 percent, Rotated: No, Reflected: No*
G04 Dimensions in millimeters*
G04 Leading zeros omitted, absolute positions, 4 integers and 5 decimals*
G04 Generated by one-click*
G04 Object Configs: Pad,Via,Track,Text,Image,Dimension,BoardOutline,BoardCutout,CopperFilled,SolidRegion,FPCStiffener,Line,PlaneZone,ComponentProperty,ComponentSilkscreen,TearDrop*
G04 Layer Configs: 1,2,3,4,5,6,7,8,9,10,11,13,14,56*
G04 Copper Areas: 0*
%FSLAX45Y45*%
%MOMM*%
%ADD10C,0.1*%
%ADD11C,0.1524*%
%ADD12C,0.254*%
%ADD13C,0.5973*%
G75*


G04 Text Start*
G54D10*
G01X-713740Y-255016D02*
G01X-715772Y-259080D01*
G01X-719836Y-263144D01*
G01X-723900Y-265176D01*
G01X-732028Y-265176D01*
G01X-736092Y-263144D01*
G01X-740156Y-259080D01*
G01X-742188Y-255016D01*
G01X-744220Y-248920D01*
G01X-744220Y-238760D01*
G01X-742188Y-232664D01*
G01X-740156Y-228600D01*
G01X-736092Y-224536D01*
G01X-732028Y-222504D01*
G01X-723900Y-222504D01*
G01X-719836Y-224536D01*
G01X-715772Y-228600D01*
G01X-713740Y-232664D01*
G01X-713740Y-238760D01*
G01X-723900Y-238760D02*
G01X-713740Y-238760D01*
G01X-693928Y-265176D02*
G01X-693928Y-222504D01*
G01X-693928Y-265176D02*
G01X-665480Y-222504D01*
G01X-665480Y-265176D02*
G01X-665480Y-222504D01*
G01X-645668Y-265176D02*
G01X-645668Y-222504D01*
G01X-645668Y-265176D02*
G01X-631444Y-265176D01*
G01X-625348Y-263144D01*
G01X-621284Y-259080D01*
G01X-619252Y-255016D01*
G01X-617220Y-248920D01*
G01X-617220Y-238760D01*
G01X-619252Y-232664D01*
G01X-621284Y-228600D01*
G01X-625348Y-224536D01*
G01X-631444Y-222504D01*
G01X-645668Y-222504D01*
G01X-551942Y-265176D02*
G01X-535686Y-222504D01*
G01X-519430Y-265176D02*
G01X-535686Y-222504D01*
G01X-469138Y-255016D02*
G01X-471170Y-259080D01*
G01X-475234Y-263144D01*
G01X-479298Y-265176D01*
G01X-487426Y-265176D01*
G01X-491490Y-263144D01*
G01X-495554Y-259080D01*
G01X-497586Y-255016D01*
G01X-499618Y-248920D01*
G01X-499618Y-238760D01*
G01X-497586Y-232664D01*
G01X-495554Y-228600D01*
G01X-491490Y-224536D01*
G01X-487426Y-222504D01*
G01X-479298Y-222504D01*
G01X-475234Y-224536D01*
G01X-471170Y-228600D01*
G01X-469138Y-232664D01*
G01X-418846Y-255016D02*
G01X-420878Y-259080D01*
G01X-424942Y-263144D01*
G01X-429006Y-265176D01*
G01X-437134Y-265176D01*
G01X-441198Y-263144D01*
G01X-445262Y-259080D01*
G01X-447294Y-255016D01*
G01X-449326Y-248920D01*
G01X-449326Y-238760D01*
G01X-447294Y-232664D01*
G01X-445262Y-228600D01*
G01X-441198Y-224536D01*
G01X-437134Y-222504D01*
G01X-429006Y-222504D01*
G01X-424942Y-224536D01*
G01X-420878Y-228600D01*
G01X-418846Y-232664D01*
G01X-374650Y-265176D02*
G01X-394970Y-265176D01*
G01X-397002Y-246888D01*
G01X-394970Y-248920D01*
G01X-388874Y-250952D01*
G01X-382778Y-250952D01*
G01X-376682Y-248920D01*
G01X-372618Y-244856D01*
G01X-370586Y-238760D01*
G01X-370586Y-234696D01*
G01X-372618Y-228600D01*
G01X-376682Y-224536D01*
G01X-382778Y-222504D01*
G01X-388874Y-222504D01*
G01X-394970Y-224536D01*
G01X-397002Y-226568D01*
G01X-399034Y-230632D01*
G01X-350774Y-265176D02*
G01X-334518Y-222504D01*
G01X-318262Y-265176D02*
G01X-334518Y-222504D01*
G01X-252984Y-265176D02*
G01X-252984Y-222504D01*
G01X-252984Y-222504D02*
G01X-228600Y-222504D01*
G01X-208788Y-265176D02*
G01X-208788Y-222504D01*
G01X-208788Y-265176D02*
G01X-182372Y-265176D01*
G01X-208788Y-244856D02*
G01X-192532Y-244856D01*
G01X-208788Y-222504D02*
G01X-182372Y-222504D01*
G01X-162560Y-265176D02*
G01X-162560Y-222504D01*
G01X-162560Y-265176D02*
G01X-148336Y-265176D01*
G01X-142240Y-263144D01*
G01X-138176Y-259080D01*
G01X-136144Y-255016D01*
G01X-134112Y-248920D01*
G01X-134112Y-238760D01*
G01X-136144Y-232664D01*
G01X-138176Y-228600D01*
G01X-142240Y-224536D01*
G01X-148336Y-222504D01*
G01X-162560Y-222504D01*
G01X-114300Y-208280D02*
G01X-77724Y-208280D01*
G01X-57912Y-265176D02*
G01X-57912Y-222504D01*
G01X-57912Y-265176D02*
G01X-43688Y-265176D01*
G01X-37592Y-263144D01*
G01X-33528Y-259080D01*
G01X-31496Y-255016D01*
G01X-29464Y-248920D01*
G01X-29464Y-238760D01*
G01X-31496Y-232664D01*
G01X-33528Y-228600D01*
G01X-37592Y-224536D01*
G01X-43688Y-222504D01*
G01X-57912Y-222504D01*
G01X-9652Y-265176D02*
G01X-9652Y-222504D01*
G01X86106Y-255016D02*
G01X84074Y-259080D01*
G01X80010Y-263144D01*
G01X75946Y-265176D01*
G01X67818Y-265176D01*
G01X63754Y-263144D01*
G01X59690Y-259080D01*
G01X57658Y-255016D01*
G01X55626Y-248920D01*
G01X55626Y-238760D01*
G01X57658Y-232664D01*
G01X59690Y-228600D01*
G01X63754Y-224536D01*
G01X67818Y-222504D01*
G01X75946Y-222504D01*
G01X80010Y-224536D01*
G01X84074Y-228600D01*
G01X86106Y-232664D01*
G01X86106Y-238760D01*
G01X75946Y-238760D02*
G01X86106Y-238760D01*
G01X105918Y-265176D02*
G01X105918Y-222504D01*
G01X105918Y-265176D02*
G01X134366Y-222504D01*
G01X134366Y-265176D02*
G01X134366Y-222504D01*
G01X154178Y-265176D02*
G01X154178Y-222504D01*
G01X154178Y-265176D02*
G01X168402Y-265176D01*
G01X174498Y-263144D01*
G01X178562Y-259080D01*
G01X180594Y-255016D01*
G01X182626Y-248920D01*
G01X182626Y-238760D01*
G01X180594Y-232664D01*
G01X178562Y-228600D01*
G01X174498Y-224536D01*
G01X168402Y-222504D01*
G01X154178Y-222504D01*
G54D11*
G01X-919480Y-119634D02*
G01X-919480Y-54610D01*
G01X-919480Y-119634D02*
G01X-879348Y-119634D01*
G01X-919480Y-88646D02*
G01X-894588Y-88646D01*
G01X-849122Y-119634D02*
G01X-849122Y-54610D01*
G01X-849122Y-119634D02*
G01X-821436Y-119634D01*
G01X-812038Y-116586D01*
G01X-808990Y-113538D01*
G01X-805942Y-107188D01*
G01X-805942Y-98044D01*
G01X-808990Y-91948D01*
G01X-812038Y-88646D01*
G01X-821436Y-85598D01*
G01X-849122Y-85598D01*
G01X-729488Y-104140D02*
G01X-732536Y-110490D01*
G01X-738632Y-116586D01*
G01X-744982Y-119634D01*
G01X-757174Y-119634D01*
G01X-763524Y-116586D01*
G01X-769620Y-110490D01*
G01X-772668Y-104140D01*
G01X-775716Y-94996D01*
G01X-775716Y-79502D01*
G01X-772668Y-70104D01*
G01X-769620Y-64008D01*
G01X-763524Y-57658D01*
G01X-757174Y-54610D01*
G01X-744982Y-54610D01*
G01X-738632Y-57658D01*
G01X-732536Y-64008D01*
G01X-729488Y-70104D01*
G01X-696214Y-104140D02*
G01X-696214Y-107188D01*
G01X-693166Y-113538D01*
G01X-690118Y-116586D01*
G01X-684022Y-119634D01*
G01X-671576Y-119634D01*
G01X-665226Y-116586D01*
G01X-662178Y-113538D01*
G01X-659130Y-107188D01*
G01X-659130Y-101092D01*
G01X-662178Y-94996D01*
G01X-668528Y-85598D01*
G01X-699262Y-54610D01*
G01X-656082Y-54610D01*
G04 Text End*

G04 PolygonModel Start*
G54D12*
G01X-754799Y472590D02*
G01X145199Y472590D01*
G01X-754799Y301203D02*
G01X-754799Y472590D01*
G01X-754799Y472590D02*
G01X-854799Y472590D01*
G01X-854799Y472590D02*
G01X-854799Y573590D01*
G01X-854799Y573590D02*
G01X245199Y573590D01*
G01X245199Y573590D02*
G01X245199Y473591D01*
G01X245199Y473591D02*
G01X145199Y473591D01*
G01X145199Y473591D02*
G01X145199Y301203D01*
G01X-527355Y22591D02*
G01X-82245Y22591D01*

G04 Circle Start*
G01X-600837Y-61404D02*
G03X-528752Y-61404I36043J0D01*
G03X-600837Y-61404I-36043J0D01*
G04 Circle End*

M02*

