G04 Layer: DrillDrawingLayer*
G04 EasyEDA Pro v3.2.135, 2026-06-15 15:00:53*
G04 Gerber Generator version 0.3*
G04 Scale: 100 percent, Rotated: No, Reflected: No*
G04 Dimensions in millimeters*
G04 Leading zeros omitted, absolute positions, 4 integers and 5 decimals*
G04 Generated by one-click*
G04 Object Configs: Pad,Via,Track,Text,Image,Dimension,BoardOutline,BoardCutout,CopperFilled,SolidRegion,FPCStiffener,Line,PlaneZone,ComponentProperty,ComponentSilkscreen,TearDrop*
G04 Layer Configs: 1,2,3,4,5,6,7,8,9,10,11,13,14,56*
G04 Copper Areas: 0*
%FSLAX45Y45*%
%MOMM*%
%AMIconRect*4,1,4,0.28,-0.28,-0.28,-0.28,-0.28,0.28,0.28,0.28,0.28,-0.28,0*4,0,4,0.233333,-0.233333,0.233333,0.233333,-0.233333,0.233333,-0.233333,-0.233333,0.233333,-0.233333,0*%
%ADD10IconRect*%
%ADD11C,0.616X0.522667*%
%ADD12C,0.2032*%
%ADD13C,0.254*%
G75*


G04 Drill Drawing Start*
G54D10*
G01X-1135056Y350669D03*
G01X1122563Y-442933D03*
G54D11*
G01X-939800Y-38100D03*
G01X-839942Y373428D03*
G01X-331942Y373428D03*
G01X176058Y373428D03*
G01X475000Y-221000D03*
G01X475000Y287000D03*
G01X684058Y373428D03*
G01X983000Y-221000D03*
G01X983000Y287000D03*
G01X1192058Y373428D03*
G01X1282700Y-143904D03*
G04 Drill Drawing End*

G04 Text Start*
G54D12*
G01X3684201Y377663D02*
G01X3684201Y257521D01*
G01X3684201Y377663D02*
G01X3729921Y257521D01*
G01X3775641Y377663D02*
G01X3729921Y257521D01*
G01X3775641Y377663D02*
G01X3775641Y257521D01*
G01X3891973Y337531D02*
G01X3891973Y257521D01*
G01X3891973Y320513D02*
G01X3880543Y331943D01*
G01X3869113Y337531D01*
G01X3852095Y337531D01*
G01X3840665Y331943D01*
G01X3829235Y320513D01*
G01X3823393Y303241D01*
G01X3823393Y291811D01*
G01X3829235Y274793D01*
G01X3840665Y263363D01*
G01X3852095Y257521D01*
G01X3869113Y257521D01*
G01X3880543Y263363D01*
G01X3891973Y274793D01*
G01X3939725Y337531D02*
G01X3939725Y257521D01*
G01X3939725Y303241D02*
G01X3945567Y320513D01*
G01X3956997Y331943D01*
G01X3968427Y337531D01*
G01X3985445Y337531D01*
G01X4033197Y377663D02*
G01X4033197Y257521D01*
G01X4090347Y337531D02*
G01X4033197Y280381D01*
G01X4056057Y303241D02*
G01X4096189Y257521D01*
G01X5221482Y348961D02*
G01X5215640Y360391D01*
G01X5204210Y371821D01*
G01X5192780Y377663D01*
G01X5169920Y377663D01*
G01X5158490Y371821D01*
G01X5147060Y360391D01*
G01X5141472Y348961D01*
G01X5135630Y331943D01*
G01X5135630Y303241D01*
G01X5141472Y286223D01*
G01X5147060Y274793D01*
G01X5158490Y263363D01*
G01X5169920Y257521D01*
G01X5192780Y257521D01*
G01X5204210Y263363D01*
G01X5215640Y274793D01*
G01X5221482Y286223D01*
G01X5297936Y337531D02*
G01X5286506Y331943D01*
G01X5275076Y320513D01*
G01X5269234Y303241D01*
G01X5269234Y291811D01*
G01X5275076Y274793D01*
G01X5286506Y263363D01*
G01X5297936Y257521D01*
G01X5314954Y257521D01*
G01X5326384Y263363D01*
G01X5337814Y274793D01*
G01X5343656Y291811D01*
G01X5343656Y303241D01*
G01X5337814Y320513D01*
G01X5326384Y331943D01*
G01X5314954Y337531D01*
G01X5297936Y337531D01*
G01X5391408Y337531D02*
G01X5391408Y280381D01*
G01X5397250Y263363D01*
G01X5408680Y257521D01*
G01X5425698Y257521D01*
G01X5437128Y263363D01*
G01X5454400Y280381D01*
G01X5454400Y337531D02*
G01X5454400Y257521D01*
G01X5502152Y337531D02*
G01X5502152Y257521D01*
G01X5502152Y314671D02*
G01X5519424Y331943D01*
G01X5530854Y337531D01*
G01X5547872Y337531D01*
G01X5559302Y331943D01*
G01X5565144Y314671D01*
G01X5565144Y257521D01*
G01X5630168Y377663D02*
G01X5630168Y280381D01*
G01X5635756Y263363D01*
G01X5647186Y257521D01*
G01X5658616Y257521D01*
G01X5612896Y337531D02*
G01X5653028Y337531D01*
G01X6629803Y360391D02*
G01X6618373Y371821D01*
G01X6601355Y377663D01*
G01X6578495Y377663D01*
G01X6561223Y371821D01*
G01X6549793Y360391D01*
G01X6549793Y348961D01*
G01X6555635Y337531D01*
G01X6561223Y331943D01*
G01X6572653Y326101D01*
G01X6606943Y314671D01*
G01X6618373Y309083D01*
G01X6624215Y303241D01*
G01X6629803Y291811D01*
G01X6629803Y274793D01*
G01X6618373Y263363D01*
G01X6601355Y257521D01*
G01X6578495Y257521D01*
G01X6561223Y263363D01*
G01X6549793Y274793D01*
G01X6677555Y377663D02*
G01X6683397Y371821D01*
G01X6688985Y377663D01*
G01X6683397Y383251D01*
G01X6677555Y377663D01*
G01X6683397Y337531D02*
G01X6683397Y257521D01*
G01X6799729Y337531D02*
G01X6736737Y257521D01*
G01X6736737Y337531D02*
G01X6799729Y337531D01*
G01X6736737Y257521D02*
G01X6799729Y257521D01*
G01X6847481Y303241D02*
G01X6916061Y303241D01*
G01X6916061Y314671D01*
G01X6910473Y326101D01*
G01X6904631Y331943D01*
G01X6893201Y337531D01*
G01X6876183Y337531D01*
G01X6864753Y331943D01*
G01X6853323Y320513D01*
G01X6847481Y303241D01*
G01X6847481Y291811D01*
G01X6853323Y274793D01*
G01X6864753Y263363D01*
G01X6876183Y257521D01*
G01X6893201Y257521D01*
G01X6904631Y263363D01*
G01X6916061Y274793D01*
G01X10390926Y377663D02*
G01X10390926Y257521D01*
G01X10390926Y377663D02*
G01X10442488Y377663D01*
G01X10459506Y371821D01*
G01X10465348Y366233D01*
G01X10470936Y354803D01*
G01X10470936Y337531D01*
G01X10465348Y326101D01*
G01X10459506Y320513D01*
G01X10442488Y314671D01*
G01X10390926Y314671D01*
G01X10518688Y377663D02*
G01X10518688Y257521D01*
G01X10635020Y337531D02*
G01X10635020Y257521D01*
G01X10635020Y320513D02*
G01X10623590Y331943D01*
G01X10612160Y337531D01*
G01X10595142Y337531D01*
G01X10583712Y331943D01*
G01X10572282Y320513D01*
G01X10566440Y303241D01*
G01X10566440Y291811D01*
G01X10572282Y274793D01*
G01X10583712Y263363D01*
G01X10595142Y257521D01*
G01X10612160Y257521D01*
G01X10623590Y263363D01*
G01X10635020Y274793D01*
G01X10700044Y377663D02*
G01X10700044Y280381D01*
G01X10705632Y263363D01*
G01X10717062Y257521D01*
G01X10728492Y257521D01*
G01X10682772Y337531D02*
G01X10722904Y337531D01*
G01X10776244Y303241D02*
G01X10844824Y303241D01*
G01X10844824Y314671D01*
G01X10839236Y326101D01*
G01X10833394Y331943D01*
G01X10821964Y337531D01*
G01X10804946Y337531D01*
G01X10793516Y331943D01*
G01X10782086Y320513D01*
G01X10776244Y303241D01*
G01X10776244Y291811D01*
G01X10782086Y274793D01*
G01X10793516Y263363D01*
G01X10804946Y257521D01*
G01X10821964Y257521D01*
G01X10833394Y263363D01*
G01X10844824Y274793D01*
G01X10961156Y377663D02*
G01X10961156Y257521D01*
G01X10961156Y320513D02*
G01X10949726Y331943D01*
G01X10938296Y337531D01*
G01X10921278Y337531D01*
G01X10909848Y331943D01*
G01X10898418Y320513D01*
G01X10892576Y303241D01*
G01X10892576Y291811D01*
G01X10898418Y274793D01*
G01X10909848Y263363D01*
G01X10921278Y257521D01*
G01X10938296Y257521D01*
G01X10949726Y263363D01*
G01X10961156Y274793D01*
G01X11932343Y360391D02*
G01X11920913Y371821D01*
G01X11903895Y377663D01*
G01X11881035Y377663D01*
G01X11863763Y371821D01*
G01X11852333Y360391D01*
G01X11852333Y348961D01*
G01X11858175Y337531D01*
G01X11863763Y331943D01*
G01X11875193Y326101D01*
G01X11909483Y314671D01*
G01X11920913Y309083D01*
G01X11926755Y303241D01*
G01X11932343Y291811D01*
G01X11932343Y274793D01*
G01X11920913Y263363D01*
G01X11903895Y257521D01*
G01X11881035Y257521D01*
G01X11863763Y263363D01*
G01X11852333Y274793D01*
G01X11980095Y377663D02*
G01X11980095Y257521D01*
G01X11980095Y314671D02*
G01X11997367Y331943D01*
G01X12008797Y337531D01*
G01X12025815Y337531D01*
G01X12037245Y331943D01*
G01X12043087Y314671D01*
G01X12043087Y257521D01*
G01X12159419Y337531D02*
G01X12159419Y257521D01*
G01X12159419Y320513D02*
G01X12147989Y331943D01*
G01X12136559Y337531D01*
G01X12119541Y337531D01*
G01X12108111Y331943D01*
G01X12096681Y320513D01*
G01X12090839Y303241D01*
G01X12090839Y291811D01*
G01X12096681Y274793D01*
G01X12108111Y263363D01*
G01X12119541Y257521D01*
G01X12136559Y257521D01*
G01X12147989Y263363D01*
G01X12159419Y274793D01*
G01X12207171Y337531D02*
G01X12207171Y217643D01*
G01X12207171Y320513D02*
G01X12218601Y331943D01*
G01X12230031Y337531D01*
G01X12247303Y337531D01*
G01X12258733Y331943D01*
G01X12270163Y320513D01*
G01X12275751Y303241D01*
G01X12275751Y291811D01*
G01X12270163Y274793D01*
G01X12258733Y263363D01*
G01X12247303Y257521D01*
G01X12230031Y257521D01*
G01X12218601Y263363D01*
G01X12207171Y274793D01*
G01X12323503Y303241D02*
G01X12392083Y303241D01*
G01X12392083Y314671D01*
G01X12386495Y326101D01*
G01X12380653Y331943D01*
G01X12369223Y337531D01*
G01X12352205Y337531D01*
G01X12340775Y331943D01*
G01X12329345Y320513D01*
G01X12323503Y303241D01*
G01X12323503Y291811D01*
G01X12329345Y274793D01*
G01X12340775Y263363D01*
G01X12352205Y257521D01*
G01X12369223Y257521D01*
G01X12380653Y263363D01*
G01X12392083Y274793D01*
G01X13283515Y377663D02*
G01X13329235Y257521D01*
G01X13374955Y377663D02*
G01X13329235Y257521D01*
G01X13422707Y377663D02*
G01X13428549Y371821D01*
G01X13434137Y377663D01*
G01X13428549Y383251D01*
G01X13422707Y377663D01*
G01X13428549Y337531D02*
G01X13428549Y257521D01*
G01X13550469Y337531D02*
G01X13550469Y257521D01*
G01X13550469Y320513D02*
G01X13539039Y331943D01*
G01X13527609Y337531D01*
G01X13510591Y337531D01*
G01X13499161Y331943D01*
G01X13487731Y320513D01*
G01X13481889Y303241D01*
G01X13481889Y291811D01*
G01X13487731Y274793D01*
G01X13499161Y263363D01*
G01X13510591Y257521D01*
G01X13527609Y257521D01*
G01X13539039Y263363D01*
G01X13550469Y274793D01*
G01X13701091Y400523D02*
G01X13598221Y217643D01*
G01X13748843Y377663D02*
G01X13748843Y257521D01*
G01X13748843Y377663D02*
G01X13800405Y377663D01*
G01X13817423Y371821D01*
G01X13823265Y366233D01*
G01X13828853Y354803D01*
G01X13828853Y337531D01*
G01X13823265Y326101D01*
G01X13817423Y320513D01*
G01X13800405Y314671D01*
G01X13748843Y314671D01*
G01X13945185Y337531D02*
G01X13945185Y257521D01*
G01X13945185Y320513D02*
G01X13933755Y331943D01*
G01X13922325Y337531D01*
G01X13905307Y337531D01*
G01X13893877Y331943D01*
G01X13882447Y320513D01*
G01X13876605Y303241D01*
G01X13876605Y291811D01*
G01X13882447Y274793D01*
G01X13893877Y263363D01*
G01X13905307Y257521D01*
G01X13922325Y257521D01*
G01X13933755Y263363D01*
G01X13945185Y274793D01*
G01X14061517Y377663D02*
G01X14061517Y257521D01*
G01X14061517Y320513D02*
G01X14050087Y331943D01*
G01X14038657Y337531D01*
G01X14021639Y337531D01*
G01X14010209Y331943D01*
G01X13998779Y320513D01*
G01X13992937Y303241D01*
G01X13992937Y291811D01*
G01X13998779Y274793D01*
G01X14010209Y263363D01*
G01X14021639Y257521D01*
G01X14038657Y257521D01*
G01X14050087Y263363D01*
G01X14061517Y274793D01*
G01X14952694Y377663D02*
G01X14952694Y257521D01*
G01X14952694Y377663D02*
G01X15004256Y377663D01*
G01X15021274Y371821D01*
G01X15027116Y366233D01*
G01X15032704Y354803D01*
G01X15032704Y337531D01*
G01X15027116Y326101D01*
G01X15021274Y320513D01*
G01X15004256Y314671D01*
G01X14952694Y314671D01*
G01X15149036Y337531D02*
G01X15149036Y257521D01*
G01X15149036Y320513D02*
G01X15137606Y331943D01*
G01X15126176Y337531D01*
G01X15109158Y337531D01*
G01X15097728Y331943D01*
G01X15086298Y320513D01*
G01X15080456Y303241D01*
G01X15080456Y291811D01*
G01X15086298Y274793D01*
G01X15097728Y263363D01*
G01X15109158Y257521D01*
G01X15126176Y257521D01*
G01X15137606Y263363D01*
G01X15149036Y274793D01*
G01X15265368Y377663D02*
G01X15265368Y257521D01*
G01X15265368Y320513D02*
G01X15253938Y331943D01*
G01X15242508Y337531D01*
G01X15225490Y337531D01*
G01X15214060Y331943D01*
G01X15202630Y320513D01*
G01X15196788Y303241D01*
G01X15196788Y291811D01*
G01X15202630Y274793D01*
G01X15214060Y263363D01*
G01X15225490Y257521D01*
G01X15242508Y257521D01*
G01X15253938Y263363D01*
G01X15265368Y274793D01*
G01X15521146Y360391D02*
G01X15509716Y371821D01*
G01X15492698Y377663D01*
G01X15469838Y377663D01*
G01X15452566Y371821D01*
G01X15441136Y360391D01*
G01X15441136Y348961D01*
G01X15446978Y337531D01*
G01X15452566Y331943D01*
G01X15463996Y326101D01*
G01X15498286Y314671D01*
G01X15509716Y309083D01*
G01X15515558Y303241D01*
G01X15521146Y291811D01*
G01X15521146Y274793D01*
G01X15509716Y263363D01*
G01X15492698Y257521D01*
G01X15469838Y257521D01*
G01X15452566Y263363D01*
G01X15441136Y274793D01*
G01X15568898Y377663D02*
G01X15568898Y257521D01*
G01X15568898Y314671D02*
G01X15586170Y331943D01*
G01X15597600Y337531D01*
G01X15614618Y337531D01*
G01X15626048Y331943D01*
G01X15631890Y314671D01*
G01X15631890Y257521D01*
G01X15748222Y337531D02*
G01X15748222Y257521D01*
G01X15748222Y320513D02*
G01X15736792Y331943D01*
G01X15725362Y337531D01*
G01X15708344Y337531D01*
G01X15696914Y331943D01*
G01X15685484Y320513D01*
G01X15679642Y303241D01*
G01X15679642Y291811D01*
G01X15685484Y274793D01*
G01X15696914Y263363D01*
G01X15708344Y257521D01*
G01X15725362Y257521D01*
G01X15736792Y263363D01*
G01X15748222Y274793D01*
G01X15795974Y337531D02*
G01X15795974Y217643D01*
G01X15795974Y320513D02*
G01X15807404Y331943D01*
G01X15818834Y337531D01*
G01X15836106Y337531D01*
G01X15847536Y331943D01*
G01X15858966Y320513D01*
G01X15864554Y303241D01*
G01X15864554Y291811D01*
G01X15858966Y274793D01*
G01X15847536Y263363D01*
G01X15836106Y257521D01*
G01X15818834Y257521D01*
G01X15807404Y263363D01*
G01X15795974Y274793D01*
G01X15912306Y303241D02*
G01X15980886Y303241D01*
G01X15980886Y314671D01*
G01X15975298Y326101D01*
G01X15969456Y331943D01*
G01X15958026Y337531D01*
G01X15941008Y337531D01*
G01X15929578Y331943D01*
G01X15918148Y320513D01*
G01X15912306Y303241D01*
G01X15912306Y291811D01*
G01X15918148Y274793D01*
G01X15929578Y263363D01*
G01X15941008Y257521D01*
G01X15958026Y257521D01*
G01X15969456Y263363D01*
G01X15980886Y274793D01*
G01X16872063Y377663D02*
G01X16872063Y257521D01*
G01X16872063Y257521D02*
G01X16940643Y257521D01*
G01X17056975Y337531D02*
G01X17056975Y257521D01*
G01X17056975Y320513D02*
G01X17045545Y331943D01*
G01X17034115Y337531D01*
G01X17017097Y337531D01*
G01X17005667Y331943D01*
G01X16994237Y320513D01*
G01X16988395Y303241D01*
G01X16988395Y291811D01*
G01X16994237Y274793D01*
G01X17005667Y263363D01*
G01X17017097Y257521D01*
G01X17034115Y257521D01*
G01X17045545Y263363D01*
G01X17056975Y274793D01*
G01X17110569Y337531D02*
G01X17144859Y257521D01*
G01X17179149Y337531D02*
G01X17144859Y257521D01*
G01X17133429Y234661D01*
G01X17121999Y223231D01*
G01X17110569Y217643D01*
G01X17104727Y217643D01*
G01X17226901Y303241D02*
G01X17295481Y303241D01*
G01X17295481Y314671D01*
G01X17289893Y326101D01*
G01X17284051Y331943D01*
G01X17272621Y337531D01*
G01X17255603Y337531D01*
G01X17244173Y331943D01*
G01X17232743Y320513D01*
G01X17226901Y303241D01*
G01X17226901Y291811D01*
G01X17232743Y274793D01*
G01X17244173Y263363D01*
G01X17255603Y257521D01*
G01X17272621Y257521D01*
G01X17284051Y263363D01*
G01X17295481Y274793D01*
G01X17343233Y337531D02*
G01X17343233Y257521D01*
G01X17343233Y303241D02*
G01X17349075Y320513D01*
G01X17360505Y331943D01*
G01X17371935Y337531D01*
G01X17388953Y337531D01*
G01X17564721Y377663D02*
G01X17564721Y257521D01*
G01X17564721Y377663D02*
G01X17616283Y377663D01*
G01X17633301Y371821D01*
G01X17639143Y366233D01*
G01X17644731Y354803D01*
G01X17644731Y337531D01*
G01X17639143Y326101D01*
G01X17633301Y320513D01*
G01X17616283Y314671D01*
G01X17564721Y314671D01*
G01X17761063Y337531D02*
G01X17761063Y257521D01*
G01X17761063Y320513D02*
G01X17749633Y331943D01*
G01X17738203Y337531D01*
G01X17721185Y337531D01*
G01X17709755Y331943D01*
G01X17698325Y320513D01*
G01X17692483Y303241D01*
G01X17692483Y291811D01*
G01X17698325Y274793D01*
G01X17709755Y263363D01*
G01X17721185Y257521D01*
G01X17738203Y257521D01*
G01X17749633Y263363D01*
G01X17761063Y274793D01*
G01X17808815Y377663D02*
G01X17814657Y371821D01*
G01X17820245Y377663D01*
G01X17814657Y383251D01*
G01X17808815Y377663D01*
G01X17814657Y337531D02*
G01X17814657Y257521D01*
G01X17867997Y337531D02*
G01X17867997Y257521D01*
G01X17867997Y303241D02*
G01X17873839Y320513D01*
G01X17885269Y331943D01*
G01X17896699Y337531D01*
G01X17913717Y337531D01*
G01X5141472Y-231610D02*
G01X5141472Y-225768D01*
G01X5147060Y-214338D01*
G01X5152902Y-208750D01*
G01X5164332Y-202908D01*
G01X5187192Y-202908D01*
G01X5198622Y-208750D01*
G01X5204210Y-214338D01*
G01X5210052Y-225768D01*
G01X5210052Y-237198D01*
G01X5204210Y-248628D01*
G01X5192780Y-265900D01*
G01X5135630Y-323050D01*
G01X5215640Y-323050D01*
G01X6549793Y-225768D02*
G01X6561223Y-220180D01*
G01X6578495Y-202908D01*
G01X6578495Y-323050D01*
G01X6626247Y-225768D02*
G01X6637677Y-220180D01*
G01X6654949Y-202908D01*
G01X6654949Y-323050D01*
G01X6731403Y-202908D02*
G01X6714131Y-208750D01*
G01X6708543Y-220180D01*
G01X6708543Y-231610D01*
G01X6714131Y-243040D01*
G01X6725561Y-248628D01*
G01X6748421Y-254470D01*
G01X6765693Y-260058D01*
G01X6777123Y-271488D01*
G01X6782711Y-282918D01*
G01X6782711Y-300190D01*
G01X6777123Y-311620D01*
G01X6771281Y-317208D01*
G01X6754263Y-323050D01*
G01X6731403Y-323050D01*
G01X6714131Y-317208D01*
G01X6708543Y-311620D01*
G01X6702701Y-300190D01*
G01X6702701Y-282918D01*
G01X6708543Y-271488D01*
G01X6719973Y-260058D01*
G01X6736991Y-254470D01*
G01X6759851Y-248628D01*
G01X6771281Y-243040D01*
G01X6777123Y-231610D01*
G01X6777123Y-220180D01*
G01X6771281Y-208750D01*
G01X6754263Y-202908D01*
G01X6731403Y-202908D01*
G01X6836305Y-294348D02*
G01X6830463Y-300190D01*
G01X6836305Y-305778D01*
G01X6841893Y-300190D01*
G01X6836305Y-294348D01*
G01X6889645Y-225768D02*
G01X6901075Y-220180D01*
G01X6918347Y-202908D01*
G01X6918347Y-323050D01*
G01X6966099Y-243040D02*
G01X7029091Y-323050D01*
G01X7029091Y-243040D02*
G01X6966099Y-323050D01*
G01X7076843Y-225768D02*
G01X7088273Y-220180D01*
G01X7105545Y-202908D01*
G01X7105545Y-323050D01*
G01X7153297Y-225768D02*
G01X7164727Y-220180D01*
G01X7181999Y-202908D01*
G01X7181999Y-323050D01*
G01X7258453Y-202908D02*
G01X7241181Y-208750D01*
G01X7235593Y-220180D01*
G01X7235593Y-231610D01*
G01X7241181Y-243040D01*
G01X7252611Y-248628D01*
G01X7275471Y-254470D01*
G01X7292743Y-260058D01*
G01X7304173Y-271488D01*
G01X7309761Y-282918D01*
G01X7309761Y-300190D01*
G01X7304173Y-311620D01*
G01X7298331Y-317208D01*
G01X7281313Y-323050D01*
G01X7258453Y-323050D01*
G01X7241181Y-317208D01*
G01X7235593Y-311620D01*
G01X7229751Y-300190D01*
G01X7229751Y-282918D01*
G01X7235593Y-271488D01*
G01X7247023Y-260058D01*
G01X7264041Y-254470D01*
G01X7286901Y-248628D01*
G01X7298331Y-243040D01*
G01X7304173Y-231610D01*
G01X7304173Y-220180D01*
G01X7298331Y-208750D01*
G01X7281313Y-202908D01*
G01X7258453Y-202908D01*
G01X7363355Y-294348D02*
G01X7357513Y-300190D01*
G01X7363355Y-305778D01*
G01X7368943Y-300190D01*
G01X7363355Y-294348D01*
G01X7416695Y-225768D02*
G01X7428125Y-220180D01*
G01X7445397Y-202908D01*
G01X7445397Y-323050D01*
G01X7493149Y-243040D02*
G01X7493149Y-323050D01*
G01X7493149Y-265900D02*
G01X7510421Y-248628D01*
G01X7521851Y-243040D01*
G01X7538869Y-243040D01*
G01X7550299Y-248628D01*
G01X7556141Y-265900D01*
G01X7556141Y-323050D01*
G01X7556141Y-265900D02*
G01X7573159Y-248628D01*
G01X7584589Y-243040D01*
G01X7601861Y-243040D01*
G01X7613291Y-248628D01*
G01X7618879Y-265900D01*
G01X7618879Y-323050D01*
G01X7666631Y-202908D02*
G01X7672473Y-208750D01*
G01X7678061Y-202908D01*
G01X7672473Y-197320D01*
G01X7666631Y-202908D01*
G01X7672473Y-243040D02*
G01X7672473Y-323050D01*
G01X7725813Y-202908D02*
G01X7725813Y-323050D01*
G01X7813697Y-180048D02*
G01X7802267Y-191478D01*
G01X7790837Y-208750D01*
G01X7779407Y-231610D01*
G01X7773565Y-260058D01*
G01X7773565Y-282918D01*
G01X7779407Y-311620D01*
G01X7790837Y-334480D01*
G01X7802267Y-351498D01*
G01X7813697Y-362928D01*
G01X7872879Y-202908D02*
G01X7935871Y-202908D01*
G01X7901581Y-248628D01*
G01X7918599Y-248628D01*
G01X7930029Y-254470D01*
G01X7935871Y-260058D01*
G01X7941459Y-277330D01*
G01X7941459Y-288760D01*
G01X7935871Y-305778D01*
G01X7924441Y-317208D01*
G01X7907169Y-323050D01*
G01X7890151Y-323050D01*
G01X7872879Y-317208D01*
G01X7867291Y-311620D01*
G01X7861449Y-300190D01*
G01X7995053Y-294348D02*
G01X7989211Y-300190D01*
G01X7995053Y-305778D01*
G01X8000641Y-300190D01*
G01X7995053Y-294348D01*
G01X8082683Y-202908D02*
G01X8065665Y-208750D01*
G01X8054235Y-225768D01*
G01X8048393Y-254470D01*
G01X8048393Y-271488D01*
G01X8054235Y-300190D01*
G01X8065665Y-317208D01*
G01X8082683Y-323050D01*
G01X8094113Y-323050D01*
G01X8111385Y-317208D01*
G01X8122815Y-300190D01*
G01X8128403Y-271488D01*
G01X8128403Y-254470D01*
G01X8122815Y-225768D01*
G01X8111385Y-208750D01*
G01X8094113Y-202908D01*
G01X8082683Y-202908D01*
G01X8210445Y-202908D02*
G01X8193427Y-208750D01*
G01X8181997Y-225768D01*
G01X8176155Y-254470D01*
G01X8176155Y-271488D01*
G01X8181997Y-300190D01*
G01X8193427Y-317208D01*
G01X8210445Y-323050D01*
G01X8221875Y-323050D01*
G01X8239147Y-317208D01*
G01X8250577Y-300190D01*
G01X8256165Y-271488D01*
G01X8256165Y-254470D01*
G01X8250577Y-225768D01*
G01X8239147Y-208750D01*
G01X8221875Y-202908D01*
G01X8210445Y-202908D01*
G01X8338207Y-202908D02*
G01X8321189Y-208750D01*
G01X8309759Y-225768D01*
G01X8303917Y-254470D01*
G01X8303917Y-271488D01*
G01X8309759Y-300190D01*
G01X8321189Y-317208D01*
G01X8338207Y-323050D01*
G01X8349637Y-323050D01*
G01X8366909Y-317208D01*
G01X8378339Y-300190D01*
G01X8383927Y-271488D01*
G01X8383927Y-254470D01*
G01X8378339Y-225768D01*
G01X8366909Y-208750D01*
G01X8349637Y-202908D01*
G01X8338207Y-202908D01*
G01X8431679Y-243040D02*
G01X8494671Y-323050D01*
G01X8494671Y-243040D02*
G01X8431679Y-323050D01*
G01X8553853Y-202908D02*
G01X8616845Y-202908D01*
G01X8582555Y-248628D01*
G01X8599573Y-248628D01*
G01X8611003Y-254470D01*
G01X8616845Y-260058D01*
G01X8622433Y-277330D01*
G01X8622433Y-288760D01*
G01X8616845Y-305778D01*
G01X8605415Y-317208D01*
G01X8588143Y-323050D01*
G01X8571125Y-323050D01*
G01X8553853Y-317208D01*
G01X8548265Y-311620D01*
G01X8542423Y-300190D01*
G01X8676027Y-294348D02*
G01X8670185Y-300190D01*
G01X8676027Y-305778D01*
G01X8681615Y-300190D01*
G01X8676027Y-294348D01*
G01X8763657Y-202908D02*
G01X8746639Y-208750D01*
G01X8735209Y-225768D01*
G01X8729367Y-254470D01*
G01X8729367Y-271488D01*
G01X8735209Y-300190D01*
G01X8746639Y-317208D01*
G01X8763657Y-323050D01*
G01X8775087Y-323050D01*
G01X8792359Y-317208D01*
G01X8803789Y-300190D01*
G01X8809377Y-271488D01*
G01X8809377Y-254470D01*
G01X8803789Y-225768D01*
G01X8792359Y-208750D01*
G01X8775087Y-202908D01*
G01X8763657Y-202908D01*
G01X8891419Y-202908D02*
G01X8874401Y-208750D01*
G01X8862971Y-225768D01*
G01X8857129Y-254470D01*
G01X8857129Y-271488D01*
G01X8862971Y-300190D01*
G01X8874401Y-317208D01*
G01X8891419Y-323050D01*
G01X8902849Y-323050D01*
G01X8920121Y-317208D01*
G01X8931551Y-300190D01*
G01X8937139Y-271488D01*
G01X8937139Y-254470D01*
G01X8931551Y-225768D01*
G01X8920121Y-208750D01*
G01X8902849Y-202908D01*
G01X8891419Y-202908D01*
G01X9019181Y-202908D02*
G01X9002163Y-208750D01*
G01X8990733Y-225768D01*
G01X8984891Y-254470D01*
G01X8984891Y-271488D01*
G01X8990733Y-300190D01*
G01X9002163Y-317208D01*
G01X9019181Y-323050D01*
G01X9030611Y-323050D01*
G01X9047883Y-317208D01*
G01X9059313Y-300190D01*
G01X9064901Y-271488D01*
G01X9064901Y-254470D01*
G01X9059313Y-225768D01*
G01X9047883Y-208750D01*
G01X9030611Y-202908D01*
G01X9019181Y-202908D01*
G01X9112653Y-243040D02*
G01X9112653Y-323050D01*
G01X9112653Y-265900D02*
G01X9129925Y-248628D01*
G01X9141355Y-243040D01*
G01X9158373Y-243040D01*
G01X9169803Y-248628D01*
G01X9175645Y-265900D01*
G01X9175645Y-323050D01*
G01X9175645Y-265900D02*
G01X9192663Y-248628D01*
G01X9204093Y-243040D01*
G01X9221365Y-243040D01*
G01X9232795Y-248628D01*
G01X9238383Y-265900D01*
G01X9238383Y-323050D01*
G01X9286135Y-243040D02*
G01X9286135Y-323050D01*
G01X9286135Y-265900D02*
G01X9303407Y-248628D01*
G01X9314837Y-243040D01*
G01X9331855Y-243040D01*
G01X9343285Y-248628D01*
G01X9349127Y-265900D01*
G01X9349127Y-323050D01*
G01X9349127Y-265900D02*
G01X9366145Y-248628D01*
G01X9377575Y-243040D01*
G01X9394847Y-243040D01*
G01X9406277Y-248628D01*
G01X9411865Y-265900D01*
G01X9411865Y-323050D01*
G01X9459617Y-180048D02*
G01X9471047Y-191478D01*
G01X9482477Y-208750D01*
G01X9493907Y-231610D01*
G01X9499749Y-260058D01*
G01X9499749Y-282918D01*
G01X9493907Y-311620D01*
G01X9482477Y-334480D01*
G01X9471047Y-351498D01*
G01X9459617Y-362928D01*
G01X10390926Y-202908D02*
G01X10390926Y-323050D01*
G01X10390926Y-202908D02*
G01X10442488Y-202908D01*
G01X10459506Y-208750D01*
G01X10465348Y-214338D01*
G01X10470936Y-225768D01*
G01X10470936Y-243040D01*
G01X10465348Y-254470D01*
G01X10459506Y-260058D01*
G01X10442488Y-265900D01*
G01X10390926Y-265900D01*
G01X10558820Y-202908D02*
G01X10558820Y-323050D01*
G01X10518688Y-202908D02*
G01X10598698Y-202908D01*
G01X10646450Y-202908D02*
G01X10646450Y-323050D01*
G01X10726460Y-202908D02*
G01X10726460Y-323050D01*
G01X10646450Y-260058D02*
G01X10726460Y-260058D01*
G01X11852333Y-202908D02*
G01X11852333Y-323050D01*
G01X11852333Y-202908D02*
G01X11903895Y-202908D01*
G01X11920913Y-208750D01*
G01X11926755Y-214338D01*
G01X11932343Y-225768D01*
G01X11932343Y-237198D01*
G01X11926755Y-248628D01*
G01X11920913Y-254470D01*
G01X11903895Y-260058D01*
G01X11852333Y-260058D01*
G01X11892465Y-260058D02*
G01X11932343Y-323050D01*
G01X12008797Y-243040D02*
G01X11997367Y-248628D01*
G01X11985937Y-260058D01*
G01X11980095Y-277330D01*
G01X11980095Y-288760D01*
G01X11985937Y-305778D01*
G01X11997367Y-317208D01*
G01X12008797Y-323050D01*
G01X12025815Y-323050D01*
G01X12037245Y-317208D01*
G01X12048675Y-305778D01*
G01X12054517Y-288760D01*
G01X12054517Y-277330D01*
G01X12048675Y-260058D01*
G01X12037245Y-248628D01*
G01X12025815Y-243040D01*
G01X12008797Y-243040D01*
G01X12102269Y-243040D02*
G01X12102269Y-300190D01*
G01X12108111Y-317208D01*
G01X12119541Y-323050D01*
G01X12136559Y-323050D01*
G01X12147989Y-317208D01*
G01X12165261Y-300190D01*
G01X12165261Y-243040D02*
G01X12165261Y-323050D01*
G01X12213013Y-243040D02*
G01X12213013Y-323050D01*
G01X12213013Y-265900D02*
G01X12230285Y-248628D01*
G01X12241715Y-243040D01*
G01X12258733Y-243040D01*
G01X12270163Y-248628D01*
G01X12276005Y-265900D01*
G01X12276005Y-323050D01*
G01X12392337Y-202908D02*
G01X12392337Y-323050D01*
G01X12392337Y-260058D02*
G01X12380907Y-248628D01*
G01X12369477Y-243040D01*
G01X12352459Y-243040D01*
G01X12341029Y-248628D01*
G01X12329599Y-260058D01*
G01X12323757Y-277330D01*
G01X12323757Y-288760D01*
G01X12329599Y-305778D01*
G01X12341029Y-317208D01*
G01X12352459Y-323050D01*
G01X12369477Y-323050D01*
G01X12380907Y-317208D01*
G01X12392337Y-305778D01*
G01X13283515Y-202908D02*
G01X13283515Y-323050D01*
G01X13283515Y-202908D02*
G01X13335077Y-202908D01*
G01X13352095Y-208750D01*
G01X13357937Y-214338D01*
G01X13363525Y-225768D01*
G01X13363525Y-243040D01*
G01X13357937Y-254470D01*
G01X13352095Y-260058D01*
G01X13335077Y-265900D01*
G01X13283515Y-265900D01*
G01X13479857Y-243040D02*
G01X13479857Y-323050D01*
G01X13479857Y-260058D02*
G01X13468427Y-248628D01*
G01X13456997Y-243040D01*
G01X13439979Y-243040D01*
G01X13428549Y-248628D01*
G01X13417119Y-260058D01*
G01X13411277Y-277330D01*
G01X13411277Y-288760D01*
G01X13417119Y-305778D01*
G01X13428549Y-317208D01*
G01X13439979Y-323050D01*
G01X13456997Y-323050D01*
G01X13468427Y-317208D01*
G01X13479857Y-305778D01*
G01X13596189Y-202908D02*
G01X13596189Y-323050D01*
G01X13596189Y-260058D02*
G01X13584759Y-248628D01*
G01X13573329Y-243040D01*
G01X13556311Y-243040D01*
G01X13544881Y-248628D01*
G01X13533451Y-260058D01*
G01X13527609Y-277330D01*
G01X13527609Y-288760D01*
G01X13533451Y-305778D01*
G01X13544881Y-317208D01*
G01X13556311Y-323050D01*
G01X13573329Y-323050D01*
G01X13584759Y-317208D01*
G01X13596189Y-305778D01*
G01X14952694Y-202908D02*
G01X14952694Y-323050D01*
G01X14952694Y-202908D02*
G01X15004256Y-202908D01*
G01X15021274Y-208750D01*
G01X15027116Y-214338D01*
G01X15032704Y-225768D01*
G01X15032704Y-237198D01*
G01X15027116Y-248628D01*
G01X15021274Y-254470D01*
G01X15004256Y-260058D01*
G01X14952694Y-260058D01*
G01X14992826Y-260058D02*
G01X15032704Y-323050D01*
G01X15109158Y-243040D02*
G01X15097728Y-248628D01*
G01X15086298Y-260058D01*
G01X15080456Y-277330D01*
G01X15080456Y-288760D01*
G01X15086298Y-305778D01*
G01X15097728Y-317208D01*
G01X15109158Y-323050D01*
G01X15126176Y-323050D01*
G01X15137606Y-317208D01*
G01X15149036Y-305778D01*
G01X15154878Y-288760D01*
G01X15154878Y-277330D01*
G01X15149036Y-260058D01*
G01X15137606Y-248628D01*
G01X15126176Y-243040D01*
G01X15109158Y-243040D01*
G01X15202630Y-243040D02*
G01X15202630Y-300190D01*
G01X15208472Y-317208D01*
G01X15219902Y-323050D01*
G01X15236920Y-323050D01*
G01X15248350Y-317208D01*
G01X15265622Y-300190D01*
G01X15265622Y-243040D02*
G01X15265622Y-323050D01*
G01X15313374Y-243040D02*
G01X15313374Y-323050D01*
G01X15313374Y-265900D02*
G01X15330646Y-248628D01*
G01X15342076Y-243040D01*
G01X15359094Y-243040D01*
G01X15370524Y-248628D01*
G01X15376366Y-265900D01*
G01X15376366Y-323050D01*
G01X15492698Y-202908D02*
G01X15492698Y-323050D01*
G01X15492698Y-260058D02*
G01X15481268Y-248628D01*
G01X15469838Y-243040D01*
G01X15452820Y-243040D01*
G01X15441390Y-248628D01*
G01X15429960Y-260058D01*
G01X15424118Y-277330D01*
G01X15424118Y-288760D01*
G01X15429960Y-305778D01*
G01X15441390Y-317208D01*
G01X15452820Y-323050D01*
G01X15469838Y-323050D01*
G01X15481268Y-317208D01*
G01X15492698Y-305778D01*
G01X16912195Y-202908D02*
G01X16912195Y-323050D01*
G01X16872063Y-202908D02*
G01X16952073Y-202908D01*
G01X17028527Y-243040D02*
G01X17017097Y-248628D01*
G01X17005667Y-260058D01*
G01X16999825Y-277330D01*
G01X16999825Y-288760D01*
G01X17005667Y-305778D01*
G01X17017097Y-317208D01*
G01X17028527Y-323050D01*
G01X17045545Y-323050D01*
G01X17056975Y-317208D01*
G01X17068405Y-305778D01*
G01X17074247Y-288760D01*
G01X17074247Y-277330D01*
G01X17068405Y-260058D01*
G01X17056975Y-248628D01*
G01X17045545Y-243040D01*
G01X17028527Y-243040D01*
G01X17121999Y-243040D02*
G01X17121999Y-362928D01*
G01X17121999Y-260058D02*
G01X17133429Y-248628D01*
G01X17144859Y-243040D01*
G01X17162131Y-243040D01*
G01X17173561Y-248628D01*
G01X17184991Y-260058D01*
G01X17190579Y-277330D01*
G01X17190579Y-288760D01*
G01X17184991Y-305778D01*
G01X17173561Y-317208D01*
G01X17162131Y-323050D01*
G01X17144859Y-323050D01*
G01X17133429Y-317208D01*
G01X17121999Y-305778D01*
G01X17366347Y-202908D02*
G01X17366347Y-323050D01*
G01X17366347Y-323050D02*
G01X17434927Y-323050D01*
G01X17551259Y-243040D02*
G01X17551259Y-323050D01*
G01X17551259Y-260058D02*
G01X17539829Y-248628D01*
G01X17528399Y-243040D01*
G01X17511381Y-243040D01*
G01X17499951Y-248628D01*
G01X17488521Y-260058D01*
G01X17482679Y-277330D01*
G01X17482679Y-288760D01*
G01X17488521Y-305778D01*
G01X17499951Y-317208D01*
G01X17511381Y-323050D01*
G01X17528399Y-323050D01*
G01X17539829Y-317208D01*
G01X17551259Y-305778D01*
G01X17604853Y-243040D02*
G01X17639143Y-323050D01*
G01X17673433Y-243040D02*
G01X17639143Y-323050D01*
G01X17627713Y-345910D01*
G01X17616283Y-357340D01*
G01X17604853Y-362928D01*
G01X17599011Y-362928D01*
G01X17721185Y-277330D02*
G01X17789765Y-277330D01*
G01X17789765Y-265900D01*
G01X17784177Y-254470D01*
G01X17778335Y-248628D01*
G01X17766905Y-243040D01*
G01X17749887Y-243040D01*
G01X17738457Y-248628D01*
G01X17727027Y-260058D01*
G01X17721185Y-277330D01*
G01X17721185Y-288760D01*
G01X17727027Y-305778D01*
G01X17738457Y-317208D01*
G01X17749887Y-323050D01*
G01X17766905Y-323050D01*
G01X17778335Y-317208D01*
G01X17789765Y-305778D01*
G01X17837517Y-243040D02*
G01X17837517Y-323050D01*
G01X17837517Y-277330D02*
G01X17843359Y-260058D01*
G01X17854789Y-248628D01*
G01X17866219Y-243040D01*
G01X17883237Y-243040D01*
G01X17930989Y-271488D02*
G01X18033859Y-271488D01*
G01X18081611Y-202908D02*
G01X18081611Y-323050D01*
G01X18081611Y-202908D02*
G01X18133173Y-202908D01*
G01X18150191Y-208750D01*
G01X18156033Y-214338D01*
G01X18161621Y-225768D01*
G01X18161621Y-237198D01*
G01X18156033Y-248628D01*
G01X18150191Y-254470D01*
G01X18133173Y-260058D01*
G01X18081611Y-260058D02*
G01X18133173Y-260058D01*
G01X18150191Y-265900D01*
G01X18156033Y-271488D01*
G01X18161621Y-282918D01*
G01X18161621Y-300190D01*
G01X18156033Y-311620D01*
G01X18150191Y-317208D01*
G01X18133173Y-323050D01*
G01X18081611Y-323050D01*
G01X18238075Y-243040D02*
G01X18226645Y-248628D01*
G01X18215215Y-260058D01*
G01X18209373Y-277330D01*
G01X18209373Y-288760D01*
G01X18215215Y-305778D01*
G01X18226645Y-317208D01*
G01X18238075Y-323050D01*
G01X18255093Y-323050D01*
G01X18266523Y-317208D01*
G01X18277953Y-305778D01*
G01X18283795Y-288760D01*
G01X18283795Y-277330D01*
G01X18277953Y-260058D01*
G01X18266523Y-248628D01*
G01X18255093Y-243040D01*
G01X18238075Y-243040D01*
G01X18348819Y-202908D02*
G01X18348819Y-300190D01*
G01X18354407Y-317208D01*
G01X18365837Y-323050D01*
G01X18377267Y-323050D01*
G01X18331547Y-243040D02*
G01X18371679Y-243040D01*
G01X18442291Y-202908D02*
G01X18442291Y-300190D01*
G01X18447879Y-317208D01*
G01X18459309Y-323050D01*
G01X18470739Y-323050D01*
G01X18425019Y-243040D02*
G01X18465151Y-243040D01*
G01X18547193Y-243040D02*
G01X18535763Y-248628D01*
G01X18524333Y-260058D01*
G01X18518491Y-277330D01*
G01X18518491Y-288760D01*
G01X18524333Y-305778D01*
G01X18535763Y-317208D01*
G01X18547193Y-323050D01*
G01X18564211Y-323050D01*
G01X18575641Y-317208D01*
G01X18587071Y-305778D01*
G01X18592913Y-288760D01*
G01X18592913Y-277330D01*
G01X18587071Y-260058D01*
G01X18575641Y-248628D01*
G01X18564211Y-243040D01*
G01X18547193Y-243040D01*
G01X18640665Y-243040D02*
G01X18640665Y-323050D01*
G01X18640665Y-265900D02*
G01X18657937Y-248628D01*
G01X18669367Y-243040D01*
G01X18686385Y-243040D01*
G01X18697815Y-248628D01*
G01X18703657Y-265900D01*
G01X18703657Y-323050D01*
G01X18703657Y-265900D02*
G01X18720675Y-248628D01*
G01X18732105Y-243040D01*
G01X18749377Y-243040D01*
G01X18760807Y-248628D01*
G01X18766395Y-265900D01*
G01X18766395Y-323050D01*
G01X18942163Y-202908D02*
G01X18942163Y-323050D01*
G01X18942163Y-323050D02*
G01X19010743Y-323050D01*
G01X19127075Y-243040D02*
G01X19127075Y-323050D01*
G01X19127075Y-260058D02*
G01X19115645Y-248628D01*
G01X19104215Y-243040D01*
G01X19087197Y-243040D01*
G01X19075767Y-248628D01*
G01X19064337Y-260058D01*
G01X19058495Y-277330D01*
G01X19058495Y-288760D01*
G01X19064337Y-305778D01*
G01X19075767Y-317208D01*
G01X19087197Y-323050D01*
G01X19104215Y-323050D01*
G01X19115645Y-317208D01*
G01X19127075Y-305778D01*
G01X19180669Y-243040D02*
G01X19214959Y-323050D01*
G01X19249249Y-243040D02*
G01X19214959Y-323050D01*
G01X19203529Y-345910D01*
G01X19192099Y-357340D01*
G01X19180669Y-362928D01*
G01X19174827Y-362928D01*
G01X19297001Y-277330D02*
G01X19365581Y-277330D01*
G01X19365581Y-265900D01*
G01X19359993Y-254470D01*
G01X19354151Y-248628D01*
G01X19342721Y-243040D01*
G01X19325703Y-243040D01*
G01X19314273Y-248628D01*
G01X19302843Y-260058D01*
G01X19297001Y-277330D01*
G01X19297001Y-288760D01*
G01X19302843Y-305778D01*
G01X19314273Y-317208D01*
G01X19325703Y-323050D01*
G01X19342721Y-323050D01*
G01X19354151Y-317208D01*
G01X19365581Y-305778D01*
G01X19413333Y-243040D02*
G01X19413333Y-323050D01*
G01X19413333Y-277330D02*
G01X19419175Y-260058D01*
G01X19430605Y-248628D01*
G01X19442035Y-243040D01*
G01X19459053Y-243040D01*
G01X5135630Y-806339D02*
G01X5147060Y-800751D01*
G01X5164332Y-783479D01*
G01X5164332Y-903621D01*
G01X5212084Y-806339D02*
G01X5223514Y-800751D01*
G01X5240786Y-783479D01*
G01X5240786Y-903621D01*
G01X6549793Y-806339D02*
G01X6561223Y-800751D01*
G01X6578495Y-783479D01*
G01X6578495Y-903621D01*
G01X6632089Y-812181D02*
G01X6632089Y-806339D01*
G01X6637677Y-794909D01*
G01X6643519Y-789321D01*
G01X6654949Y-783479D01*
G01X6677809Y-783479D01*
G01X6689239Y-789321D01*
G01X6694827Y-794909D01*
G01X6700669Y-806339D01*
G01X6700669Y-817769D01*
G01X6694827Y-829199D01*
G01X6683397Y-846471D01*
G01X6626247Y-903621D01*
G01X6706257Y-903621D01*
G01X6759851Y-874919D02*
G01X6754009Y-880761D01*
G01X6759851Y-886349D01*
G01X6765439Y-880761D01*
G01X6759851Y-874919D01*
G01X6847481Y-783479D02*
G01X6830463Y-789321D01*
G01X6819033Y-806339D01*
G01X6813191Y-835041D01*
G01X6813191Y-852059D01*
G01X6819033Y-880761D01*
G01X6830463Y-897779D01*
G01X6847481Y-903621D01*
G01X6858911Y-903621D01*
G01X6876183Y-897779D01*
G01X6887613Y-880761D01*
G01X6893201Y-852059D01*
G01X6893201Y-835041D01*
G01X6887613Y-806339D01*
G01X6876183Y-789321D01*
G01X6858911Y-783479D01*
G01X6847481Y-783479D01*
G01X6940953Y-823611D02*
G01X6940953Y-903621D01*
G01X6940953Y-846471D02*
G01X6958225Y-829199D01*
G01X6969655Y-823611D01*
G01X6986673Y-823611D01*
G01X6998103Y-829199D01*
G01X7003945Y-846471D01*
G01X7003945Y-903621D01*
G01X7003945Y-846471D02*
G01X7020963Y-829199D01*
G01X7032393Y-823611D01*
G01X7049665Y-823611D01*
G01X7061095Y-829199D01*
G01X7066683Y-846471D01*
G01X7066683Y-903621D01*
G01X7114435Y-783479D02*
G01X7120277Y-789321D01*
G01X7125865Y-783479D01*
G01X7120277Y-777891D01*
G01X7114435Y-783479D01*
G01X7120277Y-823611D02*
G01X7120277Y-903621D01*
G01X7173617Y-783479D02*
G01X7173617Y-903621D01*
G01X7261501Y-760619D02*
G01X7250071Y-772049D01*
G01X7238641Y-789321D01*
G01X7227211Y-812181D01*
G01X7221369Y-840629D01*
G01X7221369Y-863489D01*
G01X7227211Y-892191D01*
G01X7238641Y-915051D01*
G01X7250071Y-932069D01*
G01X7261501Y-943499D01*
G01X7343543Y-783479D02*
G01X7326525Y-789321D01*
G01X7315095Y-806339D01*
G01X7309253Y-835041D01*
G01X7309253Y-852059D01*
G01X7315095Y-880761D01*
G01X7326525Y-897779D01*
G01X7343543Y-903621D01*
G01X7354973Y-903621D01*
G01X7372245Y-897779D01*
G01X7383675Y-880761D01*
G01X7389263Y-852059D01*
G01X7389263Y-835041D01*
G01X7383675Y-806339D01*
G01X7372245Y-789321D01*
G01X7354973Y-783479D01*
G01X7343543Y-783479D01*
G01X7442857Y-874919D02*
G01X7437015Y-880761D01*
G01X7442857Y-886349D01*
G01X7448445Y-880761D01*
G01X7442857Y-874919D01*
G01X7507627Y-783479D02*
G01X7570619Y-783479D01*
G01X7536329Y-829199D01*
G01X7553347Y-829199D01*
G01X7564777Y-835041D01*
G01X7570619Y-840629D01*
G01X7576207Y-857901D01*
G01X7576207Y-869331D01*
G01X7570619Y-886349D01*
G01X7559189Y-897779D01*
G01X7541917Y-903621D01*
G01X7524899Y-903621D01*
G01X7507627Y-897779D01*
G01X7502039Y-892191D01*
G01X7496197Y-880761D01*
G01X7658249Y-783479D02*
G01X7641231Y-789321D01*
G01X7629801Y-806339D01*
G01X7623959Y-835041D01*
G01X7623959Y-852059D01*
G01X7629801Y-880761D01*
G01X7641231Y-897779D01*
G01X7658249Y-903621D01*
G01X7669679Y-903621D01*
G01X7686951Y-897779D01*
G01X7698381Y-880761D01*
G01X7703969Y-852059D01*
G01X7703969Y-835041D01*
G01X7698381Y-806339D01*
G01X7686951Y-789321D01*
G01X7669679Y-783479D01*
G01X7658249Y-783479D01*
G01X7820301Y-783479D02*
G01X7763151Y-783479D01*
G01X7757563Y-835041D01*
G01X7763151Y-829199D01*
G01X7780423Y-823611D01*
G01X7797441Y-823611D01*
G01X7814713Y-829199D01*
G01X7826143Y-840629D01*
G01X7831731Y-857901D01*
G01X7831731Y-869331D01*
G01X7826143Y-886349D01*
G01X7814713Y-897779D01*
G01X7797441Y-903621D01*
G01X7780423Y-903621D01*
G01X7763151Y-897779D01*
G01X7757563Y-892191D01*
G01X7751721Y-880761D01*
G01X7879483Y-823611D02*
G01X7879483Y-903621D01*
G01X7879483Y-846471D02*
G01X7896755Y-829199D01*
G01X7908185Y-823611D01*
G01X7925203Y-823611D01*
G01X7936633Y-829199D01*
G01X7942475Y-846471D01*
G01X7942475Y-903621D01*
G01X7942475Y-846471D02*
G01X7959493Y-829199D01*
G01X7970923Y-823611D01*
G01X7988195Y-823611D01*
G01X7999625Y-829199D01*
G01X8005213Y-846471D01*
G01X8005213Y-903621D01*
G01X8052965Y-823611D02*
G01X8052965Y-903621D01*
G01X8052965Y-846471D02*
G01X8070237Y-829199D01*
G01X8081667Y-823611D01*
G01X8098685Y-823611D01*
G01X8110115Y-829199D01*
G01X8115957Y-846471D01*
G01X8115957Y-903621D01*
G01X8115957Y-846471D02*
G01X8132975Y-829199D01*
G01X8144405Y-823611D01*
G01X8161677Y-823611D01*
G01X8173107Y-829199D01*
G01X8178695Y-846471D01*
G01X8178695Y-903621D01*
G01X8226447Y-760619D02*
G01X8237877Y-772049D01*
G01X8249307Y-789321D01*
G01X8260737Y-812181D01*
G01X8266579Y-840629D01*
G01X8266579Y-863489D01*
G01X8260737Y-892191D01*
G01X8249307Y-915051D01*
G01X8237877Y-932069D01*
G01X8226447Y-943499D01*
G01X10390926Y-783479D02*
G01X10390926Y-903621D01*
G01X10390926Y-783479D02*
G01X10442488Y-783479D01*
G01X10459506Y-789321D01*
G01X10465348Y-794909D01*
G01X10470936Y-806339D01*
G01X10470936Y-823611D01*
G01X10465348Y-835041D01*
G01X10459506Y-840629D01*
G01X10442488Y-846471D01*
G01X10390926Y-846471D01*
G01X10558820Y-783479D02*
G01X10558820Y-903621D01*
G01X10518688Y-783479D02*
G01X10598698Y-783479D01*
G01X10646450Y-783479D02*
G01X10646450Y-903621D01*
G01X10726460Y-783479D02*
G01X10726460Y-903621D01*
G01X10646450Y-840629D02*
G01X10726460Y-840629D01*
G01X11852333Y-783479D02*
G01X11852333Y-903621D01*
G01X11852333Y-783479D02*
G01X11903895Y-783479D01*
G01X11920913Y-789321D01*
G01X11926755Y-794909D01*
G01X11932343Y-806339D01*
G01X11932343Y-817769D01*
G01X11926755Y-829199D01*
G01X11920913Y-835041D01*
G01X11903895Y-840629D01*
G01X11852333Y-840629D01*
G01X11892465Y-840629D02*
G01X11932343Y-903621D01*
G01X12008797Y-823611D02*
G01X11997367Y-829199D01*
G01X11985937Y-840629D01*
G01X11980095Y-857901D01*
G01X11980095Y-869331D01*
G01X11985937Y-886349D01*
G01X11997367Y-897779D01*
G01X12008797Y-903621D01*
G01X12025815Y-903621D01*
G01X12037245Y-897779D01*
G01X12048675Y-886349D01*
G01X12054517Y-869331D01*
G01X12054517Y-857901D01*
G01X12048675Y-840629D01*
G01X12037245Y-829199D01*
G01X12025815Y-823611D01*
G01X12008797Y-823611D01*
G01X12102269Y-823611D02*
G01X12102269Y-880761D01*
G01X12108111Y-897779D01*
G01X12119541Y-903621D01*
G01X12136559Y-903621D01*
G01X12147989Y-897779D01*
G01X12165261Y-880761D01*
G01X12165261Y-823611D02*
G01X12165261Y-903621D01*
G01X12213013Y-823611D02*
G01X12213013Y-903621D01*
G01X12213013Y-846471D02*
G01X12230285Y-829199D01*
G01X12241715Y-823611D01*
G01X12258733Y-823611D01*
G01X12270163Y-829199D01*
G01X12276005Y-846471D01*
G01X12276005Y-903621D01*
G01X12392337Y-783479D02*
G01X12392337Y-903621D01*
G01X12392337Y-840629D02*
G01X12380907Y-829199D01*
G01X12369477Y-823611D01*
G01X12352459Y-823611D01*
G01X12341029Y-829199D01*
G01X12329599Y-840629D01*
G01X12323757Y-857901D01*
G01X12323757Y-869331D01*
G01X12329599Y-886349D01*
G01X12341029Y-897779D01*
G01X12352459Y-903621D01*
G01X12369477Y-903621D01*
G01X12380907Y-897779D01*
G01X12392337Y-886349D01*
G01X13283515Y-783479D02*
G01X13329235Y-903621D01*
G01X13374955Y-783479D02*
G01X13329235Y-903621D01*
G01X13422707Y-783479D02*
G01X13428549Y-789321D01*
G01X13434137Y-783479D01*
G01X13428549Y-777891D01*
G01X13422707Y-783479D01*
G01X13428549Y-823611D02*
G01X13428549Y-903621D01*
G01X13550469Y-823611D02*
G01X13550469Y-903621D01*
G01X13550469Y-840629D02*
G01X13539039Y-829199D01*
G01X13527609Y-823611D01*
G01X13510591Y-823611D01*
G01X13499161Y-829199D01*
G01X13487731Y-840629D01*
G01X13481889Y-857901D01*
G01X13481889Y-869331D01*
G01X13487731Y-886349D01*
G01X13499161Y-897779D01*
G01X13510591Y-903621D01*
G01X13527609Y-903621D01*
G01X13539039Y-897779D01*
G01X13550469Y-886349D01*
G01X16912195Y-783479D02*
G01X16912195Y-903621D01*
G01X16872063Y-783479D02*
G01X16952073Y-783479D01*
G01X17028527Y-823611D02*
G01X17017097Y-829199D01*
G01X17005667Y-840629D01*
G01X16999825Y-857901D01*
G01X16999825Y-869331D01*
G01X17005667Y-886349D01*
G01X17017097Y-897779D01*
G01X17028527Y-903621D01*
G01X17045545Y-903621D01*
G01X17056975Y-897779D01*
G01X17068405Y-886349D01*
G01X17074247Y-869331D01*
G01X17074247Y-857901D01*
G01X17068405Y-840629D01*
G01X17056975Y-829199D01*
G01X17045545Y-823611D01*
G01X17028527Y-823611D01*
G01X17121999Y-823611D02*
G01X17121999Y-943499D01*
G01X17121999Y-840629D02*
G01X17133429Y-829199D01*
G01X17144859Y-823611D01*
G01X17162131Y-823611D01*
G01X17173561Y-829199D01*
G01X17184991Y-840629D01*
G01X17190579Y-857901D01*
G01X17190579Y-869331D01*
G01X17184991Y-886349D01*
G01X17173561Y-897779D01*
G01X17162131Y-903621D01*
G01X17144859Y-903621D01*
G01X17133429Y-897779D01*
G01X17121999Y-886349D01*
G01X17366347Y-783479D02*
G01X17366347Y-903621D01*
G01X17366347Y-903621D02*
G01X17434927Y-903621D01*
G01X17551259Y-823611D02*
G01X17551259Y-903621D01*
G01X17551259Y-840629D02*
G01X17539829Y-829199D01*
G01X17528399Y-823611D01*
G01X17511381Y-823611D01*
G01X17499951Y-829199D01*
G01X17488521Y-840629D01*
G01X17482679Y-857901D01*
G01X17482679Y-869331D01*
G01X17488521Y-886349D01*
G01X17499951Y-897779D01*
G01X17511381Y-903621D01*
G01X17528399Y-903621D01*
G01X17539829Y-897779D01*
G01X17551259Y-886349D01*
G01X17604853Y-823611D02*
G01X17639143Y-903621D01*
G01X17673433Y-823611D02*
G01X17639143Y-903621D01*
G01X17627713Y-926481D01*
G01X17616283Y-937911D01*
G01X17604853Y-943499D01*
G01X17599011Y-943499D01*
G01X17721185Y-857901D02*
G01X17789765Y-857901D01*
G01X17789765Y-846471D01*
G01X17784177Y-835041D01*
G01X17778335Y-829199D01*
G01X17766905Y-823611D01*
G01X17749887Y-823611D01*
G01X17738457Y-829199D01*
G01X17727027Y-840629D01*
G01X17721185Y-857901D01*
G01X17721185Y-869331D01*
G01X17727027Y-886349D01*
G01X17738457Y-897779D01*
G01X17749887Y-903621D01*
G01X17766905Y-903621D01*
G01X17778335Y-897779D01*
G01X17789765Y-886349D01*
G01X17837517Y-823611D02*
G01X17837517Y-903621D01*
G01X17837517Y-857901D02*
G01X17843359Y-840629D01*
G01X17854789Y-829199D01*
G01X17866219Y-823611D01*
G01X17883237Y-823611D01*
G01X17930989Y-852059D02*
G01X18033859Y-852059D01*
G01X18081611Y-783479D02*
G01X18081611Y-903621D01*
G01X18081611Y-783479D02*
G01X18133173Y-783479D01*
G01X18150191Y-789321D01*
G01X18156033Y-794909D01*
G01X18161621Y-806339D01*
G01X18161621Y-817769D01*
G01X18156033Y-829199D01*
G01X18150191Y-835041D01*
G01X18133173Y-840629D01*
G01X18081611Y-840629D02*
G01X18133173Y-840629D01*
G01X18150191Y-846471D01*
G01X18156033Y-852059D01*
G01X18161621Y-863489D01*
G01X18161621Y-880761D01*
G01X18156033Y-892191D01*
G01X18150191Y-897779D01*
G01X18133173Y-903621D01*
G01X18081611Y-903621D01*
G01X18238075Y-823611D02*
G01X18226645Y-829199D01*
G01X18215215Y-840629D01*
G01X18209373Y-857901D01*
G01X18209373Y-869331D01*
G01X18215215Y-886349D01*
G01X18226645Y-897779D01*
G01X18238075Y-903621D01*
G01X18255093Y-903621D01*
G01X18266523Y-897779D01*
G01X18277953Y-886349D01*
G01X18283795Y-869331D01*
G01X18283795Y-857901D01*
G01X18277953Y-840629D01*
G01X18266523Y-829199D01*
G01X18255093Y-823611D01*
G01X18238075Y-823611D01*
G01X18348819Y-783479D02*
G01X18348819Y-880761D01*
G01X18354407Y-897779D01*
G01X18365837Y-903621D01*
G01X18377267Y-903621D01*
G01X18331547Y-823611D02*
G01X18371679Y-823611D01*
G01X18442291Y-783479D02*
G01X18442291Y-880761D01*
G01X18447879Y-897779D01*
G01X18459309Y-903621D01*
G01X18470739Y-903621D01*
G01X18425019Y-823611D02*
G01X18465151Y-823611D01*
G01X18547193Y-823611D02*
G01X18535763Y-829199D01*
G01X18524333Y-840629D01*
G01X18518491Y-857901D01*
G01X18518491Y-869331D01*
G01X18524333Y-886349D01*
G01X18535763Y-897779D01*
G01X18547193Y-903621D01*
G01X18564211Y-903621D01*
G01X18575641Y-897779D01*
G01X18587071Y-886349D01*
G01X18592913Y-869331D01*
G01X18592913Y-857901D01*
G01X18587071Y-840629D01*
G01X18575641Y-829199D01*
G01X18564211Y-823611D01*
G01X18547193Y-823611D01*
G01X18640665Y-823611D02*
G01X18640665Y-903621D01*
G01X18640665Y-846471D02*
G01X18657937Y-829199D01*
G01X18669367Y-823611D01*
G01X18686385Y-823611D01*
G01X18697815Y-829199D01*
G01X18703657Y-846471D01*
G01X18703657Y-903621D01*
G01X18703657Y-846471D02*
G01X18720675Y-829199D01*
G01X18732105Y-823611D01*
G01X18749377Y-823611D01*
G01X18760807Y-829199D01*
G01X18766395Y-846471D01*
G01X18766395Y-903621D01*
G01X18942163Y-783479D02*
G01X18942163Y-903621D01*
G01X18942163Y-903621D02*
G01X19010743Y-903621D01*
G01X19127075Y-823611D02*
G01X19127075Y-903621D01*
G01X19127075Y-840629D02*
G01X19115645Y-829199D01*
G01X19104215Y-823611D01*
G01X19087197Y-823611D01*
G01X19075767Y-829199D01*
G01X19064337Y-840629D01*
G01X19058495Y-857901D01*
G01X19058495Y-869331D01*
G01X19064337Y-886349D01*
G01X19075767Y-897779D01*
G01X19087197Y-903621D01*
G01X19104215Y-903621D01*
G01X19115645Y-897779D01*
G01X19127075Y-886349D01*
G01X19180669Y-823611D02*
G01X19214959Y-903621D01*
G01X19249249Y-823611D02*
G01X19214959Y-903621D01*
G01X19203529Y-926481D01*
G01X19192099Y-937911D01*
G01X19180669Y-943499D01*
G01X19174827Y-943499D01*
G01X19297001Y-857901D02*
G01X19365581Y-857901D01*
G01X19365581Y-846471D01*
G01X19359993Y-835041D01*
G01X19354151Y-829199D01*
G01X19342721Y-823611D01*
G01X19325703Y-823611D01*
G01X19314273Y-829199D01*
G01X19302843Y-840629D01*
G01X19297001Y-857901D01*
G01X19297001Y-869331D01*
G01X19302843Y-886349D01*
G01X19314273Y-897779D01*
G01X19325703Y-903621D01*
G01X19342721Y-903621D01*
G01X19354151Y-897779D01*
G01X19365581Y-886349D01*
G01X19413333Y-823611D02*
G01X19413333Y-903621D01*
G01X19413333Y-857901D02*
G01X19419175Y-840629D01*
G01X19430605Y-829199D01*
G01X19442035Y-823611D01*
G01X19459053Y-823611D01*

G04 Image Start*
G36*
G01X3842025Y-1010930D02*
G01X3834285Y-1011518D01*
G01X3826441Y-1011717D01*
G01X3818598Y-1011518D01*
G01X3810858Y-1010930D01*
G01X3803231Y-1009961D01*
G01X3795725Y-1008621D01*
G01X3781120Y-1004866D01*
G01X3767117Y-999741D01*
G01X3753795Y-993324D01*
G01X3741230Y-985691D01*
G01X3729498Y-976918D01*
G01X3718676Y-967082D01*
G01X3708840Y-956260D01*
G01X3700067Y-944528D01*
G01X3692434Y-931963D01*
G01X3686017Y-918641D01*
G01X3680892Y-904638D01*
G01X3677137Y-890033D01*
G01X3675797Y-882527D01*
G01X3674828Y-874900D01*
G01X3674240Y-867160D01*
G01X3674041Y-859317D01*
G01X3699441Y-859317D01*
G01X3700098Y-872283D01*
G01X3702026Y-884879D01*
G01X3705161Y-897041D01*
G01X3709437Y-908703D01*
G01X3714792Y-919803D01*
G01X3721161Y-930274D01*
G01X3728478Y-940054D01*
G01X3736681Y-949077D01*
G01X3745704Y-957280D01*
G01X3755484Y-964597D01*
G01X3765955Y-970966D01*
G01X3777055Y-976320D01*
G01X3788717Y-980597D01*
G01X3800879Y-983732D01*
G01X3800879Y-983732D01*
G01X3813475Y-985660D01*
G01X3826441Y-986317D01*
G01X3839408Y-985660D01*
G01X3852004Y-983732D01*
G01X3864166Y-980597D01*
G01X3875828Y-976320D01*
G01X3886927Y-970966D01*
G01X3897399Y-964597D01*
G01X3907179Y-957280D01*
G01X3916202Y-949077D01*
G01X3924404Y-940054D01*
G01X3931722Y-930274D01*
G01X3938091Y-919803D01*
G01X3943445Y-908703D01*
G01X3947722Y-897041D01*
G01X3950857Y-884879D01*
G01X3952784Y-872283D01*
G01X3953441Y-859317D01*
G01X3952784Y-846350D01*
G01X3950857Y-833754D01*
G01X3947722Y-821592D01*
G01X3943445Y-809930D01*
G01X3938091Y-798831D01*
G01X3931722Y-788359D01*
G01X3924404Y-778579D01*
G01X3916202Y-769556D01*
G01X3907179Y-761353D01*
G01X3897399Y-754036D01*
G01X3886927Y-747667D01*
G01X3875828Y-742313D01*
G01X3864166Y-738036D01*
G01X3852004Y-734901D01*
G01X3839408Y-732974D01*
G01X3826441Y-732317D01*
G01X3813475Y-732974D01*
G01X3800879Y-734901D01*
G01X3788717Y-738036D01*
G01X3777055Y-742313D01*
G01X3765955Y-747667D01*
G01X3755484Y-754036D01*
G01X3745704Y-761353D01*
G01X3736681Y-769556D01*
G01X3728478Y-778579D01*
G01X3721161Y-788359D01*
G01X3714792Y-798831D01*
G01X3709437Y-809930D01*
G01X3705161Y-821592D01*
G01X3702026Y-833754D01*
G01X3700098Y-846350D01*
G01X3699441Y-859317D01*
G01X3674041Y-859317D01*
G01X3674240Y-851473D01*
G01X3674828Y-843733D01*
G01X3675797Y-836106D01*
G01X3677137Y-828601D01*
G01X3680892Y-813995D01*
G01X3686017Y-799992D01*
G01X3692434Y-786670D01*
G01X3700067Y-774105D01*
G01X3708840Y-762373D01*
G01X3718676Y-751551D01*
G01X3729498Y-741715D01*
G01X3741230Y-732942D01*
G01X3753795Y-725309D01*
G01X3767117Y-718892D01*
G01X3781120Y-713768D01*
G01X3795725Y-710013D01*
G01X3803231Y-708672D01*
G01X3810858Y-707703D01*
G01X3818598Y-707115D01*
G01X3826441Y-706917D01*
G01X3834285Y-707115D01*
G01X3842025Y-707703D01*
G01X3849652Y-708672D01*
G01X3857157Y-710013D01*
G01X3871763Y-713768D01*
G01X3885765Y-718892D01*
G01X3899088Y-725309D01*
G01X3911653Y-732942D01*
G01X3923385Y-741715D01*
G01X3934207Y-751551D01*
G01X3944043Y-762373D01*
G01X3952816Y-774105D01*
G01X3960449Y-786670D01*
G01X3966866Y-799992D01*
G01X3971990Y-813995D01*
G01X3975745Y-828601D01*
G01X3977086Y-836106D01*
G01X3978055Y-843733D01*
G01X3978643Y-851473D01*
G01X3978841Y-859317D01*
G01X3978643Y-867160D01*
G01X3978055Y-874900D01*
G01X3977086Y-882527D01*
G01X3975745Y-890033D01*
G01X3971990Y-904638D01*
G01X3966866Y-918641D01*
G01X3960449Y-931963D01*
G01X3952816Y-944528D01*
G01X3944043Y-956260D01*
G01X3934207Y-967082D01*
G01X3923385Y-976918D01*
G01X3911653Y-985691D01*
G01X3899088Y-993324D01*
G01X3885765Y-999741D01*
G01X3871763Y-1004866D01*
G01X3857157Y-1008621D01*
G01X3849652Y-1009961D01*
G01X3842025Y-1010930D01*
G37*
G36*
G01X3674041Y-126345D02*
G01X3953441Y-126345D01*
G01X3953441Y-405745D01*
G01X3674041Y-405745D01*
G01X3674041Y-151745D01*
G01X3699441Y-151745D01*
G01X3699441Y-380345D01*
G01X3928041Y-380345D01*
G01X3928041Y-151745D01*
G01X3928041Y-151745D01*
G01X3699441Y-151745D01*
G01X3674041Y-151745D01*
G01X3674041Y-126345D01*
G37*

G04 PolygonModel Start*
G54D13*
G01X3383756Y-1142345D02*
G01X20049784Y-1142345D01*
G01X3383756Y-561774D02*
G01X20049784Y-561774D01*
G01X3383756Y18798D02*
G01X20049784Y18798D01*
G01X3383756Y599369D02*
G01X20049784Y599369D01*
G01X3383756Y599369D02*
G01X3383756Y-1116945D01*
G01X4835184Y599369D02*
G01X4835184Y-1116945D01*
G01X6249347Y599369D02*
G01X6249347Y-1116945D01*
G01X10090481Y599369D02*
G01X10090481Y-1116945D01*
G01X11551888Y599369D02*
G01X11551888Y-1116945D01*
G01X12983069Y599369D02*
G01X12983069Y-1116945D01*
G01X14652248Y599369D02*
G01X14652248Y-1116945D01*
G01X16571617Y599369D02*
G01X16571617Y-1116945D01*
G01X20049784Y599369D02*
G01X20049784Y-1116945D01*

M02*

