;TYPE=PLATED
;Layer: PTH_Through
;EasyEDA Pro v3.2.135, 2026-06-15 15:01:53
;Gerber Generator version 0.3
M48
METRIC,LZ,0000.00000
;Hole size 1 = 0.30500 METRIC
T01C0.30500
;Hole size 2 = 0.60000 METRIC
T02C0.60000
;Hole size 3 = 0.84999 METRIC
T03C0.84999
;Hole size 4 = 6.10000 METRIC
T04C6.10000
%
G05
G90
T01
X-2.032Y39.751
X-28.524Y40.97
X-18.364Y40.97
X27.356Y40.97
X-18.364Y35.89
X-13.284Y35.89
X-8.204Y35.89
X12.116Y35.89
X17.196Y35.89
X27.356Y35.89
X32.436Y35.89
X-28.524Y30.81
X-18.364Y30.81
X-13.284Y30.81
X-8.204Y30.81
X-3.124Y30.81
X1.956Y30.81
X7.036Y30.81
X12.116Y30.81
X17.196Y30.81
X27.356Y30.81
X-28.524Y25.73
X-23.444Y25.73
X-18.364Y25.73
X-13.284Y25.73
X-8.204Y25.73
X-3.124Y25.73
X1.956Y25.73
X7.036Y25.73
X12.116Y25.73
X17.196Y25.73
X22.276Y25.73
X27.356Y25.73
X-28.524Y20.65
X27.356Y20.65
X-28.524Y15.57
X27.356Y15.57
X-33.604Y10.49
X-28.524Y10.49
X27.356Y10.49
X32.436Y10.49
X-28.524Y5.41
X-23.444Y5.41
X-18.364Y5.41
X-13.284Y5.41
X-8.204Y5.41
X-3.124Y5.41
X1.956Y5.41
X7.036Y5.41
X12.116Y5.41
X17.196Y5.41
X22.276Y5.41
X27.356Y5.41
X32.436Y5.41
X-28.524Y0.33
X-23.444Y0.33
X-18.364Y0.33
X-13.284Y0.33
X-8.204Y0.33
X1.956Y0.33
X7.036Y0.33
X12.116Y0.33
X17.196Y0.33
X22.276Y0.33
X27.356Y0.33
X32.436Y0.33
X-28.524Y-4.75
X27.356Y-4.75
X32.436Y-4.75
X-28.524Y-9.83
X27.356Y-9.83
X32.436Y-9.83
X-28.524Y-14.91
X27.356Y-14.91
X32.436Y-14.91
X37.516Y-14.91
X-28.524Y-19.99
X27.356Y-19.99
X32.436Y-19.99
X37.516Y-19.99
X-28.524Y-25.07
X27.356Y-25.07
X32.436Y-25.07
X-28.524Y-30.15
X-23.444Y-30.15
X-18.364Y-30.15
X-13.284Y-30.15
X-8.204Y-30.15
X-3.124Y-30.15
X1.956Y-30.15
X7.036Y-30.15
X12.116Y-30.15
X17.196Y-30.15
X22.276Y-30.15
X27.356Y-30.15
X32.436Y-30.15
X37.516Y-30.15
X-18.364Y-35.23
X-13.284Y-35.23
X-8.204Y-35.23
X-3.124Y-35.23
X1.956Y-35.23
X7.036Y-35.23
X12.116Y-35.23
X17.196Y-35.23
X32.436Y-35.23
X37.516Y-35.23
X-33.604Y-40.31
X-28.524Y-40.31
X-23.444Y-40.31
X-18.364Y-40.31
X-13.284Y-40.31
X-8.204Y-40.31
X-3.124Y-40.31
X1.956Y-40.31
X7.036Y-40.31
X12.116Y-40.31
X17.196Y-40.31
X22.276Y-40.31
X27.356Y-40.31
X32.436Y-40.31
X-28.524Y-45.39
X-8.204Y-45.39
X5.715Y36.576
X-5.715Y36.703
T02
X4.31991Y42.47958G85X4.31991Y41.77958
X-4.31991Y42.47958G85X-4.31991Y41.77958
X4.31991Y38.67949G85X4.31991Y37.97949
X-4.31991Y38.67949G85X-4.31991Y37.97949
T03
X2.54Y1.397
X0.0Y1.397
X-2.54Y1.397
T04
X22.39296Y34.48189
X-22.84993Y34.48189
X25.77152Y-34.76983
X-26.22848Y-34.76983
M30