G04 Layer: TopSolderMaskLayer*
G04 EasyEDA Pro v3.2.135, 2026-06-15 15:01:53*
G04 Gerber Generator version 0.3*
G04 Scale: 100 percent, Rotated: No, Reflected: No*
G04 Dimensions in millimeters*
G04 Leading zeros omitted, absolute positions, 4 integers and 5 decimals*
G04 Generated by one-click*
G04 Object Configs: Pad,Via,Track,Text,Image,Dimension,BoardOutline,BoardCutout,CopperFilled,SolidRegion,FPCStiffener,Line,PlaneZone,ComponentProperty,ComponentSilkscreen,TearDrop*
G04 Layer Configs: 1,2,3,4,5,6,7,8,9,10,11,13,14,56*
G04 Copper Areas: 0*
%FSLAX45Y45*%
%MOMM*%
%AMRoundRect*1,1,$1,$2,$3*1,1,$1,$4,$5*1,1,$1,0-$2,0-$3*1,1,$1,0-$4,0-$5*20,1,$1,$2,$3,$4,$5,0*20,1,$1,$4,$5,0-$2,0-$3,0*20,1,$1,0-$2,0-$3,0-$4,0-$5,0*20,1,$1,0-$4,0-$5,$2,$3,0*4,1,4,$2,$3,$4,$5,0-$2,0-$3,0-$4,0-$5,$2,$3,0*%
%ADD10C,7.2016*%
%ADD11RoundRect,0.1016X-0.432X-0.40324X-0.432X0.40324*%
%ADD12C,1.4016*%
%ADD13O,1.1X1.8*%
%ADD14RoundRect,0.1016X-0.45X0.35X0.45X0.35*%
%ADD15RoundRect,0.1029X-0.35X-0.45X-0.35X0.45*%
%ADD16RoundRect,0.1016X-0.35X-0.45X-0.35X0.45*%
G75*


G04 Pad Start*
G54D10*
G01X2239296Y3448189D03*
G01X-2284993Y3448189D03*
G01X2577152Y-3476983D03*
G01X-2622848Y-3476983D03*
G54D11*
G01X-711200Y3644036D03*
G01X-711200Y3493364D03*
G01X711200Y3644036D03*
G01X711200Y3493364D03*
G54D12*
G01X254000Y139700D03*
G01X0Y139700D03*
G01X-254000Y139700D03*
G54D13*
G01X431991Y4212958D03*
G01X-431990Y4212958D03*
G01X431991Y3832949D03*
G01X-431990Y3832949D03*
G54D14*
G01X3683618Y492250D03*
G01X3683618Y602258D03*
G01X3500611Y602258D03*
G01X3500611Y492250D03*
G01X3584004Y1240396D03*
G01X3584004Y1350404D03*
G01X3400997Y1350404D03*
G01X3400997Y1240396D03*
G01X3558604Y1913496D03*
G01X3558604Y2023504D03*
G01X3375597Y2023504D03*
G01X3375597Y1913496D03*
G01X3418904Y2738996D03*
G01X3418904Y2849004D03*
G01X3235897Y2849004D03*
G01X3235897Y2738996D03*
G01X3215704Y3412096D03*
G01X3215704Y3522104D03*
G01X3032697Y3522104D03*
G01X3032697Y3412096D03*
G01X2606104Y4047096D03*
G01X2606104Y4157104D03*
G01X2423097Y4157104D03*
G01X2423097Y4047096D03*
G01X1717104Y4072496D03*
G01X1717104Y4182504D03*
G01X1534097Y4182504D03*
G01X1534097Y4072496D03*
G01X895340Y4073650D03*
G01X895340Y4183658D03*
G01X712333Y4183658D03*
G01X712333Y4073650D03*
G01X78804Y4072496D03*
G01X78804Y4182504D03*
G01X-104203Y4182504D03*
G01X-104203Y4072496D03*
G01X-733996Y4072496D03*
G01X-733996Y4182504D03*
G01X-917003Y4182504D03*
G01X-917003Y4072496D03*
G01X-1559496Y4072496D03*
G01X-1559496Y4182504D03*
G01X-1742503Y4182504D03*
G01X-1742503Y4072496D03*
G54D16*
G01X-2396096Y4206304D03*
G01X-2506104Y4206304D03*
G01X-2506104Y4023297D03*
G01X-2396096Y4023297D03*
G54D14*
G01X-3139503Y3572904D03*
G01X-3139503Y3462896D03*
G01X-2956496Y3462896D03*
G01X-2956496Y3572904D03*
G01X-3380803Y2861704D03*
G01X-3380803Y2751696D03*
G01X-3197796Y2751696D03*
G01X-3197796Y2861704D03*
G01X-3520503Y2125104D03*
G01X-3520503Y2015096D03*
G01X-3337496Y2015096D03*
G01X-3337496Y2125104D03*
G01X-3584003Y1375804D03*
G01X-3584003Y1265796D03*
G01X-3400996Y1265796D03*
G01X-3400996Y1375804D03*
G01X-3634803Y601104D03*
G01X-3634803Y491096D03*
G01X-3451796Y491096D03*
G01X-3451796Y601104D03*
G01X-3647503Y-173596D03*
G01X-3647503Y-283604D03*
G01X-3464496Y-283604D03*
G01X-3464496Y-173596D03*
G01X-3685603Y-935596D03*
G01X-3685603Y-1045604D03*
G01X-3502596Y-1045604D03*
G01X-3502596Y-935596D03*
G01X-3698303Y-1722996D03*
G01X-3698303Y-1833004D03*
G01X-3515296Y-1833004D03*
G01X-3515296Y-1722996D03*
G01X-3685603Y-2472296D03*
G01X-3685603Y-2582304D03*
G01X-3502596Y-2582304D03*
G01X-3502596Y-2472296D03*
G01X-3660203Y-3221596D03*
G01X-3660203Y-3331604D03*
G01X-3477196Y-3331604D03*
G01X-3477196Y-3221596D03*
G01X-3596703Y-3754996D03*
G01X-3596703Y-3865004D03*
G01X-3413696Y-3865004D03*
G01X-3413696Y-3754996D03*
G01X-3291903Y-4212196D03*
G01X-3291903Y-4322204D03*
G01X-3108896Y-4322204D03*
G01X-3108896Y-4212196D03*
G01X-2733103Y-4466196D03*
G01X-2733103Y-4576204D03*
G01X-2550096Y-4576204D03*
G01X-2550096Y-4466196D03*
G01X-1971103Y-4555096D03*
G01X-1971103Y-4665104D03*
G01X-1788096Y-4665104D03*
G01X-1788096Y-4555096D03*
G01X-1221803Y-4593196D03*
G01X-1221803Y-4703204D03*
G01X-1038796Y-4703204D03*
G01X-1038796Y-4593196D03*
G01X-434403Y-4580496D03*
G01X-434403Y-4690504D03*
G01X-251396Y-4690504D03*
G01X-251396Y-4580496D03*
G01X251397Y-4580496D03*
G01X251397Y-4690504D03*
G01X434404Y-4690504D03*
G01X434404Y-4580496D03*
G01X1026097Y-4580496D03*
G01X1026097Y-4690504D03*
G01X1209104Y-4690504D03*
G01X1209104Y-4580496D03*
G54D16*
G01X1811896Y-4714303D03*
G01X1921904Y-4714303D03*
G01X1921904Y-4531296D03*
G01X1811896Y-4531296D03*
G01X2561196Y-4612703D03*
G01X2671204Y-4612703D03*
G01X2671204Y-4429696D03*
G01X2561196Y-4429696D03*
G54D14*
G01X3121597Y-4224896D03*
G01X3121597Y-4334904D03*
G01X3304604Y-4334904D03*
G01X3304604Y-4224896D03*
G01X3634804Y-3890404D03*
G01X3634804Y-3780396D03*
G01X3451797Y-3780396D03*
G01X3451797Y-3890404D03*
G01X3711004Y-3357004D03*
G01X3711004Y-3246996D03*
G01X3527997Y-3246996D03*
G01X3527997Y-3357004D03*
G01X3711004Y-2582304D03*
G01X3711004Y-2472296D03*
G01X3527997Y-2472296D03*
G01X3527997Y-2582304D03*
G54D16*
G01X3564496Y-1856803D03*
G01X3674504Y-1856803D03*
G01X3674504Y-1673796D03*
G01X3564496Y-1673796D03*
G54D14*
G01X3698304Y-1045604D03*
G01X3698304Y-935596D03*
G01X3515297Y-935596D03*
G01X3515297Y-1045604D03*
G54D16*
G01X3526396Y-307403D03*
G01X3636404Y-307403D03*
G01X3636404Y-124396D03*
G01X3526396Y-124396D03*
G04 Pad End*

M02*

