G04 Layer: TopSilkscreenLayer*
G04 EasyEDA Pro v3.2.135, 2026-06-15 15:01:53*
G04 Gerber Generator version 0.3*
G04 Scale: 100 percent, Rotated: No, Reflected: No*
G04 Dimensions in millimeters*
G04 Leading zeros omitted, absolute positions, 4 integers and 5 decimals*
G04 Generated by one-click*
G04 Object Configs: Pad,Via,Track,Text,Image,Dimension,BoardOutline,BoardCutout,CopperFilled,SolidRegion,FPCStiffener,Line,PlaneZone,ComponentProperty,ComponentSilkscreen,TearDrop*
G04 Layer Configs: 1,2,3,4,5,6,7,8,9,10,11,13,14,56*
G04 Copper Areas: 0*
%FSLAX45Y45*%
%MOMM*%
%ADD10C,0.1524*%
%ADD11C,0.15199*%
%ADD12C,0.254*%
%ADD13C,0.5746*%
G75*


G04 Text Start*
G54D10*
G01X-891814Y3430191D02*
G01X-826790Y3430191D01*
G01X-891814Y3430191D02*
G01X-891814Y3458131D01*
G01X-888766Y3467275D01*
G01X-885718Y3470323D01*
G01X-879368Y3473625D01*
G01X-873272Y3473625D01*
G01X-867176Y3470323D01*
G01X-864128Y3467275D01*
G01X-860826Y3458131D01*
G01X-860826Y3430191D01*
G01X-860826Y3451781D02*
G01X-826790Y3473625D01*
G01X-876320Y3506899D02*
G01X-879368Y3506899D01*
G01X-885718Y3509947D01*
G01X-888766Y3512995D01*
G01X-891814Y3519091D01*
G01X-891814Y3531537D01*
G01X-888766Y3537887D01*
G01X-885718Y3540935D01*
G01X-879368Y3543983D01*
G01X-873272Y3543983D01*
G01X-867176Y3540935D01*
G01X-857778Y3534585D01*
G01X-826790Y3503851D01*
G01X-826790Y3547031D01*
G01X530586Y3430191D02*
G01X595610Y3430191D01*
G01X530586Y3430191D02*
G01X530586Y3458131D01*
G01X533634Y3467275D01*
G01X536682Y3470323D01*
G01X543032Y3473625D01*
G01X549128Y3473625D01*
G01X555224Y3470323D01*
G01X558272Y3467275D01*
G01X561574Y3458131D01*
G01X561574Y3430191D01*
G01X561574Y3451781D02*
G01X595610Y3473625D01*
G01X530586Y3509947D02*
G01X530586Y3543983D01*
G01X555224Y3525441D01*
G01X555224Y3534585D01*
G01X558272Y3540935D01*
G01X561574Y3543983D01*
G01X570718Y3547031D01*
G01X577068Y3547031D01*
G01X586212Y3543983D01*
G01X592562Y3537887D01*
G01X595610Y3528489D01*
G01X595610Y3519091D01*
G01X592562Y3509947D01*
G01X589260Y3506899D01*
G01X583164Y3503851D01*
G01X3475989Y386790D02*
G01X3475989Y321766D01*
G01X3475989Y321766D02*
G01X3513073Y321766D01*
G01X3543299Y386790D02*
G01X3543299Y321766D01*
G01X3543299Y386790D02*
G01X3583431Y386790D01*
G01X3543299Y355802D02*
G01X3567937Y355802D01*
G01X3543299Y321766D02*
G01X3583431Y321766D01*
G01X3613657Y386790D02*
G01X3613657Y321766D01*
G01X3613657Y386790D02*
G01X3635247Y386790D01*
G01X3644391Y383742D01*
G01X3650741Y377646D01*
G01X3653789Y371296D01*
G01X3656837Y362152D01*
G01X3656837Y346658D01*
G01X3653789Y337260D01*
G01X3650741Y331164D01*
G01X3644391Y324814D01*
G01X3635247Y321766D01*
G01X3613657Y321766D01*
G01X3724147Y377646D02*
G01X3721099Y383742D01*
G01X3711701Y386790D01*
G01X3705605Y386790D01*
G01X3696207Y383742D01*
G01X3690111Y374344D01*
G01X3687063Y359104D01*
G01X3687063Y343610D01*
G01X3690111Y331164D01*
G01X3696207Y324814D01*
G01X3705605Y321766D01*
G01X3708653Y321766D01*
G01X3717797Y324814D01*
G01X3724147Y331164D01*
G01X3727195Y340308D01*
G01X3727195Y343610D01*
G01X3724147Y352754D01*
G01X3717797Y359104D01*
G01X3708653Y362152D01*
G01X3705605Y362152D01*
G01X3696207Y359104D01*
G01X3690111Y352754D01*
G01X3687063Y343610D01*
G01X3373326Y1134936D02*
G01X3373326Y1069912D01*
G01X3373326Y1069912D02*
G01X3410410Y1069912D01*
G01X3440636Y1134936D02*
G01X3440636Y1069912D01*
G01X3440636Y1134936D02*
G01X3480768Y1134936D01*
G01X3440636Y1103948D02*
G01X3465274Y1103948D01*
G01X3440636Y1069912D02*
G01X3480768Y1069912D01*
G01X3510994Y1134936D02*
G01X3510994Y1069912D01*
G01X3510994Y1134936D02*
G01X3532584Y1134936D01*
G01X3541728Y1131888D01*
G01X3548078Y1125792D01*
G01X3551126Y1119442D01*
G01X3554174Y1110298D01*
G01X3554174Y1094804D01*
G01X3551126Y1085406D01*
G01X3548078Y1079310D01*
G01X3541728Y1072960D01*
G01X3532584Y1069912D01*
G01X3510994Y1069912D01*
G01X3627580Y1134936D02*
G01X3596592Y1069912D01*
G01X3584400Y1134936D02*
G01X3627580Y1134936D01*
G01X3347926Y1808036D02*
G01X3347926Y1743012D01*
G01X3347926Y1743012D02*
G01X3385010Y1743012D01*
G01X3415236Y1808036D02*
G01X3415236Y1743012D01*
G01X3415236Y1808036D02*
G01X3455368Y1808036D01*
G01X3415236Y1777048D02*
G01X3439874Y1777048D01*
G01X3415236Y1743012D02*
G01X3455368Y1743012D01*
G01X3485594Y1808036D02*
G01X3485594Y1743012D01*
G01X3485594Y1808036D02*
G01X3507184Y1808036D01*
G01X3516328Y1804988D01*
G01X3522678Y1798892D01*
G01X3525726Y1792542D01*
G01X3528774Y1783398D01*
G01X3528774Y1767904D01*
G01X3525726Y1758506D01*
G01X3522678Y1752410D01*
G01X3516328Y1746060D01*
G01X3507184Y1743012D01*
G01X3485594Y1743012D01*
G01X3574240Y1808036D02*
G01X3565096Y1804988D01*
G01X3562048Y1798892D01*
G01X3562048Y1792542D01*
G01X3565096Y1786446D01*
G01X3571192Y1783398D01*
G01X3583638Y1780350D01*
G01X3593036Y1777048D01*
G01X3599132Y1770952D01*
G01X3602180Y1764856D01*
G01X3602180Y1755458D01*
G01X3599132Y1749362D01*
G01X3596084Y1746060D01*
G01X3586686Y1743012D01*
G01X3574240Y1743012D01*
G01X3565096Y1746060D01*
G01X3562048Y1749362D01*
G01X3559000Y1755458D01*
G01X3559000Y1764856D01*
G01X3562048Y1770952D01*
G01X3568144Y1777048D01*
G01X3577542Y1780350D01*
G01X3589734Y1783398D01*
G01X3596084Y1786446D01*
G01X3599132Y1792542D01*
G01X3599132Y1798892D01*
G01X3596084Y1804988D01*
G01X3586686Y1808036D01*
G01X3574240Y1808036D01*
G01X3211274Y2633536D02*
G01X3211274Y2568512D01*
G01X3211274Y2568512D02*
G01X3248358Y2568512D01*
G01X3278584Y2633536D02*
G01X3278584Y2568512D01*
G01X3278584Y2633536D02*
G01X3318716Y2633536D01*
G01X3278584Y2602548D02*
G01X3303222Y2602548D01*
G01X3278584Y2568512D02*
G01X3318716Y2568512D01*
G01X3348942Y2633536D02*
G01X3348942Y2568512D01*
G01X3348942Y2633536D02*
G01X3370532Y2633536D01*
G01X3379676Y2630488D01*
G01X3386026Y2624392D01*
G01X3389074Y2618042D01*
G01X3392122Y2608898D01*
G01X3392122Y2593404D01*
G01X3389074Y2584006D01*
G01X3386026Y2577910D01*
G01X3379676Y2571560D01*
G01X3370532Y2568512D01*
G01X3348942Y2568512D01*
G01X3462480Y2611946D02*
G01X3459432Y2602548D01*
G01X3453082Y2596452D01*
G01X3443938Y2593404D01*
G01X3440890Y2593404D01*
G01X3431492Y2596452D01*
G01X3425396Y2602548D01*
G01X3422348Y2611946D01*
G01X3422348Y2614994D01*
G01X3425396Y2624392D01*
G01X3431492Y2630488D01*
G01X3440890Y2633536D01*
G01X3443938Y2633536D01*
G01X3453082Y2630488D01*
G01X3459432Y2624392D01*
G01X3462480Y2611946D01*
G01X3462480Y2596452D01*
G01X3459432Y2580958D01*
G01X3453082Y2571560D01*
G01X3443938Y2568512D01*
G01X3437588Y2568512D01*
G01X3428444Y2571560D01*
G01X3425396Y2577910D01*
G01X2959560Y3306636D02*
G01X2959560Y3241612D01*
G01X2959560Y3241612D02*
G01X2996644Y3241612D01*
G01X3026870Y3306636D02*
G01X3026870Y3241612D01*
G01X3026870Y3306636D02*
G01X3067002Y3306636D01*
G01X3026870Y3275648D02*
G01X3051508Y3275648D01*
G01X3026870Y3241612D02*
G01X3067002Y3241612D01*
G01X3097228Y3306636D02*
G01X3097228Y3241612D01*
G01X3097228Y3306636D02*
G01X3118818Y3306636D01*
G01X3127962Y3303588D01*
G01X3134312Y3297492D01*
G01X3137360Y3291142D01*
G01X3140408Y3281998D01*
G01X3140408Y3266504D01*
G01X3137360Y3257106D01*
G01X3134312Y3251010D01*
G01X3127962Y3244660D01*
G01X3118818Y3241612D01*
G01X3097228Y3241612D01*
G01X3170634Y3294190D02*
G01X3176730Y3297492D01*
G01X3185874Y3306636D01*
G01X3185874Y3241612D01*
G01X3234642Y3306636D02*
G01X3225244Y3303588D01*
G01X3219148Y3294190D01*
G01X3216100Y3278950D01*
G01X3216100Y3269552D01*
G01X3219148Y3254058D01*
G01X3225244Y3244660D01*
G01X3234642Y3241612D01*
G01X3240738Y3241612D01*
G01X3250136Y3244660D01*
G01X3256232Y3254058D01*
G01X3259280Y3269552D01*
G01X3259280Y3278950D01*
G01X3256232Y3294190D01*
G01X3250136Y3303588D01*
G01X3240738Y3306636D01*
G01X3234642Y3306636D01*
G01X2377900Y3941636D02*
G01X2377900Y3876612D01*
G01X2377900Y3876612D02*
G01X2414984Y3876612D01*
G01X2445210Y3941636D02*
G01X2445210Y3876612D01*
G01X2445210Y3941636D02*
G01X2485342Y3941636D01*
G01X2445210Y3910648D02*
G01X2469848Y3910648D01*
G01X2445210Y3876612D02*
G01X2485342Y3876612D01*
G01X2515568Y3941636D02*
G01X2515568Y3876612D01*
G01X2515568Y3941636D02*
G01X2537158Y3941636D01*
G01X2546302Y3938588D01*
G01X2552652Y3932492D01*
G01X2555700Y3926142D01*
G01X2558748Y3916998D01*
G01X2558748Y3901504D01*
G01X2555700Y3892106D01*
G01X2552652Y3886010D01*
G01X2546302Y3879660D01*
G01X2537158Y3876612D01*
G01X2515568Y3876612D01*
G01X2588974Y3929190D02*
G01X2595070Y3932492D01*
G01X2604214Y3941636D01*
G01X2604214Y3876612D01*
G01X2634440Y3929190D02*
G01X2640536Y3932492D01*
G01X2649680Y3941636D01*
G01X2649680Y3876612D01*
G01X1460960Y3967036D02*
G01X1460960Y3902012D01*
G01X1460960Y3902012D02*
G01X1498044Y3902012D01*
G01X1528270Y3967036D02*
G01X1528270Y3902012D01*
G01X1528270Y3967036D02*
G01X1568402Y3967036D01*
G01X1528270Y3936048D02*
G01X1552908Y3936048D01*
G01X1528270Y3902012D02*
G01X1568402Y3902012D01*
G01X1598628Y3967036D02*
G01X1598628Y3902012D01*
G01X1598628Y3967036D02*
G01X1620218Y3967036D01*
G01X1629362Y3963988D01*
G01X1635712Y3957892D01*
G01X1638760Y3951542D01*
G01X1641808Y3942398D01*
G01X1641808Y3926904D01*
G01X1638760Y3917506D01*
G01X1635712Y3911410D01*
G01X1629362Y3905060D01*
G01X1620218Y3902012D01*
G01X1598628Y3902012D01*
G01X1672034Y3954590D02*
G01X1678130Y3957892D01*
G01X1687274Y3967036D01*
G01X1687274Y3902012D01*
G01X1720548Y3951542D02*
G01X1720548Y3954590D01*
G01X1723596Y3960940D01*
G01X1726644Y3963988D01*
G01X1732740Y3967036D01*
G01X1745186Y3967036D01*
G01X1751536Y3963988D01*
G01X1754584Y3960940D01*
G01X1757632Y3954590D01*
G01X1757632Y3948494D01*
G01X1754584Y3942398D01*
G01X1748234Y3933000D01*
G01X1717500Y3902012D01*
G01X1760680Y3902012D01*
G01X639196Y3968190D02*
G01X639196Y3903166D01*
G01X639196Y3903166D02*
G01X676280Y3903166D01*
G01X706506Y3968190D02*
G01X706506Y3903166D01*
G01X706506Y3968190D02*
G01X746638Y3968190D01*
G01X706506Y3937202D02*
G01X731144Y3937202D01*
G01X706506Y3903166D02*
G01X746638Y3903166D01*
G01X776864Y3968190D02*
G01X776864Y3903166D01*
G01X776864Y3968190D02*
G01X798454Y3968190D01*
G01X807598Y3965142D01*
G01X813948Y3959046D01*
G01X816996Y3952696D01*
G01X820044Y3943552D01*
G01X820044Y3928058D01*
G01X816996Y3918660D01*
G01X813948Y3912564D01*
G01X807598Y3906214D01*
G01X798454Y3903166D01*
G01X776864Y3903166D01*
G01X850270Y3955744D02*
G01X856366Y3959046D01*
G01X865510Y3968190D01*
G01X865510Y3903166D01*
G01X901832Y3968190D02*
G01X935868Y3968190D01*
G01X917326Y3943552D01*
G01X926470Y3943552D01*
G01X932820Y3940504D01*
G01X935868Y3937202D01*
G01X938916Y3928058D01*
G01X938916Y3921708D01*
G01X935868Y3912564D01*
G01X929772Y3906214D01*
G01X920374Y3903166D01*
G01X910976Y3903166D01*
G01X901832Y3906214D01*
G01X898784Y3909516D01*
G01X895736Y3915612D01*
G01X-180388Y3967036D02*
G01X-180388Y3902012D01*
G01X-180388Y3902012D02*
G01X-143304Y3902012D01*
G01X-113078Y3967036D02*
G01X-113078Y3902012D01*
G01X-113078Y3967036D02*
G01X-72946Y3967036D01*
G01X-113078Y3936048D02*
G01X-88440Y3936048D01*
G01X-113078Y3902012D02*
G01X-72946Y3902012D01*
G01X-42720Y3967036D02*
G01X-42720Y3902012D01*
G01X-42720Y3967036D02*
G01X-21130Y3967036D01*
G01X-11986Y3963988D01*
G01X-5636Y3957892D01*
G01X-2588Y3951542D01*
G01X460Y3942398D01*
G01X460Y3926904D01*
G01X-2588Y3917506D01*
G01X-5636Y3911410D01*
G01X-11986Y3905060D01*
G01X-21130Y3902012D01*
G01X-42720Y3902012D01*
G01X30686Y3954590D02*
G01X36782Y3957892D01*
G01X45926Y3967036D01*
G01X45926Y3902012D01*
G01X106886Y3967036D02*
G01X76152Y3923856D01*
G01X122380Y3923856D01*
G01X106886Y3967036D02*
G01X106886Y3902012D01*
G01X-970280Y3980434D02*
G01X-970280Y3915410D01*
G01X-970280Y3915410D02*
G01X-933196Y3915410D01*
G01X-902970Y3980434D02*
G01X-902970Y3915410D01*
G01X-902970Y3980434D02*
G01X-862838Y3980434D01*
G01X-902970Y3949446D02*
G01X-878332Y3949446D01*
G01X-902970Y3915410D02*
G01X-862838Y3915410D01*
G01X-832612Y3980434D02*
G01X-832612Y3915410D01*
G01X-832612Y3980434D02*
G01X-811022Y3980434D01*
G01X-801878Y3977386D01*
G01X-795528Y3971290D01*
G01X-792480Y3964940D01*
G01X-789432Y3955796D01*
G01X-789432Y3940302D01*
G01X-792480Y3930904D01*
G01X-795528Y3924808D01*
G01X-801878Y3918458D01*
G01X-811022Y3915410D01*
G01X-832612Y3915410D01*
G01X-759206Y3967988D02*
G01X-753110Y3971290D01*
G01X-743966Y3980434D01*
G01X-743966Y3915410D01*
G01X-676656Y3980434D02*
G01X-707644Y3980434D01*
G01X-710692Y3952748D01*
G01X-707644Y3955796D01*
G01X-698500Y3958844D01*
G01X-689102Y3958844D01*
G01X-679704Y3955796D01*
G01X-673608Y3949446D01*
G01X-670560Y3940302D01*
G01X-670560Y3933952D01*
G01X-673608Y3924808D01*
G01X-679704Y3918458D01*
G01X-689102Y3915410D01*
G01X-698500Y3915410D01*
G01X-707644Y3918458D01*
G01X-710692Y3921760D01*
G01X-713740Y3927856D01*
G01X-1795780Y3967734D02*
G01X-1795780Y3902710D01*
G01X-1795780Y3902710D02*
G01X-1758696Y3902710D01*
G01X-1728470Y3967734D02*
G01X-1728470Y3902710D01*
G01X-1728470Y3967734D02*
G01X-1688338Y3967734D01*
G01X-1728470Y3936746D02*
G01X-1703832Y3936746D01*
G01X-1728470Y3902710D02*
G01X-1688338Y3902710D01*
G01X-1658112Y3967734D02*
G01X-1658112Y3902710D01*
G01X-1658112Y3967734D02*
G01X-1636522Y3967734D01*
G01X-1627378Y3964686D01*
G01X-1621028Y3958590D01*
G01X-1617980Y3952240D01*
G01X-1614932Y3943096D01*
G01X-1614932Y3927602D01*
G01X-1617980Y3918204D01*
G01X-1621028Y3912108D01*
G01X-1627378Y3905758D01*
G01X-1636522Y3902710D01*
G01X-1658112Y3902710D01*
G01X-1584706Y3955288D02*
G01X-1578610Y3958590D01*
G01X-1569466Y3967734D01*
G01X-1569466Y3902710D01*
G01X-1502156Y3958590D02*
G01X-1505204Y3964686D01*
G01X-1514602Y3967734D01*
G01X-1520698Y3967734D01*
G01X-1530096Y3964686D01*
G01X-1536192Y3955288D01*
G01X-1539240Y3940048D01*
G01X-1539240Y3924554D01*
G01X-1536192Y3912108D01*
G01X-1530096Y3905758D01*
G01X-1520698Y3902710D01*
G01X-1517650Y3902710D01*
G01X-1508506Y3905758D01*
G01X-1502156Y3912108D01*
G01X-1499108Y3921252D01*
G01X-1499108Y3924554D01*
G01X-1502156Y3933698D01*
G01X-1508506Y3940048D01*
G01X-1517650Y3943096D01*
G01X-1520698Y3943096D01*
G01X-1530096Y3940048D01*
G01X-1536192Y3933698D01*
G01X-1539240Y3924554D01*
G01X-2900680Y4107434D02*
G01X-2900680Y4042410D01*
G01X-2900680Y4042410D02*
G01X-2863596Y4042410D01*
G01X-2833370Y4107434D02*
G01X-2833370Y4042410D01*
G01X-2833370Y4107434D02*
G01X-2793238Y4107434D01*
G01X-2833370Y4076446D02*
G01X-2808732Y4076446D01*
G01X-2833370Y4042410D02*
G01X-2793238Y4042410D01*
G01X-2763012Y4107434D02*
G01X-2763012Y4042410D01*
G01X-2763012Y4107434D02*
G01X-2741422Y4107434D01*
G01X-2732278Y4104386D01*
G01X-2725928Y4098290D01*
G01X-2722880Y4091940D01*
G01X-2719832Y4082796D01*
G01X-2719832Y4067302D01*
G01X-2722880Y4057904D01*
G01X-2725928Y4051808D01*
G01X-2732278Y4045458D01*
G01X-2741422Y4042410D01*
G01X-2763012Y4042410D01*
G01X-2689606Y4094988D02*
G01X-2683510Y4098290D01*
G01X-2674366Y4107434D01*
G01X-2674366Y4042410D01*
G01X-2600960Y4107434D02*
G01X-2631948Y4042410D01*
G01X-2644140Y4107434D02*
G01X-2600960Y4107434D01*
G01X-3183080Y3752533D02*
G01X-3183080Y3687509D01*
G01X-3183080Y3687509D02*
G01X-3145996Y3687509D01*
G01X-3115770Y3752533D02*
G01X-3115770Y3687509D01*
G01X-3115770Y3752533D02*
G01X-3075638Y3752533D01*
G01X-3115770Y3721545D02*
G01X-3091132Y3721545D01*
G01X-3115770Y3687509D02*
G01X-3075638Y3687509D01*
G01X-3045412Y3752533D02*
G01X-3045412Y3687509D01*
G01X-3045412Y3752533D02*
G01X-3023822Y3752533D01*
G01X-3014678Y3749485D01*
G01X-3008328Y3743389D01*
G01X-3005280Y3737039D01*
G01X-3002232Y3727895D01*
G01X-3002232Y3712401D01*
G01X-3005280Y3703003D01*
G01X-3008328Y3696907D01*
G01X-3014678Y3690557D01*
G01X-3023822Y3687509D01*
G01X-3045412Y3687509D01*
G01X-2972006Y3740087D02*
G01X-2965910Y3743389D01*
G01X-2956766Y3752533D01*
G01X-2956766Y3687509D01*
G01X-2911300Y3752533D02*
G01X-2920444Y3749485D01*
G01X-2923492Y3743389D01*
G01X-2923492Y3737039D01*
G01X-2920444Y3730943D01*
G01X-2914348Y3727895D01*
G01X-2901902Y3724847D01*
G01X-2892504Y3721545D01*
G01X-2886408Y3715449D01*
G01X-2883360Y3709353D01*
G01X-2883360Y3699955D01*
G01X-2886408Y3693859D01*
G01X-2889456Y3690557D01*
G01X-2898854Y3687509D01*
G01X-2911300Y3687509D01*
G01X-2920444Y3690557D01*
G01X-2923492Y3693859D01*
G01X-2926540Y3699955D01*
G01X-2926540Y3709353D01*
G01X-2923492Y3715449D01*
G01X-2917396Y3721545D01*
G01X-2907998Y3724847D01*
G01X-2895806Y3727895D01*
G01X-2889456Y3730943D01*
G01X-2886408Y3737039D01*
G01X-2886408Y3743389D01*
G01X-2889456Y3749485D01*
G01X-2898854Y3752533D01*
G01X-2911300Y3752533D01*
G01X-3424380Y3041333D02*
G01X-3424380Y2976309D01*
G01X-3424380Y2976309D02*
G01X-3387296Y2976309D01*
G01X-3357070Y3041333D02*
G01X-3357070Y2976309D01*
G01X-3357070Y3041333D02*
G01X-3316938Y3041333D01*
G01X-3357070Y3010345D02*
G01X-3332432Y3010345D01*
G01X-3357070Y2976309D02*
G01X-3316938Y2976309D01*
G01X-3286712Y3041333D02*
G01X-3286712Y2976309D01*
G01X-3286712Y3041333D02*
G01X-3265122Y3041333D01*
G01X-3255978Y3038285D01*
G01X-3249628Y3032189D01*
G01X-3246580Y3025839D01*
G01X-3243532Y3016695D01*
G01X-3243532Y3001201D01*
G01X-3246580Y2991803D01*
G01X-3249628Y2985707D01*
G01X-3255978Y2979357D01*
G01X-3265122Y2976309D01*
G01X-3286712Y2976309D01*
G01X-3213306Y3028887D02*
G01X-3207210Y3032189D01*
G01X-3198066Y3041333D01*
G01X-3198066Y2976309D01*
G01X-3127708Y3019743D02*
G01X-3130756Y3010345D01*
G01X-3137106Y3004249D01*
G01X-3146250Y3001201D01*
G01X-3149298Y3001201D01*
G01X-3158696Y3004249D01*
G01X-3164792Y3010345D01*
G01X-3167840Y3019743D01*
G01X-3167840Y3022791D01*
G01X-3164792Y3032189D01*
G01X-3158696Y3038285D01*
G01X-3149298Y3041333D01*
G01X-3146250Y3041333D01*
G01X-3137106Y3038285D01*
G01X-3130756Y3032189D01*
G01X-3127708Y3019743D01*
G01X-3127708Y3004249D01*
G01X-3130756Y2988755D01*
G01X-3137106Y2979357D01*
G01X-3146250Y2976309D01*
G01X-3152600Y2976309D01*
G01X-3161744Y2979357D01*
G01X-3164792Y2985707D01*
G01X-3564080Y2304733D02*
G01X-3564080Y2239709D01*
G01X-3564080Y2239709D02*
G01X-3526996Y2239709D01*
G01X-3496770Y2304733D02*
G01X-3496770Y2239709D01*
G01X-3496770Y2304733D02*
G01X-3456638Y2304733D01*
G01X-3496770Y2273745D02*
G01X-3472132Y2273745D01*
G01X-3496770Y2239709D02*
G01X-3456638Y2239709D01*
G01X-3426412Y2304733D02*
G01X-3426412Y2239709D01*
G01X-3426412Y2304733D02*
G01X-3404822Y2304733D01*
G01X-3395678Y2301685D01*
G01X-3389328Y2295589D01*
G01X-3386280Y2289239D01*
G01X-3383232Y2280095D01*
G01X-3383232Y2264601D01*
G01X-3386280Y2255203D01*
G01X-3389328Y2249107D01*
G01X-3395678Y2242757D01*
G01X-3404822Y2239709D01*
G01X-3426412Y2239709D01*
G01X-3349958Y2289239D02*
G01X-3349958Y2292287D01*
G01X-3346910Y2298637D01*
G01X-3343862Y2301685D01*
G01X-3337766Y2304733D01*
G01X-3325320Y2304733D01*
G01X-3318970Y2301685D01*
G01X-3315922Y2298637D01*
G01X-3312874Y2292287D01*
G01X-3312874Y2286191D01*
G01X-3315922Y2280095D01*
G01X-3322272Y2270697D01*
G01X-3353006Y2239709D01*
G01X-3309826Y2239709D01*
G01X-3261058Y2304733D02*
G01X-3270456Y2301685D01*
G01X-3276552Y2292287D01*
G01X-3279600Y2277047D01*
G01X-3279600Y2267649D01*
G01X-3276552Y2252155D01*
G01X-3270456Y2242757D01*
G01X-3261058Y2239709D01*
G01X-3254962Y2239709D01*
G01X-3245564Y2242757D01*
G01X-3239468Y2252155D01*
G01X-3236420Y2267649D01*
G01X-3236420Y2277047D01*
G01X-3239468Y2292287D01*
G01X-3245564Y2301685D01*
G01X-3254962Y2304733D01*
G01X-3261058Y2304733D01*
G01X-3627580Y1555433D02*
G01X-3627580Y1490409D01*
G01X-3627580Y1490409D02*
G01X-3590496Y1490409D01*
G01X-3560270Y1555433D02*
G01X-3560270Y1490409D01*
G01X-3560270Y1555433D02*
G01X-3520138Y1555433D01*
G01X-3560270Y1524445D02*
G01X-3535632Y1524445D01*
G01X-3560270Y1490409D02*
G01X-3520138Y1490409D01*
G01X-3489912Y1555433D02*
G01X-3489912Y1490409D01*
G01X-3489912Y1555433D02*
G01X-3468322Y1555433D01*
G01X-3459178Y1552385D01*
G01X-3452828Y1546289D01*
G01X-3449780Y1539939D01*
G01X-3446732Y1530795D01*
G01X-3446732Y1515301D01*
G01X-3449780Y1505903D01*
G01X-3452828Y1499807D01*
G01X-3459178Y1493457D01*
G01X-3468322Y1490409D01*
G01X-3489912Y1490409D01*
G01X-3413458Y1539939D02*
G01X-3413458Y1542987D01*
G01X-3410410Y1549337D01*
G01X-3407362Y1552385D01*
G01X-3401266Y1555433D01*
G01X-3388820Y1555433D01*
G01X-3382470Y1552385D01*
G01X-3379422Y1549337D01*
G01X-3376374Y1542987D01*
G01X-3376374Y1536891D01*
G01X-3379422Y1530795D01*
G01X-3385772Y1521397D01*
G01X-3416506Y1490409D01*
G01X-3373326Y1490409D01*
G01X-3343100Y1542987D02*
G01X-3337004Y1546289D01*
G01X-3327860Y1555433D01*
G01X-3327860Y1490409D01*
G01X-3678380Y780733D02*
G01X-3678380Y715709D01*
G01X-3678380Y715709D02*
G01X-3641296Y715709D01*
G01X-3611070Y780733D02*
G01X-3611070Y715709D01*
G01X-3611070Y780733D02*
G01X-3570938Y780733D01*
G01X-3611070Y749745D02*
G01X-3586432Y749745D01*
G01X-3611070Y715709D02*
G01X-3570938Y715709D01*
G01X-3540712Y780733D02*
G01X-3540712Y715709D01*
G01X-3540712Y780733D02*
G01X-3519122Y780733D01*
G01X-3509978Y777685D01*
G01X-3503628Y771589D01*
G01X-3500580Y765239D01*
G01X-3497532Y756095D01*
G01X-3497532Y740601D01*
G01X-3500580Y731203D01*
G01X-3503628Y725107D01*
G01X-3509978Y718757D01*
G01X-3519122Y715709D01*
G01X-3540712Y715709D01*
G01X-3464258Y765239D02*
G01X-3464258Y768287D01*
G01X-3461210Y774637D01*
G01X-3458162Y777685D01*
G01X-3452066Y780733D01*
G01X-3439620Y780733D01*
G01X-3433270Y777685D01*
G01X-3430222Y774637D01*
G01X-3427174Y768287D01*
G01X-3427174Y762191D01*
G01X-3430222Y756095D01*
G01X-3436572Y746697D01*
G01X-3467306Y715709D01*
G01X-3424126Y715709D01*
G01X-3390852Y765239D02*
G01X-3390852Y768287D01*
G01X-3387804Y774637D01*
G01X-3384756Y777685D01*
G01X-3378660Y780733D01*
G01X-3366214Y780733D01*
G01X-3359864Y777685D01*
G01X-3356816Y774637D01*
G01X-3353768Y768287D01*
G01X-3353768Y762191D01*
G01X-3356816Y756095D01*
G01X-3363166Y746697D01*
G01X-3393900Y715709D01*
G01X-3350720Y715709D01*
G01X-3691080Y6033D02*
G01X-3691080Y-58991D01*
G01X-3691080Y-58991D02*
G01X-3653996Y-58991D01*
G01X-3623770Y6033D02*
G01X-3623770Y-58991D01*
G01X-3623770Y6033D02*
G01X-3583638Y6033D01*
G01X-3623770Y-24955D02*
G01X-3599132Y-24955D01*
G01X-3623770Y-58991D02*
G01X-3583638Y-58991D01*
G01X-3553412Y6033D02*
G01X-3553412Y-58991D01*
G01X-3553412Y6033D02*
G01X-3531822Y6033D01*
G01X-3522678Y2985D01*
G01X-3516328Y-3111D01*
G01X-3513280Y-9461D01*
G01X-3510232Y-18605D01*
G01X-3510232Y-34099D01*
G01X-3513280Y-43497D01*
G01X-3516328Y-49593D01*
G01X-3522678Y-55943D01*
G01X-3531822Y-58991D01*
G01X-3553412Y-58991D01*
G01X-3476958Y-9461D02*
G01X-3476958Y-6413D01*
G01X-3473910Y-63D01*
G01X-3470862Y2985D01*
G01X-3464766Y6033D01*
G01X-3452320Y6033D01*
G01X-3445970Y2985D01*
G01X-3442922Y-63D01*
G01X-3439874Y-6413D01*
G01X-3439874Y-12509D01*
G01X-3442922Y-18605D01*
G01X-3449272Y-28003D01*
G01X-3480006Y-58991D01*
G01X-3436826Y-58991D01*
G01X-3400504Y6033D02*
G01X-3366468Y6033D01*
G01X-3385010Y-18605D01*
G01X-3375866Y-18605D01*
G01X-3369516Y-21653D01*
G01X-3366468Y-24955D01*
G01X-3363420Y-34099D01*
G01X-3363420Y-40449D01*
G01X-3366468Y-49593D01*
G01X-3372564Y-55943D01*
G01X-3381962Y-58991D01*
G01X-3391360Y-58991D01*
G01X-3400504Y-55943D01*
G01X-3403552Y-52641D01*
G01X-3406600Y-46545D01*
G01X-3729180Y-755967D02*
G01X-3729180Y-820991D01*
G01X-3729180Y-820991D02*
G01X-3692096Y-820991D01*
G01X-3661870Y-755967D02*
G01X-3661870Y-820991D01*
G01X-3661870Y-755967D02*
G01X-3621738Y-755967D01*
G01X-3661870Y-786955D02*
G01X-3637232Y-786955D01*
G01X-3661870Y-820991D02*
G01X-3621738Y-820991D01*
G01X-3591512Y-755967D02*
G01X-3591512Y-820991D01*
G01X-3591512Y-755967D02*
G01X-3569922Y-755967D01*
G01X-3560778Y-759015D01*
G01X-3554428Y-765111D01*
G01X-3551380Y-771461D01*
G01X-3548332Y-780605D01*
G01X-3548332Y-796099D01*
G01X-3551380Y-805497D01*
G01X-3554428Y-811593D01*
G01X-3560778Y-817943D01*
G01X-3569922Y-820991D01*
G01X-3591512Y-820991D01*
G01X-3515058Y-771461D02*
G01X-3515058Y-768413D01*
G01X-3512010Y-762063D01*
G01X-3508962Y-759015D01*
G01X-3502866Y-755967D01*
G01X-3490420Y-755967D01*
G01X-3484070Y-759015D01*
G01X-3481022Y-762063D01*
G01X-3477974Y-768413D01*
G01X-3477974Y-774509D01*
G01X-3481022Y-780605D01*
G01X-3487372Y-790003D01*
G01X-3518106Y-820991D01*
G01X-3474926Y-820991D01*
G01X-3413966Y-755967D02*
G01X-3444700Y-799147D01*
G01X-3398472Y-799147D01*
G01X-3413966Y-755967D02*
G01X-3413966Y-820991D01*
G01X-3741880Y-1543367D02*
G01X-3741880Y-1608391D01*
G01X-3741880Y-1608391D02*
G01X-3704796Y-1608391D01*
G01X-3674570Y-1543367D02*
G01X-3674570Y-1608391D01*
G01X-3674570Y-1543367D02*
G01X-3634438Y-1543367D01*
G01X-3674570Y-1574355D02*
G01X-3649932Y-1574355D01*
G01X-3674570Y-1608391D02*
G01X-3634438Y-1608391D01*
G01X-3604212Y-1543367D02*
G01X-3604212Y-1608391D01*
G01X-3604212Y-1543367D02*
G01X-3582622Y-1543367D01*
G01X-3573478Y-1546415D01*
G01X-3567128Y-1552511D01*
G01X-3564080Y-1558861D01*
G01X-3561032Y-1568005D01*
G01X-3561032Y-1583499D01*
G01X-3564080Y-1592897D01*
G01X-3567128Y-1598993D01*
G01X-3573478Y-1605343D01*
G01X-3582622Y-1608391D01*
G01X-3604212Y-1608391D01*
G01X-3527758Y-1558861D02*
G01X-3527758Y-1555813D01*
G01X-3524710Y-1549463D01*
G01X-3521662Y-1546415D01*
G01X-3515566Y-1543367D01*
G01X-3503120Y-1543367D01*
G01X-3496770Y-1546415D01*
G01X-3493722Y-1549463D01*
G01X-3490674Y-1555813D01*
G01X-3490674Y-1561909D01*
G01X-3493722Y-1568005D01*
G01X-3500072Y-1577403D01*
G01X-3530806Y-1608391D01*
G01X-3487626Y-1608391D01*
G01X-3420316Y-1543367D02*
G01X-3451304Y-1543367D01*
G01X-3454352Y-1571053D01*
G01X-3451304Y-1568005D01*
G01X-3442160Y-1564957D01*
G01X-3432762Y-1564957D01*
G01X-3423364Y-1568005D01*
G01X-3417268Y-1574355D01*
G01X-3414220Y-1583499D01*
G01X-3414220Y-1589849D01*
G01X-3417268Y-1598993D01*
G01X-3423364Y-1605343D01*
G01X-3432762Y-1608391D01*
G01X-3442160Y-1608391D01*
G01X-3451304Y-1605343D01*
G01X-3454352Y-1602041D01*
G01X-3457400Y-1595945D01*
G01X-3729180Y-2292667D02*
G01X-3729180Y-2357691D01*
G01X-3729180Y-2357691D02*
G01X-3692096Y-2357691D01*
G01X-3661870Y-2292667D02*
G01X-3661870Y-2357691D01*
G01X-3661870Y-2292667D02*
G01X-3621738Y-2292667D01*
G01X-3661870Y-2323655D02*
G01X-3637232Y-2323655D01*
G01X-3661870Y-2357691D02*
G01X-3621738Y-2357691D01*
G01X-3591512Y-2292667D02*
G01X-3591512Y-2357691D01*
G01X-3591512Y-2292667D02*
G01X-3569922Y-2292667D01*
G01X-3560778Y-2295715D01*
G01X-3554428Y-2301811D01*
G01X-3551380Y-2308161D01*
G01X-3548332Y-2317305D01*
G01X-3548332Y-2332799D01*
G01X-3551380Y-2342197D01*
G01X-3554428Y-2348293D01*
G01X-3560778Y-2354643D01*
G01X-3569922Y-2357691D01*
G01X-3591512Y-2357691D01*
G01X-3515058Y-2308161D02*
G01X-3515058Y-2305113D01*
G01X-3512010Y-2298763D01*
G01X-3508962Y-2295715D01*
G01X-3502866Y-2292667D01*
G01X-3490420Y-2292667D01*
G01X-3484070Y-2295715D01*
G01X-3481022Y-2298763D01*
G01X-3477974Y-2305113D01*
G01X-3477974Y-2311209D01*
G01X-3481022Y-2317305D01*
G01X-3487372Y-2326703D01*
G01X-3518106Y-2357691D01*
G01X-3474926Y-2357691D01*
G01X-3407616Y-2301811D02*
G01X-3410664Y-2295715D01*
G01X-3420062Y-2292667D01*
G01X-3426158Y-2292667D01*
G01X-3435556Y-2295715D01*
G01X-3441652Y-2305113D01*
G01X-3444700Y-2320353D01*
G01X-3444700Y-2335847D01*
G01X-3441652Y-2348293D01*
G01X-3435556Y-2354643D01*
G01X-3426158Y-2357691D01*
G01X-3423110Y-2357691D01*
G01X-3413966Y-2354643D01*
G01X-3407616Y-2348293D01*
G01X-3404568Y-2339149D01*
G01X-3404568Y-2335847D01*
G01X-3407616Y-2326703D01*
G01X-3413966Y-2320353D01*
G01X-3423110Y-2317305D01*
G01X-3426158Y-2317305D01*
G01X-3435556Y-2320353D01*
G01X-3441652Y-2326703D01*
G01X-3444700Y-2335847D01*
G01X-3703780Y-3041967D02*
G01X-3703780Y-3106991D01*
G01X-3703780Y-3106991D02*
G01X-3666696Y-3106991D01*
G01X-3636470Y-3041967D02*
G01X-3636470Y-3106991D01*
G01X-3636470Y-3041967D02*
G01X-3596338Y-3041967D01*
G01X-3636470Y-3072955D02*
G01X-3611832Y-3072955D01*
G01X-3636470Y-3106991D02*
G01X-3596338Y-3106991D01*
G01X-3566112Y-3041967D02*
G01X-3566112Y-3106991D01*
G01X-3566112Y-3041967D02*
G01X-3544522Y-3041967D01*
G01X-3535378Y-3045015D01*
G01X-3529028Y-3051111D01*
G01X-3525980Y-3057461D01*
G01X-3522932Y-3066605D01*
G01X-3522932Y-3082099D01*
G01X-3525980Y-3091497D01*
G01X-3529028Y-3097593D01*
G01X-3535378Y-3103943D01*
G01X-3544522Y-3106991D01*
G01X-3566112Y-3106991D01*
G01X-3489658Y-3057461D02*
G01X-3489658Y-3054413D01*
G01X-3486610Y-3048063D01*
G01X-3483562Y-3045015D01*
G01X-3477466Y-3041967D01*
G01X-3465020Y-3041967D01*
G01X-3458670Y-3045015D01*
G01X-3455622Y-3048063D01*
G01X-3452574Y-3054413D01*
G01X-3452574Y-3060509D01*
G01X-3455622Y-3066605D01*
G01X-3461972Y-3076003D01*
G01X-3492706Y-3106991D01*
G01X-3449526Y-3106991D01*
G01X-3376120Y-3041967D02*
G01X-3407108Y-3106991D01*
G01X-3419300Y-3041967D02*
G01X-3376120Y-3041967D01*
G01X-3640280Y-3575367D02*
G01X-3640280Y-3640391D01*
G01X-3640280Y-3640391D02*
G01X-3603196Y-3640391D01*
G01X-3572970Y-3575367D02*
G01X-3572970Y-3640391D01*
G01X-3572970Y-3575367D02*
G01X-3532838Y-3575367D01*
G01X-3572970Y-3606355D02*
G01X-3548332Y-3606355D01*
G01X-3572970Y-3640391D02*
G01X-3532838Y-3640391D01*
G01X-3502612Y-3575367D02*
G01X-3502612Y-3640391D01*
G01X-3502612Y-3575367D02*
G01X-3481022Y-3575367D01*
G01X-3471878Y-3578415D01*
G01X-3465528Y-3584511D01*
G01X-3462480Y-3590861D01*
G01X-3459432Y-3600005D01*
G01X-3459432Y-3615499D01*
G01X-3462480Y-3624897D01*
G01X-3465528Y-3630993D01*
G01X-3471878Y-3637343D01*
G01X-3481022Y-3640391D01*
G01X-3502612Y-3640391D01*
G01X-3426158Y-3590861D02*
G01X-3426158Y-3587813D01*
G01X-3423110Y-3581463D01*
G01X-3420062Y-3578415D01*
G01X-3413966Y-3575367D01*
G01X-3401520Y-3575367D01*
G01X-3395170Y-3578415D01*
G01X-3392122Y-3581463D01*
G01X-3389074Y-3587813D01*
G01X-3389074Y-3593909D01*
G01X-3392122Y-3600005D01*
G01X-3398472Y-3609403D01*
G01X-3429206Y-3640391D01*
G01X-3386026Y-3640391D01*
G01X-3340560Y-3575367D02*
G01X-3349704Y-3578415D01*
G01X-3352752Y-3584511D01*
G01X-3352752Y-3590861D01*
G01X-3349704Y-3596957D01*
G01X-3343608Y-3600005D01*
G01X-3331162Y-3603053D01*
G01X-3321764Y-3606355D01*
G01X-3315668Y-3612451D01*
G01X-3312620Y-3618547D01*
G01X-3312620Y-3627945D01*
G01X-3315668Y-3634041D01*
G01X-3318716Y-3637343D01*
G01X-3328114Y-3640391D01*
G01X-3340560Y-3640391D01*
G01X-3349704Y-3637343D01*
G01X-3352752Y-3634041D01*
G01X-3355800Y-3627945D01*
G01X-3355800Y-3618547D01*
G01X-3352752Y-3612451D01*
G01X-3346656Y-3606355D01*
G01X-3337258Y-3603053D01*
G01X-3325066Y-3600005D01*
G01X-3318716Y-3596957D01*
G01X-3315668Y-3590861D01*
G01X-3315668Y-3584511D01*
G01X-3318716Y-3578415D01*
G01X-3328114Y-3575367D01*
G01X-3340560Y-3575367D01*
G01X-3335480Y-4032567D02*
G01X-3335480Y-4097591D01*
G01X-3335480Y-4097591D02*
G01X-3298396Y-4097591D01*
G01X-3268170Y-4032567D02*
G01X-3268170Y-4097591D01*
G01X-3268170Y-4032567D02*
G01X-3228038Y-4032567D01*
G01X-3268170Y-4063555D02*
G01X-3243532Y-4063555D01*
G01X-3268170Y-4097591D02*
G01X-3228038Y-4097591D01*
G01X-3197812Y-4032567D02*
G01X-3197812Y-4097591D01*
G01X-3197812Y-4032567D02*
G01X-3176222Y-4032567D01*
G01X-3167078Y-4035615D01*
G01X-3160728Y-4041711D01*
G01X-3157680Y-4048061D01*
G01X-3154632Y-4057205D01*
G01X-3154632Y-4072699D01*
G01X-3157680Y-4082097D01*
G01X-3160728Y-4088193D01*
G01X-3167078Y-4094543D01*
G01X-3176222Y-4097591D01*
G01X-3197812Y-4097591D01*
G01X-3121358Y-4048061D02*
G01X-3121358Y-4045013D01*
G01X-3118310Y-4038663D01*
G01X-3115262Y-4035615D01*
G01X-3109166Y-4032567D01*
G01X-3096720Y-4032567D01*
G01X-3090370Y-4035615D01*
G01X-3087322Y-4038663D01*
G01X-3084274Y-4045013D01*
G01X-3084274Y-4051109D01*
G01X-3087322Y-4057205D01*
G01X-3093672Y-4066603D01*
G01X-3124406Y-4097591D01*
G01X-3081226Y-4097591D01*
G01X-3010868Y-4054157D02*
G01X-3013916Y-4063555D01*
G01X-3020266Y-4069651D01*
G01X-3029410Y-4072699D01*
G01X-3032458Y-4072699D01*
G01X-3041856Y-4069651D01*
G01X-3047952Y-4063555D01*
G01X-3051000Y-4054157D01*
G01X-3051000Y-4051109D01*
G01X-3047952Y-4041711D01*
G01X-3041856Y-4035615D01*
G01X-3032458Y-4032567D01*
G01X-3029410Y-4032567D01*
G01X-3020266Y-4035615D01*
G01X-3013916Y-4041711D01*
G01X-3010868Y-4054157D01*
G01X-3010868Y-4069651D01*
G01X-3013916Y-4085145D01*
G01X-3020266Y-4094543D01*
G01X-3029410Y-4097591D01*
G01X-3035760Y-4097591D01*
G01X-3044904Y-4094543D01*
G01X-3047952Y-4088193D01*
G01X-2776680Y-4286567D02*
G01X-2776680Y-4351591D01*
G01X-2776680Y-4351591D02*
G01X-2739596Y-4351591D01*
G01X-2709370Y-4286567D02*
G01X-2709370Y-4351591D01*
G01X-2709370Y-4286567D02*
G01X-2669238Y-4286567D01*
G01X-2709370Y-4317555D02*
G01X-2684732Y-4317555D01*
G01X-2709370Y-4351591D02*
G01X-2669238Y-4351591D01*
G01X-2639012Y-4286567D02*
G01X-2639012Y-4351591D01*
G01X-2639012Y-4286567D02*
G01X-2617422Y-4286567D01*
G01X-2608278Y-4289615D01*
G01X-2601928Y-4295711D01*
G01X-2598880Y-4302061D01*
G01X-2595832Y-4311205D01*
G01X-2595832Y-4326699D01*
G01X-2598880Y-4336097D01*
G01X-2601928Y-4342193D01*
G01X-2608278Y-4348543D01*
G01X-2617422Y-4351591D01*
G01X-2639012Y-4351591D01*
G01X-2559510Y-4286567D02*
G01X-2525474Y-4286567D01*
G01X-2544016Y-4311205D01*
G01X-2534872Y-4311205D01*
G01X-2528522Y-4314253D01*
G01X-2525474Y-4317555D01*
G01X-2522426Y-4326699D01*
G01X-2522426Y-4333049D01*
G01X-2525474Y-4342193D01*
G01X-2531570Y-4348543D01*
G01X-2540968Y-4351591D01*
G01X-2550366Y-4351591D01*
G01X-2559510Y-4348543D01*
G01X-2562558Y-4345241D01*
G01X-2565606Y-4339145D01*
G01X-2473658Y-4286567D02*
G01X-2483056Y-4289615D01*
G01X-2489152Y-4299013D01*
G01X-2492200Y-4314253D01*
G01X-2492200Y-4323651D01*
G01X-2489152Y-4339145D01*
G01X-2483056Y-4348543D01*
G01X-2473658Y-4351591D01*
G01X-2467562Y-4351591D01*
G01X-2458164Y-4348543D01*
G01X-2452068Y-4339145D01*
G01X-2449020Y-4323651D01*
G01X-2449020Y-4314253D01*
G01X-2452068Y-4299013D01*
G01X-2458164Y-4289615D01*
G01X-2467562Y-4286567D01*
G01X-2473658Y-4286567D01*
G01X-2014680Y-4375467D02*
G01X-2014680Y-4440491D01*
G01X-2014680Y-4440491D02*
G01X-1977596Y-4440491D01*
G01X-1947370Y-4375467D02*
G01X-1947370Y-4440491D01*
G01X-1947370Y-4375467D02*
G01X-1907238Y-4375467D01*
G01X-1947370Y-4406455D02*
G01X-1922732Y-4406455D01*
G01X-1947370Y-4440491D02*
G01X-1907238Y-4440491D01*
G01X-1877012Y-4375467D02*
G01X-1877012Y-4440491D01*
G01X-1877012Y-4375467D02*
G01X-1855422Y-4375467D01*
G01X-1846278Y-4378515D01*
G01X-1839928Y-4384611D01*
G01X-1836880Y-4390961D01*
G01X-1833832Y-4400105D01*
G01X-1833832Y-4415599D01*
G01X-1836880Y-4424997D01*
G01X-1839928Y-4431093D01*
G01X-1846278Y-4437443D01*
G01X-1855422Y-4440491D01*
G01X-1877012Y-4440491D01*
G01X-1797510Y-4375467D02*
G01X-1763474Y-4375467D01*
G01X-1782016Y-4400105D01*
G01X-1772872Y-4400105D01*
G01X-1766522Y-4403153D01*
G01X-1763474Y-4406455D01*
G01X-1760426Y-4415599D01*
G01X-1760426Y-4421949D01*
G01X-1763474Y-4431093D01*
G01X-1769570Y-4437443D01*
G01X-1778968Y-4440491D01*
G01X-1788366Y-4440491D01*
G01X-1797510Y-4437443D01*
G01X-1800558Y-4434141D01*
G01X-1803606Y-4428045D01*
G01X-1730200Y-4387913D02*
G01X-1724104Y-4384611D01*
G01X-1714960Y-4375467D01*
G01X-1714960Y-4440491D01*
G01X-1265380Y-4413567D02*
G01X-1265380Y-4478591D01*
G01X-1265380Y-4478591D02*
G01X-1228296Y-4478591D01*
G01X-1198070Y-4413567D02*
G01X-1198070Y-4478591D01*
G01X-1198070Y-4413567D02*
G01X-1157938Y-4413567D01*
G01X-1198070Y-4444555D02*
G01X-1173432Y-4444555D01*
G01X-1198070Y-4478591D02*
G01X-1157938Y-4478591D01*
G01X-1127712Y-4413567D02*
G01X-1127712Y-4478591D01*
G01X-1127712Y-4413567D02*
G01X-1106122Y-4413567D01*
G01X-1096978Y-4416615D01*
G01X-1090628Y-4422711D01*
G01X-1087580Y-4429061D01*
G01X-1084532Y-4438205D01*
G01X-1084532Y-4453699D01*
G01X-1087580Y-4463097D01*
G01X-1090628Y-4469193D01*
G01X-1096978Y-4475543D01*
G01X-1106122Y-4478591D01*
G01X-1127712Y-4478591D01*
G01X-1048210Y-4413567D02*
G01X-1014174Y-4413567D01*
G01X-1032716Y-4438205D01*
G01X-1023572Y-4438205D01*
G01X-1017222Y-4441253D01*
G01X-1014174Y-4444555D01*
G01X-1011126Y-4453699D01*
G01X-1011126Y-4460049D01*
G01X-1014174Y-4469193D01*
G01X-1020270Y-4475543D01*
G01X-1029668Y-4478591D01*
G01X-1039066Y-4478591D01*
G01X-1048210Y-4475543D01*
G01X-1051258Y-4472241D01*
G01X-1054306Y-4466145D01*
G01X-977852Y-4429061D02*
G01X-977852Y-4426013D01*
G01X-974804Y-4419663D01*
G01X-971756Y-4416615D01*
G01X-965660Y-4413567D01*
G01X-953214Y-4413567D01*
G01X-946864Y-4416615D01*
G01X-943816Y-4419663D01*
G01X-940768Y-4426013D01*
G01X-940768Y-4432109D01*
G01X-943816Y-4438205D01*
G01X-950166Y-4447603D01*
G01X-980900Y-4478591D01*
G01X-937720Y-4478591D01*
G01X-477980Y-4400867D02*
G01X-477980Y-4465891D01*
G01X-477980Y-4465891D02*
G01X-440896Y-4465891D01*
G01X-410670Y-4400867D02*
G01X-410670Y-4465891D01*
G01X-410670Y-4400867D02*
G01X-370538Y-4400867D01*
G01X-410670Y-4431855D02*
G01X-386032Y-4431855D01*
G01X-410670Y-4465891D02*
G01X-370538Y-4465891D01*
G01X-340312Y-4400867D02*
G01X-340312Y-4465891D01*
G01X-340312Y-4400867D02*
G01X-318722Y-4400867D01*
G01X-309578Y-4403915D01*
G01X-303228Y-4410011D01*
G01X-300180Y-4416361D01*
G01X-297132Y-4425505D01*
G01X-297132Y-4440999D01*
G01X-300180Y-4450397D01*
G01X-303228Y-4456493D01*
G01X-309578Y-4462843D01*
G01X-318722Y-4465891D01*
G01X-340312Y-4465891D01*
G01X-260810Y-4400867D02*
G01X-226774Y-4400867D01*
G01X-245316Y-4425505D01*
G01X-236172Y-4425505D01*
G01X-229822Y-4428553D01*
G01X-226774Y-4431855D01*
G01X-223726Y-4440999D01*
G01X-223726Y-4447349D01*
G01X-226774Y-4456493D01*
G01X-232870Y-4462843D01*
G01X-242268Y-4465891D01*
G01X-251666Y-4465891D01*
G01X-260810Y-4462843D01*
G01X-263858Y-4459541D01*
G01X-266906Y-4453445D01*
G01X-187404Y-4400867D02*
G01X-153368Y-4400867D01*
G01X-171910Y-4425505D01*
G01X-162766Y-4425505D01*
G01X-156416Y-4428553D01*
G01X-153368Y-4431855D01*
G01X-150320Y-4440999D01*
G01X-150320Y-4447349D01*
G01X-153368Y-4456493D01*
G01X-159464Y-4462843D01*
G01X-168862Y-4465891D01*
G01X-178260Y-4465891D01*
G01X-187404Y-4462843D01*
G01X-190452Y-4459541D01*
G01X-193500Y-4453445D01*
G01X207820Y-4400867D02*
G01X207820Y-4465891D01*
G01X207820Y-4465891D02*
G01X244904Y-4465891D01*
G01X275130Y-4400867D02*
G01X275130Y-4465891D01*
G01X275130Y-4400867D02*
G01X315262Y-4400867D01*
G01X275130Y-4431855D02*
G01X299768Y-4431855D01*
G01X275130Y-4465891D02*
G01X315262Y-4465891D01*
G01X345488Y-4400867D02*
G01X345488Y-4465891D01*
G01X345488Y-4400867D02*
G01X367078Y-4400867D01*
G01X376222Y-4403915D01*
G01X382572Y-4410011D01*
G01X385620Y-4416361D01*
G01X388668Y-4425505D01*
G01X388668Y-4440999D01*
G01X385620Y-4450397D01*
G01X382572Y-4456493D01*
G01X376222Y-4462843D01*
G01X367078Y-4465891D01*
G01X345488Y-4465891D01*
G01X424990Y-4400867D02*
G01X459026Y-4400867D01*
G01X440484Y-4425505D01*
G01X449628Y-4425505D01*
G01X455978Y-4428553D01*
G01X459026Y-4431855D01*
G01X462074Y-4440999D01*
G01X462074Y-4447349D01*
G01X459026Y-4456493D01*
G01X452930Y-4462843D01*
G01X443532Y-4465891D01*
G01X434134Y-4465891D01*
G01X424990Y-4462843D01*
G01X421942Y-4459541D01*
G01X418894Y-4453445D01*
G01X523034Y-4400867D02*
G01X492300Y-4444047D01*
G01X538528Y-4444047D01*
G01X523034Y-4400867D02*
G01X523034Y-4465891D01*
G01X982520Y-4400867D02*
G01X982520Y-4465891D01*
G01X982520Y-4465891D02*
G01X1019604Y-4465891D01*
G01X1049830Y-4400867D02*
G01X1049830Y-4465891D01*
G01X1049830Y-4400867D02*
G01X1089962Y-4400867D01*
G01X1049830Y-4431855D02*
G01X1074468Y-4431855D01*
G01X1049830Y-4465891D02*
G01X1089962Y-4465891D01*
G01X1120188Y-4400867D02*
G01X1120188Y-4465891D01*
G01X1120188Y-4400867D02*
G01X1141778Y-4400867D01*
G01X1150922Y-4403915D01*
G01X1157272Y-4410011D01*
G01X1160320Y-4416361D01*
G01X1163368Y-4425505D01*
G01X1163368Y-4440999D01*
G01X1160320Y-4450397D01*
G01X1157272Y-4456493D01*
G01X1150922Y-4462843D01*
G01X1141778Y-4465891D01*
G01X1120188Y-4465891D01*
G01X1199690Y-4400867D02*
G01X1233726Y-4400867D01*
G01X1215184Y-4425505D01*
G01X1224328Y-4425505D01*
G01X1230678Y-4428553D01*
G01X1233726Y-4431855D01*
G01X1236774Y-4440999D01*
G01X1236774Y-4447349D01*
G01X1233726Y-4456493D01*
G01X1227630Y-4462843D01*
G01X1218232Y-4465891D01*
G01X1208834Y-4465891D01*
G01X1199690Y-4462843D01*
G01X1196642Y-4459541D01*
G01X1193594Y-4453445D01*
G01X1304084Y-4400867D02*
G01X1273096Y-4400867D01*
G01X1270048Y-4428553D01*
G01X1273096Y-4425505D01*
G01X1282240Y-4422457D01*
G01X1291638Y-4422457D01*
G01X1301036Y-4425505D01*
G01X1307132Y-4431855D01*
G01X1310180Y-4440999D01*
G01X1310180Y-4447349D01*
G01X1307132Y-4456493D01*
G01X1301036Y-4462843D01*
G01X1291638Y-4465891D01*
G01X1282240Y-4465891D01*
G01X1273096Y-4462843D01*
G01X1270048Y-4459541D01*
G01X1267000Y-4453445D01*
G01X1712468Y-4325366D02*
G01X1712468Y-4390390D01*
G01X1712468Y-4390390D02*
G01X1749552Y-4390390D01*
G01X1779778Y-4325366D02*
G01X1779778Y-4390390D01*
G01X1779778Y-4325366D02*
G01X1819910Y-4325366D01*
G01X1779778Y-4356354D02*
G01X1804416Y-4356354D01*
G01X1779778Y-4390390D02*
G01X1819910Y-4390390D01*
G01X1850136Y-4325366D02*
G01X1850136Y-4390390D01*
G01X1850136Y-4325366D02*
G01X1871726Y-4325366D01*
G01X1880870Y-4328414D01*
G01X1887220Y-4334510D01*
G01X1890268Y-4340860D01*
G01X1893316Y-4350004D01*
G01X1893316Y-4365498D01*
G01X1890268Y-4374896D01*
G01X1887220Y-4380992D01*
G01X1880870Y-4387342D01*
G01X1871726Y-4390390D01*
G01X1850136Y-4390390D01*
G01X1929638Y-4325366D02*
G01X1963674Y-4325366D01*
G01X1945132Y-4350004D01*
G01X1954276Y-4350004D01*
G01X1960626Y-4353052D01*
G01X1963674Y-4356354D01*
G01X1966722Y-4365498D01*
G01X1966722Y-4371848D01*
G01X1963674Y-4380992D01*
G01X1957578Y-4387342D01*
G01X1948180Y-4390390D01*
G01X1938782Y-4390390D01*
G01X1929638Y-4387342D01*
G01X1926590Y-4384040D01*
G01X1923542Y-4377944D01*
G01X2034032Y-4334510D02*
G01X2030984Y-4328414D01*
G01X2021586Y-4325366D01*
G01X2015490Y-4325366D01*
G01X2006092Y-4328414D01*
G01X1999996Y-4337812D01*
G01X1996948Y-4353052D01*
G01X1996948Y-4368546D01*
G01X1999996Y-4380992D01*
G01X2006092Y-4387342D01*
G01X2015490Y-4390390D01*
G01X2018538Y-4390390D01*
G01X2027682Y-4387342D01*
G01X2034032Y-4380992D01*
G01X2037080Y-4371848D01*
G01X2037080Y-4368546D01*
G01X2034032Y-4359402D01*
G01X2027682Y-4353052D01*
G01X2018538Y-4350004D01*
G01X2015490Y-4350004D01*
G01X2006092Y-4353052D01*
G01X1999996Y-4359402D01*
G01X1996948Y-4368546D01*
G01X2458720Y-4236466D02*
G01X2458720Y-4301490D01*
G01X2458720Y-4301490D02*
G01X2495804Y-4301490D01*
G01X2526030Y-4236466D02*
G01X2526030Y-4301490D01*
G01X2526030Y-4236466D02*
G01X2566162Y-4236466D01*
G01X2526030Y-4267454D02*
G01X2550668Y-4267454D01*
G01X2526030Y-4301490D02*
G01X2566162Y-4301490D01*
G01X2596388Y-4236466D02*
G01X2596388Y-4301490D01*
G01X2596388Y-4236466D02*
G01X2617978Y-4236466D01*
G01X2627122Y-4239514D01*
G01X2633472Y-4245610D01*
G01X2636520Y-4251960D01*
G01X2639568Y-4261104D01*
G01X2639568Y-4276598D01*
G01X2636520Y-4285996D01*
G01X2633472Y-4292092D01*
G01X2627122Y-4298442D01*
G01X2617978Y-4301490D01*
G01X2596388Y-4301490D01*
G01X2675890Y-4236466D02*
G01X2709926Y-4236466D01*
G01X2691384Y-4261104D01*
G01X2700528Y-4261104D01*
G01X2706878Y-4264152D01*
G01X2709926Y-4267454D01*
G01X2712974Y-4276598D01*
G01X2712974Y-4282948D01*
G01X2709926Y-4292092D01*
G01X2703830Y-4298442D01*
G01X2694432Y-4301490D01*
G01X2685034Y-4301490D01*
G01X2675890Y-4298442D01*
G01X2672842Y-4295140D01*
G01X2669794Y-4289044D01*
G01X2786380Y-4236466D02*
G01X2755392Y-4301490D01*
G01X2743200Y-4236466D02*
G01X2786380Y-4236466D01*
G01X3078020Y-4045267D02*
G01X3078020Y-4110291D01*
G01X3078020Y-4110291D02*
G01X3115104Y-4110291D01*
G01X3145330Y-4045267D02*
G01X3145330Y-4110291D01*
G01X3145330Y-4045267D02*
G01X3185462Y-4045267D01*
G01X3145330Y-4076255D02*
G01X3169968Y-4076255D01*
G01X3145330Y-4110291D02*
G01X3185462Y-4110291D01*
G01X3215688Y-4045267D02*
G01X3215688Y-4110291D01*
G01X3215688Y-4045267D02*
G01X3237278Y-4045267D01*
G01X3246422Y-4048315D01*
G01X3252772Y-4054411D01*
G01X3255820Y-4060761D01*
G01X3258868Y-4069905D01*
G01X3258868Y-4085399D01*
G01X3255820Y-4094797D01*
G01X3252772Y-4100893D01*
G01X3246422Y-4107243D01*
G01X3237278Y-4110291D01*
G01X3215688Y-4110291D01*
G01X3295190Y-4045267D02*
G01X3329226Y-4045267D01*
G01X3310684Y-4069905D01*
G01X3319828Y-4069905D01*
G01X3326178Y-4072953D01*
G01X3329226Y-4076255D01*
G01X3332274Y-4085399D01*
G01X3332274Y-4091749D01*
G01X3329226Y-4100893D01*
G01X3323130Y-4107243D01*
G01X3313732Y-4110291D01*
G01X3304334Y-4110291D01*
G01X3295190Y-4107243D01*
G01X3292142Y-4103941D01*
G01X3289094Y-4097845D01*
G01X3377740Y-4045267D02*
G01X3368596Y-4048315D01*
G01X3365548Y-4054411D01*
G01X3365548Y-4060761D01*
G01X3368596Y-4066857D01*
G01X3374692Y-4069905D01*
G01X3387138Y-4072953D01*
G01X3396536Y-4076255D01*
G01X3402632Y-4082351D01*
G01X3405680Y-4088447D01*
G01X3405680Y-4097845D01*
G01X3402632Y-4103941D01*
G01X3399584Y-4107243D01*
G01X3390186Y-4110291D01*
G01X3377740Y-4110291D01*
G01X3368596Y-4107243D01*
G01X3365548Y-4103941D01*
G01X3362500Y-4097845D01*
G01X3362500Y-4088447D01*
G01X3365548Y-4082351D01*
G01X3371644Y-4076255D01*
G01X3381042Y-4072953D01*
G01X3393234Y-4069905D01*
G01X3399584Y-4066857D01*
G01X3402632Y-4060761D01*
G01X3402632Y-4054411D01*
G01X3399584Y-4048315D01*
G01X3390186Y-4045267D01*
G01X3377740Y-4045267D01*
G01X3320034Y-3639820D02*
G01X3255010Y-3639820D01*
G01X3255010Y-3639820D02*
G01X3255010Y-3676904D01*
G01X3320034Y-3707130D02*
G01X3255010Y-3707130D01*
G01X3320034Y-3707130D02*
G01X3320034Y-3747262D01*
G01X3289046Y-3707130D02*
G01X3289046Y-3731768D01*
G01X3255010Y-3707130D02*
G01X3255010Y-3747262D01*
G01X3320034Y-3777488D02*
G01X3255010Y-3777488D01*
G01X3320034Y-3777488D02*
G01X3320034Y-3799078D01*
G01X3316986Y-3808222D01*
G01X3310890Y-3814572D01*
G01X3304540Y-3817620D01*
G01X3295396Y-3820668D01*
G01X3279902Y-3820668D01*
G01X3270504Y-3817620D01*
G01X3264408Y-3814572D01*
G01X3258058Y-3808222D01*
G01X3255010Y-3799078D01*
G01X3255010Y-3777488D01*
G01X3320034Y-3856990D02*
G01X3320034Y-3891026D01*
G01X3295396Y-3872484D01*
G01X3295396Y-3881628D01*
G01X3292348Y-3887978D01*
G01X3289046Y-3891026D01*
G01X3279902Y-3894074D01*
G01X3273552Y-3894074D01*
G01X3264408Y-3891026D01*
G01X3258058Y-3884930D01*
G01X3255010Y-3875532D01*
G01X3255010Y-3866134D01*
G01X3258058Y-3856990D01*
G01X3261360Y-3853942D01*
G01X3267456Y-3850894D01*
G01X3298444Y-3964432D02*
G01X3289046Y-3961384D01*
G01X3282950Y-3955034D01*
G01X3279902Y-3945890D01*
G01X3279902Y-3942842D01*
G01X3282950Y-3933444D01*
G01X3289046Y-3927348D01*
G01X3298444Y-3924300D01*
G01X3301492Y-3924300D01*
G01X3310890Y-3927348D01*
G01X3316986Y-3933444D01*
G01X3320034Y-3942842D01*
G01X3320034Y-3945890D01*
G01X3316986Y-3955034D01*
G01X3310890Y-3961384D01*
G01X3298444Y-3964432D01*
G01X3282950Y-3964432D01*
G01X3267456Y-3961384D01*
G01X3258058Y-3955034D01*
G01X3255010Y-3945890D01*
G01X3255010Y-3939540D01*
G01X3258058Y-3930396D01*
G01X3264408Y-3927348D01*
G01X3322066Y-3472180D02*
G01X3387090Y-3472180D01*
G01X3387090Y-3472180D02*
G01X3387090Y-3435096D01*
G01X3322066Y-3404870D02*
G01X3387090Y-3404870D01*
G01X3322066Y-3404870D02*
G01X3322066Y-3364738D01*
G01X3353054Y-3404870D02*
G01X3353054Y-3380232D01*
G01X3387090Y-3404870D02*
G01X3387090Y-3364738D01*
G01X3322066Y-3334512D02*
G01X3387090Y-3334512D01*
G01X3322066Y-3334512D02*
G01X3322066Y-3312922D01*
G01X3325114Y-3303778D01*
G01X3331210Y-3297428D01*
G01X3337560Y-3294380D01*
G01X3346704Y-3291332D01*
G01X3362198Y-3291332D01*
G01X3371596Y-3294380D01*
G01X3377692Y-3297428D01*
G01X3384042Y-3303778D01*
G01X3387090Y-3312922D01*
G01X3387090Y-3334512D01*
G01X3322066Y-3230372D02*
G01X3365246Y-3261106D01*
G01X3365246Y-3214878D01*
G01X3322066Y-3230372D02*
G01X3387090Y-3230372D01*
G01X3322066Y-3166110D02*
G01X3325114Y-3175508D01*
G01X3334512Y-3181604D01*
G01X3349752Y-3184652D01*
G01X3359150Y-3184652D01*
G01X3374644Y-3181604D01*
G01X3384042Y-3175508D01*
G01X3387090Y-3166110D01*
G01X3387090Y-3160014D01*
G01X3384042Y-3150616D01*
G01X3374644Y-3144520D01*
G01X3359150Y-3141472D01*
G01X3349752Y-3141472D01*
G01X3334512Y-3144520D01*
G01X3325114Y-3150616D01*
G01X3322066Y-3160014D01*
G01X3322066Y-3166110D01*
G01X3309366Y-2697988D02*
G01X3374390Y-2697988D01*
G01X3374390Y-2697988D02*
G01X3374390Y-2660904D01*
G01X3309366Y-2630678D02*
G01X3374390Y-2630678D01*
G01X3309366Y-2630678D02*
G01X3309366Y-2590546D01*
G01X3340354Y-2630678D02*
G01X3340354Y-2606040D01*
G01X3374390Y-2630678D02*
G01X3374390Y-2590546D01*
G01X3309366Y-2560320D02*
G01X3374390Y-2560320D01*
G01X3309366Y-2560320D02*
G01X3309366Y-2538730D01*
G01X3312414Y-2529586D01*
G01X3318510Y-2523236D01*
G01X3324860Y-2520188D01*
G01X3334004Y-2517140D01*
G01X3349498Y-2517140D01*
G01X3358896Y-2520188D01*
G01X3364992Y-2523236D01*
G01X3371342Y-2529586D01*
G01X3374390Y-2538730D01*
G01X3374390Y-2560320D01*
G01X3309366Y-2456180D02*
G01X3352546Y-2486914D01*
G01X3352546Y-2440686D01*
G01X3309366Y-2456180D02*
G01X3374390Y-2456180D01*
G01X3321812Y-2410460D02*
G01X3318510Y-2404364D01*
G01X3309366Y-2395220D01*
G01X3374390Y-2395220D01*
G01X3384868Y-1900380D02*
G01X3449892Y-1900380D01*
G01X3449892Y-1900380D02*
G01X3449892Y-1863296D01*
G01X3384868Y-1833070D02*
G01X3449892Y-1833070D01*
G01X3384868Y-1833070D02*
G01X3384868Y-1792938D01*
G01X3415856Y-1833070D02*
G01X3415856Y-1808432D01*
G01X3449892Y-1833070D02*
G01X3449892Y-1792938D01*
G01X3384868Y-1762712D02*
G01X3449892Y-1762712D01*
G01X3384868Y-1762712D02*
G01X3384868Y-1741122D01*
G01X3387916Y-1731978D01*
G01X3394012Y-1725628D01*
G01X3400362Y-1722580D01*
G01X3409506Y-1719532D01*
G01X3425000Y-1719532D01*
G01X3434398Y-1722580D01*
G01X3440494Y-1725628D01*
G01X3446844Y-1731978D01*
G01X3449892Y-1741122D01*
G01X3449892Y-1762712D01*
G01X3384868Y-1658572D02*
G01X3428048Y-1689306D01*
G01X3428048Y-1643078D01*
G01X3384868Y-1658572D02*
G01X3449892Y-1658572D01*
G01X3400362Y-1609804D02*
G01X3397314Y-1609804D01*
G01X3390964Y-1606756D01*
G01X3387916Y-1603708D01*
G01X3384868Y-1597612D01*
G01X3384868Y-1585166D01*
G01X3387916Y-1578816D01*
G01X3390964Y-1575768D01*
G01X3397314Y-1572720D01*
G01X3403410Y-1572720D01*
G01X3409506Y-1575768D01*
G01X3418904Y-1582118D01*
G01X3449892Y-1612852D01*
G01X3449892Y-1569672D01*
G01X3283966Y-1148080D02*
G01X3348990Y-1148080D01*
G01X3348990Y-1148080D02*
G01X3348990Y-1110996D01*
G01X3283966Y-1080770D02*
G01X3348990Y-1080770D01*
G01X3283966Y-1080770D02*
G01X3283966Y-1040638D01*
G01X3314954Y-1080770D02*
G01X3314954Y-1056132D01*
G01X3348990Y-1080770D02*
G01X3348990Y-1040638D01*
G01X3283966Y-1010412D02*
G01X3348990Y-1010412D01*
G01X3283966Y-1010412D02*
G01X3283966Y-988822D01*
G01X3287014Y-979678D01*
G01X3293110Y-973328D01*
G01X3299460Y-970280D01*
G01X3308604Y-967232D01*
G01X3324098Y-967232D01*
G01X3333496Y-970280D01*
G01X3339592Y-973328D01*
G01X3345942Y-979678D01*
G01X3348990Y-988822D01*
G01X3348990Y-1010412D01*
G01X3283966Y-906272D02*
G01X3327146Y-937006D01*
G01X3327146Y-890778D01*
G01X3283966Y-906272D02*
G01X3348990Y-906272D01*
G01X3283966Y-854456D02*
G01X3283966Y-820420D01*
G01X3308604Y-838962D01*
G01X3308604Y-829818D01*
G01X3311652Y-823468D01*
G01X3314954Y-820420D01*
G01X3324098Y-817372D01*
G01X3330448Y-817372D01*
G01X3339592Y-820420D01*
G01X3345942Y-826516D01*
G01X3348990Y-835914D01*
G01X3348990Y-845312D01*
G01X3345942Y-854456D01*
G01X3342640Y-857504D01*
G01X3336544Y-860552D01*
G01X3296666Y-436880D02*
G01X3361690Y-436880D01*
G01X3361690Y-436880D02*
G01X3361690Y-399796D01*
G01X3296666Y-369570D02*
G01X3361690Y-369570D01*
G01X3296666Y-369570D02*
G01X3296666Y-329438D01*
G01X3327654Y-369570D02*
G01X3327654Y-344932D01*
G01X3361690Y-369570D02*
G01X3361690Y-329438D01*
G01X3296666Y-299212D02*
G01X3361690Y-299212D01*
G01X3296666Y-299212D02*
G01X3296666Y-277622D01*
G01X3299714Y-268478D01*
G01X3305810Y-262128D01*
G01X3312160Y-259080D01*
G01X3321304Y-256032D01*
G01X3336798Y-256032D01*
G01X3346196Y-259080D01*
G01X3352292Y-262128D01*
G01X3358642Y-268478D01*
G01X3361690Y-277622D01*
G01X3361690Y-299212D01*
G01X3296666Y-195072D02*
G01X3339846Y-225806D01*
G01X3339846Y-179578D01*
G01X3296666Y-195072D02*
G01X3361690Y-195072D01*
G01X3296666Y-118618D02*
G01X3339846Y-149352D01*
G01X3339846Y-103124D01*
G01X3296666Y-118618D02*
G01X3361690Y-118618D01*
G04 Text End*

G04 PolygonModel Start*
G01X-645140Y3611321D02*
G01X-645140Y3707209D01*
G01X-645140Y3707209D02*
G01X-777260Y3707209D01*
G01X-777260Y3707209D02*
G01X-777260Y3611321D01*
G01X-645140Y3526079D02*
G01X-645140Y3430191D01*
G01X-645140Y3430191D02*
G01X-777260Y3430191D01*
G01X-777260Y3430191D02*
G01X-777260Y3526079D01*
G01X777260Y3611321D02*
G01X777260Y3707209D01*
G01X777260Y3707209D02*
G01X645140Y3707209D01*
G01X645140Y3707209D02*
G01X645140Y3611321D01*
G01X777260Y3526079D02*
G01X777260Y3430191D01*
G01X777260Y3430191D02*
G01X645140Y3430191D01*
G01X645140Y3430191D02*
G01X645140Y3526079D01*
G54D11*
G01X3617114Y472258D02*
G01X3602115Y472258D01*
G01X3602115Y472258D02*
G01X3602115Y612255D01*
G01X3602115Y612255D02*
G01X3602115Y617254D01*
G01X3602115Y617254D02*
G01X3617114Y617254D01*
G01X3617114Y472258D02*
G01X3617114Y617257D01*
G54D12*
G01X3722115Y432256D02*
G01X3722115Y433439D01*
G54D11*
G01X3492115Y437254D02*
G01X3692115Y437254D01*
G01X3692115Y657254D02*
G01X3492115Y657254D01*
G01X3517499Y1220404D02*
G01X3502500Y1220404D01*
G01X3502500Y1220404D02*
G01X3502500Y1360401D01*
G01X3502500Y1360401D02*
G01X3502500Y1365400D01*
G01X3502500Y1365400D02*
G01X3517499Y1365400D01*
G01X3517499Y1220404D02*
G01X3517499Y1365402D01*
G54D12*
G01X3622500Y1180402D02*
G01X3622500Y1181585D01*
G54D11*
G01X3392500Y1185400D02*
G01X3592500Y1185400D01*
G01X3592500Y1405400D02*
G01X3392500Y1405400D01*
G01X3492099Y1893504D02*
G01X3477100Y1893504D01*
G01X3477100Y1893504D02*
G01X3477100Y2033501D01*
G01X3477100Y2033501D02*
G01X3477100Y2038500D01*
G01X3477100Y2038500D02*
G01X3492099Y2038500D01*
G01X3492099Y1893504D02*
G01X3492099Y2038502D01*
G54D12*
G01X3597100Y1853502D02*
G01X3597100Y1854685D01*
G54D11*
G01X3367100Y1858500D02*
G01X3567100Y1858500D01*
G01X3567100Y2078500D02*
G01X3367100Y2078500D01*
G01X3352399Y2719004D02*
G01X3337400Y2719004D01*
G01X3337400Y2719004D02*
G01X3337400Y2859001D01*
G01X3337400Y2859001D02*
G01X3337400Y2864000D01*
G01X3337400Y2864000D02*
G01X3352399Y2864000D01*
G01X3352399Y2719004D02*
G01X3352399Y2864002D01*
G54D12*
G01X3457400Y2679002D02*
G01X3457400Y2680185D01*
G54D11*
G01X3227400Y2684000D02*
G01X3427400Y2684000D01*
G01X3427400Y2904000D02*
G01X3227400Y2904000D01*
G01X3149199Y3392104D02*
G01X3134200Y3392104D01*
G01X3134200Y3392104D02*
G01X3134200Y3532101D01*
G01X3134200Y3532101D02*
G01X3134200Y3537100D01*
G01X3134200Y3537100D02*
G01X3149199Y3537100D01*
G01X3149199Y3392104D02*
G01X3149199Y3537102D01*
G54D12*
G01X3254200Y3352102D02*
G01X3254200Y3353285D01*
G54D11*
G01X3024200Y3357100D02*
G01X3224200Y3357100D01*
G01X3224200Y3577100D02*
G01X3024200Y3577100D01*
G01X2539599Y4027104D02*
G01X2524600Y4027104D01*
G01X2524600Y4027104D02*
G01X2524600Y4167101D01*
G01X2524600Y4167101D02*
G01X2524600Y4172100D01*
G01X2524600Y4172100D02*
G01X2539599Y4172100D01*
G01X2539599Y4027104D02*
G01X2539599Y4172102D01*
G54D12*
G01X2644600Y3987102D02*
G01X2644600Y3988285D01*
G54D11*
G01X2414600Y3992100D02*
G01X2614600Y3992100D01*
G01X2614600Y4212100D02*
G01X2414600Y4212100D01*
G01X1650599Y4052504D02*
G01X1635600Y4052504D01*
G01X1635600Y4052504D02*
G01X1635600Y4192501D01*
G01X1635600Y4192501D02*
G01X1635600Y4197500D01*
G01X1635600Y4197500D02*
G01X1650599Y4197500D01*
G01X1650599Y4052504D02*
G01X1650599Y4197502D01*
G54D12*
G01X1755600Y4012502D02*
G01X1755600Y4013685D01*
G54D11*
G01X1525600Y4017500D02*
G01X1725600Y4017500D01*
G01X1725600Y4237500D02*
G01X1525600Y4237500D01*
G01X828835Y4053658D02*
G01X813836Y4053658D01*
G01X813836Y4053658D02*
G01X813836Y4193655D01*
G01X813836Y4193655D02*
G01X813836Y4198654D01*
G01X813836Y4198654D02*
G01X828835Y4198654D01*
G01X828835Y4053658D02*
G01X828835Y4198657D01*
G54D12*
G01X933836Y4013656D02*
G01X933836Y4014839D01*
G54D11*
G01X703837Y4018654D02*
G01X903836Y4018654D01*
G01X903836Y4238654D02*
G01X703837Y4238654D01*
G01X12299Y4052504D02*
G01X-2700Y4052504D01*
G01X-2700Y4052504D02*
G01X-2700Y4192501D01*
G01X-2700Y4192501D02*
G01X-2700Y4197500D01*
G01X-2700Y4197500D02*
G01X12299Y4197500D01*
G01X12299Y4052504D02*
G01X12299Y4197502D01*
G54D12*
G01X117300Y4012502D02*
G01X117300Y4013685D01*
G54D11*
G01X-112700Y4017500D02*
G01X87300Y4017500D01*
G01X87300Y4237500D02*
G01X-112700Y4237500D01*
G01X-800501Y4052504D02*
G01X-815500Y4052504D01*
G01X-815500Y4052504D02*
G01X-815500Y4192501D01*
G01X-815500Y4192501D02*
G01X-815500Y4197500D01*
G01X-815500Y4197500D02*
G01X-800501Y4197500D01*
G01X-800501Y4052504D02*
G01X-800501Y4197502D01*
G54D12*
G01X-695500Y4012502D02*
G01X-695500Y4013685D01*
G54D11*
G01X-925500Y4017500D02*
G01X-725500Y4017500D01*
G01X-725500Y4237500D02*
G01X-925500Y4237500D01*
G01X-1626001Y4052504D02*
G01X-1641000Y4052504D01*
G01X-1641000Y4052504D02*
G01X-1641000Y4192501D01*
G01X-1641000Y4192501D02*
G01X-1641000Y4197500D01*
G01X-1641000Y4197500D02*
G01X-1626001Y4197500D01*
G01X-1626001Y4052504D02*
G01X-1626001Y4197502D01*
G54D12*
G01X-1521000Y4012502D02*
G01X-1521000Y4013685D01*
G54D11*
G01X-1751000Y4017500D02*
G01X-1551000Y4017500D01*
G01X-1551000Y4237500D02*
G01X-1751000Y4237500D01*
G01X-2376104Y4139799D02*
G01X-2376104Y4124800D01*
G01X-2376104Y4124800D02*
G01X-2516101Y4124800D01*
G01X-2516101Y4124800D02*
G01X-2521100Y4124800D01*
G01X-2521100Y4124800D02*
G01X-2521100Y4139799D01*
G01X-2376104Y4139799D02*
G01X-2521102Y4139799D01*
G54D12*
G01X-2336101Y4244800D02*
G01X-2337285Y4244800D01*
G54D11*
G01X-2341100Y4014800D02*
G01X-2341100Y4214800D01*
G01X-2561100Y4214800D02*
G01X-2561100Y4014800D01*
G01X-3072999Y3592896D02*
G01X-3058000Y3592896D01*
G01X-3058000Y3592896D02*
G01X-3058000Y3452899D01*
G01X-3058000Y3452899D02*
G01X-3058000Y3447900D01*
G01X-3058000Y3447900D02*
G01X-3072999Y3447900D01*
G01X-3072999Y3592896D02*
G01X-3072999Y3447898D01*
G54D12*
G01X-3178000Y3632899D02*
G01X-3178000Y3631715D01*
G54D11*
G01X-2948000Y3627900D02*
G01X-3148000Y3627900D01*
G01X-3148000Y3407900D02*
G01X-2948000Y3407900D01*
G01X-3314299Y2881696D02*
G01X-3299300Y2881696D01*
G01X-3299300Y2881696D02*
G01X-3299300Y2741699D01*
G01X-3299300Y2741699D02*
G01X-3299300Y2736700D01*
G01X-3299300Y2736700D02*
G01X-3314299Y2736700D01*
G01X-3314299Y2881696D02*
G01X-3314299Y2736698D01*
G54D12*
G01X-3419300Y2921699D02*
G01X-3419300Y2920515D01*
G54D11*
G01X-3189300Y2916700D02*
G01X-3389300Y2916700D01*
G01X-3389300Y2696700D02*
G01X-3189300Y2696700D01*
G01X-3453999Y2145096D02*
G01X-3439000Y2145096D01*
G01X-3439000Y2145096D02*
G01X-3439000Y2005099D01*
G01X-3439000Y2005099D02*
G01X-3439000Y2000100D01*
G01X-3439000Y2000100D02*
G01X-3453999Y2000100D01*
G01X-3453999Y2145096D02*
G01X-3453999Y2000098D01*
G54D12*
G01X-3559000Y2185099D02*
G01X-3559000Y2183915D01*
G54D11*
G01X-3329000Y2180100D02*
G01X-3529000Y2180100D01*
G01X-3529000Y1960100D02*
G01X-3329000Y1960100D01*
G01X-3517499Y1395796D02*
G01X-3502500Y1395796D01*
G01X-3502500Y1395796D02*
G01X-3502500Y1255799D01*
G01X-3502500Y1255799D02*
G01X-3502500Y1250800D01*
G01X-3502500Y1250800D02*
G01X-3517499Y1250800D01*
G01X-3517499Y1395796D02*
G01X-3517499Y1250798D01*
G54D12*
G01X-3622500Y1435799D02*
G01X-3622500Y1434615D01*
G54D11*
G01X-3392500Y1430800D02*
G01X-3592500Y1430800D01*
G01X-3592500Y1210800D02*
G01X-3392500Y1210800D01*
G01X-3568299Y621096D02*
G01X-3553300Y621096D01*
G01X-3553300Y621096D02*
G01X-3553300Y481099D01*
G01X-3553300Y481099D02*
G01X-3553300Y476100D01*
G01X-3553300Y476100D02*
G01X-3568299Y476100D01*
G01X-3568299Y621096D02*
G01X-3568299Y476098D01*
G54D12*
G01X-3673300Y661099D02*
G01X-3673300Y659915D01*
G54D11*
G01X-3443300Y656100D02*
G01X-3643300Y656100D01*
G01X-3643300Y436100D02*
G01X-3443300Y436100D01*
G01X-3580999Y-153604D02*
G01X-3566000Y-153604D01*
G01X-3566000Y-153604D02*
G01X-3566000Y-293601D01*
G01X-3566000Y-293601D02*
G01X-3566000Y-298600D01*
G01X-3566000Y-298600D02*
G01X-3580999Y-298600D01*
G01X-3580999Y-153604D02*
G01X-3580999Y-298602D01*
G54D12*
G01X-3686000Y-113601D02*
G01X-3686000Y-114785D01*
G54D11*
G01X-3456000Y-118600D02*
G01X-3656000Y-118600D01*
G01X-3656000Y-338600D02*
G01X-3456000Y-338600D01*
G01X-3619099Y-915604D02*
G01X-3604100Y-915604D01*
G01X-3604100Y-915604D02*
G01X-3604100Y-1055601D01*
G01X-3604100Y-1055601D02*
G01X-3604100Y-1060600D01*
G01X-3604100Y-1060600D02*
G01X-3619099Y-1060600D01*
G01X-3619099Y-915604D02*
G01X-3619099Y-1060602D01*
G54D12*
G01X-3724100Y-875601D02*
G01X-3724100Y-876785D01*
G54D11*
G01X-3494100Y-880600D02*
G01X-3694100Y-880600D01*
G01X-3694100Y-1100600D02*
G01X-3494100Y-1100600D01*
G01X-3631799Y-1703004D02*
G01X-3616800Y-1703004D01*
G01X-3616800Y-1703004D02*
G01X-3616800Y-1843001D01*
G01X-3616800Y-1843001D02*
G01X-3616800Y-1848000D01*
G01X-3616800Y-1848000D02*
G01X-3631799Y-1848000D01*
G01X-3631799Y-1703004D02*
G01X-3631799Y-1848002D01*
G54D12*
G01X-3736800Y-1663001D02*
G01X-3736800Y-1664185D01*
G54D11*
G01X-3506800Y-1668000D02*
G01X-3706800Y-1668000D01*
G01X-3706800Y-1888000D02*
G01X-3506800Y-1888000D01*
G01X-3619099Y-2452304D02*
G01X-3604100Y-2452304D01*
G01X-3604100Y-2452304D02*
G01X-3604100Y-2592301D01*
G01X-3604100Y-2592301D02*
G01X-3604100Y-2597300D01*
G01X-3604100Y-2597300D02*
G01X-3619099Y-2597300D01*
G01X-3619099Y-2452304D02*
G01X-3619099Y-2597302D01*
G54D12*
G01X-3724100Y-2412301D02*
G01X-3724100Y-2413485D01*
G54D11*
G01X-3494100Y-2417300D02*
G01X-3694100Y-2417300D01*
G01X-3694100Y-2637300D02*
G01X-3494100Y-2637300D01*
G01X-3593699Y-3201604D02*
G01X-3578700Y-3201604D01*
G01X-3578700Y-3201604D02*
G01X-3578700Y-3341601D01*
G01X-3578700Y-3341601D02*
G01X-3578700Y-3346600D01*
G01X-3578700Y-3346600D02*
G01X-3593699Y-3346600D01*
G01X-3593699Y-3201604D02*
G01X-3593699Y-3346602D01*
G54D12*
G01X-3698700Y-3161601D02*
G01X-3698700Y-3162785D01*
G54D11*
G01X-3468700Y-3166600D02*
G01X-3668700Y-3166600D01*
G01X-3668700Y-3386600D02*
G01X-3468700Y-3386600D01*
G01X-3530199Y-3735004D02*
G01X-3515200Y-3735004D01*
G01X-3515200Y-3735004D02*
G01X-3515200Y-3875001D01*
G01X-3515200Y-3875001D02*
G01X-3515200Y-3880000D01*
G01X-3515200Y-3880000D02*
G01X-3530199Y-3880000D01*
G01X-3530199Y-3735004D02*
G01X-3530199Y-3880002D01*
G54D12*
G01X-3635200Y-3695001D02*
G01X-3635200Y-3696185D01*
G54D11*
G01X-3405200Y-3700000D02*
G01X-3605200Y-3700000D01*
G01X-3605200Y-3920000D02*
G01X-3405200Y-3920000D01*
G01X-3225399Y-4192204D02*
G01X-3210400Y-4192204D01*
G01X-3210400Y-4192204D02*
G01X-3210400Y-4332201D01*
G01X-3210400Y-4332201D02*
G01X-3210400Y-4337200D01*
G01X-3210400Y-4337200D02*
G01X-3225399Y-4337200D01*
G01X-3225399Y-4192204D02*
G01X-3225399Y-4337202D01*
G54D12*
G01X-3330400Y-4152201D02*
G01X-3330400Y-4153385D01*
G54D11*
G01X-3100400Y-4157200D02*
G01X-3300400Y-4157200D01*
G01X-3300400Y-4377200D02*
G01X-3100400Y-4377200D01*
G01X-2666599Y-4446204D02*
G01X-2651600Y-4446204D01*
G01X-2651600Y-4446204D02*
G01X-2651600Y-4586201D01*
G01X-2651600Y-4586201D02*
G01X-2651600Y-4591200D01*
G01X-2651600Y-4591200D02*
G01X-2666599Y-4591200D01*
G01X-2666599Y-4446204D02*
G01X-2666599Y-4591202D01*
G54D12*
G01X-2771600Y-4406201D02*
G01X-2771600Y-4407385D01*
G54D11*
G01X-2541600Y-4411200D02*
G01X-2741600Y-4411200D01*
G01X-2741600Y-4631200D02*
G01X-2541600Y-4631200D01*
G01X-1904599Y-4535104D02*
G01X-1889600Y-4535104D01*
G01X-1889600Y-4535104D02*
G01X-1889600Y-4675101D01*
G01X-1889600Y-4675101D02*
G01X-1889600Y-4680100D01*
G01X-1889600Y-4680100D02*
G01X-1904599Y-4680100D01*
G01X-1904599Y-4535104D02*
G01X-1904599Y-4680102D01*
G54D12*
G01X-2009600Y-4495101D02*
G01X-2009600Y-4496285D01*
G54D11*
G01X-1779600Y-4500100D02*
G01X-1979600Y-4500100D01*
G01X-1979600Y-4720100D02*
G01X-1779600Y-4720100D01*
G01X-1155299Y-4573204D02*
G01X-1140300Y-4573204D01*
G01X-1140300Y-4573204D02*
G01X-1140300Y-4713201D01*
G01X-1140300Y-4713201D02*
G01X-1140300Y-4718200D01*
G01X-1140300Y-4718200D02*
G01X-1155299Y-4718200D01*
G01X-1155299Y-4573204D02*
G01X-1155299Y-4718202D01*
G54D12*
G01X-1260300Y-4533201D02*
G01X-1260300Y-4534385D01*
G54D11*
G01X-1030300Y-4538200D02*
G01X-1230300Y-4538200D01*
G01X-1230300Y-4758200D02*
G01X-1030300Y-4758200D01*
G01X-367899Y-4560504D02*
G01X-352900Y-4560504D01*
G01X-352900Y-4560504D02*
G01X-352900Y-4700501D01*
G01X-352900Y-4700501D02*
G01X-352900Y-4705500D01*
G01X-352900Y-4705500D02*
G01X-367899Y-4705500D01*
G01X-367899Y-4560504D02*
G01X-367899Y-4705502D01*
G54D12*
G01X-472900Y-4520501D02*
G01X-472900Y-4521685D01*
G54D11*
G01X-242900Y-4525500D02*
G01X-442900Y-4525500D01*
G01X-442900Y-4745500D02*
G01X-242900Y-4745500D01*
G01X317901Y-4560504D02*
G01X332900Y-4560504D01*
G01X332900Y-4560504D02*
G01X332900Y-4700501D01*
G01X332900Y-4700501D02*
G01X332900Y-4705500D01*
G01X332900Y-4705500D02*
G01X317901Y-4705500D01*
G01X317901Y-4560504D02*
G01X317901Y-4705502D01*
G54D12*
G01X212900Y-4520501D02*
G01X212900Y-4521685D01*
G54D11*
G01X442900Y-4525500D02*
G01X242900Y-4525500D01*
G01X242900Y-4745500D02*
G01X442900Y-4745500D01*
G01X1092601Y-4560504D02*
G01X1107600Y-4560504D01*
G01X1107600Y-4560504D02*
G01X1107600Y-4700501D01*
G01X1107600Y-4700501D02*
G01X1107600Y-4705500D01*
G01X1107600Y-4705500D02*
G01X1092601Y-4705500D01*
G01X1092601Y-4560504D02*
G01X1092601Y-4705502D01*
G54D12*
G01X987600Y-4520501D02*
G01X987600Y-4521685D01*
G54D11*
G01X1217600Y-4525500D02*
G01X1017600Y-4525500D01*
G01X1017600Y-4745500D02*
G01X1217600Y-4745500D01*
G01X1791904Y-4647799D02*
G01X1791904Y-4632800D01*
G01X1791904Y-4632800D02*
G01X1931901Y-4632800D01*
G01X1931901Y-4632800D02*
G01X1936900Y-4632800D01*
G01X1936900Y-4632800D02*
G01X1936900Y-4647799D01*
G01X1791904Y-4647799D02*
G01X1936902Y-4647799D01*
G54D12*
G01X1751902Y-4752800D02*
G01X1753085Y-4752800D01*
G54D11*
G01X1756900Y-4522800D02*
G01X1756900Y-4722800D01*
G01X1976900Y-4722800D02*
G01X1976900Y-4522800D01*
G01X2541204Y-4546199D02*
G01X2541204Y-4531200D01*
G01X2541204Y-4531200D02*
G01X2681201Y-4531200D01*
G01X2681201Y-4531200D02*
G01X2686200Y-4531200D01*
G01X2686200Y-4531200D02*
G01X2686200Y-4546199D01*
G01X2541204Y-4546199D02*
G01X2686202Y-4546199D01*
G54D12*
G01X2501202Y-4651200D02*
G01X2502385Y-4651200D01*
G54D11*
G01X2506200Y-4421200D02*
G01X2506200Y-4621200D01*
G01X2726200Y-4621200D02*
G01X2726200Y-4421200D01*
G01X3188101Y-4204904D02*
G01X3203100Y-4204904D01*
G01X3203100Y-4204904D02*
G01X3203100Y-4344901D01*
G01X3203100Y-4344901D02*
G01X3203100Y-4349900D01*
G01X3203100Y-4349900D02*
G01X3188101Y-4349900D01*
G01X3188101Y-4204904D02*
G01X3188101Y-4349902D01*
G54D12*
G01X3083100Y-4164901D02*
G01X3083100Y-4166085D01*
G54D11*
G01X3313100Y-4169900D02*
G01X3113100Y-4169900D01*
G01X3113100Y-4389900D02*
G01X3313100Y-4389900D01*
G01X3568299Y-3910396D02*
G01X3553300Y-3910396D01*
G01X3553300Y-3910396D02*
G01X3553300Y-3770399D01*
G01X3553300Y-3770399D02*
G01X3553300Y-3765400D01*
G01X3553300Y-3765400D02*
G01X3568299Y-3765400D01*
G01X3568299Y-3910396D02*
G01X3568299Y-3765398D01*
G54D12*
G01X3673300Y-3950398D02*
G01X3673300Y-3949215D01*
G54D11*
G01X3443300Y-3945400D02*
G01X3643300Y-3945400D01*
G01X3643300Y-3725400D02*
G01X3443300Y-3725400D01*
G01X3644499Y-3376996D02*
G01X3629500Y-3376996D01*
G01X3629500Y-3376996D02*
G01X3629500Y-3236999D01*
G01X3629500Y-3236999D02*
G01X3629500Y-3232000D01*
G01X3629500Y-3232000D02*
G01X3644499Y-3232000D01*
G01X3644499Y-3376996D02*
G01X3644499Y-3231998D01*
G54D12*
G01X3749500Y-3416998D02*
G01X3749500Y-3415815D01*
G54D11*
G01X3519500Y-3412000D02*
G01X3719500Y-3412000D01*
G01X3719500Y-3192000D02*
G01X3519500Y-3192000D01*
G01X3644499Y-2602296D02*
G01X3629500Y-2602296D01*
G01X3629500Y-2602296D02*
G01X3629500Y-2462299D01*
G01X3629500Y-2462299D02*
G01X3629500Y-2457300D01*
G01X3629500Y-2457300D02*
G01X3644499Y-2457300D01*
G01X3644499Y-2602296D02*
G01X3644499Y-2457298D01*
G54D12*
G01X3749500Y-2642298D02*
G01X3749500Y-2641115D01*
G54D11*
G01X3519500Y-2637300D02*
G01X3719500Y-2637300D01*
G01X3719500Y-2417300D02*
G01X3519500Y-2417300D01*
G01X3544504Y-1790299D02*
G01X3544504Y-1775300D01*
G01X3544504Y-1775300D02*
G01X3684501Y-1775300D01*
G01X3684501Y-1775300D02*
G01X3689500Y-1775300D01*
G01X3689500Y-1775300D02*
G01X3689500Y-1790299D01*
G01X3544504Y-1790299D02*
G01X3689502Y-1790299D01*
G54D12*
G01X3504502Y-1895300D02*
G01X3505685Y-1895300D01*
G54D11*
G01X3509500Y-1665300D02*
G01X3509500Y-1865300D01*
G01X3729500Y-1865300D02*
G01X3729500Y-1665300D01*
G01X3631799Y-1065596D02*
G01X3616800Y-1065596D01*
G01X3616800Y-1065596D02*
G01X3616800Y-925599D01*
G01X3616800Y-925599D02*
G01X3616800Y-920600D01*
G01X3616800Y-920600D02*
G01X3631799Y-920600D01*
G01X3631799Y-1065596D02*
G01X3631799Y-920598D01*
G54D12*
G01X3736800Y-1105598D02*
G01X3736800Y-1104415D01*
G54D11*
G01X3506800Y-1100600D02*
G01X3706800Y-1100600D01*
G01X3706800Y-880600D02*
G01X3506800Y-880600D01*
G01X3506404Y-240899D02*
G01X3506404Y-225900D01*
G01X3506404Y-225900D02*
G01X3646401Y-225900D01*
G01X3646401Y-225900D02*
G01X3651400Y-225900D01*
G01X3651400Y-225900D02*
G01X3651400Y-240899D01*
G01X3506404Y-240899D02*
G01X3651402Y-240899D01*
G54D12*
G01X3466402Y-345900D02*
G01X3467585Y-345900D01*
G54D11*
G01X3471400Y-115900D02*
G01X3471400Y-315900D01*
G01X3691400Y-315900D02*
G01X3691400Y-115900D01*

M02*

