G04 Layer: BottomPasteMaskLayer*
G04 EasyEDA Pro v3.2.135, 2026-06-15 15:01:53*
G04 Gerber Generator version 0.3*
G04 Scale: 100 percent, Rotated: No, Reflected: No*
G04 Dimensions in millimeters*
G04 Leading zeros omitted, absolute positions, 4 integers and 5 decimals*
G04 Generated by one-click*
G04 Object Configs: Pad,Via,Track,Text,Image,Dimension,BoardOutline,BoardCutout,CopperFilled,SolidRegion,FPCStiffener,Line,PlaneZone,ComponentProperty,ComponentSilkscreen,TearDrop*
G04 Layer Configs: 1,2,3,4,5,6,7,8,9,10,11,13,14,56*
G04 Copper Areas: 0*
%FSLAX45Y45*%
%MOMM*%
%ADD10C,0.254*%
%ADD11C,0.3708*%
G75*


G04 PolygonModel Start*
G36*
G01X234993Y3708029D02*
G01X234993Y3868029D01*
G01X314993Y3868029D01*
G01X314993Y3708029D01*
G01X234993Y3708029D01*
G37*
G36*
G01X85001Y3868031D02*
G01X85001Y3708032D01*
G01X15001Y3708032D01*
G01X15001Y3868031D01*
G01X85001Y3868031D01*
G37*
G36*
G01X114008Y3708032D02*
G01X114008Y3868031D01*
G01X190007Y3868031D01*
G01X190007Y3708032D01*
G01X114008Y3708032D01*
G37*
G36*
G01X-84999Y3708032D02*
G01X-84999Y3868031D01*
G01X-14999Y3868031D01*
G01X-14999Y3708032D01*
G01X-84999Y3708032D01*
G37*
G36*
G01X-234993Y3868031D02*
G01X-234993Y3708032D01*
G01X-314993Y3708032D01*
G01X-314993Y3868031D01*
G01X-234993Y3868031D01*
G37*
G36*
G01X-114005Y3868031D02*
G01X-114005Y3708032D01*
G01X-190005Y3708032D01*
G01X-190005Y3868031D01*
G01X-114005Y3868031D01*
G37*
G36*
G01X-433238Y3747966D02*
G01X-435727Y3748090D01*
G01X-438208Y3748339D01*
G01X-440672Y3748710D01*
G01X-443116Y3749205D01*
G01X-445531Y3749820D01*
G01X-447914Y3750554D01*
G01X-450258Y3751407D01*
G01X-452554Y3752375D01*
G01X-454802Y3753457D01*
G01X-456989Y3754648D01*
G01X-459118Y3755949D01*
G01X-461178Y3757353D01*
G01X-463164Y3758860D01*
G01X-465074Y3760462D01*
G01X-466903Y3762157D01*
G01X-468643Y3763942D01*
G01X-470294Y3765812D01*
G01X-471848Y3767760D01*
G01X-473304Y3769784D01*
G01X-474655Y3771880D01*
G01X-475902Y3774039D01*
G01X-477040Y3776256D01*
G01X-478064Y3778529D01*
G01X-478975Y3780848D01*
G01X-479768Y3783213D01*
G01X-480444Y3785613D01*
G01X-481000Y3788042D01*
G01X-481432Y3790498D01*
G01X-481741Y3792972D01*
G01X-481929Y3795459D01*
G01X-481990Y3797950D01*
G01X-481990Y3867950D01*
G01X-481929Y3870442D01*
G01X-481741Y3872929D01*
G01X-481432Y3875402D01*
G01X-481000Y3877859D01*
G01X-480444Y3880287D01*
G01X-479768Y3882687D01*
G01X-478975Y3885052D01*
G01X-478064Y3887371D01*
G01X-477040Y3889644D01*
G01X-475902Y3891862D01*
G01X-474655Y3894021D01*
G01X-473304Y3896116D01*
G01X-471848Y3898141D01*
G01X-470294Y3900089D01*
G01X-468643Y3901958D01*
G01X-466903Y3903744D01*
G01X-465074Y3905438D01*
G01X-463164Y3907041D01*
G01X-461178Y3908547D01*
G01X-459118Y3909952D01*
G01X-456989Y3911252D01*
G01X-454802Y3912443D01*
G01X-452554Y3913525D01*
G01X-450258Y3914493D01*
G01X-447914Y3915347D01*
G01X-445531Y3916081D01*
G01X-443116Y3916695D01*
G01X-440672Y3917191D01*
G01X-438208Y3917561D01*
G01X-435727Y3917810D01*
G01X-433238Y3917935D01*
G01X-430743Y3917935D01*
G01X-428254Y3917810D01*
G01X-425773Y3917561D01*
G01X-423309Y3917191D01*
G01X-420865Y3916695D01*
G01X-418450Y3916081D01*
G01X-416067Y3915347D01*
G01X-413723Y3914493D01*
G01X-411427Y3913525D01*
G01X-409179Y3912443D01*
G01X-406989Y3911252D01*
G01X-404863Y3909952D01*
G01X-402803Y3908547D01*
G01X-400817Y3907041D01*
G01X-398907Y3905438D01*
G01X-397078Y3903744D01*
G01X-395338Y3901958D01*
G01X-393687Y3900089D01*
G01X-392133Y3898141D01*
G01X-390677Y3896116D01*
G01X-389326Y3894021D01*
G01X-388079Y3891862D01*
G01X-386941Y3889644D01*
G01X-385917Y3887371D01*
G01X-385006Y3885052D01*
G01X-384213Y3882687D01*
G01X-383537Y3880287D01*
G01X-382981Y3877859D01*
G01X-382549Y3875402D01*
G01X-382240Y3872929D01*
G01X-382052Y3870442D01*
G01X-381991Y3867950D01*
G01X-381991Y3797950D01*
G01X-382052Y3795459D01*
G01X-382240Y3792972D01*
G01X-382549Y3790498D01*
G01X-382981Y3788042D01*
G01X-383537Y3785613D01*
G01X-384213Y3783213D01*
G01X-385006Y3780848D01*
G01X-385917Y3778529D01*
G01X-386941Y3776256D01*
G01X-388079Y3774039D01*
G01X-389326Y3771880D01*
G01X-390677Y3769784D01*
G01X-392133Y3767760D01*
G01X-393687Y3765812D01*
G01X-395338Y3763942D01*
G01X-397078Y3762157D01*
G01X-398907Y3760462D01*
G01X-400817Y3758860D01*
G01X-402803Y3757353D01*
G01X-404863Y3755949D01*
G01X-406989Y3754648D01*
G01X-409179Y3753457D01*
G01X-411427Y3752375D01*
G01X-413723Y3751407D01*
G01X-416067Y3750554D01*
G01X-418450Y3749820D01*
G01X-420865Y3749205D01*
G01X-423309Y3748710D01*
G01X-425773Y3748339D01*
G01X-428254Y3748090D01*
G01X-430743Y3747966D01*
G01X-433238Y3747966D01*
G37*
G36*
G01X430743Y3747966D02*
G01X428254Y3748090D01*
G01X425773Y3748339D01*
G01X423309Y3748710D01*
G01X420865Y3749205D01*
G01X418450Y3749820D01*
G01X416067Y3750554D01*
G01X413723Y3751407D01*
G01X411427Y3752375D01*
G01X409179Y3753457D01*
G01X406992Y3754648D01*
G01X404863Y3755949D01*
G01X402803Y3757353D01*
G01X400817Y3758860D01*
G01X398907Y3760462D01*
G01X397078Y3762157D01*
G01X395338Y3763942D01*
G01X393687Y3765812D01*
G01X392133Y3767760D01*
G01X390677Y3769784D01*
G01X389326Y3771880D01*
G01X388079Y3774039D01*
G01X386941Y3776256D01*
G01X385917Y3778529D01*
G01X385006Y3780848D01*
G01X384213Y3783213D01*
G01X383537Y3785613D01*
G01X382981Y3788042D01*
G01X382549Y3790498D01*
G01X382240Y3792972D01*
G01X382052Y3795459D01*
G01X381991Y3797950D01*
G01X381991Y3867950D01*
G01X382052Y3870442D01*
G01X382240Y3872929D01*
G01X382549Y3875402D01*
G01X382981Y3877859D01*
G01X383537Y3880287D01*
G01X384213Y3882687D01*
G01X385006Y3885052D01*
G01X385917Y3887371D01*
G01X386941Y3889644D01*
G01X388079Y3891862D01*
G01X389326Y3894021D01*
G01X390677Y3896116D01*
G01X392133Y3898141D01*
G01X393687Y3900089D01*
G01X395338Y3901958D01*
G01X397078Y3903744D01*
G01X398907Y3905438D01*
G01X400817Y3907041D01*
G01X402803Y3908547D01*
G01X404863Y3909952D01*
G01X406992Y3911252D01*
G01X409179Y3912443D01*
G01X411427Y3913525D01*
G01X413723Y3914493D01*
G01X416067Y3915347D01*
G01X418450Y3916081D01*
G01X420865Y3916695D01*
G01X423309Y3917191D01*
G01X425773Y3917561D01*
G01X428254Y3917810D01*
G01X430743Y3917935D01*
G01X433238Y3917935D01*
G01X435727Y3917810D01*
G01X438208Y3917561D01*
G01X440672Y3917191D01*
G01X443116Y3916695D01*
G01X445531Y3916081D01*
G01X447914Y3915347D01*
G01X450258Y3914493D01*
G01X452554Y3913525D01*
G01X454802Y3912443D01*
G01X456992Y3911252D01*
G01X459118Y3909952D01*
G01X461178Y3908547D01*
G01X463164Y3907041D01*
G01X465074Y3905438D01*
G01X466903Y3903744D01*
G01X468643Y3901958D01*
G01X470294Y3900089D01*
G01X471848Y3898141D01*
G01X473304Y3896116D01*
G01X474655Y3894021D01*
G01X475902Y3891862D01*
G01X477040Y3889644D01*
G01X478064Y3887371D01*
G01X478975Y3885052D01*
G01X479768Y3882687D01*
G01X480444Y3880287D01*
G01X481000Y3877859D01*
G01X481432Y3875402D01*
G01X481741Y3872929D01*
G01X481929Y3870442D01*
G01X481990Y3867950D01*
G01X481990Y3797950D01*
G01X481929Y3795459D01*
G01X481741Y3792972D01*
G01X481432Y3790498D01*
G01X481000Y3788042D01*
G01X480444Y3785613D01*
G01X479768Y3783213D01*
G01X478975Y3780848D01*
G01X478064Y3778529D01*
G01X477040Y3776256D01*
G01X475902Y3774039D01*
G01X474655Y3771880D01*
G01X473304Y3769784D01*
G01X471848Y3767760D01*
G01X470294Y3765812D01*
G01X468643Y3763942D01*
G01X466903Y3762157D01*
G01X465074Y3760462D01*
G01X463164Y3758860D01*
G01X461178Y3757353D01*
G01X459118Y3755949D01*
G01X456992Y3754648D01*
G01X454802Y3753457D01*
G01X452554Y3752375D01*
G01X450258Y3751407D01*
G01X447914Y3750554D01*
G01X445531Y3749820D01*
G01X443116Y3749205D01*
G01X440672Y3748710D01*
G01X438208Y3748339D01*
G01X435727Y3748090D01*
G01X433238Y3747966D01*
G01X430743Y3747966D01*
G37*
G36*
G01X-433238Y4127975D02*
G01X-435727Y4128099D01*
G01X-438208Y4128348D01*
G01X-440672Y4128719D01*
G01X-443116Y4129215D01*
G01X-445531Y4129829D01*
G01X-447914Y4130563D01*
G01X-450258Y4131417D01*
G01X-452554Y4132384D01*
G01X-454802Y4133466D01*
G01X-456989Y4134658D01*
G01X-459118Y4135958D01*
G01X-461178Y4137363D01*
G01X-463164Y4138869D01*
G01X-465074Y4140472D01*
G01X-466903Y4142166D01*
G01X-468643Y4143952D01*
G01X-470294Y4145821D01*
G01X-471848Y4147769D01*
G01X-473304Y4149794D01*
G01X-474655Y4151889D01*
G01X-475902Y4154048D01*
G01X-477040Y4156266D01*
G01X-478064Y4158539D01*
G01X-478975Y4160858D01*
G01X-479768Y4163223D01*
G01X-480444Y4165623D01*
G01X-481000Y4168051D01*
G01X-481432Y4170507D01*
G01X-481741Y4172981D01*
G01X-481929Y4175468D01*
G01X-481990Y4177960D01*
G01X-481990Y4247960D01*
G01X-481929Y4250451D01*
G01X-481741Y4252938D01*
G01X-481432Y4255412D01*
G01X-481000Y4257868D01*
G01X-480444Y4260296D01*
G01X-479768Y4262697D01*
G01X-478975Y4265061D01*
G01X-478064Y4267380D01*
G01X-477040Y4269654D01*
G01X-475902Y4271871D01*
G01X-474655Y4274030D01*
G01X-473304Y4276126D01*
G01X-471848Y4278150D01*
G01X-470294Y4280098D01*
G01X-468643Y4281968D01*
G01X-466903Y4283753D01*
G01X-465074Y4285447D01*
G01X-463164Y4287050D01*
G01X-461178Y4288556D01*
G01X-459118Y4289961D01*
G01X-456989Y4291261D01*
G01X-454802Y4292453D01*
G01X-452554Y4293535D01*
G01X-450258Y4294502D01*
G01X-447914Y4295356D01*
G01X-445531Y4296090D01*
G01X-443116Y4296705D01*
G01X-440672Y4297200D01*
G01X-438208Y4297571D01*
G01X-435727Y4297820D01*
G01X-433238Y4297944D01*
G01X-430743Y4297944D01*
G01X-428254Y4297820D01*
G01X-425773Y4297571D01*
G01X-423309Y4297200D01*
G01X-420865Y4296705D01*
G01X-418450Y4296090D01*
G01X-416067Y4295356D01*
G01X-413723Y4294502D01*
G01X-411427Y4293535D01*
G01X-409179Y4292453D01*
G01X-406989Y4291261D01*
G01X-404863Y4289961D01*
G01X-402803Y4288556D01*
G01X-400817Y4287050D01*
G01X-398907Y4285447D01*
G01X-397078Y4283753D01*
G01X-395338Y4281968D01*
G01X-393687Y4280098D01*
G01X-392133Y4278150D01*
G01X-390677Y4276126D01*
G01X-389326Y4274030D01*
G01X-388079Y4271871D01*
G01X-386941Y4269654D01*
G01X-385917Y4267380D01*
G01X-385006Y4265061D01*
G01X-384213Y4262697D01*
G01X-383537Y4260296D01*
G01X-382981Y4257868D01*
G01X-382549Y4255412D01*
G01X-382240Y4252938D01*
G01X-382052Y4250451D01*
G01X-381991Y4247960D01*
G01X-381991Y4177960D01*
G01X-382052Y4175468D01*
G01X-382240Y4172981D01*
G01X-382549Y4170507D01*
G01X-382981Y4168051D01*
G01X-383537Y4165623D01*
G01X-384213Y4163223D01*
G01X-385006Y4160858D01*
G01X-385917Y4158539D01*
G01X-386941Y4156266D01*
G01X-388079Y4154048D01*
G01X-389326Y4151889D01*
G01X-390677Y4149794D01*
G01X-392133Y4147769D01*
G01X-393687Y4145821D01*
G01X-395338Y4143952D01*
G01X-397078Y4142166D01*
G01X-398907Y4140472D01*
G01X-400817Y4138869D01*
G01X-402803Y4137363D01*
G01X-404863Y4135958D01*
G01X-406989Y4134658D01*
G01X-409179Y4133466D01*
G01X-411427Y4132384D01*
G01X-413723Y4131417D01*
G01X-416067Y4130563D01*
G01X-418450Y4129829D01*
G01X-420865Y4129215D01*
G01X-423309Y4128719D01*
G01X-425773Y4128348D01*
G01X-428254Y4128099D01*
G01X-430743Y4127975D01*
G01X-433238Y4127975D01*
G37*
G36*
G01X435727Y4128099D02*
G01X433238Y4127975D01*
G01X430743Y4127975D01*
G01X428254Y4128099D01*
G01X425773Y4128348D01*
G01X423309Y4128719D01*
G01X420865Y4129215D01*
G01X418450Y4129829D01*
G01X416067Y4130563D01*
G01X413723Y4131417D01*
G01X411427Y4132384D01*
G01X409179Y4133466D01*
G01X406992Y4134658D01*
G01X404863Y4135958D01*
G01X402803Y4137363D01*
G01X400817Y4138869D01*
G01X398907Y4140472D01*
G01X397078Y4142166D01*
G01X395338Y4143952D01*
G01X393687Y4145821D01*
G01X392133Y4147769D01*
G01X390677Y4149794D01*
G01X389326Y4151889D01*
G01X388079Y4154048D01*
G01X386941Y4156266D01*
G01X385917Y4158539D01*
G01X385006Y4160858D01*
G01X384213Y4163223D01*
G01X383537Y4165623D01*
G01X382981Y4168051D01*
G01X382549Y4170507D01*
G01X382240Y4172981D01*
G01X382052Y4175468D01*
G01X381991Y4177960D01*
G01X381991Y4247960D01*
G01X382052Y4250451D01*
G01X382240Y4252938D01*
G01X382549Y4255412D01*
G01X382981Y4257868D01*
G01X383537Y4260296D01*
G01X384213Y4262697D01*
G01X385006Y4265061D01*
G01X385917Y4267380D01*
G01X386941Y4269654D01*
G01X388079Y4271871D01*
G01X389326Y4274030D01*
G01X390677Y4276126D01*
G01X392133Y4278150D01*
G01X393687Y4280098D01*
G01X395338Y4281968D01*
G01X397078Y4283753D01*
G01X398907Y4285447D01*
G01X400817Y4287050D01*
G01X402803Y4288556D01*
G01X404863Y4289961D01*
G01X406992Y4291261D01*
G01X409179Y4292453D01*
G01X411427Y4293535D01*
G01X413723Y4294502D01*
G01X416067Y4295356D01*
G01X418450Y4296090D01*
G01X420865Y4296705D01*
G01X423309Y4297200D01*
G01X425773Y4297571D01*
G01X428254Y4297820D01*
G01X430743Y4297944D01*
G01X433238Y4297944D01*
G01X435727Y4297820D01*
G01X438208Y4297571D01*
G01X440672Y4297200D01*
G01X443116Y4296705D01*
G01X445531Y4296090D01*
G01X447914Y4295356D01*
G01X450258Y4294502D01*
G01X452554Y4293535D01*
G01X454802Y4292453D01*
G01X456992Y4291261D01*
G01X459118Y4289961D01*
G01X461178Y4288556D01*
G01X463164Y4287050D01*
G01X465074Y4285447D01*
G01X466903Y4283753D01*
G01X468643Y4281968D01*
G01X470294Y4280098D01*
G01X471848Y4278150D01*
G01X473304Y4276126D01*
G01X474655Y4274030D01*
G01X475902Y4271871D01*
G01X477040Y4269654D01*
G01X478064Y4267380D01*
G01X478975Y4265061D01*
G01X479768Y4262697D01*
G01X480444Y4260296D01*
G01X481000Y4257868D01*
G01X481432Y4255412D01*
G01X481741Y4252938D01*
G01X481929Y4250451D01*
G01X481990Y4247960D01*
G01X481990Y4177960D01*
G01X481929Y4175468D01*
G01X481741Y4172981D01*
G01X481432Y4170507D01*
G01X481000Y4168051D01*
G01X480444Y4165623D01*
G01X479768Y4163223D01*
G01X478975Y4160858D01*
G01X478064Y4158539D01*
G01X477040Y4156266D01*
G01X475902Y4154048D01*
G01X474655Y4151889D01*
G01X473304Y4149794D01*
G01X471848Y4147769D01*
G01X470294Y4145821D01*
G01X468643Y4143952D01*
G01X466903Y4142166D01*
G01X465074Y4140472D01*
G01X463164Y4138869D01*
G01X461178Y4137363D01*
G01X459118Y4135958D01*
G01X456992Y4134658D01*
G01X454802Y4133466D01*
G01X452554Y4132384D01*
G01X450258Y4131417D01*
G01X447914Y4130563D01*
G01X445531Y4129829D01*
G01X443116Y4129215D01*
G01X440672Y4128719D01*
G01X438208Y4128348D01*
G01X435727Y4128099D01*
G37*

G04 Pad Start*
G04 Pad End*
G54D10*

M02*

