G04 Layer: DrillDrawingLayer*
G04 EasyEDA Pro v3.2.135, 2026-06-15 15:01:53*
G04 Gerber Generator version 0.3*
G04 Scale: 100 percent, Rotated: No, Reflected: No*
G04 Dimensions in millimeters*
G04 Leading zeros omitted, absolute positions, 4 integers and 5 decimals*
G04 Generated by one-click*
G04 Object Configs: Pad,Via,Track,Text,Image,Dimension,BoardOutline,BoardCutout,CopperFilled,SolidRegion,FPCStiffener,Line,PlaneZone,ComponentProperty,ComponentSilkscreen,TearDrop*
G04 Layer Configs: 1,2,3,4,5,6,7,8,9,10,11,13,14,56*
G04 Copper Areas: 0*
%FSLAX45Y45*%
%MOMM*%
%AMIconRect*4,1,4,0.28,-0.28,-0.28,-0.28,-0.28,0.28,0.28,0.28,0.28,-0.28,0*4,0,4,0.233333,-0.233333,0.233333,0.233333,-0.233333,0.233333,-0.233333,-0.233333,0.233333,-0.233333,0*%
%AMIconTriangle*4,1,3,-0.339593,0.240473,0.339593,0.240473,0,-0.37884,-0.339593,0.240473,0*4,0,3,-0.265673,0.19404,0,-0.27342,0.266233,0.19404,-0.265673,0.19404,0*%
%AMIconStar6*4,1,12,0.12068,0.20888,0.298527,0.172713,0.241313,0,0.298527,-0.17206,0.12068,-0.208227,0,-0.344073,-0.120073,-0.208227,-0.298573,-0.17206,-0.240707,0,-0.298573,0.17206,-0.120073,0.20888,0,0.344073,0.12068,0.20888,0*4,0,12,-0.000467,0.273467,-0.090067,0.171733,-0.237533,0.136733,-0.193667,-0.007467,-0.237533,-0.1372,-0.090067,-0.171733,-0.000467,-0.273933,0.090067,-0.171733,0.237533,-0.1372,0.194133,0.007,0.237533,0.1372,0.090067,0.171267,-0.000467,0.273467,0*%
%ADD10IconRect*%
%ADD11C,0.616X0.522667*%
%ADD12IconTriangle*%
%ADD13IconStar6*%
%ADD14C,0.2032*%
%ADD15C,0.254*%
G75*


G04 Drill Drawing Start*
G54D10*
G01X-254000Y139700D03*
G01X0Y139700D03*
G01X254000Y139700D03*
G54D11*
G01X-2622848Y-3476983D03*
G01X-2284993Y3448189D03*
G01X2239296Y3448189D03*
G01X2577152Y-3476983D03*
G54D12*
G01X-431990Y3832949D03*
G01X-431990Y4212958D03*
G01X431991Y3832949D03*
G01X431991Y4212958D03*
G54D13*
G01X-3360400Y-4031000D03*
G01X-3360400Y1049000D03*
G01X-2852400Y-4539000D03*
G01X-2852400Y-4031000D03*
G01X-2852400Y-3015000D03*
G01X-2852400Y-2507000D03*
G01X-2852400Y-1999000D03*
G01X-2852400Y-1491000D03*
G01X-2852400Y-983000D03*
G01X-2852400Y-475000D03*
G01X-2852400Y33000D03*
G01X-2852400Y541000D03*
G01X-2852400Y1049000D03*
G01X-2852400Y1557000D03*
G01X-2852400Y2065000D03*
G01X-2852400Y2573000D03*
G01X-2852400Y3081000D03*
G01X-2852400Y4097000D03*
G01X-2344400Y-4031000D03*
G01X-2344400Y-3015000D03*
G01X-2344400Y33000D03*
G01X-2344400Y541000D03*
G01X-2344400Y2573000D03*
G01X-1836400Y-4031000D03*
G01X-1836400Y-3523000D03*
G01X-1836400Y-3015000D03*
G01X-1836400Y33000D03*
G01X-1836400Y541000D03*
G01X-1836400Y2573000D03*
G01X-1836400Y3081000D03*
G01X-1836400Y3589000D03*
G01X-1836400Y4097000D03*
G01X-1328400Y-4031000D03*
G01X-1328400Y-3523000D03*
G01X-1328400Y-3015000D03*
G01X-1328400Y33000D03*
G01X-1328400Y541000D03*
G01X-1328400Y2573000D03*
G01X-1328400Y3081000D03*
G01X-1328400Y3589000D03*
G01X-820400Y-4539000D03*
G01X-820400Y-4031000D03*
G01X-820400Y-3523000D03*
G01X-820400Y-3015000D03*
G01X-820400Y33000D03*
G01X-820400Y541000D03*
G01X-820400Y2573000D03*
G01X-820400Y3081000D03*
G01X-820400Y3589000D03*
G01X-571500Y3670300D03*
G01X-312400Y-4031000D03*
G01X-312400Y-3523000D03*
G01X-312400Y-3015000D03*
G01X-312400Y541000D03*
G01X-312400Y2573000D03*
G01X-312400Y3081000D03*
G01X-203200Y3975100D03*
G01X195600Y-4031000D03*
G01X195600Y-3523000D03*
G01X195600Y-3015000D03*
G01X195600Y33000D03*
G01X195600Y541000D03*
G01X195600Y2573000D03*
G01X195600Y3081000D03*
G01X571500Y3657600D03*
G01X703600Y-4031000D03*
G01X703600Y-3523000D03*
G01X703600Y-3015000D03*
G01X703600Y33000D03*
G01X703600Y541000D03*
G01X703600Y2573000D03*
G01X703600Y3081000D03*
G01X1211600Y-4031000D03*
G01X1211600Y-3523000D03*
G01X1211600Y-3015000D03*
G01X1211600Y33000D03*
G01X1211600Y541000D03*
G01X1211600Y2573000D03*
G01X1211600Y3081000D03*
G01X1211600Y3589000D03*
G01X1719600Y-4031000D03*
G01X1719600Y-3523000D03*
G01X1719600Y-3015000D03*
G01X1719600Y33000D03*
G01X1719600Y541000D03*
G01X1719600Y2573000D03*
G01X1719600Y3081000D03*
G01X1719600Y3589000D03*
G01X2227600Y-4031000D03*
G01X2227600Y-3015000D03*
G01X2227600Y33000D03*
G01X2227600Y541000D03*
G01X2227600Y2573000D03*
G01X2735600Y-4031000D03*
G01X2735600Y-3015000D03*
G01X2735600Y-2507000D03*
G01X2735600Y-1999000D03*
G01X2735600Y-1491000D03*
G01X2735600Y-983000D03*
G01X2735600Y-475000D03*
G01X2735600Y33000D03*
G01X2735600Y541000D03*
G01X2735600Y1049000D03*
G01X2735600Y1557000D03*
G01X2735600Y2065000D03*
G01X2735600Y2573000D03*
G01X2735600Y3081000D03*
G01X2735600Y3589000D03*
G01X2735600Y4097000D03*
G01X3243600Y-4031000D03*
G01X3243600Y-3523000D03*
G01X3243600Y-3015000D03*
G01X3243600Y-2507000D03*
G01X3243600Y-1999000D03*
G01X3243600Y-1491000D03*
G01X3243600Y-983000D03*
G01X3243600Y-475000D03*
G01X3243600Y33000D03*
G01X3243600Y541000D03*
G01X3243600Y1049000D03*
G01X3243600Y3589000D03*
G01X3751600Y-3523000D03*
G01X3751600Y-3015000D03*
G01X3751600Y-1999000D03*
G01X3751600Y-1491000D03*
G04 Drill Drawing End*

G04 Text Start*
G54D14*
G01X6135669Y4108565D02*
G01X6135669Y3988423D01*
G01X6135669Y4108565D02*
G01X6181389Y3988423D01*
G01X6227109Y4108565D02*
G01X6181389Y3988423D01*
G01X6227109Y4108565D02*
G01X6227109Y3988423D01*
G01X6343441Y4068433D02*
G01X6343441Y3988423D01*
G01X6343441Y4051415D02*
G01X6332011Y4062845D01*
G01X6320581Y4068433D01*
G01X6303563Y4068433D01*
G01X6292133Y4062845D01*
G01X6280703Y4051415D01*
G01X6274861Y4034143D01*
G01X6274861Y4022713D01*
G01X6280703Y4005695D01*
G01X6292133Y3994265D01*
G01X6303563Y3988423D01*
G01X6320581Y3988423D01*
G01X6332011Y3994265D01*
G01X6343441Y4005695D01*
G01X6391193Y4068433D02*
G01X6391193Y3988423D01*
G01X6391193Y4034143D02*
G01X6397035Y4051415D01*
G01X6408465Y4062845D01*
G01X6419895Y4068433D01*
G01X6436913Y4068433D01*
G01X6484665Y4108565D02*
G01X6484665Y3988423D01*
G01X6541815Y4068433D02*
G01X6484665Y4011283D01*
G01X6507525Y4034143D02*
G01X6547657Y3988423D01*
G01X7672950Y4079863D02*
G01X7667108Y4091293D01*
G01X7655678Y4102723D01*
G01X7644248Y4108565D01*
G01X7621388Y4108565D01*
G01X7609958Y4102723D01*
G01X7598528Y4091293D01*
G01X7592940Y4079863D01*
G01X7587098Y4062845D01*
G01X7587098Y4034143D01*
G01X7592940Y4017125D01*
G01X7598528Y4005695D01*
G01X7609958Y3994265D01*
G01X7621388Y3988423D01*
G01X7644248Y3988423D01*
G01X7655678Y3994265D01*
G01X7667108Y4005695D01*
G01X7672950Y4017125D01*
G01X7749404Y4068433D02*
G01X7737974Y4062845D01*
G01X7726544Y4051415D01*
G01X7720702Y4034143D01*
G01X7720702Y4022713D01*
G01X7726544Y4005695D01*
G01X7737974Y3994265D01*
G01X7749404Y3988423D01*
G01X7766422Y3988423D01*
G01X7777852Y3994265D01*
G01X7789282Y4005695D01*
G01X7795124Y4022713D01*
G01X7795124Y4034143D01*
G01X7789282Y4051415D01*
G01X7777852Y4062845D01*
G01X7766422Y4068433D01*
G01X7749404Y4068433D01*
G01X7842876Y4068433D02*
G01X7842876Y4011283D01*
G01X7848718Y3994265D01*
G01X7860148Y3988423D01*
G01X7877166Y3988423D01*
G01X7888596Y3994265D01*
G01X7905868Y4011283D01*
G01X7905868Y4068433D02*
G01X7905868Y3988423D01*
G01X7953620Y4068433D02*
G01X7953620Y3988423D01*
G01X7953620Y4045573D02*
G01X7970892Y4062845D01*
G01X7982322Y4068433D01*
G01X7999340Y4068433D01*
G01X8010770Y4062845D01*
G01X8016612Y4045573D01*
G01X8016612Y3988423D01*
G01X8081636Y4108565D02*
G01X8081636Y4011283D01*
G01X8087224Y3994265D01*
G01X8098654Y3988423D01*
G01X8110084Y3988423D01*
G01X8064364Y4068433D02*
G01X8104496Y4068433D01*
G01X9081271Y4091293D02*
G01X9069841Y4102723D01*
G01X9052823Y4108565D01*
G01X9029963Y4108565D01*
G01X9012691Y4102723D01*
G01X9001261Y4091293D01*
G01X9001261Y4079863D01*
G01X9007103Y4068433D01*
G01X9012691Y4062845D01*
G01X9024121Y4057003D01*
G01X9058411Y4045573D01*
G01X9069841Y4039985D01*
G01X9075683Y4034143D01*
G01X9081271Y4022713D01*
G01X9081271Y4005695D01*
G01X9069841Y3994265D01*
G01X9052823Y3988423D01*
G01X9029963Y3988423D01*
G01X9012691Y3994265D01*
G01X9001261Y4005695D01*
G01X9129023Y4108565D02*
G01X9134865Y4102723D01*
G01X9140453Y4108565D01*
G01X9134865Y4114153D01*
G01X9129023Y4108565D01*
G01X9134865Y4068433D02*
G01X9134865Y3988423D01*
G01X9251197Y4068433D02*
G01X9188205Y3988423D01*
G01X9188205Y4068433D02*
G01X9251197Y4068433D01*
G01X9188205Y3988423D02*
G01X9251197Y3988423D01*
G01X9298949Y4034143D02*
G01X9367529Y4034143D01*
G01X9367529Y4045573D01*
G01X9361941Y4057003D01*
G01X9356099Y4062845D01*
G01X9344669Y4068433D01*
G01X9327651Y4068433D01*
G01X9316221Y4062845D01*
G01X9304791Y4051415D01*
G01X9298949Y4034143D01*
G01X9298949Y4022713D01*
G01X9304791Y4005695D01*
G01X9316221Y3994265D01*
G01X9327651Y3988423D01*
G01X9344669Y3988423D01*
G01X9356099Y3994265D01*
G01X9367529Y4005695D01*
G01X13048134Y4108565D02*
G01X13048134Y3988423D01*
G01X13048134Y4108565D02*
G01X13099696Y4108565D01*
G01X13116714Y4102723D01*
G01X13122556Y4097135D01*
G01X13128144Y4085705D01*
G01X13128144Y4068433D01*
G01X13122556Y4057003D01*
G01X13116714Y4051415D01*
G01X13099696Y4045573D01*
G01X13048134Y4045573D01*
G01X13175896Y4108565D02*
G01X13175896Y3988423D01*
G01X13292228Y4068433D02*
G01X13292228Y3988423D01*
G01X13292228Y4051415D02*
G01X13280798Y4062845D01*
G01X13269368Y4068433D01*
G01X13252350Y4068433D01*
G01X13240920Y4062845D01*
G01X13229490Y4051415D01*
G01X13223648Y4034143D01*
G01X13223648Y4022713D01*
G01X13229490Y4005695D01*
G01X13240920Y3994265D01*
G01X13252350Y3988423D01*
G01X13269368Y3988423D01*
G01X13280798Y3994265D01*
G01X13292228Y4005695D01*
G01X13357252Y4108565D02*
G01X13357252Y4011283D01*
G01X13362840Y3994265D01*
G01X13374270Y3988423D01*
G01X13385700Y3988423D01*
G01X13339980Y4068433D02*
G01X13380112Y4068433D01*
G01X13433452Y4034143D02*
G01X13502032Y4034143D01*
G01X13502032Y4045573D01*
G01X13496444Y4057003D01*
G01X13490602Y4062845D01*
G01X13479172Y4068433D01*
G01X13462154Y4068433D01*
G01X13450724Y4062845D01*
G01X13439294Y4051415D01*
G01X13433452Y4034143D01*
G01X13433452Y4022713D01*
G01X13439294Y4005695D01*
G01X13450724Y3994265D01*
G01X13462154Y3988423D01*
G01X13479172Y3988423D01*
G01X13490602Y3994265D01*
G01X13502032Y4005695D01*
G01X13618364Y4108565D02*
G01X13618364Y3988423D01*
G01X13618364Y4051415D02*
G01X13606934Y4062845D01*
G01X13595504Y4068433D01*
G01X13578486Y4068433D01*
G01X13567056Y4062845D01*
G01X13555626Y4051415D01*
G01X13549784Y4034143D01*
G01X13549784Y4022713D01*
G01X13555626Y4005695D01*
G01X13567056Y3994265D01*
G01X13578486Y3988423D01*
G01X13595504Y3988423D01*
G01X13606934Y3994265D01*
G01X13618364Y4005695D01*
G01X14589551Y4091293D02*
G01X14578121Y4102723D01*
G01X14561103Y4108565D01*
G01X14538243Y4108565D01*
G01X14520971Y4102723D01*
G01X14509541Y4091293D01*
G01X14509541Y4079863D01*
G01X14515383Y4068433D01*
G01X14520971Y4062845D01*
G01X14532401Y4057003D01*
G01X14566691Y4045573D01*
G01X14578121Y4039985D01*
G01X14583963Y4034143D01*
G01X14589551Y4022713D01*
G01X14589551Y4005695D01*
G01X14578121Y3994265D01*
G01X14561103Y3988423D01*
G01X14538243Y3988423D01*
G01X14520971Y3994265D01*
G01X14509541Y4005695D01*
G01X14637303Y4108565D02*
G01X14637303Y3988423D01*
G01X14637303Y4045573D02*
G01X14654575Y4062845D01*
G01X14666005Y4068433D01*
G01X14683023Y4068433D01*
G01X14694453Y4062845D01*
G01X14700295Y4045573D01*
G01X14700295Y3988423D01*
G01X14816627Y4068433D02*
G01X14816627Y3988423D01*
G01X14816627Y4051415D02*
G01X14805197Y4062845D01*
G01X14793767Y4068433D01*
G01X14776749Y4068433D01*
G01X14765319Y4062845D01*
G01X14753889Y4051415D01*
G01X14748047Y4034143D01*
G01X14748047Y4022713D01*
G01X14753889Y4005695D01*
G01X14765319Y3994265D01*
G01X14776749Y3988423D01*
G01X14793767Y3988423D01*
G01X14805197Y3994265D01*
G01X14816627Y4005695D01*
G01X14864379Y4068433D02*
G01X14864379Y3948545D01*
G01X14864379Y4051415D02*
G01X14875809Y4062845D01*
G01X14887239Y4068433D01*
G01X14904511Y4068433D01*
G01X14915941Y4062845D01*
G01X14927371Y4051415D01*
G01X14932959Y4034143D01*
G01X14932959Y4022713D01*
G01X14927371Y4005695D01*
G01X14915941Y3994265D01*
G01X14904511Y3988423D01*
G01X14887239Y3988423D01*
G01X14875809Y3994265D01*
G01X14864379Y4005695D01*
G01X14980711Y4034143D02*
G01X15049291Y4034143D01*
G01X15049291Y4045573D01*
G01X15043703Y4057003D01*
G01X15037861Y4062845D01*
G01X15026431Y4068433D01*
G01X15009413Y4068433D01*
G01X14997983Y4062845D01*
G01X14986553Y4051415D01*
G01X14980711Y4034143D01*
G01X14980711Y4022713D01*
G01X14986553Y4005695D01*
G01X14997983Y3994265D01*
G01X15009413Y3988423D01*
G01X15026431Y3988423D01*
G01X15037861Y3994265D01*
G01X15049291Y4005695D01*
G01X15940723Y4108565D02*
G01X15986443Y3988423D01*
G01X16032163Y4108565D02*
G01X15986443Y3988423D01*
G01X16079915Y4108565D02*
G01X16085757Y4102723D01*
G01X16091345Y4108565D01*
G01X16085757Y4114153D01*
G01X16079915Y4108565D01*
G01X16085757Y4068433D02*
G01X16085757Y3988423D01*
G01X16207677Y4068433D02*
G01X16207677Y3988423D01*
G01X16207677Y4051415D02*
G01X16196247Y4062845D01*
G01X16184817Y4068433D01*
G01X16167799Y4068433D01*
G01X16156369Y4062845D01*
G01X16144939Y4051415D01*
G01X16139097Y4034143D01*
G01X16139097Y4022713D01*
G01X16144939Y4005695D01*
G01X16156369Y3994265D01*
G01X16167799Y3988423D01*
G01X16184817Y3988423D01*
G01X16196247Y3994265D01*
G01X16207677Y4005695D01*
G01X16358299Y4131425D02*
G01X16255429Y3948545D01*
G01X16406051Y4108565D02*
G01X16406051Y3988423D01*
G01X16406051Y4108565D02*
G01X16457613Y4108565D01*
G01X16474631Y4102723D01*
G01X16480473Y4097135D01*
G01X16486061Y4085705D01*
G01X16486061Y4068433D01*
G01X16480473Y4057003D01*
G01X16474631Y4051415D01*
G01X16457613Y4045573D01*
G01X16406051Y4045573D01*
G01X16602393Y4068433D02*
G01X16602393Y3988423D01*
G01X16602393Y4051415D02*
G01X16590963Y4062845D01*
G01X16579533Y4068433D01*
G01X16562515Y4068433D01*
G01X16551085Y4062845D01*
G01X16539655Y4051415D01*
G01X16533813Y4034143D01*
G01X16533813Y4022713D01*
G01X16539655Y4005695D01*
G01X16551085Y3994265D01*
G01X16562515Y3988423D01*
G01X16579533Y3988423D01*
G01X16590963Y3994265D01*
G01X16602393Y4005695D01*
G01X16718725Y4108565D02*
G01X16718725Y3988423D01*
G01X16718725Y4051415D02*
G01X16707295Y4062845D01*
G01X16695865Y4068433D01*
G01X16678847Y4068433D01*
G01X16667417Y4062845D01*
G01X16655987Y4051415D01*
G01X16650145Y4034143D01*
G01X16650145Y4022713D01*
G01X16655987Y4005695D01*
G01X16667417Y3994265D01*
G01X16678847Y3988423D01*
G01X16695865Y3988423D01*
G01X16707295Y3994265D01*
G01X16718725Y4005695D01*
G01X17609902Y4108565D02*
G01X17609902Y3988423D01*
G01X17609902Y4108565D02*
G01X17661464Y4108565D01*
G01X17678482Y4102723D01*
G01X17684324Y4097135D01*
G01X17689912Y4085705D01*
G01X17689912Y4068433D01*
G01X17684324Y4057003D01*
G01X17678482Y4051415D01*
G01X17661464Y4045573D01*
G01X17609902Y4045573D01*
G01X17806244Y4068433D02*
G01X17806244Y3988423D01*
G01X17806244Y4051415D02*
G01X17794814Y4062845D01*
G01X17783384Y4068433D01*
G01X17766366Y4068433D01*
G01X17754936Y4062845D01*
G01X17743506Y4051415D01*
G01X17737664Y4034143D01*
G01X17737664Y4022713D01*
G01X17743506Y4005695D01*
G01X17754936Y3994265D01*
G01X17766366Y3988423D01*
G01X17783384Y3988423D01*
G01X17794814Y3994265D01*
G01X17806244Y4005695D01*
G01X17922576Y4108565D02*
G01X17922576Y3988423D01*
G01X17922576Y4051415D02*
G01X17911146Y4062845D01*
G01X17899716Y4068433D01*
G01X17882698Y4068433D01*
G01X17871268Y4062845D01*
G01X17859838Y4051415D01*
G01X17853996Y4034143D01*
G01X17853996Y4022713D01*
G01X17859838Y4005695D01*
G01X17871268Y3994265D01*
G01X17882698Y3988423D01*
G01X17899716Y3988423D01*
G01X17911146Y3994265D01*
G01X17922576Y4005695D01*
G01X18178354Y4091293D02*
G01X18166924Y4102723D01*
G01X18149906Y4108565D01*
G01X18127046Y4108565D01*
G01X18109774Y4102723D01*
G01X18098344Y4091293D01*
G01X18098344Y4079863D01*
G01X18104186Y4068433D01*
G01X18109774Y4062845D01*
G01X18121204Y4057003D01*
G01X18155494Y4045573D01*
G01X18166924Y4039985D01*
G01X18172766Y4034143D01*
G01X18178354Y4022713D01*
G01X18178354Y4005695D01*
G01X18166924Y3994265D01*
G01X18149906Y3988423D01*
G01X18127046Y3988423D01*
G01X18109774Y3994265D01*
G01X18098344Y4005695D01*
G01X18226106Y4108565D02*
G01X18226106Y3988423D01*
G01X18226106Y4045573D02*
G01X18243378Y4062845D01*
G01X18254808Y4068433D01*
G01X18271826Y4068433D01*
G01X18283256Y4062845D01*
G01X18289098Y4045573D01*
G01X18289098Y3988423D01*
G01X18405430Y4068433D02*
G01X18405430Y3988423D01*
G01X18405430Y4051415D02*
G01X18394000Y4062845D01*
G01X18382570Y4068433D01*
G01X18365552Y4068433D01*
G01X18354122Y4062845D01*
G01X18342692Y4051415D01*
G01X18336850Y4034143D01*
G01X18336850Y4022713D01*
G01X18342692Y4005695D01*
G01X18354122Y3994265D01*
G01X18365552Y3988423D01*
G01X18382570Y3988423D01*
G01X18394000Y3994265D01*
G01X18405430Y4005695D01*
G01X18453182Y4068433D02*
G01X18453182Y3948545D01*
G01X18453182Y4051415D02*
G01X18464612Y4062845D01*
G01X18476042Y4068433D01*
G01X18493314Y4068433D01*
G01X18504744Y4062845D01*
G01X18516174Y4051415D01*
G01X18521762Y4034143D01*
G01X18521762Y4022713D01*
G01X18516174Y4005695D01*
G01X18504744Y3994265D01*
G01X18493314Y3988423D01*
G01X18476042Y3988423D01*
G01X18464612Y3994265D01*
G01X18453182Y4005695D01*
G01X18569514Y4034143D02*
G01X18638094Y4034143D01*
G01X18638094Y4045573D01*
G01X18632506Y4057003D01*
G01X18626664Y4062845D01*
G01X18615234Y4068433D01*
G01X18598216Y4068433D01*
G01X18586786Y4062845D01*
G01X18575356Y4051415D01*
G01X18569514Y4034143D01*
G01X18569514Y4022713D01*
G01X18575356Y4005695D01*
G01X18586786Y3994265D01*
G01X18598216Y3988423D01*
G01X18615234Y3988423D01*
G01X18626664Y3994265D01*
G01X18638094Y4005695D01*
G01X19529271Y4108565D02*
G01X19529271Y3988423D01*
G01X19529271Y3988423D02*
G01X19597851Y3988423D01*
G01X19714183Y4068433D02*
G01X19714183Y3988423D01*
G01X19714183Y4051415D02*
G01X19702753Y4062845D01*
G01X19691323Y4068433D01*
G01X19674305Y4068433D01*
G01X19662875Y4062845D01*
G01X19651445Y4051415D01*
G01X19645603Y4034143D01*
G01X19645603Y4022713D01*
G01X19651445Y4005695D01*
G01X19662875Y3994265D01*
G01X19674305Y3988423D01*
G01X19691323Y3988423D01*
G01X19702753Y3994265D01*
G01X19714183Y4005695D01*
G01X19767777Y4068433D02*
G01X19802067Y3988423D01*
G01X19836357Y4068433D02*
G01X19802067Y3988423D01*
G01X19790637Y3965563D01*
G01X19779207Y3954133D01*
G01X19767777Y3948545D01*
G01X19761935Y3948545D01*
G01X19884109Y4034143D02*
G01X19952689Y4034143D01*
G01X19952689Y4045573D01*
G01X19947101Y4057003D01*
G01X19941259Y4062845D01*
G01X19929829Y4068433D01*
G01X19912811Y4068433D01*
G01X19901381Y4062845D01*
G01X19889951Y4051415D01*
G01X19884109Y4034143D01*
G01X19884109Y4022713D01*
G01X19889951Y4005695D01*
G01X19901381Y3994265D01*
G01X19912811Y3988423D01*
G01X19929829Y3988423D01*
G01X19941259Y3994265D01*
G01X19952689Y4005695D01*
G01X20000441Y4068433D02*
G01X20000441Y3988423D01*
G01X20000441Y4034143D02*
G01X20006283Y4051415D01*
G01X20017713Y4062845D01*
G01X20029143Y4068433D01*
G01X20046161Y4068433D01*
G01X20221929Y4108565D02*
G01X20221929Y3988423D01*
G01X20221929Y4108565D02*
G01X20273491Y4108565D01*
G01X20290509Y4102723D01*
G01X20296351Y4097135D01*
G01X20301939Y4085705D01*
G01X20301939Y4068433D01*
G01X20296351Y4057003D01*
G01X20290509Y4051415D01*
G01X20273491Y4045573D01*
G01X20221929Y4045573D01*
G01X20418271Y4068433D02*
G01X20418271Y3988423D01*
G01X20418271Y4051415D02*
G01X20406841Y4062845D01*
G01X20395411Y4068433D01*
G01X20378393Y4068433D01*
G01X20366963Y4062845D01*
G01X20355533Y4051415D01*
G01X20349691Y4034143D01*
G01X20349691Y4022713D01*
G01X20355533Y4005695D01*
G01X20366963Y3994265D01*
G01X20378393Y3988423D01*
G01X20395411Y3988423D01*
G01X20406841Y3994265D01*
G01X20418271Y4005695D01*
G01X20466023Y4108565D02*
G01X20471865Y4102723D01*
G01X20477453Y4108565D01*
G01X20471865Y4114153D01*
G01X20466023Y4108565D01*
G01X20471865Y4068433D02*
G01X20471865Y3988423D01*
G01X20525205Y4068433D02*
G01X20525205Y3988423D01*
G01X20525205Y4034143D02*
G01X20531047Y4051415D01*
G01X20542477Y4062845D01*
G01X20553907Y4068433D01*
G01X20570925Y4068433D01*
G01X7598528Y3527993D02*
G01X7661520Y3527993D01*
G01X7627230Y3482273D01*
G01X7644248Y3482273D01*
G01X7655678Y3476431D01*
G01X7661520Y3470843D01*
G01X7667108Y3453571D01*
G01X7667108Y3442141D01*
G01X7661520Y3425123D01*
G01X7650090Y3413693D01*
G01X7632818Y3407851D01*
G01X7615800Y3407851D01*
G01X7598528Y3413693D01*
G01X7592940Y3419281D01*
G01X7587098Y3430711D01*
G01X9012691Y3527993D02*
G01X9075683Y3527993D01*
G01X9041393Y3482273D01*
G01X9058411Y3482273D01*
G01X9069841Y3476431D01*
G01X9075683Y3470843D01*
G01X9081271Y3453571D01*
G01X9081271Y3442141D01*
G01X9075683Y3425123D01*
G01X9064253Y3413693D01*
G01X9046981Y3407851D01*
G01X9029963Y3407851D01*
G01X9012691Y3413693D01*
G01X9007103Y3419281D01*
G01X9001261Y3430711D01*
G01X9140453Y3527993D02*
G01X9203445Y3527993D01*
G01X9169155Y3482273D01*
G01X9186173Y3482273D01*
G01X9197603Y3476431D01*
G01X9203445Y3470843D01*
G01X9209033Y3453571D01*
G01X9209033Y3442141D01*
G01X9203445Y3425123D01*
G01X9192015Y3413693D01*
G01X9174743Y3407851D01*
G01X9157725Y3407851D01*
G01X9140453Y3413693D01*
G01X9134865Y3419281D01*
G01X9129023Y3430711D01*
G01X9262627Y3436553D02*
G01X9256785Y3430711D01*
G01X9262627Y3425123D01*
G01X9268215Y3430711D01*
G01X9262627Y3436553D01*
G01X9384547Y3527993D02*
G01X9327397Y3527993D01*
G01X9321809Y3476431D01*
G01X9327397Y3482273D01*
G01X9344669Y3487861D01*
G01X9361687Y3487861D01*
G01X9378959Y3482273D01*
G01X9390389Y3470843D01*
G01X9395977Y3453571D01*
G01X9395977Y3442141D01*
G01X9390389Y3425123D01*
G01X9378959Y3413693D01*
G01X9361687Y3407851D01*
G01X9344669Y3407851D01*
G01X9327397Y3413693D01*
G01X9321809Y3419281D01*
G01X9315967Y3430711D01*
G01X9443729Y3487861D02*
G01X9506721Y3407851D01*
G01X9506721Y3487861D02*
G01X9443729Y3407851D01*
G01X9565903Y3527993D02*
G01X9628895Y3527993D01*
G01X9594605Y3482273D01*
G01X9611623Y3482273D01*
G01X9623053Y3476431D01*
G01X9628895Y3470843D01*
G01X9634483Y3453571D01*
G01X9634483Y3442141D01*
G01X9628895Y3425123D01*
G01X9617465Y3413693D01*
G01X9600193Y3407851D01*
G01X9583175Y3407851D01*
G01X9565903Y3413693D01*
G01X9560315Y3419281D01*
G01X9554473Y3430711D01*
G01X9693665Y3527993D02*
G01X9756657Y3527993D01*
G01X9722367Y3482273D01*
G01X9739385Y3482273D01*
G01X9750815Y3476431D01*
G01X9756657Y3470843D01*
G01X9762245Y3453571D01*
G01X9762245Y3442141D01*
G01X9756657Y3425123D01*
G01X9745227Y3413693D01*
G01X9727955Y3407851D01*
G01X9710937Y3407851D01*
G01X9693665Y3413693D01*
G01X9688077Y3419281D01*
G01X9682235Y3430711D01*
G01X9815839Y3436553D02*
G01X9809997Y3430711D01*
G01X9815839Y3425123D01*
G01X9821427Y3430711D01*
G01X9815839Y3436553D01*
G01X9937759Y3527993D02*
G01X9880609Y3527993D01*
G01X9875021Y3476431D01*
G01X9880609Y3482273D01*
G01X9897881Y3487861D01*
G01X9914899Y3487861D01*
G01X9932171Y3482273D01*
G01X9943601Y3470843D01*
G01X9949189Y3453571D01*
G01X9949189Y3442141D01*
G01X9943601Y3425123D01*
G01X9932171Y3413693D01*
G01X9914899Y3407851D01*
G01X9897881Y3407851D01*
G01X9880609Y3413693D01*
G01X9875021Y3419281D01*
G01X9869179Y3430711D01*
G01X9996941Y3487861D02*
G01X9996941Y3407851D01*
G01X9996941Y3465001D02*
G01X10014213Y3482273D01*
G01X10025643Y3487861D01*
G01X10042661Y3487861D01*
G01X10054091Y3482273D01*
G01X10059933Y3465001D01*
G01X10059933Y3407851D01*
G01X10059933Y3465001D02*
G01X10076951Y3482273D01*
G01X10088381Y3487861D01*
G01X10105653Y3487861D01*
G01X10117083Y3482273D01*
G01X10122671Y3465001D01*
G01X10122671Y3407851D01*
G01X10170423Y3527993D02*
G01X10176265Y3522151D01*
G01X10181853Y3527993D01*
G01X10176265Y3533581D01*
G01X10170423Y3527993D01*
G01X10176265Y3487861D02*
G01X10176265Y3407851D01*
G01X10229605Y3527993D02*
G01X10229605Y3407851D01*
G01X10317489Y3550853D02*
G01X10306059Y3539423D01*
G01X10294629Y3522151D01*
G01X10283199Y3499291D01*
G01X10277357Y3470843D01*
G01X10277357Y3447983D01*
G01X10283199Y3419281D01*
G01X10294629Y3396421D01*
G01X10306059Y3379403D01*
G01X10317489Y3367973D01*
G01X10399531Y3527993D02*
G01X10382513Y3522151D01*
G01X10371083Y3505133D01*
G01X10365241Y3476431D01*
G01X10365241Y3459413D01*
G01X10371083Y3430711D01*
G01X10382513Y3413693D01*
G01X10399531Y3407851D01*
G01X10410961Y3407851D01*
G01X10428233Y3413693D01*
G01X10439663Y3430711D01*
G01X10445251Y3459413D01*
G01X10445251Y3476431D01*
G01X10439663Y3505133D01*
G01X10428233Y3522151D01*
G01X10410961Y3527993D01*
G01X10399531Y3527993D01*
G01X10498845Y3436553D02*
G01X10493003Y3430711D01*
G01X10498845Y3425123D01*
G01X10504433Y3430711D01*
G01X10498845Y3436553D01*
G01X10580887Y3527993D02*
G01X10563615Y3522151D01*
G01X10558027Y3510721D01*
G01X10558027Y3499291D01*
G01X10563615Y3487861D01*
G01X10575045Y3482273D01*
G01X10597905Y3476431D01*
G01X10615177Y3470843D01*
G01X10626607Y3459413D01*
G01X10632195Y3447983D01*
G01X10632195Y3430711D01*
G01X10626607Y3419281D01*
G01X10620765Y3413693D01*
G01X10603747Y3407851D01*
G01X10580887Y3407851D01*
G01X10563615Y3413693D01*
G01X10558027Y3419281D01*
G01X10552185Y3430711D01*
G01X10552185Y3447983D01*
G01X10558027Y3459413D01*
G01X10569457Y3470843D01*
G01X10586475Y3476431D01*
G01X10609335Y3482273D01*
G01X10620765Y3487861D01*
G01X10626607Y3499291D01*
G01X10626607Y3510721D01*
G01X10620765Y3522151D01*
G01X10603747Y3527993D01*
G01X10580887Y3527993D01*
G01X10748527Y3527993D02*
G01X10691377Y3527993D01*
G01X10685789Y3476431D01*
G01X10691377Y3482273D01*
G01X10708649Y3487861D01*
G01X10725667Y3487861D01*
G01X10742939Y3482273D01*
G01X10754369Y3470843D01*
G01X10759957Y3453571D01*
G01X10759957Y3442141D01*
G01X10754369Y3425123D01*
G01X10742939Y3413693D01*
G01X10725667Y3407851D01*
G01X10708649Y3407851D01*
G01X10691377Y3413693D01*
G01X10685789Y3419281D01*
G01X10679947Y3430711D01*
G01X10841999Y3527993D02*
G01X10824981Y3522151D01*
G01X10813551Y3505133D01*
G01X10807709Y3476431D01*
G01X10807709Y3459413D01*
G01X10813551Y3430711D01*
G01X10824981Y3413693D01*
G01X10841999Y3407851D01*
G01X10853429Y3407851D01*
G01X10870701Y3413693D01*
G01X10882131Y3430711D01*
G01X10887719Y3459413D01*
G01X10887719Y3476431D01*
G01X10882131Y3505133D01*
G01X10870701Y3522151D01*
G01X10853429Y3527993D01*
G01X10841999Y3527993D01*
G01X10935471Y3487861D02*
G01X10998463Y3407851D01*
G01X10998463Y3487861D02*
G01X10935471Y3407851D01*
G01X11080505Y3527993D02*
G01X11063487Y3522151D01*
G01X11052057Y3505133D01*
G01X11046215Y3476431D01*
G01X11046215Y3459413D01*
G01X11052057Y3430711D01*
G01X11063487Y3413693D01*
G01X11080505Y3407851D01*
G01X11091935Y3407851D01*
G01X11109207Y3413693D01*
G01X11120637Y3430711D01*
G01X11126225Y3459413D01*
G01X11126225Y3476431D01*
G01X11120637Y3505133D01*
G01X11109207Y3522151D01*
G01X11091935Y3527993D01*
G01X11080505Y3527993D01*
G01X11179819Y3436553D02*
G01X11173977Y3430711D01*
G01X11179819Y3425123D01*
G01X11185407Y3430711D01*
G01X11179819Y3436553D01*
G01X11261861Y3527993D02*
G01X11244589Y3522151D01*
G01X11239001Y3510721D01*
G01X11239001Y3499291D01*
G01X11244589Y3487861D01*
G01X11256019Y3482273D01*
G01X11278879Y3476431D01*
G01X11296151Y3470843D01*
G01X11307581Y3459413D01*
G01X11313169Y3447983D01*
G01X11313169Y3430711D01*
G01X11307581Y3419281D01*
G01X11301739Y3413693D01*
G01X11284721Y3407851D01*
G01X11261861Y3407851D01*
G01X11244589Y3413693D01*
G01X11239001Y3419281D01*
G01X11233159Y3430711D01*
G01X11233159Y3447983D01*
G01X11239001Y3459413D01*
G01X11250431Y3470843D01*
G01X11267449Y3476431D01*
G01X11290309Y3482273D01*
G01X11301739Y3487861D01*
G01X11307581Y3499291D01*
G01X11307581Y3510721D01*
G01X11301739Y3522151D01*
G01X11284721Y3527993D01*
G01X11261861Y3527993D01*
G01X11429501Y3527993D02*
G01X11372351Y3527993D01*
G01X11366763Y3476431D01*
G01X11372351Y3482273D01*
G01X11389623Y3487861D01*
G01X11406641Y3487861D01*
G01X11423913Y3482273D01*
G01X11435343Y3470843D01*
G01X11440931Y3453571D01*
G01X11440931Y3442141D01*
G01X11435343Y3425123D01*
G01X11423913Y3413693D01*
G01X11406641Y3407851D01*
G01X11389623Y3407851D01*
G01X11372351Y3413693D01*
G01X11366763Y3419281D01*
G01X11360921Y3430711D01*
G01X11522973Y3527993D02*
G01X11505955Y3522151D01*
G01X11494525Y3505133D01*
G01X11488683Y3476431D01*
G01X11488683Y3459413D01*
G01X11494525Y3430711D01*
G01X11505955Y3413693D01*
G01X11522973Y3407851D01*
G01X11534403Y3407851D01*
G01X11551675Y3413693D01*
G01X11563105Y3430711D01*
G01X11568693Y3459413D01*
G01X11568693Y3476431D01*
G01X11563105Y3505133D01*
G01X11551675Y3522151D01*
G01X11534403Y3527993D01*
G01X11522973Y3527993D01*
G01X11616445Y3487861D02*
G01X11616445Y3407851D01*
G01X11616445Y3465001D02*
G01X11633717Y3482273D01*
G01X11645147Y3487861D01*
G01X11662165Y3487861D01*
G01X11673595Y3482273D01*
G01X11679437Y3465001D01*
G01X11679437Y3407851D01*
G01X11679437Y3465001D02*
G01X11696455Y3482273D01*
G01X11707885Y3487861D01*
G01X11725157Y3487861D01*
G01X11736587Y3482273D01*
G01X11742175Y3465001D01*
G01X11742175Y3407851D01*
G01X11789927Y3487861D02*
G01X11789927Y3407851D01*
G01X11789927Y3465001D02*
G01X11807199Y3482273D01*
G01X11818629Y3487861D01*
G01X11835647Y3487861D01*
G01X11847077Y3482273D01*
G01X11852919Y3465001D01*
G01X11852919Y3407851D01*
G01X11852919Y3465001D02*
G01X11869937Y3482273D01*
G01X11881367Y3487861D01*
G01X11898639Y3487861D01*
G01X11910069Y3482273D01*
G01X11915657Y3465001D01*
G01X11915657Y3407851D01*
G01X11963409Y3550853D02*
G01X11974839Y3539423D01*
G01X11986269Y3522151D01*
G01X11997699Y3499291D01*
G01X12003541Y3470843D01*
G01X12003541Y3447983D01*
G01X11997699Y3419281D01*
G01X11986269Y3396421D01*
G01X11974839Y3379403D01*
G01X11963409Y3367973D01*
G01X13048134Y3527993D02*
G01X13048134Y3407851D01*
G01X13048134Y3527993D02*
G01X13099696Y3527993D01*
G01X13116714Y3522151D01*
G01X13122556Y3516563D01*
G01X13128144Y3505133D01*
G01X13128144Y3487861D01*
G01X13122556Y3476431D01*
G01X13116714Y3470843D01*
G01X13099696Y3465001D01*
G01X13048134Y3465001D01*
G01X13216028Y3527993D02*
G01X13216028Y3407851D01*
G01X13175896Y3527993D02*
G01X13255906Y3527993D01*
G01X13303658Y3527993D02*
G01X13303658Y3407851D01*
G01X13383668Y3527993D02*
G01X13383668Y3407851D01*
G01X13303658Y3470843D02*
G01X13383668Y3470843D01*
G01X14509541Y3527993D02*
G01X14509541Y3407851D01*
G01X14509541Y3527993D02*
G01X14561103Y3527993D01*
G01X14578121Y3522151D01*
G01X14583963Y3516563D01*
G01X14589551Y3505133D01*
G01X14589551Y3493703D01*
G01X14583963Y3482273D01*
G01X14578121Y3476431D01*
G01X14561103Y3470843D01*
G01X14509541Y3470843D01*
G01X14549673Y3470843D02*
G01X14589551Y3407851D01*
G01X14666005Y3487861D02*
G01X14654575Y3482273D01*
G01X14643145Y3470843D01*
G01X14637303Y3453571D01*
G01X14637303Y3442141D01*
G01X14643145Y3425123D01*
G01X14654575Y3413693D01*
G01X14666005Y3407851D01*
G01X14683023Y3407851D01*
G01X14694453Y3413693D01*
G01X14705883Y3425123D01*
G01X14711725Y3442141D01*
G01X14711725Y3453571D01*
G01X14705883Y3470843D01*
G01X14694453Y3482273D01*
G01X14683023Y3487861D01*
G01X14666005Y3487861D01*
G01X14759477Y3487861D02*
G01X14759477Y3430711D01*
G01X14765319Y3413693D01*
G01X14776749Y3407851D01*
G01X14793767Y3407851D01*
G01X14805197Y3413693D01*
G01X14822469Y3430711D01*
G01X14822469Y3487861D02*
G01X14822469Y3407851D01*
G01X14870221Y3487861D02*
G01X14870221Y3407851D01*
G01X14870221Y3465001D02*
G01X14887493Y3482273D01*
G01X14898923Y3487861D01*
G01X14915941Y3487861D01*
G01X14927371Y3482273D01*
G01X14933213Y3465001D01*
G01X14933213Y3407851D01*
G01X15049545Y3527993D02*
G01X15049545Y3407851D01*
G01X15049545Y3470843D02*
G01X15038115Y3482273D01*
G01X15026685Y3487861D01*
G01X15009667Y3487861D01*
G01X14998237Y3482273D01*
G01X14986807Y3470843D01*
G01X14980965Y3453571D01*
G01X14980965Y3442141D01*
G01X14986807Y3425123D01*
G01X14998237Y3413693D01*
G01X15009667Y3407851D01*
G01X15026685Y3407851D01*
G01X15038115Y3413693D01*
G01X15049545Y3425123D01*
G01X15940723Y3527993D02*
G01X15940723Y3407851D01*
G01X15940723Y3527993D02*
G01X15992285Y3527993D01*
G01X16009303Y3522151D01*
G01X16015145Y3516563D01*
G01X16020733Y3505133D01*
G01X16020733Y3487861D01*
G01X16015145Y3476431D01*
G01X16009303Y3470843D01*
G01X15992285Y3465001D01*
G01X15940723Y3465001D01*
G01X16137065Y3487861D02*
G01X16137065Y3407851D01*
G01X16137065Y3470843D02*
G01X16125635Y3482273D01*
G01X16114205Y3487861D01*
G01X16097187Y3487861D01*
G01X16085757Y3482273D01*
G01X16074327Y3470843D01*
G01X16068485Y3453571D01*
G01X16068485Y3442141D01*
G01X16074327Y3425123D01*
G01X16085757Y3413693D01*
G01X16097187Y3407851D01*
G01X16114205Y3407851D01*
G01X16125635Y3413693D01*
G01X16137065Y3425123D01*
G01X16253397Y3527993D02*
G01X16253397Y3407851D01*
G01X16253397Y3470843D02*
G01X16241967Y3482273D01*
G01X16230537Y3487861D01*
G01X16213519Y3487861D01*
G01X16202089Y3482273D01*
G01X16190659Y3470843D01*
G01X16184817Y3453571D01*
G01X16184817Y3442141D01*
G01X16190659Y3425123D01*
G01X16202089Y3413693D01*
G01X16213519Y3407851D01*
G01X16230537Y3407851D01*
G01X16241967Y3413693D01*
G01X16253397Y3425123D01*
G01X17609902Y3527993D02*
G01X17609902Y3407851D01*
G01X17609902Y3527993D02*
G01X17661464Y3527993D01*
G01X17678482Y3522151D01*
G01X17684324Y3516563D01*
G01X17689912Y3505133D01*
G01X17689912Y3493703D01*
G01X17684324Y3482273D01*
G01X17678482Y3476431D01*
G01X17661464Y3470843D01*
G01X17609902Y3470843D01*
G01X17650034Y3470843D02*
G01X17689912Y3407851D01*
G01X17766366Y3487861D02*
G01X17754936Y3482273D01*
G01X17743506Y3470843D01*
G01X17737664Y3453571D01*
G01X17737664Y3442141D01*
G01X17743506Y3425123D01*
G01X17754936Y3413693D01*
G01X17766366Y3407851D01*
G01X17783384Y3407851D01*
G01X17794814Y3413693D01*
G01X17806244Y3425123D01*
G01X17812086Y3442141D01*
G01X17812086Y3453571D01*
G01X17806244Y3470843D01*
G01X17794814Y3482273D01*
G01X17783384Y3487861D01*
G01X17766366Y3487861D01*
G01X17859838Y3487861D02*
G01X17859838Y3430711D01*
G01X17865680Y3413693D01*
G01X17877110Y3407851D01*
G01X17894128Y3407851D01*
G01X17905558Y3413693D01*
G01X17922830Y3430711D01*
G01X17922830Y3487861D02*
G01X17922830Y3407851D01*
G01X17970582Y3487861D02*
G01X17970582Y3407851D01*
G01X17970582Y3465001D02*
G01X17987854Y3482273D01*
G01X17999284Y3487861D01*
G01X18016302Y3487861D01*
G01X18027732Y3482273D01*
G01X18033574Y3465001D01*
G01X18033574Y3407851D01*
G01X18149906Y3527993D02*
G01X18149906Y3407851D01*
G01X18149906Y3470843D02*
G01X18138476Y3482273D01*
G01X18127046Y3487861D01*
G01X18110028Y3487861D01*
G01X18098598Y3482273D01*
G01X18087168Y3470843D01*
G01X18081326Y3453571D01*
G01X18081326Y3442141D01*
G01X18087168Y3425123D01*
G01X18098598Y3413693D01*
G01X18110028Y3407851D01*
G01X18127046Y3407851D01*
G01X18138476Y3413693D01*
G01X18149906Y3425123D01*
G01X19569403Y3527993D02*
G01X19569403Y3407851D01*
G01X19529271Y3527993D02*
G01X19609281Y3527993D01*
G01X19685735Y3487861D02*
G01X19674305Y3482273D01*
G01X19662875Y3470843D01*
G01X19657033Y3453571D01*
G01X19657033Y3442141D01*
G01X19662875Y3425123D01*
G01X19674305Y3413693D01*
G01X19685735Y3407851D01*
G01X19702753Y3407851D01*
G01X19714183Y3413693D01*
G01X19725613Y3425123D01*
G01X19731455Y3442141D01*
G01X19731455Y3453571D01*
G01X19725613Y3470843D01*
G01X19714183Y3482273D01*
G01X19702753Y3487861D01*
G01X19685735Y3487861D01*
G01X19779207Y3487861D02*
G01X19779207Y3367973D01*
G01X19779207Y3470843D02*
G01X19790637Y3482273D01*
G01X19802067Y3487861D01*
G01X19819339Y3487861D01*
G01X19830769Y3482273D01*
G01X19842199Y3470843D01*
G01X19847787Y3453571D01*
G01X19847787Y3442141D01*
G01X19842199Y3425123D01*
G01X19830769Y3413693D01*
G01X19819339Y3407851D01*
G01X19802067Y3407851D01*
G01X19790637Y3413693D01*
G01X19779207Y3425123D01*
G01X20023555Y3527993D02*
G01X20023555Y3407851D01*
G01X20023555Y3407851D02*
G01X20092135Y3407851D01*
G01X20208467Y3487861D02*
G01X20208467Y3407851D01*
G01X20208467Y3470843D02*
G01X20197037Y3482273D01*
G01X20185607Y3487861D01*
G01X20168589Y3487861D01*
G01X20157159Y3482273D01*
G01X20145729Y3470843D01*
G01X20139887Y3453571D01*
G01X20139887Y3442141D01*
G01X20145729Y3425123D01*
G01X20157159Y3413693D01*
G01X20168589Y3407851D01*
G01X20185607Y3407851D01*
G01X20197037Y3413693D01*
G01X20208467Y3425123D01*
G01X20262061Y3487861D02*
G01X20296351Y3407851D01*
G01X20330641Y3487861D02*
G01X20296351Y3407851D01*
G01X20284921Y3384991D01*
G01X20273491Y3373561D01*
G01X20262061Y3367973D01*
G01X20256219Y3367973D01*
G01X20378393Y3453571D02*
G01X20446973Y3453571D01*
G01X20446973Y3465001D01*
G01X20441385Y3476431D01*
G01X20435543Y3482273D01*
G01X20424113Y3487861D01*
G01X20407095Y3487861D01*
G01X20395665Y3482273D01*
G01X20384235Y3470843D01*
G01X20378393Y3453571D01*
G01X20378393Y3442141D01*
G01X20384235Y3425123D01*
G01X20395665Y3413693D01*
G01X20407095Y3407851D01*
G01X20424113Y3407851D01*
G01X20435543Y3413693D01*
G01X20446973Y3425123D01*
G01X20494725Y3487861D02*
G01X20494725Y3407851D01*
G01X20494725Y3453571D02*
G01X20500567Y3470843D01*
G01X20511997Y3482273D01*
G01X20523427Y3487861D01*
G01X20540445Y3487861D01*
G01X20588197Y3459413D02*
G01X20691067Y3459413D01*
G01X20738819Y3527993D02*
G01X20738819Y3407851D01*
G01X20738819Y3527993D02*
G01X20790381Y3527993D01*
G01X20807399Y3522151D01*
G01X20813241Y3516563D01*
G01X20818829Y3505133D01*
G01X20818829Y3493703D01*
G01X20813241Y3482273D01*
G01X20807399Y3476431D01*
G01X20790381Y3470843D01*
G01X20738819Y3470843D02*
G01X20790381Y3470843D01*
G01X20807399Y3465001D01*
G01X20813241Y3459413D01*
G01X20818829Y3447983D01*
G01X20818829Y3430711D01*
G01X20813241Y3419281D01*
G01X20807399Y3413693D01*
G01X20790381Y3407851D01*
G01X20738819Y3407851D01*
G01X20895283Y3487861D02*
G01X20883853Y3482273D01*
G01X20872423Y3470843D01*
G01X20866581Y3453571D01*
G01X20866581Y3442141D01*
G01X20872423Y3425123D01*
G01X20883853Y3413693D01*
G01X20895283Y3407851D01*
G01X20912301Y3407851D01*
G01X20923731Y3413693D01*
G01X20935161Y3425123D01*
G01X20941003Y3442141D01*
G01X20941003Y3453571D01*
G01X20935161Y3470843D01*
G01X20923731Y3482273D01*
G01X20912301Y3487861D01*
G01X20895283Y3487861D01*
G01X21006027Y3527993D02*
G01X21006027Y3430711D01*
G01X21011615Y3413693D01*
G01X21023045Y3407851D01*
G01X21034475Y3407851D01*
G01X20988755Y3487861D02*
G01X21028887Y3487861D01*
G01X21099499Y3527993D02*
G01X21099499Y3430711D01*
G01X21105087Y3413693D01*
G01X21116517Y3407851D01*
G01X21127947Y3407851D01*
G01X21082227Y3487861D02*
G01X21122359Y3487861D01*
G01X21204401Y3487861D02*
G01X21192971Y3482273D01*
G01X21181541Y3470843D01*
G01X21175699Y3453571D01*
G01X21175699Y3442141D01*
G01X21181541Y3425123D01*
G01X21192971Y3413693D01*
G01X21204401Y3407851D01*
G01X21221419Y3407851D01*
G01X21232849Y3413693D01*
G01X21244279Y3425123D01*
G01X21250121Y3442141D01*
G01X21250121Y3453571D01*
G01X21244279Y3470843D01*
G01X21232849Y3482273D01*
G01X21221419Y3487861D01*
G01X21204401Y3487861D01*
G01X21297873Y3487861D02*
G01X21297873Y3407851D01*
G01X21297873Y3465001D02*
G01X21315145Y3482273D01*
G01X21326575Y3487861D01*
G01X21343593Y3487861D01*
G01X21355023Y3482273D01*
G01X21360865Y3465001D01*
G01X21360865Y3407851D01*
G01X21360865Y3465001D02*
G01X21377883Y3482273D01*
G01X21389313Y3487861D01*
G01X21406585Y3487861D01*
G01X21418015Y3482273D01*
G01X21423603Y3465001D01*
G01X21423603Y3407851D01*
G01X21599371Y3527993D02*
G01X21599371Y3407851D01*
G01X21599371Y3407851D02*
G01X21667951Y3407851D01*
G01X21784283Y3487861D02*
G01X21784283Y3407851D01*
G01X21784283Y3470843D02*
G01X21772853Y3482273D01*
G01X21761423Y3487861D01*
G01X21744405Y3487861D01*
G01X21732975Y3482273D01*
G01X21721545Y3470843D01*
G01X21715703Y3453571D01*
G01X21715703Y3442141D01*
G01X21721545Y3425123D01*
G01X21732975Y3413693D01*
G01X21744405Y3407851D01*
G01X21761423Y3407851D01*
G01X21772853Y3413693D01*
G01X21784283Y3425123D01*
G01X21837877Y3487861D02*
G01X21872167Y3407851D01*
G01X21906457Y3487861D02*
G01X21872167Y3407851D01*
G01X21860737Y3384991D01*
G01X21849307Y3373561D01*
G01X21837877Y3367973D01*
G01X21832035Y3367973D01*
G01X21954209Y3453571D02*
G01X22022789Y3453571D01*
G01X22022789Y3465001D01*
G01X22017201Y3476431D01*
G01X22011359Y3482273D01*
G01X21999929Y3487861D01*
G01X21982911Y3487861D01*
G01X21971481Y3482273D01*
G01X21960051Y3470843D01*
G01X21954209Y3453571D01*
G01X21954209Y3442141D01*
G01X21960051Y3425123D01*
G01X21971481Y3413693D01*
G01X21982911Y3407851D01*
G01X21999929Y3407851D01*
G01X22011359Y3413693D01*
G01X22022789Y3425123D01*
G01X22070541Y3487861D02*
G01X22070541Y3407851D01*
G01X22070541Y3453571D02*
G01X22076383Y3470843D01*
G01X22087813Y3482273D01*
G01X22099243Y3487861D01*
G01X22116261Y3487861D01*
G01X7644248Y2947422D02*
G01X7587098Y2867412D01*
G01X7672950Y2867412D01*
G01X7644248Y2947422D02*
G01X7644248Y2827280D01*
G01X9007103Y2918720D02*
G01X9007103Y2924562D01*
G01X9012691Y2935992D01*
G01X9018533Y2941580D01*
G01X9029963Y2947422D01*
G01X9052823Y2947422D01*
G01X9064253Y2941580D01*
G01X9069841Y2935992D01*
G01X9075683Y2924562D01*
G01X9075683Y2913132D01*
G01X9069841Y2901702D01*
G01X9058411Y2884430D01*
G01X9001261Y2827280D01*
G01X9081271Y2827280D01*
G01X9186173Y2947422D02*
G01X9129023Y2867412D01*
G01X9214875Y2867412D01*
G01X9186173Y2947422D02*
G01X9186173Y2827280D01*
G01X9296917Y2947422D02*
G01X9279899Y2941580D01*
G01X9268469Y2924562D01*
G01X9262627Y2895860D01*
G01X9262627Y2878842D01*
G01X9268469Y2850140D01*
G01X9279899Y2833122D01*
G01X9296917Y2827280D01*
G01X9308347Y2827280D01*
G01X9325619Y2833122D01*
G01X9337049Y2850140D01*
G01X9342637Y2878842D01*
G01X9342637Y2895860D01*
G01X9337049Y2924562D01*
G01X9325619Y2941580D01*
G01X9308347Y2947422D01*
G01X9296917Y2947422D01*
G01X9396231Y2855982D02*
G01X9390389Y2850140D01*
G01X9396231Y2844552D01*
G01X9401819Y2850140D01*
G01X9396231Y2855982D01*
G01X9455413Y2918720D02*
G01X9455413Y2924562D01*
G01X9461001Y2935992D01*
G01X9466843Y2941580D01*
G01X9478273Y2947422D01*
G01X9501133Y2947422D01*
G01X9512563Y2941580D01*
G01X9518151Y2935992D01*
G01X9523993Y2924562D01*
G01X9523993Y2913132D01*
G01X9518151Y2901702D01*
G01X9506721Y2884430D01*
G01X9449571Y2827280D01*
G01X9529581Y2827280D01*
G01X9577333Y2907290D02*
G01X9640325Y2827280D01*
G01X9640325Y2907290D02*
G01X9577333Y2827280D01*
G01X9693919Y2918720D02*
G01X9693919Y2924562D01*
G01X9699507Y2935992D01*
G01X9705349Y2941580D01*
G01X9716779Y2947422D01*
G01X9739639Y2947422D01*
G01X9751069Y2941580D01*
G01X9756657Y2935992D01*
G01X9762499Y2924562D01*
G01X9762499Y2913132D01*
G01X9756657Y2901702D01*
G01X9745227Y2884430D01*
G01X9688077Y2827280D01*
G01X9768087Y2827280D01*
G01X9872989Y2947422D02*
G01X9815839Y2867412D01*
G01X9901691Y2867412D01*
G01X9872989Y2947422D02*
G01X9872989Y2827280D01*
G01X9983733Y2947422D02*
G01X9966715Y2941580D01*
G01X9955285Y2924562D01*
G01X9949443Y2895860D01*
G01X9949443Y2878842D01*
G01X9955285Y2850140D01*
G01X9966715Y2833122D01*
G01X9983733Y2827280D01*
G01X9995163Y2827280D01*
G01X10012435Y2833122D01*
G01X10023865Y2850140D01*
G01X10029453Y2878842D01*
G01X10029453Y2895860D01*
G01X10023865Y2924562D01*
G01X10012435Y2941580D01*
G01X9995163Y2947422D01*
G01X9983733Y2947422D01*
G01X10083047Y2855982D02*
G01X10077205Y2850140D01*
G01X10083047Y2844552D01*
G01X10088635Y2850140D01*
G01X10083047Y2855982D01*
G01X10142229Y2918720D02*
G01X10142229Y2924562D01*
G01X10147817Y2935992D01*
G01X10153659Y2941580D01*
G01X10165089Y2947422D01*
G01X10187949Y2947422D01*
G01X10199379Y2941580D01*
G01X10204967Y2935992D01*
G01X10210809Y2924562D01*
G01X10210809Y2913132D01*
G01X10204967Y2901702D01*
G01X10193537Y2884430D01*
G01X10136387Y2827280D01*
G01X10216397Y2827280D01*
G01X10264149Y2907290D02*
G01X10264149Y2827280D01*
G01X10264149Y2884430D02*
G01X10281421Y2901702D01*
G01X10292851Y2907290D01*
G01X10309869Y2907290D01*
G01X10321299Y2901702D01*
G01X10327141Y2884430D01*
G01X10327141Y2827280D01*
G01X10327141Y2884430D02*
G01X10344159Y2901702D01*
G01X10355589Y2907290D01*
G01X10372861Y2907290D01*
G01X10384291Y2901702D01*
G01X10389879Y2884430D01*
G01X10389879Y2827280D01*
G01X10437631Y2947422D02*
G01X10443473Y2941580D01*
G01X10449061Y2947422D01*
G01X10443473Y2953010D01*
G01X10437631Y2947422D01*
G01X10443473Y2907290D02*
G01X10443473Y2827280D01*
G01X10496813Y2947422D02*
G01X10496813Y2827280D01*
G01X10584697Y2970282D02*
G01X10573267Y2958852D01*
G01X10561837Y2941580D01*
G01X10550407Y2918720D01*
G01X10544565Y2890272D01*
G01X10544565Y2867412D01*
G01X10550407Y2838710D01*
G01X10561837Y2815850D01*
G01X10573267Y2798832D01*
G01X10584697Y2787402D01*
G01X10701029Y2930150D02*
G01X10695441Y2941580D01*
G01X10678169Y2947422D01*
G01X10666739Y2947422D01*
G01X10649721Y2941580D01*
G01X10638291Y2924562D01*
G01X10632449Y2895860D01*
G01X10632449Y2867412D01*
G01X10638291Y2844552D01*
G01X10649721Y2833122D01*
G01X10666739Y2827280D01*
G01X10672581Y2827280D01*
G01X10689599Y2833122D01*
G01X10701029Y2844552D01*
G01X10706871Y2861570D01*
G01X10706871Y2867412D01*
G01X10701029Y2884430D01*
G01X10689599Y2895860D01*
G01X10672581Y2901702D01*
G01X10666739Y2901702D01*
G01X10649721Y2895860D01*
G01X10638291Y2884430D01*
G01X10632449Y2867412D01*
G01X10760465Y2855982D02*
G01X10754623Y2850140D01*
G01X10760465Y2844552D01*
G01X10766053Y2850140D01*
G01X10760465Y2855982D01*
G01X10813805Y2924562D02*
G01X10825235Y2930150D01*
G01X10842507Y2947422D01*
G01X10842507Y2827280D01*
G01X10924549Y2947422D02*
G01X10907531Y2941580D01*
G01X10896101Y2924562D01*
G01X10890259Y2895860D01*
G01X10890259Y2878842D01*
G01X10896101Y2850140D01*
G01X10907531Y2833122D01*
G01X10924549Y2827280D01*
G01X10935979Y2827280D01*
G01X10953251Y2833122D01*
G01X10964681Y2850140D01*
G01X10970269Y2878842D01*
G01X10970269Y2895860D01*
G01X10964681Y2924562D01*
G01X10953251Y2941580D01*
G01X10935979Y2947422D01*
G01X10924549Y2947422D01*
G01X11052311Y2947422D02*
G01X11035293Y2941580D01*
G01X11023863Y2924562D01*
G01X11018021Y2895860D01*
G01X11018021Y2878842D01*
G01X11023863Y2850140D01*
G01X11035293Y2833122D01*
G01X11052311Y2827280D01*
G01X11063741Y2827280D01*
G01X11081013Y2833122D01*
G01X11092443Y2850140D01*
G01X11098031Y2878842D01*
G01X11098031Y2895860D01*
G01X11092443Y2924562D01*
G01X11081013Y2941580D01*
G01X11063741Y2947422D01*
G01X11052311Y2947422D01*
G01X11145783Y2907290D02*
G01X11208775Y2827280D01*
G01X11208775Y2907290D02*
G01X11145783Y2827280D01*
G01X11325107Y2930150D02*
G01X11319519Y2941580D01*
G01X11302247Y2947422D01*
G01X11290817Y2947422D01*
G01X11273799Y2941580D01*
G01X11262369Y2924562D01*
G01X11256527Y2895860D01*
G01X11256527Y2867412D01*
G01X11262369Y2844552D01*
G01X11273799Y2833122D01*
G01X11290817Y2827280D01*
G01X11296659Y2827280D01*
G01X11313677Y2833122D01*
G01X11325107Y2844552D01*
G01X11330949Y2861570D01*
G01X11330949Y2867412D01*
G01X11325107Y2884430D01*
G01X11313677Y2895860D01*
G01X11296659Y2901702D01*
G01X11290817Y2901702D01*
G01X11273799Y2895860D01*
G01X11262369Y2884430D01*
G01X11256527Y2867412D01*
G01X11384543Y2855982D02*
G01X11378701Y2850140D01*
G01X11384543Y2844552D01*
G01X11390131Y2850140D01*
G01X11384543Y2855982D01*
G01X11437883Y2924562D02*
G01X11449313Y2930150D01*
G01X11466585Y2947422D01*
G01X11466585Y2827280D01*
G01X11548627Y2947422D02*
G01X11531609Y2941580D01*
G01X11520179Y2924562D01*
G01X11514337Y2895860D01*
G01X11514337Y2878842D01*
G01X11520179Y2850140D01*
G01X11531609Y2833122D01*
G01X11548627Y2827280D01*
G01X11560057Y2827280D01*
G01X11577329Y2833122D01*
G01X11588759Y2850140D01*
G01X11594347Y2878842D01*
G01X11594347Y2895860D01*
G01X11588759Y2924562D01*
G01X11577329Y2941580D01*
G01X11560057Y2947422D01*
G01X11548627Y2947422D01*
G01X11676389Y2947422D02*
G01X11659371Y2941580D01*
G01X11647941Y2924562D01*
G01X11642099Y2895860D01*
G01X11642099Y2878842D01*
G01X11647941Y2850140D01*
G01X11659371Y2833122D01*
G01X11676389Y2827280D01*
G01X11687819Y2827280D01*
G01X11705091Y2833122D01*
G01X11716521Y2850140D01*
G01X11722109Y2878842D01*
G01X11722109Y2895860D01*
G01X11716521Y2924562D01*
G01X11705091Y2941580D01*
G01X11687819Y2947422D01*
G01X11676389Y2947422D01*
G01X11769861Y2907290D02*
G01X11769861Y2827280D01*
G01X11769861Y2884430D02*
G01X11787133Y2901702D01*
G01X11798563Y2907290D01*
G01X11815581Y2907290D01*
G01X11827011Y2901702D01*
G01X11832853Y2884430D01*
G01X11832853Y2827280D01*
G01X11832853Y2884430D02*
G01X11849871Y2901702D01*
G01X11861301Y2907290D01*
G01X11878573Y2907290D01*
G01X11890003Y2901702D01*
G01X11895591Y2884430D01*
G01X11895591Y2827280D01*
G01X11943343Y2907290D02*
G01X11943343Y2827280D01*
G01X11943343Y2884430D02*
G01X11960615Y2901702D01*
G01X11972045Y2907290D01*
G01X11989063Y2907290D01*
G01X12000493Y2901702D01*
G01X12006335Y2884430D01*
G01X12006335Y2827280D01*
G01X12006335Y2884430D02*
G01X12023353Y2901702D01*
G01X12034783Y2907290D01*
G01X12052055Y2907290D01*
G01X12063485Y2901702D01*
G01X12069073Y2884430D01*
G01X12069073Y2827280D01*
G01X12116825Y2970282D02*
G01X12128255Y2958852D01*
G01X12139685Y2941580D01*
G01X12151115Y2918720D01*
G01X12156957Y2890272D01*
G01X12156957Y2867412D01*
G01X12151115Y2838710D01*
G01X12139685Y2815850D01*
G01X12128255Y2798832D01*
G01X12116825Y2787402D01*
G01X13048134Y2947422D02*
G01X13048134Y2827280D01*
G01X13048134Y2947422D02*
G01X13099696Y2947422D01*
G01X13116714Y2941580D01*
G01X13122556Y2935992D01*
G01X13128144Y2924562D01*
G01X13128144Y2907290D01*
G01X13122556Y2895860D01*
G01X13116714Y2890272D01*
G01X13099696Y2884430D01*
G01X13048134Y2884430D01*
G01X13216028Y2947422D02*
G01X13216028Y2827280D01*
G01X13175896Y2947422D02*
G01X13255906Y2947422D01*
G01X13303658Y2947422D02*
G01X13303658Y2827280D01*
G01X13383668Y2947422D02*
G01X13383668Y2827280D01*
G01X13303658Y2890272D02*
G01X13383668Y2890272D01*
G01X14509541Y2947422D02*
G01X14509541Y2827280D01*
G01X14509541Y2947422D02*
G01X14561103Y2947422D01*
G01X14578121Y2941580D01*
G01X14583963Y2935992D01*
G01X14589551Y2924562D01*
G01X14589551Y2913132D01*
G01X14583963Y2901702D01*
G01X14578121Y2895860D01*
G01X14561103Y2890272D01*
G01X14509541Y2890272D01*
G01X14549673Y2890272D02*
G01X14589551Y2827280D01*
G01X14666005Y2907290D02*
G01X14654575Y2901702D01*
G01X14643145Y2890272D01*
G01X14637303Y2873000D01*
G01X14637303Y2861570D01*
G01X14643145Y2844552D01*
G01X14654575Y2833122D01*
G01X14666005Y2827280D01*
G01X14683023Y2827280D01*
G01X14694453Y2833122D01*
G01X14705883Y2844552D01*
G01X14711725Y2861570D01*
G01X14711725Y2873000D01*
G01X14705883Y2890272D01*
G01X14694453Y2901702D01*
G01X14683023Y2907290D01*
G01X14666005Y2907290D01*
G01X14759477Y2907290D02*
G01X14759477Y2850140D01*
G01X14765319Y2833122D01*
G01X14776749Y2827280D01*
G01X14793767Y2827280D01*
G01X14805197Y2833122D01*
G01X14822469Y2850140D01*
G01X14822469Y2907290D02*
G01X14822469Y2827280D01*
G01X14870221Y2907290D02*
G01X14870221Y2827280D01*
G01X14870221Y2884430D02*
G01X14887493Y2901702D01*
G01X14898923Y2907290D01*
G01X14915941Y2907290D01*
G01X14927371Y2901702D01*
G01X14933213Y2884430D01*
G01X14933213Y2827280D01*
G01X15049545Y2947422D02*
G01X15049545Y2827280D01*
G01X15049545Y2890272D02*
G01X15038115Y2901702D01*
G01X15026685Y2907290D01*
G01X15009667Y2907290D01*
G01X14998237Y2901702D01*
G01X14986807Y2890272D01*
G01X14980965Y2873000D01*
G01X14980965Y2861570D01*
G01X14986807Y2844552D01*
G01X14998237Y2833122D01*
G01X15009667Y2827280D01*
G01X15026685Y2827280D01*
G01X15038115Y2833122D01*
G01X15049545Y2844552D01*
G01X15940723Y2947422D02*
G01X15940723Y2827280D01*
G01X15940723Y2947422D02*
G01X15992285Y2947422D01*
G01X16009303Y2941580D01*
G01X16015145Y2935992D01*
G01X16020733Y2924562D01*
G01X16020733Y2907290D01*
G01X16015145Y2895860D01*
G01X16009303Y2890272D01*
G01X15992285Y2884430D01*
G01X15940723Y2884430D01*
G01X16137065Y2907290D02*
G01X16137065Y2827280D01*
G01X16137065Y2890272D02*
G01X16125635Y2901702D01*
G01X16114205Y2907290D01*
G01X16097187Y2907290D01*
G01X16085757Y2901702D01*
G01X16074327Y2890272D01*
G01X16068485Y2873000D01*
G01X16068485Y2861570D01*
G01X16074327Y2844552D01*
G01X16085757Y2833122D01*
G01X16097187Y2827280D01*
G01X16114205Y2827280D01*
G01X16125635Y2833122D01*
G01X16137065Y2844552D01*
G01X16253397Y2947422D02*
G01X16253397Y2827280D01*
G01X16253397Y2890272D02*
G01X16241967Y2901702D01*
G01X16230537Y2907290D01*
G01X16213519Y2907290D01*
G01X16202089Y2901702D01*
G01X16190659Y2890272D01*
G01X16184817Y2873000D01*
G01X16184817Y2861570D01*
G01X16190659Y2844552D01*
G01X16202089Y2833122D01*
G01X16213519Y2827280D01*
G01X16230537Y2827280D01*
G01X16241967Y2833122D01*
G01X16253397Y2844552D01*
G01X17609902Y2947422D02*
G01X17609902Y2827280D01*
G01X17609902Y2947422D02*
G01X17661464Y2947422D01*
G01X17678482Y2941580D01*
G01X17684324Y2935992D01*
G01X17689912Y2924562D01*
G01X17689912Y2913132D01*
G01X17684324Y2901702D01*
G01X17678482Y2895860D01*
G01X17661464Y2890272D01*
G01X17609902Y2890272D01*
G01X17650034Y2890272D02*
G01X17689912Y2827280D01*
G01X17766366Y2907290D02*
G01X17754936Y2901702D01*
G01X17743506Y2890272D01*
G01X17737664Y2873000D01*
G01X17737664Y2861570D01*
G01X17743506Y2844552D01*
G01X17754936Y2833122D01*
G01X17766366Y2827280D01*
G01X17783384Y2827280D01*
G01X17794814Y2833122D01*
G01X17806244Y2844552D01*
G01X17812086Y2861570D01*
G01X17812086Y2873000D01*
G01X17806244Y2890272D01*
G01X17794814Y2901702D01*
G01X17783384Y2907290D01*
G01X17766366Y2907290D01*
G01X17859838Y2907290D02*
G01X17859838Y2850140D01*
G01X17865680Y2833122D01*
G01X17877110Y2827280D01*
G01X17894128Y2827280D01*
G01X17905558Y2833122D01*
G01X17922830Y2850140D01*
G01X17922830Y2907290D02*
G01X17922830Y2827280D01*
G01X17970582Y2907290D02*
G01X17970582Y2827280D01*
G01X17970582Y2884430D02*
G01X17987854Y2901702D01*
G01X17999284Y2907290D01*
G01X18016302Y2907290D01*
G01X18027732Y2901702D01*
G01X18033574Y2884430D01*
G01X18033574Y2827280D01*
G01X18149906Y2947422D02*
G01X18149906Y2827280D01*
G01X18149906Y2890272D02*
G01X18138476Y2901702D01*
G01X18127046Y2907290D01*
G01X18110028Y2907290D01*
G01X18098598Y2901702D01*
G01X18087168Y2890272D01*
G01X18081326Y2873000D01*
G01X18081326Y2861570D01*
G01X18087168Y2844552D01*
G01X18098598Y2833122D01*
G01X18110028Y2827280D01*
G01X18127046Y2827280D01*
G01X18138476Y2833122D01*
G01X18149906Y2844552D01*
G01X19569403Y2947422D02*
G01X19569403Y2827280D01*
G01X19529271Y2947422D02*
G01X19609281Y2947422D01*
G01X19685735Y2907290D02*
G01X19674305Y2901702D01*
G01X19662875Y2890272D01*
G01X19657033Y2873000D01*
G01X19657033Y2861570D01*
G01X19662875Y2844552D01*
G01X19674305Y2833122D01*
G01X19685735Y2827280D01*
G01X19702753Y2827280D01*
G01X19714183Y2833122D01*
G01X19725613Y2844552D01*
G01X19731455Y2861570D01*
G01X19731455Y2873000D01*
G01X19725613Y2890272D01*
G01X19714183Y2901702D01*
G01X19702753Y2907290D01*
G01X19685735Y2907290D01*
G01X19779207Y2907290D02*
G01X19779207Y2787402D01*
G01X19779207Y2890272D02*
G01X19790637Y2901702D01*
G01X19802067Y2907290D01*
G01X19819339Y2907290D01*
G01X19830769Y2901702D01*
G01X19842199Y2890272D01*
G01X19847787Y2873000D01*
G01X19847787Y2861570D01*
G01X19842199Y2844552D01*
G01X19830769Y2833122D01*
G01X19819339Y2827280D01*
G01X19802067Y2827280D01*
G01X19790637Y2833122D01*
G01X19779207Y2844552D01*
G01X20023555Y2947422D02*
G01X20023555Y2827280D01*
G01X20023555Y2827280D02*
G01X20092135Y2827280D01*
G01X20208467Y2907290D02*
G01X20208467Y2827280D01*
G01X20208467Y2890272D02*
G01X20197037Y2901702D01*
G01X20185607Y2907290D01*
G01X20168589Y2907290D01*
G01X20157159Y2901702D01*
G01X20145729Y2890272D01*
G01X20139887Y2873000D01*
G01X20139887Y2861570D01*
G01X20145729Y2844552D01*
G01X20157159Y2833122D01*
G01X20168589Y2827280D01*
G01X20185607Y2827280D01*
G01X20197037Y2833122D01*
G01X20208467Y2844552D01*
G01X20262061Y2907290D02*
G01X20296351Y2827280D01*
G01X20330641Y2907290D02*
G01X20296351Y2827280D01*
G01X20284921Y2804420D01*
G01X20273491Y2792990D01*
G01X20262061Y2787402D01*
G01X20256219Y2787402D01*
G01X20378393Y2873000D02*
G01X20446973Y2873000D01*
G01X20446973Y2884430D01*
G01X20441385Y2895860D01*
G01X20435543Y2901702D01*
G01X20424113Y2907290D01*
G01X20407095Y2907290D01*
G01X20395665Y2901702D01*
G01X20384235Y2890272D01*
G01X20378393Y2873000D01*
G01X20378393Y2861570D01*
G01X20384235Y2844552D01*
G01X20395665Y2833122D01*
G01X20407095Y2827280D01*
G01X20424113Y2827280D01*
G01X20435543Y2833122D01*
G01X20446973Y2844552D01*
G01X20494725Y2907290D02*
G01X20494725Y2827280D01*
G01X20494725Y2873000D02*
G01X20500567Y2890272D01*
G01X20511997Y2901702D01*
G01X20523427Y2907290D01*
G01X20540445Y2907290D01*
G01X20588197Y2878842D02*
G01X20691067Y2878842D01*
G01X20738819Y2947422D02*
G01X20738819Y2827280D01*
G01X20738819Y2947422D02*
G01X20790381Y2947422D01*
G01X20807399Y2941580D01*
G01X20813241Y2935992D01*
G01X20818829Y2924562D01*
G01X20818829Y2913132D01*
G01X20813241Y2901702D01*
G01X20807399Y2895860D01*
G01X20790381Y2890272D01*
G01X20738819Y2890272D02*
G01X20790381Y2890272D01*
G01X20807399Y2884430D01*
G01X20813241Y2878842D01*
G01X20818829Y2867412D01*
G01X20818829Y2850140D01*
G01X20813241Y2838710D01*
G01X20807399Y2833122D01*
G01X20790381Y2827280D01*
G01X20738819Y2827280D01*
G01X20895283Y2907290D02*
G01X20883853Y2901702D01*
G01X20872423Y2890272D01*
G01X20866581Y2873000D01*
G01X20866581Y2861570D01*
G01X20872423Y2844552D01*
G01X20883853Y2833122D01*
G01X20895283Y2827280D01*
G01X20912301Y2827280D01*
G01X20923731Y2833122D01*
G01X20935161Y2844552D01*
G01X20941003Y2861570D01*
G01X20941003Y2873000D01*
G01X20935161Y2890272D01*
G01X20923731Y2901702D01*
G01X20912301Y2907290D01*
G01X20895283Y2907290D01*
G01X21006027Y2947422D02*
G01X21006027Y2850140D01*
G01X21011615Y2833122D01*
G01X21023045Y2827280D01*
G01X21034475Y2827280D01*
G01X20988755Y2907290D02*
G01X21028887Y2907290D01*
G01X21099499Y2947422D02*
G01X21099499Y2850140D01*
G01X21105087Y2833122D01*
G01X21116517Y2827280D01*
G01X21127947Y2827280D01*
G01X21082227Y2907290D02*
G01X21122359Y2907290D01*
G01X21204401Y2907290D02*
G01X21192971Y2901702D01*
G01X21181541Y2890272D01*
G01X21175699Y2873000D01*
G01X21175699Y2861570D01*
G01X21181541Y2844552D01*
G01X21192971Y2833122D01*
G01X21204401Y2827280D01*
G01X21221419Y2827280D01*
G01X21232849Y2833122D01*
G01X21244279Y2844552D01*
G01X21250121Y2861570D01*
G01X21250121Y2873000D01*
G01X21244279Y2890272D01*
G01X21232849Y2901702D01*
G01X21221419Y2907290D01*
G01X21204401Y2907290D01*
G01X21297873Y2907290D02*
G01X21297873Y2827280D01*
G01X21297873Y2884430D02*
G01X21315145Y2901702D01*
G01X21326575Y2907290D01*
G01X21343593Y2907290D01*
G01X21355023Y2901702D01*
G01X21360865Y2884430D01*
G01X21360865Y2827280D01*
G01X21360865Y2884430D02*
G01X21377883Y2901702D01*
G01X21389313Y2907290D01*
G01X21406585Y2907290D01*
G01X21418015Y2901702D01*
G01X21423603Y2884430D01*
G01X21423603Y2827280D01*
G01X21599371Y2947422D02*
G01X21599371Y2827280D01*
G01X21599371Y2827280D02*
G01X21667951Y2827280D01*
G01X21784283Y2907290D02*
G01X21784283Y2827280D01*
G01X21784283Y2890272D02*
G01X21772853Y2901702D01*
G01X21761423Y2907290D01*
G01X21744405Y2907290D01*
G01X21732975Y2901702D01*
G01X21721545Y2890272D01*
G01X21715703Y2873000D01*
G01X21715703Y2861570D01*
G01X21721545Y2844552D01*
G01X21732975Y2833122D01*
G01X21744405Y2827280D01*
G01X21761423Y2827280D01*
G01X21772853Y2833122D01*
G01X21784283Y2844552D01*
G01X21837877Y2907290D02*
G01X21872167Y2827280D01*
G01X21906457Y2907290D02*
G01X21872167Y2827280D01*
G01X21860737Y2804420D01*
G01X21849307Y2792990D01*
G01X21837877Y2787402D01*
G01X21832035Y2787402D01*
G01X21954209Y2873000D02*
G01X22022789Y2873000D01*
G01X22022789Y2884430D01*
G01X22017201Y2895860D01*
G01X22011359Y2901702D01*
G01X21999929Y2907290D01*
G01X21982911Y2907290D01*
G01X21971481Y2901702D01*
G01X21960051Y2890272D01*
G01X21954209Y2873000D01*
G01X21954209Y2861570D01*
G01X21960051Y2844552D01*
G01X21971481Y2833122D01*
G01X21982911Y2827280D01*
G01X21999929Y2827280D01*
G01X22011359Y2833122D01*
G01X22022789Y2844552D01*
G01X22070541Y2907290D02*
G01X22070541Y2827280D01*
G01X22070541Y2873000D02*
G01X22076383Y2890272D01*
G01X22087813Y2901702D01*
G01X22099243Y2907290D01*
G01X22116261Y2907290D01*
G01X7644248Y2366850D02*
G01X7587098Y2286840D01*
G01X7672950Y2286840D01*
G01X7644248Y2366850D02*
G01X7644248Y2246708D01*
G01X9007103Y2338148D02*
G01X9007103Y2343990D01*
G01X9012691Y2355420D01*
G01X9018533Y2361008D01*
G01X9029963Y2366850D01*
G01X9052823Y2366850D01*
G01X9064253Y2361008D01*
G01X9069841Y2355420D01*
G01X9075683Y2343990D01*
G01X9075683Y2332560D01*
G01X9069841Y2321130D01*
G01X9058411Y2303858D01*
G01X9001261Y2246708D01*
G01X9081271Y2246708D01*
G01X9140453Y2366850D02*
G01X9203445Y2366850D01*
G01X9169155Y2321130D01*
G01X9186173Y2321130D01*
G01X9197603Y2315288D01*
G01X9203445Y2309700D01*
G01X9209033Y2292428D01*
G01X9209033Y2280998D01*
G01X9203445Y2263980D01*
G01X9192015Y2252550D01*
G01X9174743Y2246708D01*
G01X9157725Y2246708D01*
G01X9140453Y2252550D01*
G01X9134865Y2258138D01*
G01X9129023Y2269568D01*
G01X9262627Y2275410D02*
G01X9256785Y2269568D01*
G01X9262627Y2263980D01*
G01X9268215Y2269568D01*
G01X9262627Y2275410D01*
G01X9384547Y2349578D02*
G01X9378959Y2361008D01*
G01X9361687Y2366850D01*
G01X9350257Y2366850D01*
G01X9333239Y2361008D01*
G01X9321809Y2343990D01*
G01X9315967Y2315288D01*
G01X9315967Y2286840D01*
G01X9321809Y2263980D01*
G01X9333239Y2252550D01*
G01X9350257Y2246708D01*
G01X9356099Y2246708D01*
G01X9373117Y2252550D01*
G01X9384547Y2263980D01*
G01X9390389Y2280998D01*
G01X9390389Y2286840D01*
G01X9384547Y2303858D01*
G01X9373117Y2315288D01*
G01X9356099Y2321130D01*
G01X9350257Y2321130D01*
G01X9333239Y2315288D01*
G01X9321809Y2303858D01*
G01X9315967Y2286840D01*
G01X9438141Y2326718D02*
G01X9501133Y2246708D01*
G01X9501133Y2326718D02*
G01X9438141Y2246708D01*
G01X9617465Y2366850D02*
G01X9560315Y2366850D01*
G01X9554727Y2315288D01*
G01X9560315Y2321130D01*
G01X9577587Y2326718D01*
G01X9594605Y2326718D01*
G01X9611877Y2321130D01*
G01X9623307Y2309700D01*
G01X9628895Y2292428D01*
G01X9628895Y2280998D01*
G01X9623307Y2263980D01*
G01X9611877Y2252550D01*
G01X9594605Y2246708D01*
G01X9577587Y2246708D01*
G01X9560315Y2252550D01*
G01X9554727Y2258138D01*
G01X9548885Y2269568D01*
G01X9676647Y2343990D02*
G01X9688077Y2349578D01*
G01X9705349Y2366850D01*
G01X9705349Y2246708D01*
G01X9758943Y2275410D02*
G01X9753101Y2269568D01*
G01X9758943Y2263980D01*
G01X9764531Y2269568D01*
G01X9758943Y2275410D01*
G01X9818125Y2338148D02*
G01X9818125Y2343990D01*
G01X9823713Y2355420D01*
G01X9829555Y2361008D01*
G01X9840985Y2366850D01*
G01X9863845Y2366850D01*
G01X9875275Y2361008D01*
G01X9880863Y2355420D01*
G01X9886705Y2343990D01*
G01X9886705Y2332560D01*
G01X9880863Y2321130D01*
G01X9869433Y2303858D01*
G01X9812283Y2246708D01*
G01X9892293Y2246708D01*
G01X9940045Y2326718D02*
G01X9940045Y2246708D01*
G01X9940045Y2303858D02*
G01X9957317Y2321130D01*
G01X9968747Y2326718D01*
G01X9985765Y2326718D01*
G01X9997195Y2321130D01*
G01X10003037Y2303858D01*
G01X10003037Y2246708D01*
G01X10003037Y2303858D02*
G01X10020055Y2321130D01*
G01X10031485Y2326718D01*
G01X10048757Y2326718D01*
G01X10060187Y2321130D01*
G01X10065775Y2303858D01*
G01X10065775Y2246708D01*
G01X10113527Y2366850D02*
G01X10119369Y2361008D01*
G01X10124957Y2366850D01*
G01X10119369Y2372438D01*
G01X10113527Y2366850D01*
G01X10119369Y2326718D02*
G01X10119369Y2246708D01*
G01X10172709Y2366850D02*
G01X10172709Y2246708D01*
G01X10260593Y2389710D02*
G01X10249163Y2378280D01*
G01X10237733Y2361008D01*
G01X10226303Y2338148D01*
G01X10220461Y2309700D01*
G01X10220461Y2286840D01*
G01X10226303Y2258138D01*
G01X10237733Y2235278D01*
G01X10249163Y2218260D01*
G01X10260593Y2206830D01*
G01X10342635Y2366850D02*
G01X10325617Y2361008D01*
G01X10314187Y2343990D01*
G01X10308345Y2315288D01*
G01X10308345Y2298270D01*
G01X10314187Y2269568D01*
G01X10325617Y2252550D01*
G01X10342635Y2246708D01*
G01X10354065Y2246708D01*
G01X10371337Y2252550D01*
G01X10382767Y2269568D01*
G01X10388355Y2298270D01*
G01X10388355Y2315288D01*
G01X10382767Y2343990D01*
G01X10371337Y2361008D01*
G01X10354065Y2366850D01*
G01X10342635Y2366850D01*
G01X10441949Y2275410D02*
G01X10436107Y2269568D01*
G01X10441949Y2263980D01*
G01X10447537Y2269568D01*
G01X10441949Y2275410D01*
G01X10563869Y2349578D02*
G01X10558281Y2361008D01*
G01X10541009Y2366850D01*
G01X10529579Y2366850D01*
G01X10512561Y2361008D01*
G01X10501131Y2343990D01*
G01X10495289Y2315288D01*
G01X10495289Y2286840D01*
G01X10501131Y2263980D01*
G01X10512561Y2252550D01*
G01X10529579Y2246708D01*
G01X10535421Y2246708D01*
G01X10552439Y2252550D01*
G01X10563869Y2263980D01*
G01X10569711Y2280998D01*
G01X10569711Y2286840D01*
G01X10563869Y2303858D01*
G01X10552439Y2315288D01*
G01X10535421Y2321130D01*
G01X10529579Y2321130D01*
G01X10512561Y2315288D01*
G01X10501131Y2303858D01*
G01X10495289Y2286840D01*
G01X10651753Y2366850D02*
G01X10634735Y2361008D01*
G01X10623305Y2343990D01*
G01X10617463Y2315288D01*
G01X10617463Y2298270D01*
G01X10623305Y2269568D01*
G01X10634735Y2252550D01*
G01X10651753Y2246708D01*
G01X10663183Y2246708D01*
G01X10680455Y2252550D01*
G01X10691885Y2269568D01*
G01X10697473Y2298270D01*
G01X10697473Y2315288D01*
G01X10691885Y2343990D01*
G01X10680455Y2361008D01*
G01X10663183Y2366850D01*
G01X10651753Y2366850D01*
G01X10779515Y2366850D02*
G01X10762497Y2361008D01*
G01X10751067Y2343990D01*
G01X10745225Y2315288D01*
G01X10745225Y2298270D01*
G01X10751067Y2269568D01*
G01X10762497Y2252550D01*
G01X10779515Y2246708D01*
G01X10790945Y2246708D01*
G01X10808217Y2252550D01*
G01X10819647Y2269568D01*
G01X10825235Y2298270D01*
G01X10825235Y2315288D01*
G01X10819647Y2343990D01*
G01X10808217Y2361008D01*
G01X10790945Y2366850D01*
G01X10779515Y2366850D01*
G01X10872987Y2326718D02*
G01X10935979Y2246708D01*
G01X10935979Y2326718D02*
G01X10872987Y2246708D01*
G01X10983731Y2343990D02*
G01X10995161Y2349578D01*
G01X11012433Y2366850D01*
G01X11012433Y2246708D01*
G01X11066027Y2275410D02*
G01X11060185Y2269568D01*
G01X11066027Y2263980D01*
G01X11071615Y2269568D01*
G01X11066027Y2275410D01*
G01X11130797Y2366850D02*
G01X11193789Y2366850D01*
G01X11159499Y2321130D01*
G01X11176517Y2321130D01*
G01X11187947Y2315288D01*
G01X11193789Y2309700D01*
G01X11199377Y2292428D01*
G01X11199377Y2280998D01*
G01X11193789Y2263980D01*
G01X11182359Y2252550D01*
G01X11165087Y2246708D01*
G01X11148069Y2246708D01*
G01X11130797Y2252550D01*
G01X11125209Y2258138D01*
G01X11119367Y2269568D01*
G01X11281419Y2366850D02*
G01X11264401Y2361008D01*
G01X11252971Y2343990D01*
G01X11247129Y2315288D01*
G01X11247129Y2298270D01*
G01X11252971Y2269568D01*
G01X11264401Y2252550D01*
G01X11281419Y2246708D01*
G01X11292849Y2246708D01*
G01X11310121Y2252550D01*
G01X11321551Y2269568D01*
G01X11327139Y2298270D01*
G01X11327139Y2315288D01*
G01X11321551Y2343990D01*
G01X11310121Y2361008D01*
G01X11292849Y2366850D01*
G01X11281419Y2366850D01*
G01X11409181Y2366850D02*
G01X11392163Y2361008D01*
G01X11380733Y2343990D01*
G01X11374891Y2315288D01*
G01X11374891Y2298270D01*
G01X11380733Y2269568D01*
G01X11392163Y2252550D01*
G01X11409181Y2246708D01*
G01X11420611Y2246708D01*
G01X11437883Y2252550D01*
G01X11449313Y2269568D01*
G01X11454901Y2298270D01*
G01X11454901Y2315288D01*
G01X11449313Y2343990D01*
G01X11437883Y2361008D01*
G01X11420611Y2366850D01*
G01X11409181Y2366850D01*
G01X11502653Y2326718D02*
G01X11502653Y2246708D01*
G01X11502653Y2303858D02*
G01X11519925Y2321130D01*
G01X11531355Y2326718D01*
G01X11548373Y2326718D01*
G01X11559803Y2321130D01*
G01X11565645Y2303858D01*
G01X11565645Y2246708D01*
G01X11565645Y2303858D02*
G01X11582663Y2321130D01*
G01X11594093Y2326718D01*
G01X11611365Y2326718D01*
G01X11622795Y2321130D01*
G01X11628383Y2303858D01*
G01X11628383Y2246708D01*
G01X11676135Y2326718D02*
G01X11676135Y2246708D01*
G01X11676135Y2303858D02*
G01X11693407Y2321130D01*
G01X11704837Y2326718D01*
G01X11721855Y2326718D01*
G01X11733285Y2321130D01*
G01X11739127Y2303858D01*
G01X11739127Y2246708D01*
G01X11739127Y2303858D02*
G01X11756145Y2321130D01*
G01X11767575Y2326718D01*
G01X11784847Y2326718D01*
G01X11796277Y2321130D01*
G01X11801865Y2303858D01*
G01X11801865Y2246708D01*
G01X11849617Y2389710D02*
G01X11861047Y2378280D01*
G01X11872477Y2361008D01*
G01X11883907Y2338148D01*
G01X11889749Y2309700D01*
G01X11889749Y2286840D01*
G01X11883907Y2258138D01*
G01X11872477Y2235278D01*
G01X11861047Y2218260D01*
G01X11849617Y2206830D01*
G01X13048134Y2366850D02*
G01X13048134Y2246708D01*
G01X13048134Y2366850D02*
G01X13099696Y2366850D01*
G01X13116714Y2361008D01*
G01X13122556Y2355420D01*
G01X13128144Y2343990D01*
G01X13128144Y2326718D01*
G01X13122556Y2315288D01*
G01X13116714Y2309700D01*
G01X13099696Y2303858D01*
G01X13048134Y2303858D01*
G01X13216028Y2366850D02*
G01X13216028Y2246708D01*
G01X13175896Y2366850D02*
G01X13255906Y2366850D01*
G01X13303658Y2366850D02*
G01X13303658Y2246708D01*
G01X13383668Y2366850D02*
G01X13383668Y2246708D01*
G01X13303658Y2309700D02*
G01X13383668Y2309700D01*
G01X14589551Y2349578D02*
G01X14578121Y2361008D01*
G01X14561103Y2366850D01*
G01X14538243Y2366850D01*
G01X14520971Y2361008D01*
G01X14509541Y2349578D01*
G01X14509541Y2338148D01*
G01X14515383Y2326718D01*
G01X14520971Y2321130D01*
G01X14532401Y2315288D01*
G01X14566691Y2303858D01*
G01X14578121Y2298270D01*
G01X14583963Y2292428D01*
G01X14589551Y2280998D01*
G01X14589551Y2263980D01*
G01X14578121Y2252550D01*
G01X14561103Y2246708D01*
G01X14538243Y2246708D01*
G01X14520971Y2252550D01*
G01X14509541Y2263980D01*
G01X14637303Y2366850D02*
G01X14637303Y2246708D01*
G01X14713757Y2326718D02*
G01X14702327Y2321130D01*
G01X14690897Y2309700D01*
G01X14685055Y2292428D01*
G01X14685055Y2280998D01*
G01X14690897Y2263980D01*
G01X14702327Y2252550D01*
G01X14713757Y2246708D01*
G01X14730775Y2246708D01*
G01X14742205Y2252550D01*
G01X14753635Y2263980D01*
G01X14759477Y2280998D01*
G01X14759477Y2292428D01*
G01X14753635Y2309700D01*
G01X14742205Y2321130D01*
G01X14730775Y2326718D01*
G01X14713757Y2326718D01*
G01X14824501Y2366850D02*
G01X14824501Y2269568D01*
G01X14830089Y2252550D01*
G01X14841519Y2246708D01*
G01X14852949Y2246708D01*
G01X14807229Y2326718D02*
G01X14847361Y2326718D01*
G01X15940723Y2366850D02*
G01X15940723Y2246708D01*
G01X15940723Y2366850D02*
G01X15992285Y2366850D01*
G01X16009303Y2361008D01*
G01X16015145Y2355420D01*
G01X16020733Y2343990D01*
G01X16020733Y2326718D01*
G01X16015145Y2315288D01*
G01X16009303Y2309700D01*
G01X15992285Y2303858D01*
G01X15940723Y2303858D01*
G01X16137065Y2326718D02*
G01X16137065Y2246708D01*
G01X16137065Y2309700D02*
G01X16125635Y2321130D01*
G01X16114205Y2326718D01*
G01X16097187Y2326718D01*
G01X16085757Y2321130D01*
G01X16074327Y2309700D01*
G01X16068485Y2292428D01*
G01X16068485Y2280998D01*
G01X16074327Y2263980D01*
G01X16085757Y2252550D01*
G01X16097187Y2246708D01*
G01X16114205Y2246708D01*
G01X16125635Y2252550D01*
G01X16137065Y2263980D01*
G01X16253397Y2366850D02*
G01X16253397Y2246708D01*
G01X16253397Y2309700D02*
G01X16241967Y2321130D01*
G01X16230537Y2326718D01*
G01X16213519Y2326718D01*
G01X16202089Y2321130D01*
G01X16190659Y2309700D01*
G01X16184817Y2292428D01*
G01X16184817Y2280998D01*
G01X16190659Y2263980D01*
G01X16202089Y2252550D01*
G01X16213519Y2246708D01*
G01X16230537Y2246708D01*
G01X16241967Y2252550D01*
G01X16253397Y2263980D01*
G01X17644192Y2366850D02*
G01X17632762Y2361008D01*
G01X17621332Y2349578D01*
G01X17615744Y2338148D01*
G01X17609902Y2321130D01*
G01X17609902Y2292428D01*
G01X17615744Y2275410D01*
G01X17621332Y2263980D01*
G01X17632762Y2252550D01*
G01X17644192Y2246708D01*
G01X17667052Y2246708D01*
G01X17678482Y2252550D01*
G01X17689912Y2263980D01*
G01X17695754Y2275410D01*
G01X17701342Y2292428D01*
G01X17701342Y2321130D01*
G01X17695754Y2338148D01*
G01X17689912Y2349578D01*
G01X17678482Y2361008D01*
G01X17667052Y2366850D01*
G01X17644192Y2366850D01*
G01X17749094Y2326718D02*
G01X17783384Y2246708D01*
G01X17817674Y2326718D02*
G01X17783384Y2246708D01*
G01X17934006Y2326718D02*
G01X17934006Y2246708D01*
G01X17934006Y2309700D02*
G01X17922576Y2321130D01*
G01X17911146Y2326718D01*
G01X17894128Y2326718D01*
G01X17882698Y2321130D01*
G01X17871268Y2309700D01*
G01X17865426Y2292428D01*
G01X17865426Y2280998D01*
G01X17871268Y2263980D01*
G01X17882698Y2252550D01*
G01X17894128Y2246708D01*
G01X17911146Y2246708D01*
G01X17922576Y2252550D01*
G01X17934006Y2263980D01*
G01X17981758Y2366850D02*
G01X17981758Y2246708D01*
G01X19569403Y2366850D02*
G01X19569403Y2246708D01*
G01X19529271Y2366850D02*
G01X19609281Y2366850D01*
G01X19685735Y2326718D02*
G01X19674305Y2321130D01*
G01X19662875Y2309700D01*
G01X19657033Y2292428D01*
G01X19657033Y2280998D01*
G01X19662875Y2263980D01*
G01X19674305Y2252550D01*
G01X19685735Y2246708D01*
G01X19702753Y2246708D01*
G01X19714183Y2252550D01*
G01X19725613Y2263980D01*
G01X19731455Y2280998D01*
G01X19731455Y2292428D01*
G01X19725613Y2309700D01*
G01X19714183Y2321130D01*
G01X19702753Y2326718D01*
G01X19685735Y2326718D01*
G01X19779207Y2326718D02*
G01X19779207Y2206830D01*
G01X19779207Y2309700D02*
G01X19790637Y2321130D01*
G01X19802067Y2326718D01*
G01X19819339Y2326718D01*
G01X19830769Y2321130D01*
G01X19842199Y2309700D01*
G01X19847787Y2292428D01*
G01X19847787Y2280998D01*
G01X19842199Y2263980D01*
G01X19830769Y2252550D01*
G01X19819339Y2246708D01*
G01X19802067Y2246708D01*
G01X19790637Y2252550D01*
G01X19779207Y2263980D01*
G01X20023555Y2366850D02*
G01X20023555Y2246708D01*
G01X20023555Y2246708D02*
G01X20092135Y2246708D01*
G01X20208467Y2326718D02*
G01X20208467Y2246708D01*
G01X20208467Y2309700D02*
G01X20197037Y2321130D01*
G01X20185607Y2326718D01*
G01X20168589Y2326718D01*
G01X20157159Y2321130D01*
G01X20145729Y2309700D01*
G01X20139887Y2292428D01*
G01X20139887Y2280998D01*
G01X20145729Y2263980D01*
G01X20157159Y2252550D01*
G01X20168589Y2246708D01*
G01X20185607Y2246708D01*
G01X20197037Y2252550D01*
G01X20208467Y2263980D01*
G01X20262061Y2326718D02*
G01X20296351Y2246708D01*
G01X20330641Y2326718D02*
G01X20296351Y2246708D01*
G01X20284921Y2223848D01*
G01X20273491Y2212418D01*
G01X20262061Y2206830D01*
G01X20256219Y2206830D01*
G01X20378393Y2292428D02*
G01X20446973Y2292428D01*
G01X20446973Y2303858D01*
G01X20441385Y2315288D01*
G01X20435543Y2321130D01*
G01X20424113Y2326718D01*
G01X20407095Y2326718D01*
G01X20395665Y2321130D01*
G01X20384235Y2309700D01*
G01X20378393Y2292428D01*
G01X20378393Y2280998D01*
G01X20384235Y2263980D01*
G01X20395665Y2252550D01*
G01X20407095Y2246708D01*
G01X20424113Y2246708D01*
G01X20435543Y2252550D01*
G01X20446973Y2263980D01*
G01X20494725Y2326718D02*
G01X20494725Y2246708D01*
G01X20494725Y2292428D02*
G01X20500567Y2309700D01*
G01X20511997Y2321130D01*
G01X20523427Y2326718D01*
G01X20540445Y2326718D01*
G01X20588197Y2298270D02*
G01X20691067Y2298270D01*
G01X20738819Y2366850D02*
G01X20738819Y2246708D01*
G01X20738819Y2366850D02*
G01X20790381Y2366850D01*
G01X20807399Y2361008D01*
G01X20813241Y2355420D01*
G01X20818829Y2343990D01*
G01X20818829Y2332560D01*
G01X20813241Y2321130D01*
G01X20807399Y2315288D01*
G01X20790381Y2309700D01*
G01X20738819Y2309700D02*
G01X20790381Y2309700D01*
G01X20807399Y2303858D01*
G01X20813241Y2298270D01*
G01X20818829Y2286840D01*
G01X20818829Y2269568D01*
G01X20813241Y2258138D01*
G01X20807399Y2252550D01*
G01X20790381Y2246708D01*
G01X20738819Y2246708D01*
G01X20895283Y2326718D02*
G01X20883853Y2321130D01*
G01X20872423Y2309700D01*
G01X20866581Y2292428D01*
G01X20866581Y2280998D01*
G01X20872423Y2263980D01*
G01X20883853Y2252550D01*
G01X20895283Y2246708D01*
G01X20912301Y2246708D01*
G01X20923731Y2252550D01*
G01X20935161Y2263980D01*
G01X20941003Y2280998D01*
G01X20941003Y2292428D01*
G01X20935161Y2309700D01*
G01X20923731Y2321130D01*
G01X20912301Y2326718D01*
G01X20895283Y2326718D01*
G01X21006027Y2366850D02*
G01X21006027Y2269568D01*
G01X21011615Y2252550D01*
G01X21023045Y2246708D01*
G01X21034475Y2246708D01*
G01X20988755Y2326718D02*
G01X21028887Y2326718D01*
G01X21099499Y2366850D02*
G01X21099499Y2269568D01*
G01X21105087Y2252550D01*
G01X21116517Y2246708D01*
G01X21127947Y2246708D01*
G01X21082227Y2326718D02*
G01X21122359Y2326718D01*
G01X21204401Y2326718D02*
G01X21192971Y2321130D01*
G01X21181541Y2309700D01*
G01X21175699Y2292428D01*
G01X21175699Y2280998D01*
G01X21181541Y2263980D01*
G01X21192971Y2252550D01*
G01X21204401Y2246708D01*
G01X21221419Y2246708D01*
G01X21232849Y2252550D01*
G01X21244279Y2263980D01*
G01X21250121Y2280998D01*
G01X21250121Y2292428D01*
G01X21244279Y2309700D01*
G01X21232849Y2321130D01*
G01X21221419Y2326718D01*
G01X21204401Y2326718D01*
G01X21297873Y2326718D02*
G01X21297873Y2246708D01*
G01X21297873Y2303858D02*
G01X21315145Y2321130D01*
G01X21326575Y2326718D01*
G01X21343593Y2326718D01*
G01X21355023Y2321130D01*
G01X21360865Y2303858D01*
G01X21360865Y2246708D01*
G01X21360865Y2303858D02*
G01X21377883Y2321130D01*
G01X21389313Y2326718D01*
G01X21406585Y2326718D01*
G01X21418015Y2321130D01*
G01X21423603Y2303858D01*
G01X21423603Y2246708D01*
G01X21599371Y2366850D02*
G01X21599371Y2246708D01*
G01X21599371Y2246708D02*
G01X21667951Y2246708D01*
G01X21784283Y2326718D02*
G01X21784283Y2246708D01*
G01X21784283Y2309700D02*
G01X21772853Y2321130D01*
G01X21761423Y2326718D01*
G01X21744405Y2326718D01*
G01X21732975Y2321130D01*
G01X21721545Y2309700D01*
G01X21715703Y2292428D01*
G01X21715703Y2280998D01*
G01X21721545Y2263980D01*
G01X21732975Y2252550D01*
G01X21744405Y2246708D01*
G01X21761423Y2246708D01*
G01X21772853Y2252550D01*
G01X21784283Y2263980D01*
G01X21837877Y2326718D02*
G01X21872167Y2246708D01*
G01X21906457Y2326718D02*
G01X21872167Y2246708D01*
G01X21860737Y2223848D01*
G01X21849307Y2212418D01*
G01X21837877Y2206830D01*
G01X21832035Y2206830D01*
G01X21954209Y2292428D02*
G01X22022789Y2292428D01*
G01X22022789Y2303858D01*
G01X22017201Y2315288D01*
G01X22011359Y2321130D01*
G01X21999929Y2326718D01*
G01X21982911Y2326718D01*
G01X21971481Y2321130D01*
G01X21960051Y2309700D01*
G01X21954209Y2292428D01*
G01X21954209Y2280998D01*
G01X21960051Y2263980D01*
G01X21971481Y2252550D01*
G01X21982911Y2246708D01*
G01X21999929Y2246708D01*
G01X22011359Y2252550D01*
G01X22022789Y2263980D01*
G01X22070541Y2326718D02*
G01X22070541Y2246708D01*
G01X22070541Y2292428D02*
G01X22076383Y2309700D01*
G01X22087813Y2321130D01*
G01X22099243Y2326718D01*
G01X22116261Y2326718D01*
G01X7587098Y1763419D02*
G01X7598528Y1769007D01*
G01X7615800Y1786279D01*
G01X7615800Y1666137D01*
G01X7669394Y1757577D02*
G01X7669394Y1763419D01*
G01X7674982Y1774849D01*
G01X7680824Y1780437D01*
G01X7692254Y1786279D01*
G01X7715114Y1786279D01*
G01X7726544Y1780437D01*
G01X7732132Y1774849D01*
G01X7737974Y1763419D01*
G01X7737974Y1751989D01*
G01X7732132Y1740559D01*
G01X7720702Y1723287D01*
G01X7663552Y1666137D01*
G01X7743562Y1666137D01*
G01X7859894Y1786279D02*
G01X7802744Y1786279D01*
G01X7797156Y1734717D01*
G01X7802744Y1740559D01*
G01X7820016Y1746147D01*
G01X7837034Y1746147D01*
G01X7854306Y1740559D01*
G01X7865736Y1729129D01*
G01X7871324Y1711857D01*
G01X7871324Y1700427D01*
G01X7865736Y1683409D01*
G01X7854306Y1671979D01*
G01X7837034Y1666137D01*
G01X7820016Y1666137D01*
G01X7802744Y1671979D01*
G01X7797156Y1677567D01*
G01X7791314Y1688997D01*
G01X9001261Y1763419D02*
G01X9012691Y1769007D01*
G01X9029963Y1786279D01*
G01X9029963Y1666137D01*
G01X9083557Y1757577D02*
G01X9083557Y1763419D01*
G01X9089145Y1774849D01*
G01X9094987Y1780437D01*
G01X9106417Y1786279D01*
G01X9129277Y1786279D01*
G01X9140707Y1780437D01*
G01X9146295Y1774849D01*
G01X9152137Y1763419D01*
G01X9152137Y1751989D01*
G01X9146295Y1740559D01*
G01X9134865Y1723287D01*
G01X9077715Y1666137D01*
G01X9157725Y1666137D01*
G01X9211319Y1694839D02*
G01X9205477Y1688997D01*
G01X9211319Y1683409D01*
G01X9216907Y1688997D01*
G01X9211319Y1694839D01*
G01X9298949Y1786279D02*
G01X9281931Y1780437D01*
G01X9270501Y1763419D01*
G01X9264659Y1734717D01*
G01X9264659Y1717699D01*
G01X9270501Y1688997D01*
G01X9281931Y1671979D01*
G01X9298949Y1666137D01*
G01X9310379Y1666137D01*
G01X9327651Y1671979D01*
G01X9339081Y1688997D01*
G01X9344669Y1717699D01*
G01X9344669Y1734717D01*
G01X9339081Y1763419D01*
G01X9327651Y1780437D01*
G01X9310379Y1786279D01*
G01X9298949Y1786279D01*
G01X9392421Y1746147D02*
G01X9392421Y1666137D01*
G01X9392421Y1723287D02*
G01X9409693Y1740559D01*
G01X9421123Y1746147D01*
G01X9438141Y1746147D01*
G01X9449571Y1740559D01*
G01X9455413Y1723287D01*
G01X9455413Y1666137D01*
G01X9455413Y1723287D02*
G01X9472431Y1740559D01*
G01X9483861Y1746147D01*
G01X9501133Y1746147D01*
G01X9512563Y1740559D01*
G01X9518151Y1723287D01*
G01X9518151Y1666137D01*
G01X9565903Y1786279D02*
G01X9571745Y1780437D01*
G01X9577333Y1786279D01*
G01X9571745Y1791867D01*
G01X9565903Y1786279D01*
G01X9571745Y1746147D02*
G01X9571745Y1666137D01*
G01X9625085Y1786279D02*
G01X9625085Y1666137D01*
G01X9712969Y1809139D02*
G01X9701539Y1797709D01*
G01X9690109Y1780437D01*
G01X9678679Y1757577D01*
G01X9672837Y1729129D01*
G01X9672837Y1706269D01*
G01X9678679Y1677567D01*
G01X9690109Y1654707D01*
G01X9701539Y1637689D01*
G01X9712969Y1626259D01*
G01X9795011Y1786279D02*
G01X9777993Y1780437D01*
G01X9766563Y1763419D01*
G01X9760721Y1734717D01*
G01X9760721Y1717699D01*
G01X9766563Y1688997D01*
G01X9777993Y1671979D01*
G01X9795011Y1666137D01*
G01X9806441Y1666137D01*
G01X9823713Y1671979D01*
G01X9835143Y1688997D01*
G01X9840731Y1717699D01*
G01X9840731Y1734717D01*
G01X9835143Y1763419D01*
G01X9823713Y1780437D01*
G01X9806441Y1786279D01*
G01X9795011Y1786279D01*
G01X9894325Y1694839D02*
G01X9888483Y1688997D01*
G01X9894325Y1683409D01*
G01X9899913Y1688997D01*
G01X9894325Y1694839D01*
G01X9959095Y1786279D02*
G01X10022087Y1786279D01*
G01X9987797Y1740559D01*
G01X10004815Y1740559D01*
G01X10016245Y1734717D01*
G01X10022087Y1729129D01*
G01X10027675Y1711857D01*
G01X10027675Y1700427D01*
G01X10022087Y1683409D01*
G01X10010657Y1671979D01*
G01X9993385Y1666137D01*
G01X9976367Y1666137D01*
G01X9959095Y1671979D01*
G01X9953507Y1677567D01*
G01X9947665Y1688997D01*
G01X10109717Y1786279D02*
G01X10092699Y1780437D01*
G01X10081269Y1763419D01*
G01X10075427Y1734717D01*
G01X10075427Y1717699D01*
G01X10081269Y1688997D01*
G01X10092699Y1671979D01*
G01X10109717Y1666137D01*
G01X10121147Y1666137D01*
G01X10138419Y1671979D01*
G01X10149849Y1688997D01*
G01X10155437Y1717699D01*
G01X10155437Y1734717D01*
G01X10149849Y1763419D01*
G01X10138419Y1780437D01*
G01X10121147Y1786279D01*
G01X10109717Y1786279D01*
G01X10271769Y1786279D02*
G01X10214619Y1786279D01*
G01X10209031Y1734717D01*
G01X10214619Y1740559D01*
G01X10231891Y1746147D01*
G01X10248909Y1746147D01*
G01X10266181Y1740559D01*
G01X10277611Y1729129D01*
G01X10283199Y1711857D01*
G01X10283199Y1700427D01*
G01X10277611Y1683409D01*
G01X10266181Y1671979D01*
G01X10248909Y1666137D01*
G01X10231891Y1666137D01*
G01X10214619Y1671979D01*
G01X10209031Y1677567D01*
G01X10203189Y1688997D01*
G01X10330951Y1746147D02*
G01X10330951Y1666137D01*
G01X10330951Y1723287D02*
G01X10348223Y1740559D01*
G01X10359653Y1746147D01*
G01X10376671Y1746147D01*
G01X10388101Y1740559D01*
G01X10393943Y1723287D01*
G01X10393943Y1666137D01*
G01X10393943Y1723287D02*
G01X10410961Y1740559D01*
G01X10422391Y1746147D01*
G01X10439663Y1746147D01*
G01X10451093Y1740559D01*
G01X10456681Y1723287D01*
G01X10456681Y1666137D01*
G01X10504433Y1746147D02*
G01X10504433Y1666137D01*
G01X10504433Y1723287D02*
G01X10521705Y1740559D01*
G01X10533135Y1746147D01*
G01X10550153Y1746147D01*
G01X10561583Y1740559D01*
G01X10567425Y1723287D01*
G01X10567425Y1666137D01*
G01X10567425Y1723287D02*
G01X10584443Y1740559D01*
G01X10595873Y1746147D01*
G01X10613145Y1746147D01*
G01X10624575Y1740559D01*
G01X10630163Y1723287D01*
G01X10630163Y1666137D01*
G01X10677915Y1809139D02*
G01X10689345Y1797709D01*
G01X10700775Y1780437D01*
G01X10712205Y1757577D01*
G01X10718047Y1729129D01*
G01X10718047Y1706269D01*
G01X10712205Y1677567D01*
G01X10700775Y1654707D01*
G01X10689345Y1637689D01*
G01X10677915Y1626259D01*
G01X13048134Y1786279D02*
G01X13048134Y1666137D01*
G01X13048134Y1786279D02*
G01X13099696Y1786279D01*
G01X13116714Y1780437D01*
G01X13122556Y1774849D01*
G01X13128144Y1763419D01*
G01X13128144Y1746147D01*
G01X13122556Y1734717D01*
G01X13116714Y1729129D01*
G01X13099696Y1723287D01*
G01X13048134Y1723287D01*
G01X13216028Y1786279D02*
G01X13216028Y1666137D01*
G01X13175896Y1786279D02*
G01X13255906Y1786279D01*
G01X13303658Y1786279D02*
G01X13303658Y1666137D01*
G01X13383668Y1786279D02*
G01X13383668Y1666137D01*
G01X13303658Y1729129D02*
G01X13383668Y1729129D01*
G01X14509541Y1786279D02*
G01X14509541Y1666137D01*
G01X14509541Y1786279D02*
G01X14561103Y1786279D01*
G01X14578121Y1780437D01*
G01X14583963Y1774849D01*
G01X14589551Y1763419D01*
G01X14589551Y1751989D01*
G01X14583963Y1740559D01*
G01X14578121Y1734717D01*
G01X14561103Y1729129D01*
G01X14509541Y1729129D01*
G01X14549673Y1729129D02*
G01X14589551Y1666137D01*
G01X14666005Y1746147D02*
G01X14654575Y1740559D01*
G01X14643145Y1729129D01*
G01X14637303Y1711857D01*
G01X14637303Y1700427D01*
G01X14643145Y1683409D01*
G01X14654575Y1671979D01*
G01X14666005Y1666137D01*
G01X14683023Y1666137D01*
G01X14694453Y1671979D01*
G01X14705883Y1683409D01*
G01X14711725Y1700427D01*
G01X14711725Y1711857D01*
G01X14705883Y1729129D01*
G01X14694453Y1740559D01*
G01X14683023Y1746147D01*
G01X14666005Y1746147D01*
G01X14759477Y1746147D02*
G01X14759477Y1688997D01*
G01X14765319Y1671979D01*
G01X14776749Y1666137D01*
G01X14793767Y1666137D01*
G01X14805197Y1671979D01*
G01X14822469Y1688997D01*
G01X14822469Y1746147D02*
G01X14822469Y1666137D01*
G01X14870221Y1746147D02*
G01X14870221Y1666137D01*
G01X14870221Y1723287D02*
G01X14887493Y1740559D01*
G01X14898923Y1746147D01*
G01X14915941Y1746147D01*
G01X14927371Y1740559D01*
G01X14933213Y1723287D01*
G01X14933213Y1666137D01*
G01X15049545Y1786279D02*
G01X15049545Y1666137D01*
G01X15049545Y1729129D02*
G01X15038115Y1740559D01*
G01X15026685Y1746147D01*
G01X15009667Y1746147D01*
G01X14998237Y1740559D01*
G01X14986807Y1729129D01*
G01X14980965Y1711857D01*
G01X14980965Y1700427D01*
G01X14986807Y1683409D01*
G01X14998237Y1671979D01*
G01X15009667Y1666137D01*
G01X15026685Y1666137D01*
G01X15038115Y1671979D01*
G01X15049545Y1683409D01*
G01X15940723Y1786279D02*
G01X15986443Y1666137D01*
G01X16032163Y1786279D02*
G01X15986443Y1666137D01*
G01X16079915Y1786279D02*
G01X16085757Y1780437D01*
G01X16091345Y1786279D01*
G01X16085757Y1791867D01*
G01X16079915Y1786279D01*
G01X16085757Y1746147D02*
G01X16085757Y1666137D01*
G01X16207677Y1746147D02*
G01X16207677Y1666137D01*
G01X16207677Y1729129D02*
G01X16196247Y1740559D01*
G01X16184817Y1746147D01*
G01X16167799Y1746147D01*
G01X16156369Y1740559D01*
G01X16144939Y1729129D01*
G01X16139097Y1711857D01*
G01X16139097Y1700427D01*
G01X16144939Y1683409D01*
G01X16156369Y1671979D01*
G01X16167799Y1666137D01*
G01X16184817Y1666137D01*
G01X16196247Y1671979D01*
G01X16207677Y1683409D01*
G01X19569403Y1786279D02*
G01X19569403Y1666137D01*
G01X19529271Y1786279D02*
G01X19609281Y1786279D01*
G01X19685735Y1746147D02*
G01X19674305Y1740559D01*
G01X19662875Y1729129D01*
G01X19657033Y1711857D01*
G01X19657033Y1700427D01*
G01X19662875Y1683409D01*
G01X19674305Y1671979D01*
G01X19685735Y1666137D01*
G01X19702753Y1666137D01*
G01X19714183Y1671979D01*
G01X19725613Y1683409D01*
G01X19731455Y1700427D01*
G01X19731455Y1711857D01*
G01X19725613Y1729129D01*
G01X19714183Y1740559D01*
G01X19702753Y1746147D01*
G01X19685735Y1746147D01*
G01X19779207Y1746147D02*
G01X19779207Y1626259D01*
G01X19779207Y1729129D02*
G01X19790637Y1740559D01*
G01X19802067Y1746147D01*
G01X19819339Y1746147D01*
G01X19830769Y1740559D01*
G01X19842199Y1729129D01*
G01X19847787Y1711857D01*
G01X19847787Y1700427D01*
G01X19842199Y1683409D01*
G01X19830769Y1671979D01*
G01X19819339Y1666137D01*
G01X19802067Y1666137D01*
G01X19790637Y1671979D01*
G01X19779207Y1683409D01*
G01X20023555Y1786279D02*
G01X20023555Y1666137D01*
G01X20023555Y1666137D02*
G01X20092135Y1666137D01*
G01X20208467Y1746147D02*
G01X20208467Y1666137D01*
G01X20208467Y1729129D02*
G01X20197037Y1740559D01*
G01X20185607Y1746147D01*
G01X20168589Y1746147D01*
G01X20157159Y1740559D01*
G01X20145729Y1729129D01*
G01X20139887Y1711857D01*
G01X20139887Y1700427D01*
G01X20145729Y1683409D01*
G01X20157159Y1671979D01*
G01X20168589Y1666137D01*
G01X20185607Y1666137D01*
G01X20197037Y1671979D01*
G01X20208467Y1683409D01*
G01X20262061Y1746147D02*
G01X20296351Y1666137D01*
G01X20330641Y1746147D02*
G01X20296351Y1666137D01*
G01X20284921Y1643277D01*
G01X20273491Y1631847D01*
G01X20262061Y1626259D01*
G01X20256219Y1626259D01*
G01X20378393Y1711857D02*
G01X20446973Y1711857D01*
G01X20446973Y1723287D01*
G01X20441385Y1734717D01*
G01X20435543Y1740559D01*
G01X20424113Y1746147D01*
G01X20407095Y1746147D01*
G01X20395665Y1740559D01*
G01X20384235Y1729129D01*
G01X20378393Y1711857D01*
G01X20378393Y1700427D01*
G01X20384235Y1683409D01*
G01X20395665Y1671979D01*
G01X20407095Y1666137D01*
G01X20424113Y1666137D01*
G01X20435543Y1671979D01*
G01X20446973Y1683409D01*
G01X20494725Y1746147D02*
G01X20494725Y1666137D01*
G01X20494725Y1711857D02*
G01X20500567Y1729129D01*
G01X20511997Y1740559D01*
G01X20523427Y1746147D01*
G01X20540445Y1746147D01*
G01X20588197Y1717699D02*
G01X20691067Y1717699D01*
G01X20738819Y1786279D02*
G01X20738819Y1666137D01*
G01X20738819Y1786279D02*
G01X20790381Y1786279D01*
G01X20807399Y1780437D01*
G01X20813241Y1774849D01*
G01X20818829Y1763419D01*
G01X20818829Y1751989D01*
G01X20813241Y1740559D01*
G01X20807399Y1734717D01*
G01X20790381Y1729129D01*
G01X20738819Y1729129D02*
G01X20790381Y1729129D01*
G01X20807399Y1723287D01*
G01X20813241Y1717699D01*
G01X20818829Y1706269D01*
G01X20818829Y1688997D01*
G01X20813241Y1677567D01*
G01X20807399Y1671979D01*
G01X20790381Y1666137D01*
G01X20738819Y1666137D01*
G01X20895283Y1746147D02*
G01X20883853Y1740559D01*
G01X20872423Y1729129D01*
G01X20866581Y1711857D01*
G01X20866581Y1700427D01*
G01X20872423Y1683409D01*
G01X20883853Y1671979D01*
G01X20895283Y1666137D01*
G01X20912301Y1666137D01*
G01X20923731Y1671979D01*
G01X20935161Y1683409D01*
G01X20941003Y1700427D01*
G01X20941003Y1711857D01*
G01X20935161Y1729129D01*
G01X20923731Y1740559D01*
G01X20912301Y1746147D01*
G01X20895283Y1746147D01*
G01X21006027Y1786279D02*
G01X21006027Y1688997D01*
G01X21011615Y1671979D01*
G01X21023045Y1666137D01*
G01X21034475Y1666137D01*
G01X20988755Y1746147D02*
G01X21028887Y1746147D01*
G01X21099499Y1786279D02*
G01X21099499Y1688997D01*
G01X21105087Y1671979D01*
G01X21116517Y1666137D01*
G01X21127947Y1666137D01*
G01X21082227Y1746147D02*
G01X21122359Y1746147D01*
G01X21204401Y1746147D02*
G01X21192971Y1740559D01*
G01X21181541Y1729129D01*
G01X21175699Y1711857D01*
G01X21175699Y1700427D01*
G01X21181541Y1683409D01*
G01X21192971Y1671979D01*
G01X21204401Y1666137D01*
G01X21221419Y1666137D01*
G01X21232849Y1671979D01*
G01X21244279Y1683409D01*
G01X21250121Y1700427D01*
G01X21250121Y1711857D01*
G01X21244279Y1729129D01*
G01X21232849Y1740559D01*
G01X21221419Y1746147D01*
G01X21204401Y1746147D01*
G01X21297873Y1746147D02*
G01X21297873Y1666137D01*
G01X21297873Y1723287D02*
G01X21315145Y1740559D01*
G01X21326575Y1746147D01*
G01X21343593Y1746147D01*
G01X21355023Y1740559D01*
G01X21360865Y1723287D01*
G01X21360865Y1666137D01*
G01X21360865Y1723287D02*
G01X21377883Y1740559D01*
G01X21389313Y1746147D01*
G01X21406585Y1746147D01*
G01X21418015Y1740559D01*
G01X21423603Y1723287D01*
G01X21423603Y1666137D01*
G01X21599371Y1786279D02*
G01X21599371Y1666137D01*
G01X21599371Y1666137D02*
G01X21667951Y1666137D01*
G01X21784283Y1746147D02*
G01X21784283Y1666137D01*
G01X21784283Y1729129D02*
G01X21772853Y1740559D01*
G01X21761423Y1746147D01*
G01X21744405Y1746147D01*
G01X21732975Y1740559D01*
G01X21721545Y1729129D01*
G01X21715703Y1711857D01*
G01X21715703Y1700427D01*
G01X21721545Y1683409D01*
G01X21732975Y1671979D01*
G01X21744405Y1666137D01*
G01X21761423Y1666137D01*
G01X21772853Y1671979D01*
G01X21784283Y1683409D01*
G01X21837877Y1746147D02*
G01X21872167Y1666137D01*
G01X21906457Y1746147D02*
G01X21872167Y1666137D01*
G01X21860737Y1643277D01*
G01X21849307Y1631847D01*
G01X21837877Y1626259D01*
G01X21832035Y1626259D01*
G01X21954209Y1711857D02*
G01X22022789Y1711857D01*
G01X22022789Y1723287D01*
G01X22017201Y1734717D01*
G01X22011359Y1740559D01*
G01X21999929Y1746147D01*
G01X21982911Y1746147D01*
G01X21971481Y1740559D01*
G01X21960051Y1729129D01*
G01X21954209Y1711857D01*
G01X21954209Y1700427D01*
G01X21960051Y1683409D01*
G01X21971481Y1671979D01*
G01X21982911Y1666137D01*
G01X21999929Y1666137D01*
G01X22011359Y1671979D01*
G01X22022789Y1683409D01*
G01X22070541Y1746147D02*
G01X22070541Y1666137D01*
G01X22070541Y1711857D02*
G01X22076383Y1729129D01*
G01X22087813Y1740559D01*
G01X22099243Y1746147D01*
G01X22116261Y1746147D01*

G04 Image Start*
G36*
G01X6422486Y1605667D02*
G01X6316873Y1617147D01*
G01X6273998Y1519942D01*
G01X6231123Y1617147D01*
G01X6125509Y1605667D01*
G01X6188273Y1691392D01*
G01X6148551Y1745646D01*
G01X6180043Y1745646D01*
G01X6219743Y1691392D01*
G01X6180043Y1637137D01*
G01X6246871Y1644402D01*
G01X6246871Y1644402D01*
G01X6273998Y1582908D01*
G01X6301125Y1644402D01*
G01X6367952Y1637137D01*
G01X6328252Y1691392D01*
G01X6367927Y1745621D01*
G01X6301100Y1738356D01*
G01X6273998Y1799875D01*
G01X6246871Y1738382D01*
G01X6180043Y1745646D01*
G01X6148551Y1745646D01*
G01X6125509Y1777117D01*
G01X6231148Y1765636D01*
G01X6273998Y1862842D01*
G01X6316873Y1765636D01*
G01X6422486Y1777117D01*
G01X6359723Y1691392D01*
G01X6422486Y1605667D01*
G37*
G36*
G01X6293493Y2719971D02*
G01X6285753Y2719383D01*
G01X6277909Y2719185D01*
G01X6270066Y2719383D01*
G01X6262326Y2719971D01*
G01X6254699Y2720940D01*
G01X6247193Y2722280D01*
G01X6232588Y2726035D01*
G01X6218585Y2731160D01*
G01X6205263Y2737577D01*
G01X6192698Y2745210D01*
G01X6180966Y2753983D01*
G01X6170144Y2763819D01*
G01X6160308Y2774641D01*
G01X6151535Y2786373D01*
G01X6143902Y2798938D01*
G01X6137485Y2812260D01*
G01X6132360Y2826263D01*
G01X6128605Y2840868D01*
G01X6127265Y2848374D01*
G01X6126296Y2856001D01*
G01X6125708Y2863741D01*
G01X6125509Y2871585D01*
G01X6150909Y2871585D01*
G01X6151566Y2858618D01*
G01X6153494Y2846022D01*
G01X6156629Y2833860D01*
G01X6160906Y2822198D01*
G01X6166260Y2811099D01*
G01X6172629Y2800627D01*
G01X6179946Y2790847D01*
G01X6188149Y2781824D01*
G01X6197172Y2773621D01*
G01X6206952Y2766304D01*
G01X6217423Y2759935D01*
G01X6228523Y2754581D01*
G01X6240185Y2750304D01*
G01X6252347Y2747169D01*
G01X6252347Y2747169D01*
G01X6264943Y2745241D01*
G01X6277909Y2744585D01*
G01X6290876Y2745241D01*
G01X6303472Y2747169D01*
G01X6315634Y2750304D01*
G01X6327296Y2754581D01*
G01X6338395Y2759935D01*
G01X6348867Y2766304D01*
G01X6358647Y2773621D01*
G01X6367670Y2781824D01*
G01X6375873Y2790847D01*
G01X6383190Y2800627D01*
G01X6389559Y2811099D01*
G01X6394913Y2822198D01*
G01X6399190Y2833860D01*
G01X6402325Y2846022D01*
G01X6404253Y2858618D01*
G01X6404909Y2871585D01*
G01X6404253Y2884551D01*
G01X6402325Y2897147D01*
G01X6399190Y2909309D01*
G01X6394913Y2920971D01*
G01X6389559Y2932070D01*
G01X6383190Y2942542D01*
G01X6375873Y2952322D01*
G01X6367670Y2961345D01*
G01X6358647Y2969548D01*
G01X6348867Y2976865D01*
G01X6338395Y2983234D01*
G01X6327296Y2988588D01*
G01X6315634Y2992865D01*
G01X6303472Y2996000D01*
G01X6290876Y2997928D01*
G01X6277909Y2998585D01*
G01X6264943Y2997928D01*
G01X6252347Y2996000D01*
G01X6240185Y2992865D01*
G01X6228523Y2988588D01*
G01X6217423Y2983234D01*
G01X6206952Y2976865D01*
G01X6197172Y2969548D01*
G01X6188149Y2961345D01*
G01X6179946Y2952322D01*
G01X6172629Y2942542D01*
G01X6166260Y2932070D01*
G01X6160906Y2920971D01*
G01X6156629Y2909309D01*
G01X6153494Y2897147D01*
G01X6151566Y2884551D01*
G01X6150909Y2871585D01*
G01X6125509Y2871585D01*
G01X6125708Y2879428D01*
G01X6126296Y2887168D01*
G01X6127265Y2894795D01*
G01X6128605Y2902301D01*
G01X6132360Y2916906D01*
G01X6137485Y2930909D01*
G01X6143902Y2944231D01*
G01X6151535Y2956796D01*
G01X6160308Y2968528D01*
G01X6170144Y2979350D01*
G01X6180966Y2989186D01*
G01X6192698Y2997959D01*
G01X6205263Y3005592D01*
G01X6218585Y3012009D01*
G01X6232588Y3017134D01*
G01X6247193Y3020889D01*
G01X6254699Y3022229D01*
G01X6262326Y3023198D01*
G01X6270066Y3023786D01*
G01X6277909Y3023985D01*
G01X6285753Y3023786D01*
G01X6293493Y3023198D01*
G01X6301120Y3022229D01*
G01X6308625Y3020889D01*
G01X6323231Y3017134D01*
G01X6337234Y3012009D01*
G01X6350556Y3005592D01*
G01X6363121Y2997959D01*
G01X6374853Y2989186D01*
G01X6385675Y2979350D01*
G01X6395511Y2968528D01*
G01X6404284Y2956796D01*
G01X6411917Y2944231D01*
G01X6418334Y2930909D01*
G01X6423458Y2916906D01*
G01X6427214Y2902301D01*
G01X6428554Y2894795D01*
G01X6429523Y2887168D01*
G01X6430111Y2879428D01*
G01X6430309Y2871585D01*
G01X6430111Y2863741D01*
G01X6429523Y2856001D01*
G01X6428554Y2848374D01*
G01X6427214Y2840868D01*
G01X6423458Y2826263D01*
G01X6418334Y2812260D01*
G01X6411917Y2798938D01*
G01X6404284Y2786373D01*
G01X6395511Y2774641D01*
G01X6385675Y2763819D01*
G01X6374853Y2753983D01*
G01X6363121Y2745210D01*
G01X6350556Y2737577D01*
G01X6337234Y2731160D01*
G01X6323231Y2726035D01*
G01X6308625Y2722280D01*
G01X6301120Y2720940D01*
G01X6293493Y2719971D01*
G37*
G36*
G01X6125509Y2443413D02*
G01X6430309Y2443413D01*
G01X6277909Y2179456D01*
G01X6140175Y2418013D01*
G01X6169502Y2418013D01*
G01X6277909Y2230256D01*
G01X6386317Y2418013D01*
G01X6386317Y2418013D01*
G01X6169502Y2418013D01*
G01X6140175Y2418013D01*
G01X6125509Y2443413D01*
G37*
G36*
G01X6125509Y3604556D02*
G01X6404909Y3604556D01*
G01X6404909Y3325156D01*
G01X6125509Y3325156D01*
G01X6125509Y3579156D01*
G01X6150909Y3579156D01*
G01X6150909Y3350556D01*
G01X6379509Y3350556D01*
G01X6379509Y3579156D01*
G01X6379509Y3579156D01*
G01X6150909Y3579156D01*
G01X6125509Y3579156D01*
G01X6125509Y3604556D01*
G37*

G04 PolygonModel Start*
G54D15*
G01X5835224Y1427413D02*
G01X22706992Y1427413D01*
G01X5835224Y2007985D02*
G01X22706992Y2007985D01*
G01X5835224Y2588556D02*
G01X22706992Y2588556D01*
G01X5835224Y3169127D02*
G01X22706992Y3169127D01*
G01X5835224Y3749699D02*
G01X22706992Y3749699D01*
G01X5835224Y4330270D02*
G01X22706992Y4330270D01*
G01X5835224Y4330270D02*
G01X5835224Y1452813D01*
G01X7286652Y4330270D02*
G01X7286652Y1452813D01*
G01X8700815Y4330270D02*
G01X8700815Y1452813D01*
G01X12747689Y4330270D02*
G01X12747689Y1452813D01*
G01X14209096Y4330270D02*
G01X14209096Y1452813D01*
G01X15640277Y4330270D02*
G01X15640277Y1452813D01*
G01X17309456Y4330270D02*
G01X17309456Y1452813D01*
G01X19228825Y4330270D02*
G01X19228825Y1452813D01*
G01X22706992Y4330270D02*
G01X22706992Y1452813D01*

M02*

